999
"DXF R12 Output" (www.mydxf.blogspot.com)
 0 
SECTION
 2 
HEADER
 9 
$ACADVER
 1 
AC1009
 9 
$EXTMIN
 10 
 0 
 20 
 0 
 9 
$EXTMAX
 10 
 8.5 
 20 
 11 
 0 
ENDSEC
 0 
SECTION
 2 
ENTITIES
0
POLYLINE
8
0
62
7
70
0
10
0.000000
20
0.000000
66
1
0
VERTEX
8
0
10
86.883215
20
190.718438
70
0
0
VERTEX
8
0
10
86.442823
20
190.536143
70
0
0
VERTEX
8
0
10
86.260519
20
190.095742
70
0
0
VERTEX
8
0
10
86.442159
20
189.654840
70
0
0
VERTEX
8
0
10
86.883215
20
189.473575
70
0
0
VERTEX
8
0
10
87.324017
20
189.654950
70
0
0
VERTEX
8
0
10
87.505382
20
190.095742
70
0
0
VERTEX
8
0
10
87.324116
20
190.536798
70
0
0
VERTEX
8
0
10
86.883215
20
190.718438
70
0
0
VERTEX
8
0
10
86.883215
20
190.718438
70
0
0
SEQEND
8
0
0
POLYLINE
8
0
62
7
70
0
10
0.000000
20
0.000000
66
1
0
VERTEX
8
0
10
86.883215
20
193.268171
70
0
0
VERTEX
8
0
10
86.442169
20
193.086892
70
0
0
VERTEX
8
0
10
86.260519
20
192.645978
70
0
0
VERTEX
8
0
10
86.442813
20
192.205576
70
0
0
VERTEX
8
0
10
86.883215
20
192.023282
70
0
0
VERTEX
8
0
10
87.324126
20
192.204931
70
0
0
VERTEX
8
0
10
87.505382
20
192.645978
70
0
0
VERTEX
8
0
10
87.324007
20
193.086793
70
0
0
VERTEX
8
0
10
86.883215
20
193.268171
70
0
0
VERTEX
8
0
10
86.883215
20
193.268171
70
0
0
SEQEND
8
0
0
POLYLINE
8
0
62
7
70
0
10
0.000000
20
0.000000
66
1
0
VERTEX
8
0
10
86.883215
20
195.818381
70
0
0
VERTEX
8
0
10
86.442823
20
195.636077
70
0
0
VERTEX
8
0
10
86.260519
20
195.195685
70
0
0
VERTEX
8
0
10
86.442159
20
194.754770
70
0
0
VERTEX
8
0
10
86.883215
20
194.573491
70
0
0
VERTEX
8
0
10
87.324017
20
194.754889
70
0
0
VERTEX
8
0
10
87.505382
20
195.195685
70
0
0
VERTEX
8
0
10
87.324116
20
195.636741
70
0
0
VERTEX
8
0
10
86.883215
20
195.818381
70
0
0
VERTEX
8
0
10
86.883215
20
195.818381
70
0
0
SEQEND
8
0
0
POLYLINE
8
0
62
7
70
0
10
0.000000
20
0.000000
66
1
0
VERTEX
8
0
10
86.883215
20
188.168228
70
0
0
VERTEX
8
0
10
86.442169
20
187.986959
70
0
0
VERTEX
8
0
10
86.260519
20
187.546035
70
0
0
VERTEX
8
0
10
86.442813
20
187.105643
70
0
0
VERTEX
8
0
10
86.883215
20
186.923338
70
0
0
VERTEX
8
0
10
87.324126
20
187.104988
70
0
0
VERTEX
8
0
10
87.505382
20
187.546035
70
0
0
VERTEX
8
0
10
87.324007
20
187.986850
70
0
0
VERTEX
8
0
10
86.883215
20
188.168228
70
0
0
VERTEX
8
0
10
86.883215
20
188.168228
70
0
0
SEQEND
8
0
0
POLYLINE
8
0
62
7
70
0
10
0.000000
20
0.000000
66
1
0
VERTEX
8
0
10
86.883215
20
186.096517
70
0
0
VERTEX
8
0
10
86.416218
20
186.002978
70
0
0
VERTEX
8
0
10
86.035733
20
185.747343
70
0
0
VERTEX
8
0
10
85.779652
20
185.367085
70
0
0
VERTEX
8
0
10
85.685871
20
184.899675
70
0
0
VERTEX
8
0
10
85.779541
20
184.432359
70
0
0
VERTEX
8
0
10
86.035435
20
184.051918
70
0
0
VERTEX
8
0
10
86.415883
20
183.796027
70
0
0
VERTEX
8
0
10
86.883215
20
183.702358
70
0
0
VERTEX
8
0
10
87.350520
20
183.796168
70
0
0
VERTEX
8
0
10
87.730780
20
184.052295
70
0
0
VERTEX
8
0
10
87.986462
20
184.432783
70
0
0
VERTEX
8
0
10
88.080030
20
184.899675
70
0
0
VERTEX
8
0
10
87.986320
20
185.366583
70
0
0
VERTEX
8
0
10
87.730403
20
185.746897
70
0
0
VERTEX
8
0
10
87.350096
20
186.002810
70
0
0
VERTEX
8
0
10
86.883215
20
186.096517
70
0
0
VERTEX
8
0
10
86.883215
20
186.096517
70
0
0
SEQEND
8
0
0
POLYLINE
8
0
62
7
70
0
10
0.000000
20
0.000000
66
1
0
VERTEX
8
0
10
86.883215
20
182.517926
70
0
0
VERTEX
8
0
10
86.241899
20
182.434390
70
0
0
VERTEX
8
0
10
85.634198
20
182.183572
70
0
0
VERTEX
8
0
10
85.113133
20
181.782883
70
0
0
VERTEX
8
0
10
84.720368
20
181.269550
70
0
0
VERTEX
8
0
10
84.472522
20
180.672567
70
0
0
VERTEX
8
0
10
84.386213
20
180.020924
70
0
0
VERTEX
8
0
10
84.386213
20
175.821171
70
0
0
VERTEX
8
0
10
84.475414
20
175.158768
70
0
0
VERTEX
8
0
10
84.731226
20
174.553832
70
0
0
VERTEX
8
0
10
85.135960
20
174.036605
70
0
0
VERTEX
8
0
10
85.671928
20
173.637330
70
0
0
VERTEX
8
0
10
86.294279
20
173.394657
70
0
0
VERTEX
8
0
10
86.948299
20
173.325257
70
0
0
VERTEX
8
0
10
87.597810
20
173.428304
70
0
0
VERTEX
8
0
10
88.206633
20
173.702973
70
0
0
VERTEX
8
0
10
88.713718
20
174.126560
70
0
0
VERTEX
8
0
10
89.090896
20
174.665519
70
0
0
VERTEX
8
0
10
89.318690
20
175.282216
70
0
0
VERTEX
8
0
10
89.377624
20
175.939016
70
0
0
VERTEX
8
0
10
89.377624
20
175.941662
70
0
0
VERTEX
8
0
10
89.377624
20
175.949335
70
0
0
VERTEX
8
0
10
89.380799
20
180.020924
70
0
0
VERTEX
8
0
10
89.294397
20
180.672615
70
0
0
VERTEX
8
0
10
89.046350
20
181.269620
70
0
0
VERTEX
8
0
10
88.653399
20
181.782939
70
0
0
VERTEX
8
0
10
88.132285
20
182.183572
70
0
0
VERTEX
8
0
10
87.524839
20
182.434400
70
0
0
VERTEX
8
0
10
86.883797
20
182.517926
70
0
0
VERTEX
8
0
10
86.883215
20
182.517926
70
0
0
SEQEND
8
0
0
POLYLINE
8
0
62
7
70
0
10
0.000000
20
0.000000
66
1
0
VERTEX
8
0
10
77.772913
20
256.237137
70
0
0
VERTEX
8
0
10
77.772913
20
247.552925
70
0
0
VERTEX
8
0
10
78.586818
20
247.552925
70
0
0
VERTEX
8
0
10
78.586818
20
256.237137
70
0
0
VERTEX
8
0
10
77.772913
20
256.237137
70
0
0
SEQEND
8
0
0
POLYLINE
8
0
62
7
70
1
10
0.000000
20
0.000000
66
1
0
VERTEX
8
0
10
35.857696
20
295.187165
70
0
0
VERTEX
8
0
10
35.857696
20
294.372746
70
0
0
VERTEX
8
0
10
44.541910
20
294.372746
70
0
0
VERTEX
8
0
10
44.541910
20
295.187165
70
0
0
VERTEX
8
0
10
35.857696
20
295.187165
70
0
0
SEQEND
8
0
0
POLYLINE
8
0
62
7
70
0
10
0.000000
20
0.000000
66
1
0
VERTEX
8
0
10
1.812788
20
256.237137
70
0
0
VERTEX
8
0
10
1.812788
20
247.552925
70
0
0
VERTEX
8
0
10
2.627209
20
247.552925
70
0
0
VERTEX
8
0
10
2.627209
20
256.237137
70
0
0
VERTEX
8
0
10
1.812788
20
256.237137
70
0
0
SEQEND
8
0
0
POLYLINE
8
0
62
7
70
0
10
0.000000
20
0.000000
66
1
0
VERTEX
8
0
10
68.612762
20
137.727199
70
0
0
VERTEX
8
0
10
68.612762
20
136.913315
70
0
0
VERTEX
8
0
10
77.296976
20
136.913315
70
0
0
VERTEX
8
0
10
77.296976
20
137.727199
70
0
0
VERTEX
8
0
10
68.612762
20
137.727199
70
0
0
SEQEND
8
0
0
POLYLINE
8
0
62
7
70
0
10
0.000000
20
0.000000
66
1
0
VERTEX
8
0
10
67.132750
20
254.777279
70
0
0
VERTEX
8
0
10
67.132750
20
179.902875
70
0
0
VERTEX
8
0
10
79.167144
20
179.902875
70
0
0
VERTEX
8
0
10
79.167144
20
226.417288
70
0
0
VERTEX
8
0
10
76.345097
20
226.417288
70
0
0
VERTEX
8
0
10
76.345097
20
254.777279
70
0
0
VERTEX
8
0
10
67.132750
20
254.777279
70
0
0
SEQEND
8
0
0
POLYLINE
8
0
62
7
70
0
10
0.000000
20
0.000000
66
1
0
VERTEX
8
0
10
39.873468
20
267.177540
70
0
0
VERTEX
8
0
10
39.751511
20
267.107262
70
0
0
VERTEX
8
0
10
39.370504
20
266.673575
70
0
0
VERTEX
8
0
10
39.333449
20
266.097505
70
0
0
VERTEX
8
0
10
39.653471
20
265.617566
70
0
0
VERTEX
8
0
10
40.200061
20
265.432946
70
0
0
VERTEX
8
0
10
40.746653
20
265.617574
70
0
0
VERTEX
8
0
10
41.066674
20
266.097505
70
0
0
VERTEX
8
0
10
41.029654
20
266.673681
70
0
0
VERTEX
8
0
10
40.648095
20
267.107778
70
0
0
VERTEX
8
0
10
40.526138
20
267.177540
70
0
0
VERTEX
8
0
10
39.873468
20
267.177540
70
0
0
SEQEND
8
0
0
POLYLINE
8
0
62
7
70
0
10
0.000000
20
0.000000
66
1
0
VERTEX
8
0
10
40.200061
20
238.977231
70
0
0
VERTEX
8
0
10
39.653422
20
238.792347
70
0
0
VERTEX
8
0
10
39.333449
20
238.312154
70
0
0
VERTEX
8
0
10
39.370418
20
237.736414
70
0
0
VERTEX
8
0
10
39.751511
20
237.302916
70
0
0
VERTEX
8
0
10
39.873468
20
237.232637
70
0
0
VERTEX
8
0
10
40.526138
20
237.232637
70
0
0
VERTEX
8
0
10
40.649130
20
237.302916
70
0
0
VERTEX
8
0
10
41.029686
20
237.736246
70
0
0
VERTEX
8
0
10
41.066674
20
238.312154
70
0
0
VERTEX
8
0
10
40.746701
20
238.792348
70
0
0
VERTEX
8
0
10
40.200061
20
238.977231
70
0
0
VERTEX
8
0
10
40.200061
20
238.977231
70
0
0
SEQEND
8
0
0
POLYLINE
8
0
62
7
70
1
10
0.000000
20
0.000000
66
1
0
VERTEX
8
0
10
57.912652
20
254.374721
70
0
0
VERTEX
8
0
10
57.912652
20
227.580525
70
0
0
VERTEX
8
0
10
59.276908
20
227.580525
70
0
0
VERTEX
8
0
10
59.276908
20
254.374721
70
0
0
VERTEX
8
0
10
57.912652
20
254.374721
70
0
0
SEQEND
8
0
0
POLYLINE
8
0
62
7
70
0
10
0.000000
20
0.000000
66
1
0
VERTEX
8
0
10
34.599895
20
263.452191
70
0
0
VERTEX
8
0
10
34.318775
20
263.335404
70
0
0
VERTEX
8
0
10
34.203020
20
263.054800
70
0
0
VERTEX
8
0
10
34.203020
20
242.197185
70
0
0
VERTEX
8
0
10
31.202689
20
242.197185
70
0
0
VERTEX
8
0
10
31.202689
20
236.402714
70
0
0
VERTEX
8
0
10
33.997347
20
236.402714
70
0
0
VERTEX
8
0
10
33.997347
20
241.348660
70
0
0
VERTEX
8
0
10
33.997347
20
241.349718
70
0
0
VERTEX
8
0
10
34.203020
20
241.350776
70
0
0
VERTEX
8
0
10
34.203020
20
241.349718
70
0
0
VERTEX
8
0
10
34.319291
20
241.073766
70
0
0
VERTEX
8
0
10
34.599895
20
240.958011
70
0
0
VERTEX
8
0
10
45.799712
20
240.958011
70
0
0
VERTEX
8
0
10
46.079330
20
241.072141
70
0
0
VERTEX
8
0
10
46.197105
20
241.349718
70
0
0
VERTEX
8
0
10
46.197105
20
241.350776
70
0
0
VERTEX
8
0
10
46.402776
20
241.349718
70
0
0
VERTEX
8
0
10
46.402776
20
241.348660
70
0
0
VERTEX
8
0
10
46.402776
20
236.402714
70
0
0
VERTEX
8
0
10
49.196918
20
236.402714
70
0
0
VERTEX
8
0
10
49.196918
20
242.197185
70
0
0
VERTEX
8
0
10
46.197105
20
242.197185
70
0
0
VERTEX
8
0
10
46.197105
20
263.054800
70
0
0
VERTEX
8
0
10
46.080831
20
263.336436
70
0
0
VERTEX
8
0
10
45.799712
20
263.452191
70
0
0
VERTEX
8
0
10
34.599895
20
263.452191
70
0
0
SEQEND
8
0
0
POLYLINE
8
0
62
7
70
0
10
0.000000
20
0.000000
66
1
0
VERTEX
8
0
10
3.102630
20
137.727199
70
0
0
VERTEX
8
0
10
3.102630
20
136.913315
70
0
0
VERTEX
8
0
10
11.787361
20
136.913315
70
0
0
VERTEX
8
0
10
11.787361
20
137.727199
70
0
0
VERTEX
8
0
10
3.102630
20
137.727199
70
0
0
SEQEND
8
0
0
POLYLINE
8
0
62
7
70
0
10
0.000000
20
0.000000
66
1
0
VERTEX
8
0
10
86.882183
20
207.018206
70
0
0
VERTEX
8
0
10
85.899568
20
206.877497
70
0
0
VERTEX
8
0
10
84.979461
20
206.455464
70
0
0
VERTEX
8
0
10
84.221959
20
205.791050
70
0
0
VERTEX
8
0
10
83.692973
20
204.955087
70
0
0
VERTEX
8
0
10
83.418234
20
204.004893
70
0
0
VERTEX
8
0
10
83.423475
20
202.997788
70
0
0
VERTEX
8
0
10
83.423475
20
202.994083
70
0
0
VERTEX
8
0
10
83.824980
20
197.848685
70
0
0
VERTEX
8
0
10
89.940366
20
197.848685
70
0
0
VERTEX
8
0
10
90.339304
20
202.994083
70
0
0
VERTEX
8
0
10
90.339304
20
202.997788
70
0
0
VERTEX
8
0
10
90.344501
20
204.004878
70
0
0
VERTEX
8
0
10
90.069767
20
204.955067
70
0
0
VERTEX
8
0
10
89.540805
20
205.791035
70
0
0
VERTEX
8
0
10
88.783318
20
206.455464
70
0
0
VERTEX
8
0
10
87.863485
20
206.877447
70
0
0
VERTEX
8
0
10
86.881125
20
207.018206
70
0
0
VERTEX
8
0
10
86.882183
20
207.018206
70
0
0
SEQEND
8
0
0
POLYLINE
8
0
62
7
70
1
10
0.000000
20
0.000000
66
1
0
VERTEX
8
0
10
25.762719
20
288.157112
70
0
0
VERTEX
8
0
10
25.762719
20
285.362970
70
0
0
VERTEX
8
0
10
31.557190
20
285.362970
70
0
0
VERTEX
8
0
10
31.557190
20
288.157112
70
0
0
VERTEX
8
0
10
25.762719
20
288.157112
70
0
0
SEQEND
8
0
0
POLYLINE
8
0
62
7
70
0
10
0.000000
20
0.000000
66
1
0
VERTEX
8
0
10
60.302686
20
143.197161
70
0
0
VERTEX
8
0
10
60.302686
20
137.403190
70
0
0
VERTEX
8
0
10
63.096825
20
137.403190
70
0
0
VERTEX
8
0
10
63.096825
20
143.197161
70
0
0
VERTEX
8
0
10
60.302686
20
143.197161
70
0
0
SEQEND
8
0
0
POLYLINE
8
0
62
7
70
0
10
0.000000
20
0.000000
66
1
0
VERTEX
8
0
10
17.302781
20
188.197448
70
0
0
VERTEX
8
0
10
17.302781
20
182.402978
70
0
0
VERTEX
8
0
10
20.096920
20
182.402978
70
0
0
VERTEX
8
0
10
20.096920
20
188.197448
70
0
0
VERTEX
8
0
10
17.302781
20
188.197448
70
0
0
SEQEND
8
0
0
POLYLINE
8
0
62
7
70
0
10
0.000000
20
0.000000
66
1
0
VERTEX
8
0
10
24.302861
20
188.197448
70
0
0
VERTEX
8
0
10
24.302861
20
185.402791
70
0
0
VERTEX
8
0
10
30.097332
20
185.402791
70
0
0
VERTEX
8
0
10
30.097332
20
188.197448
70
0
0
VERTEX
8
0
10
24.302861
20
188.197448
70
0
0
SEQEND
8
0
0
POLYLINE
8
0
62
7
70
0
10
0.000000
20
0.000000
66
1
0
VERTEX
8
0
10
50.302792
20
140.197346
70
0
0
VERTEX
8
0
10
50.302792
20
137.403190
70
0
0
VERTEX
8
0
10
56.097263
20
137.403190
70
0
0
VERTEX
8
0
10
56.097263
20
140.197346
70
0
0
VERTEX
8
0
10
50.302792
20
140.197346
70
0
0
SEQEND
8
0
0
POLYLINE
8
0
62
7
70
1
10
0.000000
20
0.000000
66
1
0
VERTEX
8
0
10
48.842935
20
288.157112
70
0
0
VERTEX
8
0
10
48.842935
20
285.362970
70
0
0
VERTEX
8
0
10
54.636890
20
285.362970
70
0
0
VERTEX
8
0
10
54.636890
20
288.157112
70
0
0
VERTEX
8
0
10
48.842935
20
288.157112
70
0
0
SEQEND
8
0
0
POLYLINE
8
0
62
7
70
0
10
0.000000
20
0.000000
66
1
0
VERTEX
8
0
10
17.302781
20
143.197161
70
0
0
VERTEX
8
0
10
17.302781
20
137.403190
70
0
0
VERTEX
8
0
10
20.096920
20
137.403190
70
0
0
VERTEX
8
0
10
20.096920
20
143.197161
70
0
0
VERTEX
8
0
10
17.302781
20
143.197161
70
0
0
SEQEND
8
0
0
POLYLINE
8
0
62
7
70
0
10
0.000000
20
0.000000
66
1
0
VERTEX
8
0
10
28.270056
20
166.937273
70
0
0
VERTEX
8
0
10
27.453203
20
166.772677
70
0
0
VERTEX
8
0
10
26.786705
20
166.323598
70
0
0
VERTEX
8
0
10
26.337626
20
165.657100
70
0
0
VERTEX
8
0
10
26.173029
20
164.840246
70
0
0
VERTEX
8
0
10
26.337625
20
164.023394
70
0
0
VERTEX
8
0
10
26.786704
20
163.356896
70
0
0
VERTEX
8
0
10
27.453202
20
162.907816
70
0
0
VERTEX
8
0
10
28.270056
20
162.743220
70
0
0
VERTEX
8
0
10
29.086945
20
162.907804
70
0
0
VERTEX
8
0
10
29.753440
20
163.356863
70
0
0
VERTEX
8
0
10
30.202498
20
164.023357
70
0
0
VERTEX
8
0
10
30.367083
20
164.840246
70
0
0
VERTEX
8
0
10
30.202486
20
165.657100
70
0
0
VERTEX
8
0
10
29.753407
20
166.323598
70
0
0
VERTEX
8
0
10
29.086909
20
166.772677
70
0
0
VERTEX
8
0
10
28.270056
20
166.937273
70
0
0
VERTEX
8
0
10
28.270056
20
166.937273
70
0
0
SEQEND
8
0
0
POLYLINE
8
0
62
7
70
0
10
0.000000
20
0.000000
66
1
0
VERTEX
8
0
10
52.130069
20
166.757439
70
0
0
VERTEX
8
0
10
51.383333
20
166.606935
70
0
0
VERTEX
8
0
10
50.773984
20
166.196328
70
0
0
VERTEX
8
0
10
50.363378
20
165.586979
70
0
0
VERTEX
8
0
10
50.212874
20
164.840246
70
0
0
VERTEX
8
0
10
50.363378
20
164.093514
70
0
0
VERTEX
8
0
10
50.773984
20
163.484165
70
0
0
VERTEX
8
0
10
51.383333
20
163.073558
70
0
0
VERTEX
8
0
10
52.130069
20
162.923054
70
0
0
VERTEX
8
0
10
52.876802
20
163.073558
70
0
0
VERTEX
8
0
10
53.486151
20
163.484165
70
0
0
VERTEX
8
0
10
53.896757
20
164.093514
70
0
0
VERTEX
8
0
10
54.047261
20
164.840246
70
0
0
VERTEX
8
0
10
53.896757
20
165.586979
70
0
0
VERTEX
8
0
10
53.486151
20
166.196328
70
0
0
VERTEX
8
0
10
52.876802
20
166.606935
70
0
0
VERTEX
8
0
10
52.130069
20
166.757439
70
0
0
VERTEX
8
0
10
52.130069
20
166.757439
70
0
0
SEQEND
8
0
0
POLYLINE
8
0
62
7
70
0
10
0.000000
20
0.000000
66
1
0
VERTEX
8
0
10
52.130069
20
206.977156
70
0
0
VERTEX
8
0
10
51.313215
20
206.812560
70
0
0
VERTEX
8
0
10
50.646716
20
206.363481
70
0
0
VERTEX
8
0
10
50.197636
20
205.696983
70
0
0
VERTEX
8
0
10
50.033040
20
204.880129
70
0
0
VERTEX
8
0
10
50.197636
20
204.063276
70
0
0
VERTEX
8
0
10
50.646716
20
203.396778
70
0
0
VERTEX
8
0
10
51.313215
20
202.947699
70
0
0
VERTEX
8
0
10
52.130069
20
202.783102
70
0
0
VERTEX
8
0
10
52.946957
20
202.947686
70
0
0
VERTEX
8
0
10
53.613451
20
203.396745
70
0
0
VERTEX
8
0
10
54.062511
20
204.063239
70
0
0
VERTEX
8
0
10
54.227095
20
204.880129
70
0
0
VERTEX
8
0
10
54.062499
20
205.696982
70
0
0
VERTEX
8
0
10
53.613420
20
206.363480
70
0
0
VERTEX
8
0
10
52.946921
20
206.812559
70
0
0
VERTEX
8
0
10
52.130069
20
206.977156
70
0
0
VERTEX
8
0
10
52.130069
20
206.977156
70
0
0
SEQEND
8
0
0
POLYLINE
8
0
62
7
70
0
10
0.000000
20
0.000000
66
1
0
VERTEX
8
0
10
28.270056
20
206.977156
70
0
0
VERTEX
8
0
10
27.453202
20
206.812560
70
0
0
VERTEX
8
0
10
26.786704
20
206.363481
70
0
0
VERTEX
8
0
10
26.337625
20
205.696983
70
0
0
VERTEX
8
0
10
26.173029
20
204.880129
70
0
0
VERTEX
8
0
10
26.337626
20
204.063276
70
0
0
VERTEX
8
0
10
26.786705
20
203.396778
70
0
0
VERTEX
8
0
10
27.453203
20
202.947699
70
0
0
VERTEX
8
0
10
28.270056
20
202.783102
70
0
0
VERTEX
8
0
10
29.086946
20
202.947686
70
0
0
VERTEX
8
0
10
29.753440
20
203.396744
70
0
0
VERTEX
8
0
10
30.202499
20
204.063238
70
0
0
VERTEX
8
0
10
30.367083
20
204.880129
70
0
0
VERTEX
8
0
10
30.202486
20
205.696982
70
0
0
VERTEX
8
0
10
29.753407
20
206.363480
70
0
0
VERTEX
8
0
10
29.086909
20
206.812559
70
0
0
VERTEX
8
0
10
28.270056
20
206.977156
70
0
0
VERTEX
8
0
10
28.270056
20
206.977156
70
0
0
SEQEND
8
0
0
POLYLINE
8
0
62
7
70
0
10
0.000000
20
0.000000
66
1
0
VERTEX
8
0
10
36.914477
20
234.197166
70
0
0
VERTEX
8
0
10
36.890189
20
234.180630
70
0
0
VERTEX
8
0
10
35.803592
20
233.230450
70
0
0
VERTEX
8
0
10
34.989973
20
232.062797
70
0
0
VERTEX
8
0
10
34.479602
20
230.733981
70
0
0
VERTEX
8
0
10
34.302752
20
229.300314
70
0
0
VERTEX
8
0
10
34.479550
20
227.866538
70
0
0
VERTEX
8
0
10
34.989790
20
226.537496
70
0
0
VERTEX
8
0
10
35.803240
20
225.369655
70
0
0
VERTEX
8
0
10
36.889670
20
224.419480
70
0
0
VERTEX
8
0
10
36.913959
20
224.402944
70
0
0
VERTEX
8
0
10
43.485642
20
224.402944
70
0
0
VERTEX
8
0
10
43.509931
20
224.419480
70
0
0
VERTEX
8
0
10
44.596499
20
225.369752
70
0
0
VERTEX
8
0
10
45.409934
20
226.537587
70
0
0
VERTEX
8
0
10
45.920097
20
227.866577
70
0
0
VERTEX
8
0
10
46.096849
20
229.300314
70
0
0
VERTEX
8
0
10
45.920021
20
230.733990
70
0
0
VERTEX
8
0
10
45.409731
20
232.062832
70
0
0
VERTEX
8
0
10
44.596270
20
233.230494
70
0
0
VERTEX
8
0
10
43.509931
20
234.180630
70
0
0
VERTEX
8
0
10
43.485642
20
234.197166
70
0
0
VERTEX
8
0
10
36.914477
20
234.197166
70
0
0
SEQEND
8
0
0
POLYLINE
8
0
62
7
70
0
10
0.000000
20
0.000000
66
1
0
VERTEX
8
0
10
24.302861
20
140.197346
70
0
0
VERTEX
8
0
10
24.302861
20
137.403190
70
0
0
VERTEX
8
0
10
30.097332
20
137.403190
70
0
0
VERTEX
8
0
10
30.097332
20
140.197346
70
0
0
VERTEX
8
0
10
24.302861
20
140.197346
70
0
0
SEQEND
8
0
0
POLYLINE
8
0
62
7
70
0
10
0.000000
20
0.000000
66
1
0
VERTEX
8
0
10
60.302686
20
188.197448
70
0
0
VERTEX
8
0
10
60.302686
20
182.402978
70
0
0
VERTEX
8
0
10
63.096825
20
182.402978
70
0
0
VERTEX
8
0
10
63.096825
20
188.197448
70
0
0
VERTEX
8
0
10
60.302686
20
188.197448
70
0
0
SEQEND
8
0
0
POLYLINE
8
0
62
7
70
0
10
0.000000
20
0.000000
66
1
0
VERTEX
8
0
10
50.302792
20
188.197448
70
0
0
VERTEX
8
0
10
50.302792
20
185.402791
70
0
0
VERTEX
8
0
10
56.097263
20
185.402791
70
0
0
VERTEX
8
0
10
56.097263
20
188.197448
70
0
0
VERTEX
8
0
10
50.302792
20
188.197448
70
0
0
SEQEND
8
0
0
POLYLINE
8
0
62
7
70
0
10
0.000000
20
0.000000
66
1
0
VERTEX
8
0
10
91.083100
20
175.813631
70
0
0
VERTEX
8
0
10
90.996533
20
174.968477
70
0
0
VERTEX
8
0
10
90.751032
20
174.181382
70
0
0
VERTEX
8
0
10
90.363431
20
173.469183
70
0
0
VERTEX
8
0
10
89.850563
20
172.848717
70
0
0
VERTEX
8
0
10
89.229263
20
172.336822
70
0
0
VERTEX
8
0
10
88.516365
20
171.950336
70
0
0
VERTEX
8
0
10
87.728702
20
171.706097
70
0
0
VERTEX
8
0
10
86.883109
20
171.620943
70
0
0
VERTEX
8
0
10
86.037545
20
171.706097
70
0
0
VERTEX
8
0
10
85.249891
20
171.950336
70
0
0
VERTEX
8
0
10
84.536988
20
172.336822
70
0
0
VERTEX
8
0
10
83.915675
20
172.848717
70
0
0
VERTEX
8
0
10
83.402793
20
173.469183
70
0
0
VERTEX
8
0
10
83.015179
20
174.181382
70
0
0
VERTEX
8
0
10
82.769675
20
174.968477
70
0
0
VERTEX
8
0
10
82.683119
20
175.813631
70
0
0
VERTEX
8
0
10
80.683136
20
203.513698
70
0
0
VERTEX
8
0
10
80.683136
20
203.520842
70
0
0
VERTEX
8
0
10
80.897747
20
205.138509
70
0
0
VERTEX
8
0
10
81.513764
20
206.620805
70
0
0
VERTEX
8
0
10
82.489464
20
207.895442
70
0
0
VERTEX
8
0
10
83.783123
20
208.890130
70
0
0
VERTEX
8
0
10
85.291396
20
209.513094
70
0
0
VERTEX
8
0
10
86.883123
20
209.720749
70
0
0
VERTEX
8
0
10
88.474849
20
209.513094
70
0
0
VERTEX
8
0
10
89.983123
20
208.890130
70
0
0
VERTEX
8
0
10
91.276770
20
207.895442
70
0
0
VERTEX
8
0
10
92.252471
20
206.620805
70
0
0
VERTEX
8
0
10
92.868494
20
205.138509
70
0
0
VERTEX
8
0
10
93.083109
20
203.520842
70
0
0
VERTEX
8
0
10
93.083109
20
203.513698
70
0
0
VERTEX
8
0
10
91.083100
20
175.813631
70
0
0
SEQEND
8
0
0
POLYLINE
8
0
62
7
70
0
10
0.000000
20
0.000000
66
1
0
VERTEX
8
0
10
82.761938
20
213.176801
70
0
0
VERTEX
8
0
10
80.662305
20
213.176801
70
0
0
VERTEX
8
0
10
80.662305
20
221.786790
70
0
0
VERTEX
8
0
10
91.062293
20
221.786790
70
0
0
VERTEX
8
0
10
91.062293
20
213.176801
70
0
0
VERTEX
8
0
10
88.961933
20
213.177007
70
0
0
VERTEX
8
0
10
88.961933
20
210.177009
70
0
0
VERTEX
8
0
10
82.761938
20
210.176803
70
0
0
VERTEX
8
0
10
82.761938
20
213.176801
70
0
0
SEQEND
8
0
0
POLYLINE
8
0
62
7
70
0
10
0.000000
20
0.000000
66
1
0
VERTEX
8
0
10
76.199904
20
134.600198
70
0
0
VERTEX
8
0
10
4.199996
20
134.600198
70
0
0
VERTEX
8
0
10
3.376837
20
134.681647
70
0
0
VERTEX
8
0
10
2.592772
20
134.919904
70
0
0
VERTEX
8
0
10
1.869870
20
135.305832
70
0
0
VERTEX
8
0
10
1.230200
20
135.830297
70
0
0
VERTEX
8
0
10
0.705670
20
136.469975
70
0
0
VERTEX
8
0
10
0.319712
20
137.192887
70
0
0
VERTEX
8
0
10
0.081448
20
137.976977
70
0
0
VERTEX
8
0
10
0.000000
20
138.800189
70
0
0
VERTEX
8
0
10
0.000000
20
258.109350
70
0
0
VERTEX
8
0
10
0.185750
20
259.344399
70
0
0
VERTEX
8
0
10
0.726399
20
260.470248
70
0
0
VERTEX
8
0
10
24.304168
20
295.160804
70
0
0
VERTEX
8
0
10
24.981173
20
295.933503
70
0
0
VERTEX
8
0
10
25.812555
20
296.511802
70
0
0
VERTEX
8
0
10
26.758143
20
296.874401
70
0
0
VERTEX
8
0
10
27.777765
20
297.000000
70
0
0
VERTEX
8
0
10
52.622135
20
297.000000
70
0
0
VERTEX
8
0
10
53.641772
20
296.874414
70
0
0
VERTEX
8
0
10
54.587394
20
296.511838
70
0
0
VERTEX
8
0
10
55.418810
20
295.933544
70
0
0
VERTEX
8
0
10
56.095829
20
295.160804
70
0
0
VERTEX
8
0
10
79.673500
20
260.470248
70
0
0
VERTEX
8
0
10
80.214150
20
259.344399
70
0
0
VERTEX
8
0
10
80.399900
20
258.109350
70
0
0
VERTEX
8
0
10
80.399900
20
138.800189
70
0
0
VERTEX
8
0
10
80.314567
20
137.953772
70
0
0
VERTEX
8
0
10
80.069830
20
137.165404
70
0
0
VERTEX
8
0
10
79.682581
20
136.451977
70
0
0
VERTEX
8
0
10
79.169713
20
135.830383
70
0
0
VERTEX
8
0
10
78.548119
20
135.317516
70
0
0
VERTEX
8
0
10
77.834691
20
134.930268
70
0
0
VERTEX
8
0
10
77.046322
20
134.685531
70
0
0
VERTEX
8
0
10
76.199904
20
134.600198
70
0
0
VERTEX
8
0
10
76.199904
20
134.600198
70
0
0
SEQEND
8
0
0
POLYLINE
8
0
62
7
70
0
10
0.000000
20
0.000000
66
1
0
VERTEX
8
0
10
69.858913
20
218.194300
70
0
0
VERTEX
8
0
10
69.858913
20
221.194296
70
0
0
VERTEX
8
0
10
76.258903
20
221.194296
70
0
0
VERTEX
8
0
10
76.258903
20
218.194300
70
0
0
VERTEX
8
0
10
78.258902
20
218.194300
70
0
0
VERTEX
8
0
10
78.258902
20
188.344337
70
0
0
VERTEX
8
0
10
76.258903
20
188.344337
70
0
0
VERTEX
8
0
10
76.258903
20
185.344342
70
0
0
VERTEX
8
0
10
69.858913
20
185.344342
70
0
0
VERTEX
8
0
10
69.858913
20
188.344337
70
0
0
VERTEX
8
0
10
67.858914
20
188.344337
70
0
0
VERTEX
8
0
10
67.858914
20
218.194300
70
0
0
VERTEX
8
0
10
69.858913
20
218.194300
70
0
0
SEQEND
8
0
0
POLYLINE
8
0
62
7
70
0
10
0.000000
20
0.000000
66
1
0
VERTEX
8
0
10
82.725248
20
255.211586
70
0
0
VERTEX
8
0
10
82.725248
20
258.211585
70
0
0
VERTEX
8
0
10
89.125239
20
258.211585
70
0
0
VERTEX
8
0
10
89.125239
20
255.211586
70
0
0
VERTEX
8
0
10
91.125237
20
255.211586
70
0
0
VERTEX
8
0
10
91.125237
20
225.361626
70
0
0
VERTEX
8
0
10
89.125239
20
225.361626
70
0
0
VERTEX
8
0
10
89.125239
20
222.361628
70
0
0
VERTEX
8
0
10
82.725248
20
222.361628
70
0
0
VERTEX
8
0
10
82.725248
20
225.361626
70
0
0
VERTEX
8
0
10
80.725250
20
225.361626
70
0
0
VERTEX
8
0
10
80.725250
20
255.211586
70
0
0
VERTEX
8
0
10
82.725248
20
255.211586
70
0
0
SEQEND
8
0
 0 
ENDSEC
 0 
EOF