999
"DXF R12 Output" (www.mydxf.blogspot.com)
 0 
SECTION
 2 
HEADER
 9 
$ACADVER
 1 
AC1009
 9 
$EXTMIN
 10 
 0 
 20 
 0 
 9 
$EXTMAX
 10 
 8.5 
 20 
 11 
 0 
ENDSEC
 0 
SECTION
 2 
ENTITIES
0
POLYLINE
8
0
62
7
70
0
10
0.000000
20
0.000000
66
1
0
VERTEX
8
0
10
2.501304
20
297.000074
70
0
0
VERTEX
8
0
10
1.768248
20
296.890304
70
0
0
VERTEX
8
0
10
1.112380
20
296.578748
70
0
0
VERTEX
8
0
10
0.573550
20
296.092032
70
0
0
VERTEX
8
0
10
0.191608
20
295.456784
70
0
0
VERTEX
8
0
10
0.012493
20
294.737522
70
0
0
VERTEX
8
0
10
0.049344
20
294.012351
70
0
0
VERTEX
8
0
10
0.292809
20
293.328279
70
0
0
VERTEX
8
0
10
0.733539
20
292.732312
70
0
0
VERTEX
8
0
10
1.329506
20
292.291582
70
0
0
VERTEX
8
0
10
2.013579
20
292.048116
70
0
0
VERTEX
8
0
10
2.738749
20
292.011266
70
0
0
VERTEX
8
0
10
3.458011
20
292.190381
70
0
0
VERTEX
8
0
10
4.093260
20
292.572322
70
0
0
VERTEX
8
0
10
4.579975
20
293.111153
70
0
0
VERTEX
8
0
10
4.891532
20
293.767021
70
0
0
VERTEX
8
0
10
5.001301
20
294.500077
70
0
0
VERTEX
8
0
10
4.804839
20
295.473188
70
0
0
VERTEX
8
0
10
4.269069
20
296.267841
70
0
0
VERTEX
8
0
10
3.474416
20
296.803611
70
0
0
VERTEX
8
0
10
2.501304
20
297.000074
70
0
0
VERTEX
8
0
10
2.501304
20
297.000074
70
0
0
SEQEND
8
0
0
POLYLINE
8
0
62
7
70
0
10
0.000000
20
0.000000
66
1
0
VERTEX
8
0
10
7.601327
20
297.000079
70
0
0
VERTEX
8
0
10
6.838949
20
296.885919
70
0
0
VERTEX
8
0
10
6.156846
20
296.561901
70
0
0
VERTEX
8
0
10
5.596462
20
296.055717
70
0
0
VERTEX
8
0
10
5.199243
20
295.395058
70
0
0
VERTEX
8
0
10
5.012963
20
294.647026
70
0
0
VERTEX
8
0
10
5.051288
20
293.892849
70
0
0
VERTEX
8
0
10
5.304492
20
293.181413
70
0
0
VERTEX
8
0
10
5.762851
20
292.561607
70
0
0
VERTEX
8
0
10
6.382657
20
292.103248
70
0
0
VERTEX
8
0
10
7.094092
20
291.850044
70
0
0
VERTEX
8
0
10
7.848270
20
291.811720
70
0
0
VERTEX
8
0
10
8.596302
20
291.997999
70
0
0
VERTEX
8
0
10
9.256960
20
292.395218
70
0
0
VERTEX
8
0
10
9.763145
20
292.955602
70
0
0
VERTEX
8
0
10
10.087163
20
293.637705
70
0
0
VERTEX
8
0
10
10.201323
20
294.400083
70
0
0
VERTEX
8
0
10
9.997003
20
295.412119
70
0
0
VERTEX
8
0
10
9.439802
20
296.238558
70
0
0
VERTEX
8
0
10
8.613363
20
296.795759
70
0
0
VERTEX
8
0
10
7.601327
20
297.000079
70
0
0
VERTEX
8
0
10
7.601327
20
297.000079
70
0
0
SEQEND
8
0
0
POLYLINE
8
0
62
7
70
0
10
0.000000
20
0.000000
66
1
0
VERTEX
8
0
10
12.851288
20
297.000073
70
0
0
VERTEX
8
0
10
11.819790
20
296.791823
70
0
0
VERTEX
8
0
10
10.977458
20
296.223907
70
0
0
VERTEX
8
0
10
10.409541
20
295.381575
70
0
0
VERTEX
8
0
10
10.201292
20
294.350077
70
0
0
VERTEX
8
0
10
10.409541
20
293.318578
70
0
0
VERTEX
8
0
10
10.977458
20
292.476246
70
0
0
VERTEX
8
0
10
11.819790
20
291.908330
70
0
0
VERTEX
8
0
10
12.851288
20
291.700080
70
0
0
VERTEX
8
0
10
13.882787
20
291.908330
70
0
0
VERTEX
8
0
10
14.725119
20
292.476246
70
0
0
VERTEX
8
0
10
15.293035
20
293.318578
70
0
0
VERTEX
8
0
10
15.501285
20
294.350077
70
0
0
VERTEX
8
0
10
15.299566
20
295.364186
70
0
0
VERTEX
8
0
10
14.725119
20
296.223907
70
0
0
VERTEX
8
0
10
13.865398
20
296.798354
70
0
0
VERTEX
8
0
10
12.851288
20
297.000073
70
0
0
VERTEX
8
0
10
12.851288
20
297.000073
70
0
0
SEQEND
8
0
0
POLYLINE
8
0
62
7
70
0
10
0.000000
20
0.000000
66
1
0
VERTEX
8
0
10
18.201315
20
297.000077
70
0
0
VERTEX
8
0
10
17.409615
20
296.881527
70
0
0
VERTEX
8
0
10
16.701278
20
296.545046
70
0
0
VERTEX
8
0
10
16.119341
20
296.019393
70
0
0
VERTEX
8
0
10
15.706844
20
295.333325
70
0
0
VERTEX
8
0
10
15.513400
20
294.556522
70
0
0
VERTEX
8
0
10
15.553198
20
293.773338
70
0
0
VERTEX
8
0
10
15.816141
20
293.034540
70
0
0
VERTEX
8
0
10
16.292129
20
292.390895
70
0
0
VERTEX
8
0
10
16.935774
20
291.914907
70
0
0
VERTEX
8
0
10
17.674572
20
291.651964
70
0
0
VERTEX
8
0
10
18.457756
20
291.612166
70
0
0
VERTEX
8
0
10
19.234559
20
291.805609
70
0
0
VERTEX
8
0
10
19.920627
20
292.218107
70
0
0
VERTEX
8
0
10
20.446280
20
292.800043
70
0
0
VERTEX
8
0
10
20.782761
20
293.508381
70
0
0
VERTEX
8
0
10
20.901312
20
294.300081
70
0
0
VERTEX
8
0
10
20.689133
20
295.351041
70
0
0
VERTEX
8
0
10
20.110501
20
296.209267
70
0
0
VERTEX
8
0
10
19.252276
20
296.787898
70
0
0
VERTEX
8
0
10
18.201315
20
297.000077
70
0
0
VERTEX
8
0
10
18.201315
20
297.000077
70
0
0
SEQEND
8
0
0
POLYLINE
8
0
62
7
70
0
10
0.000000
20
0.000000
66
1
0
VERTEX
8
0
10
2.501304
20
297.000074
70
0
0
VERTEX
8
0
10
1.768248
20
296.890304
70
0
0
VERTEX
8
0
10
1.112380
20
296.578748
70
0
0
VERTEX
8
0
10
0.573550
20
296.092032
70
0
0
VERTEX
8
0
10
0.191608
20
295.456784
70
0
0
VERTEX
8
0
10
0.012493
20
294.737522
70
0
0
VERTEX
8
0
10
0.049344
20
294.012351
70
0
0
VERTEX
8
0
10
0.292809
20
293.328279
70
0
0
VERTEX
8
0
10
0.733539
20
292.732312
70
0
0
VERTEX
8
0
10
1.329506
20
292.291582
70
0
0
VERTEX
8
0
10
2.013579
20
292.048116
70
0
0
VERTEX
8
0
10
2.738749
20
292.011266
70
0
0
VERTEX
8
0
10
3.458011
20
292.190381
70
0
0
VERTEX
8
0
10
4.093260
20
292.572322
70
0
0
VERTEX
8
0
10
4.579975
20
293.111153
70
0
0
VERTEX
8
0
10
4.891532
20
293.767021
70
0
0
VERTEX
8
0
10
5.001301
20
294.500077
70
0
0
VERTEX
8
0
10
4.804839
20
295.473188
70
0
0
VERTEX
8
0
10
4.269069
20
296.267841
70
0
0
VERTEX
8
0
10
3.474416
20
296.803611
70
0
0
VERTEX
8
0
10
2.501304
20
297.000074
70
0
0
VERTEX
8
0
10
2.501304
20
297.000074
70
0
0
SEQEND
8
0
0
POLYLINE
8
0
62
7
70
0
10
0.000000
20
0.000000
66
1
0
VERTEX
8
0
10
2.501304
20
292.000077
70
0
0
VERTEX
8
0
10
1.768248
20
291.890307
70
0
0
VERTEX
8
0
10
1.112380
20
291.578751
70
0
0
VERTEX
8
0
10
0.573550
20
291.092035
70
0
0
VERTEX
8
0
10
0.191608
20
290.456787
70
0
0
VERTEX
8
0
10
0.012493
20
289.737525
70
0
0
VERTEX
8
0
10
0.049344
20
289.012354
70
0
0
VERTEX
8
0
10
0.292809
20
288.328282
70
0
0
VERTEX
8
0
10
0.733539
20
287.732315
70
0
0
VERTEX
8
0
10
1.329506
20
287.291585
70
0
0
VERTEX
8
0
10
2.013579
20
287.048119
70
0
0
VERTEX
8
0
10
2.738749
20
287.011269
70
0
0
VERTEX
8
0
10
3.458011
20
287.190384
70
0
0
VERTEX
8
0
10
4.093260
20
287.572325
70
0
0
VERTEX
8
0
10
4.579975
20
288.111156
70
0
0
VERTEX
8
0
10
4.891532
20
288.767024
70
0
0
VERTEX
8
0
10
5.001301
20
289.500080
70
0
0
VERTEX
8
0
10
4.804839
20
290.473191
70
0
0
VERTEX
8
0
10
4.269069
20
291.267844
70
0
0
VERTEX
8
0
10
3.474416
20
291.803614
70
0
0
VERTEX
8
0
10
2.501304
20
292.000077
70
0
0
VERTEX
8
0
10
2.501304
20
292.000077
70
0
0
SEQEND
8
0
0
POLYLINE
8
0
62
7
70
0
10
0.000000
20
0.000000
66
1
0
VERTEX
8
0
10
2.501304
20
287.000082
70
0
0
VERTEX
8
0
10
1.768248
20
286.890313
70
0
0
VERTEX
8
0
10
1.112380
20
286.578757
70
0
0
VERTEX
8
0
10
0.573550
20
286.092041
70
0
0
VERTEX
8
0
10
0.191608
20
285.456793
70
0
0
VERTEX
8
0
10
0.012493
20
284.737531
70
0
0
VERTEX
8
0
10
0.049344
20
284.012360
70
0
0
VERTEX
8
0
10
0.292809
20
283.328288
70
0
0
VERTEX
8
0
10
0.733539
20
282.732321
70
0
0
VERTEX
8
0
10
1.329506
20
282.291591
70
0
0
VERTEX
8
0
10
2.013579
20
282.048125
70
0
0
VERTEX
8
0
10
2.738749
20
282.011275
70
0
0
VERTEX
8
0
10
3.458011
20
282.190389
70
0
0
VERTEX
8
0
10
4.093260
20
282.572331
70
0
0
VERTEX
8
0
10
4.579975
20
283.111161
70
0
0
VERTEX
8
0
10
4.891532
20
283.767030
70
0
0
VERTEX
8
0
10
5.001301
20
284.500085
70
0
0
VERTEX
8
0
10
4.804839
20
285.473197
70
0
0
VERTEX
8
0
10
4.269069
20
286.267850
70
0
0
VERTEX
8
0
10
3.474416
20
286.803620
70
0
0
VERTEX
8
0
10
2.501304
20
287.000082
70
0
0
VERTEX
8
0
10
2.501304
20
287.000082
70
0
0
SEQEND
8
0
0
POLYLINE
8
0
62
7
70
0
10
0.000000
20
0.000000
66
1
0
VERTEX
8
0
10
2.501304
20
282.000096
70
0
0
VERTEX
8
0
10
1.768248
20
281.890327
70
0
0
VERTEX
8
0
10
1.112380
20
281.578770
70
0
0
VERTEX
8
0
10
0.573550
20
281.092055
70
0
0
VERTEX
8
0
10
0.191608
20
280.456806
70
0
0
VERTEX
8
0
10
0.012493
20
279.737544
70
0
0
VERTEX
8
0
10
0.049344
20
279.012374
70
0
0
VERTEX
8
0
10
0.292809
20
278.328301
70
0
0
VERTEX
8
0
10
0.733539
20
277.732334
70
0
0
VERTEX
8
0
10
1.329506
20
277.291604
70
0
0
VERTEX
8
0
10
2.013579
20
277.048139
70
0
0
VERTEX
8
0
10
2.738749
20
277.011288
70
0
0
VERTEX
8
0
10
3.458011
20
277.190403
70
0
0
VERTEX
8
0
10
4.093260
20
277.572345
70
0
0
VERTEX
8
0
10
4.579975
20
278.111175
70
0
0
VERTEX
8
0
10
4.891532
20
278.767043
70
0
0
VERTEX
8
0
10
5.001301
20
279.500099
70
0
0
VERTEX
8
0
10
4.804839
20
280.473211
70
0
0
VERTEX
8
0
10
4.269069
20
281.267864
70
0
0
VERTEX
8
0
10
3.474416
20
281.803634
70
0
0
VERTEX
8
0
10
2.501304
20
282.000096
70
0
0
VERTEX
8
0
10
2.501304
20
282.000096
70
0
0
SEQEND
8
0
0
POLYLINE
8
0
62
7
70
0
10
0.000000
20
0.000000
66
1
0
VERTEX
8
0
10
7.601327
20
297.000079
70
0
0
VERTEX
8
0
10
6.838949
20
296.885919
70
0
0
VERTEX
8
0
10
6.156846
20
296.561901
70
0
0
VERTEX
8
0
10
5.596462
20
296.055717
70
0
0
VERTEX
8
0
10
5.199243
20
295.395058
70
0
0
VERTEX
8
0
10
5.012963
20
294.647026
70
0
0
VERTEX
8
0
10
5.051288
20
293.892849
70
0
0
VERTEX
8
0
10
5.304492
20
293.181413
70
0
0
VERTEX
8
0
10
5.762851
20
292.561607
70
0
0
VERTEX
8
0
10
6.382657
20
292.103248
70
0
0
VERTEX
8
0
10
7.094092
20
291.850044
70
0
0
VERTEX
8
0
10
7.848270
20
291.811720
70
0
0
VERTEX
8
0
10
8.596302
20
291.997999
70
0
0
VERTEX
8
0
10
9.256960
20
292.395218
70
0
0
VERTEX
8
0
10
9.763145
20
292.955602
70
0
0
VERTEX
8
0
10
10.087163
20
293.637705
70
0
0
VERTEX
8
0
10
10.201323
20
294.400083
70
0
0
VERTEX
8
0
10
9.997003
20
295.412119
70
0
0
VERTEX
8
0
10
9.439802
20
296.238558
70
0
0
VERTEX
8
0
10
8.613363
20
296.795759
70
0
0
VERTEX
8
0
10
7.601327
20
297.000079
70
0
0
VERTEX
8
0
10
7.601327
20
297.000079
70
0
0
SEQEND
8
0
0
POLYLINE
8
0
62
7
70
0
10
0.000000
20
0.000000
66
1
0
VERTEX
8
0
10
7.601327
20
291.800090
70
0
0
VERTEX
8
0
10
6.838949
20
291.685930
70
0
0
VERTEX
8
0
10
6.156846
20
291.361911
70
0
0
VERTEX
8
0
10
5.596462
20
290.855727
70
0
0
VERTEX
8
0
10
5.199243
20
290.195068
70
0
0
VERTEX
8
0
10
5.012963
20
289.447036
70
0
0
VERTEX
8
0
10
5.051288
20
288.692859
70
0
0
VERTEX
8
0
10
5.304492
20
287.981423
70
0
0
VERTEX
8
0
10
5.762851
20
287.361617
70
0
0
VERTEX
8
0
10
6.382657
20
286.903258
70
0
0
VERTEX
8
0
10
7.094092
20
286.650054
70
0
0
VERTEX
8
0
10
7.848270
20
286.611730
70
0
0
VERTEX
8
0
10
8.596302
20
286.798009
70
0
0
VERTEX
8
0
10
9.256960
20
287.195228
70
0
0
VERTEX
8
0
10
9.763145
20
287.755612
70
0
0
VERTEX
8
0
10
10.087163
20
288.437715
70
0
0
VERTEX
8
0
10
10.201323
20
289.200093
70
0
0
VERTEX
8
0
10
9.997003
20
290.212129
70
0
0
VERTEX
8
0
10
9.439802
20
291.038568
70
0
0
VERTEX
8
0
10
8.613363
20
291.595769
70
0
0
VERTEX
8
0
10
7.601327
20
291.800090
70
0
0
VERTEX
8
0
10
7.601327
20
291.800090
70
0
0
SEQEND
8
0
0
POLYLINE
8
0
62
7
70
0
10
0.000000
20
0.000000
66
1
0
VERTEX
8
0
10
7.601327
20
286.600089
70
0
0
VERTEX
8
0
10
6.838949
20
286.485929
70
0
0
VERTEX
8
0
10
6.156846
20
286.161911
70
0
0
VERTEX
8
0
10
5.596462
20
285.655726
70
0
0
VERTEX
8
0
10
5.199243
20
284.995068
70
0
0
VERTEX
8
0
10
5.012963
20
284.247036
70
0
0
VERTEX
8
0
10
5.051288
20
283.492858
70
0
0
VERTEX
8
0
10
5.304492
20
282.781423
70
0
0
VERTEX
8
0
10
5.762851
20
282.161617
70
0
0
VERTEX
8
0
10
6.382657
20
281.703258
70
0
0
VERTEX
8
0
10
7.094092
20
281.450054
70
0
0
VERTEX
8
0
10
7.848270
20
281.411729
70
0
0
VERTEX
8
0
10
8.596302
20
281.598009
70
0
0
VERTEX
8
0
10
9.256960
20
281.995228
70
0
0
VERTEX
8
0
10
9.763145
20
282.555611
70
0
0
VERTEX
8
0
10
10.087163
20
283.237714
70
0
0
VERTEX
8
0
10
10.201323
20
284.000092
70
0
0
VERTEX
8
0
10
9.997003
20
285.012128
70
0
0
VERTEX
8
0
10
9.439802
20
285.838568
70
0
0
VERTEX
8
0
10
8.613363
20
286.395768
70
0
0
VERTEX
8
0
10
7.601327
20
286.600089
70
0
0
VERTEX
8
0
10
7.601327
20
286.600089
70
0
0
SEQEND
8
0
0
POLYLINE
8
0
62
7
70
0
10
0.000000
20
0.000000
66
1
0
VERTEX
8
0
10
7.601327
20
281.400099
70
0
0
VERTEX
8
0
10
6.838949
20
281.285939
70
0
0
VERTEX
8
0
10
6.156846
20
280.961921
70
0
0
VERTEX
8
0
10
5.596462
20
280.455736
70
0
0
VERTEX
8
0
10
5.199243
20
279.795078
70
0
0
VERTEX
8
0
10
5.012963
20
279.047046
70
0
0
VERTEX
8
0
10
5.051288
20
278.292868
70
0
0
VERTEX
8
0
10
5.304492
20
277.581433
70
0
0
VERTEX
8
0
10
5.762851
20
276.961627
70
0
0
VERTEX
8
0
10
6.382657
20
276.503268
70
0
0
VERTEX
8
0
10
7.094092
20
276.250064
70
0
0
VERTEX
8
0
10
7.848270
20
276.211739
70
0
0
VERTEX
8
0
10
8.596302
20
276.398019
70
0
0
VERTEX
8
0
10
9.256960
20
276.795238
70
0
0
VERTEX
8
0
10
9.763145
20
277.355622
70
0
0
VERTEX
8
0
10
10.087163
20
278.037725
70
0
0
VERTEX
8
0
10
10.201323
20
278.800102
70
0
0
VERTEX
8
0
10
9.997003
20
279.812138
70
0
0
VERTEX
8
0
10
9.439802
20
280.638578
70
0
0
VERTEX
8
0
10
8.613363
20
281.195778
70
0
0
VERTEX
8
0
10
7.601327
20
281.400099
70
0
0
VERTEX
8
0
10
7.601327
20
281.400099
70
0
0
SEQEND
8
0
0
POLYLINE
8
0
62
7
70
0
10
0.000000
20
0.000000
66
1
0
VERTEX
8
0
10
12.851288
20
297.000073
70
0
0
VERTEX
8
0
10
11.819790
20
296.791823
70
0
0
VERTEX
8
0
10
10.977458
20
296.223907
70
0
0
VERTEX
8
0
10
10.409541
20
295.381575
70
0
0
VERTEX
8
0
10
10.201292
20
294.350077
70
0
0
VERTEX
8
0
10
10.409541
20
293.318578
70
0
0
VERTEX
8
0
10
10.977458
20
292.476246
70
0
0
VERTEX
8
0
10
11.819790
20
291.908330
70
0
0
VERTEX
8
0
10
12.851288
20
291.700080
70
0
0
VERTEX
8
0
10
13.882787
20
291.908330
70
0
0
VERTEX
8
0
10
14.725119
20
292.476246
70
0
0
VERTEX
8
0
10
15.293035
20
293.318578
70
0
0
VERTEX
8
0
10
15.501285
20
294.350077
70
0
0
VERTEX
8
0
10
15.299566
20
295.364186
70
0
0
VERTEX
8
0
10
14.725119
20
296.223907
70
0
0
VERTEX
8
0
10
13.865398
20
296.798354
70
0
0
VERTEX
8
0
10
12.851288
20
297.000073
70
0
0
VERTEX
8
0
10
12.851288
20
297.000073
70
0
0
SEQEND
8
0
0
POLYLINE
8
0
62
7
70
0
10
0.000000
20
0.000000
66
1
0
VERTEX
8
0
10
12.851288
20
291.700081
70
0
0
VERTEX
8
0
10
11.819790
20
291.491832
70
0
0
VERTEX
8
0
10
10.977458
20
290.923915
70
0
0
VERTEX
8
0
10
10.409541
20
290.081583
70
0
0
VERTEX
8
0
10
10.201292
20
289.050085
70
0
0
VERTEX
8
0
10
10.409541
20
288.018587
70
0
0
VERTEX
8
0
10
10.977458
20
287.176254
70
0
0
VERTEX
8
0
10
11.819790
20
286.608338
70
0
0
VERTEX
8
0
10
12.851288
20
286.400088
70
0
0
VERTEX
8
0
10
13.882787
20
286.608338
70
0
0
VERTEX
8
0
10
14.725119
20
287.176254
70
0
0
VERTEX
8
0
10
15.293035
20
288.018587
70
0
0
VERTEX
8
0
10
15.501285
20
289.050085
70
0
0
VERTEX
8
0
10
15.299566
20
290.064195
70
0
0
VERTEX
8
0
10
14.725119
20
290.923915
70
0
0
VERTEX
8
0
10
13.865398
20
291.498362
70
0
0
VERTEX
8
0
10
12.851288
20
291.700081
70
0
0
VERTEX
8
0
10
12.851288
20
291.700081
70
0
0
SEQEND
8
0
0
POLYLINE
8
0
62
7
70
0
10
0.000000
20
0.000000
66
1
0
VERTEX
8
0
10
12.851288
20
286.400090
70
0
0
VERTEX
8
0
10
11.819790
20
286.191840
70
0
0
VERTEX
8
0
10
10.977458
20
285.623924
70
0
0
VERTEX
8
0
10
10.409541
20
284.781591
70
0
0
VERTEX
8
0
10
10.201292
20
283.750093
70
0
0
VERTEX
8
0
10
10.409541
20
282.718595
70
0
0
VERTEX
8
0
10
10.977458
20
281.876263
70
0
0
VERTEX
8
0
10
11.819790
20
281.308346
70
0
0
VERTEX
8
0
10
12.851288
20
281.100096
70
0
0
VERTEX
8
0
10
13.882787
20
281.308346
70
0
0
VERTEX
8
0
10
14.725119
20
281.876263
70
0
0
VERTEX
8
0
10
15.293035
20
282.718595
70
0
0
VERTEX
8
0
10
15.501285
20
283.750093
70
0
0
VERTEX
8
0
10
15.299566
20
284.764203
70
0
0
VERTEX
8
0
10
14.725119
20
285.623924
70
0
0
VERTEX
8
0
10
13.865398
20
286.198371
70
0
0
VERTEX
8
0
10
12.851288
20
286.400090
70
0
0
VERTEX
8
0
10
12.851288
20
286.400090
70
0
0
SEQEND
8
0
0
POLYLINE
8
0
62
7
70
0
10
0.000000
20
0.000000
66
1
0
VERTEX
8
0
10
12.851288
20
281.100095
70
0
0
VERTEX
8
0
10
11.819790
20
280.891846
70
0
0
VERTEX
8
0
10
10.977458
20
280.323929
70
0
0
VERTEX
8
0
10
10.409541
20
279.481597
70
0
0
VERTEX
8
0
10
10.201292
20
278.450099
70
0
0
VERTEX
8
0
10
10.409541
20
277.418600
70
0
0
VERTEX
8
0
10
10.977458
20
276.576268
70
0
0
VERTEX
8
0
10
11.819790
20
276.008352
70
0
0
VERTEX
8
0
10
12.851288
20
275.800102
70
0
0
VERTEX
8
0
10
13.882787
20
276.008352
70
0
0
VERTEX
8
0
10
14.725119
20
276.576268
70
0
0
VERTEX
8
0
10
15.293035
20
277.418600
70
0
0
VERTEX
8
0
10
15.501285
20
278.450099
70
0
0
VERTEX
8
0
10
15.299566
20
279.464209
70
0
0
VERTEX
8
0
10
14.725119
20
280.323929
70
0
0
VERTEX
8
0
10
13.865398
20
280.898376
70
0
0
VERTEX
8
0
10
12.851288
20
281.100095
70
0
0
VERTEX
8
0
10
12.851288
20
281.100095
70
0
0
SEQEND
8
0
0
POLYLINE
8
0
62
7
70
0
10
0.000000
20
0.000000
66
1
0
VERTEX
8
0
10
18.201315
20
297.000077
70
0
0
VERTEX
8
0
10
17.409615
20
296.881527
70
0
0
VERTEX
8
0
10
16.701278
20
296.545046
70
0
0
VERTEX
8
0
10
16.119341
20
296.019393
70
0
0
VERTEX
8
0
10
15.706844
20
295.333325
70
0
0
VERTEX
8
0
10
15.513400
20
294.556522
70
0
0
VERTEX
8
0
10
15.553198
20
293.773338
70
0
0
VERTEX
8
0
10
15.816141
20
293.034540
70
0
0
VERTEX
8
0
10
16.292129
20
292.390895
70
0
0
VERTEX
8
0
10
16.935774
20
291.914907
70
0
0
VERTEX
8
0
10
17.674572
20
291.651964
70
0
0
VERTEX
8
0
10
18.457756
20
291.612166
70
0
0
VERTEX
8
0
10
19.234559
20
291.805609
70
0
0
VERTEX
8
0
10
19.920627
20
292.218107
70
0
0
VERTEX
8
0
10
20.446280
20
292.800043
70
0
0
VERTEX
8
0
10
20.782761
20
293.508381
70
0
0
VERTEX
8
0
10
20.901312
20
294.300081
70
0
0
VERTEX
8
0
10
20.689133
20
295.351041
70
0
0
VERTEX
8
0
10
20.110501
20
296.209267
70
0
0
VERTEX
8
0
10
19.252276
20
296.787898
70
0
0
VERTEX
8
0
10
18.201315
20
297.000077
70
0
0
VERTEX
8
0
10
18.201315
20
297.000077
70
0
0
SEQEND
8
0
0
POLYLINE
8
0
62
7
70
0
10
0.000000
20
0.000000
66
1
0
VERTEX
8
0
10
18.201315
20
291.600081
70
0
0
VERTEX
8
0
10
17.409615
20
291.481530
70
0
0
VERTEX
8
0
10
16.701278
20
291.145050
70
0
0
VERTEX
8
0
10
16.119341
20
290.619397
70
0
0
VERTEX
8
0
10
15.706844
20
289.933329
70
0
0
VERTEX
8
0
10
15.513400
20
289.156526
70
0
0
VERTEX
8
0
10
15.553198
20
288.373342
70
0
0
VERTEX
8
0
10
15.816141
20
287.634543
70
0
0
VERTEX
8
0
10
16.292129
20
286.990899
70
0
0
VERTEX
8
0
10
16.935774
20
286.514911
70
0
0
VERTEX
8
0
10
17.674572
20
286.251968
70
0
0
VERTEX
8
0
10
18.457756
20
286.212169
70
0
0
VERTEX
8
0
10
19.234559
20
286.405613
70
0
0
VERTEX
8
0
10
19.920627
20
286.818110
70
0
0
VERTEX
8
0
10
20.446280
20
287.400047
70
0
0
VERTEX
8
0
10
20.782761
20
288.108385
70
0
0
VERTEX
8
0
10
20.901312
20
288.900085
70
0
0
VERTEX
8
0
10
20.689133
20
289.951045
70
0
0
VERTEX
8
0
10
20.110501
20
290.809271
70
0
0
VERTEX
8
0
10
19.252276
20
291.387902
70
0
0
VERTEX
8
0
10
18.201315
20
291.600081
70
0
0
VERTEX
8
0
10
18.201315
20
291.600081
70
0
0
SEQEND
8
0
0
POLYLINE
8
0
62
7
70
0
10
0.000000
20
0.000000
66
1
0
VERTEX
8
0
10
18.201315
20
286.200088
70
0
0
VERTEX
8
0
10
17.409615
20
286.081537
70
0
0
VERTEX
8
0
10
16.701278
20
285.745056
70
0
0
VERTEX
8
0
10
16.119341
20
285.219403
70
0
0
VERTEX
8
0
10
15.706844
20
284.533335
70
0
0
VERTEX
8
0
10
15.513400
20
283.756532
70
0
0
VERTEX
8
0
10
15.553198
20
282.973348
70
0
0
VERTEX
8
0
10
15.816141
20
282.234550
70
0
0
VERTEX
8
0
10
16.292129
20
281.590905
70
0
0
VERTEX
8
0
10
16.935774
20
281.114917
70
0
0
VERTEX
8
0
10
17.674572
20
280.851974
70
0
0
VERTEX
8
0
10
18.457756
20
280.812176
70
0
0
VERTEX
8
0
10
19.234559
20
281.005620
70
0
0
VERTEX
8
0
10
19.920627
20
281.418117
70
0
0
VERTEX
8
0
10
20.446280
20
282.000054
70
0
0
VERTEX
8
0
10
20.782761
20
282.708391
70
0
0
VERTEX
8
0
10
20.901312
20
283.500091
70
0
0
VERTEX
8
0
10
20.689133
20
284.551052
70
0
0
VERTEX
8
0
10
20.110501
20
285.409277
70
0
0
VERTEX
8
0
10
19.252276
20
285.987909
70
0
0
VERTEX
8
0
10
18.201315
20
286.200088
70
0
0
VERTEX
8
0
10
18.201315
20
286.200088
70
0
0
SEQEND
8
0
0
POLYLINE
8
0
62
7
70
0
10
0.000000
20
0.000000
66
1
0
VERTEX
8
0
10
18.201315
20
280.800102
70
0
0
VERTEX
8
0
10
17.409615
20
280.681551
70
0
0
VERTEX
8
0
10
16.701278
20
280.345071
70
0
0
VERTEX
8
0
10
16.119341
20
279.819418
70
0
0
VERTEX
8
0
10
15.706844
20
279.133350
70
0
0
VERTEX
8
0
10
15.513400
20
278.356547
70
0
0
VERTEX
8
0
10
15.553198
20
277.573363
70
0
0
VERTEX
8
0
10
15.816141
20
276.834564
70
0
0
VERTEX
8
0
10
16.292129
20
276.190920
70
0
0
VERTEX
8
0
10
16.935774
20
275.714931
70
0
0
VERTEX
8
0
10
17.674572
20
275.451989
70
0
0
VERTEX
8
0
10
18.457756
20
275.412190
70
0
0
VERTEX
8
0
10
19.234559
20
275.605634
70
0
0
VERTEX
8
0
10
19.920627
20
276.018131
70
0
0
VERTEX
8
0
10
20.446280
20
276.600068
70
0
0
VERTEX
8
0
10
20.782761
20
277.308406
70
0
0
VERTEX
8
0
10
20.901312
20
278.100106
70
0
0
VERTEX
8
0
10
20.689133
20
279.151066
70
0
0
VERTEX
8
0
10
20.110501
20
280.009292
70
0
0
VERTEX
8
0
10
19.252276
20
280.587923
70
0
0
VERTEX
8
0
10
18.201315
20
280.800102
70
0
0
VERTEX
8
0
10
18.201315
20
280.800102
70
0
0
SEQEND
8
0
 0 
ENDSEC
 0 
EOF