  0
SECTION
  2
HEADER
  9
$ACADVER
  1
AC1012
  9
$DWGCODEPAGE
  3
ansi_1252
  9
$INSBASE
 10
0.0
 20
0.0
 30
0.0
  9
$EXTMIN
 10
-283.6375
 20
-30.2698
 30
0.0
  9
$EXTMAX
 10
-114.7927
 20
183.6715
 30
0.0
  9
$LIMMIN
 10
0.0
 20
0.0
  9
$LIMMAX
 10
12.0
 20
9.0
  9
$ORTHOMODE
 70
     0
  9
$REGENMODE
 70
     1
  9
$FILLMODE
 70
     1
  9
$QTEXTMODE
 70
     0
  9
$MIRRTEXT
 70
     1
  9
$DRAGMODE
 70
     2
  9
$LTSCALE
 40
1.0
  9
$OSMODE
 70
    37
  9
$ATTMODE
 70
     1
  9
$TEXTSIZE
 40
0.2
  9
$TRACEWID
 40
0.05
  9
$TEXTSTYLE
  7
STANDARD
  9
$CLAYER
  8
0
  9
$CELTYPE
  6
BYLAYER
  9
$CECOLOR
 62
   256
  9
$CELTSCALE
 40
1.0
  9
$DELOBJ
 70
     1
  9
$DISPSILH
 70
     0
  9
$DIMSCALE
 40
1.0
  9
$DIMASZ
 40
0.18
  9
$DIMEXO
 40
0.0625
  9
$DIMDLI
 40
0.38
  9
$DIMRND
 40
0.0
  9
$DIMDLE
 40
0.0
  9
$DIMEXE
 40
0.18
  9
$DIMTP
 40
0.0
  9
$DIMTM
 40
0.0
  9
$DIMTXT
 40
0.18
  9
$DIMCEN
 40
0.09
  9
$DIMTSZ
 40
0.0
  9
$DIMTOL
 70
     0
  9
$DIMLIM
 70
     0
  9
$DIMTIH
 70
     1
  9
$DIMTOH
 70
     1
  9
$DIMSE1
 70
     0
  9
$DIMSE2
 70
     0
  9
$DIMTAD
 70
     0
  9
$DIMZIN
 70
     0
  9
$DIMBLK
  1

  9
$DIMASO
 70
     1
  9
$DIMSHO
 70
     1
  9
$DIMPOST
  1

  9
$DIMAPOST
  1

  9
$DIMALT
 70
     0
  9
$DIMALTD
 70
     2
  9
$DIMALTF
 40
25.4
  9
$DIMLFAC
 40
1.0
  9
$DIMTOFL
 70
     0
  9
$DIMTVP
 40
0.0
  9
$DIMTIX
 70
     0
  9
$DIMSOXD
 70
     0
  9
$DIMSAH
 70
     0
  9
$DIMBLK1
  1

  9
$DIMBLK2
  1

  9
$DIMSTYLE
  2
STANDARD
  9
$DIMCLRD
 70
     0
  9
$DIMCLRE
 70
     0
  9
$DIMCLRT
 70
     0
  9
$DIMTFAC
 40
1.0
  9
$DIMGAP
 40
0.09
  9
$DIMJUST
 70
     0
  9
$DIMSD1
 70
     0
  9
$DIMSD2
 70
     0
  9
$DIMTOLJ
 70
     1
  9
$DIMTZIN
 70
     0
  9
$DIMALTZ
 70
     0
  9
$DIMALTTZ
 70
     0
  9
$DIMFIT
 70
     3
  9
$DIMUPT
 70
     0
  9
$DIMUNIT
 70
     2
  9
$DIMDEC
 70
     4
  9
$DIMTDEC
 70
     4
  9
$DIMALTU
 70
     2
  9
$DIMALTTD
 70
     2
  9
$DIMTXSTY
  7
STANDARD
  9
$DIMAUNIT
 70
     0
  9
$LUNITS
 70
     2
  9
$LUPREC
 70
     4
  9
$SKETCHINC
 40
0.1
  9
$FILLETRAD
 40
0.0
  9
$AUNITS
 70
     0
  9
$AUPREC
 70
     0
  9
$MENU
  1
.
  9
$ELEVATION
 40
0.0
  9
$PELEVATION
 40
0.0
  9
$THICKNESS
 40
0.0
  9
$LIMCHECK
 70
     0
  9
$CHAMFERA
 40
0.0
  9
$CHAMFERB
 40
0.0
  9
$CHAMFERC
 40
0.0
  9
$CHAMFERD
 40
0.0
  9
$SKPOLY
 70
     0
  9
$TDCREATE
 40
2460887.446692304
  9
$TDUPDATE
 40
2460887.446692651
  9
$TDINDWG
 40
0.0000000116
  9
$TDUSRTIMER
 40
0.0000000116
  9
$USRTIMER
 70
     1
  9
$ANGBASE
 50
0.0
  9
$ANGDIR
 70
     0
  9
$PDMODE
 70
     0
  9
$PDSIZE
 40
0.0
  9
$PLINEWID
 40
0.0
  9
$COORDS
 70
     1
  9
$SPLFRAME
 70
     0
  9
$SPLINETYPE
 70
     6
  9
$SPLINESEGS
 70
     8
  9
$ATTDIA
 70
     0
  9
$ATTREQ
 70
     1
  9
$HANDLING
 70
     1
  9
$HANDSEED
  5
B0
  9
$SURFTAB1
 70
     6
  9
$SURFTAB2
 70
     6
  9
$SURFTYPE
 70
     6
  9
$SURFU
 70
     6
  9
$SURFV
 70
     6
  9
$UCSNAME
  2

  9
$UCSORG
 10
0.0
 20
0.0
 30
0.0
  9
$UCSXDIR
 10
1.0
 20
0.0
 30
0.0
  9
$UCSYDIR
 10
0.0
 20
1.0
 30
0.0
  9
$PUCSNAME
  2

  9
$PUCSORG
 10
0.0
 20
0.0
 30
0.0
  9
$PUCSXDIR
 10
1.0
 20
0.0
 30
0.0
  9
$PUCSYDIR
 10
0.0
 20
1.0
 30
0.0
  9
$USERI1
 70
     0
  9
$USERI2
 70
     0
  9
$USERI3
 70
     0
  9
$USERI4
 70
     0
  9
$USERI5
 70
     0
  9
$USERR1
 40
0.0
  9
$USERR2
 40
0.0
  9
$USERR3
 40
0.0
  9
$USERR4
 40
0.0
  9
$USERR5
 40
0.0
  9
$WORLDVIEW
 70
     1
  9
$SHADEDGE
 70
     3
  9
$SHADEDIF
 70
    70
  9
$TILEMODE
 70
     1
  9
$MAXACTVP
 70
    64
  9
$PINSBASE
 10
0.0
 20
0.0
 30
0.0
  9
$PLIMCHECK
 70
     0
  9
$PEXTMIN
 10
1.000000000000000E+20
 20
1.000000000000000E+20
 30
1.000000000000000E+20
  9
$PEXTMAX
 10
-1.000000000000000E+20
 20
-1.000000000000000E+20
 30
-1.000000000000000E+20
  9
$PLIMMIN
 10
0.0
 20
0.0
  9
$PLIMMAX
 10
12.0
 20
9.0
  9
$UNITMODE
 70
     0
  9
$VISRETAIN
 70
     1
  9
$PLINEGEN
 70
     0
  9
$PSLTSCALE
 70
     1
  9
$TREEDEPTH
 70
  3020
  9
$PICKSTYLE
 70
     1
  9
$CMLSTYLE
  2
STANDARD
  9
$CMLJUST
 70
     0
  9
$CMLSCALE
 40
1.0
  9
$SAVEIMAGES
 70
     1
  0
ENDSEC
  0
SECTION
  2
CLASSES
  0
CLASS
  1
ACDBDICTIONARYWDFLT
  2
AcDbDictionaryWithDefault
  3
ObjectDBX Classes
 90
    32768
280
     0
281
     0
  0
CLASS
  1
VISUALSTYLE
  2
AcDbVisualStyle
  3
ObjectDBX Classes
 90
     4095
280
     0
281
     0
  0
CLASS
  1
MATERIAL
  2
AcDbMaterial
  3
ObjectDBX Classes
 90
     1153
280
     0
281
     0
  0
CLASS
  1
SCALE
  2
AcDbScale
  3
ObjectDBX Classes
 90
     1153
280
     0
281
     0
  0
CLASS
  1
TABLESTYLE
  2
AcDbTableStyle
  3
ObjectDBX Classes
 90
     4095
280
     0
281
     0
  0
CLASS
  1
MLEADERSTYLE
  2
AcDbMLeaderStyle
  3
ACDB_MLEADERSTYLE_CLASS
 90
     4095
280
     0
281
     0
  0
CLASS
  1
SUN
  2
AcDbSun
  3
SCENEOE
 90
     1153
280
     0
281
     0
  0
CLASS
  1
DICTIONARYVAR
  2
AcDbDictionaryVar
  3
ObjectDBX Classes
 90
        0
280
     0
281
     0
  0
CLASS
  1
XRECORD
  2
AcDbXrecord
  3
ObjectDBX Classes
 90
    32768
280
     0
281
     0
  0
CLASS
  1
LWPOLYLINE
  2
AcDbPolyline
  3
ObjectDBX Classes
 90
    32768
280
     0
281
     1
  0
CLASS
  1
HATCH
  2
AcDbHatch
  3
ObjectDBX Classes
 90
    32768
280
     0
281
     1
  0
CLASS
  1
ACDBPLACEHOLDER
  2
AcDbPlaceHolder
  3
ObjectDBX Classes
 90
        0
280
     0
281
     0
  0
CLASS
  1
LAYOUT
  2
AcDbLayout
  3
ObjectDBX Classes
 90
        0
280
     0
281
     0
  0
ENDSEC
  0
SECTION
  2
TABLES
  0
TABLE
  2
VPORT
  5
8
330
0
100
AcDbSymbolTable
 70
     1
  0
VPORT
  5
29
330
8
100
AcDbSymbolTableRecord
100
AcDbViewportTableRecord
  2
*ACTIVE
 70
     0
 10
0.0
 20
0.0
 11
1.0
 21
1.0
 12
10.42990654205607
 22
4.5
 13
0.0
 23
0.0
 14
0.5
 24
0.5
 15
0.5
 25
0.5
 16
0.0
 26
0.0
 36
1.0
 17
0.0
 27
0.0
 37
0.0
 40
9.0
 41
1.972972972850329
 42
50.0
 43
0.0
 44
0.0
 50
0.0
 51
0.0
 71
     0
 72
   100
 73
     1
 74
     3
 75
     0
 76
     0
 77
     0
 78
     0
  0
ENDTAB
  0
TABLE
  2
LTYPE
  5
5
330
0
100
AcDbSymbolTable
 70
     1
  0
LTYPE
  5
14
330
5
100
AcDbSymbolTableRecord
100
AcDbLinetypeTableRecord
  2
BYBLOCK
 70
     0
  3

 72
    65
 73
     0
 40
0.0
  0
LTYPE
  5
15
330
5
100
AcDbSymbolTableRecord
100
AcDbLinetypeTableRecord
  2
BYLAYER
 70
     0
  3

 72
    65
 73
     0
 40
0.0
  0
LTYPE
  5
16
330
5
100
AcDbSymbolTableRecord
100
AcDbLinetypeTableRecord
  2
CONTINUOUS
 70
     0
  3
Solid line
 72
    65
 73
     0
 40
0.0
  0
ENDTAB
  0
TABLE
  2
LAYER
  5
2
330
0
100
AcDbSymbolTable
 70
     1
  0
LAYER
  5
10
330
2
100
AcDbSymbolTableRecord
100
AcDbLayerTableRecord
  2
0
 70
     0
 62
     7
  6
CONTINUOUS
  0
ENDTAB
  0
TABLE
  2
STYLE
  5
3
330
0
100
AcDbSymbolTable
 70
     1
  0
STYLE
  5
11
330
3
100
AcDbSymbolTableRecord
100
AcDbTextStyleTableRecord
  2
STANDARD
 70
     0
 40
0.0
 41
1.0
 50
0.0
 71
     0
 42
0.2
  3
txt
  4

  0
ENDTAB
  0
TABLE
  2
VIEW
  5
6
330
0
100
AcDbSymbolTable
 70
     0
  0
ENDTAB
  0
TABLE
  2
UCS
  5
7
330
0
100
AcDbSymbolTable
 70
     0
  0
ENDTAB
  0
TABLE
  2
APPID
  5
9
330
0
100
AcDbSymbolTable
 70
     3
  0
APPID
  5
12
330
9
100
AcDbSymbolTableRecord
100
AcDbRegAppTableRecord
  2
ACAD
 70
     0
  0
APPID
  5
5E
330
9
100
AcDbSymbolTableRecord
100
AcDbRegAppTableRecord
  2
ODA
 70
     0
  0
APPID
  5
AF
330
9
100
AcDbSymbolTableRecord
100
AcDbRegAppTableRecord
  2
ACAD_MLEADERVER
 70
     0
  0
ENDTAB
  0
TABLE
  2
DIMSTYLE
  5
A
330
0
100
AcDbSymbolTable
 70
     1
  0
DIMSTYLE
105
27
330
A
100
AcDbSymbolTableRecord
100
AcDbDimStyleTableRecord
  2
STANDARD
 70
     0
  3

  4

  5

  6

  7

 40
1.0
 41
0.18
 42
0.0625
 43
0.38
 44
0.18
 45
0.0
 46
0.0
 47
0.0
 48
0.0
140
0.18
141
0.09
142
0.0
143
25.4
144
1.0
145
0.0
146
1.0
147
0.09
 71
     0
 72
     0
 73
     1
 74
     1
 75
     0
 76
     0
 77
     0
 78
     0
170
     0
171
     2
172
     0
173
     0
174
     0
175
     0
176
     0
177
     0
178
     0
270
     2
271
     4
272
     4
273
     2
274
     2
340
11
275
     0
280
     0
281
     0
282
     0
283
     1
284
     0
285
     0
286
     0
287
     3
288
     0
  0
ENDTAB
  0
TABLE
  2
BLOCK_RECORD
  5
1
330
0
100
AcDbSymbolTable
 70
     0
  0
BLOCK_RECORD
  5
1F
330
1
100
AcDbSymbolTableRecord
100
AcDbBlockTableRecord
  2
*MODEL_SPACE
  0
BLOCK_RECORD
  5
1B
330
1
100
AcDbSymbolTableRecord
100
AcDbBlockTableRecord
  2
*PAPER_SPACE
  0
ENDTAB
  0
ENDSEC
  0
SECTION
  2
BLOCKS
  0
BLOCK
  5
20
330
1F
100
AcDbEntity
  8
0
100
AcDbBlockBegin
  2
*MODEL_SPACE
 70
     0
 10
0.0
 20
0.0
 30
0.0
  3
*MODEL_SPACE
  1

  0
ENDBLK
  5
21
330
1F
100
AcDbEntity
  8
0
100
AcDbBlockEnd
  0
BLOCK
  5
1C
330
1B
100
AcDbEntity
 67
     1
  8
0
100
AcDbBlockBegin
  2
*PAPER_SPACE
 70
     0
 10
0.0
 20
0.0
 30
0.0
  3
*PAPER_SPACE
  1

  0
ENDBLK
  5
1D
330
1B
100
AcDbEntity
 67
     1
  8
0
100
AcDbBlockEnd
  0
ENDSEC
  0
SECTION
  2
ENTITIES
  0
SPLINE
  5
5F
330
1F
100
AcDbEntity
  8
0
 62
   250
100
AcDbSpline
210
0.0
220
0.0
230
1.0
 70
    11
 71
     3
 72
    41
 73
    37
 74
     0
 42
0.0000000001
 43
0.0000000001
 40
0.0
 40
0.0
 40
0.0
 40
0.0
 40
0.0833333333333333
 40
0.0833333333333333
 40
0.0833333333333333
 40
0.1666666666666667
 40
0.1666666666666667
 40
0.1666666666666667
 40
0.25
 40
0.25
 40
0.25
 40
0.3333333333333333
 40
0.3333333333333333
 40
0.3333333333333333
 40
0.4166666666666666
 40
0.4166666666666666
 40
0.4166666666666666
 40
0.5
 40
0.5
 40
0.5
 40
0.5833333333333333
 40
0.5833333333333333
 40
0.5833333333333333
 40
0.6666666666666666
 40
0.6666666666666666
 40
0.6666666666666666
 40
0.75
 40
0.75
 40
0.75
 40
0.8333333333333333
 40
0.8333333333333333
 40
0.8333333333333333
 40
0.9166666666666666
 40
0.9166666666666666
 40
0.9166666666666666
 40
1.0
 40
1.0
 40
1.0
 40
1.0
 10
-279.5788
 20
22.2293
 30
0.0
 10
-279.5788
 20
22.2293
 30
0.0
 10
-279.5788
 20
25.2293
 30
0.0
 10
-279.5788
 20
25.2293
 30
0.0
 10
-279.5788
 20
25.2293
 30
0.0
 10
-273.1788
 20
25.2293
 30
0.0
 10
-273.1788
 20
25.2293
 30
0.0
 10
-273.1788
 20
25.2293
 30
0.0
 10
-273.1788
 20
22.2293
 30
0.0
 10
-273.1788
 20
22.2293
 30
0.0
 10
-273.1788
 20
22.2293
 30
0.0
 10
-253.5788
 20
22.2293
 30
0.0
 10
-253.5788
 20
22.2293
 30
0.0
 10
-253.5788
 20
22.2293
 30
0.0
 10
-253.5788
 20
25.2293
 30
0.0
 10
-253.5788
 20
25.2293
 30
0.0
 10
-253.5788
 20
25.2293
 30
0.0
 10
-247.1788
 20
25.2293
 30
0.0
 10
-247.1788
 20
25.2293
 30
0.0
 10
-247.1788
 20
25.2293
 30
0.0
 10
-247.1788
 20
22.2293
 30
0.0
 10
-247.1788
 20
22.2293
 30
0.0
 10
-247.1788
 20
22.2293
 30
0.0
 10
-243.1788
 20
22.2293
 30
0.0
 10
-243.1788
 20
22.2293
 30
0.0
 10
-243.1788
 20
22.2293
 30
0.0
 10
-243.1788
 20
8.5293
 30
0.0
 10
-243.1788
 20
8.5293
 30
0.0
 10
-243.1788
 20
8.5293
 30
0.0
 10
-283.5788
 20
8.5293
 30
0.0
 10
-283.5788
 20
8.5293
 30
0.0
 10
-283.5788
 20
8.5293
 30
0.0
 10
-283.5788
 20
22.2293
 30
0.0
 10
-283.5788
 20
22.2293
 30
0.0
 10
-283.5788
 20
22.2293
 30
0.0
 10
-279.5788
 20
22.2293
 30
0.0
 10
-279.5788
 20
22.2293
 30
0.0
  0
SPLINE
  5
60
330
1F
100
AcDbEntity
  8
0
 62
   250
100
AcDbSpline
210
0.0
220
0.0
230
1.0
 70
    11
 71
     3
 72
    41
 73
    37
 74
     0
 42
0.0000000001
 43
0.0000000001
 40
0.0
 40
0.0
 40
0.0
 40
0.0
 40
0.0833333333333333
 40
0.0833333333333333
 40
0.0833333333333333
 40
0.1666666666666667
 40
0.1666666666666667
 40
0.1666666666666667
 40
0.25
 40
0.25
 40
0.25
 40
0.3333333333333333
 40
0.3333333333333333
 40
0.3333333333333333
 40
0.4166666666666666
 40
0.4166666666666666
 40
0.4166666666666666
 40
0.5
 40
0.5
 40
0.5
 40
0.5833333333333333
 40
0.5833333333333333
 40
0.5833333333333333
 40
0.6666666666666666
 40
0.6666666666666666
 40
0.6666666666666666
 40
0.75
 40
0.75
 40
0.75
 40
0.8333333333333333
 40
0.8333333333333333
 40
0.8333333333333333
 40
0.9166666666666666
 40
0.9166666666666666
 40
0.9166666666666666
 40
1.0
 40
1.0
 40
1.0
 40
1.0
 10
-238.4747
 20
22.2576
 30
0.0
 10
-238.4747
 20
22.2576
 30
0.0
 10
-238.4747
 20
25.2576
 30
0.0
 10
-238.4747
 20
25.2576
 30
0.0
 10
-238.4747
 20
25.2576
 30
0.0
 10
-232.0747
 20
25.2576
 30
0.0
 10
-232.0747
 20
25.2576
 30
0.0
 10
-232.0747
 20
25.2576
 30
0.0
 10
-232.0747
 20
22.2576
 30
0.0
 10
-232.0747
 20
22.2576
 30
0.0
 10
-232.0747
 20
22.2576
 30
0.0
 10
-212.4747
 20
22.2576
 30
0.0
 10
-212.4747
 20
22.2576
 30
0.0
 10
-212.4747
 20
22.2576
 30
0.0
 10
-212.4747
 20
25.2576
 30
0.0
 10
-212.4747
 20
25.2576
 30
0.0
 10
-212.4747
 20
25.2576
 30
0.0
 10
-206.0747
 20
25.2576
 30
0.0
 10
-206.0747
 20
25.2576
 30
0.0
 10
-206.0747
 20
25.2576
 30
0.0
 10
-206.0747
 20
22.2576
 30
0.0
 10
-206.0747
 20
22.2576
 30
0.0
 10
-206.0747
 20
22.2576
 30
0.0
 10
-202.0747
 20
22.2576
 30
0.0
 10
-202.0747
 20
22.2576
 30
0.0
 10
-202.0747
 20
22.2576
 30
0.0
 10
-202.0747
 20
8.5576
 30
0.0
 10
-202.0747
 20
8.5576
 30
0.0
 10
-202.0747
 20
8.5576
 30
0.0
 10
-242.4747
 20
8.5576
 30
0.0
 10
-242.4747
 20
8.5576
 30
0.0
 10
-242.4747
 20
8.5576
 30
0.0
 10
-242.4747
 20
22.2576
 30
0.0
 10
-242.4747
 20
22.2576
 30
0.0
 10
-242.4747
 20
22.2576
 30
0.0
 10
-238.4747
 20
22.2576
 30
0.0
 10
-238.4747
 20
22.2576
 30
0.0
  0
SPLINE
  5
61
330
1F
100
AcDbEntity
  8
0
 62
   250
100
AcDbSpline
210
0.0
220
0.0
230
1.0
 70
    11
 71
     3
 72
    17
 73
    13
 74
     0
 42
0.0000000001
 43
0.0000000001
 40
0.0
 40
0.0
 40
0.0
 40
0.0
 40
0.25
 40
0.25
 40
0.25
 40
0.5
 40
0.5
 40
0.5
 40
0.75
 40
0.75
 40
0.75
 40
1.0
 40
1.0
 40
1.0
 40
1.0
 10
-276.8946
 20
-11.7567
 30
0.0
 10
-276.8946
 20
-11.5219
 30
0.0
 10
-277.0848
 20
-11.3317
 30
0.0
 10
-277.3196
 20
-11.3317
 30
0.0
 10
-277.5543
 20
-11.3317
 30
0.0
 10
-277.7446
 20
-11.522
 30
0.0
 10
-277.7446
 20
-11.7567
 30
0.0
 10
-277.7446
 20
-11.9915
 30
0.0
 10
-277.5544
 20
-12.1817
 30
0.0
 10
-277.3196
 20
-12.1817
 30
0.0
 10
-277.0848
 20
-12.1817
 30
0.0
 10
-276.8946
 20
-11.9915
 30
0.0
 10
-276.8946
 20
-11.7567
 30
0.0
  0
SPLINE
  5
62
330
1F
100
AcDbEntity
  8
0
 62
   250
100
AcDbSpline
210
0.0
220
0.0
230
1.0
 70
    11
 71
     3
 72
    17
 73
    13
 74
     0
 42
0.0000000001
 43
0.0000000001
 40
0.0
 40
0.0
 40
0.0
 40
0.0
 40
0.25
 40
0.25
 40
0.25
 40
0.5
 40
0.5
 40
0.5
 40
0.75
 40
0.75
 40
0.75
 40
1.0
 40
1.0
 40
1.0
 40
1.0
 10
-276.8946
 20
-9.2067
 30
0.0
 10
-276.8946
 20
-8.9719
 30
0.0
 10
-277.0848
 20
-8.7817
 30
0.0
 10
-277.3196
 20
-8.7817
 30
0.0
 10
-277.5543
 20
-8.7817
 30
0.0
 10
-277.7446
 20
-8.972
 30
0.0
 10
-277.7446
 20
-9.2067
 30
0.0
 10
-277.7446
 20
-9.4415
 30
0.0
 10
-277.5544
 20
-9.6317
 30
0.0
 10
-277.3196
 20
-9.6317
 30
0.0
 10
-277.0848
 20
-9.6317
 30
0.0
 10
-276.8946
 20
-9.4415
 30
0.0
 10
-276.8946
 20
-9.2067
 30
0.0
  0
SPLINE
  5
63
330
1F
100
AcDbEntity
  8
0
 62
   250
100
AcDbSpline
210
0.0
220
0.0
230
1.0
 70
    11
 71
     3
 72
    17
 73
    13
 74
     0
 42
0.0000000001
 43
0.0000000001
 40
0.0
 40
0.0
 40
0.0
 40
0.0
 40
0.25
 40
0.25
 40
0.25
 40
0.5
 40
0.5
 40
0.5
 40
0.75
 40
0.75
 40
0.75
 40
1.0
 40
1.0
 40
1.0
 40
1.0
 10
-276.8946
 20
-6.6567
 30
0.0
 10
-276.8946
 20
-6.4219
 30
0.0
 10
-277.0848
 20
-6.2317
 30
0.0
 10
-277.3196
 20
-6.2317
 30
0.0
 10
-277.5543
 20
-6.2317
 30
0.0
 10
-277.7446
 20
-6.422
 30
0.0
 10
-277.7446
 20
-6.6567
 30
0.0
 10
-277.7446
 20
-6.8915
 30
0.0
 10
-277.5544
 20
-7.0817
 30
0.0
 10
-277.3196
 20
-7.0817
 30
0.0
 10
-277.0848
 20
-7.0817
 30
0.0
 10
-276.8946
 20
-6.8915
 30
0.0
 10
-276.8946
 20
-6.6567
 30
0.0
  0
SPLINE
  5
64
330
1F
100
AcDbEntity
  8
0
 62
   250
100
AcDbSpline
210
0.0
220
0.0
230
1.0
 70
    11
 71
     3
 72
    17
 73
    13
 74
     0
 42
0.0000000001
 43
0.0000000001
 40
0.0
 40
0.0
 40
0.0
 40
0.0
 40
0.25
 40
0.25
 40
0.25
 40
0.5
 40
0.5
 40
0.5
 40
0.75
 40
0.75
 40
0.75
 40
1.0
 40
1.0
 40
1.0
 40
1.0
 10
-276.8946
 20
-14.3067
 30
0.0
 10
-276.8946
 20
-14.0719
 30
0.0
 10
-277.0848
 20
-13.8817
 30
0.0
 10
-277.3196
 20
-13.8817
 30
0.0
 10
-277.5543
 20
-13.8817
 30
0.0
 10
-277.7446
 20
-14.072
 30
0.0
 10
-277.7446
 20
-14.3067
 30
0.0
 10
-277.7446
 20
-14.5415
 30
0.0
 10
-277.5544
 20
-14.7317
 30
0.0
 10
-277.3196
 20
-14.7317
 30
0.0
 10
-277.0848
 20
-14.7317
 30
0.0
 10
-276.8946
 20
-14.5415
 30
0.0
 10
-276.8946
 20
-14.3067
 30
0.0
  0
SPLINE
  5
65
330
1F
100
AcDbEntity
  8
0
 62
   250
100
AcDbSpline
210
0.0
220
0.0
230
1.0
 70
    11
 71
     3
 72
    29
 73
    25
 74
     0
 42
0.0000000001
 43
0.0000000001
 40
0.0
 40
0.0
 40
0.0
 40
0.0
 40
0.125
 40
0.125
 40
0.125
 40
0.25
 40
0.25
 40
0.25
 40
0.375
 40
0.375
 40
0.375
 40
0.5
 40
0.5
 40
0.5
 40
0.625
 40
0.625
 40
0.625
 40
0.75
 40
0.75
 40
0.75
 40
0.875
 40
0.875
 40
0.875
 40
1.0
 40
1.0
 40
1.0
 40
1.0
 10
-280.2874
 20
-3.9067
 30
0.0
 10
-280.2874
 20
-3.9067
 30
0.0
 10
-274.3518
 20
-3.9067
 30
0.0
 10
-274.3518
 20
-3.9067
 30
0.0
 10
-274.3518
 20
-3.9067
 30
0.0
 10
-273.9613
 20
1.1373
 30
0.0
 10
-273.9613
 20
1.1373
 30
0.0
 10
-273.9613
 20
1.1373
 30
0.0
 10
-273.9601
 20
1.145
 30
0.0
 10
-273.9601
 20
1.145
 30
0.0
 10
-273.7542
 20
2.4672
 30
0.0
 10
-274.3473
 20
3.7934
 30
0.0
 10
-275.4702
 20
4.5213
 30
0.0
 10
-276.5952
 20
5.2505
 30
0.0
 10
-278.0438
 20
5.2507
 30
0.0
 10
-279.1689
 20
4.5214
 30
0.0
 10
-280.2918
 20
3.7935
 30
0.0
 10
-280.8851
 20
2.4672
 30
0.0
 10
-280.6791
 20
1.145
 30
0.0
 10
-280.6791
 20
1.145
 30
0.0
 10
-280.6779
 20
1.1373
 30
0.0
 10
-280.6779
 20
1.1373
 30
0.0
 10
-280.6779
 20
1.1373
 30
0.0
 10
-280.2874
 20
-3.9067
 30
0.0
 10
-280.2874
 20
-3.9067
 30
0.0
  0
SPLINE
  5
66
330
1F
100
AcDbEntity
  8
0
 62
   250
100
AcDbSpline
210
0.0
220
0.0
230
1.0
 70
    11
 71
     3
 72
    32
 73
    28
 74
     0
 42
0.0000000001
 43
0.0000000001
 40
0.0
 40
0.0
 40
0.0
 40
0.0
 40
0.1111111111111111
 40
0.1111111111111111
 40
0.1111111111111111
 40
0.2222222222222222
 40
0.2222222222222222
 40
0.2222222222222222
 40
0.3333333333333333
 40
0.3333333333333333
 40
0.3333333333333333
 40
0.4444444444444444
 40
0.4444444444444444
 40
0.4444444444444444
 40
0.5555555555555556
 40
0.5555555555555556
 40
0.5555555555555556
 40
0.6666666666666666
 40
0.6666666666666666
 40
0.6666666666666666
 40
0.7777777777777777
 40
0.7777777777777777
 40
0.7777777777777777
 40
0.8888888888888888
 40
0.8888888888888888
 40
0.8888888888888888
 40
1.0
 40
1.0
 40
1.0
 40
1.0
 10
-279.7196
 20
-26.0317
 30
0.0
 10
-279.7196
 20
-26.0317
 30
0.0
 10
-279.7196
 20
-21.8317
 30
0.0
 10
-279.7196
 20
-21.8317
 30
0.0
 10
-279.7196
 20
-20.9744
 30
0.0
 10
-279.2621
 20
-20.182
 30
0.0
 10
-278.5196
 20
-19.7533
 30
0.0
 10
-277.777
 20
-19.3246
 30
0.0
 10
-276.8622
 20
-19.3246
 30
0.0
 10
-276.1196
 20
-19.7533
 30
0.0
 10
-275.3772
 20
-20.1819
 30
0.0
 10
-274.9189
 20
-20.9742
 30
0.0
 10
-274.9196
 20
-21.8317
 30
0.0
 10
-274.9196
 20
-21.8317
 30
0.0
 10
-274.9228
 20
-25.9034
 30
0.0
 10
-274.9228
 20
-25.9034
 30
0.0
 10
-274.9228
 20
-25.9034
 30
0.0
 10
-274.9227
 20
-25.9088
 30
0.0
 10
-274.9227
 20
-25.9088
 30
0.0
 10
-274.8778
 20
-26.7649
 30
0.0
 10
-275.3188
 20
-27.6116
 30
0.0
 10
-276.0478
 20
-28.0671
 30
0.0
 10
-276.7864
 20
-28.5286
 30
0.0
 10
-277.7215
 20
-28.5531
 30
0.0
 10
-278.4832
 20
-28.1308
 30
0.0
 10
-279.2462
 20
-27.7078
 30
0.0
 10
-279.7196
 20
-26.9041
 30
0.0
 10
-279.7196
 20
-26.0317
 30
0.0
  0
SPLINE
  5
67
330
1F
100
AcDbEntity
  8
0
 62
   250
100
AcDbSpline
210
0.0
220
0.0
230
1.0
 70
    11
 71
     3
 72
    32
 73
    28
 74
     0
 42
0.0000000001
 43
0.0000000001
 40
0.0
 40
0.0
 40
0.0
 40
0.0
 40
0.1111111111111111
 40
0.1111111111111111
 40
0.1111111111111111
 40
0.2222222222222222
 40
0.2222222222222222
 40
0.2222222222222222
 40
0.3333333333333333
 40
0.3333333333333333
 40
0.3333333333333333
 40
0.4444444444444444
 40
0.4444444444444444
 40
0.4444444444444444
 40
0.5555555555555556
 40
0.5555555555555556
 40
0.5555555555555556
 40
0.6666666666666666
 40
0.6666666666666666
 40
0.6666666666666666
 40
0.7777777777777777
 40
0.7777777777777777
 40
0.7777777777777777
 40
0.8888888888888888
 40
0.8888888888888888
 40
0.8888888888888888
 40
1.0
 40
1.0
 40
1.0
 40
1.0
 10
-273.1196
 20
-26.039
 30
0.0
 10
-273.1235
 20
-28.3552
 30
0.0
 10
-275.0024
 20
-30.2317
 30
0.0
 10
-277.3196
 20
-30.2317
 30
0.0
 10
-279.6367
 20
-30.2317
 30
0.0
 10
-281.5157
 20
-28.3552
 30
0.0
 10
-281.5196
 20
-26.039
 30
0.0
 10
-281.5196
 20
-26.039
 30
0.0
 10
-283.5196
 20
1.6611
 30
0.0
 10
-283.5196
 20
1.6611
 30
0.0
 10
-283.5196
 20
1.6611
 30
0.0
 10
-283.5196
 20
1.6683
 30
0.0
 10
-283.5196
 20
1.6683
 30
0.0
 10
-283.5196
 20
3.8833
 30
0.0
 10
-282.3379
 20
5.9301
 30
0.0
 10
-280.4196
 20
7.0376
 30
0.0
 10
-278.5013
 20
8.1451
 30
0.0
 10
-276.1379
 20
8.1451
 30
0.0
 10
-274.2196
 20
7.0376
 30
0.0
 10
-272.3013
 20
5.9301
 30
0.0
 10
-271.1196
 20
3.8833
 30
0.0
 10
-271.1196
 20
1.6683
 30
0.0
 10
-271.1196
 20
1.6683
 30
0.0
 10
-271.1196
 20
1.6611
 30
0.0
 10
-271.1196
 20
1.6611
 30
0.0
 10
-271.1196
 20
1.6611
 30
0.0
 10
-273.1196
 20
-26.039
 30
0.0
 10
-273.1196
 20
-26.039
 30
0.0
  0
SPLINE
  5
68
330
1F
100
AcDbEntity
  8
0
 62
   250
100
AcDbSpline
210
0.0
220
0.0
230
1.0
 70
    11
 71
     3
 72
    59
 73
    55
 74
     0
 42
0.0000000001
 43
0.0000000001
 40
0.0
 40
0.0
 40
0.0
 40
0.0
 40
0.0555555555555556
 40
0.0555555555555556
 40
0.0555555555555556
 40
0.1111111111111111
 40
0.1111111111111111
 40
0.1111111111111111
 40
0.1666666666666667
 40
0.1666666666666667
 40
0.1666666666666667
 40
0.2222222222222222
 40
0.2222222222222222
 40
0.2222222222222222
 40
0.2777777777777778
 40
0.2777777777777778
 40
0.2777777777777778
 40
0.3333333333333333
 40
0.3333333333333333
 40
0.3333333333333333
 40
0.3888888888888888
 40
0.3888888888888888
 40
0.3888888888888888
 40
0.4444444444444444
 40
0.4444444444444444
 40
0.4444444444444444
 40
0.5
 40
0.5
 40
0.5
 40
0.5555555555555556
 40
0.5555555555555556
 40
0.5555555555555556
 40
0.611111111111111
 40
0.611111111111111
 40
0.611111111111111
 40
0.6666666666666666
 40
0.6666666666666666
 40
0.6666666666666666
 40
0.7222222222222222
 40
0.7222222222222222
 40
0.7222222222222222
 40
0.7777777777777777
 40
0.7777777777777777
 40
0.7777777777777777
 40
0.8333333333333333
 40
0.8333333333333333
 40
0.8333333333333333
 40
0.8888888888888888
 40
0.8888888888888888
 40
0.8888888888888888
 40
0.9444444444444444
 40
0.9444444444444444
 40
0.9444444444444444
 40
1.0
 40
1.0
 40
1.0
 40
1.0
 10
-150.2658
 20
17.3719
 30
0.0
 10
-150.2658
 20
17.3719
 30
0.0
 10
-150.2658
 20
20.3719
 30
0.0
 10
-150.2658
 20
20.3719
 30
0.0
 10
-150.2658
 20
20.3719
 30
0.0
 10
-143.8658
 20
20.3719
 30
0.0
 10
-143.8658
 20
20.3719
 30
0.0
 10
-143.8658
 20
20.3719
 30
0.0
 10
-143.8658
 20
17.3719
 30
0.0
 10
-143.8658
 20
17.3719
 30
0.0
 10
-143.8658
 20
17.3719
 30
0.0
 10
-127.1958
 20
17.3719
 30
0.0
 10
-127.1958
 20
17.3719
 30
0.0
 10
-127.1958
 20
17.3719
 30
0.0
 10
-127.1958
 20
20.3719
 30
0.0
 10
-127.1958
 20
20.3719
 30
0.0
 10
-127.1958
 20
20.3719
 30
0.0
 10
-120.7958
 20
20.3719
 30
0.0
 10
-120.7958
 20
20.3719
 30
0.0
 10
-120.7958
 20
20.3719
 30
0.0
 10
-120.7958
 20
17.3719
 30
0.0
 10
-120.7958
 20
17.3719
 30
0.0
 10
-120.7958
 20
17.3719
 30
0.0
 10
-114.8308
 20
17.3719
 30
0.0
 10
-114.8308
 20
17.3719
 30
0.0
 10
-114.8308
 20
17.3719
 30
0.0
 10
-114.8308
 20
-3.4781
 30
0.0
 10
-114.8308
 20
-3.4781
 30
0.0
 10
-114.8308
 20
-3.4781
 30
0.0
 10
-125.5058
 20
-3.4781
 30
0.0
 10
-125.5058
 20
-3.4781
 30
0.0
 10
-125.5058
 20
-3.4781
 30
0.0
 10
-125.5058
 20
-3.2781
 30
0.0
 10
-125.5058
 20
-3.2781
 30
0.0
 10
-125.5058
 20
0.3035
 30
0.0
 10
-127.4166
 20
3.613
 30
0.0
 10
-130.5183
 20
5.4038
 30
0.0
 10
-133.62
 20
7.1946
 30
0.0
 10
-137.4416
 20
7.1946
 30
0.0
 10
-140.5433
 20
5.4038
 30
0.0
 10
-143.6451
 20
3.613
 30
0.0
 10
-145.5558
 20
0.3035
 30
0.0
 10
-145.5558
 20
-3.2781
 30
0.0
 10
-145.5558
 20
-3.2781
 30
0.0
 10
-145.5558
 20
-3.4781
 30
0.0
 10
-145.5558
 20
-3.4781
 30
0.0
 10
-145.5558
 20
-3.4781
 30
0.0
 10
-156.2308
 20
-3.4781
 30
0.0
 10
-156.2308
 20
-3.4781
 30
0.0
 10
-156.2308
 20
-3.4781
 30
0.0
 10
-156.2308
 20
17.3719
 30
0.0
 10
-156.2308
 20
17.3719
 30
0.0
 10
-156.2308
 20
17.3719
 30
0.0
 10
-150.2658
 20
17.3719
 30
0.0
 10
-150.2658
 20
17.3719
 30
0.0
  0
SPLINE
  5
69
330
1F
100
AcDbEntity
  8
0
 62
   250
100
AcDbSpline
210
0.0
220
0.0
230
1.0
 70
    11
 71
     3
 72
    17
 73
    13
 74
     0
 42
0.0000000001
 43
0.0000000001
 40
0.0
 40
0.0
 40
0.0
 40
0.0
 40
0.25
 40
0.25
 40
0.25
 40
0.5
 40
0.5
 40
0.5
 40
0.75
 40
0.75
 40
0.75
 40
1.0
 40
1.0
 40
1.0
 40
1.0
 10
-194.5663
 20
15.5563
 30
0.0
 10
-194.5663
 20
14.2308
 30
0.0
 10
-195.6408
 20
13.1563
 30
0.0
 10
-196.9663
 20
13.1563
 30
0.0
 10
-198.2918
 20
13.1563
 30
0.0
 10
-199.3663
 20
14.2308
 30
0.0
 10
-199.3663
 20
15.5563
 30
0.0
 10
-199.3663
 20
16.8818
 30
0.0
 10
-198.2918
 20
17.9563
 30
0.0
 10
-196.9663
 20
17.9563
 30
0.0
 10
-195.6408
 20
17.9563
 30
0.0
 10
-194.5663
 20
16.8818
 30
0.0
 10
-194.5663
 20
15.5563
 30
0.0
  0
SPLINE
  5
6A
330
1F
100
AcDbEntity
  8
0
 62
   250
100
AcDbSpline
210
0.0
220
0.0
230
1.0
 70
    11
 71
     3
 72
    17
 73
    13
 74
     0
 42
0.0000000001
 43
0.0000000001
 40
0.0
 40
0.0
 40
0.0
 40
0.0
 40
0.25
 40
0.25
 40
0.25
 40
0.5
 40
0.5
 40
0.5
 40
0.75
 40
0.75
 40
0.75
 40
1.0
 40
1.0
 40
1.0
 40
1.0
 10
-159.5663
 20
15.5563
 30
0.0
 10
-159.5663
 20
14.2308
 30
0.0
 10
-160.6408
 20
13.1563
 30
0.0
 10
-161.9663
 20
13.1563
 30
0.0
 10
-163.2918
 20
13.1563
 30
0.0
 10
-164.3663
 20
14.2308
 30
0.0
 10
-164.3663
 20
15.5563
 30
0.0
 10
-164.3663
 20
16.8818
 30
0.0
 10
-163.2918
 20
17.9563
 30
0.0
 10
-161.9663
 20
17.9563
 30
0.0
 10
-160.6408
 20
17.9563
 30
0.0
 10
-159.5663
 20
16.8818
 30
0.0
 10
-159.5663
 20
15.5563
 30
0.0
  0
SPLINE
  5
6B
330
1F
100
AcDbEntity
  8
0
 62
   250
100
AcDbSpline
210
0.0
220
0.0
230
1.0
 70
    11
 71
     3
 72
    17
 73
    13
 74
     0
 42
0.0000000001
 43
0.0000000001
 40
0.0
 40
0.0
 40
0.0
 40
0.0
 40
0.25
 40
0.25
 40
0.25
 40
0.5
 40
0.5
 40
0.5
 40
0.75
 40
0.75
 40
0.75
 40
1.0
 40
1.0
 40
1.0
 40
1.0
 10
-177.2663
 20
15.5563
 30
0.0
 10
-177.2663
 20
16.7714
 30
0.0
 10
-178.2512
 20
17.7563
 30
0.0
 10
-179.4663
 20
17.7563
 30
0.0
 10
-180.6814
 20
17.7563
 30
0.0
 10
-181.6663
 20
16.7714
 30
0.0
 10
-181.6663
 20
15.5563
 30
0.0
 10
-181.6663
 20
14.3412
 30
0.0
 10
-180.6814
 20
13.3563
 30
0.0
 10
-179.4663
 20
13.3563
 30
0.0
 10
-178.2512
 20
13.3563
 30
0.0
 10
-177.2663
 20
14.3412
 30
0.0
 10
-177.2663
 20
15.5563
 30
0.0
  0
SPLINE
  5
6C
330
1F
100
AcDbEntity
  8
0
 62
   250
100
AcDbSpline
210
0.0
220
0.0
230
1.0
 70
    11
 71
     3
 72
    26
 73
    22
 74
     0
 42
0.0000000001
 43
0.0000000001
 40
0.0
 40
0.0
 40
0.0
 40
0.0
 40
0.1428571428571428
 40
0.1428571428571428
 40
0.1428571428571428
 40
0.2857142857142857
 40
0.2857142857142857
 40
0.2857142857142857
 40
0.4285714285714285
 40
0.4285714285714285
 40
0.4285714285714285
 40
0.5714285714285714
 40
0.5714285714285714
 40
0.5714285714285714
 40
0.7142857142857142
 40
0.7142857142857142
 40
0.7142857142857142
 40
0.8571428571428571
 40
0.8571428571428571
 40
0.8571428571428571
 40
1.0
 40
1.0
 40
1.0
 40
1.0
 10
-161.9663
 20
11.3213
 30
0.0
 10
-161.9663
 20
11.3213
 30
0.0
 10
-196.9663
 20
11.3213
 30
0.0
 10
-196.9663
 20
11.3213
 30
0.0
 10
-198.4793
 20
11.3213
 30
0.0
 10
-199.8774
 20
12.1285
 30
0.0
 10
-200.6339
 20
13.4388
 30
0.0
 10
-201.3904
 20
14.7491
 30
0.0
 10
-201.3904
 20
16.3635
 30
0.0
 10
-200.6339
 20
17.6738
 30
0.0
 10
-199.8774
 20
18.9841
 30
0.0
 10
-198.4793
 20
19.7913
 30
0.0
 10
-196.9663
 20
19.7913
 30
0.0
 10
-196.9663
 20
19.7913
 30
0.0
 10
-161.9663
 20
19.7913
 30
0.0
 10
-161.9663
 20
19.7913
 30
0.0
 10
-159.6274
 20
19.7913
 30
0.0
 10
-157.7313
 20
17.8952
 30
0.0
 10
-157.7313
 20
15.5563
 30
0.0
 10
-157.7313
 20
13.2175
 30
0.0
 10
-159.6275
 20
11.3213
 30
0.0
 10
-161.9663
 20
11.3213
 30
0.0
  0
SPLINE
  5
6D
330
1F
100
AcDbEntity
  8
0
 62
   250
100
AcDbSpline
210
0.0
220
0.0
230
1.0
 70
    11
 71
     3
 72
    83
 73
    79
 74
     0
 42
0.0000000001
 43
0.0000000001
 40
0.0
 40
0.0
 40
0.0
 40
0.0
 40
0.0384615384615385
 40
0.0384615384615385
 40
0.0384615384615385
 40
0.0769230769230769
 40
0.0769230769230769
 40
0.0769230769230769
 40
0.1153846153846154
 40
0.1153846153846154
 40
0.1153846153846154
 40
0.1538461538461539
 40
0.1538461538461539
 40
0.1538461538461539
 40
0.1923076923076923
 40
0.1923076923076923
 40
0.1923076923076923
 40
0.2307692307692308
 40
0.2307692307692308
 40
0.2307692307692308
 40
0.2692307692307693
 40
0.2692307692307693
 40
0.2692307692307693
 40
0.3076923076923077
 40
0.3076923076923077
 40
0.3076923076923077
 40
0.3461538461538461
 40
0.3461538461538461
 40
0.3461538461538461
 40
0.3846153846153846
 40
0.3846153846153846
 40
0.3846153846153846
 40
0.4230769230769231
 40
0.4230769230769231
 40
0.4230769230769231
 40
0.4615384615384616
 40
0.4615384615384616
 40
0.4615384615384616
 40
0.5
 40
0.5
 40
0.5
 40
0.5384615384615385
 40
0.5384615384615385
 40
0.5384615384615385
 40
0.576923076923077
 40
0.576923076923077
 40
0.576923076923077
 40
0.6153846153846154
 40
0.6153846153846154
 40
0.6153846153846154
 40
0.6538461538461539
 40
0.6538461538461539
 40
0.6538461538461539
 40
0.6923076923076923
 40
0.6923076923076923
 40
0.6923076923076923
 40
0.7307692307692308
 40
0.7307692307692308
 40
0.7307692307692308
 40
0.7692307692307693
 40
0.7692307692307693
 40
0.7692307692307693
 40
0.8076923076923077
 40
0.8076923076923077
 40
0.8076923076923077
 40
0.8461538461538463
 40
0.8461538461538463
 40
0.8461538461538463
 40
0.8846153846153847
 40
0.8846153846153847
 40
0.8846153846153847
 40
0.9230769230769231
 40
0.9230769230769231
 40
0.9230769230769231
 40
0.9615384615384616
 40
0.9615384615384616
 40
0.9615384615384616
 40
1.0
 40
1.0
 40
1.0
 40
1.0
 10
-261.5895
 20
-25.1017
 30
0.0
 10
-261.5895
 20
-25.1017
 30
0.0
 10
-261.5895
 20
-28.1017
 30
0.0
 10
-261.5895
 20
-28.1017
 30
0.0
 10
-261.5895
 20
-28.1017
 30
0.0
 10
-267.9895
 20
-28.1017
 30
0.0
 10
-267.9895
 20
-28.1017
 30
0.0
 10
-267.9895
 20
-28.1017
 30
0.0
 10
-267.9895
 20
-25.1017
 30
0.0
 10
-267.9895
 20
-25.1017
 30
0.0
 10
-267.9895
 20
-25.1017
 30
0.0
 10
-270.4895
 20
-25.1017
 30
0.0
 10
-270.4895
 20
-25.1017
 30
0.0
 10
-270.4895
 20
-25.1017
 30
0.0
 10
-270.4895
 20
4.7483
 30
0.0
 10
-270.4895
 20
4.7483
 30
0.0
 10
-270.4895
 20
4.7483
 30
0.0
 10
-267.9895
 20
4.7483
 30
0.0
 10
-267.9895
 20
4.7483
 30
0.0
 10
-267.9895
 20
4.7483
 30
0.0
 10
-267.9895
 20
7.7483
 30
0.0
 10
-267.9895
 20
7.7483
 30
0.0
 10
-267.9895
 20
7.7483
 30
0.0
 10
-261.5895
 20
7.7483
 30
0.0
 10
-261.5895
 20
7.7483
 30
0.0
 10
-261.5895
 20
7.7483
 30
0.0
 10
-261.5895
 20
4.7483
 30
0.0
 10
-261.5895
 20
4.7483
 30
0.0
 10
-261.5895
 20
4.7483
 30
0.0
 10
-222.9895
 20
4.7483
 30
0.0
 10
-222.9895
 20
4.7483
 30
0.0
 10
-222.9895
 20
4.7483
 30
0.0
 10
-222.9895
 20
7.7483
 30
0.0
 10
-222.9895
 20
7.7483
 30
0.0
 10
-222.9895
 20
7.7483
 30
0.0
 10
-216.5895
 20
7.7483
 30
0.0
 10
-216.5895
 20
7.7483
 30
0.0
 10
-216.5895
 20
7.7483
 30
0.0
 10
-216.5895
 20
4.7483
 30
0.0
 10
-216.5895
 20
4.7483
 30
0.0
 10
-216.5895
 20
4.7483
 30
0.0
 10
-214.0895
 20
4.7483
 30
0.0
 10
-214.0895
 20
4.7483
 30
0.0
 10
-214.0895
 20
4.7483
 30
0.0
 10
-214.0895
 20
-25.1017
 30
0.0
 10
-214.0895
 20
-25.1017
 30
0.0
 10
-214.0895
 20
-25.1017
 30
0.0
 10
-216.5895
 20
-25.1017
 30
0.0
 10
-216.5895
 20
-25.1017
 30
0.0
 10
-216.5895
 20
-25.1017
 30
0.0
 10
-216.5895
 20
-28.1017
 30
0.0
 10
-216.5895
 20
-28.1017
 30
0.0
 10
-216.5895
 20
-28.1017
 30
0.0
 10
-222.9895
 20
-28.1017
 30
0.0
 10
-222.9895
 20
-28.1017
 30
0.0
 10
-222.9895
 20
-28.1017
 30
0.0
 10
-222.9895
 20
-25.1017
 30
0.0
 10
-222.9895
 20
-25.1017
 30
0.0
 10
-222.9895
 20
-25.1017
 30
0.0
 10
-225.0467
 20
-25.1017
 30
0.0
 10
-225.0467
 20
-25.1017
 30
0.0
 10
-225.0467
 20
-25.1017
 30
0.0
 10
-224.9833
 20
-24.8524
 30
0.0
 10
-224.9833
 20
-24.8524
 30
0.0
 10
-223.1471
 20
-17.631
 30
0.0
 10
-225.9878
 20
-10.0284
 30
0.0
 10
-232.1097
 20
-5.7806
 30
0.0
 10
-238.2316
 20
-1.5329
 30
0.0
 10
-246.3475
 20
-1.5328
 30
0.0
 10
-252.4694
 20
-5.7806
 30
0.0
 10
-258.5912
 20
-10.0284
 30
0.0
 10
-261.432
 20
-17.631
 30
0.0
 10
-259.5958
 20
-24.8524
 30
0.0
 10
-259.5958
 20
-24.8524
 30
0.0
 10
-259.5324
 20
-25.1017
 30
0.0
 10
-259.5324
 20
-25.1017
 30
0.0
 10
-259.5324
 20
-25.1017
 30
0.0
 10
-261.5895
 20
-25.1017
 30
0.0
 10
-261.5895
 20
-25.1017
 30
0.0
  0
SPLINE
  5
6E
330
1F
100
AcDbEntity
  8
0
 62
   250
100
AcDbSpline
210
0.0
220
0.0
230
1.0
 70
    11
 71
     3
 72
    83
 73
    79
 74
     0
 42
0.0000000001
 43
0.0000000001
 40
0.0
 40
0.0
 40
0.0
 40
0.0
 40
0.0384615384615385
 40
0.0384615384615385
 40
0.0384615384615385
 40
0.0769230769230769
 40
0.0769230769230769
 40
0.0769230769230769
 40
0.1153846153846154
 40
0.1153846153846154
 40
0.1153846153846154
 40
0.1538461538461539
 40
0.1538461538461539
 40
0.1538461538461539
 40
0.1923076923076923
 40
0.1923076923076923
 40
0.1923076923076923
 40
0.2307692307692308
 40
0.2307692307692308
 40
0.2307692307692308
 40
0.2692307692307693
 40
0.2692307692307693
 40
0.2692307692307693
 40
0.3076923076923077
 40
0.3076923076923077
 40
0.3076923076923077
 40
0.3461538461538461
 40
0.3461538461538461
 40
0.3461538461538461
 40
0.3846153846153846
 40
0.3846153846153846
 40
0.3846153846153846
 40
0.4230769230769231
 40
0.4230769230769231
 40
0.4230769230769231
 40
0.4615384615384616
 40
0.4615384615384616
 40
0.4615384615384616
 40
0.5
 40
0.5
 40
0.5
 40
0.5384615384615385
 40
0.5384615384615385
 40
0.5384615384615385
 40
0.576923076923077
 40
0.576923076923077
 40
0.576923076923077
 40
0.6153846153846154
 40
0.6153846153846154
 40
0.6153846153846154
 40
0.6538461538461539
 40
0.6538461538461539
 40
0.6538461538461539
 40
0.6923076923076923
 40
0.6923076923076923
 40
0.6923076923076923
 40
0.7307692307692308
 40
0.7307692307692308
 40
0.7307692307692308
 40
0.7692307692307693
 40
0.7692307692307693
 40
0.7692307692307693
 40
0.8076923076923077
 40
0.8076923076923077
 40
0.8076923076923077
 40
0.8461538461538463
 40
0.8461538461538463
 40
0.8461538461538463
 40
0.8846153846153847
 40
0.8846153846153847
 40
0.8846153846153847
 40
0.9230769230769231
 40
0.9230769230769231
 40
0.9230769230769231
 40
0.9615384615384616
 40
0.9615384615384616
 40
0.9615384615384616
 40
1.0
 40
1.0
 40
1.0
 40
1.0
 10
-204.1524
 20
-24.8891
 30
0.0
 10
-204.1524
 20
-24.8891
 30
0.0
 10
-204.1524
 20
-27.8891
 30
0.0
 10
-204.1524
 20
-27.8891
 30
0.0
 10
-204.1524
 20
-27.8891
 30
0.0
 10
-210.5524
 20
-27.8891
 30
0.0
 10
-210.5524
 20
-27.8891
 30
0.0
 10
-210.5524
 20
-27.8891
 30
0.0
 10
-210.5524
 20
-24.8891
 30
0.0
 10
-210.5524
 20
-24.8891
 30
0.0
 10
-210.5524
 20
-24.8891
 30
0.0
 10
-213.0524
 20
-24.8891
 30
0.0
 10
-213.0524
 20
-24.8891
 30
0.0
 10
-213.0524
 20
-24.8891
 30
0.0
 10
-213.0524
 20
4.9609
 30
0.0
 10
-213.0524
 20
4.9609
 30
0.0
 10
-213.0524
 20
4.9609
 30
0.0
 10
-210.5524
 20
4.9609
 30
0.0
 10
-210.5524
 20
4.9609
 30
0.0
 10
-210.5524
 20
4.9609
 30
0.0
 10
-210.5524
 20
7.9609
 30
0.0
 10
-210.5524
 20
7.9609
 30
0.0
 10
-210.5524
 20
7.9609
 30
0.0
 10
-204.1524
 20
7.9609
 30
0.0
 10
-204.1524
 20
7.9609
 30
0.0
 10
-204.1524
 20
7.9609
 30
0.0
 10
-204.1524
 20
4.9609
 30
0.0
 10
-204.1524
 20
4.9609
 30
0.0
 10
-204.1524
 20
4.9609
 30
0.0
 10
-165.5524
 20
4.9609
 30
0.0
 10
-165.5524
 20
4.9609
 30
0.0
 10
-165.5524
 20
4.9609
 30
0.0
 10
-165.5524
 20
7.9609
 30
0.0
 10
-165.5524
 20
7.9609
 30
0.0
 10
-165.5524
 20
7.9609
 30
0.0
 10
-159.1524
 20
7.9609
 30
0.0
 10
-159.1524
 20
7.9609
 30
0.0
 10
-159.1524
 20
7.9609
 30
0.0
 10
-159.1524
 20
4.9609
 30
0.0
 10
-159.1524
 20
4.9609
 30
0.0
 10
-159.1524
 20
4.9609
 30
0.0
 10
-156.6524
 20
4.9609
 30
0.0
 10
-156.6524
 20
4.9609
 30
0.0
 10
-156.6524
 20
4.9609
 30
0.0
 10
-156.6524
 20
-24.8891
 30
0.0
 10
-156.6524
 20
-24.8891
 30
0.0
 10
-156.6524
 20
-24.8891
 30
0.0
 10
-159.1524
 20
-24.8891
 30
0.0
 10
-159.1524
 20
-24.8891
 30
0.0
 10
-159.1524
 20
-24.8891
 30
0.0
 10
-159.1524
 20
-27.8891
 30
0.0
 10
-159.1524
 20
-27.8891
 30
0.0
 10
-159.1524
 20
-27.8891
 30
0.0
 10
-165.5524
 20
-27.8891
 30
0.0
 10
-165.5524
 20
-27.8891
 30
0.0
 10
-165.5524
 20
-27.8891
 30
0.0
 10
-165.5524
 20
-24.8891
 30
0.0
 10
-165.5524
 20
-24.8891
 30
0.0
 10
-165.5524
 20
-24.8891
 30
0.0
 10
-167.6096
 20
-24.8891
 30
0.0
 10
-167.6096
 20
-24.8891
 30
0.0
 10
-167.6096
 20
-24.8891
 30
0.0
 10
-167.5462
 20
-24.6398
 30
0.0
 10
-167.5462
 20
-24.6398
 30
0.0
 10
-165.7099
 20
-17.4184
 30
0.0
 10
-168.5507
 20
-9.8158
 30
0.0
 10
-174.6725
 20
-5.568
 30
0.0
 10
-180.7943
 20
-1.3202
 30
0.0
 10
-188.9103
 20
-1.3202
 30
0.0
 10
-195.0322
 20
-5.5679
 30
0.0
 10
-201.1541
 20
-9.8157
 30
0.0
 10
-203.9949
 20
-17.4184
 30
0.0
 10
-202.1586
 20
-24.6398
 30
0.0
 10
-202.1586
 20
-24.6398
 30
0.0
 10
-202.0952
 20
-24.8891
 30
0.0
 10
-202.0952
 20
-24.8891
 30
0.0
 10
-202.0952
 20
-24.8891
 30
0.0
 10
-204.1524
 20
-24.8891
 30
0.0
 10
-204.1524
 20
-24.8891
 30
0.0
  0
SPLINE
  5
6F
330
1F
100
AcDbEntity
  8
0
 62
   250
100
AcDbSpline
210
0.0
220
0.0
230
1.0
 70
    11
 71
     3
 72
    29
 73
    25
 74
     0
 42
0.0000000001
 43
0.0000000001
 40
0.0
 40
0.0
 40
0.0
 40
0.0
 40
0.125
 40
0.125
 40
0.125
 40
0.25
 40
0.25
 40
0.25
 40
0.375
 40
0.375
 40
0.375
 40
0.5
 40
0.5
 40
0.5
 40
0.625
 40
0.625
 40
0.625
 40
0.75
 40
0.75
 40
0.75
 40
0.875
 40
0.875
 40
0.875
 40
1.0
 40
1.0
 40
1.0
 40
1.0
 10
-217.4863
 20
59.3265
 30
0.0
 10
-217.4863
 20
59.3265
 30
0.0
 10
-219.4863
 20
59.3265
 30
0.0
 10
-219.4863
 20
59.3265
 30
0.0
 10
-219.4863
 20
59.3265
 30
0.0
 10
-219.4863
 20
67.9365
 30
0.0
 10
-219.4863
 20
67.9365
 30
0.0
 10
-219.4863
 20
67.9365
 30
0.0
 10
-209.0863
 20
67.9365
 30
0.0
 10
-209.0863
 20
67.9365
 30
0.0
 10
-209.0863
 20
67.9365
 30
0.0
 10
-209.0863
 20
59.3265
 30
0.0
 10
-209.0863
 20
59.3265
 30
0.0
 10
-209.0863
 20
59.3265
 30
0.0
 10
-211.0863
 20
59.3265
 30
0.0
 10
-211.0863
 20
59.3265
 30
0.0
 10
-211.0863
 20
59.3265
 30
0.0
 10
-211.0863
 20
56.3265
 30
0.0
 10
-211.0863
 20
56.3265
 30
0.0
 10
-211.0863
 20
56.3265
 30
0.0
 10
-217.4863
 20
56.3265
 30
0.0
 10
-217.4863
 20
56.3265
 30
0.0
 10
-217.4863
 20
56.3265
 30
0.0
 10
-217.4863
 20
59.3265
 30
0.0
 10
-217.4863
 20
59.3265
 30
0.0
  0
SPLINE
  5
70
330
1F
100
AcDbEntity
  8
0
 62
   250
100
AcDbSpline
210
0.0
220
0.0
230
1.0
 70
    11
 71
     3
 72
    17
 73
    13
 74
     0
 42
0.0000000001
 43
0.0000000001
 40
0.0
 40
0.0
 40
0.0
 40
0.0
 40
0.25
 40
0.25
 40
0.25
 40
0.5
 40
0.5
 40
0.5
 40
0.75
 40
0.75
 40
0.75
 40
1.0
 40
1.0
 40
1.0
 40
1.0
 10
-121.366
 20
134.0766
 30
0.0
 10
-121.366
 20
134.0766
 30
0.0
 10
-121.366
 20
142.5666
 30
0.0
 10
-121.366
 20
142.5666
 30
0.0
 10
-121.366
 20
142.5666
 30
0.0
 10
-121.986
 20
142.5666
 30
0.0
 10
-121.986
 20
142.5666
 30
0.0
 10
-121.986
 20
142.5666
 30
0.0
 10
-121.986
 20
134.0766
 30
0.0
 10
-121.986
 20
134.0766
 30
0.0
 10
-121.986
 20
134.0766
 30
0.0
 10
-121.366
 20
134.0766
 30
0.0
 10
-121.366
 20
134.0766
 30
0.0
  0
SPLINE
  5
71
330
1F
100
AcDbEntity
  8
0
 62
   250
100
AcDbSpline
210
0.0
220
0.0
230
1.0
 70
    11
 71
     3
 72
    17
 73
    13
 74
     0
 42
0.0000000001
 43
0.0000000001
 40
0.0
 40
0.0
 40
0.0
 40
0.0
 40
0.25
 40
0.25
 40
0.25
 40
0.5
 40
0.5
 40
0.5
 40
0.75
 40
0.75
 40
0.75
 40
1.0
 40
1.0
 40
1.0
 40
1.0
 10
-155.411
 20
180.8966
 30
0.0
 10
-155.411
 20
180.8966
 30
0.0
 10
-155.411
 20
181.5166
 30
0.0
 10
-155.411
 20
181.5166
 30
0.0
 10
-155.411
 20
181.5166
 30
0.0
 10
-163.901
 20
181.5166
 30
0.0
 10
-163.901
 20
181.5166
 30
0.0
 10
-163.901
 20
181.5166
 30
0.0
 10
-163.901
 20
180.8966
 30
0.0
 10
-163.901
 20
180.8966
 30
0.0
 10
-163.901
 20
180.8966
 30
0.0
 10
-155.411
 20
180.8966
 30
0.0
 10
-155.411
 20
180.8966
 30
0.0
  0
SPLINE
  5
72
330
1F
100
AcDbEntity
  8
0
 62
   250
100
AcDbSpline
210
0.0
220
0.0
230
1.0
 70
    11
 71
     3
 72
    17
 73
    13
 74
     0
 42
0.0000000001
 43
0.0000000001
 40
0.0
 40
0.0
 40
0.0
 40
0.0
 40
0.25
 40
0.25
 40
0.25
 40
0.5
 40
0.5
 40
0.5
 40
0.75
 40
0.75
 40
0.75
 40
1.0
 40
1.0
 40
1.0
 40
1.0
 10
-197.326
 20
134.0766
 30
0.0
 10
-197.326
 20
134.0766
 30
0.0
 10
-197.326
 20
142.5666
 30
0.0
 10
-197.326
 20
142.5666
 30
0.0
 10
-197.326
 20
142.5666
 30
0.0
 10
-197.946
 20
142.5666
 30
0.0
 10
-197.946
 20
142.5666
 30
0.0
 10
-197.946
 20
142.5666
 30
0.0
 10
-197.946
 20
134.0766
 30
0.0
 10
-197.946
 20
134.0766
 30
0.0
 10
-197.946
 20
134.0766
 30
0.0
 10
-197.326
 20
134.0766
 30
0.0
 10
-197.326
 20
134.0766
 30
0.0
  0
SPLINE
  5
73
330
1F
100
AcDbEntity
  8
0
 62
   250
100
AcDbSpline
210
0.0
220
0.0
230
1.0
 70
    11
 71
     3
 72
    17
 73
    13
 74
     0
 42
0.0000000001
 43
0.0000000001
 40
0.0
 40
0.0
 40
0.0
 40
0.0
 40
0.25
 40
0.25
 40
0.25
 40
0.5
 40
0.5
 40
0.5
 40
0.75
 40
0.75
 40
0.75
 40
1.0
 40
1.0
 40
1.0
 40
1.0
 10
-131.146
 20
23.4366
 30
0.0
 10
-131.146
 20
23.4366
 30
0.0
 10
-122.656
 20
23.4366
 30
0.0
 10
-122.656
 20
23.4366
 30
0.0
 10
-122.656
 20
23.4366
 30
0.0
 10
-122.656
 20
24.0566
 30
0.0
 10
-122.656
 20
24.0566
 30
0.0
 10
-122.656
 20
24.0566
 30
0.0
 10
-131.146
 20
24.0566
 30
0.0
 10
-131.146
 20
24.0566
 30
0.0
 10
-131.146
 20
24.0566
 30
0.0
 10
-131.146
 20
23.4366
 30
0.0
 10
-131.146
 20
23.4366
 30
0.0
  0
SPLINE
  5
74
330
1F
100
AcDbEntity
  8
0
 62
   250
100
AcDbSpline
210
0.0
220
0.0
230
1.0
 70
    11
 71
     3
 72
    23
 73
    19
 74
     0
 42
0.0000000001
 43
0.0000000001
 40
0.0
 40
0.0
 40
0.0
 40
0.0
 40
0.1666666666666667
 40
0.1666666666666667
 40
0.1666666666666667
 40
0.3333333333333333
 40
0.3333333333333333
 40
0.3333333333333333
 40
0.5
 40
0.5
 40
0.5
 40
0.6666666666666666
 40
0.6666666666666666
 40
0.6666666666666666
 40
0.8333333333333333
 40
0.8333333333333333
 40
0.8333333333333333
 40
1.0
 40
1.0
 40
1.0
 40
1.0
 10
-120.786
 20
66.4266
 30
0.0
 10
-120.786
 20
66.4266
 30
0.0
 10
-120.786
 20
112.7466
 30
0.0
 10
-120.786
 20
112.7466
 30
0.0
 10
-120.786
 20
112.7466
 30
0.0
 10
-128.3707
 20
112.7466
 30
0.0
 10
-128.3707
 20
112.7466
 30
0.0
 10
-128.3707
 20
112.7466
 30
0.0
 10
-128.3707
 20
141.1066
 30
0.0
 10
-128.3707
 20
141.1066
 30
0.0
 10
-128.3707
 20
141.1066
 30
0.0
 10
-132.626
 20
141.1066
 30
0.0
 10
-132.626
 20
141.1066
 30
0.0
 10
-132.626
 20
141.1066
 30
0.0
 10
-132.626
 20
66.4266
 30
0.0
 10
-132.626
 20
66.4266
 30
0.0
 10
-132.626
 20
66.4266
 30
0.0
 10
-120.786
 20
66.4266
 30
0.0
 10
-120.786
 20
66.4266
 30
0.0
  0
SPLINE
  5
75
330
1F
100
AcDbEntity
  8
0
 62
   250
100
AcDbSpline
210
0.0
220
0.0
230
1.0
 70
    11
 71
     3
 72
    17
 73
    13
 74
     0
 42
0.0000000001
 43
0.0000000001
 40
0.0
 40
0.0
 40
0.0
 40
0.0
 40
0.25
 40
0.25
 40
0.25
 40
0.5
 40
0.5
 40
0.5
 40
0.75
 40
0.75
 40
0.75
 40
1.0
 40
1.0
 40
1.0
 40
1.0
 10
-168.396
 20
171.8866
 30
0.0
 10
-168.396
 20
171.8866
 30
0.0
 10
-168.396
 20
174.4866
 30
0.0
 10
-168.396
 20
174.4866
 30
0.0
 10
-168.396
 20
174.4866
 30
0.0
 10
-173.996
 20
174.4866
 30
0.0
 10
-173.996
 20
174.4866
 30
0.0
 10
-173.996
 20
174.4866
 30
0.0
 10
-173.996
 20
171.8866
 30
0.0
 10
-173.996
 20
171.8866
 30
0.0
 10
-173.996
 20
171.8866
 30
0.0
 10
-168.396
 20
171.8866
 30
0.0
 10
-168.396
 20
171.8866
 30
0.0
  0
SPLINE
  5
76
330
1F
100
AcDbEntity
  8
0
 62
   250
100
AcDbSpline
210
0.0
220
0.0
230
1.0
 70
    11
 71
     3
 72
    17
 73
    13
 74
     0
 42
0.0000000001
 43
0.0000000001
 40
0.0
 40
0.0
 40
0.0
 40
0.0
 40
0.25
 40
0.25
 40
0.25
 40
0.5
 40
0.5
 40
0.5
 40
0.75
 40
0.75
 40
0.75
 40
1.0
 40
1.0
 40
1.0
 40
1.0
 10
-136.856
 20
23.9266
 30
0.0
 10
-136.856
 20
23.9266
 30
0.0
 10
-136.856
 20
29.5266
 30
0.0
 10
-136.856
 20
29.5266
 30
0.0
 10
-136.856
 20
29.5266
 30
0.0
 10
-139.456
 20
29.5266
 30
0.0
 10
-139.456
 20
29.5266
 30
0.0
 10
-139.456
 20
29.5266
 30
0.0
 10
-139.456
 20
23.9266
 30
0.0
 10
-139.456
 20
23.9266
 30
0.0
 10
-139.456
 20
23.9266
 30
0.0
 10
-136.856
 20
23.9266
 30
0.0
 10
-136.856
 20
23.9266
 30
0.0
  0
SPLINE
  5
77
330
1F
100
AcDbEntity
  8
0
 62
   250
100
AcDbSpline
210
0.0
220
0.0
230
1.0
 70
    11
 71
     3
 72
    17
 73
    13
 74
     0
 42
0.0000000001
 43
0.0000000001
 40
0.0
 40
0.0
 40
0.0
 40
0.0
 40
0.25
 40
0.25
 40
0.25
 40
0.5
 40
0.5
 40
0.5
 40
0.75
 40
0.75
 40
0.75
 40
1.0
 40
1.0
 40
1.0
 40
1.0
 10
-182.456
 20
74.5266
 30
0.0
 10
-182.456
 20
74.5266
 30
0.0
 10
-182.456
 20
68.9266
 30
0.0
 10
-182.456
 20
68.9266
 30
0.0
 10
-182.456
 20
68.9266
 30
0.0
 10
-179.856
 20
68.9266
 30
0.0
 10
-179.856
 20
68.9266
 30
0.0
 10
-179.856
 20
68.9266
 30
0.0
 10
-179.856
 20
74.5266
 30
0.0
 10
-179.856
 20
74.5266
 30
0.0
 10
-179.856
 20
74.5266
 30
0.0
 10
-182.456
 20
74.5266
 30
0.0
 10
-182.456
 20
74.5266
 30
0.0
  0
SPLINE
  5
78
330
1F
100
AcDbEntity
  8
0
 62
   250
100
AcDbSpline
210
0.0
220
0.0
230
1.0
 70
    11
 71
     3
 72
    17
 73
    13
 74
     0
 42
0.0000000001
 43
0.0000000001
 40
0.0
 40
0.0
 40
0.0
 40
0.0
 40
0.25
 40
0.25
 40
0.25
 40
0.5
 40
0.5
 40
0.5
 40
0.75
 40
0.75
 40
0.75
 40
1.0
 40
1.0
 40
1.0
 40
1.0
 10
-169.856
 20
74.5266
 30
0.0
 10
-169.856
 20
74.5266
 30
0.0
 10
-175.456
 20
74.5266
 30
0.0
 10
-175.456
 20
74.5266
 30
0.0
 10
-175.456
 20
74.5266
 30
0.0
 10
-175.456
 20
71.9266
 30
0.0
 10
-175.456
 20
71.9266
 30
0.0
 10
-175.456
 20
71.9266
 30
0.0
 10
-169.856
 20
71.9266
 30
0.0
 10
-169.856
 20
71.9266
 30
0.0
 10
-169.856
 20
71.9266
 30
0.0
 10
-169.856
 20
74.5266
 30
0.0
 10
-169.856
 20
74.5266
 30
0.0
  0
SPLINE
  5
79
330
1F
100
AcDbEntity
  8
0
 62
   250
100
AcDbSpline
210
0.0
220
0.0
230
1.0
 70
    11
 71
     3
 72
    17
 73
    13
 74
     0
 42
0.0000000001
 43
0.0000000001
 40
0.0
 40
0.0
 40
0.0
 40
0.0
 40
0.25
 40
0.25
 40
0.25
 40
0.5
 40
0.5
 40
0.5
 40
0.75
 40
0.75
 40
0.75
 40
1.0
 40
1.0
 40
1.0
 40
1.0
 10
-149.456
 20
23.9266
 30
0.0
 10
-149.456
 20
23.9266
 30
0.0
 10
-143.856
 20
23.9266
 30
0.0
 10
-143.856
 20
23.9266
 30
0.0
 10
-143.856
 20
23.9266
 30
0.0
 10
-143.856
 20
26.5266
 30
0.0
 10
-143.856
 20
26.5266
 30
0.0
 10
-143.856
 20
26.5266
 30
0.0
 10
-149.456
 20
26.5266
 30
0.0
 10
-149.456
 20
26.5266
 30
0.0
 10
-149.456
 20
26.5266
 30
0.0
 10
-149.456
 20
23.9266
 30
0.0
 10
-149.456
 20
23.9266
 30
0.0
  0
SPLINE
  5
7A
330
1F
100
AcDbEntity
  8
0
 62
   250
100
AcDbSpline
210
0.0
220
0.0
230
1.0
 70
    11
 71
     3
 72
    17
 73
    13
 74
     0
 42
0.0000000001
 43
0.0000000001
 40
0.0
 40
0.0
 40
0.0
 40
0.0
 40
0.25
 40
0.25
 40
0.25
 40
0.5
 40
0.5
 40
0.5
 40
0.75
 40
0.75
 40
0.75
 40
1.0
 40
1.0
 40
1.0
 40
1.0
 10
-145.316
 20
171.8866
 30
0.0
 10
-145.316
 20
171.8866
 30
0.0
 10
-145.316
 20
174.4866
 30
0.0
 10
-145.316
 20
174.4866
 30
0.0
 10
-145.316
 20
174.4866
 30
0.0
 10
-150.916
 20
174.4866
 30
0.0
 10
-150.916
 20
174.4866
 30
0.0
 10
-150.916
 20
174.4866
 30
0.0
 10
-150.916
 20
171.8866
 30
0.0
 10
-150.916
 20
171.8866
 30
0.0
 10
-150.916
 20
171.8866
 30
0.0
 10
-145.316
 20
171.8866
 30
0.0
 10
-145.316
 20
171.8866
 30
0.0
  0
SPLINE
  5
7B
330
1F
100
AcDbEntity
  8
0
 62
   250
100
AcDbSpline
210
0.0
220
0.0
230
1.0
 70
    11
 71
     3
 72
    17
 73
    13
 74
     0
 42
0.0000000001
 43
0.0000000001
 40
0.0
 40
0.0
 40
0.0
 40
0.0
 40
0.25
 40
0.25
 40
0.25
 40
0.5
 40
0.5
 40
0.5
 40
0.75
 40
0.75
 40
0.75
 40
1.0
 40
1.0
 40
1.0
 40
1.0
 10
-179.856
 20
23.9266
 30
0.0
 10
-179.856
 20
23.9266
 30
0.0
 10
-179.856
 20
29.5266
 30
0.0
 10
-179.856
 20
29.5266
 30
0.0
 10
-179.856
 20
29.5266
 30
0.0
 10
-182.456
 20
29.5266
 30
0.0
 10
-182.456
 20
29.5266
 30
0.0
 10
-182.456
 20
29.5266
 30
0.0
 10
-182.456
 20
23.9266
 30
0.0
 10
-182.456
 20
23.9266
 30
0.0
 10
-182.456
 20
23.9266
 30
0.0
 10
-179.856
 20
23.9266
 30
0.0
 10
-179.856
 20
23.9266
 30
0.0
  0
SPLINE
  5
7C
330
1F
100
AcDbEntity
  8
0
 62
   250
100
AcDbSpline
210
0.0
220
0.0
230
1.0
 70
    11
 71
     3
 72
    17
 73
    13
 74
     0
 42
0.0000000001
 43
0.0000000001
 40
0.0
 40
0.0
 40
0.0
 40
0.0
 40
0.25
 40
0.25
 40
0.25
 40
0.5
 40
0.5
 40
0.5
 40
0.75
 40
0.75
 40
0.75
 40
1.0
 40
1.0
 40
1.0
 40
1.0
 10
-169.586
 20
51.2666
 30
0.0
 10
-169.586
 20
52.3712
 30
0.0
 10
-170.4814
 20
53.2666
 30
0.0
 10
-171.586
 20
53.2666
 30
0.0
 10
-172.6906
 20
53.2666
 30
0.0
 10
-173.586
 20
52.3712
 30
0.0
 10
-173.586
 20
51.2666
 30
0.0
 10
-173.586
 20
50.162
 30
0.0
 10
-172.6906
 20
49.2666
 30
0.0
 10
-171.586
 20
49.2666
 30
0.0
 10
-170.4813
 20
49.2666
 30
0.0
 10
-169.586
 20
50.1619
 30
0.0
 10
-169.586
 20
51.2666
 30
0.0
  0
SPLINE
  5
7D
330
1F
100
AcDbEntity
  8
0
 62
   250
100
AcDbSpline
210
0.0
220
0.0
230
1.0
 70
    11
 71
     3
 72
    17
 73
    13
 74
     0
 42
0.0000000001
 43
0.0000000001
 40
0.0
 40
0.0
 40
0.0
 40
0.0
 40
0.25
 40
0.25
 40
0.25
 40
0.5
 40
0.5
 40
0.5
 40
0.75
 40
0.75
 40
0.75
 40
1.0
 40
1.0
 40
1.0
 40
1.0
 10
-145.906
 20
51.2666
 30
0.0
 10
-145.906
 20
52.2718
 30
0.0
 10
-146.7208
 20
53.0866
 30
0.0
 10
-147.726
 20
53.0866
 30
0.0
 10
-148.7312
 20
53.0866
 30
0.0
 10
-149.546
 20
52.2718
 30
0.0
 10
-149.546
 20
51.2666
 30
0.0
 10
-149.546
 20
50.2614
 30
0.0
 10
-148.7312
 20
49.4466
 30
0.0
 10
-147.726
 20
49.4466
 30
0.0
 10
-146.7208
 20
49.4466
 30
0.0
 10
-145.906
 20
50.2614
 30
0.0
 10
-145.906
 20
51.2666
 30
0.0
  0
SPLINE
  5
7E
330
1F
100
AcDbEntity
  8
0
 62
   250
100
AcDbSpline
210
0.0
220
0.0
230
1.0
 70
    11
 71
     3
 72
    17
 73
    13
 74
     0
 42
0.0000000001
 43
0.0000000001
 40
0.0
 40
0.0
 40
0.0
 40
0.0
 40
0.25
 40
0.25
 40
0.25
 40
0.5
 40
0.5
 40
0.5
 40
0.75
 40
0.75
 40
0.75
 40
1.0
 40
1.0
 40
1.0
 40
1.0
 10
-145.726
 20
91.3066
 30
0.0
 10
-145.726
 20
92.4112
 30
0.0
 10
-146.6214
 20
93.3066
 30
0.0
 10
-147.726
 20
93.3066
 30
0.0
 10
-148.8306
 20
93.3066
 30
0.0
 10
-149.726
 20
92.4112
 30
0.0
 10
-149.726
 20
91.3066
 30
0.0
 10
-149.726
 20
90.202
 30
0.0
 10
-148.8306
 20
89.3066
 30
0.0
 10
-147.726
 20
89.3066
 30
0.0
 10
-146.6213
 20
89.3066
 30
0.0
 10
-145.726
 20
90.2019
 30
0.0
 10
-145.726
 20
91.3066
 30
0.0
  0
SPLINE
  5
7F
330
1F
100
AcDbEntity
  8
0
 62
   250
100
AcDbSpline
210
0.0
220
0.0
230
1.0
 70
    11
 71
     3
 72
    17
 73
    13
 74
     0
 42
0.0000000001
 43
0.0000000001
 40
0.0
 40
0.0
 40
0.0
 40
0.0
 40
0.25
 40
0.25
 40
0.25
 40
0.5
 40
0.5
 40
0.5
 40
0.75
 40
0.75
 40
0.75
 40
1.0
 40
1.0
 40
1.0
 40
1.0
 10
-169.586
 20
91.3066
 30
0.0
 10
-169.586
 20
92.4112
 30
0.0
 10
-170.4814
 20
93.3066
 30
0.0
 10
-171.586
 20
93.3066
 30
0.0
 10
-172.6906
 20
93.3066
 30
0.0
 10
-173.586
 20
92.4112
 30
0.0
 10
-173.586
 20
91.3066
 30
0.0
 10
-173.586
 20
90.202
 30
0.0
 10
-172.6906
 20
89.3066
 30
0.0
 10
-171.586
 20
89.3066
 30
0.0
 10
-170.4813
 20
89.3066
 30
0.0
 10
-169.586
 20
90.2019
 30
0.0
 10
-169.586
 20
91.3066
 30
0.0
  0
SPLINE
  5
80
330
1F
100
AcDbEntity
  8
0
 62
   250
100
AcDbSpline
210
0.0
220
0.0
230
1.0
 70
    11
 71
     3
 72
    32
 73
    28
 74
     0
 42
0.0000000001
 43
0.0000000001
 40
0.0
 40
0.0
 40
0.0
 40
0.0
 40
0.1111111111111111
 40
0.1111111111111111
 40
0.1111111111111111
 40
0.2222222222222222
 40
0.2222222222222222
 40
0.2222222222222222
 40
0.3333333333333333
 40
0.3333333333333333
 40
0.3333333333333333
 40
0.4444444444444444
 40
0.4444444444444444
 40
0.4444444444444444
 40
0.5555555555555556
 40
0.5555555555555556
 40
0.5555555555555556
 40
0.6666666666666666
 40
0.6666666666666666
 40
0.6666666666666666
 40
0.7777777777777777
 40
0.7777777777777777
 40
0.7777777777777777
 40
0.8888888888888888
 40
0.8888888888888888
 40
0.8888888888888888
 40
1.0
 40
1.0
 40
1.0
 40
1.0
 10
-159.956
 20
154.5566
 30
0.0
 10
-159.956
 20
154.5566
 30
0.0
 10
-159.956
 20
153.5071
 30
0.0
 10
-159.956
 20
153.5071
 30
0.0
 10
-159.956
 20
153.5071
 30
0.0
 10
-160.056
 20
153.4494
 30
0.0
 10
-160.056
 20
153.4494
 30
0.0
 10
-160.3696
 20
153.2684
 30
0.0
 10
-160.5224
 20
152.8993
 30
0.0
 10
-160.4287
 20
152.5496
 30
0.0
 10
-160.335
 20
152.1998
 30
0.0
 10
-160.0181
 20
151.9566
 30
0.0
 10
-159.656
 20
151.9566
 30
0.0
 10
-159.2939
 20
151.9566
 30
0.0
 10
-158.977
 20
152.1998
 30
0.0
 10
-158.8833
 20
152.5496
 30
0.0
 10
-158.7896
 20
152.8993
 30
0.0
 10
-158.9424
 20
153.2684
 30
0.0
 10
-159.256
 20
153.4494
 30
0.0
 10
-159.256
 20
153.4494
 30
0.0
 10
-159.356
 20
153.5071
 30
0.0
 10
-159.356
 20
153.5071
 30
0.0
 10
-159.356
 20
153.5071
 30
0.0
 10
-159.356
 20
154.5566
 30
0.0
 10
-159.356
 20
154.5566
 30
0.0
 10
-159.356
 20
154.5566
 30
0.0
 10
-159.956
 20
154.5566
 30
0.0
 10
-159.956
 20
154.5566
 30
0.0
  0
SPLINE
  5
81
330
1F
100
AcDbEntity
  8
0
 62
   250
100
AcDbSpline
210
0.0
220
0.0
230
1.0
 70
    11
 71
     3
 72
    32
 73
    28
 74
     0
 42
0.0000000001
 43
0.0000000001
 40
0.0
 40
0.0
 40
0.0
 40
0.0
 40
0.1111111111111111
 40
0.1111111111111111
 40
0.1111111111111111
 40
0.2222222222222222
 40
0.2222222222222222
 40
0.2222222222222222
 40
0.3333333333333333
 40
0.3333333333333333
 40
0.3333333333333333
 40
0.4444444444444444
 40
0.4444444444444444
 40
0.4444444444444444
 40
0.5555555555555556
 40
0.5555555555555556
 40
0.5555555555555556
 40
0.6666666666666666
 40
0.6666666666666666
 40
0.6666666666666666
 40
0.7777777777777777
 40
0.7777777777777777
 40
0.7777777777777777
 40
0.8888888888888888
 40
0.8888888888888888
 40
0.8888888888888888
 40
1.0
 40
1.0
 40
1.0
 40
1.0
 10
-159.956
 20
122.7066
 30
0.0
 10
-159.956
 20
122.7066
 30
0.0
 10
-159.356
 20
122.7066
 30
0.0
 10
-159.356
 20
122.7066
 30
0.0
 10
-159.356
 20
122.7066
 30
0.0
 10
-159.356
 20
123.7561
 30
0.0
 10
-159.356
 20
123.7561
 30
0.0
 10
-159.356
 20
123.7561
 30
0.0
 10
-159.256
 20
123.8138
 30
0.0
 10
-159.256
 20
123.8138
 30
0.0
 10
-158.9424
 20
123.9949
 30
0.0
 10
-158.7896
 20
124.3638
 30
0.0
 10
-158.8833
 20
124.7136
 30
0.0
 10
-158.977
 20
125.0634
 30
0.0
 10
-159.2939
 20
125.3066
 30
0.0
 10
-159.656
 20
125.3066
 30
0.0
 10
-160.0181
 20
125.3066
 30
0.0
 10
-160.335
 20
125.0634
 30
0.0
 10
-160.4287
 20
124.7136
 30
0.0
 10
-160.5224
 20
124.3638
 30
0.0
 10
-160.3696
 20
123.9949
 30
0.0
 10
-160.056
 20
123.8138
 30
0.0
 10
-160.056
 20
123.8138
 30
0.0
 10
-159.956
 20
123.7561
 30
0.0
 10
-159.956
 20
123.7561
 30
0.0
 10
-159.956
 20
123.7561
 30
0.0
 10
-159.956
 20
122.7066
 30
0.0
 10
-159.956
 20
122.7066
 30
0.0
  0
SPLINE
  5
82
330
1F
100
AcDbEntity
  8
0
 62
   250
100
AcDbSpline
210
0.0
220
0.0
230
1.0
 70
    11
 71
     3
 72
    17
 73
    13
 74
     0
 42
0.0000000001
 43
0.0000000001
 40
0.0
 40
0.0
 40
0.0
 40
0.0
 40
0.25
 40
0.25
 40
0.25
 40
0.5
 40
0.5
 40
0.5
 40
0.75
 40
0.75
 40
0.75
 40
1.0
 40
1.0
 40
1.0
 40
1.0
 10
-140.676
 20
140.7042
 30
0.0
 10
-140.676
 20
140.7042
 30
0.0
 10
-141.846
 20
140.7042
 30
0.0
 10
-141.846
 20
140.7042
 30
0.0
 10
-141.846
 20
140.7042
 30
0.0
 10
-141.846
 20
114.1042
 30
0.0
 10
-141.846
 20
114.1042
 30
0.0
 10
-141.846
 20
114.1042
 30
0.0
 10
-140.676
 20
114.1042
 30
0.0
 10
-140.676
 20
114.1042
 30
0.0
 10
-140.676
 20
114.1042
 30
0.0
 10
-140.676
 20
140.7042
 30
0.0
 10
-140.676
 20
140.7042
 30
0.0
  0
SPLINE
  5
83
330
1F
100
AcDbEntity
  8
0
 62
   250
100
AcDbSpline
210
0.0
220
0.0
230
1.0
 70
    11
 71
     3
 72
    23
 73
    19
 74
     0
 42
0.0000000001
 43
0.0000000001
 40
0.0
 40
0.0
 40
0.0
 40
0.0
 40
0.1666666666666667
 40
0.1666666666666667
 40
0.1666666666666667
 40
0.3333333333333333
 40
0.3333333333333333
 40
0.3333333333333333
 40
0.5
 40
0.5
 40
0.5
 40
0.6666666666666666
 40
0.6666666666666666
 40
0.6666666666666666
 40
0.8333333333333333
 40
0.8333333333333333
 40
0.8333333333333333
 40
1.0
 40
1.0
 40
1.0
 40
1.0
 10
-156.4002
 20
120.5266
 30
0.0
 10
-156.4002
 20
120.5266
 30
0.0
 10
-162.9117
 20
120.5266
 30
0.0
 10
-162.9117
 20
120.5266
 30
0.0
 10
-164.5019
 20
119.4481
 30
0.0
 10
-165.456
 20
117.6506
 30
0.0
 10
-165.456
 20
115.7266
 30
0.0
 10
-165.456
 20
113.8026
 30
0.0
 10
-164.502
 20
112.0051
 30
0.0
 10
-162.9117
 20
110.9266
 30
0.0
 10
-162.9117
 20
110.9266
 30
0.0
 10
-156.4003
 20
110.9266
 30
0.0
 10
-156.4003
 20
110.9266
 30
0.0
 10
-154.81
 20
112.0051
 30
0.0
 10
-153.856
 20
113.8026
 30
0.0
 10
-153.856
 20
115.7266
 30
0.0
 10
-153.856
 20
117.6506
 30
0.0
 10
-154.8101
 20
119.448
 30
0.0
 10
-156.4002
 20
120.5266
 30
0.0
  0
SPLINE
  5
84
330
1F
100
AcDbEntity
  8
0
 62
   250
100
AcDbSpline
210
0.0
220
0.0
230
1.0
 70
    11
 71
     3
 72
    17
 73
    13
 74
     0
 42
0.0000000001
 43
0.0000000001
 40
0.0
 40
0.0
 40
0.0
 40
0.0
 40
0.25
 40
0.25
 40
0.25
 40
0.5
 40
0.5
 40
0.5
 40
0.75
 40
0.75
 40
0.75
 40
1.0
 40
1.0
 40
1.0
 40
1.0
 10
-169.856
 20
23.9266
 30
0.0
 10
-169.856
 20
23.9266
 30
0.0
 10
-169.856
 20
26.5266
 30
0.0
 10
-169.856
 20
26.5266
 30
0.0
 10
-169.856
 20
26.5266
 30
0.0
 10
-175.456
 20
26.5266
 30
0.0
 10
-175.456
 20
26.5266
 30
0.0
 10
-175.456
 20
26.5266
 30
0.0
 10
-175.456
 20
23.9266
 30
0.0
 10
-175.456
 20
23.9266
 30
0.0
 10
-175.456
 20
23.9266
 30
0.0
 10
-169.856
 20
23.9266
 30
0.0
 10
-169.856
 20
23.9266
 30
0.0
  0
SPLINE
  5
85
330
1F
100
AcDbEntity
  8
0
 62
   250
100
AcDbSpline
210
0.0
220
0.0
230
1.0
 70
    11
 71
     3
 72
    74
 73
    70
 74
     0
 42
0.0000000001
 43
0.0000000001
 40
0.0
 40
0.0
 40
0.0
 40
0.0
 40
0.0434782608695652
 40
0.0434782608695652
 40
0.0434782608695652
 40
0.0869565217391304
 40
0.0869565217391304
 40
0.0869565217391304
 40
0.1304347826086956
 40
0.1304347826086956
 40
0.1304347826086956
 40
0.1739130434782609
 40
0.1739130434782609
 40
0.1739130434782609
 40
0.2173913043478261
 40
0.2173913043478261
 40
0.2173913043478261
 40
0.2608695652173913
 40
0.2608695652173913
 40
0.2608695652173913
 40
0.3043478260869565
 40
0.3043478260869565
 40
0.3043478260869565
 40
0.3478260869565217
 40
0.3478260869565217
 40
0.3478260869565217
 40
0.3913043478260869
 40
0.3913043478260869
 40
0.3913043478260869
 40
0.4347826086956522
 40
0.4347826086956522
 40
0.4347826086956522
 40
0.4782608695652174
 40
0.4782608695652174
 40
0.4782608695652174
 40
0.5217391304347826
 40
0.5217391304347826
 40
0.5217391304347826
 40
0.5652173913043478
 40
0.5652173913043478
 40
0.5652173913043478
 40
0.6086956521739131
 40
0.6086956521739131
 40
0.6086956521739131
 40
0.6521739130434783
 40
0.6521739130434783
 40
0.6521739130434783
 40
0.6956521739130435
 40
0.6956521739130435
 40
0.6956521739130435
 40
0.7391304347826086
 40
0.7391304347826086
 40
0.7391304347826086
 40
0.7826086956521738
 40
0.7826086956521738
 40
0.7826086956521738
 40
0.8260869565217391
 40
0.8260869565217391
 40
0.8260869565217391
 40
0.8695652173913043
 40
0.8695652173913043
 40
0.8695652173913043
 40
0.9130434782608695
 40
0.9130434782608695
 40
0.9130434782608695
 40
0.9565217391304348
 40
0.9565217391304348
 40
0.9565217391304348
 40
1.0
 40
1.0
 40
1.0
 40
1.0
 10
-153.356
 20
122.9266
 30
0.0
 10
-153.356
 20
122.9266
 30
0.0
 10
-150.756
 20
122.9266
 30
0.0
 10
-150.756
 20
122.9266
 30
0.0
 10
-150.756
 20
122.9266
 30
0.0
 10
-150.756
 20
128.5266
 30
0.0
 10
-150.756
 20
128.5266
 30
0.0
 10
-150.756
 20
128.5266
 30
0.0
 10
-153.756
 20
128.5266
 30
0.0
 10
-153.756
 20
128.5266
 30
0.0
 10
-153.756
 20
128.5266
 30
0.0
 10
-153.756
 20
149.4816
 30
0.0
 10
-153.756
 20
149.4816
 30
0.0
 10
-153.756
 20
149.5611
 30
0.0
 10
-153.7876
 20
149.6375
 30
0.0
 10
-153.8438
 20
149.6937
 30
0.0
 10
-153.9001
 20
149.7499
 30
0.0
 10
-153.9764
 20
149.7816
 30
0.0
 10
-154.056
 20
149.7816
 30
0.0
 10
-154.056
 20
149.7816
 30
0.0
 10
-165.256
 20
149.7816
 30
0.0
 10
-165.256
 20
149.7816
 30
0.0
 10
-165.3356
 20
149.7816
 30
0.0
 10
-165.4118
 20
149.7499
 30
0.0
 10
-165.4681
 20
149.6937
 30
0.0
 10
-165.5243
 20
149.6374
 30
0.0
 10
-165.556
 20
149.5612
 30
0.0
 10
-165.556
 20
149.4816
 30
0.0
 10
-165.556
 20
149.4816
 30
0.0
 10
-165.556
 20
128.5266
 30
0.0
 10
-165.556
 20
128.5266
 30
0.0
 10
-165.556
 20
128.5266
 30
0.0
 10
-168.556
 20
128.5266
 30
0.0
 10
-168.556
 20
128.5266
 30
0.0
 10
-168.556
 20
128.5266
 30
0.0
 10
-168.556
 20
122.9266
 30
0.0
 10
-168.556
 20
122.9266
 30
0.0
 10
-168.556
 20
122.9266
 30
0.0
 10
-165.956
 20
122.9266
 30
0.0
 10
-165.956
 20
122.9266
 30
0.0
 10
-165.956
 20
122.9266
 30
0.0
 10
-165.956
 20
127.9816
 30
0.0
 10
-165.956
 20
127.9816
 30
0.0
 10
-165.956
 20
127.9816
 30
0.0
 10
-165.556
 20
127.9816
 30
0.0
 10
-165.556
 20
127.9816
 30
0.0
 10
-165.556
 20
127.9816
 30
0.0
 10
-165.556
 20
127.7816
 30
0.0
 10
-165.556
 20
127.7816
 30
0.0
 10
-165.556
 20
127.702
 30
0.0
 10
-165.5243
 20
127.6257
 30
0.0
 10
-165.4681
 20
127.5694
 30
0.0
 10
-165.4119
 20
127.5132
 30
0.0
 10
-165.3355
 20
127.4816
 30
0.0
 10
-165.256
 20
127.4816
 30
0.0
 10
-165.256
 20
127.4816
 30
0.0
 10
-154.056
 20
127.4816
 30
0.0
 10
-154.056
 20
127.4816
 30
0.0
 10
-153.8902
 20
127.4816
 30
0.0
 10
-153.756
 20
127.6158
 30
0.0
 10
-153.756
 20
127.7816
 30
0.0
 10
-153.756
 20
127.7816
 30
0.0
 10
-153.756
 20
127.9816
 30
0.0
 10
-153.756
 20
127.9816
 30
0.0
 10
-153.756
 20
127.9816
 30
0.0
 10
-153.356
 20
127.9816
 30
0.0
 10
-153.356
 20
127.9816
 30
0.0
 10
-153.356
 20
127.9816
 30
0.0
 10
-153.356
 20
122.9266
 30
0.0
 10
-153.356
 20
122.9266
 30
0.0
  0
SPLINE
  5
86
330
1F
100
AcDbEntity
  8
0
 62
   250
100
AcDbSpline
210
0.0
220
0.0
230
1.0
 70
    11
 71
     3
 72
    17
 73
    13
 74
     0
 42
0.0000000001
 43
0.0000000001
 40
0.0
 40
0.0
 40
0.0
 40
0.0
 40
0.25
 40
0.25
 40
0.25
 40
0.5
 40
0.5
 40
0.5
 40
0.75
 40
0.75
 40
0.75
 40
1.0
 40
1.0
 40
1.0
 40
1.0
 10
-136.856
 20
74.5266
 30
0.0
 10
-136.856
 20
74.5266
 30
0.0
 10
-139.456
 20
74.5266
 30
0.0
 10
-139.456
 20
74.5266
 30
0.0
 10
-139.456
 20
74.5266
 30
0.0
 10
-139.456
 20
68.9266
 30
0.0
 10
-139.456
 20
68.9266
 30
0.0
 10
-139.456
 20
68.9266
 30
0.0
 10
-136.856
 20
68.9266
 30
0.0
 10
-136.856
 20
68.9266
 30
0.0
 10
-136.856
 20
68.9266
 30
0.0
 10
-136.856
 20
74.5266
 30
0.0
 10
-136.856
 20
74.5266
 30
0.0
  0
SPLINE
  5
87
330
1F
100
AcDbEntity
  8
0
 62
   250
100
AcDbSpline
210
0.0
220
0.0
230
1.0
 70
    11
 71
     3
 72
    17
 73
    13
 74
     0
 42
0.0000000001
 43
0.0000000001
 40
0.0
 40
0.0
 40
0.0
 40
0.0
 40
0.25
 40
0.25
 40
0.25
 40
0.5
 40
0.5
 40
0.5
 40
0.75
 40
0.75
 40
0.75
 40
1.0
 40
1.0
 40
1.0
 40
1.0
 10
-188.166
 20
23.4366
 30
0.0
 10
-188.166
 20
23.4366
 30
0.0
 10
-188.166
 20
24.0566
 30
0.0
 10
-188.166
 20
24.0566
 30
0.0
 10
-188.166
 20
24.0566
 30
0.0
 10
-196.656
 20
24.0566
 30
0.0
 10
-196.656
 20
24.0566
 30
0.0
 10
-196.656
 20
24.0566
 30
0.0
 10
-196.656
 20
23.4366
 30
0.0
 10
-196.656
 20
23.4366
 30
0.0
 10
-196.656
 20
23.4366
 30
0.0
 10
-188.166
 20
23.4366
 30
0.0
 10
-188.166
 20
23.4366
 30
0.0
  0
SPLINE
  5
88
330
1F
100
AcDbEntity
  8
0
 62
   250
100
AcDbSpline
210
0.0
220
0.0
230
1.0
 70
    11
 71
     3
 72
    17
 73
    13
 74
     0
 42
0.0000000001
 43
0.0000000001
 40
0.0
 40
0.0
 40
0.0
 40
0.0
 40
0.25
 40
0.25
 40
0.25
 40
0.5
 40
0.5
 40
0.5
 40
0.75
 40
0.75
 40
0.75
 40
1.0
 40
1.0
 40
1.0
 40
1.0
 10
-149.456
 20
74.5266
 30
0.0
 10
-149.456
 20
74.5266
 30
0.0
 10
-149.456
 20
71.9266
 30
0.0
 10
-149.456
 20
71.9266
 30
0.0
 10
-149.456
 20
71.9266
 30
0.0
 10
-143.856
 20
71.9266
 30
0.0
 10
-143.856
 20
71.9266
 30
0.0
 10
-143.856
 20
71.9266
 30
0.0
 10
-143.856
 20
74.5266
 30
0.0
 10
-143.856
 20
74.5266
 30
0.0
 10
-143.856
 20
74.5266
 30
0.0
 10
-149.456
 20
74.5266
 30
0.0
 10
-149.456
 20
74.5266
 30
0.0
  0
SPLINE
  5
89
330
1F
100
AcDbEntity
  8
0
 62
   250
100
AcDbSpline
210
0.0
220
0.0
230
1.0
 70
    11
 71
     3
 72
    44
 73
    40
 74
     0
 42
0.0000000001
 43
0.0000000001
 40
0.0
 40
0.0
 40
0.0
 40
0.0
 40
0.0769230769230769
 40
0.0769230769230769
 40
0.0769230769230769
 40
0.1538461538461539
 40
0.1538461538461539
 40
0.1538461538461539
 40
0.2307692307692308
 40
0.2307692307692308
 40
0.2307692307692308
 40
0.3076923076923077
 40
0.3076923076923077
 40
0.3076923076923077
 40
0.3846153846153846
 40
0.3846153846153846
 40
0.3846153846153846
 40
0.4615384615384616
 40
0.4615384615384616
 40
0.4615384615384616
 40
0.5384615384615385
 40
0.5384615384615385
 40
0.5384615384615385
 40
0.6153846153846154
 40
0.6153846153846154
 40
0.6153846153846154
 40
0.6923076923076923
 40
0.6923076923076923
 40
0.6923076923076923
 40
0.7692307692307693
 40
0.7692307692307693
 40
0.7692307692307693
 40
0.8461538461538463
 40
0.8461538461538463
 40
0.8461538461538463
 40
0.9230769230769231
 40
0.9230769230769231
 40
0.9230769230769231
 40
1.0
 40
1.0
 40
1.0
 40
1.0
 10
-123.656
 20
21.0266
 30
0.0
 10
-123.656
 20
21.0266
 30
0.0
 10
-195.656
 20
21.0266
 30
0.0
 10
-195.656
 20
21.0266
 30
0.0
 10
-196.7698
 20
21.0266
 30
0.0
 10
-197.8382
 20
21.4691
 30
0.0
 10
-198.6258
 20
22.2567
 30
0.0
 10
-199.4135
 20
23.0443
 30
0.0
 10
-199.856
 20
24.1127
 30
0.0
 10
-199.856
 20
25.2266
 30
0.0
 10
-199.856
 20
25.2266
 30
0.0
 10
-199.856
 20
144.5359
 30
0.0
 10
-199.856
 20
144.5359
 30
0.0
 10
-199.856
 20
145.3777
 30
0.0
 10
-199.6028
 20
146.2006
 30
0.0
 10
-199.1296
 20
146.8968
 30
0.0
 10
-199.1296
 20
146.8968
 30
0.0
 10
-175.5518
 20
181.5874
 30
0.0
 10
-175.5518
 20
181.5874
 30
0.0
 10
-174.7699
 20
182.7378
 30
0.0
 10
-173.4692
 20
183.4266
 30
0.0
 10
-172.0782
 20
183.4266
 30
0.0
 10
-172.0782
 20
183.4266
 30
0.0
 10
-147.2338
 20
183.4266
 30
0.0
 10
-147.2338
 20
183.4266
 30
0.0
 10
-145.8428
 20
183.4266
 30
0.0
 10
-144.542
 20
182.7379
 30
0.0
 10
-143.7601
 20
181.5874
 30
0.0
 10
-143.7601
 20
181.5874
 30
0.0
 10
-120.1824
 20
146.8968
 30
0.0
 10
-120.1824
 20
146.8968
 30
0.0
 10
-119.7092
 20
146.2006
 30
0.0
 10
-119.456
 20
145.3777
 30
0.0
 10
-119.456
 20
144.5359
 30
0.0
 10
-119.456
 20
144.5359
 30
0.0
 10
-119.456
 20
25.2266
 30
0.0
 10
-119.456
 20
25.2266
 30
0.0
 10
-119.456
 20
22.9071
 30
0.0
 10
-121.3365
 20
21.0266
 30
0.0
 10
-123.656
 20
21.0266
 30
0.0
  0
SPLINE
  5
8A
330
1F
100
AcDbEntity
  8
0
 62
   250
100
AcDbSpline
210
0.0
220
0.0
230
1.0
 70
    11
 71
     3
 72
    41
 73
    37
 74
     0
 42
0.0000000001
 43
0.0000000001
 40
0.0
 40
0.0
 40
0.0
 40
0.0
 40
0.0833333333333333
 40
0.0833333333333333
 40
0.0833333333333333
 40
0.1666666666666667
 40
0.1666666666666667
 40
0.1666666666666667
 40
0.25
 40
0.25
 40
0.25
 40
0.3333333333333333
 40
0.3333333333333333
 40
0.3333333333333333
 40
0.4166666666666666
 40
0.4166666666666666
 40
0.4166666666666666
 40
0.5
 40
0.5
 40
0.5
 40
0.5833333333333333
 40
0.5833333333333333
 40
0.5833333333333333
 40
0.6666666666666666
 40
0.6666666666666666
 40
0.6666666666666666
 40
0.75
 40
0.75
 40
0.75
 40
0.8333333333333333
 40
0.8333333333333333
 40
0.8333333333333333
 40
0.9166666666666666
 40
0.9166666666666666
 40
0.9166666666666666
 40
1.0
 40
1.0
 40
1.0
 40
1.0
 10
-129.997
 20
104.6208
 30
0.0
 10
-129.997
 20
104.6208
 30
0.0
 10
-129.997
 20
107.6208
 30
0.0
 10
-129.997
 20
107.6208
 30
0.0
 10
-129.997
 20
107.6208
 30
0.0
 10
-123.597
 20
107.6208
 30
0.0
 10
-123.597
 20
107.6208
 30
0.0
 10
-123.597
 20
107.6208
 30
0.0
 10
-123.597
 20
104.6208
 30
0.0
 10
-123.597
 20
104.6208
 30
0.0
 10
-123.597
 20
104.6208
 30
0.0
 10
-121.597
 20
104.6208
 30
0.0
 10
-121.597
 20
104.6208
 30
0.0
 10
-121.597
 20
104.6208
 30
0.0
 10
-121.597
 20
74.7708
 30
0.0
 10
-121.597
 20
74.7708
 30
0.0
 10
-121.597
 20
74.7708
 30
0.0
 10
-123.597
 20
74.7708
 30
0.0
 10
-123.597
 20
74.7708
 30
0.0
 10
-123.597
 20
74.7708
 30
0.0
 10
-123.597
 20
71.7708
 30
0.0
 10
-123.597
 20
71.7708
 30
0.0
 10
-123.597
 20
71.7708
 30
0.0
 10
-129.997
 20
71.7708
 30
0.0
 10
-129.997
 20
71.7708
 30
0.0
 10
-129.997
 20
71.7708
 30
0.0
 10
-129.997
 20
74.7708
 30
0.0
 10
-129.997
 20
74.7708
 30
0.0
 10
-129.997
 20
74.7708
 30
0.0
 10
-131.997
 20
74.7708
 30
0.0
 10
-131.997
 20
74.7708
 30
0.0
 10
-131.997
 20
74.7708
 30
0.0
 10
-131.997
 20
104.6208
 30
0.0
 10
-131.997
 20
104.6208
 30
0.0
 10
-131.997
 20
104.6208
 30
0.0
 10
-129.997
 20
104.6208
 30
0.0
 10
-129.997
 20
104.6208
 30
0.0
  0
SPLINE
  5
8B
330
1F
100
AcDbEntity
  8
0
 62
   250
100
AcDbSpline
210
0.0
220
0.0
230
1.0
 70
    11
 71
     3
 72
    41
 73
    37
 74
     0
 42
0.0000000001
 43
0.0000000001
 40
0.0
 40
0.0
 40
0.0
 40
0.0
 40
0.0833333333333333
 40
0.0833333333333333
 40
0.0833333333333333
 40
0.1666666666666667
 40
0.1666666666666667
 40
0.1666666666666667
 40
0.25
 40
0.25
 40
0.25
 40
0.3333333333333333
 40
0.3333333333333333
 40
0.3333333333333333
 40
0.4166666666666666
 40
0.4166666666666666
 40
0.4166666666666666
 40
0.5
 40
0.5
 40
0.5
 40
0.5833333333333333
 40
0.5833333333333333
 40
0.5833333333333333
 40
0.6666666666666666
 40
0.6666666666666666
 40
0.6666666666666666
 40
0.75
 40
0.75
 40
0.75
 40
0.8333333333333333
 40
0.8333333333333333
 40
0.8333333333333333
 40
0.9166666666666666
 40
0.9166666666666666
 40
0.9166666666666666
 40
1.0
 40
1.0
 40
1.0
 40
1.0
 10
-250.6593
 20
68.9352
 30
0.0
 10
-250.6593
 20
68.9352
 30
0.0
 10
-250.6593
 20
71.9352
 30
0.0
 10
-250.6593
 20
71.9352
 30
0.0
 10
-250.6593
 20
71.9352
 30
0.0
 10
-244.2593
 20
71.9352
 30
0.0
 10
-244.2593
 20
71.9352
 30
0.0
 10
-244.2593
 20
71.9352
 30
0.0
 10
-244.2593
 20
68.9352
 30
0.0
 10
-244.2593
 20
68.9352
 30
0.0
 10
-244.2593
 20
68.9352
 30
0.0
 10
-242.2593
 20
68.9352
 30
0.0
 10
-242.2593
 20
68.9352
 30
0.0
 10
-242.2593
 20
68.9352
 30
0.0
 10
-242.2593
 20
39.0852
 30
0.0
 10
-242.2593
 20
39.0852
 30
0.0
 10
-242.2593
 20
39.0852
 30
0.0
 10
-244.2593
 20
39.0852
 30
0.0
 10
-244.2593
 20
39.0852
 30
0.0
 10
-244.2593
 20
39.0852
 30
0.0
 10
-244.2593
 20
36.0852
 30
0.0
 10
-244.2593
 20
36.0852
 30
0.0
 10
-244.2593
 20
36.0852
 30
0.0
 10
-250.6593
 20
36.0852
 30
0.0
 10
-250.6593
 20
36.0852
 30
0.0
 10
-250.6593
 20
36.0852
 30
0.0
 10
-250.6593
 20
39.0852
 30
0.0
 10
-250.6593
 20
39.0852
 30
0.0
 10
-250.6593
 20
39.0852
 30
0.0
 10
-252.6593
 20
39.0852
 30
0.0
 10
-252.6593
 20
39.0852
 30
0.0
 10
-252.6593
 20
39.0852
 30
0.0
 10
-252.6593
 20
68.9352
 30
0.0
 10
-252.6593
 20
68.9352
 30
0.0
 10
-252.6593
 20
68.9352
 30
0.0
 10
-250.6593
 20
68.9352
 30
0.0
 10
-250.6593
 20
68.9352
 30
0.0
  0
SPLINE
  5
8C
330
1F
100
AcDbEntity
  8
0
 62
   250
100
AcDbSpline
210
0.0
220
0.0
230
1.0
 70
    11
 71
     3
 72
    17
 73
    13
 74
     0
 42
0.0000000001
 43
0.0000000001
 40
0.0
 40
0.0
 40
0.0
 40
0.0
 40
0.25
 40
0.25
 40
0.25
 40
0.5
 40
0.5
 40
0.5
 40
0.75
 40
0.75
 40
0.75
 40
1.0
 40
1.0
 40
1.0
 40
1.0
 10
-223.6994
 20
179.3984
 30
0.0
 10
-223.6994
 20
180.6135
 30
0.0
 10
-224.6843
 20
181.5984
 30
0.0
 10
-225.8994
 20
181.5984
 30
0.0
 10
-227.1145
 20
181.5984
 30
0.0
 10
-228.0994
 20
180.6135
 30
0.0
 10
-228.0994
 20
179.3984
 30
0.0
 10
-228.0994
 20
178.1833
 30
0.0
 10
-227.1145
 20
177.1984
 30
0.0
 10
-225.8994
 20
177.1984
 30
0.0
 10
-224.6843
 20
177.1984
 30
0.0
 10
-223.6994
 20
178.1833
 30
0.0
 10
-223.6994
 20
179.3984
 30
0.0
  0
SPLINE
  5
8D
330
1F
100
AcDbEntity
  8
0
 62
   250
100
AcDbSpline
210
0.0
220
0.0
230
1.0
 70
    11
 71
     3
 72
    17
 73
    13
 74
     0
 42
0.0000000001
 43
0.0000000001
 40
0.0
 40
0.0
 40
0.0
 40
0.0
 40
0.25
 40
0.25
 40
0.25
 40
0.5
 40
0.5
 40
0.5
 40
0.75
 40
0.75
 40
0.75
 40
1.0
 40
1.0
 40
1.0
 40
1.0
 10
-257.1994
 20
61.9334
 30
0.0
 10
-257.1994
 20
63.1485
 30
0.0
 10
-258.1843
 20
64.1334
 30
0.0
 10
-259.3994
 20
64.1334
 30
0.0
 10
-260.6145
 20
64.1334
 30
0.0
 10
-261.5994
 20
63.1485
 30
0.0
 10
-261.5994
 20
61.9334
 30
0.0
 10
-261.5994
 20
60.7183
 30
0.0
 10
-260.6145
 20
59.7334
 30
0.0
 10
-259.3994
 20
59.7334
 30
0.0
 10
-258.1843
 20
59.7334
 30
0.0
 10
-257.1994
 20
60.7183
 30
0.0
 10
-257.1994
 20
61.9334
 30
0.0
  0
SPLINE
  5
8E
330
1F
100
AcDbEntity
  8
0
 62
   250
100
AcDbSpline
210
0.0
220
0.0
230
1.0
 70
    11
 71
     3
 72
    17
 73
    13
 74
     0
 42
0.0000000001
 43
0.0000000001
 40
0.0
 40
0.0
 40
0.0
 40
0.0
 40
0.25
 40
0.25
 40
0.25
 40
0.5
 40
0.5
 40
0.5
 40
0.75
 40
0.75
 40
0.75
 40
1.0
 40
1.0
 40
1.0
 40
1.0
 10
-257.1994
 20
45.9334
 30
0.0
 10
-257.1994
 20
47.1485
 30
0.0
 10
-258.1843
 20
48.1334
 30
0.0
 10
-259.3994
 20
48.1334
 30
0.0
 10
-260.6145
 20
48.1334
 30
0.0
 10
-261.5994
 20
47.1485
 30
0.0
 10
-261.5994
 20
45.9334
 30
0.0
 10
-261.5994
 20
44.7183
 30
0.0
 10
-260.6145
 20
43.7334
 30
0.0
 10
-259.3994
 20
43.7334
 30
0.0
 10
-258.1843
 20
43.7334
 30
0.0
 10
-257.1994
 20
44.7183
 30
0.0
 10
-257.1994
 20
45.9334
 30
0.0
  0
SPLINE
  5
8F
330
1F
100
AcDbEntity
  8
0
 62
   250
100
AcDbSpline
210
0.0
220
0.0
230
1.0
 70
    11
 71
     3
 72
    17
 73
    13
 74
     0
 42
0.0000000001
 43
0.0000000001
 40
0.0
 40
0.0
 40
0.0
 40
0.0
 40
0.25
 40
0.25
 40
0.25
 40
0.5
 40
0.5
 40
0.5
 40
0.75
 40
0.75
 40
0.75
 40
1.0
 40
1.0
 40
1.0
 40
1.0
 10
-225.1994
 20
77.9334
 30
0.0
 10
-225.1994
 20
79.1485
 30
0.0
 10
-226.1843
 20
80.1334
 30
0.0
 10
-227.3994
 20
80.1334
 30
0.0
 10
-228.6145
 20
80.1334
 30
0.0
 10
-229.5994
 20
79.1485
 30
0.0
 10
-229.5994
 20
77.9334
 30
0.0
 10
-229.5994
 20
76.7183
 30
0.0
 10
-228.6145
 20
75.7334
 30
0.0
 10
-227.3994
 20
75.7334
 30
0.0
 10
-226.1843
 20
75.7334
 30
0.0
 10
-225.1994
 20
76.7183
 30
0.0
 10
-225.1994
 20
77.9334
 30
0.0
  0
SPLINE
  5
90
330
1F
100
AcDbEntity
  8
0
 62
   250
100
AcDbSpline
210
0.0
220
0.0
230
1.0
 70
    11
 71
     3
 72
    17
 73
    13
 74
     0
 42
0.0000000001
 43
0.0000000001
 40
0.0
 40
0.0
 40
0.0
 40
0.0
 40
0.25
 40
0.25
 40
0.25
 40
0.5
 40
0.5
 40
0.5
 40
0.75
 40
0.75
 40
0.75
 40
1.0
 40
1.0
 40
1.0
 40
1.0
 10
-257.1994
 20
77.9334
 30
0.0
 10
-257.1994
 20
79.1485
 30
0.0
 10
-258.1843
 20
80.1334
 30
0.0
 10
-259.3994
 20
80.1334
 30
0.0
 10
-260.6145
 20
80.1334
 30
0.0
 10
-261.5994
 20
79.1485
 30
0.0
 10
-261.5994
 20
77.9334
 30
0.0
 10
-261.5994
 20
76.7183
 30
0.0
 10
-260.6145
 20
75.7334
 30
0.0
 10
-259.3994
 20
75.7334
 30
0.0
 10
-258.1843
 20
75.7334
 30
0.0
 10
-257.1994
 20
76.7183
 30
0.0
 10
-257.1994
 20
77.9334
 30
0.0
  0
SPLINE
  5
91
330
1F
100
AcDbEntity
  8
0
 62
   250
100
AcDbSpline
210
0.0
220
0.0
230
1.0
 70
    11
 71
     3
 72
    17
 73
    13
 74
     0
 42
0.0000000001
 43
0.0000000001
 40
0.0
 40
0.0
 40
0.0
 40
0.0
 40
0.25
 40
0.25
 40
0.25
 40
0.5
 40
0.5
 40
0.5
 40
0.75
 40
0.75
 40
0.75
 40
1.0
 40
1.0
 40
1.0
 40
1.0
 10
-257.1994
 20
29.9334
 30
0.0
 10
-257.1994
 20
31.1485
 30
0.0
 10
-258.1843
 20
32.1334
 30
0.0
 10
-259.3994
 20
32.1334
 30
0.0
 10
-260.6145
 20
32.1334
 30
0.0
 10
-261.5994
 20
31.1485
 30
0.0
 10
-261.5994
 20
29.9334
 30
0.0
 10
-261.5994
 20
28.7183
 30
0.0
 10
-260.6145
 20
27.7334
 30
0.0
 10
-259.3994
 20
27.7334
 30
0.0
 10
-258.1843
 20
27.7334
 30
0.0
 10
-257.1994
 20
28.7183
 30
0.0
 10
-257.1994
 20
29.9334
 30
0.0
  0
SPLINE
  5
92
330
1F
100
AcDbEntity
  8
0
 62
   250
100
AcDbSpline
210
0.0
220
0.0
230
1.0
 70
    11
 71
     3
 72
    17
 73
    13
 74
     0
 42
0.0000000001
 43
0.0000000001
 40
0.0
 40
0.0
 40
0.0
 40
0.0
 40
0.25
 40
0.25
 40
0.25
 40
0.5
 40
0.5
 40
0.5
 40
0.75
 40
0.75
 40
0.75
 40
1.0
 40
1.0
 40
1.0
 40
1.0
 10
-225.1994
 20
29.9334
 30
0.0
 10
-225.1994
 20
31.1485
 30
0.0
 10
-226.1843
 20
32.1334
 30
0.0
 10
-227.3994
 20
32.1334
 30
0.0
 10
-228.6145
 20
32.1334
 30
0.0
 10
-229.5994
 20
31.1485
 30
0.0
 10
-229.5994
 20
29.9334
 30
0.0
 10
-229.5994
 20
28.7183
 30
0.0
 10
-228.6145
 20
27.7334
 30
0.0
 10
-227.3994
 20
27.7334
 30
0.0
 10
-226.1843
 20
27.7334
 30
0.0
 10
-225.1994
 20
28.7183
 30
0.0
 10
-225.1994
 20
29.9334
 30
0.0
  0
SPLINE
  5
93
330
1F
100
AcDbEntity
  8
0
 62
   250
100
AcDbSpline
210
0.0
220
0.0
230
1.0
 70
    11
 71
     3
 72
    17
 73
    13
 74
     0
 42
0.0000000001
 43
0.0000000001
 40
0.0
 40
0.0
 40
0.0
 40
0.0
 40
0.25
 40
0.25
 40
0.25
 40
0.5
 40
0.5
 40
0.5
 40
0.75
 40
0.75
 40
0.75
 40
1.0
 40
1.0
 40
1.0
 40
1.0
 10
-225.1994
 20
61.9334
 30
0.0
 10
-225.1994
 20
63.1485
 30
0.0
 10
-226.1843
 20
64.1334
 30
0.0
 10
-227.3994
 20
64.1334
 30
0.0
 10
-228.6145
 20
64.1334
 30
0.0
 10
-229.5994
 20
63.1485
 30
0.0
 10
-229.5994
 20
61.9334
 30
0.0
 10
-229.5994
 20
60.7183
 30
0.0
 10
-228.6145
 20
59.7334
 30
0.0
 10
-227.3994
 20
59.7334
 30
0.0
 10
-226.1843
 20
59.7334
 30
0.0
 10
-225.1994
 20
60.7183
 30
0.0
 10
-225.1994
 20
61.9334
 30
0.0
  0
SPLINE
  5
94
330
1F
100
AcDbEntity
  8
0
 62
   250
100
AcDbSpline
210
0.0
220
0.0
230
1.0
 70
    11
 71
     3
 72
    17
 73
    13
 74
     0
 42
0.0000000001
 43
0.0000000001
 40
0.0
 40
0.0
 40
0.0
 40
0.0
 40
0.25
 40
0.25
 40
0.25
 40
0.5
 40
0.5
 40
0.5
 40
0.75
 40
0.75
 40
0.75
 40
1.0
 40
1.0
 40
1.0
 40
1.0
 10
-225.1994
 20
49.9334
 30
0.0
 10
-225.1994
 20
51.1485
 30
0.0
 10
-226.1843
 20
52.1334
 30
0.0
 10
-227.3994
 20
52.1334
 30
0.0
 10
-228.6145
 20
52.1334
 30
0.0
 10
-229.5994
 20
51.1485
 30
0.0
 10
-229.5994
 20
49.9334
 30
0.0
 10
-229.5994
 20
48.7183
 30
0.0
 10
-228.6145
 20
47.7334
 30
0.0
 10
-227.3994
 20
47.7334
 30
0.0
 10
-226.1843
 20
47.7334
 30
0.0
 10
-225.1994
 20
48.7183
 30
0.0
 10
-225.1994
 20
49.9334
 30
0.0
  0
SPLINE
  5
95
330
1F
100
AcDbEntity
  8
0
 62
   250
100
AcDbSpline
210
0.0
220
0.0
230
1.0
 70
    11
 71
     3
 72
    38
 73
    34
 74
     0
 42
0.0000000001
 43
0.0000000001
 40
0.0
 40
0.0
 40
0.0
 40
0.0
 40
0.0909090909090909
 40
0.0909090909090909
 40
0.0909090909090909
 40
0.1818181818181818
 40
0.1818181818181818
 40
0.1818181818181818
 40
0.2727272727272727
 40
0.2727272727272727
 40
0.2727272727272727
 40
0.3636363636363636
 40
0.3636363636363636
 40
0.3636363636363636
 40
0.4545454545454546
 40
0.4545454545454546
 40
0.4545454545454546
 40
0.5454545454545454
 40
0.5454545454545454
 40
0.5454545454545454
 40
0.6363636363636364
 40
0.6363636363636364
 40
0.6363636363636364
 40
0.7272727272727273
 40
0.7272727272727273
 40
0.7272727272727273
 40
0.8181818181818182
 40
0.8181818181818182
 40
0.8181818181818182
 40
0.9090909090909092
 40
0.9090909090909092
 40
0.9090909090909092
 40
1.0
 40
1.0
 40
1.0
 40
1.0
 10
-255.1994
 20
70.9334
 30
0.0
 10
-255.1994
 20
70.9334
 30
0.0
 10
-255.1994
 20
36.9334
 30
0.0
 10
-255.1994
 20
36.9334
 30
0.0
 10
-255.1994
 20
36.1908
 30
0.0
 10
-254.9045
 20
35.4786
 30
0.0
 10
-254.3794
 20
34.9535
 30
0.0
 10
-253.8542
 20
34.4284
 30
0.0
 10
-253.1421
 20
34.1334
 30
0.0
 10
-252.3994
 20
34.1334
 30
0.0
 10
-252.3994
 20
34.1334
 30
0.0
 10
-234.3994
 20
34.1334
 30
0.0
 10
-234.3994
 20
34.1334
 30
0.0
 10
-232.8529
 20
34.1334
 30
0.0
 10
-231.5994
 20
35.3869
 30
0.0
 10
-231.5994
 20
36.9334
 30
0.0
 10
-231.5994
 20
36.9334
 30
0.0
 10
-231.5994
 20
70.9334
 30
0.0
 10
-231.5994
 20
70.9334
 30
0.0
 10
-231.5994
 20
71.6759
 30
0.0
 10
-231.8945
 20
72.3882
 30
0.0
 10
-232.4195
 20
72.9133
 30
0.0
 10
-232.9446
 20
73.4383
 30
0.0
 10
-233.6569
 20
73.7334
 30
0.0
 10
-234.3994
 20
73.7334
 30
0.0
 10
-234.3994
 20
73.7334
 30
0.0
 10
-252.3994
 20
73.7334
 30
0.0
 10
-252.3994
 20
73.7334
 30
0.0
 10
-253.142
 20
73.7334
 30
0.0
 10
-253.8542
 20
73.4384
 30
0.0
 10
-254.3794
 20
72.9133
 30
0.0
 10
-254.9045
 20
72.3882
 30
0.0
 10
-255.1994
 20
71.6759
 30
0.0
 10
-255.1994
 20
70.9334
 30
0.0
  0
SPLINE
  5
96
330
1F
100
AcDbEntity
  8
0
 62
   250
100
AcDbSpline
210
0.0
220
0.0
230
1.0
 70
    11
 71
     3
 72
    17
 73
    13
 74
     0
 42
0.0000000001
 43
0.0000000001
 40
0.0
 40
0.0
 40
0.0
 40
0.0
 40
0.25
 40
0.25
 40
0.25
 40
0.5
 40
0.5
 40
0.5
 40
0.75
 40
0.75
 40
0.75
 40
1.0
 40
1.0
 40
1.0
 40
1.0
 10
-258.6994
 20
179.3984
 30
0.0
 10
-258.6994
 20
180.6135
 30
0.0
 10
-259.6843
 20
181.5984
 30
0.0
 10
-260.8994
 20
181.5984
 30
0.0
 10
-262.1145
 20
181.5984
 30
0.0
 10
-263.0994
 20
180.6135
 30
0.0
 10
-263.0994
 20
179.3984
 30
0.0
 10
-263.0994
 20
178.1833
 30
0.0
 10
-262.1145
 20
177.1984
 30
0.0
 10
-260.8994
 20
177.1984
 30
0.0
 10
-259.6843
 20
177.1984
 30
0.0
 10
-258.6994
 20
178.1833
 30
0.0
 10
-258.6994
 20
179.3984
 30
0.0
  0
SPLINE
  5
97
330
1F
100
AcDbEntity
  8
0
 62
   250
100
AcDbSpline
210
0.0
220
0.0
230
1.0
 70
    11
 71
     3
 72
    17
 73
    13
 74
     0
 42
0.0000000001
 43
0.0000000001
 40
0.0
 40
0.0
 40
0.0
 40
0.0
 40
0.25
 40
0.25
 40
0.25
 40
0.5
 40
0.5
 40
0.5
 40
0.75
 40
0.75
 40
0.75
 40
1.0
 40
1.0
 40
1.0
 40
1.0
 10
-220.5994
 20
34.2334
 30
0.0
 10
-220.5994
 20
34.2334
 30
0.0
 10
-223.1994
 20
34.2334
 30
0.0
 10
-223.1994
 20
34.2334
 30
0.0
 10
-223.1994
 20
34.2334
 30
0.0
 10
-223.1994
 20
28.6334
 30
0.0
 10
-223.1994
 20
28.6334
 30
0.0
 10
-223.1994
 20
28.6334
 30
0.0
 10
-220.5994
 20
28.6334
 30
0.0
 10
-220.5994
 20
28.6334
 30
0.0
 10
-220.5994
 20
28.6334
 30
0.0
 10
-220.5994
 20
34.2334
 30
0.0
 10
-220.5994
 20
34.2334
 30
0.0
  0
SPLINE
  5
98
330
1F
100
AcDbEntity
  8
0
 62
   250
100
AcDbSpline
210
0.0
220
0.0
230
1.0
 70
    11
 71
     3
 72
    17
 73
    13
 74
     0
 42
0.0000000001
 43
0.0000000001
 40
0.0
 40
0.0
 40
0.0
 40
0.0
 40
0.25
 40
0.25
 40
0.25
 40
0.5
 40
0.5
 40
0.5
 40
0.75
 40
0.75
 40
0.75
 40
1.0
 40
1.0
 40
1.0
 40
1.0
 10
-220.5994
 20
73.6334
 30
0.0
 10
-220.5994
 20
73.6334
 30
0.0
 10
-220.5994
 20
79.2334
 30
0.0
 10
-220.5994
 20
79.2334
 30
0.0
 10
-220.5994
 20
79.2334
 30
0.0
 10
-223.1994
 20
79.2334
 30
0.0
 10
-223.1994
 20
79.2334
 30
0.0
 10
-223.1994
 20
79.2334
 30
0.0
 10
-223.1994
 20
73.6334
 30
0.0
 10
-223.1994
 20
73.6334
 30
0.0
 10
-223.1994
 20
73.6334
 30
0.0
 10
-220.5994
 20
73.6334
 30
0.0
 10
-220.5994
 20
73.6334
 30
0.0
  0
SPLINE
  5
99
330
1F
100
AcDbEntity
  8
0
 62
   250
100
AcDbSpline
210
0.0
220
0.0
230
1.0
 70
    11
 71
     3
 72
    17
 73
    13
 74
     0
 42
0.0000000001
 43
0.0000000001
 40
0.0
 40
0.0
 40
0.0
 40
0.0
 40
0.25
 40
0.25
 40
0.25
 40
0.5
 40
0.5
 40
0.5
 40
0.75
 40
0.75
 40
0.75
 40
1.0
 40
1.0
 40
1.0
 40
1.0
 10
-266.1994
 20
79.2334
 30
0.0
 10
-266.1994
 20
79.2334
 30
0.0
 10
-266.1994
 20
73.6334
 30
0.0
 10
-266.1994
 20
73.6334
 30
0.0
 10
-266.1994
 20
73.6334
 30
0.0
 10
-263.5994
 20
73.6334
 30
0.0
 10
-263.5994
 20
73.6334
 30
0.0
 10
-263.5994
 20
73.6334
 30
0.0
 10
-263.5994
 20
79.2334
 30
0.0
 10
-263.5994
 20
79.2334
 30
0.0
 10
-263.5994
 20
79.2334
 30
0.0
 10
-266.1994
 20
79.2334
 30
0.0
 10
-266.1994
 20
79.2334
 30
0.0
  0
SPLINE
  5
9A
330
1F
100
AcDbEntity
  8
0
 62
   250
100
AcDbSpline
210
0.0
220
0.0
230
1.0
 70
    11
 71
     3
 72
    17
 73
    13
 74
     0
 42
0.0000000001
 43
0.0000000001
 40
0.0
 40
0.0
 40
0.0
 40
0.0
 40
0.25
 40
0.25
 40
0.25
 40
0.5
 40
0.5
 40
0.5
 40
0.75
 40
0.75
 40
0.75
 40
1.0
 40
1.0
 40
1.0
 40
1.0
 10
-252.2994
 20
133.2334
 30
0.0
 10
-252.2994
 20
133.2334
 30
0.0
 10
-252.2994
 20
127.6334
 30
0.0
 10
-252.2994
 20
127.6334
 30
0.0
 10
-252.2994
 20
127.6334
 30
0.0
 10
-249.6994
 20
127.6334
 30
0.0
 10
-249.6994
 20
127.6334
 30
0.0
 10
-249.6994
 20
127.6334
 30
0.0
 10
-249.6994
 20
133.2334
 30
0.0
 10
-249.6994
 20
133.2334
 30
0.0
 10
-249.6994
 20
133.2334
 30
0.0
 10
-252.2994
 20
133.2334
 30
0.0
 10
-252.2994
 20
133.2334
 30
0.0
  0
SPLINE
  5
9B
330
1F
100
AcDbEntity
  8
0
 62
   250
100
AcDbSpline
210
0.0
220
0.0
230
1.0
 70
    11
 71
     3
 72
    17
 73
    13
 74
     0
 42
0.0000000001
 43
0.0000000001
 40
0.0
 40
0.0
 40
0.0
 40
0.0
 40
0.25
 40
0.25
 40
0.25
 40
0.5
 40
0.5
 40
0.5
 40
0.75
 40
0.75
 40
0.75
 40
1.0
 40
1.0
 40
1.0
 40
1.0
 10
-237.0994
 20
127.6334
 30
0.0
 10
-237.0994
 20
127.6334
 30
0.0
 10
-234.4994
 20
127.6334
 30
0.0
 10
-234.4994
 20
127.6334
 30
0.0
 10
-234.4994
 20
127.6334
 30
0.0
 10
-234.4994
 20
133.2334
 30
0.0
 10
-234.4994
 20
133.2334
 30
0.0
 10
-234.4994
 20
133.2334
 30
0.0
 10
-237.0994
 20
133.2334
 30
0.0
 10
-237.0994
 20
133.2334
 30
0.0
 10
-237.0994
 20
133.2334
 30
0.0
 10
-237.0994
 20
127.6334
 30
0.0
 10
-237.0994
 20
127.6334
 30
0.0
  0
SPLINE
  5
9C
330
1F
100
AcDbEntity
  8
0
 62
   250
100
AcDbSpline
210
0.0
220
0.0
230
1.0
 70
    11
 71
     3
 72
    17
 73
    13
 74
     0
 42
0.0000000001
 43
0.0000000001
 40
0.0
 40
0.0
 40
0.0
 40
0.0
 40
0.25
 40
0.25
 40
0.25
 40
0.5
 40
0.5
 40
0.5
 40
0.75
 40
0.75
 40
0.75
 40
1.0
 40
1.0
 40
1.0
 40
1.0
 10
-246.1994
 20
116.2334
 30
0.0
 10
-246.1994
 20
116.2334
 30
0.0
 10
-246.1994
 20
113.6334
 30
0.0
 10
-246.1994
 20
113.6334
 30
0.0
 10
-246.1994
 20
113.6334
 30
0.0
 10
-240.5994
 20
113.6334
 30
0.0
 10
-240.5994
 20
113.6334
 30
0.0
 10
-240.5994
 20
113.6334
 30
0.0
 10
-240.5994
 20
116.2334
 30
0.0
 10
-240.5994
 20
116.2334
 30
0.0
 10
-240.5994
 20
116.2334
 30
0.0
 10
-246.1994
 20
116.2334
 30
0.0
 10
-246.1994
 20
116.2334
 30
0.0
  0
SPLINE
  5
9D
330
1F
100
AcDbEntity
  8
0
 62
   250
100
AcDbSpline
210
0.0
220
0.0
230
1.0
 70
    11
 71
     3
 72
    17
 73
    13
 74
     0
 42
0.0000000001
 43
0.0000000001
 40
0.0
 40
0.0
 40
0.0
 40
0.0
 40
0.25
 40
0.25
 40
0.25
 40
0.5
 40
0.5
 40
0.5
 40
0.75
 40
0.75
 40
0.75
 40
1.0
 40
1.0
 40
1.0
 40
1.0
 10
-266.1994
 20
34.2334
 30
0.0
 10
-266.1994
 20
34.2334
 30
0.0
 10
-266.1994
 20
28.6334
 30
0.0
 10
-266.1994
 20
28.6334
 30
0.0
 10
-266.1994
 20
28.6334
 30
0.0
 10
-263.5994
 20
28.6334
 30
0.0
 10
-263.5994
 20
28.6334
 30
0.0
 10
-263.5994
 20
28.6334
 30
0.0
 10
-263.5994
 20
34.2334
 30
0.0
 10
-263.5994
 20
34.2334
 30
0.0
 10
-263.5994
 20
34.2334
 30
0.0
 10
-266.1994
 20
34.2334
 30
0.0
 10
-266.1994
 20
34.2334
 30
0.0
  0
SPLINE
  5
9E
330
1F
100
AcDbEntity
  8
0
 62
   250
100
AcDbSpline
210
0.0
220
0.0
230
1.0
 70
    11
 71
     3
 72
   140
 73
   136
 74
     0
 42
0.0000000001
 43
0.0000000001
 40
0.0
 40
0.0
 40
0.0
 40
0.0
 40
0.0222222222222222
 40
0.0222222222222222
 40
0.0222222222222222
 40
0.0444444444444444
 40
0.0444444444444444
 40
0.0444444444444444
 40
0.0666666666666667
 40
0.0666666666666667
 40
0.0666666666666667
 40
0.0888888888888889
 40
0.0888888888888889
 40
0.0888888888888889
 40
0.1111111111111111
 40
0.1111111111111111
 40
0.1111111111111111
 40
0.1333333333333333
 40
0.1333333333333333
 40
0.1333333333333333
 40
0.1555555555555556
 40
0.1555555555555556
 40
0.1555555555555556
 40
0.1777777777777778
 40
0.1777777777777778
 40
0.1777777777777778
 40
0.2
 40
0.2
 40
0.2
 40
0.2222222222222222
 40
0.2222222222222222
 40
0.2222222222222222
 40
0.2444444444444445
 40
0.2444444444444445
 40
0.2444444444444445
 40
0.2666666666666667
 40
0.2666666666666667
 40
0.2666666666666667
 40
0.2888888888888889
 40
0.2888888888888889
 40
0.2888888888888889
 40
0.3111111111111111
 40
0.3111111111111111
 40
0.3111111111111111
 40
0.3333333333333334
 40
0.3333333333333334
 40
0.3333333333333334
 40
0.3555555555555556
 40
0.3555555555555556
 40
0.3555555555555556
 40
0.3777777777777778
 40
0.3777777777777778
 40
0.3777777777777778
 40
0.4
 40
0.4
 40
0.4
 40
0.4222222222222222
 40
0.4222222222222222
 40
0.4222222222222222
 40
0.4444444444444445
 40
0.4444444444444445
 40
0.4444444444444445
 40
0.4666666666666667
 40
0.4666666666666667
 40
0.4666666666666667
 40
0.4888888888888889
 40
0.4888888888888889
 40
0.4888888888888889
 40
0.5111111111111112
 40
0.5111111111111112
 40
0.5111111111111112
 40
0.5333333333333333
 40
0.5333333333333333
 40
0.5333333333333333
 40
0.5555555555555556
 40
0.5555555555555556
 40
0.5555555555555556
 40
0.5777777777777778
 40
0.5777777777777778
 40
0.5777777777777778
 40
0.6
 40
0.6
 40
0.6
 40
0.6222222222222222
 40
0.6222222222222222
 40
0.6222222222222222
 40
0.6444444444444445
 40
0.6444444444444445
 40
0.6444444444444445
 40
0.6666666666666667
 40
0.6666666666666667
 40
0.6666666666666667
 40
0.6888888888888889
 40
0.6888888888888889
 40
0.6888888888888889
 40
0.7111111111111111
 40
0.7111111111111111
 40
0.7111111111111111
 40
0.7333333333333334
 40
0.7333333333333334
 40
0.7333333333333334
 40
0.7555555555555555
 40
0.7555555555555555
 40
0.7555555555555555
 40
0.7777777777777778
 40
0.7777777777777778
 40
0.7777777777777778
 40
0.8
 40
0.8
 40
0.8
 40
0.8222222222222223
 40
0.8222222222222223
 40
0.8222222222222223
 40
0.8444444444444444
 40
0.8444444444444444
 40
0.8444444444444444
 40
0.8666666666666667
 40
0.8666666666666667
 40
0.8666666666666667
 40
0.888888888888889
 40
0.888888888888889
 40
0.888888888888889
 40
0.9111111111111111
 40
0.9111111111111111
 40
0.9111111111111111
 40
0.9333333333333333
 40
0.9333333333333333
 40
0.9333333333333333
 40
0.9555555555555556
 40
0.9555555555555556
 40
0.9555555555555556
 40
0.9777777777777779
 40
0.9777777777777779
 40
0.9777777777777779
 40
1.0
 40
1.0
 40
1.0
 40
1.0
 10
-252.9774
 20
157.7311
 30
0.0
 10
-252.9774
 20
157.7311
 30
0.0
 10
-264.5423
 20
177.2387
 30
0.0
 10
-264.5423
 20
177.2387
 30
0.0
 10
-265.3183
 20
178.5476
 30
0.0
 10
-265.3324
 20
180.1726
 30
0.0
 10
-264.5792
 20
181.4947
 30
0.0
 10
-263.8259
 20
182.8169
 30
0.0
 10
-262.4211
 20
183.6334
 30
0.0
 10
-260.8994
 20
183.6334
 30
0.0
 10
-260.8994
 20
183.6334
 30
0.0
 10
-225.8994
 20
183.6334
 30
0.0
 10
-225.8994
 20
183.6334
 30
0.0
 10
-224.3777
 20
183.6334
 30
0.0
 10
-222.9729
 20
182.8169
 30
0.0
 10
-222.2196
 20
181.4947
 30
0.0
 10
-221.4664
 20
180.1726
 30
0.0
 10
-221.4805
 20
178.5476
 30
0.0
 10
-222.2565
 20
177.2387
 30
0.0
 10
-222.2565
 20
177.2387
 30
0.0
 10
-233.8214
 20
157.7312
 30
0.0
 10
-233.8214
 20
157.7312
 30
0.0
 10
-234.8841
 20
155.9386
 30
0.0
 10
-234.9034
 20
153.7131
 30
0.0
 10
-233.8718
 20
151.9024
 30
0.0
 10
-232.8402
 20
150.0915
 30
0.0
 10
-230.9163
 20
148.9734
 30
0.0
 10
-228.8322
 20
148.9734
 30
0.0
 10
-228.8322
 20
148.9734
 30
0.0
 10
-205.3994
 20
148.9734
 30
0.0
 10
-205.3994
 20
148.9734
 30
0.0
 10
-204.816
 20
148.9734
 30
0.0
 10
-204.2563
 20
148.7416
 30
0.0
 10
-203.8438
 20
148.329
 30
0.0
 10
-203.4312
 20
147.9165
 30
0.0
 10
-203.1994
 20
147.3568
 30
0.0
 10
-203.1994
 20
146.7734
 30
0.0
 10
-203.1994
 20
146.7734
 30
0.0
 10
-203.1994
 20
72.9334
 30
0.0
 10
-203.1994
 20
72.9334
 30
0.0
 10
-203.1994
 20
71.7185
 30
0.0
 10
-204.1845
 20
70.7334
 30
0.0
 10
-205.3994
 20
70.7334
 30
0.0
 10
-205.3994
 20
70.7334
 30
0.0
 10
-219.3994
 20
70.7334
 30
0.0
 10
-219.3994
 20
70.7334
 30
0.0
 10
-220.4072
 20
70.7334
 30
0.0
 10
-221.3738
 20
70.333
 30
0.0
 10
-222.0865
 20
69.6204
 30
0.0
 10
-222.7991
 20
68.9078
 30
0.0
 10
-223.1994
 20
67.9411
 30
0.0
 10
-223.1994
 20
66.9334
 30
0.0
 10
-223.1994
 20
66.9334
 30
0.0
 10
-223.1994
 20
40.9334
 30
0.0
 10
-223.1994
 20
40.9334
 30
0.0
 10
-223.1994
 20
39.9256
 30
0.0
 10
-222.7991
 20
38.959
 30
0.0
 10
-222.0865
 20
38.2464
 30
0.0
 10
-221.3738
 20
37.5338
 30
0.0
 10
-220.4072
 20
37.1334
 30
0.0
 10
-219.3994
 20
37.1334
 30
0.0
 10
-219.3994
 20
37.1334
 30
0.0
 10
-205.3994
 20
37.1334
 30
0.0
 10
-205.3994
 20
37.1334
 30
0.0
 10
-204.816
 20
37.1334
 30
0.0
 10
-204.2563
 20
36.9016
 30
0.0
 10
-203.8438
 20
36.489
 30
0.0
 10
-203.4312
 20
36.0765
 30
0.0
 10
-203.1994
 20
35.5168
 30
0.0
 10
-203.1994
 20
34.9334
 30
0.0
 10
-203.1994
 20
34.9334
 30
0.0
 10
-203.1994
 20
27.9334
 30
0.0
 10
-203.1994
 20
27.9334
 30
0.0
 10
-203.1994
 20
26.7185
 30
0.0
 10
-204.1845
 20
25.7334
 30
0.0
 10
-205.3994
 20
25.7334
 30
0.0
 10
-205.3994
 20
25.7334
 30
0.0
 10
-281.3994
 20
25.7334
 30
0.0
 10
-281.3994
 20
25.7334
 30
0.0
 10
-281.9829
 20
25.7334
 30
0.0
 10
-282.5424
 20
25.9652
 30
0.0
 10
-282.955
 20
26.3778
 30
0.0
 10
-283.3676
 20
26.7904
 30
0.0
 10
-283.5994
 20
27.3499
 30
0.0
 10
-283.5994
 20
27.9334
 30
0.0
 10
-283.5994
 20
27.9334
 30
0.0
 10
-283.5994
 20
34.9334
 30
0.0
 10
-283.5994
 20
34.9334
 30
0.0
 10
-283.5994
 20
35.5168
 30
0.0
 10
-283.3676
 20
36.0764
 30
0.0
 10
-282.955
 20
36.489
 30
0.0
 10
-282.5425
 20
36.9016
 30
0.0
 10
-281.9829
 20
37.1334
 30
0.0
 10
-281.3994
 20
37.1334
 30
0.0
 10
-281.3994
 20
37.1334
 30
0.0
 10
-267.3994
 20
37.1334
 30
0.0
 10
-267.3994
 20
37.1334
 30
0.0
 10
-265.3006
 20
37.1334
 30
0.0
 10
-263.5994
 20
38.8346
 30
0.0
 10
-263.5994
 20
40.9334
 30
0.0
 10
-263.5994
 20
40.9334
 30
0.0
 10
-263.5994
 20
66.9334
 30
0.0
 10
-263.5994
 20
66.9334
 30
0.0
 10
-263.5994
 20
67.9411
 30
0.0
 10
-263.9999
 20
68.9078
 30
0.0
 10
-264.7124
 20
69.6204
 30
0.0
 10
-265.425
 20
70.3329
 30
0.0
 10
-266.3917
 20
70.7334
 30
0.0
 10
-267.3994
 20
70.7334
 30
0.0
 10
-267.3994
 20
70.7334
 30
0.0
 10
-281.3994
 20
70.7334
 30
0.0
 10
-281.3994
 20
70.7334
 30
0.0
 10
-281.9829
 20
70.7334
 30
0.0
 10
-282.5424
 20
70.9652
 30
0.0
 10
-282.955
 20
71.3778
 30
0.0
 10
-283.3676
 20
71.7904
 30
0.0
 10
-283.5994
 20
72.3499
 30
0.0
 10
-283.5994
 20
72.9334
 30
0.0
 10
-283.5994
 20
72.9334
 30
0.0
 10
-283.5994
 20
146.7734
 30
0.0
 10
-283.5994
 20
146.7734
 30
0.0
 10
-283.5994
 20
147.3568
 30
0.0
 10
-283.3676
 20
147.9164
 30
0.0
 10
-282.955
 20
148.329
 30
0.0
 10
-282.5425
 20
148.7416
 30
0.0
 10
-281.9829
 20
148.9734
 30
0.0
 10
-281.3994
 20
148.9734
 30
0.0
 10
-281.3994
 20
148.9734
 30
0.0
 10
-257.9666
 20
148.9734
 30
0.0
 10
-257.9666
 20
148.9734
 30
0.0
 10
-255.8825
 20
148.9734
 30
0.0
 10
-253.9587
 20
150.0916
 30
0.0
 10
-252.9271
 20
151.9024
 30
0.0
 10
-251.8956
 20
153.7131
 30
0.0
 10
-251.9147
 20
155.9386
 30
0.0
 10
-252.9774
 20
157.7311
 30
0.0
  0
ENDSEC
  0
SECTION
  2
OBJECTS
  0
DICTIONARY
  5
C
330
0
100
AcDbDictionary
  3
ACAD_GROUP
350
D
  3
ACAD_LAYOUT
350
1A
  3
ACAD_MATERIAL
350
43
  3
ACAD_MLEADERSTYLE
350
5B
  3
ACAD_MLINESTYLE
350
17
  3
ACAD_PLOTSETTINGS
350
19
  3
ACAD_SCALELIST
350
47
  3
ACAD_VISUALSTYLE
350
2A
  3
ACDBVARIABLEDICTIONARY
350
9F
  3
DWGPROPS
350
A6
1001
ACAD
1000
TREAT_AS_HARD
1070
     0
  0
DICTIONARY
  5
D
102
{ACAD_REACTORS
330
C
102
}
330
C
100
AcDbDictionary
1001
ACAD
1000
TREAT_AS_HARD
1070
     0
  0
DICTIONARY
  5
1A
102
{ACAD_REACTORS
330
C
102
}
330
C
100
AcDbDictionary
1001
ACAD
1000
TREAT_AS_HARD
1070
     0
  0
DICTIONARY
  5
43
102
{ACAD_REACTORS
330
C
102
}
330
C
100
AcDbDictionary
  3
BYBLOCK
350
45
  3
BYLAYER
350
44
  3
GLOBAL
350
46
1001
ACAD
1000
TREAT_AS_HARD
1070
     0
  0
DICTIONARY
  5
5B
102
{ACAD_REACTORS
330
C
102
}
330
C
100
AcDbDictionary
  3
STANDARD
350
5C
1001
ACAD
1000
TREAT_AS_HARD
1070
     0
  0
DICTIONARY
  5
17
102
{ACAD_REACTORS
330
C
102
}
330
C
100
AcDbDictionary
  3
STANDARD
350
18
1001
ACAD
1000
TREAT_AS_HARD
1070
     0
  0
DICTIONARY
  5
19
102
{ACAD_REACTORS
330
C
102
}
330
C
100
AcDbDictionary
1001
ACAD
1000
TREAT_AS_HARD
1070
     0
  0
DICTIONARY
  5
47
102
{ACAD_REACTORS
330
C
102
}
330
C
100
AcDbDictionary
  3
A0
350
48
  3
A1
350
49
  3
A2
350
4A
  3
A3
350
4B
  3
A4
350
4C
  3
A5
350
4D
  3
A6
350
4E
  3
A7
350
4F
  3
A8
350
50
  3
A9
350
51
  3
B1
350
52
  3
B2
350
53
  3
B3
350
54
  3
B4
350
55
  3
B5
350
56
  3
B6
350
57
  3
B7
350
58
1001
ACAD
1000
TREAT_AS_HARD
1070
     0
  0
DICTIONARY
  5
2A
102
{ACAD_REACTORS
330
C
102
}
330
C
100
AcDbDictionary
  3
2DWIREFRAME
350
2F
  3
BASIC
350
32
  3
BRIGHTEN
350
36
  3
COLORCHANGE
350
3A
  3
CONCEPTUAL
350
34
  3
DIM
350
35
  3
EDGECOLOROFF
350
3D
  3
FACEPATTERN
350
39
  3
FLAT
350
2B
  3
FLATWITHEDGES
350
2C
  3
GOURAUD
350
2D
  3
GOURAUDWITHEDGES
350
2E
  3
HIDDEN
350
31
  3
JITTEROFF
350
3B
  3
LINEPATTERN
350
38
  3
OVERHANGOFF
350
3C
  3
REALISTIC
350
33
  3
SHADED
350
42
  3
SHADED_WITH_EDGES
350
41
  3
SHADES_OF_GRAY
350
3E
  3
SKETCHY
350
3F
  3
THICKEN
350
37
  3
WIREFRAME
350
30
  3
X-RAY
350
40
1001
ACAD
1000
TREAT_AS_HARD
1070
     0
  0
DICTIONARY
  5
9F
102
{ACAD_REACTORS
330
C
102
}
330
C
100
AcDbDictionary
  3
CANNOSCALE
350
A7
  3
CMLEADERSTYLE
350
A1
  3
CTABLESTYLE
350
A0
  3
DIMASSOC
350
A4
  3
HIDETEXT
350
A5
  3
MSLTSCALE
350
A8
1001
ACAD
1000
TREAT_AS_HARD
1070
     0
  0
XRECORD
  5
A6
102
{ACAD_REACTORS
330
C
102
}
330
C
100
AcDbXrecord
  1
DWGPROPS COOKIE
  2

  3

  4

  6

  7

  8
jt523
  9

300
=
301
=
302
=
303
=
304
=
305
=
306
=
307
=
308
=
309
=
 40
0.0
 41
2460886.946692304
 42
2460886.946692651
  1

 90
        0
  0
MATERIAL
  5
45
102
{ACAD_REACTORS
330
43
102
}
102
{ACAD_XDICTIONARY
360
AB
102
}
330
43
100
AcDbMaterial
  1
BYBLOCK
  0
MATERIAL
  5
44
102
{ACAD_REACTORS
330
43
102
}
102
{ACAD_XDICTIONARY
360
A9
102
}
330
43
100
AcDbMaterial
  1
BYLAYER
  0
MATERIAL
  5
46
102
{ACAD_REACTORS
330
43
102
}
102
{ACAD_XDICTIONARY
360
AD
102
}
330
43
100
AcDbMaterial
  1
GLOBAL
  0
ACAD_PROXY_OBJECT
  5
5C
102
{ACAD_REACTORS
330
5B
102
}
330
5B
100
AcDbZombieObject
 90
      499
 91
      505
 93
      610
310
40901902A4063FBFFFFFE056BD1B81E855B9FC0AD7A3703D0AD73F4214DD185B99185C9900AD7A3703D0AC73F90141901A02B5E8DC0F42B1CFC02B5E8DC0F42B1CFE5764000000000000300FC0
340
14
340
0
340
11
340
0
 94
        0
1001
ACAD_MLEADERVER
1070
     2
  0
MLINESTYLE
  5
18
102
{ACAD_REACTORS
330
17
102
}
330
17
100
AcDbMlineStyle
  2
Standard
 70
     0
  3

 62
   256
 51
90.0
 52
90.0
 71
     2
 49
0.5
 62
   256
  6
BYLAYER
 49
-0.5
 62
   256
  6
BYLAYER
  0
ACAD_PROXY_OBJECT
  5
48
102
{ACAD_REACTORS
330
47
102
}
330
47
100
AcDbZombieObject
 90
      499
 91
      503
 93
       41
310
903313A31580
  0
ACAD_PROXY_OBJECT
  5
49
102
{ACAD_REACTORS
330
47
102
}
330
47
100
AcDbZombieObject
 90
      499
 91
      503
 93
      257
310
90E312F31323822203D2031272D3022000000000000200FC000000000000284000
  0
ACAD_PROXY_OBJECT
  5
4A
102
{ACAD_REACTORS
330
47
102
}
330
47
100
AcDbZombieObject
 90
      499
 91
      503
 93
      249
310
90D312F363422203D2031272D3022000000000000240FC000000000000284000
  0
ACAD_PROXY_OBJECT
  5
4B
102
{ACAD_REACTORS
330
47
102
}
330
47
100
AcDbZombieObject
 90
      499
 91
      503
 93
      249
310
90D312F333222203D2031272D3022000000000000280FC000000000000284000
  0
ACAD_PROXY_OBJECT
  5
4C
102
{ACAD_REACTORS
330
47
102
}
330
47
100
AcDbZombieObject
 90
      499
 91
      503
 93
      249
310
90D312F313622203D2031272D30220000000000002C0FC000000000000284000
  0
ACAD_PROXY_OBJECT
  5
4D
102
{ACAD_REACTORS
330
47
102
}
330
47
100
AcDbZombieObject
 90
      499
 91
      503
 93
      249
310
90D332F333222203D2031272D30220000000000002E0FC000000000000284000
  0
ACAD_PROXY_OBJECT
  5
4E
102
{ACAD_REACTORS
330
47
102
}
330
47
100
AcDbZombieObject
 90
      499
 91
      503
 93
      241
310
90C312F3822203D2031272D3022000000000000300FC000000000000284000
  0
ACAD_PROXY_OBJECT
  5
4F
102
{ACAD_REACTORS
330
47
102
}
330
47
100
AcDbZombieObject
 90
      499
 91
      503
 93
      249
310
90D332F313622203D2031272D3022000000000000320FC000000000000284000
  0
ACAD_PROXY_OBJECT
  5
50
102
{ACAD_REACTORS
330
47
102
}
330
47
100
AcDbZombieObject
 90
      499
 91
      503
 93
      241
310
90C312F3422203D2031272D3022000000000000340FC000000000000284000
  0
ACAD_PROXY_OBJECT
  5
51
102
{ACAD_REACTORS
330
47
102
}
330
47
100
AcDbZombieObject
 90
      499
 91
      503
 93
      241
310
90C332F3822203D2031272D3022000000000000360FC000000000000284000
  0
ACAD_PROXY_OBJECT
  5
52
102
{ACAD_REACTORS
330
47
102
}
330
47
100
AcDbZombieObject
 90
      499
 91
      503
 93
      241
310
90C312F3222203D2031272D3022000000000000380FC000000000000284000
  0
ACAD_PROXY_OBJECT
  5
53
102
{ACAD_REACTORS
330
47
102
}
330
47
100
AcDbZombieObject
 90
      499
 91
      503
 93
      241
310
90C332F3422203D2031272D30220000000000003A0FC000000000000284000
  0
ACAD_PROXY_OBJECT
  5
54
102
{ACAD_REACTORS
330
47
102
}
330
47
100
AcDbZombieObject
 90
      499
 91
      503
 93
      161
310
90A3122203D2031272D30224000000000000284000
  0
ACAD_PROXY_OBJECT
  5
55
102
{ACAD_REACTORS
330
47
102
}
330
47
100
AcDbZombieObject
 90
      499
 91
      503
 93
      257
310
90E312D312F3222203D2031272D30220000000000003E0FC000000000000284000
  0
ACAD_PROXY_OBJECT
  5
56
102
{ACAD_REACTORS
330
47
102
}
330
47
100
AcDbZombieObject
 90
      499
 91
      503
 93
      225
310
90A3322203D2031272D302200000000000002100000000000000284000
  0
ACAD_PROXY_OBJECT
  5
57
102
{ACAD_REACTORS
330
47
102
}
330
47
100
AcDbZombieObject
 90
      499
 91
      503
 93
      225
310
90A3622203D2031272D302200000000000006100000000000000284000
  0
ACAD_PROXY_OBJECT
  5
58
102
{ACAD_REACTORS
330
47
102
}
330
47
100
AcDbZombieObject
 90
      499
 91
      503
 93
      249
310
90D31272D3022203D2031272D30220000000000000A100000000000000284000
  0
ACAD_PROXY_OBJECT
  5
2F
102
{ACAD_REACTORS
330
2A
102
}
330
2A
100
AcDbZombieObject
 90
      499
 91
      501
 93
      436
310
42CC9915DA5C99599C985B595049028333333333333E33F0000000000000F90107901411070040501600405405064090741402480A0340
1001
ACAD
1000
AcDbSavedByObjectVersion
1070
     0
  0
ACAD_PROXY_OBJECT
  5
32
102
{ACAD_REACTORS
330
2A
102
}
330
2A
100
AcDbZombieObject
 90
      499
 91
      501
 93
      388
310
4150985CDA58D07406404333333333333E33F0000000000000F90107A41107004050150841D405064090741402480A0350
1001
ACAD
1000
AcDbSavedByObjectVersion
1070
     0
  0
ACAD_PROXY_OBJECT
  5
36
102
{ACAD_REACTORS
330
2A
102
}
330
2A
100
AcDbZombieObject
 90
      499
 91
      501
 93
      428
310
42109C9A59DA1D195B90C409028333333333333E33F0000000000000F9010790141107004050150841D405064090741402480A029950
1001
ACAD
1000
AcDbSavedByObjectVersion
1070
     0
  0
ACAD_PROXY_OBJECT
  5
3A
102
{ACAD_REACTORS
330
2A
102
}
330
2A
100
AcDbZombieObject
 90
      499
 91
      501
 93
      452
310
42D0DBDB1BDC90DA185B99D95104090240C333333333333E33F0000000000000F90108901411070040501508421405064090741402480A0350
1001
ACAD
1000
AcDbSavedByObjectVersion
1070
     0
  0
ACAD_PROXY_OBJECT
  5
34
102
{ACAD_REACTORS
330
2A
102
}
330
2A
100
AcDbZombieObject
 90
      499
 91
      501
 93
      500
310
4290DBDB98D95C1D1D585B10940D028333333333333E33F0000000000000F90107902409070040501000000000018199010841D405064090740C02480A0340
1001
ACAD
1000
AcDbSavedByObjectVersion
1070
     0
  0
ACAD_PROXY_OBJECT
  5
35
102
{ACAD_REACTORS
330
2A
102
}
330
2A
100
AcDbZombieObject
 90
      499
 91
      501
 93
      412
310
40D11A5B50B409028333333333333E33F0000000000000F9010790141107004050150841D405064090741402480A02677FFFFFD0
1001
ACAD
1000
AcDbSavedByObjectVersion
1070
     0
  0
ACAD_PROXY_OBJECT
  5
3D
102
{ACAD_REACTORS
330
2A
102
}
330
2A
100
AcDbZombieObject
 90
      499
 91
      501
 93
      452
310
43115919D950DBDB1BDC93D999916409028333333333333E33F0000000000000F9010790141107004050150841D405064090741402480A0350
1001
ACAD
1000
AcDbSavedByObjectVersion
1070
     0
  0
ACAD_PROXY_OBJECT
  5
39
102
{ACAD_REACTORS
330
2A
102
}
330
2A
100
AcDbZombieObject
 90
      499
 91
      501
 93
      444
310
42D19858D95C185D1D195C9B90F409028333333333333E33F0000000000000F9010790141107004050150841D405064090741402480A0350
1001
ACAD
1000
AcDbSavedByObjectVersion
1070
     0
  0
ACAD_PROXY_OBJECT
  5
2B
102
{ACAD_REACTORS
330
2A
102
}
330
2A
100
AcDbZombieObject
 90
      499
 91
      501
 93
      380
310
41119B185D240901404333333333333E33F0000000000000F9010740A907004050150841D405064090741402480A1B50
1001
ACAD
1000
AcDbSavedByObjectVersion
1070
     0
  0
ACAD_PROXY_OBJECT
  5
2C
102
{ACAD_REACTORS
330
2A
102
}
330
2A
100
AcDbZombieObject
 90
      499
 91
      501
 93
      468
310
43519B185D15DA5D1A115919D95CD0140901404333333333333E33F0000000000000F90107409019070040501600405405064090741402480A1B50
1001
ACAD
1000
AcDbSavedByObjectVersion
1070
     0
  0
ACAD_PROXY_OBJECT
  5
2D
102
{ACAD_REACTORS
330
2A
102
}
330
2A
100
AcDbZombieObject
 90
      499
 91
      501
 93
      404
310
41D1DBDD5C985D5910240902404333333333333E33F0000000000000F9010740A9070040501641D405064090741402480A1B50
1001
ACAD
1000
AcDbSavedByObjectVersion
1070
     0
  0
ACAD_PROXY_OBJECT
  5
2E
102
{ACAD_REACTORS
330
2A
102
}
330
2A
100
AcDbZombieObject
 90
      499
 91
      501
 93
      492
310
4411DBDD5C985D5915DA5D1A115919D95CD0340902404333333333333E33F0000000000000F90107409019070040501600405405064090741402480A1B50
1001
ACAD
1000
AcDbSavedByObjectVersion
1070
     0
  0
ACAD_PROXY_OBJECT
  5
31
102
{ACAD_REACTORS
330
2A
102
}
330
2A
100
AcDbZombieObject
 90
      499
 91
      501
 93
      476
310
41921A5919195B90640502408333333333333E33F0000000000000F901079024090700405020000000000001110200405405064090740C02480A0340
1001
ACAD
1000
AcDbSavedByObjectVersion
1070
     0
  0
ACAD_PROXY_OBJECT
  5
3B
102
{ACAD_REACTORS
330
2A
102
}
330
2A
100
AcDbZombieObject
 90
      499
 91
      501
 93
      428
310
42529A5D1D195C93D999914409028333333333333E33F0000000000000F9010790141107004050150A41D405064090741402480A0350
1001
ACAD
1000
AcDbSavedByObjectVersion
1070
     0
  0
ACAD_PROXY_OBJECT
  5
38
102
{ACAD_REACTORS
330
2A
102
}
330
2A
100
AcDbZombieObject
 90
      499
 91
      501
 93
      444
310
42D31A5B995C185D1D195C9B90E409028333333333333E33F0000000000000F9010790141107004050750841D405064090741402483A0350
1001
ACAD
1000
AcDbSavedByObjectVersion
1070
     0
  0
ACAD_PROXY_OBJECT
  5
3C
102
{ACAD_REACTORS
330
2A
102
}
330
2A
100
AcDbZombieObject
 90
      499
 91
      501
 93
      444
310
42D3DD995C9A185B99D3D999915409028333333333333E33F0000000000000F9010790141107004050150941D405064090741402480A0350
1001
ACAD
1000
AcDbSavedByObjectVersion
1070
     0
  0
ACAD_PROXY_OBJECT
  5
33
102
{ACAD_REACTORS
330
2A
102
}
330
2A
100
AcDbZombieObject
 90
      499
 91
      501
 93
      428
310
425499585B1A5CDD1A58D08409038333333333333E33F0000000000000F9010740A907004050150800405405064090740C02480A1B40
1001
ACAD
1000
AcDbSavedByObjectVersion
1070
     0
  0
ACAD_PROXY_OBJECT
  5
42
102
{ACAD_REACTORS
330
2A
102
}
330
2A
100
AcDbZombieObject
 90
      499
 91
      501
 93
      420
310
4194DA1859195911B40902404333333333333E33F0000000000000F9010740A41107004050150800405405064090840C02480A0B40
1001
ACAD
1000
AcDbSavedByObjectVersion
1070
     0
  0
ACAD_PROXY_OBJECT
  5
41
102
{ACAD_REACTORS
330
2A
102
}
330
2A
100
AcDbZombieObject
 90
      499
 91
      501
 93
      516
310
4454DA18591959081DDA5D1A08195919D95CD1A40902404333333333333E33F0000000000000F901074090142907004050250800405405064090740C02480A0B40
1001
ACAD
1000
AcDbSavedByObjectVersion
1070
     0
  0
ACAD_PROXY_OBJECT
  5
3E
102
{ACAD_REACTORS
330
2A
102
}
330
2A
100
AcDbZombieObject
 90
      499
 91
      501
 93
      532
310
4394DA1859195CC81BD98811DC985E5174090240C333333333333E33F0000000000000F901079024090741D01000000000000111010841D405064090740C02480A0340
1001
ACAD
1000
AcDbSavedByObjectVersion
1070
     0
  0
ACAD_PROXY_OBJECT
  5
3F
102
{ACAD_REACTORS
330
2A
102
}
330
2A
100
AcDbZombieObject
 90
      499
 91
      501
 93
      476
310
41D4DAD95D18DA1E51840502408333333333333E33F0000000000000F901079024090741D01000000000000111010B41D405064090741802480A0340
1001
ACAD
1000
AcDbSavedByObjectVersion
1070
     0
  0
ACAD_PROXY_OBJECT
  5
37
102
{ACAD_REACTORS
330
2A
102
}
330
2A
100
AcDbZombieObject
 90
      499
 91
      501
 93
      412
310
41D51A1A58DAD95B90D409028333333333333E33F0000000000000F9010790141107004050150C41D405064090741402480A0350
1001
ACAD
1000
AcDbSavedByObjectVersion
1070
     0
  0
ACAD_PROXY_OBJECT
  5
30
102
{ACAD_REACTORS
330
2A
102
}
330
2A
100
AcDbZombieObject
 90
      499
 91
      501
 93
      420
310
4255DA5C99599C985B595059028333333333333E33F0000000000000F90107901411070040501600405405064090740C02480A0340
1001
ACAD
1000
AcDbSavedByObjectVersion
1070
     0
  0
ACAD_PROXY_OBJECT
  5
40
102
{ACAD_REACTORS
330
2A
102
}
330
2A
100
AcDbZombieObject
 90
      499
 91
      501
 93
      404
310
41560B54985E51940902404000000000000E03F0000000000000F9010740501907004050150841D405064090740C02480A1B40
1001
ACAD
1000
AcDbSavedByObjectVersion
1070
     0
  0
DICTIONARYVAR
  5
A7
102
{ACAD_REACTORS
330
9F
102
}
330
9F
100
DictionaryVariables
280
     0
  1
1:1
  0
DICTIONARYVAR
  5
A1
102
{ACAD_REACTORS
330
9F
102
}
330
9F
100
DictionaryVariables
280
     0
  1
Standard
  0
DICTIONARYVAR
  5
A0
102
{ACAD_REACTORS
330
9F
102
}
330
9F
100
DictionaryVariables
280
     0
  1
Standard
  0
DICTIONARYVAR
  5
A4
102
{ACAD_REACTORS
330
9F
102
}
330
9F
100
DictionaryVariables
280
     0
  1
2
  0
DICTIONARYVAR
  5
A5
102
{ACAD_REACTORS
330
9F
102
}
330
9F
100
DictionaryVariables
280
     0
  1
1
  0
DICTIONARYVAR
  5
A8
102
{ACAD_REACTORS
330
9F
102
}
330
9F
100
DictionaryVariables
280
     0
  1
1
  0
DICTIONARY
  5
AB
330
45
100
AcDbDictionary
  3
ACAD_XREC_ROUNDTRIP
360
AC
1001
ACAD
1000
TREAT_AS_HARD
1070
     1
  0
DICTIONARY
  5
A9
330
44
100
AcDbDictionary
  3
ACAD_XREC_ROUNDTRIP
360
AA
1001
ACAD
1000
TREAT_AS_HARD
1070
     1
  0
DICTIONARY
  5
AD
330
46
100
AcDbDictionary
  3
ACAD_XREC_ROUNDTRIP
360
AE
1001
ACAD
1000
TREAT_AS_HARD
1070
     1
  0
XRECORD
  5
AC
102
{ACAD_REACTORS
330
AB
102
}
330
AB
100
AcDbXrecord
102
MATERIAL
148
0.0
149
0.0
149
0.0
 93
        0
 94
      127
282
     0
 72
     1
 77
     1
171
     1
175
     1
179
     1
273
     0
  0
XRECORD
  5
AA
102
{ACAD_REACTORS
330
A9
102
}
330
A9
100
AcDbXrecord
102
MATERIAL
148
0.0
149
0.0
149
0.0
 93
        0
 94
      127
282
     0
 72
     1
 77
     1
171
     1
175
     1
179
     1
273
     0
  0
XRECORD
  5
AE
102
{ACAD_REACTORS
330
AD
102
}
330
AD
100
AcDbXrecord
102
MATERIAL
148
0.0
149
0.0
149
0.0
 93
        0
 94
      127
282
     0
 72
     1
 77
     1
171
     1
175
     1
179
     1
273
     0
  0
ENDSEC
  0
EOF
