  0
SECTION
  2
HEADER
  9
$ACADVER
  1
AC1012
  9
$DWGCODEPAGE
  3
ansi_1252
  9
$INSBASE
 10
0.0
 20
0.0
 30
0.0
  9
$EXTMIN
 10
-280.3073
 20
-154.8644
 30
0.0
  9
$EXTMAX
 10
-115.5335
 20
181.6558
 30
0.0
  9
$LIMMIN
 10
0.0
 20
0.0
  9
$LIMMAX
 10
12.0
 20
9.0
  9
$ORTHOMODE
 70
     0
  9
$REGENMODE
 70
     1
  9
$FILLMODE
 70
     1
  9
$QTEXTMODE
 70
     0
  9
$MIRRTEXT
 70
     1
  9
$DRAGMODE
 70
     2
  9
$LTSCALE
 40
1.0
  9
$OSMODE
 70
    37
  9
$ATTMODE
 70
     1
  9
$TEXTSIZE
 40
0.2
  9
$TRACEWID
 40
0.05
  9
$TEXTSTYLE
  7
STANDARD
  9
$CLAYER
  8
0
  9
$CELTYPE
  6
BYLAYER
  9
$CECOLOR
 62
   256
  9
$CELTSCALE
 40
1.0
  9
$DELOBJ
 70
     1
  9
$DISPSILH
 70
     0
  9
$DIMSCALE
 40
1.0
  9
$DIMASZ
 40
0.18
  9
$DIMEXO
 40
0.0625
  9
$DIMDLI
 40
0.38
  9
$DIMRND
 40
0.0
  9
$DIMDLE
 40
0.0
  9
$DIMEXE
 40
0.18
  9
$DIMTP
 40
0.0
  9
$DIMTM
 40
0.0
  9
$DIMTXT
 40
0.18
  9
$DIMCEN
 40
0.09
  9
$DIMTSZ
 40
0.0
  9
$DIMTOL
 70
     0
  9
$DIMLIM
 70
     0
  9
$DIMTIH
 70
     1
  9
$DIMTOH
 70
     1
  9
$DIMSE1
 70
     0
  9
$DIMSE2
 70
     0
  9
$DIMTAD
 70
     0
  9
$DIMZIN
 70
     0
  9
$DIMBLK
  1

  9
$DIMASO
 70
     1
  9
$DIMSHO
 70
     1
  9
$DIMPOST
  1

  9
$DIMAPOST
  1

  9
$DIMALT
 70
     0
  9
$DIMALTD
 70
     2
  9
$DIMALTF
 40
25.4
  9
$DIMLFAC
 40
1.0
  9
$DIMTOFL
 70
     0
  9
$DIMTVP
 40
0.0
  9
$DIMTIX
 70
     0
  9
$DIMSOXD
 70
     0
  9
$DIMSAH
 70
     0
  9
$DIMBLK1
  1

  9
$DIMBLK2
  1

  9
$DIMSTYLE
  2
STANDARD
  9
$DIMCLRD
 70
     0
  9
$DIMCLRE
 70
     0
  9
$DIMCLRT
 70
     0
  9
$DIMTFAC
 40
1.0
  9
$DIMGAP
 40
0.09
  9
$DIMJUST
 70
     0
  9
$DIMSD1
 70
     0
  9
$DIMSD2
 70
     0
  9
$DIMTOLJ
 70
     1
  9
$DIMTZIN
 70
     0
  9
$DIMALTZ
 70
     0
  9
$DIMALTTZ
 70
     0
  9
$DIMFIT
 70
     3
  9
$DIMUPT
 70
     0
  9
$DIMUNIT
 70
     2
  9
$DIMDEC
 70
     4
  9
$DIMTDEC
 70
     4
  9
$DIMALTU
 70
     2
  9
$DIMALTTD
 70
     2
  9
$DIMTXSTY
  7
STANDARD
  9
$DIMAUNIT
 70
     0
  9
$LUNITS
 70
     2
  9
$LUPREC
 70
     4
  9
$SKETCHINC
 40
0.1
  9
$FILLETRAD
 40
0.0
  9
$AUNITS
 70
     0
  9
$AUPREC
 70
     0
  9
$MENU
  1
.
  9
$ELEVATION
 40
0.0
  9
$PELEVATION
 40
0.0
  9
$THICKNESS
 40
0.0
  9
$LIMCHECK
 70
     0
  9
$CHAMFERA
 40
0.0
  9
$CHAMFERB
 40
0.0
  9
$CHAMFERC
 40
0.0
  9
$CHAMFERD
 40
0.0
  9
$SKPOLY
 70
     0
  9
$TDCREATE
 40
2460886.593160718
  9
$TDUPDATE
 40
2460886.593160949
  9
$TDINDWG
 40
0.0000000116
  9
$TDUSRTIMER
 40
0.0000000116
  9
$USRTIMER
 70
     1
  9
$ANGBASE
 50
0.0
  9
$ANGDIR
 70
     0
  9
$PDMODE
 70
     0
  9
$PDSIZE
 40
0.0
  9
$PLINEWID
 40
0.0
  9
$COORDS
 70
     1
  9
$SPLFRAME
 70
     0
  9
$SPLINETYPE
 70
     6
  9
$SPLINESEGS
 70
     8
  9
$ATTDIA
 70
     0
  9
$ATTREQ
 70
     1
  9
$HANDLING
 70
     1
  9
$HANDSEED
  5
B0
  9
$SURFTAB1
 70
     6
  9
$SURFTAB2
 70
     6
  9
$SURFTYPE
 70
     6
  9
$SURFU
 70
     6
  9
$SURFV
 70
     6
  9
$UCSNAME
  2

  9
$UCSORG
 10
0.0
 20
0.0
 30
0.0
  9
$UCSXDIR
 10
1.0
 20
0.0
 30
0.0
  9
$UCSYDIR
 10
0.0
 20
1.0
 30
0.0
  9
$PUCSNAME
  2

  9
$PUCSORG
 10
0.0
 20
0.0
 30
0.0
  9
$PUCSXDIR
 10
1.0
 20
0.0
 30
0.0
  9
$PUCSYDIR
 10
0.0
 20
1.0
 30
0.0
  9
$USERI1
 70
     0
  9
$USERI2
 70
     0
  9
$USERI3
 70
     0
  9
$USERI4
 70
     0
  9
$USERI5
 70
     0
  9
$USERR1
 40
0.0
  9
$USERR2
 40
0.0
  9
$USERR3
 40
0.0
  9
$USERR4
 40
0.0
  9
$USERR5
 40
0.0
  9
$WORLDVIEW
 70
     1
  9
$SHADEDGE
 70
     3
  9
$SHADEDIF
 70
    70
  9
$TILEMODE
 70
     1
  9
$MAXACTVP
 70
    64
  9
$PINSBASE
 10
0.0
 20
0.0
 30
0.0
  9
$PLIMCHECK
 70
     0
  9
$PEXTMIN
 10
1.000000000000000E+20
 20
1.000000000000000E+20
 30
1.000000000000000E+20
  9
$PEXTMAX
 10
-1.000000000000000E+20
 20
-1.000000000000000E+20
 30
-1.000000000000000E+20
  9
$PLIMMIN
 10
0.0
 20
0.0
  9
$PLIMMAX
 10
12.0
 20
9.0
  9
$UNITMODE
 70
     0
  9
$VISRETAIN
 70
     1
  9
$PLINEGEN
 70
     0
  9
$PSLTSCALE
 70
     1
  9
$TREEDEPTH
 70
  3020
  9
$PICKSTYLE
 70
     1
  9
$CMLSTYLE
  2
STANDARD
  9
$CMLJUST
 70
     0
  9
$CMLSCALE
 40
1.0
  9
$SAVEIMAGES
 70
     1
  0
ENDSEC
  0
SECTION
  2
CLASSES
  0
CLASS
  1
ACDBDICTIONARYWDFLT
  2
AcDbDictionaryWithDefault
  3
ObjectDBX Classes
 90
    32768
280
     0
281
     0
  0
CLASS
  1
VISUALSTYLE
  2
AcDbVisualStyle
  3
ObjectDBX Classes
 90
     4095
280
     0
281
     0
  0
CLASS
  1
MATERIAL
  2
AcDbMaterial
  3
ObjectDBX Classes
 90
     1153
280
     0
281
     0
  0
CLASS
  1
SCALE
  2
AcDbScale
  3
ObjectDBX Classes
 90
     1153
280
     0
281
     0
  0
CLASS
  1
TABLESTYLE
  2
AcDbTableStyle
  3
ObjectDBX Classes
 90
     4095
280
     0
281
     0
  0
CLASS
  1
MLEADERSTYLE
  2
AcDbMLeaderStyle
  3
ACDB_MLEADERSTYLE_CLASS
 90
     4095
280
     0
281
     0
  0
CLASS
  1
SUN
  2
AcDbSun
  3
SCENEOE
 90
     1153
280
     0
281
     0
  0
CLASS
  1
DICTIONARYVAR
  2
AcDbDictionaryVar
  3
ObjectDBX Classes
 90
        0
280
     0
281
     0
  0
CLASS
  1
XRECORD
  2
AcDbXrecord
  3
ObjectDBX Classes
 90
    32768
280
     0
281
     0
  0
CLASS
  1
LWPOLYLINE
  2
AcDbPolyline
  3
ObjectDBX Classes
 90
    32768
280
     0
281
     1
  0
CLASS
  1
HATCH
  2
AcDbHatch
  3
ObjectDBX Classes
 90
    32768
280
     0
281
     1
  0
CLASS
  1
ACDBPLACEHOLDER
  2
AcDbPlaceHolder
  3
ObjectDBX Classes
 90
        0
280
     0
281
     0
  0
CLASS
  1
LAYOUT
  2
AcDbLayout
  3
ObjectDBX Classes
 90
        0
280
     0
281
     0
  0
ENDSEC
  0
SECTION
  2
TABLES
  0
TABLE
  2
VPORT
  5
8
330
0
100
AcDbSymbolTable
 70
     1
  0
VPORT
  5
29
330
8
100
AcDbSymbolTableRecord
100
AcDbViewportTableRecord
  2
*ACTIVE
 70
     0
 10
0.0
 20
0.0
 11
1.0
 21
1.0
 12
10.42990654205607
 22
4.5
 13
0.0
 23
0.0
 14
0.5
 24
0.5
 15
0.5
 25
0.5
 16
0.0
 26
0.0
 36
1.0
 17
0.0
 27
0.0
 37
0.0
 40
9.0
 41
1.972972972850329
 42
50.0
 43
0.0
 44
0.0
 50
0.0
 51
0.0
 71
     0
 72
   100
 73
     1
 74
     3
 75
     0
 76
     0
 77
     0
 78
     0
  0
ENDTAB
  0
TABLE
  2
LTYPE
  5
5
330
0
100
AcDbSymbolTable
 70
     1
  0
LTYPE
  5
14
330
5
100
AcDbSymbolTableRecord
100
AcDbLinetypeTableRecord
  2
BYBLOCK
 70
     0
  3

 72
    65
 73
     0
 40
0.0
  0
LTYPE
  5
15
330
5
100
AcDbSymbolTableRecord
100
AcDbLinetypeTableRecord
  2
BYLAYER
 70
     0
  3

 72
    65
 73
     0
 40
0.0
  0
LTYPE
  5
16
330
5
100
AcDbSymbolTableRecord
100
AcDbLinetypeTableRecord
  2
CONTINUOUS
 70
     0
  3
Solid line
 72
    65
 73
     0
 40
0.0
  0
ENDTAB
  0
TABLE
  2
LAYER
  5
2
330
0
100
AcDbSymbolTable
 70
     1
  0
LAYER
  5
10
330
2
100
AcDbSymbolTableRecord
100
AcDbLayerTableRecord
  2
0
 70
     0
 62
     7
  6
CONTINUOUS
  0
ENDTAB
  0
TABLE
  2
STYLE
  5
3
330
0
100
AcDbSymbolTable
 70
     1
  0
STYLE
  5
11
330
3
100
AcDbSymbolTableRecord
100
AcDbTextStyleTableRecord
  2
STANDARD
 70
     0
 40
0.0
 41
1.0
 50
0.0
 71
     0
 42
0.2
  3
txt
  4

  0
ENDTAB
  0
TABLE
  2
VIEW
  5
6
330
0
100
AcDbSymbolTable
 70
     0
  0
ENDTAB
  0
TABLE
  2
UCS
  5
7
330
0
100
AcDbSymbolTable
 70
     0
  0
ENDTAB
  0
TABLE
  2
APPID
  5
9
330
0
100
AcDbSymbolTable
 70
     3
  0
APPID
  5
12
330
9
100
AcDbSymbolTableRecord
100
AcDbRegAppTableRecord
  2
ACAD
 70
     0
  0
APPID
  5
5E
330
9
100
AcDbSymbolTableRecord
100
AcDbRegAppTableRecord
  2
ODA
 70
     0
  0
APPID
  5
AF
330
9
100
AcDbSymbolTableRecord
100
AcDbRegAppTableRecord
  2
ACAD_MLEADERVER
 70
     0
  0
ENDTAB
  0
TABLE
  2
DIMSTYLE
  5
A
330
0
100
AcDbSymbolTable
 70
     1
  0
DIMSTYLE
105
27
330
A
100
AcDbSymbolTableRecord
100
AcDbDimStyleTableRecord
  2
STANDARD
 70
     0
  3

  4

  5

  6

  7

 40
1.0
 41
0.18
 42
0.0625
 43
0.38
 44
0.18
 45
0.0
 46
0.0
 47
0.0
 48
0.0
140
0.18
141
0.09
142
0.0
143
25.4
144
1.0
145
0.0
146
1.0
147
0.09
 71
     0
 72
     0
 73
     1
 74
     1
 75
     0
 76
     0
 77
     0
 78
     0
170
     0
171
     2
172
     0
173
     0
174
     0
175
     0
176
     0
177
     0
178
     0
270
     2
271
     4
272
     4
273
     2
274
     2
340
11
275
     0
280
     0
281
     0
282
     0
283
     1
284
     0
285
     0
286
     0
287
     3
288
     0
  0
ENDTAB
  0
TABLE
  2
BLOCK_RECORD
  5
1
330
0
100
AcDbSymbolTable
 70
     0
  0
BLOCK_RECORD
  5
1F
330
1
100
AcDbSymbolTableRecord
100
AcDbBlockTableRecord
  2
*MODEL_SPACE
  0
BLOCK_RECORD
  5
1B
330
1
100
AcDbSymbolTableRecord
100
AcDbBlockTableRecord
  2
*PAPER_SPACE
  0
ENDTAB
  0
ENDSEC
  0
SECTION
  2
BLOCKS
  0
BLOCK
  5
20
330
1F
100
AcDbEntity
  8
0
100
AcDbBlockBegin
  2
*MODEL_SPACE
 70
     0
 10
0.0
 20
0.0
 30
0.0
  3
*MODEL_SPACE
  1

  0
ENDBLK
  5
21
330
1F
100
AcDbEntity
  8
0
100
AcDbBlockEnd
  0
BLOCK
  5
1C
330
1B
100
AcDbEntity
 67
     1
  8
0
100
AcDbBlockBegin
  2
*PAPER_SPACE
 70
     0
 10
0.0
 20
0.0
 30
0.0
  3
*PAPER_SPACE
  1

  0
ENDBLK
  5
1D
330
1B
100
AcDbEntity
 67
     1
  8
0
100
AcDbBlockEnd
  0
ENDSEC
  0
SECTION
  2
ENTITIES
  0
SPLINE
  5
5F
330
1F
100
AcDbEntity
  8
0
 62
   250
100
AcDbSpline
210
0.0
220
0.0
230
1.0
 70
    11
 71
     3
 72
    41
 73
    37
 74
     0
 42
0.0000000001
 43
0.0000000001
 40
0.0
 40
0.0
 40
0.0
 40
0.0
 40
0.0833333333333333
 40
0.0833333333333333
 40
0.0833333333333333
 40
0.1666666666666667
 40
0.1666666666666667
 40
0.1666666666666667
 40
0.25
 40
0.25
 40
0.25
 40
0.3333333333333333
 40
0.3333333333333333
 40
0.3333333333333333
 40
0.4166666666666666
 40
0.4166666666666666
 40
0.4166666666666666
 40
0.5
 40
0.5
 40
0.5
 40
0.5833333333333333
 40
0.5833333333333333
 40
0.5833333333333333
 40
0.6666666666666666
 40
0.6666666666666666
 40
0.6666666666666666
 40
0.75
 40
0.75
 40
0.75
 40
0.8333333333333333
 40
0.8333333333333333
 40
0.8333333333333333
 40
0.9166666666666666
 40
0.9166666666666666
 40
0.9166666666666666
 40
1.0
 40
1.0
 40
1.0
 40
1.0
 10
-188.5549
 20
55.0048
 30
0.0
 10
-188.5549
 20
55.0048
 30
0.0
 10
-188.5549
 20
58.0048
 30
0.0
 10
-188.5549
 20
58.0048
 30
0.0
 10
-188.5549
 20
58.0048
 30
0.0
 10
-182.1549
 20
58.0048
 30
0.0
 10
-182.1549
 20
58.0048
 30
0.0
 10
-182.1549
 20
58.0048
 30
0.0
 10
-182.1549
 20
55.0048
 30
0.0
 10
-182.1549
 20
55.0048
 30
0.0
 10
-182.1549
 20
55.0048
 30
0.0
 10
-162.5549
 20
55.0048
 30
0.0
 10
-162.5549
 20
55.0048
 30
0.0
 10
-162.5549
 20
55.0048
 30
0.0
 10
-162.5549
 20
58.0048
 30
0.0
 10
-162.5549
 20
58.0048
 30
0.0
 10
-162.5549
 20
58.0048
 30
0.0
 10
-156.1549
 20
58.0048
 30
0.0
 10
-156.1549
 20
58.0048
 30
0.0
 10
-156.1549
 20
58.0048
 30
0.0
 10
-156.1549
 20
55.0048
 30
0.0
 10
-156.1549
 20
55.0048
 30
0.0
 10
-156.1549
 20
55.0048
 30
0.0
 10
-152.1549
 20
55.0048
 30
0.0
 10
-152.1549
 20
55.0048
 30
0.0
 10
-152.1549
 20
55.0048
 30
0.0
 10
-152.1549
 20
41.3048
 30
0.0
 10
-152.1549
 20
41.3048
 30
0.0
 10
-152.1549
 20
41.3048
 30
0.0
 10
-192.5549
 20
41.3048
 30
0.0
 10
-192.5549
 20
41.3048
 30
0.0
 10
-192.5549
 20
41.3048
 30
0.0
 10
-192.5549
 20
55.0048
 30
0.0
 10
-192.5549
 20
55.0048
 30
0.0
 10
-192.5549
 20
55.0048
 30
0.0
 10
-188.5549
 20
55.0048
 30
0.0
 10
-188.5549
 20
55.0048
 30
0.0
  0
SPLINE
  5
60
330
1F
100
AcDbEntity
  8
0
 62
   250
100
AcDbSpline
210
0.0
220
0.0
230
1.0
 70
    11
 71
     3
 72
    41
 73
    37
 74
     0
 42
0.0000000001
 43
0.0000000001
 40
0.0
 40
0.0
 40
0.0
 40
0.0
 40
0.0833333333333333
 40
0.0833333333333333
 40
0.0833333333333333
 40
0.1666666666666667
 40
0.1666666666666667
 40
0.1666666666666667
 40
0.25
 40
0.25
 40
0.25
 40
0.3333333333333333
 40
0.3333333333333333
 40
0.3333333333333333
 40
0.4166666666666666
 40
0.4166666666666666
 40
0.4166666666666666
 40
0.5
 40
0.5
 40
0.5
 40
0.5833333333333333
 40
0.5833333333333333
 40
0.5833333333333333
 40
0.6666666666666666
 40
0.6666666666666666
 40
0.6666666666666666
 40
0.75
 40
0.75
 40
0.75
 40
0.8333333333333333
 40
0.8333333333333333
 40
0.8333333333333333
 40
0.9166666666666666
 40
0.9166666666666666
 40
0.9166666666666666
 40
1.0
 40
1.0
 40
1.0
 40
1.0
 10
-189.438
 20
32.3743
 30
0.0
 10
-189.438
 20
32.3743
 30
0.0
 10
-189.438
 20
35.3743
 30
0.0
 10
-189.438
 20
35.3743
 30
0.0
 10
-189.438
 20
35.3743
 30
0.0
 10
-183.038
 20
35.3743
 30
0.0
 10
-183.038
 20
35.3743
 30
0.0
 10
-183.038
 20
35.3743
 30
0.0
 10
-183.038
 20
32.3743
 30
0.0
 10
-183.038
 20
32.3743
 30
0.0
 10
-183.038
 20
32.3743
 30
0.0
 10
-163.438
 20
32.3743
 30
0.0
 10
-163.438
 20
32.3743
 30
0.0
 10
-163.438
 20
32.3743
 30
0.0
 10
-163.438
 20
35.3743
 30
0.0
 10
-163.438
 20
35.3743
 30
0.0
 10
-163.438
 20
35.3743
 30
0.0
 10
-157.038
 20
35.3743
 30
0.0
 10
-157.038
 20
35.3743
 30
0.0
 10
-157.038
 20
35.3743
 30
0.0
 10
-157.038
 20
32.3743
 30
0.0
 10
-157.038
 20
32.3743
 30
0.0
 10
-157.038
 20
32.3743
 30
0.0
 10
-153.038
 20
32.3743
 30
0.0
 10
-153.038
 20
32.3743
 30
0.0
 10
-153.038
 20
32.3743
 30
0.0
 10
-153.038
 20
18.6743
 30
0.0
 10
-153.038
 20
18.6743
 30
0.0
 10
-153.038
 20
18.6743
 30
0.0
 10
-193.438
 20
18.6743
 30
0.0
 10
-193.438
 20
18.6743
 30
0.0
 10
-193.438
 20
18.6743
 30
0.0
 10
-193.438
 20
32.3743
 30
0.0
 10
-193.438
 20
32.3743
 30
0.0
 10
-193.438
 20
32.3743
 30
0.0
 10
-189.438
 20
32.3743
 30
0.0
 10
-189.438
 20
32.3743
 30
0.0
  0
SPLINE
  5
61
330
1F
100
AcDbEntity
  8
0
 62
   250
100
AcDbSpline
210
0.0
220
0.0
230
1.0
 70
    11
 71
     3
 72
    17
 73
    13
 74
     0
 42
0.0000000001
 43
0.0000000001
 40
0.0
 40
0.0
 40
0.0
 40
0.0
 40
0.25
 40
0.25
 40
0.25
 40
0.5
 40
0.5
 40
0.5
 40
0.75
 40
0.75
 40
0.75
 40
1.0
 40
1.0
 40
1.0
 40
1.0
 10
-121.3466
 20
-123.0125
 30
0.0
 10
-121.3466
 20
-122.7777
 30
0.0
 10
-121.5368
 20
-122.5875
 30
0.0
 10
-121.7716
 20
-122.5875
 30
0.0
 10
-122.0063
 20
-122.5875
 30
0.0
 10
-122.1966
 20
-122.7778
 30
0.0
 10
-122.1966
 20
-123.0125
 30
0.0
 10
-122.1966
 20
-123.2473
 30
0.0
 10
-122.0064
 20
-123.4375
 30
0.0
 10
-121.7716
 20
-123.4375
 30
0.0
 10
-121.5368
 20
-123.4375
 30
0.0
 10
-121.3466
 20
-123.2473
 30
0.0
 10
-121.3466
 20
-123.0125
 30
0.0
  0
SPLINE
  5
62
330
1F
100
AcDbEntity
  8
0
 62
   250
100
AcDbSpline
210
0.0
220
0.0
230
1.0
 70
    11
 71
     3
 72
    17
 73
    13
 74
     0
 42
0.0000000001
 43
0.0000000001
 40
0.0
 40
0.0
 40
0.0
 40
0.0
 40
0.25
 40
0.25
 40
0.25
 40
0.5
 40
0.5
 40
0.5
 40
0.75
 40
0.75
 40
0.75
 40
1.0
 40
1.0
 40
1.0
 40
1.0
 10
-121.3466
 20
-120.4625
 30
0.0
 10
-121.3466
 20
-120.2277
 30
0.0
 10
-121.5368
 20
-120.0375
 30
0.0
 10
-121.7716
 20
-120.0375
 30
0.0
 10
-122.0063
 20
-120.0375
 30
0.0
 10
-122.1966
 20
-120.2278
 30
0.0
 10
-122.1966
 20
-120.4625
 30
0.0
 10
-122.1966
 20
-120.6973
 30
0.0
 10
-122.0064
 20
-120.8875
 30
0.0
 10
-121.7716
 20
-120.8875
 30
0.0
 10
-121.5368
 20
-120.8875
 30
0.0
 10
-121.3466
 20
-120.6973
 30
0.0
 10
-121.3466
 20
-120.4625
 30
0.0
  0
SPLINE
  5
63
330
1F
100
AcDbEntity
  8
0
 62
   250
100
AcDbSpline
210
0.0
220
0.0
230
1.0
 70
    11
 71
     3
 72
    17
 73
    13
 74
     0
 42
0.0000000001
 43
0.0000000001
 40
0.0
 40
0.0
 40
0.0
 40
0.0
 40
0.25
 40
0.25
 40
0.25
 40
0.5
 40
0.5
 40
0.5
 40
0.75
 40
0.75
 40
0.75
 40
1.0
 40
1.0
 40
1.0
 40
1.0
 10
-121.3466
 20
-117.9125
 30
0.0
 10
-121.3466
 20
-117.6777
 30
0.0
 10
-121.5368
 20
-117.4875
 30
0.0
 10
-121.7716
 20
-117.4875
 30
0.0
 10
-122.0063
 20
-117.4875
 30
0.0
 10
-122.1966
 20
-117.6778
 30
0.0
 10
-122.1966
 20
-117.9125
 30
0.0
 10
-122.1966
 20
-118.1473
 30
0.0
 10
-122.0064
 20
-118.3375
 30
0.0
 10
-121.7716
 20
-118.3375
 30
0.0
 10
-121.5368
 20
-118.3375
 30
0.0
 10
-121.3466
 20
-118.1473
 30
0.0
 10
-121.3466
 20
-117.9125
 30
0.0
  0
SPLINE
  5
64
330
1F
100
AcDbEntity
  8
0
 62
   250
100
AcDbSpline
210
0.0
220
0.0
230
1.0
 70
    11
 71
     3
 72
    17
 73
    13
 74
     0
 42
0.0000000001
 43
0.0000000001
 40
0.0
 40
0.0
 40
0.0
 40
0.0
 40
0.25
 40
0.25
 40
0.25
 40
0.5
 40
0.5
 40
0.5
 40
0.75
 40
0.75
 40
0.75
 40
1.0
 40
1.0
 40
1.0
 40
1.0
 10
-121.3466
 20
-125.5625
 30
0.0
 10
-121.3466
 20
-125.3277
 30
0.0
 10
-121.5368
 20
-125.1375
 30
0.0
 10
-121.7716
 20
-125.1375
 30
0.0
 10
-122.0063
 20
-125.1375
 30
0.0
 10
-122.1966
 20
-125.3278
 30
0.0
 10
-122.1966
 20
-125.5625
 30
0.0
 10
-122.1966
 20
-125.7973
 30
0.0
 10
-122.0064
 20
-125.9875
 30
0.0
 10
-121.7716
 20
-125.9875
 30
0.0
 10
-121.5368
 20
-125.9875
 30
0.0
 10
-121.3466
 20
-125.7973
 30
0.0
 10
-121.3466
 20
-125.5625
 30
0.0
  0
SPLINE
  5
65
330
1F
100
AcDbEntity
  8
0
 62
   250
100
AcDbSpline
210
0.0
220
0.0
230
1.0
 70
    11
 71
     3
 72
    29
 73
    25
 74
     0
 42
0.0000000001
 43
0.0000000001
 40
0.0
 40
0.0
 40
0.0
 40
0.0
 40
0.125
 40
0.125
 40
0.125
 40
0.25
 40
0.25
 40
0.25
 40
0.375
 40
0.375
 40
0.375
 40
0.5
 40
0.5
 40
0.5
 40
0.625
 40
0.625
 40
0.625
 40
0.75
 40
0.75
 40
0.75
 40
0.875
 40
0.875
 40
0.875
 40
1.0
 40
1.0
 40
1.0
 40
1.0
 10
-124.7394
 20
-115.1625
 30
0.0
 10
-124.7394
 20
-115.1625
 30
0.0
 10
-118.8038
 20
-115.1625
 30
0.0
 10
-118.8038
 20
-115.1625
 30
0.0
 10
-118.8038
 20
-115.1625
 30
0.0
 10
-118.4133
 20
-110.1185
 30
0.0
 10
-118.4133
 20
-110.1185
 30
0.0
 10
-118.4133
 20
-110.1185
 30
0.0
 10
-118.4121
 20
-110.1108
 30
0.0
 10
-118.4121
 20
-110.1108
 30
0.0
 10
-118.2062
 20
-108.7886
 30
0.0
 10
-118.7993
 20
-107.4624
 30
0.0
 10
-119.9222
 20
-106.7345
 30
0.0
 10
-121.0472
 20
-106.0053
 30
0.0
 10
-122.4958
 20
-106.0051
 30
0.0
 10
-123.6209
 20
-106.7344
 30
0.0
 10
-124.7438
 20
-107.4623
 30
0.0
 10
-125.3371
 20
-108.7886
 30
0.0
 10
-125.1311
 20
-110.1108
 30
0.0
 10
-125.1311
 20
-110.1108
 30
0.0
 10
-125.1299
 20
-110.1185
 30
0.0
 10
-125.1299
 20
-110.1185
 30
0.0
 10
-125.1299
 20
-110.1185
 30
0.0
 10
-124.7394
 20
-115.1625
 30
0.0
 10
-124.7394
 20
-115.1625
 30
0.0
  0
SPLINE
  5
66
330
1F
100
AcDbEntity
  8
0
 62
   250
100
AcDbSpline
210
0.0
220
0.0
230
1.0
 70
    11
 71
     3
 72
    32
 73
    28
 74
     0
 42
0.0000000001
 43
0.0000000001
 40
0.0
 40
0.0
 40
0.0
 40
0.0
 40
0.1111111111111111
 40
0.1111111111111111
 40
0.1111111111111111
 40
0.2222222222222222
 40
0.2222222222222222
 40
0.2222222222222222
 40
0.3333333333333333
 40
0.3333333333333333
 40
0.3333333333333333
 40
0.4444444444444444
 40
0.4444444444444444
 40
0.4444444444444444
 40
0.5555555555555556
 40
0.5555555555555556
 40
0.5555555555555556
 40
0.6666666666666666
 40
0.6666666666666666
 40
0.6666666666666666
 40
0.7777777777777777
 40
0.7777777777777777
 40
0.7777777777777777
 40
0.8888888888888888
 40
0.8888888888888888
 40
0.8888888888888888
 40
1.0
 40
1.0
 40
1.0
 40
1.0
 10
-123.9716
 20
-137.2875
 30
0.0
 10
-123.9716
 20
-138.0872
 30
0.0
 10
-123.5377
 20
-138.8239
 30
0.0
 10
-122.8382
 20
-139.2117
 30
0.0
 10
-122.1394
 20
-139.5991
 30
0.0
 10
-121.2834
 20
-139.5767
 30
0.0
 10
-120.6058
 20
-139.1533
 30
0.0
 10
-119.934
 20
-138.7336
 30
0.0
 10
-119.5331
 20
-137.9636
 30
0.0
 10
-119.5745
 20
-137.1726
 30
0.0
 10
-119.5745
 20
-137.1726
 30
0.0
 10
-119.5748
 20
-137.1619
 30
0.0
 10
-119.5748
 20
-137.1619
 30
0.0
 10
-119.5748
 20
-137.1619
 30
0.0
 10
-119.5716
 20
-133.0873
 30
0.0
 10
-119.5716
 20
-133.0873
 30
0.0
 10
-119.571
 20
-132.3013
 30
0.0
 10
-119.9911
 20
-131.5752
 30
0.0
 10
-120.6716
 20
-131.1823
 30
0.0
 10
-121.3523
 20
-130.7893
 30
0.0
 10
-122.1909
 20
-130.7893
 30
0.0
 10
-122.8716
 20
-131.1823
 30
0.0
 10
-123.5522
 20
-131.5753
 30
0.0
 10
-123.9716
 20
-132.3016
 30
0.0
 10
-123.9716
 20
-133.0875
 30
0.0
 10
-123.9716
 20
-133.0875
 30
0.0
 10
-123.9716
 20
-137.2875
 30
0.0
 10
-123.9716
 20
-137.2875
 30
0.0
  0
SPLINE
  5
67
330
1F
100
AcDbEntity
  8
0
 62
   250
100
AcDbSpline
210
0.0
220
0.0
230
1.0
 70
    11
 71
     3
 72
    32
 73
    28
 74
     0
 42
0.0000000001
 43
0.0000000001
 40
0.0
 40
0.0
 40
0.0
 40
0.0
 40
0.1111111111111111
 40
0.1111111111111111
 40
0.1111111111111111
 40
0.2222222222222222
 40
0.2222222222222222
 40
0.2222222222222222
 40
0.3333333333333333
 40
0.3333333333333333
 40
0.3333333333333333
 40
0.4444444444444444
 40
0.4444444444444444
 40
0.4444444444444444
 40
0.5555555555555556
 40
0.5555555555555556
 40
0.5555555555555556
 40
0.6666666666666666
 40
0.6666666666666666
 40
0.6666666666666666
 40
0.7777777777777777
 40
0.7777777777777777
 40
0.7777777777777777
 40
0.8888888888888888
 40
0.8888888888888888
 40
0.8888888888888888
 40
1.0
 40
1.0
 40
1.0
 40
1.0
 10
-117.5716
 20
-137.2948
 30
0.0
 10
-117.5755
 20
-139.611
 30
0.0
 10
-119.4544
 20
-141.4875
 30
0.0
 10
-121.7716
 20
-141.4875
 30
0.0
 10
-124.0887
 20
-141.4875
 30
0.0
 10
-125.9677
 20
-139.611
 30
0.0
 10
-125.9716
 20
-137.2948
 30
0.0
 10
-125.9716
 20
-137.2948
 30
0.0
 10
-127.9716
 20
-109.5947
 30
0.0
 10
-127.9716
 20
-109.5947
 30
0.0
 10
-127.9716
 20
-109.5947
 30
0.0
 10
-127.9716
 20
-109.5875
 30
0.0
 10
-127.9716
 20
-109.5875
 30
0.0
 10
-127.9716
 20
-107.3725
 30
0.0
 10
-126.7899
 20
-105.3257
 30
0.0
 10
-124.8716
 20
-104.2182
 30
0.0
 10
-122.9533
 20
-103.1107
 30
0.0
 10
-120.5899
 20
-103.1107
 30
0.0
 10
-118.6716
 20
-104.2182
 30
0.0
 10
-116.7533
 20
-105.3257
 30
0.0
 10
-115.5716
 20
-107.3725
 30
0.0
 10
-115.5716
 20
-109.5875
 30
0.0
 10
-115.5716
 20
-109.5875
 30
0.0
 10
-115.5716
 20
-109.5947
 30
0.0
 10
-115.5716
 20
-109.5947
 30
0.0
 10
-115.5716
 20
-109.5947
 30
0.0
 10
-117.5716
 20
-137.2948
 30
0.0
 10
-117.5716
 20
-137.2948
 30
0.0
  0
SPLINE
  5
68
330
1F
100
AcDbEntity
  8
0
 62
   250
100
AcDbSpline
210
0.0
220
0.0
230
1.0
 70
    11
 71
     3
 72
    59
 73
    55
 74
     0
 42
0.0000000001
 43
0.0000000001
 40
0.0
 40
0.0
 40
0.0
 40
0.0
 40
0.0555555555555556
 40
0.0555555555555556
 40
0.0555555555555556
 40
0.1111111111111111
 40
0.1111111111111111
 40
0.1111111111111111
 40
0.1666666666666667
 40
0.1666666666666667
 40
0.1666666666666667
 40
0.2222222222222222
 40
0.2222222222222222
 40
0.2222222222222222
 40
0.2777777777777778
 40
0.2777777777777778
 40
0.2777777777777778
 40
0.3333333333333333
 40
0.3333333333333333
 40
0.3333333333333333
 40
0.3888888888888888
 40
0.3888888888888888
 40
0.3888888888888888
 40
0.4444444444444444
 40
0.4444444444444444
 40
0.4444444444444444
 40
0.5
 40
0.5
 40
0.5
 40
0.5555555555555556
 40
0.5555555555555556
 40
0.5555555555555556
 40
0.611111111111111
 40
0.611111111111111
 40
0.611111111111111
 40
0.6666666666666666
 40
0.6666666666666666
 40
0.6666666666666666
 40
0.7222222222222222
 40
0.7222222222222222
 40
0.7222222222222222
 40
0.7777777777777777
 40
0.7777777777777777
 40
0.7777777777777777
 40
0.8333333333333333
 40
0.8333333333333333
 40
0.8333333333333333
 40
0.8888888888888888
 40
0.8888888888888888
 40
0.8888888888888888
 40
0.9444444444444444
 40
0.9444444444444444
 40
0.9444444444444444
 40
1.0
 40
1.0
 40
1.0
 40
1.0
 10
-181.4762
 20
-118.8533
 30
0.0
 10
-181.4762
 20
-118.8533
 30
0.0
 10
-181.4762
 20
-115.8533
 30
0.0
 10
-181.4762
 20
-115.8533
 30
0.0
 10
-181.4762
 20
-115.8533
 30
0.0
 10
-175.0762
 20
-115.8533
 30
0.0
 10
-175.0762
 20
-115.8533
 30
0.0
 10
-175.0762
 20
-115.8533
 30
0.0
 10
-175.0762
 20
-118.8533
 30
0.0
 10
-175.0762
 20
-118.8533
 30
0.0
 10
-175.0762
 20
-118.8533
 30
0.0
 10
-158.4062
 20
-118.8533
 30
0.0
 10
-158.4062
 20
-118.8533
 30
0.0
 10
-158.4062
 20
-118.8533
 30
0.0
 10
-158.4062
 20
-115.8533
 30
0.0
 10
-158.4062
 20
-115.8533
 30
0.0
 10
-158.4062
 20
-115.8533
 30
0.0
 10
-152.0062
 20
-115.8533
 30
0.0
 10
-152.0062
 20
-115.8533
 30
0.0
 10
-152.0062
 20
-115.8533
 30
0.0
 10
-152.0062
 20
-118.8533
 30
0.0
 10
-152.0062
 20
-118.8533
 30
0.0
 10
-152.0062
 20
-118.8533
 30
0.0
 10
-146.0412
 20
-118.8533
 30
0.0
 10
-146.0412
 20
-118.8533
 30
0.0
 10
-146.0412
 20
-118.8533
 30
0.0
 10
-146.0412
 20
-139.7033
 30
0.0
 10
-146.0412
 20
-139.7033
 30
0.0
 10
-146.0412
 20
-139.7033
 30
0.0
 10
-156.7162
 20
-139.7033
 30
0.0
 10
-156.7162
 20
-139.7033
 30
0.0
 10
-156.7162
 20
-139.7033
 30
0.0
 10
-156.7162
 20
-139.5033
 30
0.0
 10
-156.7162
 20
-139.5033
 30
0.0
 10
-156.7162
 20
-135.9217
 30
0.0
 10
-158.627
 20
-132.6122
 30
0.0
 10
-161.7287
 20
-130.8214
 30
0.0
 10
-164.8304
 20
-129.0306
 30
0.0
 10
-168.652
 20
-129.0306
 30
0.0
 10
-171.7537
 20
-130.8214
 30
0.0
 10
-174.8555
 20
-132.6122
 30
0.0
 10
-176.7662
 20
-135.9217
 30
0.0
 10
-176.7662
 20
-139.5033
 30
0.0
 10
-176.7662
 20
-139.5033
 30
0.0
 10
-176.7662
 20
-139.7033
 30
0.0
 10
-176.7662
 20
-139.7033
 30
0.0
 10
-176.7662
 20
-139.7033
 30
0.0
 10
-187.4412
 20
-139.7033
 30
0.0
 10
-187.4412
 20
-139.7033
 30
0.0
 10
-187.4412
 20
-139.7033
 30
0.0
 10
-187.4412
 20
-118.8533
 30
0.0
 10
-187.4412
 20
-118.8533
 30
0.0
 10
-187.4412
 20
-118.8533
 30
0.0
 10
-181.4762
 20
-118.8533
 30
0.0
 10
-181.4762
 20
-118.8533
 30
0.0
  0
SPLINE
  5
69
330
1F
100
AcDbEntity
  8
0
 62
   250
100
AcDbSpline
210
0.0
220
0.0
230
1.0
 70
    11
 71
     3
 72
    17
 73
    13
 74
     0
 42
0.0000000001
 43
0.0000000001
 40
0.0
 40
0.0
 40
0.0
 40
0.0
 40
0.25
 40
0.25
 40
0.25
 40
0.5
 40
0.5
 40
0.5
 40
0.75
 40
0.75
 40
0.75
 40
1.0
 40
1.0
 40
1.0
 40
1.0
 10
-178.2994
 20
-150.5913
 30
0.0
 10
-178.2994
 20
-149.3762
 30
0.0
 10
-179.2843
 20
-148.3913
 30
0.0
 10
-180.4994
 20
-148.3913
 30
0.0
 10
-181.7145
 20
-148.3913
 30
0.0
 10
-182.6994
 20
-149.3762
 30
0.0
 10
-182.6994
 20
-150.5913
 30
0.0
 10
-182.6994
 20
-151.8064
 30
0.0
 10
-181.7145
 20
-152.7913
 30
0.0
 10
-180.4994
 20
-152.7913
 30
0.0
 10
-179.2843
 20
-152.7913
 30
0.0
 10
-178.2994
 20
-151.8064
 30
0.0
 10
-178.2994
 20
-150.5913
 30
0.0
  0
SPLINE
  5
6A
330
1F
100
AcDbEntity
  8
0
 62
   250
100
AcDbSpline
210
0.0
220
0.0
230
1.0
 70
    11
 71
     3
 72
    17
 73
    13
 74
     0
 42
0.0000000001
 43
0.0000000001
 40
0.0
 40
0.0
 40
0.0
 40
0.0
 40
0.25
 40
0.25
 40
0.25
 40
0.5
 40
0.5
 40
0.5
 40
0.75
 40
0.75
 40
0.75
 40
1.0
 40
1.0
 40
1.0
 40
1.0
 10
-143.2994
 20
-150.5913
 30
0.0
 10
-143.2994
 20
-149.3762
 30
0.0
 10
-144.2843
 20
-148.3913
 30
0.0
 10
-145.4994
 20
-148.3913
 30
0.0
 10
-146.7145
 20
-148.3913
 30
0.0
 10
-147.6994
 20
-149.3762
 30
0.0
 10
-147.6994
 20
-150.5913
 30
0.0
 10
-147.6994
 20
-151.8064
 30
0.0
 10
-146.7145
 20
-152.7913
 30
0.0
 10
-145.4994
 20
-152.7913
 30
0.0
 10
-144.2843
 20
-152.7913
 30
0.0
 10
-143.2994
 20
-151.8064
 30
0.0
 10
-143.2994
 20
-150.5913
 30
0.0
  0
SPLINE
  5
6B
330
1F
100
AcDbEntity
  8
0
 62
   250
100
AcDbSpline
210
0.0
220
0.0
230
1.0
 70
    11
 71
     3
 72
    17
 73
    13
 74
     0
 42
0.0000000001
 43
0.0000000001
 40
0.0
 40
0.0
 40
0.0
 40
0.0
 40
0.25
 40
0.25
 40
0.25
 40
0.5
 40
0.5
 40
0.5
 40
0.75
 40
0.75
 40
0.75
 40
1.0
 40
1.0
 40
1.0
 40
1.0
 10
-160.7994
 20
-150.5913
 30
0.0
 10
-160.7994
 20
-149.3762
 30
0.0
 10
-161.7843
 20
-148.3913
 30
0.0
 10
-162.9994
 20
-148.3913
 30
0.0
 10
-164.2145
 20
-148.3913
 30
0.0
 10
-165.1994
 20
-149.3762
 30
0.0
 10
-165.1994
 20
-150.5913
 30
0.0
 10
-165.1994
 20
-151.8064
 30
0.0
 10
-164.2145
 20
-152.7913
 30
0.0
 10
-162.9994
 20
-152.7913
 30
0.0
 10
-161.7843
 20
-152.7913
 30
0.0
 10
-160.7994
 20
-151.8064
 30
0.0
 10
-160.7994
 20
-150.5913
 30
0.0
  0
SPLINE
  5
6C
330
1F
100
AcDbEntity
  8
0
 62
   250
100
AcDbSpline
210
0.0
220
0.0
230
1.0
 70
    11
 71
     3
 72
    26
 73
    22
 74
     0
 42
0.0000000001
 43
0.0000000001
 40
0.0
 40
0.0
 40
0.0
 40
0.0
 40
0.1428571428571428
 40
0.1428571428571428
 40
0.1428571428571428
 40
0.2857142857142857
 40
0.2857142857142857
 40
0.2857142857142857
 40
0.4285714285714285
 40
0.4285714285714285
 40
0.4285714285714285
 40
0.5714285714285714
 40
0.5714285714285714
 40
0.5714285714285714
 40
0.7142857142857142
 40
0.7142857142857142
 40
0.7142857142857142
 40
0.8571428571428571
 40
0.8571428571428571
 40
0.8571428571428571
 40
1.0
 40
1.0
 40
1.0
 40
1.0
 10
-145.4994
 20
-154.8263
 30
0.0
 10
-145.4994
 20
-154.8263
 30
0.0
 10
-180.4994
 20
-154.8263
 30
0.0
 10
-180.4994
 20
-154.8263
 30
0.0
 10
-182.0124
 20
-154.8263
 30
0.0
 10
-183.4105
 20
-154.0191
 30
0.0
 10
-184.167
 20
-152.7088
 30
0.0
 10
-184.9235
 20
-151.3985
 30
0.0
 10
-184.9235
 20
-149.7841
 30
0.0
 10
-184.167
 20
-148.4738
 30
0.0
 10
-183.4105
 20
-147.1635
 30
0.0
 10
-182.0124
 20
-146.3563
 30
0.0
 10
-180.4994
 20
-146.3563
 30
0.0
 10
-180.4994
 20
-146.3563
 30
0.0
 10
-145.4994
 20
-146.3563
 30
0.0
 10
-145.4994
 20
-146.3563
 30
0.0
 10
-143.1605
 20
-146.3563
 30
0.0
 10
-141.2644
 20
-148.2524
 30
0.0
 10
-141.2644
 20
-150.5913
 30
0.0
 10
-141.2644
 20
-152.9301
 30
0.0
 10
-143.1606
 20
-154.8263
 30
0.0
 10
-145.4994
 20
-154.8263
 30
0.0
  0
SPLINE
  5
6D
330
1F
100
AcDbEntity
  8
0
 62
   250
100
AcDbSpline
210
0.0
220
0.0
230
1.0
 70
    11
 71
     3
 72
    83
 73
    79
 74
     0
 42
0.0000000001
 43
0.0000000001
 40
0.0
 40
0.0
 40
0.0
 40
0.0
 40
0.0384615384615385
 40
0.0384615384615385
 40
0.0384615384615385
 40
0.0769230769230769
 40
0.0769230769230769
 40
0.0769230769230769
 40
0.1153846153846154
 40
0.1153846153846154
 40
0.1153846153846154
 40
0.1538461538461539
 40
0.1538461538461539
 40
0.1538461538461539
 40
0.1923076923076923
 40
0.1923076923076923
 40
0.1923076923076923
 40
0.2307692307692308
 40
0.2307692307692308
 40
0.2307692307692308
 40
0.2692307692307693
 40
0.2692307692307693
 40
0.2692307692307693
 40
0.3076923076923077
 40
0.3076923076923077
 40
0.3076923076923077
 40
0.3461538461538461
 40
0.3461538461538461
 40
0.3461538461538461
 40
0.3846153846153846
 40
0.3846153846153846
 40
0.3846153846153846
 40
0.4230769230769231
 40
0.4230769230769231
 40
0.4230769230769231
 40
0.4615384615384616
 40
0.4615384615384616
 40
0.4615384615384616
 40
0.5
 40
0.5
 40
0.5
 40
0.5384615384615385
 40
0.5384615384615385
 40
0.5384615384615385
 40
0.576923076923077
 40
0.576923076923077
 40
0.576923076923077
 40
0.6153846153846154
 40
0.6153846153846154
 40
0.6153846153846154
 40
0.6538461538461539
 40
0.6538461538461539
 40
0.6538461538461539
 40
0.6923076923076923
 40
0.6923076923076923
 40
0.6923076923076923
 40
0.7307692307692308
 40
0.7307692307692308
 40
0.7307692307692308
 40
0.7692307692307693
 40
0.7692307692307693
 40
0.7692307692307693
 40
0.8076923076923077
 40
0.8076923076923077
 40
0.8076923076923077
 40
0.8461538461538463
 40
0.8461538461538463
 40
0.8461538461538463
 40
0.8846153846153847
 40
0.8846153846153847
 40
0.8846153846153847
 40
0.9230769230769231
 40
0.9230769230769231
 40
0.9230769230769231
 40
0.9615384615384616
 40
0.9615384615384616
 40
0.9615384615384616
 40
1.0
 40
1.0
 40
1.0
 40
1.0
 10
-186.5185
 20
-107.9067
 30
0.0
 10
-186.5185
 20
-107.9067
 30
0.0
 10
-186.5185
 20
-110.9067
 30
0.0
 10
-186.5185
 20
-110.9067
 30
0.0
 10
-186.5185
 20
-110.9067
 30
0.0
 10
-192.9185
 20
-110.9067
 30
0.0
 10
-192.9185
 20
-110.9067
 30
0.0
 10
-192.9185
 20
-110.9067
 30
0.0
 10
-192.9185
 20
-107.9067
 30
0.0
 10
-192.9185
 20
-107.9067
 30
0.0
 10
-192.9185
 20
-107.9067
 30
0.0
 10
-195.4185
 20
-107.9067
 30
0.0
 10
-195.4185
 20
-107.9067
 30
0.0
 10
-195.4185
 20
-107.9067
 30
0.0
 10
-195.4185
 20
-78.0567
 30
0.0
 10
-195.4185
 20
-78.0567
 30
0.0
 10
-195.4185
 20
-78.0567
 30
0.0
 10
-192.9185
 20
-78.0567
 30
0.0
 10
-192.9185
 20
-78.0567
 30
0.0
 10
-192.9185
 20
-78.0567
 30
0.0
 10
-192.9185
 20
-75.0567
 30
0.0
 10
-192.9185
 20
-75.0567
 30
0.0
 10
-192.9185
 20
-75.0567
 30
0.0
 10
-186.5185
 20
-75.0567
 30
0.0
 10
-186.5185
 20
-75.0567
 30
0.0
 10
-186.5185
 20
-75.0567
 30
0.0
 10
-186.5185
 20
-78.0567
 30
0.0
 10
-186.5185
 20
-78.0567
 30
0.0
 10
-186.5185
 20
-78.0567
 30
0.0
 10
-147.9185
 20
-78.0567
 30
0.0
 10
-147.9185
 20
-78.0567
 30
0.0
 10
-147.9185
 20
-78.0567
 30
0.0
 10
-147.9185
 20
-75.0567
 30
0.0
 10
-147.9185
 20
-75.0567
 30
0.0
 10
-147.9185
 20
-75.0567
 30
0.0
 10
-141.5185
 20
-75.0567
 30
0.0
 10
-141.5185
 20
-75.0567
 30
0.0
 10
-141.5185
 20
-75.0567
 30
0.0
 10
-141.5185
 20
-78.0567
 30
0.0
 10
-141.5185
 20
-78.0567
 30
0.0
 10
-141.5185
 20
-78.0567
 30
0.0
 10
-139.0185
 20
-78.0567
 30
0.0
 10
-139.0185
 20
-78.0567
 30
0.0
 10
-139.0185
 20
-78.0567
 30
0.0
 10
-139.0185
 20
-107.9067
 30
0.0
 10
-139.0185
 20
-107.9067
 30
0.0
 10
-139.0185
 20
-107.9067
 30
0.0
 10
-141.5185
 20
-107.9067
 30
0.0
 10
-141.5185
 20
-107.9067
 30
0.0
 10
-141.5185
 20
-107.9067
 30
0.0
 10
-141.5185
 20
-110.9067
 30
0.0
 10
-141.5185
 20
-110.9067
 30
0.0
 10
-141.5185
 20
-110.9067
 30
0.0
 10
-147.9185
 20
-110.9067
 30
0.0
 10
-147.9185
 20
-110.9067
 30
0.0
 10
-147.9185
 20
-110.9067
 30
0.0
 10
-147.9185
 20
-107.9067
 30
0.0
 10
-147.9185
 20
-107.9067
 30
0.0
 10
-147.9185
 20
-107.9067
 30
0.0
 10
-149.9757
 20
-107.9067
 30
0.0
 10
-149.9757
 20
-107.9067
 30
0.0
 10
-149.9757
 20
-107.9067
 30
0.0
 10
-149.9123
 20
-107.6574
 30
0.0
 10
-149.9123
 20
-107.6574
 30
0.0
 10
-148.0761
 20
-100.436
 30
0.0
 10
-150.9168
 20
-92.8334
 30
0.0
 10
-157.0387
 20
-88.5856
 30
0.0
 10
-163.1606
 20
-84.3379
 30
0.0
 10
-171.2765
 20
-84.3378
 30
0.0
 10
-177.3984
 20
-88.5856
 30
0.0
 10
-183.5202
 20
-92.8334
 30
0.0
 10
-186.361
 20
-100.436
 30
0.0
 10
-184.5248
 20
-107.6574
 30
0.0
 10
-184.5248
 20
-107.6574
 30
0.0
 10
-184.4614
 20
-107.9067
 30
0.0
 10
-184.4614
 20
-107.9067
 30
0.0
 10
-184.4614
 20
-107.9067
 30
0.0
 10
-186.5185
 20
-107.9067
 30
0.0
 10
-186.5185
 20
-107.9067
 30
0.0
  0
SPLINE
  5
6E
330
1F
100
AcDbEntity
  8
0
 62
   250
100
AcDbSpline
210
0.0
220
0.0
230
1.0
 70
    11
 71
     3
 72
    83
 73
    79
 74
     0
 42
0.0000000001
 43
0.0000000001
 40
0.0
 40
0.0
 40
0.0
 40
0.0
 40
0.0384615384615385
 40
0.0384615384615385
 40
0.0384615384615385
 40
0.0769230769230769
 40
0.0769230769230769
 40
0.0769230769230769
 40
0.1153846153846154
 40
0.1153846153846154
 40
0.1153846153846154
 40
0.1538461538461539
 40
0.1538461538461539
 40
0.1538461538461539
 40
0.1923076923076923
 40
0.1923076923076923
 40
0.1923076923076923
 40
0.2307692307692308
 40
0.2307692307692308
 40
0.2307692307692308
 40
0.2692307692307693
 40
0.2692307692307693
 40
0.2692307692307693
 40
0.3076923076923077
 40
0.3076923076923077
 40
0.3076923076923077
 40
0.3461538461538461
 40
0.3461538461538461
 40
0.3461538461538461
 40
0.3846153846153846
 40
0.3846153846153846
 40
0.3846153846153846
 40
0.4230769230769231
 40
0.4230769230769231
 40
0.4230769230769231
 40
0.4615384615384616
 40
0.4615384615384616
 40
0.4615384615384616
 40
0.5
 40
0.5
 40
0.5
 40
0.5384615384615385
 40
0.5384615384615385
 40
0.5384615384615385
 40
0.576923076923077
 40
0.576923076923077
 40
0.576923076923077
 40
0.6153846153846154
 40
0.6153846153846154
 40
0.6153846153846154
 40
0.6538461538461539
 40
0.6538461538461539
 40
0.6538461538461539
 40
0.6923076923076923
 40
0.6923076923076923
 40
0.6923076923076923
 40
0.7307692307692308
 40
0.7307692307692308
 40
0.7307692307692308
 40
0.7692307692307693
 40
0.7692307692307693
 40
0.7692307692307693
 40
0.8076923076923077
 40
0.8076923076923077
 40
0.8076923076923077
 40
0.8461538461538463
 40
0.8461538461538463
 40
0.8461538461538463
 40
0.8846153846153847
 40
0.8846153846153847
 40
0.8846153846153847
 40
0.9230769230769231
 40
0.9230769230769231
 40
0.9230769230769231
 40
0.9615384615384616
 40
0.9615384615384616
 40
0.9615384615384616
 40
1.0
 40
1.0
 40
1.0
 40
1.0
 10
-185.319
 20
-67.1104
 30
0.0
 10
-185.319
 20
-67.1104
 30
0.0
 10
-185.319
 20
-70.1104
 30
0.0
 10
-185.319
 20
-70.1104
 30
0.0
 10
-185.319
 20
-70.1104
 30
0.0
 10
-191.719
 20
-70.1104
 30
0.0
 10
-191.719
 20
-70.1104
 30
0.0
 10
-191.719
 20
-70.1104
 30
0.0
 10
-191.719
 20
-67.1104
 30
0.0
 10
-191.719
 20
-67.1104
 30
0.0
 10
-191.719
 20
-67.1104
 30
0.0
 10
-194.219
 20
-67.1104
 30
0.0
 10
-194.219
 20
-67.1104
 30
0.0
 10
-194.219
 20
-67.1104
 30
0.0
 10
-194.219
 20
-37.2604
 30
0.0
 10
-194.219
 20
-37.2604
 30
0.0
 10
-194.219
 20
-37.2604
 30
0.0
 10
-191.719
 20
-37.2604
 30
0.0
 10
-191.719
 20
-37.2604
 30
0.0
 10
-191.719
 20
-37.2604
 30
0.0
 10
-191.719
 20
-34.2604
 30
0.0
 10
-191.719
 20
-34.2604
 30
0.0
 10
-191.719
 20
-34.2604
 30
0.0
 10
-185.319
 20
-34.2604
 30
0.0
 10
-185.319
 20
-34.2604
 30
0.0
 10
-185.319
 20
-34.2604
 30
0.0
 10
-185.319
 20
-37.2604
 30
0.0
 10
-185.319
 20
-37.2604
 30
0.0
 10
-185.319
 20
-37.2604
 30
0.0
 10
-146.719
 20
-37.2604
 30
0.0
 10
-146.719
 20
-37.2604
 30
0.0
 10
-146.719
 20
-37.2604
 30
0.0
 10
-146.719
 20
-34.2604
 30
0.0
 10
-146.719
 20
-34.2604
 30
0.0
 10
-146.719
 20
-34.2604
 30
0.0
 10
-140.319
 20
-34.2604
 30
0.0
 10
-140.319
 20
-34.2604
 30
0.0
 10
-140.319
 20
-34.2604
 30
0.0
 10
-140.319
 20
-37.2604
 30
0.0
 10
-140.319
 20
-37.2604
 30
0.0
 10
-140.319
 20
-37.2604
 30
0.0
 10
-137.819
 20
-37.2604
 30
0.0
 10
-137.819
 20
-37.2604
 30
0.0
 10
-137.819
 20
-37.2604
 30
0.0
 10
-137.819
 20
-67.1104
 30
0.0
 10
-137.819
 20
-67.1104
 30
0.0
 10
-137.819
 20
-67.1104
 30
0.0
 10
-140.319
 20
-67.1104
 30
0.0
 10
-140.319
 20
-67.1104
 30
0.0
 10
-140.319
 20
-67.1104
 30
0.0
 10
-140.319
 20
-70.1104
 30
0.0
 10
-140.319
 20
-70.1104
 30
0.0
 10
-140.319
 20
-70.1104
 30
0.0
 10
-146.719
 20
-70.1104
 30
0.0
 10
-146.719
 20
-70.1104
 30
0.0
 10
-146.719
 20
-70.1104
 30
0.0
 10
-146.719
 20
-67.1104
 30
0.0
 10
-146.719
 20
-67.1104
 30
0.0
 10
-146.719
 20
-67.1104
 30
0.0
 10
-148.7762
 20
-67.1104
 30
0.0
 10
-148.7762
 20
-67.1104
 30
0.0
 10
-148.7762
 20
-67.1104
 30
0.0
 10
-148.7128
 20
-66.8611
 30
0.0
 10
-148.7128
 20
-66.8611
 30
0.0
 10
-146.8765
 20
-59.6397
 30
0.0
 10
-149.7173
 20
-52.0371
 30
0.0
 10
-155.8391
 20
-47.7893
 30
0.0
 10
-161.9609
 20
-43.5415
 30
0.0
 10
-170.0769
 20
-43.5415
 30
0.0
 10
-176.1988
 20
-47.7892
 30
0.0
 10
-182.3207
 20
-52.037
 30
0.0
 10
-185.1615
 20
-59.6397
 30
0.0
 10
-183.3252
 20
-66.8611
 30
0.0
 10
-183.3252
 20
-66.8611
 30
0.0
 10
-183.2618
 20
-67.1104
 30
0.0
 10
-183.2618
 20
-67.1104
 30
0.0
 10
-183.2618
 20
-67.1104
 30
0.0
 10
-185.319
 20
-67.1104
 30
0.0
 10
-185.319
 20
-67.1104
 30
0.0
  0
SPLINE
  5
6F
330
1F
100
AcDbEntity
  8
0
 62
   250
100
AcDbSpline
210
0.0
220
0.0
230
1.0
 70
    11
 71
     3
 72
    29
 73
    25
 74
     0
 42
0.0000000001
 43
0.0000000001
 40
0.0
 40
0.0
 40
0.0
 40
0.0
 40
0.125
 40
0.125
 40
0.125
 40
0.25
 40
0.25
 40
0.25
 40
0.375
 40
0.375
 40
0.375
 40
0.5
 40
0.5
 40
0.5
 40
0.625
 40
0.625
 40
0.625
 40
0.75
 40
0.75
 40
0.75
 40
0.875
 40
0.875
 40
0.875
 40
1.0
 40
1.0
 40
1.0
 40
1.0
 10
-163.4537
 20
0.6976
 30
0.0
 10
-163.4537
 20
0.6976
 30
0.0
 10
-165.4537
 20
0.6976
 30
0.0
 10
-165.4537
 20
0.6976
 30
0.0
 10
-165.4537
 20
0.6976
 30
0.0
 10
-165.4537
 20
9.3076
 30
0.0
 10
-165.4537
 20
9.3076
 30
0.0
 10
-165.4537
 20
9.3076
 30
0.0
 10
-155.0537
 20
9.3076
 30
0.0
 10
-155.0537
 20
9.3076
 30
0.0
 10
-155.0537
 20
9.3076
 30
0.0
 10
-155.0537
 20
0.6976
 30
0.0
 10
-155.0537
 20
0.6976
 30
0.0
 10
-155.0537
 20
0.6976
 30
0.0
 10
-157.0537
 20
0.6976
 30
0.0
 10
-157.0537
 20
0.6976
 30
0.0
 10
-157.0537
 20
0.6976
 30
0.0
 10
-157.0537
 20
-2.3024
 30
0.0
 10
-157.0537
 20
-2.3024
 30
0.0
 10
-157.0537
 20
-2.3024
 30
0.0
 10
-163.4537
 20
-2.3024
 30
0.0
 10
-163.4537
 20
-2.3024
 30
0.0
 10
-163.4537
 20
-2.3024
 30
0.0
 10
-163.4537
 20
0.6976
 30
0.0
 10
-163.4537
 20
0.6976
 30
0.0
  0
SPLINE
  5
70
330
1F
100
AcDbEntity
  8
0
 62
   250
100
AcDbSpline
210
0.0
220
0.0
230
1.0
 70
    11
 71
     3
 72
    17
 73
    13
 74
     0
 42
0.0000000001
 43
0.0000000001
 40
0.0
 40
0.0
 40
0.0
 40
0.0
 40
0.25
 40
0.25
 40
0.25
 40
0.5
 40
0.5
 40
0.5
 40
0.75
 40
0.75
 40
0.75
 40
1.0
 40
1.0
 40
1.0
 40
1.0
 10
-200.9396
 20
-29.8195
 30
0.0
 10
-200.9396
 20
-29.8195
 30
0.0
 10
-200.9396
 20
-21.3295
 30
0.0
 10
-200.9396
 20
-21.3295
 30
0.0
 10
-200.9396
 20
-21.3295
 30
0.0
 10
-201.5596
 20
-21.3295
 30
0.0
 10
-201.5596
 20
-21.3295
 30
0.0
 10
-201.5596
 20
-21.3295
 30
0.0
 10
-201.5596
 20
-29.8195
 30
0.0
 10
-201.5596
 20
-29.8195
 30
0.0
 10
-201.5596
 20
-29.8195
 30
0.0
 10
-200.9396
 20
-29.8195
 30
0.0
 10
-200.9396
 20
-29.8195
 30
0.0
  0
SPLINE
  5
71
330
1F
100
AcDbEntity
  8
0
 62
   250
100
AcDbSpline
210
0.0
220
0.0
230
1.0
 70
    11
 71
     3
 72
    17
 73
    13
 74
     0
 42
0.0000000001
 43
0.0000000001
 40
0.0
 40
0.0
 40
0.0
 40
0.0
 40
0.25
 40
0.25
 40
0.25
 40
0.5
 40
0.5
 40
0.5
 40
0.75
 40
0.75
 40
0.75
 40
1.0
 40
1.0
 40
1.0
 40
1.0
 10
-234.9846
 20
17.0005
 30
0.0
 10
-234.9846
 20
17.0005
 30
0.0
 10
-234.9846
 20
17.6205
 30
0.0
 10
-234.9846
 20
17.6205
 30
0.0
 10
-234.9846
 20
17.6205
 30
0.0
 10
-243.4746
 20
17.6205
 30
0.0
 10
-243.4746
 20
17.6205
 30
0.0
 10
-243.4746
 20
17.6205
 30
0.0
 10
-243.4746
 20
17.0005
 30
0.0
 10
-243.4746
 20
17.0005
 30
0.0
 10
-243.4746
 20
17.0005
 30
0.0
 10
-234.9846
 20
17.0005
 30
0.0
 10
-234.9846
 20
17.0005
 30
0.0
  0
SPLINE
  5
72
330
1F
100
AcDbEntity
  8
0
 62
   250
100
AcDbSpline
210
0.0
220
0.0
230
1.0
 70
    11
 71
     3
 72
    17
 73
    13
 74
     0
 42
0.0000000001
 43
0.0000000001
 40
0.0
 40
0.0
 40
0.0
 40
0.0
 40
0.25
 40
0.25
 40
0.25
 40
0.5
 40
0.5
 40
0.5
 40
0.75
 40
0.75
 40
0.75
 40
1.0
 40
1.0
 40
1.0
 40
1.0
 10
-276.8996
 20
-29.8195
 30
0.0
 10
-276.8996
 20
-29.8195
 30
0.0
 10
-276.8996
 20
-21.3295
 30
0.0
 10
-276.8996
 20
-21.3295
 30
0.0
 10
-276.8996
 20
-21.3295
 30
0.0
 10
-277.5196
 20
-21.3295
 30
0.0
 10
-277.5196
 20
-21.3295
 30
0.0
 10
-277.5196
 20
-21.3295
 30
0.0
 10
-277.5196
 20
-29.8195
 30
0.0
 10
-277.5196
 20
-29.8195
 30
0.0
 10
-277.5196
 20
-29.8195
 30
0.0
 10
-276.8996
 20
-29.8195
 30
0.0
 10
-276.8996
 20
-29.8195
 30
0.0
  0
SPLINE
  5
73
330
1F
100
AcDbEntity
  8
0
 62
   250
100
AcDbSpline
210
0.0
220
0.0
230
1.0
 70
    11
 71
     3
 72
    17
 73
    13
 74
     0
 42
0.0000000001
 43
0.0000000001
 40
0.0
 40
0.0
 40
0.0
 40
0.0
 40
0.25
 40
0.25
 40
0.25
 40
0.5
 40
0.5
 40
0.5
 40
0.75
 40
0.75
 40
0.75
 40
1.0
 40
1.0
 40
1.0
 40
1.0
 10
-210.7196
 20
-140.4595
 30
0.0
 10
-210.7196
 20
-140.4595
 30
0.0
 10
-202.2296
 20
-140.4595
 30
0.0
 10
-202.2296
 20
-140.4595
 30
0.0
 10
-202.2296
 20
-140.4595
 30
0.0
 10
-202.2296
 20
-139.8395
 30
0.0
 10
-202.2296
 20
-139.8395
 30
0.0
 10
-202.2296
 20
-139.8395
 30
0.0
 10
-210.7196
 20
-139.8395
 30
0.0
 10
-210.7196
 20
-139.8395
 30
0.0
 10
-210.7196
 20
-139.8395
 30
0.0
 10
-210.7196
 20
-140.4595
 30
0.0
 10
-210.7196
 20
-140.4595
 30
0.0
  0
SPLINE
  5
74
330
1F
100
AcDbEntity
  8
0
 62
   250
100
AcDbSpline
210
0.0
220
0.0
230
1.0
 70
    11
 71
     3
 72
    23
 73
    19
 74
     0
 42
0.0000000001
 43
0.0000000001
 40
0.0
 40
0.0
 40
0.0
 40
0.0
 40
0.1666666666666667
 40
0.1666666666666667
 40
0.1666666666666667
 40
0.3333333333333333
 40
0.3333333333333333
 40
0.3333333333333333
 40
0.5
 40
0.5
 40
0.5
 40
0.6666666666666666
 40
0.6666666666666666
 40
0.6666666666666666
 40
0.8333333333333333
 40
0.8333333333333333
 40
0.8333333333333333
 40
1.0
 40
1.0
 40
1.0
 40
1.0
 10
-200.3596
 20
-97.4695
 30
0.0
 10
-200.3596
 20
-97.4695
 30
0.0
 10
-200.3596
 20
-51.1495
 30
0.0
 10
-200.3596
 20
-51.1495
 30
0.0
 10
-200.3596
 20
-51.1495
 30
0.0
 10
-207.9443
 20
-51.1495
 30
0.0
 10
-207.9443
 20
-51.1495
 30
0.0
 10
-207.9443
 20
-51.1495
 30
0.0
 10
-207.9443
 20
-22.7895
 30
0.0
 10
-207.9443
 20
-22.7895
 30
0.0
 10
-207.9443
 20
-22.7895
 30
0.0
 10
-212.1996
 20
-22.7895
 30
0.0
 10
-212.1996
 20
-22.7895
 30
0.0
 10
-212.1996
 20
-22.7895
 30
0.0
 10
-212.1996
 20
-97.4695
 30
0.0
 10
-212.1996
 20
-97.4695
 30
0.0
 10
-212.1996
 20
-97.4695
 30
0.0
 10
-200.3596
 20
-97.4695
 30
0.0
 10
-200.3596
 20
-97.4695
 30
0.0
  0
SPLINE
  5
75
330
1F
100
AcDbEntity
  8
0
 62
   250
100
AcDbSpline
210
0.0
220
0.0
230
1.0
 70
    11
 71
     3
 72
    17
 73
    13
 74
     0
 42
0.0000000001
 43
0.0000000001
 40
0.0
 40
0.0
 40
0.0
 40
0.0
 40
0.25
 40
0.25
 40
0.25
 40
0.5
 40
0.5
 40
0.5
 40
0.75
 40
0.75
 40
0.75
 40
1.0
 40
1.0
 40
1.0
 40
1.0
 10
-247.9696
 20
7.9905
 30
0.0
 10
-247.9696
 20
7.9905
 30
0.0
 10
-247.9696
 20
10.5905
 30
0.0
 10
-247.9696
 20
10.5905
 30
0.0
 10
-247.9696
 20
10.5905
 30
0.0
 10
-253.5696
 20
10.5905
 30
0.0
 10
-253.5696
 20
10.5905
 30
0.0
 10
-253.5696
 20
10.5905
 30
0.0
 10
-253.5696
 20
7.9905
 30
0.0
 10
-253.5696
 20
7.9905
 30
0.0
 10
-253.5696
 20
7.9905
 30
0.0
 10
-247.9696
 20
7.9905
 30
0.0
 10
-247.9696
 20
7.9905
 30
0.0
  0
SPLINE
  5
76
330
1F
100
AcDbEntity
  8
0
 62
   250
100
AcDbSpline
210
0.0
220
0.0
230
1.0
 70
    11
 71
     3
 72
    17
 73
    13
 74
     0
 42
0.0000000001
 43
0.0000000001
 40
0.0
 40
0.0
 40
0.0
 40
0.0
 40
0.25
 40
0.25
 40
0.25
 40
0.5
 40
0.5
 40
0.5
 40
0.75
 40
0.75
 40
0.75
 40
1.0
 40
1.0
 40
1.0
 40
1.0
 10
-216.4296
 20
-139.9695
 30
0.0
 10
-216.4296
 20
-139.9695
 30
0.0
 10
-216.4296
 20
-134.3695
 30
0.0
 10
-216.4296
 20
-134.3695
 30
0.0
 10
-216.4296
 20
-134.3695
 30
0.0
 10
-219.0296
 20
-134.3695
 30
0.0
 10
-219.0296
 20
-134.3695
 30
0.0
 10
-219.0296
 20
-134.3695
 30
0.0
 10
-219.0296
 20
-139.9695
 30
0.0
 10
-219.0296
 20
-139.9695
 30
0.0
 10
-219.0296
 20
-139.9695
 30
0.0
 10
-216.4296
 20
-139.9695
 30
0.0
 10
-216.4296
 20
-139.9695
 30
0.0
  0
SPLINE
  5
77
330
1F
100
AcDbEntity
  8
0
 62
   250
100
AcDbSpline
210
0.0
220
0.0
230
1.0
 70
    11
 71
     3
 72
    17
 73
    13
 74
     0
 42
0.0000000001
 43
0.0000000001
 40
0.0
 40
0.0
 40
0.0
 40
0.0
 40
0.25
 40
0.25
 40
0.25
 40
0.5
 40
0.5
 40
0.5
 40
0.75
 40
0.75
 40
0.75
 40
1.0
 40
1.0
 40
1.0
 40
1.0
 10
-262.0296
 20
-89.3695
 30
0.0
 10
-262.0296
 20
-89.3695
 30
0.0
 10
-262.0296
 20
-94.9695
 30
0.0
 10
-262.0296
 20
-94.9695
 30
0.0
 10
-262.0296
 20
-94.9695
 30
0.0
 10
-259.4296
 20
-94.9695
 30
0.0
 10
-259.4296
 20
-94.9695
 30
0.0
 10
-259.4296
 20
-94.9695
 30
0.0
 10
-259.4296
 20
-89.3695
 30
0.0
 10
-259.4296
 20
-89.3695
 30
0.0
 10
-259.4296
 20
-89.3695
 30
0.0
 10
-262.0296
 20
-89.3695
 30
0.0
 10
-262.0296
 20
-89.3695
 30
0.0
  0
SPLINE
  5
78
330
1F
100
AcDbEntity
  8
0
 62
   250
100
AcDbSpline
210
0.0
220
0.0
230
1.0
 70
    11
 71
     3
 72
    17
 73
    13
 74
     0
 42
0.0000000001
 43
0.0000000001
 40
0.0
 40
0.0
 40
0.0
 40
0.0
 40
0.25
 40
0.25
 40
0.25
 40
0.5
 40
0.5
 40
0.5
 40
0.75
 40
0.75
 40
0.75
 40
1.0
 40
1.0
 40
1.0
 40
1.0
 10
-249.4296
 20
-89.3695
 30
0.0
 10
-249.4296
 20
-89.3695
 30
0.0
 10
-255.0296
 20
-89.3695
 30
0.0
 10
-255.0296
 20
-89.3695
 30
0.0
 10
-255.0296
 20
-89.3695
 30
0.0
 10
-255.0296
 20
-91.9695
 30
0.0
 10
-255.0296
 20
-91.9695
 30
0.0
 10
-255.0296
 20
-91.9695
 30
0.0
 10
-249.4296
 20
-91.9695
 30
0.0
 10
-249.4296
 20
-91.9695
 30
0.0
 10
-249.4296
 20
-91.9695
 30
0.0
 10
-249.4296
 20
-89.3695
 30
0.0
 10
-249.4296
 20
-89.3695
 30
0.0
  0
SPLINE
  5
79
330
1F
100
AcDbEntity
  8
0
 62
   250
100
AcDbSpline
210
0.0
220
0.0
230
1.0
 70
    11
 71
     3
 72
    17
 73
    13
 74
     0
 42
0.0000000001
 43
0.0000000001
 40
0.0
 40
0.0
 40
0.0
 40
0.0
 40
0.25
 40
0.25
 40
0.25
 40
0.5
 40
0.5
 40
0.5
 40
0.75
 40
0.75
 40
0.75
 40
1.0
 40
1.0
 40
1.0
 40
1.0
 10
-229.0296
 20
-139.9695
 30
0.0
 10
-229.0296
 20
-139.9695
 30
0.0
 10
-223.4296
 20
-139.9695
 30
0.0
 10
-223.4296
 20
-139.9695
 30
0.0
 10
-223.4296
 20
-139.9695
 30
0.0
 10
-223.4296
 20
-137.3695
 30
0.0
 10
-223.4296
 20
-137.3695
 30
0.0
 10
-223.4296
 20
-137.3695
 30
0.0
 10
-229.0296
 20
-137.3695
 30
0.0
 10
-229.0296
 20
-137.3695
 30
0.0
 10
-229.0296
 20
-137.3695
 30
0.0
 10
-229.0296
 20
-139.9695
 30
0.0
 10
-229.0296
 20
-139.9695
 30
0.0
  0
SPLINE
  5
7A
330
1F
100
AcDbEntity
  8
0
 62
   250
100
AcDbSpline
210
0.0
220
0.0
230
1.0
 70
    11
 71
     3
 72
    17
 73
    13
 74
     0
 42
0.0000000001
 43
0.0000000001
 40
0.0
 40
0.0
 40
0.0
 40
0.0
 40
0.25
 40
0.25
 40
0.25
 40
0.5
 40
0.5
 40
0.5
 40
0.75
 40
0.75
 40
0.75
 40
1.0
 40
1.0
 40
1.0
 40
1.0
 10
-224.8896
 20
7.9905
 30
0.0
 10
-224.8896
 20
7.9905
 30
0.0
 10
-224.8896
 20
10.5905
 30
0.0
 10
-224.8896
 20
10.5905
 30
0.0
 10
-224.8896
 20
10.5905
 30
0.0
 10
-230.4896
 20
10.5905
 30
0.0
 10
-230.4896
 20
10.5905
 30
0.0
 10
-230.4896
 20
10.5905
 30
0.0
 10
-230.4896
 20
7.9905
 30
0.0
 10
-230.4896
 20
7.9905
 30
0.0
 10
-230.4896
 20
7.9905
 30
0.0
 10
-224.8896
 20
7.9905
 30
0.0
 10
-224.8896
 20
7.9905
 30
0.0
  0
SPLINE
  5
7B
330
1F
100
AcDbEntity
  8
0
 62
   250
100
AcDbSpline
210
0.0
220
0.0
230
1.0
 70
    11
 71
     3
 72
    17
 73
    13
 74
     0
 42
0.0000000001
 43
0.0000000001
 40
0.0
 40
0.0
 40
0.0
 40
0.0
 40
0.25
 40
0.25
 40
0.25
 40
0.5
 40
0.5
 40
0.5
 40
0.75
 40
0.75
 40
0.75
 40
1.0
 40
1.0
 40
1.0
 40
1.0
 10
-259.4296
 20
-139.9695
 30
0.0
 10
-259.4296
 20
-139.9695
 30
0.0
 10
-259.4296
 20
-134.3695
 30
0.0
 10
-259.4296
 20
-134.3695
 30
0.0
 10
-259.4296
 20
-134.3695
 30
0.0
 10
-262.0296
 20
-134.3695
 30
0.0
 10
-262.0296
 20
-134.3695
 30
0.0
 10
-262.0296
 20
-134.3695
 30
0.0
 10
-262.0296
 20
-139.9695
 30
0.0
 10
-262.0296
 20
-139.9695
 30
0.0
 10
-262.0296
 20
-139.9695
 30
0.0
 10
-259.4296
 20
-139.9695
 30
0.0
 10
-259.4296
 20
-139.9695
 30
0.0
  0
SPLINE
  5
7C
330
1F
100
AcDbEntity
  8
0
 62
   250
100
AcDbSpline
210
0.0
220
0.0
230
1.0
 70
    11
 71
     3
 72
    17
 73
    13
 74
     0
 42
0.0000000001
 43
0.0000000001
 40
0.0
 40
0.0
 40
0.0
 40
0.0
 40
0.25
 40
0.25
 40
0.25
 40
0.5
 40
0.5
 40
0.5
 40
0.75
 40
0.75
 40
0.75
 40
1.0
 40
1.0
 40
1.0
 40
1.0
 10
-249.1596
 20
-112.6295
 30
0.0
 10
-249.1596
 20
-111.5249
 30
0.0
 10
-250.055
 20
-110.6295
 30
0.0
 10
-251.1596
 20
-110.6295
 30
0.0
 10
-252.2642
 20
-110.6295
 30
0.0
 10
-253.1596
 20
-111.5249
 30
0.0
 10
-253.1596
 20
-112.6295
 30
0.0
 10
-253.1596
 20
-113.7341
 30
0.0
 10
-252.2642
 20
-114.6295
 30
0.0
 10
-251.1596
 20
-114.6295
 30
0.0
 10
-250.0549
 20
-114.6295
 30
0.0
 10
-249.1596
 20
-113.7342
 30
0.0
 10
-249.1596
 20
-112.6295
 30
0.0
  0
SPLINE
  5
7D
330
1F
100
AcDbEntity
  8
0
 62
   250
100
AcDbSpline
210
0.0
220
0.0
230
1.0
 70
    11
 71
     3
 72
    17
 73
    13
 74
     0
 42
0.0000000001
 43
0.0000000001
 40
0.0
 40
0.0
 40
0.0
 40
0.0
 40
0.25
 40
0.25
 40
0.25
 40
0.5
 40
0.5
 40
0.5
 40
0.75
 40
0.75
 40
0.75
 40
1.0
 40
1.0
 40
1.0
 40
1.0
 10
-225.4796
 20
-112.6295
 30
0.0
 10
-225.4796
 20
-111.6243
 30
0.0
 10
-226.2944
 20
-110.8095
 30
0.0
 10
-227.2996
 20
-110.8095
 30
0.0
 10
-228.3048
 20
-110.8095
 30
0.0
 10
-229.1196
 20
-111.6243
 30
0.0
 10
-229.1196
 20
-112.6295
 30
0.0
 10
-229.1196
 20
-113.6347
 30
0.0
 10
-228.3048
 20
-114.4495
 30
0.0
 10
-227.2996
 20
-114.4495
 30
0.0
 10
-226.2944
 20
-114.4495
 30
0.0
 10
-225.4796
 20
-113.6347
 30
0.0
 10
-225.4796
 20
-112.6295
 30
0.0
  0
SPLINE
  5
7E
330
1F
100
AcDbEntity
  8
0
 62
   250
100
AcDbSpline
210
0.0
220
0.0
230
1.0
 70
    11
 71
     3
 72
    17
 73
    13
 74
     0
 42
0.0000000001
 43
0.0000000001
 40
0.0
 40
0.0
 40
0.0
 40
0.0
 40
0.25
 40
0.25
 40
0.25
 40
0.5
 40
0.5
 40
0.5
 40
0.75
 40
0.75
 40
0.75
 40
1.0
 40
1.0
 40
1.0
 40
1.0
 10
-225.2996
 20
-72.5895
 30
0.0
 10
-225.2996
 20
-71.4849
 30
0.0
 10
-226.195
 20
-70.5895
 30
0.0
 10
-227.2996
 20
-70.5895
 30
0.0
 10
-228.4042
 20
-70.5895
 30
0.0
 10
-229.2996
 20
-71.4849
 30
0.0
 10
-229.2996
 20
-72.5895
 30
0.0
 10
-229.2996
 20
-73.6941
 30
0.0
 10
-228.4042
 20
-74.5895
 30
0.0
 10
-227.2996
 20
-74.5895
 30
0.0
 10
-226.1949
 20
-74.5895
 30
0.0
 10
-225.2996
 20
-73.6942
 30
0.0
 10
-225.2996
 20
-72.5895
 30
0.0
  0
SPLINE
  5
7F
330
1F
100
AcDbEntity
  8
0
 62
   250
100
AcDbSpline
210
0.0
220
0.0
230
1.0
 70
    11
 71
     3
 72
    17
 73
    13
 74
     0
 42
0.0000000001
 43
0.0000000001
 40
0.0
 40
0.0
 40
0.0
 40
0.0
 40
0.25
 40
0.25
 40
0.25
 40
0.5
 40
0.5
 40
0.5
 40
0.75
 40
0.75
 40
0.75
 40
1.0
 40
1.0
 40
1.0
 40
1.0
 10
-249.1596
 20
-72.5895
 30
0.0
 10
-249.1596
 20
-71.4849
 30
0.0
 10
-250.055
 20
-70.5895
 30
0.0
 10
-251.1596
 20
-70.5895
 30
0.0
 10
-252.2642
 20
-70.5895
 30
0.0
 10
-253.1596
 20
-71.4849
 30
0.0
 10
-253.1596
 20
-72.5895
 30
0.0
 10
-253.1596
 20
-73.6941
 30
0.0
 10
-252.2642
 20
-74.5895
 30
0.0
 10
-251.1596
 20
-74.5895
 30
0.0
 10
-250.0549
 20
-74.5895
 30
0.0
 10
-249.1596
 20
-73.6942
 30
0.0
 10
-249.1596
 20
-72.5895
 30
0.0
  0
SPLINE
  5
80
330
1F
100
AcDbEntity
  8
0
 62
   250
100
AcDbSpline
210
0.0
220
0.0
230
1.0
 70
    11
 71
     3
 72
    32
 73
    28
 74
     0
 42
0.0000000001
 43
0.0000000001
 40
0.0
 40
0.0
 40
0.0
 40
0.0
 40
0.1111111111111111
 40
0.1111111111111111
 40
0.1111111111111111
 40
0.2222222222222222
 40
0.2222222222222222
 40
0.2222222222222222
 40
0.3333333333333333
 40
0.3333333333333333
 40
0.3333333333333333
 40
0.4444444444444444
 40
0.4444444444444444
 40
0.4444444444444444
 40
0.5555555555555556
 40
0.5555555555555556
 40
0.5555555555555556
 40
0.6666666666666666
 40
0.6666666666666666
 40
0.6666666666666666
 40
0.7777777777777777
 40
0.7777777777777777
 40
0.7777777777777777
 40
0.8888888888888888
 40
0.8888888888888888
 40
0.8888888888888888
 40
1.0
 40
1.0
 40
1.0
 40
1.0
 10
-239.5296
 20
-9.3395
 30
0.0
 10
-239.5296
 20
-9.3395
 30
0.0
 10
-239.5296
 20
-10.389
 30
0.0
 10
-239.5296
 20
-10.389
 30
0.0
 10
-239.5296
 20
-10.389
 30
0.0
 10
-239.6296
 20
-10.4467
 30
0.0
 10
-239.6296
 20
-10.4467
 30
0.0
 10
-239.9432
 20
-10.6277
 30
0.0
 10
-240.096
 20
-10.9968
 30
0.0
 10
-240.0023
 20
-11.3465
 30
0.0
 10
-239.9086
 20
-11.6963
 30
0.0
 10
-239.5917
 20
-11.9395
 30
0.0
 10
-239.2296
 20
-11.9395
 30
0.0
 10
-238.8675
 20
-11.9395
 30
0.0
 10
-238.5506
 20
-11.6963
 30
0.0
 10
-238.4569
 20
-11.3465
 30
0.0
 10
-238.3632
 20
-10.9968
 30
0.0
 10
-238.516
 20
-10.6277
 30
0.0
 10
-238.8296
 20
-10.4467
 30
0.0
 10
-238.8296
 20
-10.4467
 30
0.0
 10
-238.9296
 20
-10.389
 30
0.0
 10
-238.9296
 20
-10.389
 30
0.0
 10
-238.9296
 20
-10.389
 30
0.0
 10
-238.9296
 20
-9.3395
 30
0.0
 10
-238.9296
 20
-9.3395
 30
0.0
 10
-238.9296
 20
-9.3395
 30
0.0
 10
-239.5296
 20
-9.3395
 30
0.0
 10
-239.5296
 20
-9.3395
 30
0.0
  0
SPLINE
  5
81
330
1F
100
AcDbEntity
  8
0
 62
   250
100
AcDbSpline
210
0.0
220
0.0
230
1.0
 70
    11
 71
     3
 72
    32
 73
    28
 74
     0
 42
0.0000000001
 43
0.0000000001
 40
0.0
 40
0.0
 40
0.0
 40
0.0
 40
0.1111111111111111
 40
0.1111111111111111
 40
0.1111111111111111
 40
0.2222222222222222
 40
0.2222222222222222
 40
0.2222222222222222
 40
0.3333333333333333
 40
0.3333333333333333
 40
0.3333333333333333
 40
0.4444444444444444
 40
0.4444444444444444
 40
0.4444444444444444
 40
0.5555555555555556
 40
0.5555555555555556
 40
0.5555555555555556
 40
0.6666666666666666
 40
0.6666666666666666
 40
0.6666666666666666
 40
0.7777777777777777
 40
0.7777777777777777
 40
0.7777777777777777
 40
0.8888888888888888
 40
0.8888888888888888
 40
0.8888888888888888
 40
1.0
 40
1.0
 40
1.0
 40
1.0
 10
-239.5296
 20
-41.1895
 30
0.0
 10
-239.5296
 20
-41.1895
 30
0.0
 10
-238.9296
 20
-41.1895
 30
0.0
 10
-238.9296
 20
-41.1895
 30
0.0
 10
-238.9296
 20
-41.1895
 30
0.0
 10
-238.9296
 20
-40.14
 30
0.0
 10
-238.9296
 20
-40.14
 30
0.0
 10
-238.9296
 20
-40.14
 30
0.0
 10
-238.8296
 20
-40.0823
 30
0.0
 10
-238.8296
 20
-40.0823
 30
0.0
 10
-238.516
 20
-39.9012
 30
0.0
 10
-238.3632
 20
-39.5323
 30
0.0
 10
-238.4569
 20
-39.1825
 30
0.0
 10
-238.5506
 20
-38.8327
 30
0.0
 10
-238.8675
 20
-38.5895
 30
0.0
 10
-239.2296
 20
-38.5895
 30
0.0
 10
-239.5917
 20
-38.5895
 30
0.0
 10
-239.9086
 20
-38.8327
 30
0.0
 10
-240.0023
 20
-39.1825
 30
0.0
 10
-240.096
 20
-39.5323
 30
0.0
 10
-239.9432
 20
-39.9012
 30
0.0
 10
-239.6296
 20
-40.0823
 30
0.0
 10
-239.6296
 20
-40.0823
 30
0.0
 10
-239.5296
 20
-40.14
 30
0.0
 10
-239.5296
 20
-40.14
 30
0.0
 10
-239.5296
 20
-40.14
 30
0.0
 10
-239.5296
 20
-41.1895
 30
0.0
 10
-239.5296
 20
-41.1895
 30
0.0
  0
SPLINE
  5
82
330
1F
100
AcDbEntity
  8
0
 62
   250
100
AcDbSpline
210
0.0
220
0.0
230
1.0
 70
    11
 71
     3
 72
    17
 73
    13
 74
     0
 42
0.0000000001
 43
0.0000000001
 40
0.0
 40
0.0
 40
0.0
 40
0.0
 40
0.25
 40
0.25
 40
0.25
 40
0.5
 40
0.5
 40
0.5
 40
0.75
 40
0.75
 40
0.75
 40
1.0
 40
1.0
 40
1.0
 40
1.0
 10
-220.2496
 20
-23.1919
 30
0.0
 10
-220.2496
 20
-23.1919
 30
0.0
 10
-221.4196
 20
-23.1919
 30
0.0
 10
-221.4196
 20
-23.1919
 30
0.0
 10
-221.4196
 20
-23.1919
 30
0.0
 10
-221.4196
 20
-49.7919
 30
0.0
 10
-221.4196
 20
-49.7919
 30
0.0
 10
-221.4196
 20
-49.7919
 30
0.0
 10
-220.2496
 20
-49.7919
 30
0.0
 10
-220.2496
 20
-49.7919
 30
0.0
 10
-220.2496
 20
-49.7919
 30
0.0
 10
-220.2496
 20
-23.1919
 30
0.0
 10
-220.2496
 20
-23.1919
 30
0.0
  0
SPLINE
  5
83
330
1F
100
AcDbEntity
  8
0
 62
   250
100
AcDbSpline
210
0.0
220
0.0
230
1.0
 70
    11
 71
     3
 72
    23
 73
    19
 74
     0
 42
0.0000000001
 43
0.0000000001
 40
0.0
 40
0.0
 40
0.0
 40
0.0
 40
0.1666666666666667
 40
0.1666666666666667
 40
0.1666666666666667
 40
0.3333333333333333
 40
0.3333333333333333
 40
0.3333333333333333
 40
0.5
 40
0.5
 40
0.5
 40
0.6666666666666666
 40
0.6666666666666666
 40
0.6666666666666666
 40
0.8333333333333333
 40
0.8333333333333333
 40
0.8333333333333333
 40
1.0
 40
1.0
 40
1.0
 40
1.0
 10
-235.9738
 20
-43.3695
 30
0.0
 10
-235.9738
 20
-43.3695
 30
0.0
 10
-242.4853
 20
-43.3695
 30
0.0
 10
-242.4853
 20
-43.3695
 30
0.0
 10
-244.0755
 20
-44.448
 30
0.0
 10
-245.0296
 20
-46.2455
 30
0.0
 10
-245.0296
 20
-48.1695
 30
0.0
 10
-245.0296
 20
-50.0935
 30
0.0
 10
-244.0756
 20
-51.891
 30
0.0
 10
-242.4853
 20
-52.9695
 30
0.0
 10
-242.4853
 20
-52.9695
 30
0.0
 10
-235.9739
 20
-52.9695
 30
0.0
 10
-235.9739
 20
-52.9695
 30
0.0
 10
-234.3836
 20
-51.891
 30
0.0
 10
-233.4296
 20
-50.0935
 30
0.0
 10
-233.4296
 20
-48.1695
 30
0.0
 10
-233.4296
 20
-46.2455
 30
0.0
 10
-234.3837
 20
-44.4481
 30
0.0
 10
-235.9738
 20
-43.3695
 30
0.0
  0
SPLINE
  5
84
330
1F
100
AcDbEntity
  8
0
 62
   250
100
AcDbSpline
210
0.0
220
0.0
230
1.0
 70
    11
 71
     3
 72
    17
 73
    13
 74
     0
 42
0.0000000001
 43
0.0000000001
 40
0.0
 40
0.0
 40
0.0
 40
0.0
 40
0.25
 40
0.25
 40
0.25
 40
0.5
 40
0.5
 40
0.5
 40
0.75
 40
0.75
 40
0.75
 40
1.0
 40
1.0
 40
1.0
 40
1.0
 10
-249.4296
 20
-139.9695
 30
0.0
 10
-249.4296
 20
-139.9695
 30
0.0
 10
-249.4296
 20
-137.3695
 30
0.0
 10
-249.4296
 20
-137.3695
 30
0.0
 10
-249.4296
 20
-137.3695
 30
0.0
 10
-255.0296
 20
-137.3695
 30
0.0
 10
-255.0296
 20
-137.3695
 30
0.0
 10
-255.0296
 20
-137.3695
 30
0.0
 10
-255.0296
 20
-139.9695
 30
0.0
 10
-255.0296
 20
-139.9695
 30
0.0
 10
-255.0296
 20
-139.9695
 30
0.0
 10
-249.4296
 20
-139.9695
 30
0.0
 10
-249.4296
 20
-139.9695
 30
0.0
  0
SPLINE
  5
85
330
1F
100
AcDbEntity
  8
0
 62
   250
100
AcDbSpline
210
0.0
220
0.0
230
1.0
 70
    11
 71
     3
 72
    74
 73
    70
 74
     0
 42
0.0000000001
 43
0.0000000001
 40
0.0
 40
0.0
 40
0.0
 40
0.0
 40
0.0434782608695652
 40
0.0434782608695652
 40
0.0434782608695652
 40
0.0869565217391304
 40
0.0869565217391304
 40
0.0869565217391304
 40
0.1304347826086956
 40
0.1304347826086956
 40
0.1304347826086956
 40
0.1739130434782609
 40
0.1739130434782609
 40
0.1739130434782609
 40
0.2173913043478261
 40
0.2173913043478261
 40
0.2173913043478261
 40
0.2608695652173913
 40
0.2608695652173913
 40
0.2608695652173913
 40
0.3043478260869565
 40
0.3043478260869565
 40
0.3043478260869565
 40
0.3478260869565217
 40
0.3478260869565217
 40
0.3478260869565217
 40
0.3913043478260869
 40
0.3913043478260869
 40
0.3913043478260869
 40
0.4347826086956522
 40
0.4347826086956522
 40
0.4347826086956522
 40
0.4782608695652174
 40
0.4782608695652174
 40
0.4782608695652174
 40
0.5217391304347826
 40
0.5217391304347826
 40
0.5217391304347826
 40
0.5652173913043478
 40
0.5652173913043478
 40
0.5652173913043478
 40
0.6086956521739131
 40
0.6086956521739131
 40
0.6086956521739131
 40
0.6521739130434783
 40
0.6521739130434783
 40
0.6521739130434783
 40
0.6956521739130435
 40
0.6956521739130435
 40
0.6956521739130435
 40
0.7391304347826086
 40
0.7391304347826086
 40
0.7391304347826086
 40
0.7826086956521738
 40
0.7826086956521738
 40
0.7826086956521738
 40
0.8260869565217391
 40
0.8260869565217391
 40
0.8260869565217391
 40
0.8695652173913043
 40
0.8695652173913043
 40
0.8695652173913043
 40
0.9130434782608695
 40
0.9130434782608695
 40
0.9130434782608695
 40
0.9565217391304348
 40
0.9565217391304348
 40
0.9565217391304348
 40
1.0
 40
1.0
 40
1.0
 40
1.0
 10
-232.9296
 20
-40.9695
 30
0.0
 10
-232.9296
 20
-40.9695
 30
0.0
 10
-230.3296
 20
-40.9695
 30
0.0
 10
-230.3296
 20
-40.9695
 30
0.0
 10
-230.3296
 20
-40.9695
 30
0.0
 10
-230.3296
 20
-35.3695
 30
0.0
 10
-230.3296
 20
-35.3695
 30
0.0
 10
-230.3296
 20
-35.3695
 30
0.0
 10
-233.3296
 20
-35.3695
 30
0.0
 10
-233.3296
 20
-35.3695
 30
0.0
 10
-233.3296
 20
-35.3695
 30
0.0
 10
-233.3296
 20
-14.4145
 30
0.0
 10
-233.3296
 20
-14.4145
 30
0.0
 10
-233.3296
 20
-14.335
 30
0.0
 10
-233.3612
 20
-14.2586
 30
0.0
 10
-233.4174
 20
-14.2024
 30
0.0
 10
-233.4737
 20
-14.1462
 30
0.0
 10
-233.55
 20
-14.1145
 30
0.0
 10
-233.6296
 20
-14.1145
 30
0.0
 10
-233.6296
 20
-14.1145
 30
0.0
 10
-244.8296
 20
-14.1145
 30
0.0
 10
-244.8296
 20
-14.1145
 30
0.0
 10
-244.9092
 20
-14.1145
 30
0.0
 10
-244.9854
 20
-14.1462
 30
0.0
 10
-245.0417
 20
-14.2024
 30
0.0
 10
-245.0979
 20
-14.2587
 30
0.0
 10
-245.1296
 20
-14.3349
 30
0.0
 10
-245.1296
 20
-14.4145
 30
0.0
 10
-245.1296
 20
-14.4145
 30
0.0
 10
-245.1296
 20
-35.3695
 30
0.0
 10
-245.1296
 20
-35.3695
 30
0.0
 10
-245.1296
 20
-35.3695
 30
0.0
 10
-248.1296
 20
-35.3695
 30
0.0
 10
-248.1296
 20
-35.3695
 30
0.0
 10
-248.1296
 20
-35.3695
 30
0.0
 10
-248.1296
 20
-40.9695
 30
0.0
 10
-248.1296
 20
-40.9695
 30
0.0
 10
-248.1296
 20
-40.9695
 30
0.0
 10
-245.5296
 20
-40.9695
 30
0.0
 10
-245.5296
 20
-40.9695
 30
0.0
 10
-245.5296
 20
-40.9695
 30
0.0
 10
-245.5296
 20
-35.9145
 30
0.0
 10
-245.5296
 20
-35.9145
 30
0.0
 10
-245.5296
 20
-35.9145
 30
0.0
 10
-245.1296
 20
-35.9145
 30
0.0
 10
-245.1296
 20
-35.9145
 30
0.0
 10
-245.1296
 20
-35.9145
 30
0.0
 10
-245.1296
 20
-36.1145
 30
0.0
 10
-245.1296
 20
-36.1145
 30
0.0
 10
-245.1296
 20
-36.1941
 30
0.0
 10
-245.0979
 20
-36.2704
 30
0.0
 10
-245.0417
 20
-36.3267
 30
0.0
 10
-244.9855
 20
-36.3829
 30
0.0
 10
-244.9091
 20
-36.4145
 30
0.0
 10
-244.8296
 20
-36.4145
 30
0.0
 10
-244.8296
 20
-36.4145
 30
0.0
 10
-233.6296
 20
-36.4145
 30
0.0
 10
-233.6296
 20
-36.4145
 30
0.0
 10
-233.4638
 20
-36.4145
 30
0.0
 10
-233.3296
 20
-36.2803
 30
0.0
 10
-233.3296
 20
-36.1145
 30
0.0
 10
-233.3296
 20
-36.1145
 30
0.0
 10
-233.3296
 20
-35.9145
 30
0.0
 10
-233.3296
 20
-35.9145
 30
0.0
 10
-233.3296
 20
-35.9145
 30
0.0
 10
-232.9296
 20
-35.9145
 30
0.0
 10
-232.9296
 20
-35.9145
 30
0.0
 10
-232.9296
 20
-35.9145
 30
0.0
 10
-232.9296
 20
-40.9695
 30
0.0
 10
-232.9296
 20
-40.9695
 30
0.0
  0
SPLINE
  5
86
330
1F
100
AcDbEntity
  8
0
 62
   250
100
AcDbSpline
210
0.0
220
0.0
230
1.0
 70
    11
 71
     3
 72
    17
 73
    13
 74
     0
 42
0.0000000001
 43
0.0000000001
 40
0.0
 40
0.0
 40
0.0
 40
0.0
 40
0.25
 40
0.25
 40
0.25
 40
0.5
 40
0.5
 40
0.5
 40
0.75
 40
0.75
 40
0.75
 40
1.0
 40
1.0
 40
1.0
 40
1.0
 10
-216.4296
 20
-89.3695
 30
0.0
 10
-216.4296
 20
-89.3695
 30
0.0
 10
-219.0296
 20
-89.3695
 30
0.0
 10
-219.0296
 20
-89.3695
 30
0.0
 10
-219.0296
 20
-89.3695
 30
0.0
 10
-219.0296
 20
-94.9695
 30
0.0
 10
-219.0296
 20
-94.9695
 30
0.0
 10
-219.0296
 20
-94.9695
 30
0.0
 10
-216.4296
 20
-94.9695
 30
0.0
 10
-216.4296
 20
-94.9695
 30
0.0
 10
-216.4296
 20
-94.9695
 30
0.0
 10
-216.4296
 20
-89.3695
 30
0.0
 10
-216.4296
 20
-89.3695
 30
0.0
  0
SPLINE
  5
87
330
1F
100
AcDbEntity
  8
0
 62
   250
100
AcDbSpline
210
0.0
220
0.0
230
1.0
 70
    11
 71
     3
 72
    17
 73
    13
 74
     0
 42
0.0000000001
 43
0.0000000001
 40
0.0
 40
0.0
 40
0.0
 40
0.0
 40
0.25
 40
0.25
 40
0.25
 40
0.5
 40
0.5
 40
0.5
 40
0.75
 40
0.75
 40
0.75
 40
1.0
 40
1.0
 40
1.0
 40
1.0
 10
-267.7396
 20
-140.4595
 30
0.0
 10
-267.7396
 20
-140.4595
 30
0.0
 10
-267.7396
 20
-139.8395
 30
0.0
 10
-267.7396
 20
-139.8395
 30
0.0
 10
-267.7396
 20
-139.8395
 30
0.0
 10
-276.2296
 20
-139.8395
 30
0.0
 10
-276.2296
 20
-139.8395
 30
0.0
 10
-276.2296
 20
-139.8395
 30
0.0
 10
-276.2296
 20
-140.4595
 30
0.0
 10
-276.2296
 20
-140.4595
 30
0.0
 10
-276.2296
 20
-140.4595
 30
0.0
 10
-267.7396
 20
-140.4595
 30
0.0
 10
-267.7396
 20
-140.4595
 30
0.0
  0
SPLINE
  5
88
330
1F
100
AcDbEntity
  8
0
 62
   250
100
AcDbSpline
210
0.0
220
0.0
230
1.0
 70
    11
 71
     3
 72
    17
 73
    13
 74
     0
 42
0.0000000001
 43
0.0000000001
 40
0.0
 40
0.0
 40
0.0
 40
0.0
 40
0.25
 40
0.25
 40
0.25
 40
0.5
 40
0.5
 40
0.5
 40
0.75
 40
0.75
 40
0.75
 40
1.0
 40
1.0
 40
1.0
 40
1.0
 10
-229.0296
 20
-89.3695
 30
0.0
 10
-229.0296
 20
-89.3695
 30
0.0
 10
-229.0296
 20
-91.9695
 30
0.0
 10
-229.0296
 20
-91.9695
 30
0.0
 10
-229.0296
 20
-91.9695
 30
0.0
 10
-223.4296
 20
-91.9695
 30
0.0
 10
-223.4296
 20
-91.9695
 30
0.0
 10
-223.4296
 20
-91.9695
 30
0.0
 10
-223.4296
 20
-89.3695
 30
0.0
 10
-223.4296
 20
-89.3695
 30
0.0
 10
-223.4296
 20
-89.3695
 30
0.0
 10
-229.0296
 20
-89.3695
 30
0.0
 10
-229.0296
 20
-89.3695
 30
0.0
  0
SPLINE
  5
89
330
1F
100
AcDbEntity
  8
0
 62
   250
100
AcDbSpline
210
0.0
220
0.0
230
1.0
 70
    11
 71
     3
 72
    44
 73
    40
 74
     0
 42
0.0000000001
 43
0.0000000001
 40
0.0
 40
0.0
 40
0.0
 40
0.0
 40
0.0769230769230769
 40
0.0769230769230769
 40
0.0769230769230769
 40
0.1538461538461539
 40
0.1538461538461539
 40
0.1538461538461539
 40
0.2307692307692308
 40
0.2307692307692308
 40
0.2307692307692308
 40
0.3076923076923077
 40
0.3076923076923077
 40
0.3076923076923077
 40
0.3846153846153846
 40
0.3846153846153846
 40
0.3846153846153846
 40
0.4615384615384616
 40
0.4615384615384616
 40
0.4615384615384616
 40
0.5384615384615385
 40
0.5384615384615385
 40
0.5384615384615385
 40
0.6153846153846154
 40
0.6153846153846154
 40
0.6153846153846154
 40
0.6923076923076923
 40
0.6923076923076923
 40
0.6923076923076923
 40
0.7692307692307693
 40
0.7692307692307693
 40
0.7692307692307693
 40
0.8461538461538463
 40
0.8461538461538463
 40
0.8461538461538463
 40
0.9230769230769231
 40
0.9230769230769231
 40
0.9230769230769231
 40
1.0
 40
1.0
 40
1.0
 40
1.0
 10
-203.2296
 20
-142.8695
 30
0.0
 10
-203.2296
 20
-142.8695
 30
0.0
 10
-275.2296
 20
-142.8695
 30
0.0
 10
-275.2296
 20
-142.8695
 30
0.0
 10
-276.3434
 20
-142.8695
 30
0.0
 10
-277.4118
 20
-142.427
 30
0.0
 10
-278.1994
 20
-141.6394
 30
0.0
 10
-278.9871
 20
-140.8518
 30
0.0
 10
-279.4296
 20
-139.7834
 30
0.0
 10
-279.4296
 20
-138.6695
 30
0.0
 10
-279.4296
 20
-138.6695
 30
0.0
 10
-279.4296
 20
-19.3602
 30
0.0
 10
-279.4296
 20
-19.3602
 30
0.0
 10
-279.4296
 20
-18.5184
 30
0.0
 10
-279.1764
 20
-17.6955
 30
0.0
 10
-278.7032
 20
-16.9993
 30
0.0
 10
-278.7032
 20
-16.9993
 30
0.0
 10
-255.1254
 20
17.6913
 30
0.0
 10
-255.1254
 20
17.6913
 30
0.0
 10
-254.3435
 20
18.8417
 30
0.0
 10
-253.0428
 20
19.5305
 30
0.0
 10
-251.6518
 20
19.5305
 30
0.0
 10
-251.6518
 20
19.5305
 30
0.0
 10
-226.8074
 20
19.5305
 30
0.0
 10
-226.8074
 20
19.5305
 30
0.0
 10
-225.4164
 20
19.5305
 30
0.0
 10
-224.1156
 20
18.8418
 30
0.0
 10
-223.3337
 20
17.6913
 30
0.0
 10
-223.3337
 20
17.6913
 30
0.0
 10
-199.756
 20
-16.9993
 30
0.0
 10
-199.756
 20
-16.9993
 30
0.0
 10
-199.2828
 20
-17.6955
 30
0.0
 10
-199.0296
 20
-18.5184
 30
0.0
 10
-199.0296
 20
-19.3602
 30
0.0
 10
-199.0296
 20
-19.3602
 30
0.0
 10
-199.0296
 20
-138.6695
 30
0.0
 10
-199.0296
 20
-138.6695
 30
0.0
 10
-199.0296
 20
-140.989
 30
0.0
 10
-200.9101
 20
-142.8695
 30
0.0
 10
-203.2296
 20
-142.8695
 30
0.0
  0
SPLINE
  5
8A
330
1F
100
AcDbEntity
  8
0
 62
   250
100
AcDbSpline
210
0.0
220
0.0
230
1.0
 70
    11
 71
     3
 72
    41
 73
    37
 74
     0
 42
0.0000000001
 43
0.0000000001
 40
0.0
 40
0.0
 40
0.0
 40
0.0
 40
0.0833333333333333
 40
0.0833333333333333
 40
0.0833333333333333
 40
0.1666666666666667
 40
0.1666666666666667
 40
0.1666666666666667
 40
0.25
 40
0.25
 40
0.25
 40
0.3333333333333333
 40
0.3333333333333333
 40
0.3333333333333333
 40
0.4166666666666666
 40
0.4166666666666666
 40
0.4166666666666666
 40
0.5
 40
0.5
 40
0.5
 40
0.5833333333333333
 40
0.5833333333333333
 40
0.5833333333333333
 40
0.6666666666666666
 40
0.6666666666666666
 40
0.6666666666666666
 40
0.75
 40
0.75
 40
0.75
 40
0.8333333333333333
 40
0.8333333333333333
 40
0.8333333333333333
 40
0.9166666666666666
 40
0.9166666666666666
 40
0.9166666666666666
 40
1.0
 40
1.0
 40
1.0
 40
1.0
 10
-177.7938
 20
4.5097
 30
0.0
 10
-177.7938
 20
4.5097
 30
0.0
 10
-177.7938
 20
7.5097
 30
0.0
 10
-177.7938
 20
7.5097
 30
0.0
 10
-177.7938
 20
7.5097
 30
0.0
 10
-171.3938
 20
7.5097
 30
0.0
 10
-171.3938
 20
7.5097
 30
0.0
 10
-171.3938
 20
7.5097
 30
0.0
 10
-171.3938
 20
4.5097
 30
0.0
 10
-171.3938
 20
4.5097
 30
0.0
 10
-171.3938
 20
4.5097
 30
0.0
 10
-169.3938
 20
4.5097
 30
0.0
 10
-169.3938
 20
4.5097
 30
0.0
 10
-169.3938
 20
4.5097
 30
0.0
 10
-169.3938
 20
-25.3403
 30
0.0
 10
-169.3938
 20
-25.3403
 30
0.0
 10
-169.3938
 20
-25.3403
 30
0.0
 10
-171.3938
 20
-25.3403
 30
0.0
 10
-171.3938
 20
-25.3403
 30
0.0
 10
-171.3938
 20
-25.3403
 30
0.0
 10
-171.3938
 20
-28.3403
 30
0.0
 10
-171.3938
 20
-28.3403
 30
0.0
 10
-171.3938
 20
-28.3403
 30
0.0
 10
-177.7938
 20
-28.3403
 30
0.0
 10
-177.7938
 20
-28.3403
 30
0.0
 10
-177.7938
 20
-28.3403
 30
0.0
 10
-177.7938
 20
-25.3403
 30
0.0
 10
-177.7938
 20
-25.3403
 30
0.0
 10
-177.7938
 20
-25.3403
 30
0.0
 10
-179.7938
 20
-25.3403
 30
0.0
 10
-179.7938
 20
-25.3403
 30
0.0
 10
-179.7938
 20
-25.3403
 30
0.0
 10
-179.7938
 20
4.5097
 30
0.0
 10
-179.7938
 20
4.5097
 30
0.0
 10
-179.7938
 20
4.5097
 30
0.0
 10
-177.7938
 20
4.5097
 30
0.0
 10
-177.7938
 20
4.5097
 30
0.0
  0
SPLINE
  5
8B
330
1F
100
AcDbEntity
  8
0
 62
   250
100
AcDbSpline
210
0.0
220
0.0
230
1.0
 70
    11
 71
     3
 72
    41
 73
    37
 74
     0
 42
0.0000000001
 43
0.0000000001
 40
0.0
 40
0.0
 40
0.0
 40
0.0
 40
0.0833333333333333
 40
0.0833333333333333
 40
0.0833333333333333
 40
0.1666666666666667
 40
0.1666666666666667
 40
0.1666666666666667
 40
0.25
 40
0.25
 40
0.25
 40
0.3333333333333333
 40
0.3333333333333333
 40
0.3333333333333333
 40
0.4166666666666666
 40
0.4166666666666666
 40
0.4166666666666666
 40
0.5
 40
0.5
 40
0.5
 40
0.5833333333333333
 40
0.5833333333333333
 40
0.5833333333333333
 40
0.6666666666666666
 40
0.6666666666666666
 40
0.6666666666666666
 40
0.75
 40
0.75
 40
0.75
 40
0.8333333333333333
 40
0.8333333333333333
 40
0.8333333333333333
 40
0.9166666666666666
 40
0.9166666666666666
 40
0.9166666666666666
 40
1.0
 40
1.0
 40
1.0
 40
1.0
 10
-191.5858
 20
3.8339
 30
0.0
 10
-191.5858
 20
3.8339
 30
0.0
 10
-191.5858
 20
6.8339
 30
0.0
 10
-191.5858
 20
6.8339
 30
0.0
 10
-191.5858
 20
6.8339
 30
0.0
 10
-185.1858
 20
6.8339
 30
0.0
 10
-185.1858
 20
6.8339
 30
0.0
 10
-185.1858
 20
6.8339
 30
0.0
 10
-185.1858
 20
3.8339
 30
0.0
 10
-185.1858
 20
3.8339
 30
0.0
 10
-185.1858
 20
3.8339
 30
0.0
 10
-183.1858
 20
3.8339
 30
0.0
 10
-183.1858
 20
3.8339
 30
0.0
 10
-183.1858
 20
3.8339
 30
0.0
 10
-183.1858
 20
-26.0161
 30
0.0
 10
-183.1858
 20
-26.0161
 30
0.0
 10
-183.1858
 20
-26.0161
 30
0.0
 10
-185.1858
 20
-26.0161
 30
0.0
 10
-185.1858
 20
-26.0161
 30
0.0
 10
-185.1858
 20
-26.0161
 30
0.0
 10
-185.1858
 20
-29.0161
 30
0.0
 10
-185.1858
 20
-29.0161
 30
0.0
 10
-185.1858
 20
-29.0161
 30
0.0
 10
-191.5858
 20
-29.0161
 30
0.0
 10
-191.5858
 20
-29.0161
 30
0.0
 10
-191.5858
 20
-29.0161
 30
0.0
 10
-191.5858
 20
-26.0161
 30
0.0
 10
-191.5858
 20
-26.0161
 30
0.0
 10
-191.5858
 20
-26.0161
 30
0.0
 10
-193.5858
 20
-26.0161
 30
0.0
 10
-193.5858
 20
-26.0161
 30
0.0
 10
-193.5858
 20
-26.0161
 30
0.0
 10
-193.5858
 20
3.8339
 30
0.0
 10
-193.5858
 20
3.8339
 30
0.0
 10
-193.5858
 20
3.8339
 30
0.0
 10
-191.5858
 20
3.8339
 30
0.0
 10
-191.5858
 20
3.8339
 30
0.0
  0
SPLINE
  5
8C
330
1F
100
AcDbEntity
  8
0
 62
   250
100
AcDbSpline
210
0.0
220
0.0
230
1.0
 70
    11
 71
     3
 72
    17
 73
    13
 74
     0
 42
0.0000000001
 43
0.0000000001
 40
0.0
 40
0.0
 40
0.0
 40
0.0
 40
0.25
 40
0.25
 40
0.25
 40
0.5
 40
0.5
 40
0.5
 40
0.75
 40
0.75
 40
0.75
 40
1.0
 40
1.0
 40
1.0
 40
1.0
 10
-220.3692
 20
177.3827
 30
0.0
 10
-220.3692
 20
178.5978
 30
0.0
 10
-221.3541
 20
179.5827
 30
0.0
 10
-222.5692
 20
179.5827
 30
0.0
 10
-223.7843
 20
179.5827
 30
0.0
 10
-224.7692
 20
178.5978
 30
0.0
 10
-224.7692
 20
177.3827
 30
0.0
 10
-224.7692
 20
176.1676
 30
0.0
 10
-223.7843
 20
175.1827
 30
0.0
 10
-222.5692
 20
175.1827
 30
0.0
 10
-221.3541
 20
175.1827
 30
0.0
 10
-220.3692
 20
176.1676
 30
0.0
 10
-220.3692
 20
177.3827
 30
0.0
  0
SPLINE
  5
8D
330
1F
100
AcDbEntity
  8
0
 62
   250
100
AcDbSpline
210
0.0
220
0.0
230
1.0
 70
    11
 71
     3
 72
    17
 73
    13
 74
     0
 42
0.0000000001
 43
0.0000000001
 40
0.0
 40
0.0
 40
0.0
 40
0.0
 40
0.25
 40
0.25
 40
0.25
 40
0.5
 40
0.5
 40
0.5
 40
0.75
 40
0.75
 40
0.75
 40
1.0
 40
1.0
 40
1.0
 40
1.0
 10
-253.8692
 20
59.9177
 30
0.0
 10
-253.8692
 20
61.1328
 30
0.0
 10
-254.8541
 20
62.1177
 30
0.0
 10
-256.0692
 20
62.1177
 30
0.0
 10
-257.2843
 20
62.1177
 30
0.0
 10
-258.2692
 20
61.1328
 30
0.0
 10
-258.2692
 20
59.9177
 30
0.0
 10
-258.2692
 20
58.7026
 30
0.0
 10
-257.2843
 20
57.7177
 30
0.0
 10
-256.0692
 20
57.7177
 30
0.0
 10
-254.8541
 20
57.7177
 30
0.0
 10
-253.8692
 20
58.7026
 30
0.0
 10
-253.8692
 20
59.9177
 30
0.0
  0
SPLINE
  5
8E
330
1F
100
AcDbEntity
  8
0
 62
   250
100
AcDbSpline
210
0.0
220
0.0
230
1.0
 70
    11
 71
     3
 72
    17
 73
    13
 74
     0
 42
0.0000000001
 43
0.0000000001
 40
0.0
 40
0.0
 40
0.0
 40
0.0
 40
0.25
 40
0.25
 40
0.25
 40
0.5
 40
0.5
 40
0.5
 40
0.75
 40
0.75
 40
0.75
 40
1.0
 40
1.0
 40
1.0
 40
1.0
 10
-253.8692
 20
43.9177
 30
0.0
 10
-253.8692
 20
45.1328
 30
0.0
 10
-254.8541
 20
46.1177
 30
0.0
 10
-256.0692
 20
46.1177
 30
0.0
 10
-257.2843
 20
46.1177
 30
0.0
 10
-258.2692
 20
45.1328
 30
0.0
 10
-258.2692
 20
43.9177
 30
0.0
 10
-258.2692
 20
42.7026
 30
0.0
 10
-257.2843
 20
41.7177
 30
0.0
 10
-256.0692
 20
41.7177
 30
0.0
 10
-254.8541
 20
41.7177
 30
0.0
 10
-253.8692
 20
42.7026
 30
0.0
 10
-253.8692
 20
43.9177
 30
0.0
  0
SPLINE
  5
8F
330
1F
100
AcDbEntity
  8
0
 62
   250
100
AcDbSpline
210
0.0
220
0.0
230
1.0
 70
    11
 71
     3
 72
    17
 73
    13
 74
     0
 42
0.0000000001
 43
0.0000000001
 40
0.0
 40
0.0
 40
0.0
 40
0.0
 40
0.25
 40
0.25
 40
0.25
 40
0.5
 40
0.5
 40
0.5
 40
0.75
 40
0.75
 40
0.75
 40
1.0
 40
1.0
 40
1.0
 40
1.0
 10
-221.8692
 20
75.9177
 30
0.0
 10
-221.8692
 20
77.1328
 30
0.0
 10
-222.8541
 20
78.1177
 30
0.0
 10
-224.0692
 20
78.1177
 30
0.0
 10
-225.2843
 20
78.1177
 30
0.0
 10
-226.2692
 20
77.1328
 30
0.0
 10
-226.2692
 20
75.9177
 30
0.0
 10
-226.2692
 20
74.7026
 30
0.0
 10
-225.2843
 20
73.7177
 30
0.0
 10
-224.0692
 20
73.7177
 30
0.0
 10
-222.8541
 20
73.7177
 30
0.0
 10
-221.8692
 20
74.7026
 30
0.0
 10
-221.8692
 20
75.9177
 30
0.0
  0
SPLINE
  5
90
330
1F
100
AcDbEntity
  8
0
 62
   250
100
AcDbSpline
210
0.0
220
0.0
230
1.0
 70
    11
 71
     3
 72
    17
 73
    13
 74
     0
 42
0.0000000001
 43
0.0000000001
 40
0.0
 40
0.0
 40
0.0
 40
0.0
 40
0.25
 40
0.25
 40
0.25
 40
0.5
 40
0.5
 40
0.5
 40
0.75
 40
0.75
 40
0.75
 40
1.0
 40
1.0
 40
1.0
 40
1.0
 10
-253.8692
 20
75.9177
 30
0.0
 10
-253.8692
 20
77.1328
 30
0.0
 10
-254.8541
 20
78.1177
 30
0.0
 10
-256.0692
 20
78.1177
 30
0.0
 10
-257.2843
 20
78.1177
 30
0.0
 10
-258.2692
 20
77.1328
 30
0.0
 10
-258.2692
 20
75.9177
 30
0.0
 10
-258.2692
 20
74.7026
 30
0.0
 10
-257.2843
 20
73.7177
 30
0.0
 10
-256.0692
 20
73.7177
 30
0.0
 10
-254.8541
 20
73.7177
 30
0.0
 10
-253.8692
 20
74.7026
 30
0.0
 10
-253.8692
 20
75.9177
 30
0.0
  0
SPLINE
  5
91
330
1F
100
AcDbEntity
  8
0
 62
   250
100
AcDbSpline
210
0.0
220
0.0
230
1.0
 70
    11
 71
     3
 72
    17
 73
    13
 74
     0
 42
0.0000000001
 43
0.0000000001
 40
0.0
 40
0.0
 40
0.0
 40
0.0
 40
0.25
 40
0.25
 40
0.25
 40
0.5
 40
0.5
 40
0.5
 40
0.75
 40
0.75
 40
0.75
 40
1.0
 40
1.0
 40
1.0
 40
1.0
 10
-253.8692
 20
27.9177
 30
0.0
 10
-253.8692
 20
29.1328
 30
0.0
 10
-254.8541
 20
30.1177
 30
0.0
 10
-256.0692
 20
30.1177
 30
0.0
 10
-257.2843
 20
30.1177
 30
0.0
 10
-258.2692
 20
29.1328
 30
0.0
 10
-258.2692
 20
27.9177
 30
0.0
 10
-258.2692
 20
26.7026
 30
0.0
 10
-257.2843
 20
25.7177
 30
0.0
 10
-256.0692
 20
25.7177
 30
0.0
 10
-254.8541
 20
25.7177
 30
0.0
 10
-253.8692
 20
26.7026
 30
0.0
 10
-253.8692
 20
27.9177
 30
0.0
  0
SPLINE
  5
92
330
1F
100
AcDbEntity
  8
0
 62
   250
100
AcDbSpline
210
0.0
220
0.0
230
1.0
 70
    11
 71
     3
 72
    17
 73
    13
 74
     0
 42
0.0000000001
 43
0.0000000001
 40
0.0
 40
0.0
 40
0.0
 40
0.0
 40
0.25
 40
0.25
 40
0.25
 40
0.5
 40
0.5
 40
0.5
 40
0.75
 40
0.75
 40
0.75
 40
1.0
 40
1.0
 40
1.0
 40
1.0
 10
-221.8692
 20
27.9177
 30
0.0
 10
-221.8692
 20
29.1328
 30
0.0
 10
-222.8541
 20
30.1177
 30
0.0
 10
-224.0692
 20
30.1177
 30
0.0
 10
-225.2843
 20
30.1177
 30
0.0
 10
-226.2692
 20
29.1328
 30
0.0
 10
-226.2692
 20
27.9177
 30
0.0
 10
-226.2692
 20
26.7026
 30
0.0
 10
-225.2843
 20
25.7177
 30
0.0
 10
-224.0692
 20
25.7177
 30
0.0
 10
-222.8541
 20
25.7177
 30
0.0
 10
-221.8692
 20
26.7026
 30
0.0
 10
-221.8692
 20
27.9177
 30
0.0
  0
SPLINE
  5
93
330
1F
100
AcDbEntity
  8
0
 62
   250
100
AcDbSpline
210
0.0
220
0.0
230
1.0
 70
    11
 71
     3
 72
    17
 73
    13
 74
     0
 42
0.0000000001
 43
0.0000000001
 40
0.0
 40
0.0
 40
0.0
 40
0.0
 40
0.25
 40
0.25
 40
0.25
 40
0.5
 40
0.5
 40
0.5
 40
0.75
 40
0.75
 40
0.75
 40
1.0
 40
1.0
 40
1.0
 40
1.0
 10
-221.8692
 20
59.9177
 30
0.0
 10
-221.8692
 20
61.1328
 30
0.0
 10
-222.8541
 20
62.1177
 30
0.0
 10
-224.0692
 20
62.1177
 30
0.0
 10
-225.2843
 20
62.1177
 30
0.0
 10
-226.2692
 20
61.1328
 30
0.0
 10
-226.2692
 20
59.9177
 30
0.0
 10
-226.2692
 20
58.7026
 30
0.0
 10
-225.2843
 20
57.7177
 30
0.0
 10
-224.0692
 20
57.7177
 30
0.0
 10
-222.8541
 20
57.7177
 30
0.0
 10
-221.8692
 20
58.7026
 30
0.0
 10
-221.8692
 20
59.9177
 30
0.0
  0
SPLINE
  5
94
330
1F
100
AcDbEntity
  8
0
 62
   250
100
AcDbSpline
210
0.0
220
0.0
230
1.0
 70
    11
 71
     3
 72
    17
 73
    13
 74
     0
 42
0.0000000001
 43
0.0000000001
 40
0.0
 40
0.0
 40
0.0
 40
0.0
 40
0.25
 40
0.25
 40
0.25
 40
0.5
 40
0.5
 40
0.5
 40
0.75
 40
0.75
 40
0.75
 40
1.0
 40
1.0
 40
1.0
 40
1.0
 10
-221.8692
 20
47.9177
 30
0.0
 10
-221.8692
 20
49.1328
 30
0.0
 10
-222.8541
 20
50.1177
 30
0.0
 10
-224.0692
 20
50.1177
 30
0.0
 10
-225.2843
 20
50.1177
 30
0.0
 10
-226.2692
 20
49.1328
 30
0.0
 10
-226.2692
 20
47.9177
 30
0.0
 10
-226.2692
 20
46.7026
 30
0.0
 10
-225.2843
 20
45.7177
 30
0.0
 10
-224.0692
 20
45.7177
 30
0.0
 10
-222.8541
 20
45.7177
 30
0.0
 10
-221.8692
 20
46.7026
 30
0.0
 10
-221.8692
 20
47.9177
 30
0.0
  0
SPLINE
  5
95
330
1F
100
AcDbEntity
  8
0
 62
   250
100
AcDbSpline
210
0.0
220
0.0
230
1.0
 70
    11
 71
     3
 72
    38
 73
    34
 74
     0
 42
0.0000000001
 43
0.0000000001
 40
0.0
 40
0.0
 40
0.0
 40
0.0
 40
0.0909090909090909
 40
0.0909090909090909
 40
0.0909090909090909
 40
0.1818181818181818
 40
0.1818181818181818
 40
0.1818181818181818
 40
0.2727272727272727
 40
0.2727272727272727
 40
0.2727272727272727
 40
0.3636363636363636
 40
0.3636363636363636
 40
0.3636363636363636
 40
0.4545454545454546
 40
0.4545454545454546
 40
0.4545454545454546
 40
0.5454545454545454
 40
0.5454545454545454
 40
0.5454545454545454
 40
0.6363636363636364
 40
0.6363636363636364
 40
0.6363636363636364
 40
0.7272727272727273
 40
0.7272727272727273
 40
0.7272727272727273
 40
0.8181818181818182
 40
0.8181818181818182
 40
0.8181818181818182
 40
0.9090909090909092
 40
0.9090909090909092
 40
0.9090909090909092
 40
1.0
 40
1.0
 40
1.0
 40
1.0
 10
-251.8692
 20
68.9177
 30
0.0
 10
-251.8692
 20
68.9177
 30
0.0
 10
-251.8692
 20
34.9177
 30
0.0
 10
-251.8692
 20
34.9177
 30
0.0
 10
-251.8692
 20
34.1751
 30
0.0
 10
-251.5743
 20
33.4629
 30
0.0
 10
-251.0492
 20
32.9378
 30
0.0
 10
-250.524
 20
32.4127
 30
0.0
 10
-249.8119
 20
32.1177
 30
0.0
 10
-249.0692
 20
32.1177
 30
0.0
 10
-249.0692
 20
32.1177
 30
0.0
 10
-231.0692
 20
32.1177
 30
0.0
 10
-231.0692
 20
32.1177
 30
0.0
 10
-229.5227
 20
32.1177
 30
0.0
 10
-228.2692
 20
33.3712
 30
0.0
 10
-228.2692
 20
34.9177
 30
0.0
 10
-228.2692
 20
34.9177
 30
0.0
 10
-228.2692
 20
68.9177
 30
0.0
 10
-228.2692
 20
68.9177
 30
0.0
 10
-228.2692
 20
69.6602
 30
0.0
 10
-228.5643
 20
70.3725
 30
0.0
 10
-229.0893
 20
70.8976
 30
0.0
 10
-229.6144
 20
71.4226
 30
0.0
 10
-230.3267
 20
71.7177
 30
0.0
 10
-231.0692
 20
71.7177
 30
0.0
 10
-231.0692
 20
71.7177
 30
0.0
 10
-249.0692
 20
71.7177
 30
0.0
 10
-249.0692
 20
71.7177
 30
0.0
 10
-249.8118
 20
71.7177
 30
0.0
 10
-250.524
 20
71.4227
 30
0.0
 10
-251.0492
 20
70.8976
 30
0.0
 10
-251.5743
 20
70.3725
 30
0.0
 10
-251.8692
 20
69.6602
 30
0.0
 10
-251.8692
 20
68.9177
 30
0.0
  0
SPLINE
  5
96
330
1F
100
AcDbEntity
  8
0
 62
   250
100
AcDbSpline
210
0.0
220
0.0
230
1.0
 70
    11
 71
     3
 72
    17
 73
    13
 74
     0
 42
0.0000000001
 43
0.0000000001
 40
0.0
 40
0.0
 40
0.0
 40
0.0
 40
0.25
 40
0.25
 40
0.25
 40
0.5
 40
0.5
 40
0.5
 40
0.75
 40
0.75
 40
0.75
 40
1.0
 40
1.0
 40
1.0
 40
1.0
 10
-255.3692
 20
177.3827
 30
0.0
 10
-255.3692
 20
178.5978
 30
0.0
 10
-256.3541
 20
179.5827
 30
0.0
 10
-257.5692
 20
179.5827
 30
0.0
 10
-258.7843
 20
179.5827
 30
0.0
 10
-259.7692
 20
178.5978
 30
0.0
 10
-259.7692
 20
177.3827
 30
0.0
 10
-259.7692
 20
176.1676
 30
0.0
 10
-258.7843
 20
175.1827
 30
0.0
 10
-257.5692
 20
175.1827
 30
0.0
 10
-256.3541
 20
175.1827
 30
0.0
 10
-255.3692
 20
176.1676
 30
0.0
 10
-255.3692
 20
177.3827
 30
0.0
  0
SPLINE
  5
97
330
1F
100
AcDbEntity
  8
0
 62
   250
100
AcDbSpline
210
0.0
220
0.0
230
1.0
 70
    11
 71
     3
 72
    17
 73
    13
 74
     0
 42
0.0000000001
 43
0.0000000001
 40
0.0
 40
0.0
 40
0.0
 40
0.0
 40
0.25
 40
0.25
 40
0.25
 40
0.5
 40
0.5
 40
0.5
 40
0.75
 40
0.75
 40
0.75
 40
1.0
 40
1.0
 40
1.0
 40
1.0
 10
-217.2692
 20
32.2177
 30
0.0
 10
-217.2692
 20
32.2177
 30
0.0
 10
-219.8692
 20
32.2177
 30
0.0
 10
-219.8692
 20
32.2177
 30
0.0
 10
-219.8692
 20
32.2177
 30
0.0
 10
-219.8692
 20
26.6177
 30
0.0
 10
-219.8692
 20
26.6177
 30
0.0
 10
-219.8692
 20
26.6177
 30
0.0
 10
-217.2692
 20
26.6177
 30
0.0
 10
-217.2692
 20
26.6177
 30
0.0
 10
-217.2692
 20
26.6177
 30
0.0
 10
-217.2692
 20
32.2177
 30
0.0
 10
-217.2692
 20
32.2177
 30
0.0
  0
SPLINE
  5
98
330
1F
100
AcDbEntity
  8
0
 62
   250
100
AcDbSpline
210
0.0
220
0.0
230
1.0
 70
    11
 71
     3
 72
    17
 73
    13
 74
     0
 42
0.0000000001
 43
0.0000000001
 40
0.0
 40
0.0
 40
0.0
 40
0.0
 40
0.25
 40
0.25
 40
0.25
 40
0.5
 40
0.5
 40
0.5
 40
0.75
 40
0.75
 40
0.75
 40
1.0
 40
1.0
 40
1.0
 40
1.0
 10
-217.2692
 20
71.6177
 30
0.0
 10
-217.2692
 20
71.6177
 30
0.0
 10
-217.2692
 20
77.2177
 30
0.0
 10
-217.2692
 20
77.2177
 30
0.0
 10
-217.2692
 20
77.2177
 30
0.0
 10
-219.8692
 20
77.2177
 30
0.0
 10
-219.8692
 20
77.2177
 30
0.0
 10
-219.8692
 20
77.2177
 30
0.0
 10
-219.8692
 20
71.6177
 30
0.0
 10
-219.8692
 20
71.6177
 30
0.0
 10
-219.8692
 20
71.6177
 30
0.0
 10
-217.2692
 20
71.6177
 30
0.0
 10
-217.2692
 20
71.6177
 30
0.0
  0
SPLINE
  5
99
330
1F
100
AcDbEntity
  8
0
 62
   250
100
AcDbSpline
210
0.0
220
0.0
230
1.0
 70
    11
 71
     3
 72
    17
 73
    13
 74
     0
 42
0.0000000001
 43
0.0000000001
 40
0.0
 40
0.0
 40
0.0
 40
0.0
 40
0.25
 40
0.25
 40
0.25
 40
0.5
 40
0.5
 40
0.5
 40
0.75
 40
0.75
 40
0.75
 40
1.0
 40
1.0
 40
1.0
 40
1.0
 10
-262.8692
 20
77.2177
 30
0.0
 10
-262.8692
 20
77.2177
 30
0.0
 10
-262.8692
 20
71.6177
 30
0.0
 10
-262.8692
 20
71.6177
 30
0.0
 10
-262.8692
 20
71.6177
 30
0.0
 10
-260.2692
 20
71.6177
 30
0.0
 10
-260.2692
 20
71.6177
 30
0.0
 10
-260.2692
 20
71.6177
 30
0.0
 10
-260.2692
 20
77.2177
 30
0.0
 10
-260.2692
 20
77.2177
 30
0.0
 10
-260.2692
 20
77.2177
 30
0.0
 10
-262.8692
 20
77.2177
 30
0.0
 10
-262.8692
 20
77.2177
 30
0.0
  0
SPLINE
  5
9A
330
1F
100
AcDbEntity
  8
0
 62
   250
100
AcDbSpline
210
0.0
220
0.0
230
1.0
 70
    11
 71
     3
 72
    17
 73
    13
 74
     0
 42
0.0000000001
 43
0.0000000001
 40
0.0
 40
0.0
 40
0.0
 40
0.0
 40
0.25
 40
0.25
 40
0.25
 40
0.5
 40
0.5
 40
0.5
 40
0.75
 40
0.75
 40
0.75
 40
1.0
 40
1.0
 40
1.0
 40
1.0
 10
-248.9692
 20
131.2177
 30
0.0
 10
-248.9692
 20
131.2177
 30
0.0
 10
-248.9692
 20
125.6177
 30
0.0
 10
-248.9692
 20
125.6177
 30
0.0
 10
-248.9692
 20
125.6177
 30
0.0
 10
-246.3692
 20
125.6177
 30
0.0
 10
-246.3692
 20
125.6177
 30
0.0
 10
-246.3692
 20
125.6177
 30
0.0
 10
-246.3692
 20
131.2177
 30
0.0
 10
-246.3692
 20
131.2177
 30
0.0
 10
-246.3692
 20
131.2177
 30
0.0
 10
-248.9692
 20
131.2177
 30
0.0
 10
-248.9692
 20
131.2177
 30
0.0
  0
SPLINE
  5
9B
330
1F
100
AcDbEntity
  8
0
 62
   250
100
AcDbSpline
210
0.0
220
0.0
230
1.0
 70
    11
 71
     3
 72
    17
 73
    13
 74
     0
 42
0.0000000001
 43
0.0000000001
 40
0.0
 40
0.0
 40
0.0
 40
0.0
 40
0.25
 40
0.25
 40
0.25
 40
0.5
 40
0.5
 40
0.5
 40
0.75
 40
0.75
 40
0.75
 40
1.0
 40
1.0
 40
1.0
 40
1.0
 10
-233.7692
 20
125.6177
 30
0.0
 10
-233.7692
 20
125.6177
 30
0.0
 10
-231.1692
 20
125.6177
 30
0.0
 10
-231.1692
 20
125.6177
 30
0.0
 10
-231.1692
 20
125.6177
 30
0.0
 10
-231.1692
 20
131.2177
 30
0.0
 10
-231.1692
 20
131.2177
 30
0.0
 10
-231.1692
 20
131.2177
 30
0.0
 10
-233.7692
 20
131.2177
 30
0.0
 10
-233.7692
 20
131.2177
 30
0.0
 10
-233.7692
 20
131.2177
 30
0.0
 10
-233.7692
 20
125.6177
 30
0.0
 10
-233.7692
 20
125.6177
 30
0.0
  0
SPLINE
  5
9C
330
1F
100
AcDbEntity
  8
0
 62
   250
100
AcDbSpline
210
0.0
220
0.0
230
1.0
 70
    11
 71
     3
 72
    17
 73
    13
 74
     0
 42
0.0000000001
 43
0.0000000001
 40
0.0
 40
0.0
 40
0.0
 40
0.0
 40
0.25
 40
0.25
 40
0.25
 40
0.5
 40
0.5
 40
0.5
 40
0.75
 40
0.75
 40
0.75
 40
1.0
 40
1.0
 40
1.0
 40
1.0
 10
-242.8692
 20
114.2177
 30
0.0
 10
-242.8692
 20
114.2177
 30
0.0
 10
-242.8692
 20
111.6177
 30
0.0
 10
-242.8692
 20
111.6177
 30
0.0
 10
-242.8692
 20
111.6177
 30
0.0
 10
-237.2692
 20
111.6177
 30
0.0
 10
-237.2692
 20
111.6177
 30
0.0
 10
-237.2692
 20
111.6177
 30
0.0
 10
-237.2692
 20
114.2177
 30
0.0
 10
-237.2692
 20
114.2177
 30
0.0
 10
-237.2692
 20
114.2177
 30
0.0
 10
-242.8692
 20
114.2177
 30
0.0
 10
-242.8692
 20
114.2177
 30
0.0
  0
SPLINE
  5
9D
330
1F
100
AcDbEntity
  8
0
 62
   250
100
AcDbSpline
210
0.0
220
0.0
230
1.0
 70
    11
 71
     3
 72
    17
 73
    13
 74
     0
 42
0.0000000001
 43
0.0000000001
 40
0.0
 40
0.0
 40
0.0
 40
0.0
 40
0.25
 40
0.25
 40
0.25
 40
0.5
 40
0.5
 40
0.5
 40
0.75
 40
0.75
 40
0.75
 40
1.0
 40
1.0
 40
1.0
 40
1.0
 10
-262.8692
 20
32.2177
 30
0.0
 10
-262.8692
 20
32.2177
 30
0.0
 10
-262.8692
 20
26.6177
 30
0.0
 10
-262.8692
 20
26.6177
 30
0.0
 10
-262.8692
 20
26.6177
 30
0.0
 10
-260.2692
 20
26.6177
 30
0.0
 10
-260.2692
 20
26.6177
 30
0.0
 10
-260.2692
 20
26.6177
 30
0.0
 10
-260.2692
 20
32.2177
 30
0.0
 10
-260.2692
 20
32.2177
 30
0.0
 10
-260.2692
 20
32.2177
 30
0.0
 10
-262.8692
 20
32.2177
 30
0.0
 10
-262.8692
 20
32.2177
 30
0.0
  0
SPLINE
  5
9E
330
1F
100
AcDbEntity
  8
0
 62
   250
100
AcDbSpline
210
0.0
220
0.0
230
1.0
 70
    11
 71
     3
 72
   140
 73
   136
 74
     0
 42
0.0000000001
 43
0.0000000001
 40
0.0
 40
0.0
 40
0.0
 40
0.0
 40
0.0222222222222222
 40
0.0222222222222222
 40
0.0222222222222222
 40
0.0444444444444444
 40
0.0444444444444444
 40
0.0444444444444444
 40
0.0666666666666667
 40
0.0666666666666667
 40
0.0666666666666667
 40
0.0888888888888889
 40
0.0888888888888889
 40
0.0888888888888889
 40
0.1111111111111111
 40
0.1111111111111111
 40
0.1111111111111111
 40
0.1333333333333333
 40
0.1333333333333333
 40
0.1333333333333333
 40
0.1555555555555556
 40
0.1555555555555556
 40
0.1555555555555556
 40
0.1777777777777778
 40
0.1777777777777778
 40
0.1777777777777778
 40
0.2
 40
0.2
 40
0.2
 40
0.2222222222222222
 40
0.2222222222222222
 40
0.2222222222222222
 40
0.2444444444444445
 40
0.2444444444444445
 40
0.2444444444444445
 40
0.2666666666666667
 40
0.2666666666666667
 40
0.2666666666666667
 40
0.2888888888888889
 40
0.2888888888888889
 40
0.2888888888888889
 40
0.3111111111111111
 40
0.3111111111111111
 40
0.3111111111111111
 40
0.3333333333333334
 40
0.3333333333333334
 40
0.3333333333333334
 40
0.3555555555555556
 40
0.3555555555555556
 40
0.3555555555555556
 40
0.3777777777777778
 40
0.3777777777777778
 40
0.3777777777777778
 40
0.4
 40
0.4
 40
0.4
 40
0.4222222222222222
 40
0.4222222222222222
 40
0.4222222222222222
 40
0.4444444444444445
 40
0.4444444444444445
 40
0.4444444444444445
 40
0.4666666666666667
 40
0.4666666666666667
 40
0.4666666666666667
 40
0.4888888888888889
 40
0.4888888888888889
 40
0.4888888888888889
 40
0.5111111111111112
 40
0.5111111111111112
 40
0.5111111111111112
 40
0.5333333333333333
 40
0.5333333333333333
 40
0.5333333333333333
 40
0.5555555555555556
 40
0.5555555555555556
 40
0.5555555555555556
 40
0.5777777777777778
 40
0.5777777777777778
 40
0.5777777777777778
 40
0.6
 40
0.6
 40
0.6
 40
0.6222222222222222
 40
0.6222222222222222
 40
0.6222222222222222
 40
0.6444444444444445
 40
0.6444444444444445
 40
0.6444444444444445
 40
0.6666666666666667
 40
0.6666666666666667
 40
0.6666666666666667
 40
0.6888888888888889
 40
0.6888888888888889
 40
0.6888888888888889
 40
0.7111111111111111
 40
0.7111111111111111
 40
0.7111111111111111
 40
0.7333333333333334
 40
0.7333333333333334
 40
0.7333333333333334
 40
0.7555555555555555
 40
0.7555555555555555
 40
0.7555555555555555
 40
0.7777777777777778
 40
0.7777777777777778
 40
0.7777777777777778
 40
0.8
 40
0.8
 40
0.8
 40
0.8222222222222223
 40
0.8222222222222223
 40
0.8222222222222223
 40
0.8444444444444444
 40
0.8444444444444444
 40
0.8444444444444444
 40
0.8666666666666667
 40
0.8666666666666667
 40
0.8666666666666667
 40
0.888888888888889
 40
0.888888888888889
 40
0.888888888888889
 40
0.9111111111111111
 40
0.9111111111111111
 40
0.9111111111111111
 40
0.9333333333333333
 40
0.9333333333333333
 40
0.9333333333333333
 40
0.9555555555555556
 40
0.9555555555555556
 40
0.9555555555555556
 40
0.9777777777777779
 40
0.9777777777777779
 40
0.9777777777777779
 40
1.0
 40
1.0
 40
1.0
 40
1.0
 10
-249.6472
 20
155.7154
 30
0.0
 10
-249.6472
 20
155.7154
 30
0.0
 10
-261.2121
 20
175.223
 30
0.0
 10
-261.2121
 20
175.223
 30
0.0
 10
-261.9881
 20
176.5319
 30
0.0
 10
-262.0022
 20
178.1569
 30
0.0
 10
-261.249
 20
179.479
 30
0.0
 10
-260.4957
 20
180.8012
 30
0.0
 10
-259.0909
 20
181.6177
 30
0.0
 10
-257.5692
 20
181.6177
 30
0.0
 10
-257.5692
 20
181.6177
 30
0.0
 10
-222.5692
 20
181.6177
 30
0.0
 10
-222.5692
 20
181.6177
 30
0.0
 10
-221.0475
 20
181.6177
 30
0.0
 10
-219.6427
 20
180.8012
 30
0.0
 10
-218.8894
 20
179.479
 30
0.0
 10
-218.1362
 20
178.1569
 30
0.0
 10
-218.1503
 20
176.5319
 30
0.0
 10
-218.9263
 20
175.223
 30
0.0
 10
-218.9263
 20
175.223
 30
0.0
 10
-230.4912
 20
155.7155
 30
0.0
 10
-230.4912
 20
155.7155
 30
0.0
 10
-231.5539
 20
153.9229
 30
0.0
 10
-231.5732
 20
151.6974
 30
0.0
 10
-230.5416
 20
149.8867
 30
0.0
 10
-229.51
 20
148.0758
 30
0.0
 10
-227.5861
 20
146.9577
 30
0.0
 10
-225.502
 20
146.9577
 30
0.0
 10
-225.502
 20
146.9577
 30
0.0
 10
-202.0692
 20
146.9577
 30
0.0
 10
-202.0692
 20
146.9577
 30
0.0
 10
-201.4858
 20
146.9577
 30
0.0
 10
-200.9261
 20
146.7259
 30
0.0
 10
-200.5136
 20
146.3133
 30
0.0
 10
-200.101
 20
145.9008
 30
0.0
 10
-199.8692
 20
145.3411
 30
0.0
 10
-199.8692
 20
144.7577
 30
0.0
 10
-199.8692
 20
144.7577
 30
0.0
 10
-199.8692
 20
70.9177
 30
0.0
 10
-199.8692
 20
70.9177
 30
0.0
 10
-199.8692
 20
69.7028
 30
0.0
 10
-200.8543
 20
68.7177
 30
0.0
 10
-202.0692
 20
68.7177
 30
0.0
 10
-202.0692
 20
68.7177
 30
0.0
 10
-216.0692
 20
68.7177
 30
0.0
 10
-216.0692
 20
68.7177
 30
0.0
 10
-217.077
 20
68.7177
 30
0.0
 10
-218.0436
 20
68.3173
 30
0.0
 10
-218.7563
 20
67.6047
 30
0.0
 10
-219.4689
 20
66.8921
 30
0.0
 10
-219.8692
 20
65.9254
 30
0.0
 10
-219.8692
 20
64.9177
 30
0.0
 10
-219.8692
 20
64.9177
 30
0.0
 10
-219.8692
 20
38.9177
 30
0.0
 10
-219.8692
 20
38.9177
 30
0.0
 10
-219.8692
 20
37.9099
 30
0.0
 10
-219.4689
 20
36.9433
 30
0.0
 10
-218.7563
 20
36.2307
 30
0.0
 10
-218.0436
 20
35.5181
 30
0.0
 10
-217.077
 20
35.1177
 30
0.0
 10
-216.0692
 20
35.1177
 30
0.0
 10
-216.0692
 20
35.1177
 30
0.0
 10
-202.0692
 20
35.1177
 30
0.0
 10
-202.0692
 20
35.1177
 30
0.0
 10
-201.4858
 20
35.1177
 30
0.0
 10
-200.9261
 20
34.8859
 30
0.0
 10
-200.5136
 20
34.4733
 30
0.0
 10
-200.101
 20
34.0608
 30
0.0
 10
-199.8692
 20
33.5011
 30
0.0
 10
-199.8692
 20
32.9177
 30
0.0
 10
-199.8692
 20
32.9177
 30
0.0
 10
-199.8692
 20
25.9177
 30
0.0
 10
-199.8692
 20
25.9177
 30
0.0
 10
-199.8692
 20
24.7028
 30
0.0
 10
-200.8543
 20
23.7177
 30
0.0
 10
-202.0692
 20
23.7177
 30
0.0
 10
-202.0692
 20
23.7177
 30
0.0
 10
-278.0692
 20
23.7177
 30
0.0
 10
-278.0692
 20
23.7177
 30
0.0
 10
-278.6527
 20
23.7177
 30
0.0
 10
-279.2122
 20
23.9495
 30
0.0
 10
-279.6248
 20
24.3621
 30
0.0
 10
-280.0374
 20
24.7747
 30
0.0
 10
-280.2692
 20
25.3342
 30
0.0
 10
-280.2692
 20
25.9177
 30
0.0
 10
-280.2692
 20
25.9177
 30
0.0
 10
-280.2692
 20
32.9177
 30
0.0
 10
-280.2692
 20
32.9177
 30
0.0
 10
-280.2692
 20
33.5011
 30
0.0
 10
-280.0374
 20
34.0607
 30
0.0
 10
-279.6248
 20
34.4733
 30
0.0
 10
-279.2123
 20
34.8859
 30
0.0
 10
-278.6527
 20
35.1177
 30
0.0
 10
-278.0692
 20
35.1177
 30
0.0
 10
-278.0692
 20
35.1177
 30
0.0
 10
-264.0692
 20
35.1177
 30
0.0
 10
-264.0692
 20
35.1177
 30
0.0
 10
-261.9704
 20
35.1177
 30
0.0
 10
-260.2692
 20
36.8189
 30
0.0
 10
-260.2692
 20
38.9177
 30
0.0
 10
-260.2692
 20
38.9177
 30
0.0
 10
-260.2692
 20
64.9177
 30
0.0
 10
-260.2692
 20
64.9177
 30
0.0
 10
-260.2692
 20
65.9254
 30
0.0
 10
-260.6697
 20
66.8921
 30
0.0
 10
-261.3822
 20
67.6047
 30
0.0
 10
-262.0948
 20
68.3172
 30
0.0
 10
-263.0615
 20
68.7177
 30
0.0
 10
-264.0692
 20
68.7177
 30
0.0
 10
-264.0692
 20
68.7177
 30
0.0
 10
-278.0692
 20
68.7177
 30
0.0
 10
-278.0692
 20
68.7177
 30
0.0
 10
-278.6527
 20
68.7177
 30
0.0
 10
-279.2122
 20
68.9495
 30
0.0
 10
-279.6248
 20
69.3621
 30
0.0
 10
-280.0374
 20
69.7747
 30
0.0
 10
-280.2692
 20
70.3342
 30
0.0
 10
-280.2692
 20
70.9177
 30
0.0
 10
-280.2692
 20
70.9177
 30
0.0
 10
-280.2692
 20
144.7577
 30
0.0
 10
-280.2692
 20
144.7577
 30
0.0
 10
-280.2692
 20
145.3411
 30
0.0
 10
-280.0374
 20
145.9007
 30
0.0
 10
-279.6248
 20
146.3133
 30
0.0
 10
-279.2123
 20
146.7259
 30
0.0
 10
-278.6527
 20
146.9577
 30
0.0
 10
-278.0692
 20
146.9577
 30
0.0
 10
-278.0692
 20
146.9577
 30
0.0
 10
-254.6364
 20
146.9577
 30
0.0
 10
-254.6364
 20
146.9577
 30
0.0
 10
-252.5523
 20
146.9577
 30
0.0
 10
-250.6285
 20
148.0759
 30
0.0
 10
-249.5969
 20
149.8867
 30
0.0
 10
-248.5654
 20
151.6974
 30
0.0
 10
-248.5845
 20
153.9229
 30
0.0
 10
-249.6472
 20
155.7154
 30
0.0
  0
ENDSEC
  0
SECTION
  2
OBJECTS
  0
DICTIONARY
  5
C
330
0
100
AcDbDictionary
  3
ACAD_GROUP
350
D
  3
ACAD_LAYOUT
350
1A
  3
ACAD_MATERIAL
350
43
  3
ACAD_MLEADERSTYLE
350
5B
  3
ACAD_MLINESTYLE
350
17
  3
ACAD_PLOTSETTINGS
350
19
  3
ACAD_SCALELIST
350
47
  3
ACAD_VISUALSTYLE
350
2A
  3
ACDBVARIABLEDICTIONARY
350
9F
  3
DWGPROPS
350
A6
1001
ACAD
1000
TREAT_AS_HARD
1070
     0
  0
DICTIONARY
  5
D
102
{ACAD_REACTORS
330
C
102
}
330
C
100
AcDbDictionary
1001
ACAD
1000
TREAT_AS_HARD
1070
     0
  0
DICTIONARY
  5
1A
102
{ACAD_REACTORS
330
C
102
}
330
C
100
AcDbDictionary
1001
ACAD
1000
TREAT_AS_HARD
1070
     0
  0
DICTIONARY
  5
43
102
{ACAD_REACTORS
330
C
102
}
330
C
100
AcDbDictionary
  3
BYBLOCK
350
45
  3
BYLAYER
350
44
  3
GLOBAL
350
46
1001
ACAD
1000
TREAT_AS_HARD
1070
     0
  0
DICTIONARY
  5
5B
102
{ACAD_REACTORS
330
C
102
}
330
C
100
AcDbDictionary
  3
STANDARD
350
5C
1001
ACAD
1000
TREAT_AS_HARD
1070
     0
  0
DICTIONARY
  5
17
102
{ACAD_REACTORS
330
C
102
}
330
C
100
AcDbDictionary
  3
STANDARD
350
18
1001
ACAD
1000
TREAT_AS_HARD
1070
     0
  0
DICTIONARY
  5
19
102
{ACAD_REACTORS
330
C
102
}
330
C
100
AcDbDictionary
1001
ACAD
1000
TREAT_AS_HARD
1070
     0
  0
DICTIONARY
  5
47
102
{ACAD_REACTORS
330
C
102
}
330
C
100
AcDbDictionary
  3
A0
350
48
  3
A1
350
49
  3
A2
350
4A
  3
A3
350
4B
  3
A4
350
4C
  3
A5
350
4D
  3
A6
350
4E
  3
A7
350
4F
  3
A8
350
50
  3
A9
350
51
  3
B1
350
52
  3
B2
350
53
  3
B3
350
54
  3
B4
350
55
  3
B5
350
56
  3
B6
350
57
  3
B7
350
58
1001
ACAD
1000
TREAT_AS_HARD
1070
     0
  0
DICTIONARY
  5
2A
102
{ACAD_REACTORS
330
C
102
}
330
C
100
AcDbDictionary
  3
2DWIREFRAME
350
2F
  3
BASIC
350
32
  3
BRIGHTEN
350
36
  3
COLORCHANGE
350
3A
  3
CONCEPTUAL
350
34
  3
DIM
350
35
  3
EDGECOLOROFF
350
3D
  3
FACEPATTERN
350
39
  3
FLAT
350
2B
  3
FLATWITHEDGES
350
2C
  3
GOURAUD
350
2D
  3
GOURAUDWITHEDGES
350
2E
  3
HIDDEN
350
31
  3
JITTEROFF
350
3B
  3
LINEPATTERN
350
38
  3
OVERHANGOFF
350
3C
  3
REALISTIC
350
33
  3
SHADED
350
42
  3
SHADED_WITH_EDGES
350
41
  3
SHADES_OF_GRAY
350
3E
  3
SKETCHY
350
3F
  3
THICKEN
350
37
  3
WIREFRAME
350
30
  3
X-RAY
350
40
1001
ACAD
1000
TREAT_AS_HARD
1070
     0
  0
DICTIONARY
  5
9F
102
{ACAD_REACTORS
330
C
102
}
330
C
100
AcDbDictionary
  3
CANNOSCALE
350
A7
  3
CMLEADERSTYLE
350
A1
  3
CTABLESTYLE
350
A0
  3
DIMASSOC
350
A4
  3
HIDETEXT
350
A5
  3
MSLTSCALE
350
A8
1001
ACAD
1000
TREAT_AS_HARD
1070
     0
  0
XRECORD
  5
A6
102
{ACAD_REACTORS
330
C
102
}
330
C
100
AcDbXrecord
  1
DWGPROPS COOKIE
  2

  3

  4

  6

  7

  8
jt523
  9

300
=
301
=
302
=
303
=
304
=
305
=
306
=
307
=
308
=
309
=
 40
0.0
 41
2460886.093160718
 42
2460886.093160949
  1

 90
        0
  0
MATERIAL
  5
45
102
{ACAD_REACTORS
330
43
102
}
102
{ACAD_XDICTIONARY
360
AB
102
}
330
43
100
AcDbMaterial
  1
BYBLOCK
  0
MATERIAL
  5
44
102
{ACAD_REACTORS
330
43
102
}
102
{ACAD_XDICTIONARY
360
A9
102
}
330
43
100
AcDbMaterial
  1
BYLAYER
  0
MATERIAL
  5
46
102
{ACAD_REACTORS
330
43
102
}
102
{ACAD_XDICTIONARY
360
AD
102
}
330
43
100
AcDbMaterial
  1
GLOBAL
  0
ACAD_PROXY_OBJECT
  5
5C
102
{ACAD_REACTORS
330
5B
102
}
330
5B
100
AcDbZombieObject
 90
      499
 91
      505
 93
      610
310
40901902A4063FBFFFFFE056BD1B81E855B9FC0AD7A3703D0AD73F4214DD185B99185C9900AD7A3703D0AC73F90141901A02B5E8DC0F42B1CFC02B5E8DC0F42B1CFE5764000000000000300FC0
340
14
340
0
340
11
340
0
 94
        0
1001
ACAD_MLEADERVER
1070
     2
  0
MLINESTYLE
  5
18
102
{ACAD_REACTORS
330
17
102
}
330
17
100
AcDbMlineStyle
  2
Standard
 70
     0
  3

 62
   256
 51
90.0
 52
90.0
 71
     2
 49
0.5
 62
   256
  6
BYLAYER
 49
-0.5
 62
   256
  6
BYLAYER
  0
ACAD_PROXY_OBJECT
  5
48
102
{ACAD_REACTORS
330
47
102
}
330
47
100
AcDbZombieObject
 90
      499
 91
      503
 93
       41
310
903313A31580
  0
ACAD_PROXY_OBJECT
  5
49
102
{ACAD_REACTORS
330
47
102
}
330
47
100
AcDbZombieObject
 90
      499
 91
      503
 93
      257
310
90E312F31323822203D2031272D3022000000000000200FC000000000000284000
  0
ACAD_PROXY_OBJECT
  5
4A
102
{ACAD_REACTORS
330
47
102
}
330
47
100
AcDbZombieObject
 90
      499
 91
      503
 93
      249
310
90D312F363422203D2031272D3022000000000000240FC000000000000284000
  0
ACAD_PROXY_OBJECT
  5
4B
102
{ACAD_REACTORS
330
47
102
}
330
47
100
AcDbZombieObject
 90
      499
 91
      503
 93
      249
310
90D312F333222203D2031272D3022000000000000280FC000000000000284000
  0
ACAD_PROXY_OBJECT
  5
4C
102
{ACAD_REACTORS
330
47
102
}
330
47
100
AcDbZombieObject
 90
      499
 91
      503
 93
      249
310
90D312F313622203D2031272D30220000000000002C0FC000000000000284000
  0
ACAD_PROXY_OBJECT
  5
4D
102
{ACAD_REACTORS
330
47
102
}
330
47
100
AcDbZombieObject
 90
      499
 91
      503
 93
      249
310
90D332F333222203D2031272D30220000000000002E0FC000000000000284000
  0
ACAD_PROXY_OBJECT
  5
4E
102
{ACAD_REACTORS
330
47
102
}
330
47
100
AcDbZombieObject
 90
      499
 91
      503
 93
      241
310
90C312F3822203D2031272D3022000000000000300FC000000000000284000
  0
ACAD_PROXY_OBJECT
  5
4F
102
{ACAD_REACTORS
330
47
102
}
330
47
100
AcDbZombieObject
 90
      499
 91
      503
 93
      249
310
90D332F313622203D2031272D3022000000000000320FC000000000000284000
  0
ACAD_PROXY_OBJECT
  5
50
102
{ACAD_REACTORS
330
47
102
}
330
47
100
AcDbZombieObject
 90
      499
 91
      503
 93
      241
310
90C312F3422203D2031272D3022000000000000340FC000000000000284000
  0
ACAD_PROXY_OBJECT
  5
51
102
{ACAD_REACTORS
330
47
102
}
330
47
100
AcDbZombieObject
 90
      499
 91
      503
 93
      241
310
90C332F3822203D2031272D3022000000000000360FC000000000000284000
  0
ACAD_PROXY_OBJECT
  5
52
102
{ACAD_REACTORS
330
47
102
}
330
47
100
AcDbZombieObject
 90
      499
 91
      503
 93
      241
310
90C312F3222203D2031272D3022000000000000380FC000000000000284000
  0
ACAD_PROXY_OBJECT
  5
53
102
{ACAD_REACTORS
330
47
102
}
330
47
100
AcDbZombieObject
 90
      499
 91
      503
 93
      241
310
90C332F3422203D2031272D30220000000000003A0FC000000000000284000
  0
ACAD_PROXY_OBJECT
  5
54
102
{ACAD_REACTORS
330
47
102
}
330
47
100
AcDbZombieObject
 90
      499
 91
      503
 93
      161
310
90A3122203D2031272D30224000000000000284000
  0
ACAD_PROXY_OBJECT
  5
55
102
{ACAD_REACTORS
330
47
102
}
330
47
100
AcDbZombieObject
 90
      499
 91
      503
 93
      257
310
90E312D312F3222203D2031272D30220000000000003E0FC000000000000284000
  0
ACAD_PROXY_OBJECT
  5
56
102
{ACAD_REACTORS
330
47
102
}
330
47
100
AcDbZombieObject
 90
      499
 91
      503
 93
      225
310
90A3322203D2031272D302200000000000002100000000000000284000
  0
ACAD_PROXY_OBJECT
  5
57
102
{ACAD_REACTORS
330
47
102
}
330
47
100
AcDbZombieObject
 90
      499
 91
      503
 93
      225
310
90A3622203D2031272D302200000000000006100000000000000284000
  0
ACAD_PROXY_OBJECT
  5
58
102
{ACAD_REACTORS
330
47
102
}
330
47
100
AcDbZombieObject
 90
      499
 91
      503
 93
      249
310
90D31272D3022203D2031272D30220000000000000A100000000000000284000
  0
ACAD_PROXY_OBJECT
  5
2F
102
{ACAD_REACTORS
330
2A
102
}
330
2A
100
AcDbZombieObject
 90
      499
 91
      501
 93
      436
310
42CC9915DA5C99599C985B595049028333333333333E33F0000000000000F90107901411070040501600405405064090741402480A0340
1001
ACAD
1000
AcDbSavedByObjectVersion
1070
     0
  0
ACAD_PROXY_OBJECT
  5
32
102
{ACAD_REACTORS
330
2A
102
}
330
2A
100
AcDbZombieObject
 90
      499
 91
      501
 93
      388
310
4150985CDA58D07406404333333333333E33F0000000000000F90107A41107004050150841D405064090741402480A0350
1001
ACAD
1000
AcDbSavedByObjectVersion
1070
     0
  0
ACAD_PROXY_OBJECT
  5
36
102
{ACAD_REACTORS
330
2A
102
}
330
2A
100
AcDbZombieObject
 90
      499
 91
      501
 93
      428
310
42109C9A59DA1D195B90C409028333333333333E33F0000000000000F9010790141107004050150841D405064090741402480A029950
1001
ACAD
1000
AcDbSavedByObjectVersion
1070
     0
  0
ACAD_PROXY_OBJECT
  5
3A
102
{ACAD_REACTORS
330
2A
102
}
330
2A
100
AcDbZombieObject
 90
      499
 91
      501
 93
      452
310
42D0DBDB1BDC90DA185B99D95104090240C333333333333E33F0000000000000F90108901411070040501508421405064090741402480A0350
1001
ACAD
1000
AcDbSavedByObjectVersion
1070
     0
  0
ACAD_PROXY_OBJECT
  5
34
102
{ACAD_REACTORS
330
2A
102
}
330
2A
100
AcDbZombieObject
 90
      499
 91
      501
 93
      500
310
4290DBDB98D95C1D1D585B10940D028333333333333E33F0000000000000F90107902409070040501000000000018199010841D405064090740C02480A0340
1001
ACAD
1000
AcDbSavedByObjectVersion
1070
     0
  0
ACAD_PROXY_OBJECT
  5
35
102
{ACAD_REACTORS
330
2A
102
}
330
2A
100
AcDbZombieObject
 90
      499
 91
      501
 93
      412
310
40D11A5B50B409028333333333333E33F0000000000000F9010790141107004050150841D405064090741402480A02677FFFFFD0
1001
ACAD
1000
AcDbSavedByObjectVersion
1070
     0
  0
ACAD_PROXY_OBJECT
  5
3D
102
{ACAD_REACTORS
330
2A
102
}
330
2A
100
AcDbZombieObject
 90
      499
 91
      501
 93
      452
310
43115919D950DBDB1BDC93D999916409028333333333333E33F0000000000000F9010790141107004050150841D405064090741402480A0350
1001
ACAD
1000
AcDbSavedByObjectVersion
1070
     0
  0
ACAD_PROXY_OBJECT
  5
39
102
{ACAD_REACTORS
330
2A
102
}
330
2A
100
AcDbZombieObject
 90
      499
 91
      501
 93
      444
310
42D19858D95C185D1D195C9B90F409028333333333333E33F0000000000000F9010790141107004050150841D405064090741402480A0350
1001
ACAD
1000
AcDbSavedByObjectVersion
1070
     0
  0
ACAD_PROXY_OBJECT
  5
2B
102
{ACAD_REACTORS
330
2A
102
}
330
2A
100
AcDbZombieObject
 90
      499
 91
      501
 93
      380
310
41119B185D240901404333333333333E33F0000000000000F9010740A907004050150841D405064090741402480A1B50
1001
ACAD
1000
AcDbSavedByObjectVersion
1070
     0
  0
ACAD_PROXY_OBJECT
  5
2C
102
{ACAD_REACTORS
330
2A
102
}
330
2A
100
AcDbZombieObject
 90
      499
 91
      501
 93
      468
310
43519B185D15DA5D1A115919D95CD0140901404333333333333E33F0000000000000F90107409019070040501600405405064090741402480A1B50
1001
ACAD
1000
AcDbSavedByObjectVersion
1070
     0
  0
ACAD_PROXY_OBJECT
  5
2D
102
{ACAD_REACTORS
330
2A
102
}
330
2A
100
AcDbZombieObject
 90
      499
 91
      501
 93
      404
310
41D1DBDD5C985D5910240902404333333333333E33F0000000000000F9010740A9070040501641D405064090741402480A1B50
1001
ACAD
1000
AcDbSavedByObjectVersion
1070
     0
  0
ACAD_PROXY_OBJECT
  5
2E
102
{ACAD_REACTORS
330
2A
102
}
330
2A
100
AcDbZombieObject
 90
      499
 91
      501
 93
      492
310
4411DBDD5C985D5915DA5D1A115919D95CD0340902404333333333333E33F0000000000000F90107409019070040501600405405064090741402480A1B50
1001
ACAD
1000
AcDbSavedByObjectVersion
1070
     0
  0
ACAD_PROXY_OBJECT
  5
31
102
{ACAD_REACTORS
330
2A
102
}
330
2A
100
AcDbZombieObject
 90
      499
 91
      501
 93
      476
310
41921A5919195B90640502408333333333333E33F0000000000000F901079024090700405020000000000001110200405405064090740C02480A0340
1001
ACAD
1000
AcDbSavedByObjectVersion
1070
     0
  0
ACAD_PROXY_OBJECT
  5
3B
102
{ACAD_REACTORS
330
2A
102
}
330
2A
100
AcDbZombieObject
 90
      499
 91
      501
 93
      428
310
42529A5D1D195C93D999914409028333333333333E33F0000000000000F9010790141107004050150A41D405064090741402480A0350
1001
ACAD
1000
AcDbSavedByObjectVersion
1070
     0
  0
ACAD_PROXY_OBJECT
  5
38
102
{ACAD_REACTORS
330
2A
102
}
330
2A
100
AcDbZombieObject
 90
      499
 91
      501
 93
      444
310
42D31A5B995C185D1D195C9B90E409028333333333333E33F0000000000000F9010790141107004050750841D405064090741402483A0350
1001
ACAD
1000
AcDbSavedByObjectVersion
1070
     0
  0
ACAD_PROXY_OBJECT
  5
3C
102
{ACAD_REACTORS
330
2A
102
}
330
2A
100
AcDbZombieObject
 90
      499
 91
      501
 93
      444
310
42D3DD995C9A185B99D3D999915409028333333333333E33F0000000000000F9010790141107004050150941D405064090741402480A0350
1001
ACAD
1000
AcDbSavedByObjectVersion
1070
     0
  0
ACAD_PROXY_OBJECT
  5
33
102
{ACAD_REACTORS
330
2A
102
}
330
2A
100
AcDbZombieObject
 90
      499
 91
      501
 93
      428
310
425499585B1A5CDD1A58D08409038333333333333E33F0000000000000F9010740A907004050150800405405064090740C02480A1B40
1001
ACAD
1000
AcDbSavedByObjectVersion
1070
     0
  0
ACAD_PROXY_OBJECT
  5
42
102
{ACAD_REACTORS
330
2A
102
}
330
2A
100
AcDbZombieObject
 90
      499
 91
      501
 93
      420
310
4194DA1859195911B40902404333333333333E33F0000000000000F9010740A41107004050150800405405064090840C02480A0B40
1001
ACAD
1000
AcDbSavedByObjectVersion
1070
     0
  0
ACAD_PROXY_OBJECT
  5
41
102
{ACAD_REACTORS
330
2A
102
}
330
2A
100
AcDbZombieObject
 90
      499
 91
      501
 93
      516
310
4454DA18591959081DDA5D1A08195919D95CD1A40902404333333333333E33F0000000000000F901074090142907004050250800405405064090740C02480A0B40
1001
ACAD
1000
AcDbSavedByObjectVersion
1070
     0
  0
ACAD_PROXY_OBJECT
  5
3E
102
{ACAD_REACTORS
330
2A
102
}
330
2A
100
AcDbZombieObject
 90
      499
 91
      501
 93
      532
310
4394DA1859195CC81BD98811DC985E5174090240C333333333333E33F0000000000000F901079024090741D01000000000000111010841D405064090740C02480A0340
1001
ACAD
1000
AcDbSavedByObjectVersion
1070
     0
  0
ACAD_PROXY_OBJECT
  5
3F
102
{ACAD_REACTORS
330
2A
102
}
330
2A
100
AcDbZombieObject
 90
      499
 91
      501
 93
      476
310
41D4DAD95D18DA1E51840502408333333333333E33F0000000000000F901079024090741D01000000000000111010B41D405064090741802480A0340
1001
ACAD
1000
AcDbSavedByObjectVersion
1070
     0
  0
ACAD_PROXY_OBJECT
  5
37
102
{ACAD_REACTORS
330
2A
102
}
330
2A
100
AcDbZombieObject
 90
      499
 91
      501
 93
      412
310
41D51A1A58DAD95B90D409028333333333333E33F0000000000000F9010790141107004050150C41D405064090741402480A0350
1001
ACAD
1000
AcDbSavedByObjectVersion
1070
     0
  0
ACAD_PROXY_OBJECT
  5
30
102
{ACAD_REACTORS
330
2A
102
}
330
2A
100
AcDbZombieObject
 90
      499
 91
      501
 93
      420
310
4255DA5C99599C985B595059028333333333333E33F0000000000000F90107901411070040501600405405064090740C02480A0340
1001
ACAD
1000
AcDbSavedByObjectVersion
1070
     0
  0
ACAD_PROXY_OBJECT
  5
40
102
{ACAD_REACTORS
330
2A
102
}
330
2A
100
AcDbZombieObject
 90
      499
 91
      501
 93
      404
310
41560B54985E51940902404000000000000E03F0000000000000F9010740501907004050150841D405064090740C02480A1B40
1001
ACAD
1000
AcDbSavedByObjectVersion
1070
     0
  0
DICTIONARYVAR
  5
A7
102
{ACAD_REACTORS
330
9F
102
}
330
9F
100
DictionaryVariables
280
     0
  1
1:1
  0
DICTIONARYVAR
  5
A1
102
{ACAD_REACTORS
330
9F
102
}
330
9F
100
DictionaryVariables
280
     0
  1
Standard
  0
DICTIONARYVAR
  5
A0
102
{ACAD_REACTORS
330
9F
102
}
330
9F
100
DictionaryVariables
280
     0
  1
Standard
  0
DICTIONARYVAR
  5
A4
102
{ACAD_REACTORS
330
9F
102
}
330
9F
100
DictionaryVariables
280
     0
  1
2
  0
DICTIONARYVAR
  5
A5
102
{ACAD_REACTORS
330
9F
102
}
330
9F
100
DictionaryVariables
280
     0
  1
1
  0
DICTIONARYVAR
  5
A8
102
{ACAD_REACTORS
330
9F
102
}
330
9F
100
DictionaryVariables
280
     0
  1
1
  0
DICTIONARY
  5
AB
330
45
100
AcDbDictionary
  3
ACAD_XREC_ROUNDTRIP
360
AC
1001
ACAD
1000
TREAT_AS_HARD
1070
     1
  0
DICTIONARY
  5
A9
330
44
100
AcDbDictionary
  3
ACAD_XREC_ROUNDTRIP
360
AA
1001
ACAD
1000
TREAT_AS_HARD
1070
     1
  0
DICTIONARY
  5
AD
330
46
100
AcDbDictionary
  3
ACAD_XREC_ROUNDTRIP
360
AE
1001
ACAD
1000
TREAT_AS_HARD
1070
     1
  0
XRECORD
  5
AC
102
{ACAD_REACTORS
330
AB
102
}
330
AB
100
AcDbXrecord
102
MATERIAL
148
0.0
149
0.0
149
0.0
 93
        0
 94
      127
282
     0
 72
     1
 77
     1
171
     1
175
     1
179
     1
273
     0
  0
XRECORD
  5
AA
102
{ACAD_REACTORS
330
A9
102
}
330
A9
100
AcDbXrecord
102
MATERIAL
148
0.0
149
0.0
149
0.0
 93
        0
 94
      127
282
     0
 72
     1
 77
     1
171
     1
175
     1
179
     1
273
     0
  0
XRECORD
  5
AE
102
{ACAD_REACTORS
330
AD
102
}
330
AD
100
AcDbXrecord
102
MATERIAL
148
0.0
149
0.0
149
0.0
 93
        0
 94
      127
282
     0
 72
     1
 77
     1
171
     1
175
     1
179
     1
273
     0
  0
ENDSEC
  0
EOF
