  0
SECTION
  2
HEADER
  9
$ACADVER
  1
AC1012
  9
$DWGCODEPAGE
  3
ansi_1252
  9
$INSBASE
 10
0.0
 20
0.0
 30
0.0
  9
$EXTMIN
 10
-261.1426
 20
-145.3204
 30
0.0
  9
$EXTMAX
 10
-116.8019
 20
179.018
 30
0.0
  9
$LIMMIN
 10
0.0
 20
0.0
  9
$LIMMAX
 10
12.0
 20
9.0
  9
$ORTHOMODE
 70
     0
  9
$REGENMODE
 70
     1
  9
$FILLMODE
 70
     1
  9
$QTEXTMODE
 70
     0
  9
$MIRRTEXT
 70
     1
  9
$DRAGMODE
 70
     2
  9
$LTSCALE
 40
1.0
  9
$OSMODE
 70
    37
  9
$ATTMODE
 70
     1
  9
$TEXTSIZE
 40
0.2
  9
$TRACEWID
 40
0.05
  9
$TEXTSTYLE
  7
STANDARD
  9
$CLAYER
  8
0
  9
$CELTYPE
  6
BYLAYER
  9
$CECOLOR
 62
   256
  9
$CELTSCALE
 40
1.0
  9
$DELOBJ
 70
     1
  9
$DISPSILH
 70
     0
  9
$DIMSCALE
 40
1.0
  9
$DIMASZ
 40
0.18
  9
$DIMEXO
 40
0.0625
  9
$DIMDLI
 40
0.38
  9
$DIMRND
 40
0.0
  9
$DIMDLE
 40
0.0
  9
$DIMEXE
 40
0.18
  9
$DIMTP
 40
0.0
  9
$DIMTM
 40
0.0
  9
$DIMTXT
 40
0.18
  9
$DIMCEN
 40
0.09
  9
$DIMTSZ
 40
0.0
  9
$DIMTOL
 70
     0
  9
$DIMLIM
 70
     0
  9
$DIMTIH
 70
     1
  9
$DIMTOH
 70
     1
  9
$DIMSE1
 70
     0
  9
$DIMSE2
 70
     0
  9
$DIMTAD
 70
     0
  9
$DIMZIN
 70
     0
  9
$DIMBLK
  1

  9
$DIMASO
 70
     1
  9
$DIMSHO
 70
     1
  9
$DIMPOST
  1

  9
$DIMAPOST
  1

  9
$DIMALT
 70
     0
  9
$DIMALTD
 70
     2
  9
$DIMALTF
 40
25.4
  9
$DIMLFAC
 40
1.0
  9
$DIMTOFL
 70
     0
  9
$DIMTVP
 40
0.0
  9
$DIMTIX
 70
     0
  9
$DIMSOXD
 70
     0
  9
$DIMSAH
 70
     0
  9
$DIMBLK1
  1

  9
$DIMBLK2
  1

  9
$DIMSTYLE
  2
STANDARD
  9
$DIMCLRD
 70
     0
  9
$DIMCLRE
 70
     0
  9
$DIMCLRT
 70
     0
  9
$DIMTFAC
 40
1.0
  9
$DIMGAP
 40
0.09
  9
$DIMJUST
 70
     0
  9
$DIMSD1
 70
     0
  9
$DIMSD2
 70
     0
  9
$DIMTOLJ
 70
     1
  9
$DIMTZIN
 70
     0
  9
$DIMALTZ
 70
     0
  9
$DIMALTTZ
 70
     0
  9
$DIMFIT
 70
     3
  9
$DIMUPT
 70
     0
  9
$DIMUNIT
 70
     2
  9
$DIMDEC
 70
     4
  9
$DIMTDEC
 70
     4
  9
$DIMALTU
 70
     2
  9
$DIMALTTD
 70
     2
  9
$DIMTXSTY
  7
STANDARD
  9
$DIMAUNIT
 70
     0
  9
$LUNITS
 70
     2
  9
$LUPREC
 70
     4
  9
$SKETCHINC
 40
0.1
  9
$FILLETRAD
 40
0.0
  9
$AUNITS
 70
     0
  9
$AUPREC
 70
     0
  9
$MENU
  1
.
  9
$ELEVATION
 40
0.0
  9
$PELEVATION
 40
0.0
  9
$THICKNESS
 40
0.0
  9
$LIMCHECK
 70
     0
  9
$CHAMFERA
 40
0.0
  9
$CHAMFERB
 40
0.0
  9
$CHAMFERC
 40
0.0
  9
$CHAMFERD
 40
0.0
  9
$SKPOLY
 70
     0
  9
$TDCREATE
 40
2460886.593392003
  9
$TDUPDATE
 40
2460886.593392234
  9
$TDINDWG
 40
0.0000000116
  9
$TDUSRTIMER
 40
0.0000000116
  9
$USRTIMER
 70
     1
  9
$ANGBASE
 50
0.0
  9
$ANGDIR
 70
     0
  9
$PDMODE
 70
     0
  9
$PDSIZE
 40
0.0
  9
$PLINEWID
 40
0.0
  9
$COORDS
 70
     1
  9
$SPLFRAME
 70
     0
  9
$SPLINETYPE
 70
     6
  9
$SPLINESEGS
 70
     8
  9
$ATTDIA
 70
     0
  9
$ATTREQ
 70
     1
  9
$HANDLING
 70
     1
  9
$HANDSEED
  5
A5
  9
$SURFTAB1
 70
     6
  9
$SURFTAB2
 70
     6
  9
$SURFTYPE
 70
     6
  9
$SURFU
 70
     6
  9
$SURFV
 70
     6
  9
$UCSNAME
  2

  9
$UCSORG
 10
0.0
 20
0.0
 30
0.0
  9
$UCSXDIR
 10
1.0
 20
0.0
 30
0.0
  9
$UCSYDIR
 10
0.0
 20
1.0
 30
0.0
  9
$PUCSNAME
  2

  9
$PUCSORG
 10
0.0
 20
0.0
 30
0.0
  9
$PUCSXDIR
 10
1.0
 20
0.0
 30
0.0
  9
$PUCSYDIR
 10
0.0
 20
1.0
 30
0.0
  9
$USERI1
 70
     0
  9
$USERI2
 70
     0
  9
$USERI3
 70
     0
  9
$USERI4
 70
     0
  9
$USERI5
 70
     0
  9
$USERR1
 40
0.0
  9
$USERR2
 40
0.0
  9
$USERR3
 40
0.0
  9
$USERR4
 40
0.0
  9
$USERR5
 40
0.0
  9
$WORLDVIEW
 70
     1
  9
$SHADEDGE
 70
     3
  9
$SHADEDIF
 70
    70
  9
$TILEMODE
 70
     1
  9
$MAXACTVP
 70
    64
  9
$PINSBASE
 10
0.0
 20
0.0
 30
0.0
  9
$PLIMCHECK
 70
     0
  9
$PEXTMIN
 10
1.000000000000000E+20
 20
1.000000000000000E+20
 30
1.000000000000000E+20
  9
$PEXTMAX
 10
-1.000000000000000E+20
 20
-1.000000000000000E+20
 30
-1.000000000000000E+20
  9
$PLIMMIN
 10
0.0
 20
0.0
  9
$PLIMMAX
 10
12.0
 20
9.0
  9
$UNITMODE
 70
     0
  9
$VISRETAIN
 70
     1
  9
$PLINEGEN
 70
     0
  9
$PSLTSCALE
 70
     1
  9
$TREEDEPTH
 70
  3020
  9
$PICKSTYLE
 70
     1
  9
$CMLSTYLE
  2
STANDARD
  9
$CMLJUST
 70
     0
  9
$CMLSCALE
 40
1.0
  9
$SAVEIMAGES
 70
     1
  0
ENDSEC
  0
SECTION
  2
CLASSES
  0
CLASS
  1
ACDBDICTIONARYWDFLT
  2
AcDbDictionaryWithDefault
  3
ObjectDBX Classes
 90
    32768
280
     0
281
     0
  0
CLASS
  1
VISUALSTYLE
  2
AcDbVisualStyle
  3
ObjectDBX Classes
 90
     4095
280
     0
281
     0
  0
CLASS
  1
MATERIAL
  2
AcDbMaterial
  3
ObjectDBX Classes
 90
     1153
280
     0
281
     0
  0
CLASS
  1
SCALE
  2
AcDbScale
  3
ObjectDBX Classes
 90
     1153
280
     0
281
     0
  0
CLASS
  1
TABLESTYLE
  2
AcDbTableStyle
  3
ObjectDBX Classes
 90
     4095
280
     0
281
     0
  0
CLASS
  1
MLEADERSTYLE
  2
AcDbMLeaderStyle
  3
ACDB_MLEADERSTYLE_CLASS
 90
     4095
280
     0
281
     0
  0
CLASS
  1
SUN
  2
AcDbSun
  3
SCENEOE
 90
     1153
280
     0
281
     0
  0
CLASS
  1
DICTIONARYVAR
  2
AcDbDictionaryVar
  3
ObjectDBX Classes
 90
        0
280
     0
281
     0
  0
CLASS
  1
XRECORD
  2
AcDbXrecord
  3
ObjectDBX Classes
 90
    32768
280
     0
281
     0
  0
CLASS
  1
LWPOLYLINE
  2
AcDbPolyline
  3
ObjectDBX Classes
 90
    32768
280
     0
281
     1
  0
CLASS
  1
HATCH
  2
AcDbHatch
  3
ObjectDBX Classes
 90
    32768
280
     0
281
     1
  0
CLASS
  1
ACDBPLACEHOLDER
  2
AcDbPlaceHolder
  3
ObjectDBX Classes
 90
        0
280
     0
281
     0
  0
CLASS
  1
LAYOUT
  2
AcDbLayout
  3
ObjectDBX Classes
 90
        0
280
     0
281
     0
  0
ENDSEC
  0
SECTION
  2
TABLES
  0
TABLE
  2
VPORT
  5
8
330
0
100
AcDbSymbolTable
 70
     1
  0
VPORT
  5
29
330
8
100
AcDbSymbolTableRecord
100
AcDbViewportTableRecord
  2
*ACTIVE
 70
     0
 10
0.0
 20
0.0
 11
1.0
 21
1.0
 12
10.42990654205607
 22
4.5
 13
0.0
 23
0.0
 14
0.5
 24
0.5
 15
0.5
 25
0.5
 16
0.0
 26
0.0
 36
1.0
 17
0.0
 27
0.0
 37
0.0
 40
9.0
 41
1.972972972850329
 42
50.0
 43
0.0
 44
0.0
 50
0.0
 51
0.0
 71
     0
 72
   100
 73
     1
 74
     3
 75
     0
 76
     0
 77
     0
 78
     0
  0
ENDTAB
  0
TABLE
  2
LTYPE
  5
5
330
0
100
AcDbSymbolTable
 70
     1
  0
LTYPE
  5
14
330
5
100
AcDbSymbolTableRecord
100
AcDbLinetypeTableRecord
  2
BYBLOCK
 70
     0
  3

 72
    65
 73
     0
 40
0.0
  0
LTYPE
  5
15
330
5
100
AcDbSymbolTableRecord
100
AcDbLinetypeTableRecord
  2
BYLAYER
 70
     0
  3

 72
    65
 73
     0
 40
0.0
  0
LTYPE
  5
16
330
5
100
AcDbSymbolTableRecord
100
AcDbLinetypeTableRecord
  2
CONTINUOUS
 70
     0
  3
Solid line
 72
    65
 73
     0
 40
0.0
  0
ENDTAB
  0
TABLE
  2
LAYER
  5
2
330
0
100
AcDbSymbolTable
 70
     1
  0
LAYER
  5
10
330
2
100
AcDbSymbolTableRecord
100
AcDbLayerTableRecord
  2
0
 70
     0
 62
     7
  6
CONTINUOUS
  0
ENDTAB
  0
TABLE
  2
STYLE
  5
3
330
0
100
AcDbSymbolTable
 70
     1
  0
STYLE
  5
11
330
3
100
AcDbSymbolTableRecord
100
AcDbTextStyleTableRecord
  2
STANDARD
 70
     0
 40
0.0
 41
1.0
 50
0.0
 71
     0
 42
0.2
  3
txt
  4

  0
ENDTAB
  0
TABLE
  2
VIEW
  5
6
330
0
100
AcDbSymbolTable
 70
     0
  0
ENDTAB
  0
TABLE
  2
UCS
  5
7
330
0
100
AcDbSymbolTable
 70
     0
  0
ENDTAB
  0
TABLE
  2
APPID
  5
9
330
0
100
AcDbSymbolTable
 70
     3
  0
APPID
  5
12
330
9
100
AcDbSymbolTableRecord
100
AcDbRegAppTableRecord
  2
ACAD
 70
     0
  0
APPID
  5
5E
330
9
100
AcDbSymbolTableRecord
100
AcDbRegAppTableRecord
  2
ODA
 70
     0
  0
APPID
  5
A4
330
9
100
AcDbSymbolTableRecord
100
AcDbRegAppTableRecord
  2
ACAD_MLEADERVER
 70
     0
  0
ENDTAB
  0
TABLE
  2
DIMSTYLE
  5
A
330
0
100
AcDbSymbolTable
 70
     1
  0
DIMSTYLE
105
27
330
A
100
AcDbSymbolTableRecord
100
AcDbDimStyleTableRecord
  2
STANDARD
 70
     0
  3

  4

  5

  6

  7

 40
1.0
 41
0.18
 42
0.0625
 43
0.38
 44
0.18
 45
0.0
 46
0.0
 47
0.0
 48
0.0
140
0.18
141
0.09
142
0.0
143
25.4
144
1.0
145
0.0
146
1.0
147
0.09
 71
     0
 72
     0
 73
     1
 74
     1
 75
     0
 76
     0
 77
     0
 78
     0
170
     0
171
     2
172
     0
173
     0
174
     0
175
     0
176
     0
177
     0
178
     0
270
     2
271
     4
272
     4
273
     2
274
     2
340
11
275
     0
280
     0
281
     0
282
     0
283
     1
284
     0
285
     0
286
     0
287
     3
288
     0
  0
ENDTAB
  0
TABLE
  2
BLOCK_RECORD
  5
1
330
0
100
AcDbSymbolTable
 70
     0
  0
BLOCK_RECORD
  5
1F
330
1
100
AcDbSymbolTableRecord
100
AcDbBlockTableRecord
  2
*MODEL_SPACE
  0
BLOCK_RECORD
  5
1B
330
1
100
AcDbSymbolTableRecord
100
AcDbBlockTableRecord
  2
*PAPER_SPACE
  0
ENDTAB
  0
ENDSEC
  0
SECTION
  2
BLOCKS
  0
BLOCK
  5
20
330
1F
100
AcDbEntity
  8
0
100
AcDbBlockBegin
  2
*MODEL_SPACE
 70
     0
 10
0.0
 20
0.0
 30
0.0
  3
*MODEL_SPACE
  1

  0
ENDBLK
  5
21
330
1F
100
AcDbEntity
  8
0
100
AcDbBlockEnd
  0
BLOCK
  5
1C
330
1B
100
AcDbEntity
 67
     1
  8
0
100
AcDbBlockBegin
  2
*PAPER_SPACE
 70
     0
 10
0.0
 20
0.0
 30
0.0
  3
*PAPER_SPACE
  1

  0
ENDBLK
  5
1D
330
1B
100
AcDbEntity
 67
     1
  8
0
100
AcDbBlockEnd
  0
ENDSEC
  0
SECTION
  2
ENTITIES
  0
SPLINE
  5
5F
330
1F
100
AcDbEntity
  8
0
 62
   250
100
AcDbSpline
210
0.0
220
0.0
230
1.0
 70
    11
 71
     3
 72
    41
 73
    37
 74
     0
 42
0.0000000001
 43
0.0000000001
 40
0.0
 40
0.0
 40
0.0
 40
0.0
 40
0.0833333333333333
 40
0.0833333333333333
 40
0.0833333333333333
 40
0.1666666666666667
 40
0.1666666666666667
 40
0.1666666666666667
 40
0.25
 40
0.25
 40
0.25
 40
0.3333333333333333
 40
0.3333333333333333
 40
0.3333333333333333
 40
0.4166666666666666
 40
0.4166666666666666
 40
0.4166666666666666
 40
0.5
 40
0.5
 40
0.5
 40
0.5833333333333333
 40
0.5833333333333333
 40
0.5833333333333333
 40
0.6666666666666666
 40
0.6666666666666666
 40
0.6666666666666666
 40
0.75
 40
0.75
 40
0.75
 40
0.8333333333333333
 40
0.8333333333333333
 40
0.8333333333333333
 40
0.9166666666666666
 40
0.9166666666666666
 40
0.9166666666666666
 40
1.0
 40
1.0
 40
1.0
 40
1.0
 10
-169.1259
 20
57.4198
 30
0.0
 10
-169.1259
 20
57.4198
 30
0.0
 10
-169.1259
 20
60.4198
 30
0.0
 10
-169.1259
 20
60.4198
 30
0.0
 10
-169.1259
 20
60.4198
 30
0.0
 10
-162.7259
 20
60.4198
 30
0.0
 10
-162.7259
 20
60.4198
 30
0.0
 10
-162.7259
 20
60.4198
 30
0.0
 10
-162.7259
 20
57.4198
 30
0.0
 10
-162.7259
 20
57.4198
 30
0.0
 10
-162.7259
 20
57.4198
 30
0.0
 10
-143.1259
 20
57.4198
 30
0.0
 10
-143.1259
 20
57.4198
 30
0.0
 10
-143.1259
 20
57.4198
 30
0.0
 10
-143.1259
 20
60.4198
 30
0.0
 10
-143.1259
 20
60.4198
 30
0.0
 10
-143.1259
 20
60.4198
 30
0.0
 10
-136.7259
 20
60.4198
 30
0.0
 10
-136.7259
 20
60.4198
 30
0.0
 10
-136.7259
 20
60.4198
 30
0.0
 10
-136.7259
 20
57.4198
 30
0.0
 10
-136.7259
 20
57.4198
 30
0.0
 10
-136.7259
 20
57.4198
 30
0.0
 10
-132.7259
 20
57.4198
 30
0.0
 10
-132.7259
 20
57.4198
 30
0.0
 10
-132.7259
 20
57.4198
 30
0.0
 10
-132.7259
 20
43.7198
 30
0.0
 10
-132.7259
 20
43.7198
 30
0.0
 10
-132.7259
 20
43.7198
 30
0.0
 10
-173.1259
 20
43.7198
 30
0.0
 10
-173.1259
 20
43.7198
 30
0.0
 10
-173.1259
 20
43.7198
 30
0.0
 10
-173.1259
 20
57.4198
 30
0.0
 10
-173.1259
 20
57.4198
 30
0.0
 10
-173.1259
 20
57.4198
 30
0.0
 10
-169.1259
 20
57.4198
 30
0.0
 10
-169.1259
 20
57.4198
 30
0.0
  0
SPLINE
  5
60
330
1F
100
AcDbEntity
  8
0
 62
   250
100
AcDbSpline
210
0.0
220
0.0
230
1.0
 70
    11
 71
     3
 72
    41
 73
    37
 74
     0
 42
0.0000000001
 43
0.0000000001
 40
0.0
 40
0.0
 40
0.0
 40
0.0
 40
0.0833333333333333
 40
0.0833333333333333
 40
0.0833333333333333
 40
0.1666666666666667
 40
0.1666666666666667
 40
0.1666666666666667
 40
0.25
 40
0.25
 40
0.25
 40
0.3333333333333333
 40
0.3333333333333333
 40
0.3333333333333333
 40
0.4166666666666666
 40
0.4166666666666666
 40
0.4166666666666666
 40
0.5
 40
0.5
 40
0.5
 40
0.5833333333333333
 40
0.5833333333333333
 40
0.5833333333333333
 40
0.6666666666666666
 40
0.6666666666666666
 40
0.6666666666666666
 40
0.75
 40
0.75
 40
0.75
 40
0.8333333333333333
 40
0.8333333333333333
 40
0.8333333333333333
 40
0.9166666666666666
 40
0.9166666666666666
 40
0.9166666666666666
 40
1.0
 40
1.0
 40
1.0
 40
1.0
 10
-168.9797
 20
37.7059
 30
0.0
 10
-168.9797
 20
37.7059
 30
0.0
 10
-168.9797
 20
40.7059
 30
0.0
 10
-168.9797
 20
40.7059
 30
0.0
 10
-168.9797
 20
40.7059
 30
0.0
 10
-162.5797
 20
40.7059
 30
0.0
 10
-162.5797
 20
40.7059
 30
0.0
 10
-162.5797
 20
40.7059
 30
0.0
 10
-162.5797
 20
37.7059
 30
0.0
 10
-162.5797
 20
37.7059
 30
0.0
 10
-162.5797
 20
37.7059
 30
0.0
 10
-142.9797
 20
37.7059
 30
0.0
 10
-142.9797
 20
37.7059
 30
0.0
 10
-142.9797
 20
37.7059
 30
0.0
 10
-142.9797
 20
40.7059
 30
0.0
 10
-142.9797
 20
40.7059
 30
0.0
 10
-142.9797
 20
40.7059
 30
0.0
 10
-136.5797
 20
40.7059
 30
0.0
 10
-136.5797
 20
40.7059
 30
0.0
 10
-136.5797
 20
40.7059
 30
0.0
 10
-136.5797
 20
37.7059
 30
0.0
 10
-136.5797
 20
37.7059
 30
0.0
 10
-136.5797
 20
37.7059
 30
0.0
 10
-132.5797
 20
37.7059
 30
0.0
 10
-132.5797
 20
37.7059
 30
0.0
 10
-132.5797
 20
37.7059
 30
0.0
 10
-132.5797
 20
24.0059
 30
0.0
 10
-132.5797
 20
24.0059
 30
0.0
 10
-132.5797
 20
24.0059
 30
0.0
 10
-172.9797
 20
24.0059
 30
0.0
 10
-172.9797
 20
24.0059
 30
0.0
 10
-172.9797
 20
24.0059
 30
0.0
 10
-172.9797
 20
37.7059
 30
0.0
 10
-172.9797
 20
37.7059
 30
0.0
 10
-172.9797
 20
37.7059
 30
0.0
 10
-168.9797
 20
37.7059
 30
0.0
 10
-168.9797
 20
37.7059
 30
0.0
  0
SPLINE
  5
61
330
1F
100
AcDbEntity
  8
0
 62
   250
100
AcDbSpline
210
0.0
220
0.0
230
1.0
 70
    11
 71
     3
 72
    59
 73
    55
 74
     0
 42
0.0000000001
 43
0.0000000001
 40
0.0
 40
0.0
 40
0.0
 40
0.0
 40
0.0555555555555556
 40
0.0555555555555556
 40
0.0555555555555556
 40
0.1111111111111111
 40
0.1111111111111111
 40
0.1111111111111111
 40
0.1666666666666667
 40
0.1666666666666667
 40
0.1666666666666667
 40
0.2222222222222222
 40
0.2222222222222222
 40
0.2222222222222222
 40
0.2777777777777778
 40
0.2777777777777778
 40
0.2777777777777778
 40
0.3333333333333333
 40
0.3333333333333333
 40
0.3333333333333333
 40
0.3888888888888888
 40
0.3888888888888888
 40
0.3888888888888888
 40
0.4444444444444444
 40
0.4444444444444444
 40
0.4444444444444444
 40
0.5
 40
0.5
 40
0.5
 40
0.5555555555555556
 40
0.5555555555555556
 40
0.5555555555555556
 40
0.611111111111111
 40
0.611111111111111
 40
0.611111111111111
 40
0.6666666666666666
 40
0.6666666666666666
 40
0.6666666666666666
 40
0.7222222222222222
 40
0.7222222222222222
 40
0.7222222222222222
 40
0.7777777777777777
 40
0.7777777777777777
 40
0.7777777777777777
 40
0.8333333333333333
 40
0.8333333333333333
 40
0.8333333333333333
 40
0.8888888888888888
 40
0.8888888888888888
 40
0.8888888888888888
 40
0.9444444444444444
 40
0.9444444444444444
 40
0.9444444444444444
 40
1.0
 40
1.0
 40
1.0
 40
1.0
 10
-169.927
 20
-123.4954
 30
0.0
 10
-169.927
 20
-123.4954
 30
0.0
 10
-169.927
 20
-120.4954
 30
0.0
 10
-169.927
 20
-120.4954
 30
0.0
 10
-169.927
 20
-120.4954
 30
0.0
 10
-163.527
 20
-120.4954
 30
0.0
 10
-163.527
 20
-120.4954
 30
0.0
 10
-163.527
 20
-120.4954
 30
0.0
 10
-163.527
 20
-123.4954
 30
0.0
 10
-163.527
 20
-123.4954
 30
0.0
 10
-163.527
 20
-123.4954
 30
0.0
 10
-146.857
 20
-123.4954
 30
0.0
 10
-146.857
 20
-123.4954
 30
0.0
 10
-146.857
 20
-123.4954
 30
0.0
 10
-146.857
 20
-120.4954
 30
0.0
 10
-146.857
 20
-120.4954
 30
0.0
 10
-146.857
 20
-120.4954
 30
0.0
 10
-140.457
 20
-120.4954
 30
0.0
 10
-140.457
 20
-120.4954
 30
0.0
 10
-140.457
 20
-120.4954
 30
0.0
 10
-140.457
 20
-123.4954
 30
0.0
 10
-140.457
 20
-123.4954
 30
0.0
 10
-140.457
 20
-123.4954
 30
0.0
 10
-134.492
 20
-123.4954
 30
0.0
 10
-134.492
 20
-123.4954
 30
0.0
 10
-134.492
 20
-123.4954
 30
0.0
 10
-134.492
 20
-144.3454
 30
0.0
 10
-134.492
 20
-144.3454
 30
0.0
 10
-134.492
 20
-144.3454
 30
0.0
 10
-145.167
 20
-144.3454
 30
0.0
 10
-145.167
 20
-144.3454
 30
0.0
 10
-145.167
 20
-144.3454
 30
0.0
 10
-145.167
 20
-144.1454
 30
0.0
 10
-145.167
 20
-144.1454
 30
0.0
 10
-145.167
 20
-140.5638
 30
0.0
 10
-147.0778
 20
-137.2543
 30
0.0
 10
-150.1795
 20
-135.4635
 30
0.0
 10
-153.2812
 20
-133.6727
 30
0.0
 10
-157.1028
 20
-133.6727
 30
0.0
 10
-160.2045
 20
-135.4635
 30
0.0
 10
-163.3063
 20
-137.2543
 30
0.0
 10
-165.217
 20
-140.5638
 30
0.0
 10
-165.217
 20
-144.1454
 30
0.0
 10
-165.217
 20
-144.1454
 30
0.0
 10
-165.217
 20
-144.3454
 30
0.0
 10
-165.217
 20
-144.3454
 30
0.0
 10
-165.217
 20
-144.3454
 30
0.0
 10
-175.892
 20
-144.3454
 30
0.0
 10
-175.892
 20
-144.3454
 30
0.0
 10
-175.892
 20
-144.3454
 30
0.0
 10
-175.892
 20
-123.4954
 30
0.0
 10
-175.892
 20
-123.4954
 30
0.0
 10
-175.892
 20
-123.4954
 30
0.0
 10
-169.927
 20
-123.4954
 30
0.0
 10
-169.927
 20
-123.4954
 30
0.0
  0
SPLINE
  5
62
330
1F
100
AcDbEntity
  8
0
 62
   250
100
AcDbSpline
210
0.0
220
0.0
230
1.0
 70
    11
 71
     3
 72
    83
 73
    79
 74
     0
 42
0.0000000001
 43
0.0000000001
 40
0.0
 40
0.0
 40
0.0
 40
0.0
 40
0.0384615384615385
 40
0.0384615384615385
 40
0.0384615384615385
 40
0.0769230769230769
 40
0.0769230769230769
 40
0.0769230769230769
 40
0.1153846153846154
 40
0.1153846153846154
 40
0.1153846153846154
 40
0.1538461538461539
 40
0.1538461538461539
 40
0.1538461538461539
 40
0.1923076923076923
 40
0.1923076923076923
 40
0.1923076923076923
 40
0.2307692307692308
 40
0.2307692307692308
 40
0.2307692307692308
 40
0.2692307692307693
 40
0.2692307692307693
 40
0.2692307692307693
 40
0.3076923076923077
 40
0.3076923076923077
 40
0.3076923076923077
 40
0.3461538461538461
 40
0.3461538461538461
 40
0.3461538461538461
 40
0.3846153846153846
 40
0.3846153846153846
 40
0.3846153846153846
 40
0.4230769230769231
 40
0.4230769230769231
 40
0.4230769230769231
 40
0.4615384615384616
 40
0.4615384615384616
 40
0.4615384615384616
 40
0.5
 40
0.5
 40
0.5
 40
0.5384615384615385
 40
0.5384615384615385
 40
0.5384615384615385
 40
0.576923076923077
 40
0.576923076923077
 40
0.576923076923077
 40
0.6153846153846154
 40
0.6153846153846154
 40
0.6153846153846154
 40
0.6538461538461539
 40
0.6538461538461539
 40
0.6538461538461539
 40
0.6923076923076923
 40
0.6923076923076923
 40
0.6923076923076923
 40
0.7307692307692308
 40
0.7307692307692308
 40
0.7307692307692308
 40
0.7692307692307693
 40
0.7692307692307693
 40
0.7692307692307693
 40
0.8076923076923077
 40
0.8076923076923077
 40
0.8076923076923077
 40
0.8461538461538463
 40
0.8461538461538463
 40
0.8461538461538463
 40
0.8846153846153847
 40
0.8846153846153847
 40
0.8846153846153847
 40
0.9230769230769231
 40
0.9230769230769231
 40
0.9230769230769231
 40
0.9615384615384616
 40
0.9615384615384616
 40
0.9615384615384616
 40
1.0
 40
1.0
 40
1.0
 40
1.0
 10
-164.34
 20
-73.5454
 30
0.0
 10
-164.34
 20
-73.5454
 30
0.0
 10
-164.34
 20
-76.5454
 30
0.0
 10
-164.34
 20
-76.5454
 30
0.0
 10
-164.34
 20
-76.5454
 30
0.0
 10
-170.74
 20
-76.5454
 30
0.0
 10
-170.74
 20
-76.5454
 30
0.0
 10
-170.74
 20
-76.5454
 30
0.0
 10
-170.74
 20
-73.5454
 30
0.0
 10
-170.74
 20
-73.5454
 30
0.0
 10
-170.74
 20
-73.5454
 30
0.0
 10
-173.24
 20
-73.5454
 30
0.0
 10
-173.24
 20
-73.5454
 30
0.0
 10
-173.24
 20
-73.5454
 30
0.0
 10
-173.24
 20
-43.6954
 30
0.0
 10
-173.24
 20
-43.6954
 30
0.0
 10
-173.24
 20
-43.6954
 30
0.0
 10
-170.74
 20
-43.6954
 30
0.0
 10
-170.74
 20
-43.6954
 30
0.0
 10
-170.74
 20
-43.6954
 30
0.0
 10
-170.74
 20
-40.6954
 30
0.0
 10
-170.74
 20
-40.6954
 30
0.0
 10
-170.74
 20
-40.6954
 30
0.0
 10
-164.34
 20
-40.6954
 30
0.0
 10
-164.34
 20
-40.6954
 30
0.0
 10
-164.34
 20
-40.6954
 30
0.0
 10
-164.34
 20
-43.6954
 30
0.0
 10
-164.34
 20
-43.6954
 30
0.0
 10
-164.34
 20
-43.6954
 30
0.0
 10
-125.74
 20
-43.6954
 30
0.0
 10
-125.74
 20
-43.6954
 30
0.0
 10
-125.74
 20
-43.6954
 30
0.0
 10
-125.74
 20
-40.6954
 30
0.0
 10
-125.74
 20
-40.6954
 30
0.0
 10
-125.74
 20
-40.6954
 30
0.0
 10
-119.34
 20
-40.6954
 30
0.0
 10
-119.34
 20
-40.6954
 30
0.0
 10
-119.34
 20
-40.6954
 30
0.0
 10
-119.34
 20
-43.6954
 30
0.0
 10
-119.34
 20
-43.6954
 30
0.0
 10
-119.34
 20
-43.6954
 30
0.0
 10
-116.84
 20
-43.6954
 30
0.0
 10
-116.84
 20
-43.6954
 30
0.0
 10
-116.84
 20
-43.6954
 30
0.0
 10
-116.84
 20
-73.5454
 30
0.0
 10
-116.84
 20
-73.5454
 30
0.0
 10
-116.84
 20
-73.5454
 30
0.0
 10
-119.34
 20
-73.5454
 30
0.0
 10
-119.34
 20
-73.5454
 30
0.0
 10
-119.34
 20
-73.5454
 30
0.0
 10
-119.34
 20
-76.5454
 30
0.0
 10
-119.34
 20
-76.5454
 30
0.0
 10
-119.34
 20
-76.5454
 30
0.0
 10
-125.74
 20
-76.5454
 30
0.0
 10
-125.74
 20
-76.5454
 30
0.0
 10
-125.74
 20
-76.5454
 30
0.0
 10
-125.74
 20
-73.5454
 30
0.0
 10
-125.74
 20
-73.5454
 30
0.0
 10
-125.74
 20
-73.5454
 30
0.0
 10
-127.7972
 20
-73.5454
 30
0.0
 10
-127.7972
 20
-73.5454
 30
0.0
 10
-127.7972
 20
-73.5454
 30
0.0
 10
-127.7338
 20
-73.2961
 30
0.0
 10
-127.7338
 20
-73.2961
 30
0.0
 10
-125.8976
 20
-66.0747
 30
0.0
 10
-128.7383
 20
-58.4721
 30
0.0
 10
-134.8602
 20
-54.2243
 30
0.0
 10
-140.9821
 20
-49.9766
 30
0.0
 10
-149.098
 20
-49.9765
 30
0.0
 10
-155.2199
 20
-54.2243
 30
0.0
 10
-161.3417
 20
-58.4721
 30
0.0
 10
-164.1825
 20
-66.0747
 30
0.0
 10
-162.3463
 20
-73.2961
 30
0.0
 10
-162.3463
 20
-73.2961
 30
0.0
 10
-162.2829
 20
-73.5454
 30
0.0
 10
-162.2829
 20
-73.5454
 30
0.0
 10
-162.2829
 20
-73.5454
 30
0.0
 10
-164.34
 20
-73.5454
 30
0.0
 10
-164.34
 20
-73.5454
 30
0.0
  0
SPLINE
  5
63
330
1F
100
AcDbEntity
  8
0
 62
   250
100
AcDbSpline
210
0.0
220
0.0
230
1.0
 70
    11
 71
     3
 72
    83
 73
    79
 74
     0
 42
0.0000000001
 43
0.0000000001
 40
0.0
 40
0.0
 40
0.0
 40
0.0
 40
0.0384615384615385
 40
0.0384615384615385
 40
0.0384615384615385
 40
0.0769230769230769
 40
0.0769230769230769
 40
0.0769230769230769
 40
0.1153846153846154
 40
0.1153846153846154
 40
0.1153846153846154
 40
0.1538461538461539
 40
0.1538461538461539
 40
0.1538461538461539
 40
0.1923076923076923
 40
0.1923076923076923
 40
0.1923076923076923
 40
0.2307692307692308
 40
0.2307692307692308
 40
0.2307692307692308
 40
0.2692307692307693
 40
0.2692307692307693
 40
0.2692307692307693
 40
0.3076923076923077
 40
0.3076923076923077
 40
0.3076923076923077
 40
0.3461538461538461
 40
0.3461538461538461
 40
0.3461538461538461
 40
0.3846153846153846
 40
0.3846153846153846
 40
0.3846153846153846
 40
0.4230769230769231
 40
0.4230769230769231
 40
0.4230769230769231
 40
0.4615384615384616
 40
0.4615384615384616
 40
0.4615384615384616
 40
0.5
 40
0.5
 40
0.5
 40
0.5384615384615385
 40
0.5384615384615385
 40
0.5384615384615385
 40
0.576923076923077
 40
0.576923076923077
 40
0.576923076923077
 40
0.6153846153846154
 40
0.6153846153846154
 40
0.6153846153846154
 40
0.6538461538461539
 40
0.6538461538461539
 40
0.6538461538461539
 40
0.6923076923076923
 40
0.6923076923076923
 40
0.6923076923076923
 40
0.7307692307692308
 40
0.7307692307692308
 40
0.7307692307692308
 40
0.7692307692307693
 40
0.7692307692307693
 40
0.7692307692307693
 40
0.8076923076923077
 40
0.8076923076923077
 40
0.8076923076923077
 40
0.8461538461538463
 40
0.8461538461538463
 40
0.8461538461538463
 40
0.8846153846153847
 40
0.8846153846153847
 40
0.8846153846153847
 40
0.9230769230769231
 40
0.9230769230769231
 40
0.9230769230769231
 40
0.9615384615384616
 40
0.9615384615384616
 40
0.9615384615384616
 40
1.0
 40
1.0
 40
1.0
 40
1.0
 10
-164.6717
 20
-114.4497
 30
0.0
 10
-164.6717
 20
-114.4497
 30
0.0
 10
-164.6717
 20
-117.4497
 30
0.0
 10
-164.6717
 20
-117.4497
 30
0.0
 10
-164.6717
 20
-117.4497
 30
0.0
 10
-171.0717
 20
-117.4497
 30
0.0
 10
-171.0717
 20
-117.4497
 30
0.0
 10
-171.0717
 20
-117.4497
 30
0.0
 10
-171.0717
 20
-114.4497
 30
0.0
 10
-171.0717
 20
-114.4497
 30
0.0
 10
-171.0717
 20
-114.4497
 30
0.0
 10
-173.5717
 20
-114.4497
 30
0.0
 10
-173.5717
 20
-114.4497
 30
0.0
 10
-173.5717
 20
-114.4497
 30
0.0
 10
-173.5717
 20
-84.5997
 30
0.0
 10
-173.5717
 20
-84.5997
 30
0.0
 10
-173.5717
 20
-84.5997
 30
0.0
 10
-171.0717
 20
-84.5997
 30
0.0
 10
-171.0717
 20
-84.5997
 30
0.0
 10
-171.0717
 20
-84.5997
 30
0.0
 10
-171.0717
 20
-81.5997
 30
0.0
 10
-171.0717
 20
-81.5997
 30
0.0
 10
-171.0717
 20
-81.5997
 30
0.0
 10
-164.6717
 20
-81.5997
 30
0.0
 10
-164.6717
 20
-81.5997
 30
0.0
 10
-164.6717
 20
-81.5997
 30
0.0
 10
-164.6717
 20
-84.5997
 30
0.0
 10
-164.6717
 20
-84.5997
 30
0.0
 10
-164.6717
 20
-84.5997
 30
0.0
 10
-126.0717
 20
-84.5997
 30
0.0
 10
-126.0717
 20
-84.5997
 30
0.0
 10
-126.0717
 20
-84.5997
 30
0.0
 10
-126.0717
 20
-81.5997
 30
0.0
 10
-126.0717
 20
-81.5997
 30
0.0
 10
-126.0717
 20
-81.5997
 30
0.0
 10
-119.6717
 20
-81.5997
 30
0.0
 10
-119.6717
 20
-81.5997
 30
0.0
 10
-119.6717
 20
-81.5997
 30
0.0
 10
-119.6717
 20
-84.5997
 30
0.0
 10
-119.6717
 20
-84.5997
 30
0.0
 10
-119.6717
 20
-84.5997
 30
0.0
 10
-117.1717
 20
-84.5997
 30
0.0
 10
-117.1717
 20
-84.5997
 30
0.0
 10
-117.1717
 20
-84.5997
 30
0.0
 10
-117.1717
 20
-114.4497
 30
0.0
 10
-117.1717
 20
-114.4497
 30
0.0
 10
-117.1717
 20
-114.4497
 30
0.0
 10
-119.6717
 20
-114.4497
 30
0.0
 10
-119.6717
 20
-114.4497
 30
0.0
 10
-119.6717
 20
-114.4497
 30
0.0
 10
-119.6717
 20
-117.4497
 30
0.0
 10
-119.6717
 20
-117.4497
 30
0.0
 10
-119.6717
 20
-117.4497
 30
0.0
 10
-126.0717
 20
-117.4497
 30
0.0
 10
-126.0717
 20
-117.4497
 30
0.0
 10
-126.0717
 20
-117.4497
 30
0.0
 10
-126.0717
 20
-114.4497
 30
0.0
 10
-126.0717
 20
-114.4497
 30
0.0
 10
-126.0717
 20
-114.4497
 30
0.0
 10
-128.1289
 20
-114.4497
 30
0.0
 10
-128.1289
 20
-114.4497
 30
0.0
 10
-128.1289
 20
-114.4497
 30
0.0
 10
-128.0655
 20
-114.2004
 30
0.0
 10
-128.0655
 20
-114.2004
 30
0.0
 10
-126.2292
 20
-106.979
 30
0.0
 10
-129.07
 20
-99.3764
 30
0.0
 10
-135.1918
 20
-95.1286
 30
0.0
 10
-141.3136
 20
-90.8808
 30
0.0
 10
-149.4296
 20
-90.8808
 30
0.0
 10
-155.5515
 20
-95.1285
 30
0.0
 10
-161.6734
 20
-99.3763
 30
0.0
 10
-164.5142
 20
-106.979
 30
0.0
 10
-162.6779
 20
-114.2004
 30
0.0
 10
-162.6779
 20
-114.2004
 30
0.0
 10
-162.6145
 20
-114.4497
 30
0.0
 10
-162.6145
 20
-114.4497
 30
0.0
 10
-162.6145
 20
-114.4497
 30
0.0
 10
-164.6717
 20
-114.4497
 30
0.0
 10
-164.6717
 20
-114.4497
 30
0.0
  0
SPLINE
  5
64
330
1F
100
AcDbEntity
  8
0
 62
   250
100
AcDbSpline
210
0.0
220
0.0
230
1.0
 70
    11
 71
     3
 72
    29
 73
    25
 74
     0
 42
0.0000000001
 43
0.0000000001
 40
0.0
 40
0.0
 40
0.0
 40
0.0
 40
0.125
 40
0.125
 40
0.125
 40
0.25
 40
0.25
 40
0.25
 40
0.375
 40
0.375
 40
0.375
 40
0.5
 40
0.5
 40
0.5
 40
0.625
 40
0.625
 40
0.625
 40
0.75
 40
0.75
 40
0.75
 40
0.875
 40
0.875
 40
0.875
 40
1.0
 40
1.0
 40
1.0
 40
1.0
 10
-169.6487
 20
-31.3432
 30
0.0
 10
-169.6487
 20
-31.3432
 30
0.0
 10
-171.6487
 20
-31.3432
 30
0.0
 10
-171.6487
 20
-31.3432
 30
0.0
 10
-171.6487
 20
-31.3432
 30
0.0
 10
-171.6487
 20
-22.7332
 30
0.0
 10
-171.6487
 20
-22.7332
 30
0.0
 10
-171.6487
 20
-22.7332
 30
0.0
 10
-161.2487
 20
-22.7332
 30
0.0
 10
-161.2487
 20
-22.7332
 30
0.0
 10
-161.2487
 20
-22.7332
 30
0.0
 10
-161.2487
 20
-31.3432
 30
0.0
 10
-161.2487
 20
-31.3432
 30
0.0
 10
-161.2487
 20
-31.3432
 30
0.0
 10
-163.2487
 20
-31.3432
 30
0.0
 10
-163.2487
 20
-31.3432
 30
0.0
 10
-163.2487
 20
-31.3432
 30
0.0
 10
-163.2487
 20
-34.3432
 30
0.0
 10
-163.2487
 20
-34.3432
 30
0.0
 10
-163.2487
 20
-34.3432
 30
0.0
 10
-169.6487
 20
-34.3432
 30
0.0
 10
-169.6487
 20
-34.3432
 30
0.0
 10
-169.6487
 20
-34.3432
 30
0.0
 10
-169.6487
 20
-31.3432
 30
0.0
 10
-169.6487
 20
-31.3432
 30
0.0
  0
SPLINE
  5
65
330
1F
100
AcDbEntity
  8
0
 62
   250
100
AcDbSpline
210
0.0
220
0.0
230
1.0
 70
    11
 71
     3
 72
    17
 73
    13
 74
     0
 42
0.0000000001
 43
0.0000000001
 40
0.0
 40
0.0
 40
0.0
 40
0.0
 40
0.25
 40
0.25
 40
0.25
 40
0.5
 40
0.5
 40
0.5
 40
0.75
 40
0.75
 40
0.75
 40
1.0
 40
1.0
 40
1.0
 40
1.0
 10
-182.6145
 20
-32.2323
 30
0.0
 10
-182.6145
 20
-32.2323
 30
0.0
 10
-182.6145
 20
-23.7423
 30
0.0
 10
-182.6145
 20
-23.7423
 30
0.0
 10
-182.6145
 20
-23.7423
 30
0.0
 10
-183.2345
 20
-23.7423
 30
0.0
 10
-183.2345
 20
-23.7423
 30
0.0
 10
-183.2345
 20
-23.7423
 30
0.0
 10
-183.2345
 20
-32.2323
 30
0.0
 10
-183.2345
 20
-32.2323
 30
0.0
 10
-183.2345
 20
-32.2323
 30
0.0
 10
-182.6145
 20
-32.2323
 30
0.0
 10
-182.6145
 20
-32.2323
 30
0.0
  0
SPLINE
  5
66
330
1F
100
AcDbEntity
  8
0
 62
   250
100
AcDbSpline
210
0.0
220
0.0
230
1.0
 70
    11
 71
     3
 72
    17
 73
    13
 74
     0
 42
0.0000000001
 43
0.0000000001
 40
0.0
 40
0.0
 40
0.0
 40
0.0
 40
0.25
 40
0.25
 40
0.25
 40
0.5
 40
0.5
 40
0.5
 40
0.75
 40
0.75
 40
0.75
 40
1.0
 40
1.0
 40
1.0
 40
1.0
 10
-216.6595
 20
14.5877
 30
0.0
 10
-216.6595
 20
14.5877
 30
0.0
 10
-216.6595
 20
15.2077
 30
0.0
 10
-216.6595
 20
15.2077
 30
0.0
 10
-216.6595
 20
15.2077
 30
0.0
 10
-225.1495
 20
15.2077
 30
0.0
 10
-225.1495
 20
15.2077
 30
0.0
 10
-225.1495
 20
15.2077
 30
0.0
 10
-225.1495
 20
14.5877
 30
0.0
 10
-225.1495
 20
14.5877
 30
0.0
 10
-225.1495
 20
14.5877
 30
0.0
 10
-216.6595
 20
14.5877
 30
0.0
 10
-216.6595
 20
14.5877
 30
0.0
  0
SPLINE
  5
67
330
1F
100
AcDbEntity
  8
0
 62
   250
100
AcDbSpline
210
0.0
220
0.0
230
1.0
 70
    11
 71
     3
 72
    17
 73
    13
 74
     0
 42
0.0000000001
 43
0.0000000001
 40
0.0
 40
0.0
 40
0.0
 40
0.0
 40
0.25
 40
0.25
 40
0.25
 40
0.5
 40
0.5
 40
0.5
 40
0.75
 40
0.75
 40
0.75
 40
1.0
 40
1.0
 40
1.0
 40
1.0
 10
-258.5745
 20
-32.2323
 30
0.0
 10
-258.5745
 20
-32.2323
 30
0.0
 10
-258.5745
 20
-23.7423
 30
0.0
 10
-258.5745
 20
-23.7423
 30
0.0
 10
-258.5745
 20
-23.7423
 30
0.0
 10
-259.1945
 20
-23.7423
 30
0.0
 10
-259.1945
 20
-23.7423
 30
0.0
 10
-259.1945
 20
-23.7423
 30
0.0
 10
-259.1945
 20
-32.2323
 30
0.0
 10
-259.1945
 20
-32.2323
 30
0.0
 10
-259.1945
 20
-32.2323
 30
0.0
 10
-258.5745
 20
-32.2323
 30
0.0
 10
-258.5745
 20
-32.2323
 30
0.0
  0
SPLINE
  5
68
330
1F
100
AcDbEntity
  8
0
 62
   250
100
AcDbSpline
210
0.0
220
0.0
230
1.0
 70
    11
 71
     3
 72
    17
 73
    13
 74
     0
 42
0.0000000001
 43
0.0000000001
 40
0.0
 40
0.0
 40
0.0
 40
0.0
 40
0.25
 40
0.25
 40
0.25
 40
0.5
 40
0.5
 40
0.5
 40
0.75
 40
0.75
 40
0.75
 40
1.0
 40
1.0
 40
1.0
 40
1.0
 10
-192.3945
 20
-142.8723
 30
0.0
 10
-192.3945
 20
-142.8723
 30
0.0
 10
-183.9045
 20
-142.8723
 30
0.0
 10
-183.9045
 20
-142.8723
 30
0.0
 10
-183.9045
 20
-142.8723
 30
0.0
 10
-183.9045
 20
-142.2523
 30
0.0
 10
-183.9045
 20
-142.2523
 30
0.0
 10
-183.9045
 20
-142.2523
 30
0.0
 10
-192.3945
 20
-142.2523
 30
0.0
 10
-192.3945
 20
-142.2523
 30
0.0
 10
-192.3945
 20
-142.2523
 30
0.0
 10
-192.3945
 20
-142.8723
 30
0.0
 10
-192.3945
 20
-142.8723
 30
0.0
  0
SPLINE
  5
69
330
1F
100
AcDbEntity
  8
0
 62
   250
100
AcDbSpline
210
0.0
220
0.0
230
1.0
 70
    11
 71
     3
 72
    23
 73
    19
 74
     0
 42
0.0000000001
 43
0.0000000001
 40
0.0
 40
0.0
 40
0.0
 40
0.0
 40
0.1666666666666667
 40
0.1666666666666667
 40
0.1666666666666667
 40
0.3333333333333333
 40
0.3333333333333333
 40
0.3333333333333333
 40
0.5
 40
0.5
 40
0.5
 40
0.6666666666666666
 40
0.6666666666666666
 40
0.6666666666666666
 40
0.8333333333333333
 40
0.8333333333333333
 40
0.8333333333333333
 40
1.0
 40
1.0
 40
1.0
 40
1.0
 10
-182.0345
 20
-99.8823
 30
0.0
 10
-182.0345
 20
-99.8823
 30
0.0
 10
-182.0345
 20
-53.5623
 30
0.0
 10
-182.0345
 20
-53.5623
 30
0.0
 10
-182.0345
 20
-53.5623
 30
0.0
 10
-189.6192
 20
-53.5623
 30
0.0
 10
-189.6192
 20
-53.5623
 30
0.0
 10
-189.6192
 20
-53.5623
 30
0.0
 10
-189.6192
 20
-25.2023
 30
0.0
 10
-189.6192
 20
-25.2023
 30
0.0
 10
-189.6192
 20
-25.2023
 30
0.0
 10
-193.8745
 20
-25.2023
 30
0.0
 10
-193.8745
 20
-25.2023
 30
0.0
 10
-193.8745
 20
-25.2023
 30
0.0
 10
-193.8745
 20
-99.8823
 30
0.0
 10
-193.8745
 20
-99.8823
 30
0.0
 10
-193.8745
 20
-99.8823
 30
0.0
 10
-182.0345
 20
-99.8823
 30
0.0
 10
-182.0345
 20
-99.8823
 30
0.0
  0
SPLINE
  5
6A
330
1F
100
AcDbEntity
  8
0
 62
   250
100
AcDbSpline
210
0.0
220
0.0
230
1.0
 70
    11
 71
     3
 72
    17
 73
    13
 74
     0
 42
0.0000000001
 43
0.0000000001
 40
0.0
 40
0.0
 40
0.0
 40
0.0
 40
0.25
 40
0.25
 40
0.25
 40
0.5
 40
0.5
 40
0.5
 40
0.75
 40
0.75
 40
0.75
 40
1.0
 40
1.0
 40
1.0
 40
1.0
 10
-229.6445
 20
5.5777
 30
0.0
 10
-229.6445
 20
5.5777
 30
0.0
 10
-229.6445
 20
8.1777
 30
0.0
 10
-229.6445
 20
8.1777
 30
0.0
 10
-229.6445
 20
8.1777
 30
0.0
 10
-235.2445
 20
8.1777
 30
0.0
 10
-235.2445
 20
8.1777
 30
0.0
 10
-235.2445
 20
8.1777
 30
0.0
 10
-235.2445
 20
5.5777
 30
0.0
 10
-235.2445
 20
5.5777
 30
0.0
 10
-235.2445
 20
5.5777
 30
0.0
 10
-229.6445
 20
5.5777
 30
0.0
 10
-229.6445
 20
5.5777
 30
0.0
  0
SPLINE
  5
6B
330
1F
100
AcDbEntity
  8
0
 62
   250
100
AcDbSpline
210
0.0
220
0.0
230
1.0
 70
    11
 71
     3
 72
    17
 73
    13
 74
     0
 42
0.0000000001
 43
0.0000000001
 40
0.0
 40
0.0
 40
0.0
 40
0.0
 40
0.25
 40
0.25
 40
0.25
 40
0.5
 40
0.5
 40
0.5
 40
0.75
 40
0.75
 40
0.75
 40
1.0
 40
1.0
 40
1.0
 40
1.0
 10
-198.1045
 20
-142.3823
 30
0.0
 10
-198.1045
 20
-142.3823
 30
0.0
 10
-198.1045
 20
-136.7823
 30
0.0
 10
-198.1045
 20
-136.7823
 30
0.0
 10
-198.1045
 20
-136.7823
 30
0.0
 10
-200.7045
 20
-136.7823
 30
0.0
 10
-200.7045
 20
-136.7823
 30
0.0
 10
-200.7045
 20
-136.7823
 30
0.0
 10
-200.7045
 20
-142.3823
 30
0.0
 10
-200.7045
 20
-142.3823
 30
0.0
 10
-200.7045
 20
-142.3823
 30
0.0
 10
-198.1045
 20
-142.3823
 30
0.0
 10
-198.1045
 20
-142.3823
 30
0.0
  0
SPLINE
  5
6C
330
1F
100
AcDbEntity
  8
0
 62
   250
100
AcDbSpline
210
0.0
220
0.0
230
1.0
 70
    11
 71
     3
 72
    17
 73
    13
 74
     0
 42
0.0000000001
 43
0.0000000001
 40
0.0
 40
0.0
 40
0.0
 40
0.0
 40
0.25
 40
0.25
 40
0.25
 40
0.5
 40
0.5
 40
0.5
 40
0.75
 40
0.75
 40
0.75
 40
1.0
 40
1.0
 40
1.0
 40
1.0
 10
-243.7045
 20
-91.7823
 30
0.0
 10
-243.7045
 20
-91.7823
 30
0.0
 10
-243.7045
 20
-97.3823
 30
0.0
 10
-243.7045
 20
-97.3823
 30
0.0
 10
-243.7045
 20
-97.3823
 30
0.0
 10
-241.1045
 20
-97.3823
 30
0.0
 10
-241.1045
 20
-97.3823
 30
0.0
 10
-241.1045
 20
-97.3823
 30
0.0
 10
-241.1045
 20
-91.7823
 30
0.0
 10
-241.1045
 20
-91.7823
 30
0.0
 10
-241.1045
 20
-91.7823
 30
0.0
 10
-243.7045
 20
-91.7823
 30
0.0
 10
-243.7045
 20
-91.7823
 30
0.0
  0
SPLINE
  5
6D
330
1F
100
AcDbEntity
  8
0
 62
   250
100
AcDbSpline
210
0.0
220
0.0
230
1.0
 70
    11
 71
     3
 72
    17
 73
    13
 74
     0
 42
0.0000000001
 43
0.0000000001
 40
0.0
 40
0.0
 40
0.0
 40
0.0
 40
0.25
 40
0.25
 40
0.25
 40
0.5
 40
0.5
 40
0.5
 40
0.75
 40
0.75
 40
0.75
 40
1.0
 40
1.0
 40
1.0
 40
1.0
 10
-231.1045
 20
-91.7823
 30
0.0
 10
-231.1045
 20
-91.7823
 30
0.0
 10
-236.7045
 20
-91.7823
 30
0.0
 10
-236.7045
 20
-91.7823
 30
0.0
 10
-236.7045
 20
-91.7823
 30
0.0
 10
-236.7045
 20
-94.3823
 30
0.0
 10
-236.7045
 20
-94.3823
 30
0.0
 10
-236.7045
 20
-94.3823
 30
0.0
 10
-231.1045
 20
-94.3823
 30
0.0
 10
-231.1045
 20
-94.3823
 30
0.0
 10
-231.1045
 20
-94.3823
 30
0.0
 10
-231.1045
 20
-91.7823
 30
0.0
 10
-231.1045
 20
-91.7823
 30
0.0
  0
SPLINE
  5
6E
330
1F
100
AcDbEntity
  8
0
 62
   250
100
AcDbSpline
210
0.0
220
0.0
230
1.0
 70
    11
 71
     3
 72
    17
 73
    13
 74
     0
 42
0.0000000001
 43
0.0000000001
 40
0.0
 40
0.0
 40
0.0
 40
0.0
 40
0.25
 40
0.25
 40
0.25
 40
0.5
 40
0.5
 40
0.5
 40
0.75
 40
0.75
 40
0.75
 40
1.0
 40
1.0
 40
1.0
 40
1.0
 10
-210.7045
 20
-142.3823
 30
0.0
 10
-210.7045
 20
-142.3823
 30
0.0
 10
-205.1045
 20
-142.3823
 30
0.0
 10
-205.1045
 20
-142.3823
 30
0.0
 10
-205.1045
 20
-142.3823
 30
0.0
 10
-205.1045
 20
-139.7823
 30
0.0
 10
-205.1045
 20
-139.7823
 30
0.0
 10
-205.1045
 20
-139.7823
 30
0.0
 10
-210.7045
 20
-139.7823
 30
0.0
 10
-210.7045
 20
-139.7823
 30
0.0
 10
-210.7045
 20
-139.7823
 30
0.0
 10
-210.7045
 20
-142.3823
 30
0.0
 10
-210.7045
 20
-142.3823
 30
0.0
  0
SPLINE
  5
6F
330
1F
100
AcDbEntity
  8
0
 62
   250
100
AcDbSpline
210
0.0
220
0.0
230
1.0
 70
    11
 71
     3
 72
    17
 73
    13
 74
     0
 42
0.0000000001
 43
0.0000000001
 40
0.0
 40
0.0
 40
0.0
 40
0.0
 40
0.25
 40
0.25
 40
0.25
 40
0.5
 40
0.5
 40
0.5
 40
0.75
 40
0.75
 40
0.75
 40
1.0
 40
1.0
 40
1.0
 40
1.0
 10
-206.5645
 20
5.5777
 30
0.0
 10
-206.5645
 20
5.5777
 30
0.0
 10
-206.5645
 20
8.1777
 30
0.0
 10
-206.5645
 20
8.1777
 30
0.0
 10
-206.5645
 20
8.1777
 30
0.0
 10
-212.1645
 20
8.1777
 30
0.0
 10
-212.1645
 20
8.1777
 30
0.0
 10
-212.1645
 20
8.1777
 30
0.0
 10
-212.1645
 20
5.5777
 30
0.0
 10
-212.1645
 20
5.5777
 30
0.0
 10
-212.1645
 20
5.5777
 30
0.0
 10
-206.5645
 20
5.5777
 30
0.0
 10
-206.5645
 20
5.5777
 30
0.0
  0
SPLINE
  5
70
330
1F
100
AcDbEntity
  8
0
 62
   250
100
AcDbSpline
210
0.0
220
0.0
230
1.0
 70
    11
 71
     3
 72
    17
 73
    13
 74
     0
 42
0.0000000001
 43
0.0000000001
 40
0.0
 40
0.0
 40
0.0
 40
0.0
 40
0.25
 40
0.25
 40
0.25
 40
0.5
 40
0.5
 40
0.5
 40
0.75
 40
0.75
 40
0.75
 40
1.0
 40
1.0
 40
1.0
 40
1.0
 10
-241.1045
 20
-142.3823
 30
0.0
 10
-241.1045
 20
-142.3823
 30
0.0
 10
-241.1045
 20
-136.7823
 30
0.0
 10
-241.1045
 20
-136.7823
 30
0.0
 10
-241.1045
 20
-136.7823
 30
0.0
 10
-243.7045
 20
-136.7823
 30
0.0
 10
-243.7045
 20
-136.7823
 30
0.0
 10
-243.7045
 20
-136.7823
 30
0.0
 10
-243.7045
 20
-142.3823
 30
0.0
 10
-243.7045
 20
-142.3823
 30
0.0
 10
-243.7045
 20
-142.3823
 30
0.0
 10
-241.1045
 20
-142.3823
 30
0.0
 10
-241.1045
 20
-142.3823
 30
0.0
  0
SPLINE
  5
71
330
1F
100
AcDbEntity
  8
0
 62
   250
100
AcDbSpline
210
0.0
220
0.0
230
1.0
 70
    11
 71
     3
 72
    17
 73
    13
 74
     0
 42
0.0000000001
 43
0.0000000001
 40
0.0
 40
0.0
 40
0.0
 40
0.0
 40
0.25
 40
0.25
 40
0.25
 40
0.5
 40
0.5
 40
0.5
 40
0.75
 40
0.75
 40
0.75
 40
1.0
 40
1.0
 40
1.0
 40
1.0
 10
-230.8345
 20
-115.0423
 30
0.0
 10
-230.8345
 20
-113.9377
 30
0.0
 10
-231.7299
 20
-113.0423
 30
0.0
 10
-232.8345
 20
-113.0423
 30
0.0
 10
-233.9391
 20
-113.0423
 30
0.0
 10
-234.8345
 20
-113.9377
 30
0.0
 10
-234.8345
 20
-115.0423
 30
0.0
 10
-234.8345
 20
-116.1469
 30
0.0
 10
-233.9391
 20
-117.0423
 30
0.0
 10
-232.8345
 20
-117.0423
 30
0.0
 10
-231.7298
 20
-117.0423
 30
0.0
 10
-230.8345
 20
-116.147
 30
0.0
 10
-230.8345
 20
-115.0423
 30
0.0
  0
SPLINE
  5
72
330
1F
100
AcDbEntity
  8
0
 62
   250
100
AcDbSpline
210
0.0
220
0.0
230
1.0
 70
    11
 71
     3
 72
    17
 73
    13
 74
     0
 42
0.0000000001
 43
0.0000000001
 40
0.0
 40
0.0
 40
0.0
 40
0.0
 40
0.25
 40
0.25
 40
0.25
 40
0.5
 40
0.5
 40
0.5
 40
0.75
 40
0.75
 40
0.75
 40
1.0
 40
1.0
 40
1.0
 40
1.0
 10
-207.1545
 20
-115.0423
 30
0.0
 10
-207.1545
 20
-114.0371
 30
0.0
 10
-207.9693
 20
-113.2223
 30
0.0
 10
-208.9745
 20
-113.2223
 30
0.0
 10
-209.9797
 20
-113.2223
 30
0.0
 10
-210.7945
 20
-114.0371
 30
0.0
 10
-210.7945
 20
-115.0423
 30
0.0
 10
-210.7945
 20
-116.0475
 30
0.0
 10
-209.9797
 20
-116.8623
 30
0.0
 10
-208.9745
 20
-116.8623
 30
0.0
 10
-207.9693
 20
-116.8623
 30
0.0
 10
-207.1545
 20
-116.0475
 30
0.0
 10
-207.1545
 20
-115.0423
 30
0.0
  0
SPLINE
  5
73
330
1F
100
AcDbEntity
  8
0
 62
   250
100
AcDbSpline
210
0.0
220
0.0
230
1.0
 70
    11
 71
     3
 72
    17
 73
    13
 74
     0
 42
0.0000000001
 43
0.0000000001
 40
0.0
 40
0.0
 40
0.0
 40
0.0
 40
0.25
 40
0.25
 40
0.25
 40
0.5
 40
0.5
 40
0.5
 40
0.75
 40
0.75
 40
0.75
 40
1.0
 40
1.0
 40
1.0
 40
1.0
 10
-206.9745
 20
-75.0023
 30
0.0
 10
-206.9745
 20
-73.8977
 30
0.0
 10
-207.8699
 20
-73.0023
 30
0.0
 10
-208.9745
 20
-73.0023
 30
0.0
 10
-210.0791
 20
-73.0023
 30
0.0
 10
-210.9745
 20
-73.8977
 30
0.0
 10
-210.9745
 20
-75.0023
 30
0.0
 10
-210.9745
 20
-76.1069
 30
0.0
 10
-210.0791
 20
-77.0023
 30
0.0
 10
-208.9745
 20
-77.0023
 30
0.0
 10
-207.8698
 20
-77.0023
 30
0.0
 10
-206.9745
 20
-76.107
 30
0.0
 10
-206.9745
 20
-75.0023
 30
0.0
  0
SPLINE
  5
74
330
1F
100
AcDbEntity
  8
0
 62
   250
100
AcDbSpline
210
0.0
220
0.0
230
1.0
 70
    11
 71
     3
 72
    17
 73
    13
 74
     0
 42
0.0000000001
 43
0.0000000001
 40
0.0
 40
0.0
 40
0.0
 40
0.0
 40
0.25
 40
0.25
 40
0.25
 40
0.5
 40
0.5
 40
0.5
 40
0.75
 40
0.75
 40
0.75
 40
1.0
 40
1.0
 40
1.0
 40
1.0
 10
-230.8345
 20
-75.0023
 30
0.0
 10
-230.8345
 20
-73.8977
 30
0.0
 10
-231.7299
 20
-73.0023
 30
0.0
 10
-232.8345
 20
-73.0023
 30
0.0
 10
-233.9391
 20
-73.0023
 30
0.0
 10
-234.8345
 20
-73.8977
 30
0.0
 10
-234.8345
 20
-75.0023
 30
0.0
 10
-234.8345
 20
-76.1069
 30
0.0
 10
-233.9391
 20
-77.0023
 30
0.0
 10
-232.8345
 20
-77.0023
 30
0.0
 10
-231.7298
 20
-77.0023
 30
0.0
 10
-230.8345
 20
-76.107
 30
0.0
 10
-230.8345
 20
-75.0023
 30
0.0
  0
SPLINE
  5
75
330
1F
100
AcDbEntity
  8
0
 62
   250
100
AcDbSpline
210
0.0
220
0.0
230
1.0
 70
    11
 71
     3
 72
    32
 73
    28
 74
     0
 42
0.0000000001
 43
0.0000000001
 40
0.0
 40
0.0
 40
0.0
 40
0.0
 40
0.1111111111111111
 40
0.1111111111111111
 40
0.1111111111111111
 40
0.2222222222222222
 40
0.2222222222222222
 40
0.2222222222222222
 40
0.3333333333333333
 40
0.3333333333333333
 40
0.3333333333333333
 40
0.4444444444444444
 40
0.4444444444444444
 40
0.4444444444444444
 40
0.5555555555555556
 40
0.5555555555555556
 40
0.5555555555555556
 40
0.6666666666666666
 40
0.6666666666666666
 40
0.6666666666666666
 40
0.7777777777777777
 40
0.7777777777777777
 40
0.7777777777777777
 40
0.8888888888888888
 40
0.8888888888888888
 40
0.8888888888888888
 40
1.0
 40
1.0
 40
1.0
 40
1.0
 10
-221.2045
 20
-11.7523
 30
0.0
 10
-221.2045
 20
-11.7523
 30
0.0
 10
-221.2045
 20
-12.8018
 30
0.0
 10
-221.2045
 20
-12.8018
 30
0.0
 10
-221.2045
 20
-12.8018
 30
0.0
 10
-221.3045
 20
-12.8595
 30
0.0
 10
-221.3045
 20
-12.8595
 30
0.0
 10
-221.6181
 20
-13.0405
 30
0.0
 10
-221.7709
 20
-13.4096
 30
0.0
 10
-221.6772
 20
-13.7593
 30
0.0
 10
-221.5835
 20
-14.1091
 30
0.0
 10
-221.2666
 20
-14.3523
 30
0.0
 10
-220.9045
 20
-14.3523
 30
0.0
 10
-220.5424
 20
-14.3523
 30
0.0
 10
-220.2255
 20
-14.1091
 30
0.0
 10
-220.1318
 20
-13.7593
 30
0.0
 10
-220.0381
 20
-13.4096
 30
0.0
 10
-220.1909
 20
-13.0405
 30
0.0
 10
-220.5045
 20
-12.8595
 30
0.0
 10
-220.5045
 20
-12.8595
 30
0.0
 10
-220.6045
 20
-12.8018
 30
0.0
 10
-220.6045
 20
-12.8018
 30
0.0
 10
-220.6045
 20
-12.8018
 30
0.0
 10
-220.6045
 20
-11.7523
 30
0.0
 10
-220.6045
 20
-11.7523
 30
0.0
 10
-220.6045
 20
-11.7523
 30
0.0
 10
-221.2045
 20
-11.7523
 30
0.0
 10
-221.2045
 20
-11.7523
 30
0.0
  0
SPLINE
  5
76
330
1F
100
AcDbEntity
  8
0
 62
   250
100
AcDbSpline
210
0.0
220
0.0
230
1.0
 70
    11
 71
     3
 72
    32
 73
    28
 74
     0
 42
0.0000000001
 43
0.0000000001
 40
0.0
 40
0.0
 40
0.0
 40
0.0
 40
0.1111111111111111
 40
0.1111111111111111
 40
0.1111111111111111
 40
0.2222222222222222
 40
0.2222222222222222
 40
0.2222222222222222
 40
0.3333333333333333
 40
0.3333333333333333
 40
0.3333333333333333
 40
0.4444444444444444
 40
0.4444444444444444
 40
0.4444444444444444
 40
0.5555555555555556
 40
0.5555555555555556
 40
0.5555555555555556
 40
0.6666666666666666
 40
0.6666666666666666
 40
0.6666666666666666
 40
0.7777777777777777
 40
0.7777777777777777
 40
0.7777777777777777
 40
0.8888888888888888
 40
0.8888888888888888
 40
0.8888888888888888
 40
1.0
 40
1.0
 40
1.0
 40
1.0
 10
-221.2045
 20
-43.6023
 30
0.0
 10
-221.2045
 20
-43.6023
 30
0.0
 10
-220.6045
 20
-43.6023
 30
0.0
 10
-220.6045
 20
-43.6023
 30
0.0
 10
-220.6045
 20
-43.6023
 30
0.0
 10
-220.6045
 20
-42.5528
 30
0.0
 10
-220.6045
 20
-42.5528
 30
0.0
 10
-220.6045
 20
-42.5528
 30
0.0
 10
-220.5045
 20
-42.4951
 30
0.0
 10
-220.5045
 20
-42.4951
 30
0.0
 10
-220.1909
 20
-42.314
 30
0.0
 10
-220.0381
 20
-41.9451
 30
0.0
 10
-220.1318
 20
-41.5953
 30
0.0
 10
-220.2255
 20
-41.2455
 30
0.0
 10
-220.5424
 20
-41.0023
 30
0.0
 10
-220.9045
 20
-41.0023
 30
0.0
 10
-221.2666
 20
-41.0023
 30
0.0
 10
-221.5835
 20
-41.2455
 30
0.0
 10
-221.6772
 20
-41.5953
 30
0.0
 10
-221.7709
 20
-41.9451
 30
0.0
 10
-221.6181
 20
-42.314
 30
0.0
 10
-221.3045
 20
-42.4951
 30
0.0
 10
-221.3045
 20
-42.4951
 30
0.0
 10
-221.2045
 20
-42.5528
 30
0.0
 10
-221.2045
 20
-42.5528
 30
0.0
 10
-221.2045
 20
-42.5528
 30
0.0
 10
-221.2045
 20
-43.6023
 30
0.0
 10
-221.2045
 20
-43.6023
 30
0.0
  0
SPLINE
  5
77
330
1F
100
AcDbEntity
  8
0
 62
   250
100
AcDbSpline
210
0.0
220
0.0
230
1.0
 70
    11
 71
     3
 72
    17
 73
    13
 74
     0
 42
0.0000000001
 43
0.0000000001
 40
0.0
 40
0.0
 40
0.0
 40
0.0
 40
0.25
 40
0.25
 40
0.25
 40
0.5
 40
0.5
 40
0.5
 40
0.75
 40
0.75
 40
0.75
 40
1.0
 40
1.0
 40
1.0
 40
1.0
 10
-201.9245
 20
-25.6047
 30
0.0
 10
-201.9245
 20
-25.6047
 30
0.0
 10
-203.0945
 20
-25.6047
 30
0.0
 10
-203.0945
 20
-25.6047
 30
0.0
 10
-203.0945
 20
-25.6047
 30
0.0
 10
-203.0945
 20
-52.2047
 30
0.0
 10
-203.0945
 20
-52.2047
 30
0.0
 10
-203.0945
 20
-52.2047
 30
0.0
 10
-201.9245
 20
-52.2047
 30
0.0
 10
-201.9245
 20
-52.2047
 30
0.0
 10
-201.9245
 20
-52.2047
 30
0.0
 10
-201.9245
 20
-25.6047
 30
0.0
 10
-201.9245
 20
-25.6047
 30
0.0
  0
SPLINE
  5
78
330
1F
100
AcDbEntity
  8
0
 62
   250
100
AcDbSpline
210
0.0
220
0.0
230
1.0
 70
    11
 71
     3
 72
    23
 73
    19
 74
     0
 42
0.0000000001
 43
0.0000000001
 40
0.0
 40
0.0
 40
0.0
 40
0.0
 40
0.1666666666666667
 40
0.1666666666666667
 40
0.1666666666666667
 40
0.3333333333333333
 40
0.3333333333333333
 40
0.3333333333333333
 40
0.5
 40
0.5
 40
0.5
 40
0.6666666666666666
 40
0.6666666666666666
 40
0.6666666666666666
 40
0.8333333333333333
 40
0.8333333333333333
 40
0.8333333333333333
 40
1.0
 40
1.0
 40
1.0
 40
1.0
 10
-217.6487
 20
-45.7823
 30
0.0
 10
-217.6487
 20
-45.7823
 30
0.0
 10
-224.1602
 20
-45.7823
 30
0.0
 10
-224.1602
 20
-45.7823
 30
0.0
 10
-225.7504
 20
-46.8608
 30
0.0
 10
-226.7045
 20
-48.6583
 30
0.0
 10
-226.7045
 20
-50.5823
 30
0.0
 10
-226.7045
 20
-52.5063
 30
0.0
 10
-225.7505
 20
-54.3038
 30
0.0
 10
-224.1602
 20
-55.3823
 30
0.0
 10
-224.1602
 20
-55.3823
 30
0.0
 10
-217.6488
 20
-55.3823
 30
0.0
 10
-217.6488
 20
-55.3823
 30
0.0
 10
-216.0585
 20
-54.3038
 30
0.0
 10
-215.1045
 20
-52.5063
 30
0.0
 10
-215.1045
 20
-50.5823
 30
0.0
 10
-215.1045
 20
-48.6583
 30
0.0
 10
-216.0586
 20
-46.8609
 30
0.0
 10
-217.6487
 20
-45.7823
 30
0.0
  0
SPLINE
  5
79
330
1F
100
AcDbEntity
  8
0
 62
   250
100
AcDbSpline
210
0.0
220
0.0
230
1.0
 70
    11
 71
     3
 72
    17
 73
    13
 74
     0
 42
0.0000000001
 43
0.0000000001
 40
0.0
 40
0.0
 40
0.0
 40
0.0
 40
0.25
 40
0.25
 40
0.25
 40
0.5
 40
0.5
 40
0.5
 40
0.75
 40
0.75
 40
0.75
 40
1.0
 40
1.0
 40
1.0
 40
1.0
 10
-231.1045
 20
-142.3823
 30
0.0
 10
-231.1045
 20
-142.3823
 30
0.0
 10
-231.1045
 20
-139.7823
 30
0.0
 10
-231.1045
 20
-139.7823
 30
0.0
 10
-231.1045
 20
-139.7823
 30
0.0
 10
-236.7045
 20
-139.7823
 30
0.0
 10
-236.7045
 20
-139.7823
 30
0.0
 10
-236.7045
 20
-139.7823
 30
0.0
 10
-236.7045
 20
-142.3823
 30
0.0
 10
-236.7045
 20
-142.3823
 30
0.0
 10
-236.7045
 20
-142.3823
 30
0.0
 10
-231.1045
 20
-142.3823
 30
0.0
 10
-231.1045
 20
-142.3823
 30
0.0
  0
SPLINE
  5
7A
330
1F
100
AcDbEntity
  8
0
 62
   250
100
AcDbSpline
210
0.0
220
0.0
230
1.0
 70
    11
 71
     3
 72
    74
 73
    70
 74
     0
 42
0.0000000001
 43
0.0000000001
 40
0.0
 40
0.0
 40
0.0
 40
0.0
 40
0.0434782608695652
 40
0.0434782608695652
 40
0.0434782608695652
 40
0.0869565217391304
 40
0.0869565217391304
 40
0.0869565217391304
 40
0.1304347826086956
 40
0.1304347826086956
 40
0.1304347826086956
 40
0.1739130434782609
 40
0.1739130434782609
 40
0.1739130434782609
 40
0.2173913043478261
 40
0.2173913043478261
 40
0.2173913043478261
 40
0.2608695652173913
 40
0.2608695652173913
 40
0.2608695652173913
 40
0.3043478260869565
 40
0.3043478260869565
 40
0.3043478260869565
 40
0.3478260869565217
 40
0.3478260869565217
 40
0.3478260869565217
 40
0.3913043478260869
 40
0.3913043478260869
 40
0.3913043478260869
 40
0.4347826086956522
 40
0.4347826086956522
 40
0.4347826086956522
 40
0.4782608695652174
 40
0.4782608695652174
 40
0.4782608695652174
 40
0.5217391304347826
 40
0.5217391304347826
 40
0.5217391304347826
 40
0.5652173913043478
 40
0.5652173913043478
 40
0.5652173913043478
 40
0.6086956521739131
 40
0.6086956521739131
 40
0.6086956521739131
 40
0.6521739130434783
 40
0.6521739130434783
 40
0.6521739130434783
 40
0.6956521739130435
 40
0.6956521739130435
 40
0.6956521739130435
 40
0.7391304347826086
 40
0.7391304347826086
 40
0.7391304347826086
 40
0.7826086956521738
 40
0.7826086956521738
 40
0.7826086956521738
 40
0.8260869565217391
 40
0.8260869565217391
 40
0.8260869565217391
 40
0.8695652173913043
 40
0.8695652173913043
 40
0.8695652173913043
 40
0.9130434782608695
 40
0.9130434782608695
 40
0.9130434782608695
 40
0.9565217391304348
 40
0.9565217391304348
 40
0.9565217391304348
 40
1.0
 40
1.0
 40
1.0
 40
1.0
 10
-214.6045
 20
-43.3823
 30
0.0
 10
-214.6045
 20
-43.3823
 30
0.0
 10
-212.0045
 20
-43.3823
 30
0.0
 10
-212.0045
 20
-43.3823
 30
0.0
 10
-212.0045
 20
-43.3823
 30
0.0
 10
-212.0045
 20
-37.7823
 30
0.0
 10
-212.0045
 20
-37.7823
 30
0.0
 10
-212.0045
 20
-37.7823
 30
0.0
 10
-215.0045
 20
-37.7823
 30
0.0
 10
-215.0045
 20
-37.7823
 30
0.0
 10
-215.0045
 20
-37.7823
 30
0.0
 10
-215.0045
 20
-16.8273
 30
0.0
 10
-215.0045
 20
-16.8273
 30
0.0
 10
-215.0045
 20
-16.7478
 30
0.0
 10
-215.0361
 20
-16.6714
 30
0.0
 10
-215.0923
 20
-16.6152
 30
0.0
 10
-215.1486
 20
-16.559
 30
0.0
 10
-215.2249
 20
-16.5273
 30
0.0
 10
-215.3045
 20
-16.5273
 30
0.0
 10
-215.3045
 20
-16.5273
 30
0.0
 10
-226.5045
 20
-16.5273
 30
0.0
 10
-226.5045
 20
-16.5273
 30
0.0
 10
-226.5841
 20
-16.5273
 30
0.0
 10
-226.6603
 20
-16.559
 30
0.0
 10
-226.7166
 20
-16.6152
 30
0.0
 10
-226.7728
 20
-16.6715
 30
0.0
 10
-226.8045
 20
-16.7477
 30
0.0
 10
-226.8045
 20
-16.8273
 30
0.0
 10
-226.8045
 20
-16.8273
 30
0.0
 10
-226.8045
 20
-37.7823
 30
0.0
 10
-226.8045
 20
-37.7823
 30
0.0
 10
-226.8045
 20
-37.7823
 30
0.0
 10
-229.8045
 20
-37.7823
 30
0.0
 10
-229.8045
 20
-37.7823
 30
0.0
 10
-229.8045
 20
-37.7823
 30
0.0
 10
-229.8045
 20
-43.3823
 30
0.0
 10
-229.8045
 20
-43.3823
 30
0.0
 10
-229.8045
 20
-43.3823
 30
0.0
 10
-227.2045
 20
-43.3823
 30
0.0
 10
-227.2045
 20
-43.3823
 30
0.0
 10
-227.2045
 20
-43.3823
 30
0.0
 10
-227.2045
 20
-38.3273
 30
0.0
 10
-227.2045
 20
-38.3273
 30
0.0
 10
-227.2045
 20
-38.3273
 30
0.0
 10
-226.8045
 20
-38.3273
 30
0.0
 10
-226.8045
 20
-38.3273
 30
0.0
 10
-226.8045
 20
-38.3273
 30
0.0
 10
-226.8045
 20
-38.5273
 30
0.0
 10
-226.8045
 20
-38.5273
 30
0.0
 10
-226.8045
 20
-38.6069
 30
0.0
 10
-226.7728
 20
-38.6832
 30
0.0
 10
-226.7166
 20
-38.7395
 30
0.0
 10
-226.6604
 20
-38.7957
 30
0.0
 10
-226.584
 20
-38.8273
 30
0.0
 10
-226.5045
 20
-38.8273
 30
0.0
 10
-226.5045
 20
-38.8273
 30
0.0
 10
-215.3045
 20
-38.8273
 30
0.0
 10
-215.3045
 20
-38.8273
 30
0.0
 10
-215.1387
 20
-38.8273
 30
0.0
 10
-215.0045
 20
-38.6931
 30
0.0
 10
-215.0045
 20
-38.5273
 30
0.0
 10
-215.0045
 20
-38.5273
 30
0.0
 10
-215.0045
 20
-38.3273
 30
0.0
 10
-215.0045
 20
-38.3273
 30
0.0
 10
-215.0045
 20
-38.3273
 30
0.0
 10
-214.6045
 20
-38.3273
 30
0.0
 10
-214.6045
 20
-38.3273
 30
0.0
 10
-214.6045
 20
-38.3273
 30
0.0
 10
-214.6045
 20
-43.3823
 30
0.0
 10
-214.6045
 20
-43.3823
 30
0.0
  0
SPLINE
  5
7B
330
1F
100
AcDbEntity
  8
0
 62
   250
100
AcDbSpline
210
0.0
220
0.0
230
1.0
 70
    11
 71
     3
 72
    17
 73
    13
 74
     0
 42
0.0000000001
 43
0.0000000001
 40
0.0
 40
0.0
 40
0.0
 40
0.0
 40
0.25
 40
0.25
 40
0.25
 40
0.5
 40
0.5
 40
0.5
 40
0.75
 40
0.75
 40
0.75
 40
1.0
 40
1.0
 40
1.0
 40
1.0
 10
-198.1045
 20
-91.7823
 30
0.0
 10
-198.1045
 20
-91.7823
 30
0.0
 10
-200.7045
 20
-91.7823
 30
0.0
 10
-200.7045
 20
-91.7823
 30
0.0
 10
-200.7045
 20
-91.7823
 30
0.0
 10
-200.7045
 20
-97.3823
 30
0.0
 10
-200.7045
 20
-97.3823
 30
0.0
 10
-200.7045
 20
-97.3823
 30
0.0
 10
-198.1045
 20
-97.3823
 30
0.0
 10
-198.1045
 20
-97.3823
 30
0.0
 10
-198.1045
 20
-97.3823
 30
0.0
 10
-198.1045
 20
-91.7823
 30
0.0
 10
-198.1045
 20
-91.7823
 30
0.0
  0
SPLINE
  5
7C
330
1F
100
AcDbEntity
  8
0
 62
   250
100
AcDbSpline
210
0.0
220
0.0
230
1.0
 70
    11
 71
     3
 72
    17
 73
    13
 74
     0
 42
0.0000000001
 43
0.0000000001
 40
0.0
 40
0.0
 40
0.0
 40
0.0
 40
0.25
 40
0.25
 40
0.25
 40
0.5
 40
0.5
 40
0.5
 40
0.75
 40
0.75
 40
0.75
 40
1.0
 40
1.0
 40
1.0
 40
1.0
 10
-249.4145
 20
-142.8723
 30
0.0
 10
-249.4145
 20
-142.8723
 30
0.0
 10
-249.4145
 20
-142.2523
 30
0.0
 10
-249.4145
 20
-142.2523
 30
0.0
 10
-249.4145
 20
-142.2523
 30
0.0
 10
-257.9045
 20
-142.2523
 30
0.0
 10
-257.9045
 20
-142.2523
 30
0.0
 10
-257.9045
 20
-142.2523
 30
0.0
 10
-257.9045
 20
-142.8723
 30
0.0
 10
-257.9045
 20
-142.8723
 30
0.0
 10
-257.9045
 20
-142.8723
 30
0.0
 10
-249.4145
 20
-142.8723
 30
0.0
 10
-249.4145
 20
-142.8723
 30
0.0
  0
SPLINE
  5
7D
330
1F
100
AcDbEntity
  8
0
 62
   250
100
AcDbSpline
210
0.0
220
0.0
230
1.0
 70
    11
 71
     3
 72
    17
 73
    13
 74
     0
 42
0.0000000001
 43
0.0000000001
 40
0.0
 40
0.0
 40
0.0
 40
0.0
 40
0.25
 40
0.25
 40
0.25
 40
0.5
 40
0.5
 40
0.5
 40
0.75
 40
0.75
 40
0.75
 40
1.0
 40
1.0
 40
1.0
 40
1.0
 10
-210.7045
 20
-91.7823
 30
0.0
 10
-210.7045
 20
-91.7823
 30
0.0
 10
-210.7045
 20
-94.3823
 30
0.0
 10
-210.7045
 20
-94.3823
 30
0.0
 10
-210.7045
 20
-94.3823
 30
0.0
 10
-205.1045
 20
-94.3823
 30
0.0
 10
-205.1045
 20
-94.3823
 30
0.0
 10
-205.1045
 20
-94.3823
 30
0.0
 10
-205.1045
 20
-91.7823
 30
0.0
 10
-205.1045
 20
-91.7823
 30
0.0
 10
-205.1045
 20
-91.7823
 30
0.0
 10
-210.7045
 20
-91.7823
 30
0.0
 10
-210.7045
 20
-91.7823
 30
0.0
  0
SPLINE
  5
7E
330
1F
100
AcDbEntity
  8
0
 62
   250
100
AcDbSpline
210
0.0
220
0.0
230
1.0
 70
    11
 71
     3
 72
    44
 73
    40
 74
     0
 42
0.0000000001
 43
0.0000000001
 40
0.0
 40
0.0
 40
0.0
 40
0.0
 40
0.0769230769230769
 40
0.0769230769230769
 40
0.0769230769230769
 40
0.1538461538461539
 40
0.1538461538461539
 40
0.1538461538461539
 40
0.2307692307692308
 40
0.2307692307692308
 40
0.2307692307692308
 40
0.3076923076923077
 40
0.3076923076923077
 40
0.3076923076923077
 40
0.3846153846153846
 40
0.3846153846153846
 40
0.3846153846153846
 40
0.4615384615384616
 40
0.4615384615384616
 40
0.4615384615384616
 40
0.5384615384615385
 40
0.5384615384615385
 40
0.5384615384615385
 40
0.6153846153846154
 40
0.6153846153846154
 40
0.6153846153846154
 40
0.6923076923076923
 40
0.6923076923076923
 40
0.6923076923076923
 40
0.7692307692307693
 40
0.7692307692307693
 40
0.7692307692307693
 40
0.8461538461538463
 40
0.8461538461538463
 40
0.8461538461538463
 40
0.9230769230769231
 40
0.9230769230769231
 40
0.9230769230769231
 40
1.0
 40
1.0
 40
1.0
 40
1.0
 10
-184.9045
 20
-145.2823
 30
0.0
 10
-184.9045
 20
-145.2823
 30
0.0
 10
-256.9045
 20
-145.2823
 30
0.0
 10
-256.9045
 20
-145.2823
 30
0.0
 10
-258.0183
 20
-145.2823
 30
0.0
 10
-259.0867
 20
-144.8398
 30
0.0
 10
-259.8743
 20
-144.0522
 30
0.0
 10
-260.662
 20
-143.2646
 30
0.0
 10
-261.1045
 20
-142.1962
 30
0.0
 10
-261.1045
 20
-141.0823
 30
0.0
 10
-261.1045
 20
-141.0823
 30
0.0
 10
-261.1045
 20
-21.773
 30
0.0
 10
-261.1045
 20
-21.773
 30
0.0
 10
-261.1045
 20
-20.9312
 30
0.0
 10
-260.8513
 20
-20.1083
 30
0.0
 10
-260.3781
 20
-19.4121
 30
0.0
 10
-260.3781
 20
-19.4121
 30
0.0
 10
-236.8003
 20
15.2785
 30
0.0
 10
-236.8003
 20
15.2785
 30
0.0
 10
-236.0184
 20
16.4289
 30
0.0
 10
-234.7177
 20
17.1177
 30
0.0
 10
-233.3267
 20
17.1177
 30
0.0
 10
-233.3267
 20
17.1177
 30
0.0
 10
-208.4823
 20
17.1177
 30
0.0
 10
-208.4823
 20
17.1177
 30
0.0
 10
-207.0913
 20
17.1177
 30
0.0
 10
-205.7905
 20
16.429
 30
0.0
 10
-205.0086
 20
15.2785
 30
0.0
 10
-205.0086
 20
15.2785
 30
0.0
 10
-181.4309
 20
-19.4121
 30
0.0
 10
-181.4309
 20
-19.4121
 30
0.0
 10
-180.9577
 20
-20.1083
 30
0.0
 10
-180.7045
 20
-20.9312
 30
0.0
 10
-180.7045
 20
-21.773
 30
0.0
 10
-180.7045
 20
-21.773
 30
0.0
 10
-180.7045
 20
-141.0823
 30
0.0
 10
-180.7045
 20
-141.0823
 30
0.0
 10
-180.7045
 20
-143.4018
 30
0.0
 10
-182.585
 20
-145.2823
 30
0.0
 10
-184.9045
 20
-145.2823
 30
0.0
  0
SPLINE
  5
7F
330
1F
100
AcDbEntity
  8
0
 62
   250
100
AcDbSpline
210
0.0
220
0.0
230
1.0
 70
    11
 71
     3
 72
    41
 73
    37
 74
     0
 42
0.0000000001
 43
0.0000000001
 40
0.0
 40
0.0
 40
0.0
 40
0.0
 40
0.0833333333333333
 40
0.0833333333333333
 40
0.0833333333333333
 40
0.1666666666666667
 40
0.1666666666666667
 40
0.1666666666666667
 40
0.25
 40
0.25
 40
0.25
 40
0.3333333333333333
 40
0.3333333333333333
 40
0.3333333333333333
 40
0.4166666666666666
 40
0.4166666666666666
 40
0.4166666666666666
 40
0.5
 40
0.5
 40
0.5
 40
0.5833333333333333
 40
0.5833333333333333
 40
0.5833333333333333
 40
0.6666666666666666
 40
0.6666666666666666
 40
0.6666666666666666
 40
0.75
 40
0.75
 40
0.75
 40
0.8333333333333333
 40
0.8333333333333333
 40
0.8333333333333333
 40
0.9166666666666666
 40
0.9166666666666666
 40
0.9166666666666666
 40
1.0
 40
1.0
 40
1.0
 40
1.0
 10
-155.1287
 20
16.9036
 30
0.0
 10
-155.1287
 20
16.9036
 30
0.0
 10
-155.1287
 20
19.9036
 30
0.0
 10
-155.1287
 20
19.9036
 30
0.0
 10
-155.1287
 20
19.9036
 30
0.0
 10
-148.7287
 20
19.9036
 30
0.0
 10
-148.7287
 20
19.9036
 30
0.0
 10
-148.7287
 20
19.9036
 30
0.0
 10
-148.7287
 20
16.9036
 30
0.0
 10
-148.7287
 20
16.9036
 30
0.0
 10
-148.7287
 20
16.9036
 30
0.0
 10
-146.7287
 20
16.9036
 30
0.0
 10
-146.7287
 20
16.9036
 30
0.0
 10
-146.7287
 20
16.9036
 30
0.0
 10
-146.7287
 20
-12.9464
 30
0.0
 10
-146.7287
 20
-12.9464
 30
0.0
 10
-146.7287
 20
-12.9464
 30
0.0
 10
-148.7287
 20
-12.9464
 30
0.0
 10
-148.7287
 20
-12.9464
 30
0.0
 10
-148.7287
 20
-12.9464
 30
0.0
 10
-148.7287
 20
-15.9464
 30
0.0
 10
-148.7287
 20
-15.9464
 30
0.0
 10
-148.7287
 20
-15.9464
 30
0.0
 10
-155.1287
 20
-15.9464
 30
0.0
 10
-155.1287
 20
-15.9464
 30
0.0
 10
-155.1287
 20
-15.9464
 30
0.0
 10
-155.1287
 20
-12.9464
 30
0.0
 10
-155.1287
 20
-12.9464
 30
0.0
 10
-155.1287
 20
-12.9464
 30
0.0
 10
-157.1287
 20
-12.9464
 30
0.0
 10
-157.1287
 20
-12.9464
 30
0.0
 10
-157.1287
 20
-12.9464
 30
0.0
 10
-157.1287
 20
16.9036
 30
0.0
 10
-157.1287
 20
16.9036
 30
0.0
 10
-157.1287
 20
16.9036
 30
0.0
 10
-155.1287
 20
16.9036
 30
0.0
 10
-155.1287
 20
16.9036
 30
0.0
  0
SPLINE
  5
80
330
1F
100
AcDbEntity
  8
0
 62
   250
100
AcDbSpline
210
0.0
220
0.0
230
1.0
 70
    11
 71
     3
 72
    41
 73
    37
 74
     0
 42
0.0000000001
 43
0.0000000001
 40
0.0
 40
0.0
 40
0.0
 40
0.0
 40
0.0833333333333333
 40
0.0833333333333333
 40
0.0833333333333333
 40
0.1666666666666667
 40
0.1666666666666667
 40
0.1666666666666667
 40
0.25
 40
0.25
 40
0.25
 40
0.3333333333333333
 40
0.3333333333333333
 40
0.3333333333333333
 40
0.4166666666666666
 40
0.4166666666666666
 40
0.4166666666666666
 40
0.5
 40
0.5
 40
0.5
 40
0.5833333333333333
 40
0.5833333333333333
 40
0.5833333333333333
 40
0.6666666666666666
 40
0.6666666666666666
 40
0.6666666666666666
 40
0.75
 40
0.75
 40
0.75
 40
0.8333333333333333
 40
0.8333333333333333
 40
0.8333333333333333
 40
0.9166666666666666
 40
0.9166666666666666
 40
0.9166666666666666
 40
1.0
 40
1.0
 40
1.0
 40
1.0
 10
-170.9009
 20
15.3721
 30
0.0
 10
-170.9009
 20
15.3721
 30
0.0
 10
-170.9009
 20
18.3721
 30
0.0
 10
-170.9009
 20
18.3721
 30
0.0
 10
-170.9009
 20
18.3721
 30
0.0
 10
-164.5009
 20
18.3721
 30
0.0
 10
-164.5009
 20
18.3721
 30
0.0
 10
-164.5009
 20
18.3721
 30
0.0
 10
-164.5009
 20
15.3721
 30
0.0
 10
-164.5009
 20
15.3721
 30
0.0
 10
-164.5009
 20
15.3721
 30
0.0
 10
-162.5009
 20
15.3721
 30
0.0
 10
-162.5009
 20
15.3721
 30
0.0
 10
-162.5009
 20
15.3721
 30
0.0
 10
-162.5009
 20
-14.4779
 30
0.0
 10
-162.5009
 20
-14.4779
 30
0.0
 10
-162.5009
 20
-14.4779
 30
0.0
 10
-164.5009
 20
-14.4779
 30
0.0
 10
-164.5009
 20
-14.4779
 30
0.0
 10
-164.5009
 20
-14.4779
 30
0.0
 10
-164.5009
 20
-17.4779
 30
0.0
 10
-164.5009
 20
-17.4779
 30
0.0
 10
-164.5009
 20
-17.4779
 30
0.0
 10
-170.9009
 20
-17.4779
 30
0.0
 10
-170.9009
 20
-17.4779
 30
0.0
 10
-170.9009
 20
-17.4779
 30
0.0
 10
-170.9009
 20
-14.4779
 30
0.0
 10
-170.9009
 20
-14.4779
 30
0.0
 10
-170.9009
 20
-14.4779
 30
0.0
 10
-172.9009
 20
-14.4779
 30
0.0
 10
-172.9009
 20
-14.4779
 30
0.0
 10
-172.9009
 20
-14.4779
 30
0.0
 10
-172.9009
 20
15.3721
 30
0.0
 10
-172.9009
 20
15.3721
 30
0.0
 10
-172.9009
 20
15.3721
 30
0.0
 10
-170.9009
 20
15.3721
 30
0.0
 10
-170.9009
 20
15.3721
 30
0.0
  0
SPLINE
  5
81
330
1F
100
AcDbEntity
  8
0
 62
   250
100
AcDbSpline
210
0.0
220
0.0
230
1.0
 70
    11
 71
     3
 72
    17
 73
    13
 74
     0
 42
0.0000000001
 43
0.0000000001
 40
0.0
 40
0.0
 40
0.0
 40
0.0
 40
0.25
 40
0.25
 40
0.25
 40
0.5
 40
0.5
 40
0.5
 40
0.75
 40
0.75
 40
0.75
 40
1.0
 40
1.0
 40
1.0
 40
1.0
 10
-200.2462
 20
174.7449
 30
0.0
 10
-200.2462
 20
175.96
 30
0.0
 10
-201.2311
 20
176.9449
 30
0.0
 10
-202.4462
 20
176.9449
 30
0.0
 10
-203.6613
 20
176.9449
 30
0.0
 10
-204.6462
 20
175.96
 30
0.0
 10
-204.6462
 20
174.7449
 30
0.0
 10
-204.6462
 20
173.5298
 30
0.0
 10
-203.6613
 20
172.5449
 30
0.0
 10
-202.4462
 20
172.5449
 30
0.0
 10
-201.2311
 20
172.5449
 30
0.0
 10
-200.2462
 20
173.5298
 30
0.0
 10
-200.2462
 20
174.7449
 30
0.0
  0
SPLINE
  5
82
330
1F
100
AcDbEntity
  8
0
 62
   250
100
AcDbSpline
210
0.0
220
0.0
230
1.0
 70
    11
 71
     3
 72
    17
 73
    13
 74
     0
 42
0.0000000001
 43
0.0000000001
 40
0.0
 40
0.0
 40
0.0
 40
0.0
 40
0.25
 40
0.25
 40
0.25
 40
0.5
 40
0.5
 40
0.5
 40
0.75
 40
0.75
 40
0.75
 40
1.0
 40
1.0
 40
1.0
 40
1.0
 10
-233.7462
 20
57.2799
 30
0.0
 10
-233.7462
 20
58.495
 30
0.0
 10
-234.7311
 20
59.4799
 30
0.0
 10
-235.9462
 20
59.4799
 30
0.0
 10
-237.1613
 20
59.4799
 30
0.0
 10
-238.1462
 20
58.495
 30
0.0
 10
-238.1462
 20
57.2799
 30
0.0
 10
-238.1462
 20
56.0648
 30
0.0
 10
-237.1613
 20
55.0799
 30
0.0
 10
-235.9462
 20
55.0799
 30
0.0
 10
-234.7311
 20
55.0799
 30
0.0
 10
-233.7462
 20
56.0648
 30
0.0
 10
-233.7462
 20
57.2799
 30
0.0
  0
SPLINE
  5
83
330
1F
100
AcDbEntity
  8
0
 62
   250
100
AcDbSpline
210
0.0
220
0.0
230
1.0
 70
    11
 71
     3
 72
    17
 73
    13
 74
     0
 42
0.0000000001
 43
0.0000000001
 40
0.0
 40
0.0
 40
0.0
 40
0.0
 40
0.25
 40
0.25
 40
0.25
 40
0.5
 40
0.5
 40
0.5
 40
0.75
 40
0.75
 40
0.75
 40
1.0
 40
1.0
 40
1.0
 40
1.0
 10
-233.7462
 20
41.2799
 30
0.0
 10
-233.7462
 20
42.495
 30
0.0
 10
-234.7311
 20
43.4799
 30
0.0
 10
-235.9462
 20
43.4799
 30
0.0
 10
-237.1613
 20
43.4799
 30
0.0
 10
-238.1462
 20
42.495
 30
0.0
 10
-238.1462
 20
41.2799
 30
0.0
 10
-238.1462
 20
40.0648
 30
0.0
 10
-237.1613
 20
39.0799
 30
0.0
 10
-235.9462
 20
39.0799
 30
0.0
 10
-234.7311
 20
39.0799
 30
0.0
 10
-233.7462
 20
40.0648
 30
0.0
 10
-233.7462
 20
41.2799
 30
0.0
  0
SPLINE
  5
84
330
1F
100
AcDbEntity
  8
0
 62
   250
100
AcDbSpline
210
0.0
220
0.0
230
1.0
 70
    11
 71
     3
 72
    17
 73
    13
 74
     0
 42
0.0000000001
 43
0.0000000001
 40
0.0
 40
0.0
 40
0.0
 40
0.0
 40
0.25
 40
0.25
 40
0.25
 40
0.5
 40
0.5
 40
0.5
 40
0.75
 40
0.75
 40
0.75
 40
1.0
 40
1.0
 40
1.0
 40
1.0
 10
-201.7462
 20
73.2799
 30
0.0
 10
-201.7462
 20
74.495
 30
0.0
 10
-202.7311
 20
75.4799
 30
0.0
 10
-203.9462
 20
75.4799
 30
0.0
 10
-205.1613
 20
75.4799
 30
0.0
 10
-206.1462
 20
74.495
 30
0.0
 10
-206.1462
 20
73.2799
 30
0.0
 10
-206.1462
 20
72.0648
 30
0.0
 10
-205.1613
 20
71.0799
 30
0.0
 10
-203.9462
 20
71.0799
 30
0.0
 10
-202.7311
 20
71.0799
 30
0.0
 10
-201.7462
 20
72.0648
 30
0.0
 10
-201.7462
 20
73.2799
 30
0.0
  0
SPLINE
  5
85
330
1F
100
AcDbEntity
  8
0
 62
   250
100
AcDbSpline
210
0.0
220
0.0
230
1.0
 70
    11
 71
     3
 72
    17
 73
    13
 74
     0
 42
0.0000000001
 43
0.0000000001
 40
0.0
 40
0.0
 40
0.0
 40
0.0
 40
0.25
 40
0.25
 40
0.25
 40
0.5
 40
0.5
 40
0.5
 40
0.75
 40
0.75
 40
0.75
 40
1.0
 40
1.0
 40
1.0
 40
1.0
 10
-233.7462
 20
73.2799
 30
0.0
 10
-233.7462
 20
74.495
 30
0.0
 10
-234.7311
 20
75.4799
 30
0.0
 10
-235.9462
 20
75.4799
 30
0.0
 10
-237.1613
 20
75.4799
 30
0.0
 10
-238.1462
 20
74.495
 30
0.0
 10
-238.1462
 20
73.2799
 30
0.0
 10
-238.1462
 20
72.0648
 30
0.0
 10
-237.1613
 20
71.0799
 30
0.0
 10
-235.9462
 20
71.0799
 30
0.0
 10
-234.7311
 20
71.0799
 30
0.0
 10
-233.7462
 20
72.0648
 30
0.0
 10
-233.7462
 20
73.2799
 30
0.0
  0
SPLINE
  5
86
330
1F
100
AcDbEntity
  8
0
 62
   250
100
AcDbSpline
210
0.0
220
0.0
230
1.0
 70
    11
 71
     3
 72
    17
 73
    13
 74
     0
 42
0.0000000001
 43
0.0000000001
 40
0.0
 40
0.0
 40
0.0
 40
0.0
 40
0.25
 40
0.25
 40
0.25
 40
0.5
 40
0.5
 40
0.5
 40
0.75
 40
0.75
 40
0.75
 40
1.0
 40
1.0
 40
1.0
 40
1.0
 10
-233.7462
 20
25.2799
 30
0.0
 10
-233.7462
 20
26.495
 30
0.0
 10
-234.7311
 20
27.4799
 30
0.0
 10
-235.9462
 20
27.4799
 30
0.0
 10
-237.1613
 20
27.4799
 30
0.0
 10
-238.1462
 20
26.495
 30
0.0
 10
-238.1462
 20
25.2799
 30
0.0
 10
-238.1462
 20
24.0648
 30
0.0
 10
-237.1613
 20
23.0799
 30
0.0
 10
-235.9462
 20
23.0799
 30
0.0
 10
-234.7311
 20
23.0799
 30
0.0
 10
-233.7462
 20
24.0648
 30
0.0
 10
-233.7462
 20
25.2799
 30
0.0
  0
SPLINE
  5
87
330
1F
100
AcDbEntity
  8
0
 62
   250
100
AcDbSpline
210
0.0
220
0.0
230
1.0
 70
    11
 71
     3
 72
    17
 73
    13
 74
     0
 42
0.0000000001
 43
0.0000000001
 40
0.0
 40
0.0
 40
0.0
 40
0.0
 40
0.25
 40
0.25
 40
0.25
 40
0.5
 40
0.5
 40
0.5
 40
0.75
 40
0.75
 40
0.75
 40
1.0
 40
1.0
 40
1.0
 40
1.0
 10
-201.7462
 20
25.2799
 30
0.0
 10
-201.7462
 20
26.495
 30
0.0
 10
-202.7311
 20
27.4799
 30
0.0
 10
-203.9462
 20
27.4799
 30
0.0
 10
-205.1613
 20
27.4799
 30
0.0
 10
-206.1462
 20
26.495
 30
0.0
 10
-206.1462
 20
25.2799
 30
0.0
 10
-206.1462
 20
24.0648
 30
0.0
 10
-205.1613
 20
23.0799
 30
0.0
 10
-203.9462
 20
23.0799
 30
0.0
 10
-202.7311
 20
23.0799
 30
0.0
 10
-201.7462
 20
24.0648
 30
0.0
 10
-201.7462
 20
25.2799
 30
0.0
  0
SPLINE
  5
88
330
1F
100
AcDbEntity
  8
0
 62
   250
100
AcDbSpline
210
0.0
220
0.0
230
1.0
 70
    11
 71
     3
 72
    17
 73
    13
 74
     0
 42
0.0000000001
 43
0.0000000001
 40
0.0
 40
0.0
 40
0.0
 40
0.0
 40
0.25
 40
0.25
 40
0.25
 40
0.5
 40
0.5
 40
0.5
 40
0.75
 40
0.75
 40
0.75
 40
1.0
 40
1.0
 40
1.0
 40
1.0
 10
-201.7462
 20
57.2799
 30
0.0
 10
-201.7462
 20
58.495
 30
0.0
 10
-202.7311
 20
59.4799
 30
0.0
 10
-203.9462
 20
59.4799
 30
0.0
 10
-205.1613
 20
59.4799
 30
0.0
 10
-206.1462
 20
58.495
 30
0.0
 10
-206.1462
 20
57.2799
 30
0.0
 10
-206.1462
 20
56.0648
 30
0.0
 10
-205.1613
 20
55.0799
 30
0.0
 10
-203.9462
 20
55.0799
 30
0.0
 10
-202.7311
 20
55.0799
 30
0.0
 10
-201.7462
 20
56.0648
 30
0.0
 10
-201.7462
 20
57.2799
 30
0.0
  0
SPLINE
  5
89
330
1F
100
AcDbEntity
  8
0
 62
   250
100
AcDbSpline
210
0.0
220
0.0
230
1.0
 70
    11
 71
     3
 72
    17
 73
    13
 74
     0
 42
0.0000000001
 43
0.0000000001
 40
0.0
 40
0.0
 40
0.0
 40
0.0
 40
0.25
 40
0.25
 40
0.25
 40
0.5
 40
0.5
 40
0.5
 40
0.75
 40
0.75
 40
0.75
 40
1.0
 40
1.0
 40
1.0
 40
1.0
 10
-201.7462
 20
45.2799
 30
0.0
 10
-201.7462
 20
46.495
 30
0.0
 10
-202.7311
 20
47.4799
 30
0.0
 10
-203.9462
 20
47.4799
 30
0.0
 10
-205.1613
 20
47.4799
 30
0.0
 10
-206.1462
 20
46.495
 30
0.0
 10
-206.1462
 20
45.2799
 30
0.0
 10
-206.1462
 20
44.0648
 30
0.0
 10
-205.1613
 20
43.0799
 30
0.0
 10
-203.9462
 20
43.0799
 30
0.0
 10
-202.7311
 20
43.0799
 30
0.0
 10
-201.7462
 20
44.0648
 30
0.0
 10
-201.7462
 20
45.2799
 30
0.0
  0
SPLINE
  5
8A
330
1F
100
AcDbEntity
  8
0
 62
   250
100
AcDbSpline
210
0.0
220
0.0
230
1.0
 70
    11
 71
     3
 72
    38
 73
    34
 74
     0
 42
0.0000000001
 43
0.0000000001
 40
0.0
 40
0.0
 40
0.0
 40
0.0
 40
0.0909090909090909
 40
0.0909090909090909
 40
0.0909090909090909
 40
0.1818181818181818
 40
0.1818181818181818
 40
0.1818181818181818
 40
0.2727272727272727
 40
0.2727272727272727
 40
0.2727272727272727
 40
0.3636363636363636
 40
0.3636363636363636
 40
0.3636363636363636
 40
0.4545454545454546
 40
0.4545454545454546
 40
0.4545454545454546
 40
0.5454545454545454
 40
0.5454545454545454
 40
0.5454545454545454
 40
0.6363636363636364
 40
0.6363636363636364
 40
0.6363636363636364
 40
0.7272727272727273
 40
0.7272727272727273
 40
0.7272727272727273
 40
0.8181818181818182
 40
0.8181818181818182
 40
0.8181818181818182
 40
0.9090909090909092
 40
0.9090909090909092
 40
0.9090909090909092
 40
1.0
 40
1.0
 40
1.0
 40
1.0
 10
-231.7462
 20
66.2799
 30
0.0
 10
-231.7462
 20
66.2799
 30
0.0
 10
-231.7462
 20
32.2799
 30
0.0
 10
-231.7462
 20
32.2799
 30
0.0
 10
-231.7462
 20
31.5373
 30
0.0
 10
-231.4513
 20
30.8251
 30
0.0
 10
-230.9262
 20
30.3
 30
0.0
 10
-230.401
 20
29.7749
 30
0.0
 10
-229.6889
 20
29.4799
 30
0.0
 10
-228.9462
 20
29.4799
 30
0.0
 10
-228.9462
 20
29.4799
 30
0.0
 10
-210.9462
 20
29.4799
 30
0.0
 10
-210.9462
 20
29.4799
 30
0.0
 10
-209.3997
 20
29.4799
 30
0.0
 10
-208.1462
 20
30.7334
 30
0.0
 10
-208.1462
 20
32.2799
 30
0.0
 10
-208.1462
 20
32.2799
 30
0.0
 10
-208.1462
 20
66.2799
 30
0.0
 10
-208.1462
 20
66.2799
 30
0.0
 10
-208.1462
 20
67.0224
 30
0.0
 10
-208.4413
 20
67.7347
 30
0.0
 10
-208.9663
 20
68.2598
 30
0.0
 10
-209.4914
 20
68.7848
 30
0.0
 10
-210.2037
 20
69.0799
 30
0.0
 10
-210.9462
 20
69.0799
 30
0.0
 10
-210.9462
 20
69.0799
 30
0.0
 10
-228.9462
 20
69.0799
 30
0.0
 10
-228.9462
 20
69.0799
 30
0.0
 10
-229.6888
 20
69.0799
 30
0.0
 10
-230.401
 20
68.7849
 30
0.0
 10
-230.9262
 20
68.2598
 30
0.0
 10
-231.4513
 20
67.7347
 30
0.0
 10
-231.7462
 20
67.0224
 30
0.0
 10
-231.7462
 20
66.2799
 30
0.0
  0
SPLINE
  5
8B
330
1F
100
AcDbEntity
  8
0
 62
   250
100
AcDbSpline
210
0.0
220
0.0
230
1.0
 70
    11
 71
     3
 72
    17
 73
    13
 74
     0
 42
0.0000000001
 43
0.0000000001
 40
0.0
 40
0.0
 40
0.0
 40
0.0
 40
0.25
 40
0.25
 40
0.25
 40
0.5
 40
0.5
 40
0.5
 40
0.75
 40
0.75
 40
0.75
 40
1.0
 40
1.0
 40
1.0
 40
1.0
 10
-235.2462
 20
174.7449
 30
0.0
 10
-235.2462
 20
175.96
 30
0.0
 10
-236.2311
 20
176.9449
 30
0.0
 10
-237.4462
 20
176.9449
 30
0.0
 10
-238.6613
 20
176.9449
 30
0.0
 10
-239.6462
 20
175.96
 30
0.0
 10
-239.6462
 20
174.7449
 30
0.0
 10
-239.6462
 20
173.5298
 30
0.0
 10
-238.6613
 20
172.5449
 30
0.0
 10
-237.4462
 20
172.5449
 30
0.0
 10
-236.2311
 20
172.5449
 30
0.0
 10
-235.2462
 20
173.5298
 30
0.0
 10
-235.2462
 20
174.7449
 30
0.0
  0
SPLINE
  5
8C
330
1F
100
AcDbEntity
  8
0
 62
   250
100
AcDbSpline
210
0.0
220
0.0
230
1.0
 70
    11
 71
     3
 72
    17
 73
    13
 74
     0
 42
0.0000000001
 43
0.0000000001
 40
0.0
 40
0.0
 40
0.0
 40
0.0
 40
0.25
 40
0.25
 40
0.25
 40
0.5
 40
0.5
 40
0.5
 40
0.75
 40
0.75
 40
0.75
 40
1.0
 40
1.0
 40
1.0
 40
1.0
 10
-197.1462
 20
29.5799
 30
0.0
 10
-197.1462
 20
29.5799
 30
0.0
 10
-199.7462
 20
29.5799
 30
0.0
 10
-199.7462
 20
29.5799
 30
0.0
 10
-199.7462
 20
29.5799
 30
0.0
 10
-199.7462
 20
23.9799
 30
0.0
 10
-199.7462
 20
23.9799
 30
0.0
 10
-199.7462
 20
23.9799
 30
0.0
 10
-197.1462
 20
23.9799
 30
0.0
 10
-197.1462
 20
23.9799
 30
0.0
 10
-197.1462
 20
23.9799
 30
0.0
 10
-197.1462
 20
29.5799
 30
0.0
 10
-197.1462
 20
29.5799
 30
0.0
  0
SPLINE
  5
8D
330
1F
100
AcDbEntity
  8
0
 62
   250
100
AcDbSpline
210
0.0
220
0.0
230
1.0
 70
    11
 71
     3
 72
    17
 73
    13
 74
     0
 42
0.0000000001
 43
0.0000000001
 40
0.0
 40
0.0
 40
0.0
 40
0.0
 40
0.25
 40
0.25
 40
0.25
 40
0.5
 40
0.5
 40
0.5
 40
0.75
 40
0.75
 40
0.75
 40
1.0
 40
1.0
 40
1.0
 40
1.0
 10
-197.1462
 20
68.9799
 30
0.0
 10
-197.1462
 20
68.9799
 30
0.0
 10
-197.1462
 20
74.5799
 30
0.0
 10
-197.1462
 20
74.5799
 30
0.0
 10
-197.1462
 20
74.5799
 30
0.0
 10
-199.7462
 20
74.5799
 30
0.0
 10
-199.7462
 20
74.5799
 30
0.0
 10
-199.7462
 20
74.5799
 30
0.0
 10
-199.7462
 20
68.9799
 30
0.0
 10
-199.7462
 20
68.9799
 30
0.0
 10
-199.7462
 20
68.9799
 30
0.0
 10
-197.1462
 20
68.9799
 30
0.0
 10
-197.1462
 20
68.9799
 30
0.0
  0
SPLINE
  5
8E
330
1F
100
AcDbEntity
  8
0
 62
   250
100
AcDbSpline
210
0.0
220
0.0
230
1.0
 70
    11
 71
     3
 72
    17
 73
    13
 74
     0
 42
0.0000000001
 43
0.0000000001
 40
0.0
 40
0.0
 40
0.0
 40
0.0
 40
0.25
 40
0.25
 40
0.25
 40
0.5
 40
0.5
 40
0.5
 40
0.75
 40
0.75
 40
0.75
 40
1.0
 40
1.0
 40
1.0
 40
1.0
 10
-242.7462
 20
74.5799
 30
0.0
 10
-242.7462
 20
74.5799
 30
0.0
 10
-242.7462
 20
68.9799
 30
0.0
 10
-242.7462
 20
68.9799
 30
0.0
 10
-242.7462
 20
68.9799
 30
0.0
 10
-240.1462
 20
68.9799
 30
0.0
 10
-240.1462
 20
68.9799
 30
0.0
 10
-240.1462
 20
68.9799
 30
0.0
 10
-240.1462
 20
74.5799
 30
0.0
 10
-240.1462
 20
74.5799
 30
0.0
 10
-240.1462
 20
74.5799
 30
0.0
 10
-242.7462
 20
74.5799
 30
0.0
 10
-242.7462
 20
74.5799
 30
0.0
  0
SPLINE
  5
8F
330
1F
100
AcDbEntity
  8
0
 62
   250
100
AcDbSpline
210
0.0
220
0.0
230
1.0
 70
    11
 71
     3
 72
    17
 73
    13
 74
     0
 42
0.0000000001
 43
0.0000000001
 40
0.0
 40
0.0
 40
0.0
 40
0.0
 40
0.25
 40
0.25
 40
0.25
 40
0.5
 40
0.5
 40
0.5
 40
0.75
 40
0.75
 40
0.75
 40
1.0
 40
1.0
 40
1.0
 40
1.0
 10
-228.8462
 20
128.5799
 30
0.0
 10
-228.8462
 20
128.5799
 30
0.0
 10
-228.8462
 20
122.9799
 30
0.0
 10
-228.8462
 20
122.9799
 30
0.0
 10
-228.8462
 20
122.9799
 30
0.0
 10
-226.2462
 20
122.9799
 30
0.0
 10
-226.2462
 20
122.9799
 30
0.0
 10
-226.2462
 20
122.9799
 30
0.0
 10
-226.2462
 20
128.5799
 30
0.0
 10
-226.2462
 20
128.5799
 30
0.0
 10
-226.2462
 20
128.5799
 30
0.0
 10
-228.8462
 20
128.5799
 30
0.0
 10
-228.8462
 20
128.5799
 30
0.0
  0
SPLINE
  5
90
330
1F
100
AcDbEntity
  8
0
 62
   250
100
AcDbSpline
210
0.0
220
0.0
230
1.0
 70
    11
 71
     3
 72
    17
 73
    13
 74
     0
 42
0.0000000001
 43
0.0000000001
 40
0.0
 40
0.0
 40
0.0
 40
0.0
 40
0.25
 40
0.25
 40
0.25
 40
0.5
 40
0.5
 40
0.5
 40
0.75
 40
0.75
 40
0.75
 40
1.0
 40
1.0
 40
1.0
 40
1.0
 10
-213.6462
 20
122.9799
 30
0.0
 10
-213.6462
 20
122.9799
 30
0.0
 10
-211.0462
 20
122.9799
 30
0.0
 10
-211.0462
 20
122.9799
 30
0.0
 10
-211.0462
 20
122.9799
 30
0.0
 10
-211.0462
 20
128.5799
 30
0.0
 10
-211.0462
 20
128.5799
 30
0.0
 10
-211.0462
 20
128.5799
 30
0.0
 10
-213.6462
 20
128.5799
 30
0.0
 10
-213.6462
 20
128.5799
 30
0.0
 10
-213.6462
 20
128.5799
 30
0.0
 10
-213.6462
 20
122.9799
 30
0.0
 10
-213.6462
 20
122.9799
 30
0.0
  0
SPLINE
  5
91
330
1F
100
AcDbEntity
  8
0
 62
   250
100
AcDbSpline
210
0.0
220
0.0
230
1.0
 70
    11
 71
     3
 72
    17
 73
    13
 74
     0
 42
0.0000000001
 43
0.0000000001
 40
0.0
 40
0.0
 40
0.0
 40
0.0
 40
0.25
 40
0.25
 40
0.25
 40
0.5
 40
0.5
 40
0.5
 40
0.75
 40
0.75
 40
0.75
 40
1.0
 40
1.0
 40
1.0
 40
1.0
 10
-222.7462
 20
111.5799
 30
0.0
 10
-222.7462
 20
111.5799
 30
0.0
 10
-222.7462
 20
108.9799
 30
0.0
 10
-222.7462
 20
108.9799
 30
0.0
 10
-222.7462
 20
108.9799
 30
0.0
 10
-217.1462
 20
108.9799
 30
0.0
 10
-217.1462
 20
108.9799
 30
0.0
 10
-217.1462
 20
108.9799
 30
0.0
 10
-217.1462
 20
111.5799
 30
0.0
 10
-217.1462
 20
111.5799
 30
0.0
 10
-217.1462
 20
111.5799
 30
0.0
 10
-222.7462
 20
111.5799
 30
0.0
 10
-222.7462
 20
111.5799
 30
0.0
  0
SPLINE
  5
92
330
1F
100
AcDbEntity
  8
0
 62
   250
100
AcDbSpline
210
0.0
220
0.0
230
1.0
 70
    11
 71
     3
 72
    17
 73
    13
 74
     0
 42
0.0000000001
 43
0.0000000001
 40
0.0
 40
0.0
 40
0.0
 40
0.0
 40
0.25
 40
0.25
 40
0.25
 40
0.5
 40
0.5
 40
0.5
 40
0.75
 40
0.75
 40
0.75
 40
1.0
 40
1.0
 40
1.0
 40
1.0
 10
-242.7462
 20
29.5799
 30
0.0
 10
-242.7462
 20
29.5799
 30
0.0
 10
-242.7462
 20
23.9799
 30
0.0
 10
-242.7462
 20
23.9799
 30
0.0
 10
-242.7462
 20
23.9799
 30
0.0
 10
-240.1462
 20
23.9799
 30
0.0
 10
-240.1462
 20
23.9799
 30
0.0
 10
-240.1462
 20
23.9799
 30
0.0
 10
-240.1462
 20
29.5799
 30
0.0
 10
-240.1462
 20
29.5799
 30
0.0
 10
-240.1462
 20
29.5799
 30
0.0
 10
-242.7462
 20
29.5799
 30
0.0
 10
-242.7462
 20
29.5799
 30
0.0
  0
SPLINE
  5
93
330
1F
100
AcDbEntity
  8
0
 62
   250
100
AcDbSpline
210
0.0
220
0.0
230
1.0
 70
    11
 71
     3
 72
   140
 73
   136
 74
     0
 42
0.0000000001
 43
0.0000000001
 40
0.0
 40
0.0
 40
0.0
 40
0.0
 40
0.0222222222222222
 40
0.0222222222222222
 40
0.0222222222222222
 40
0.0444444444444444
 40
0.0444444444444444
 40
0.0444444444444444
 40
0.0666666666666667
 40
0.0666666666666667
 40
0.0666666666666667
 40
0.0888888888888889
 40
0.0888888888888889
 40
0.0888888888888889
 40
0.1111111111111111
 40
0.1111111111111111
 40
0.1111111111111111
 40
0.1333333333333333
 40
0.1333333333333333
 40
0.1333333333333333
 40
0.1555555555555556
 40
0.1555555555555556
 40
0.1555555555555556
 40
0.1777777777777778
 40
0.1777777777777778
 40
0.1777777777777778
 40
0.2
 40
0.2
 40
0.2
 40
0.2222222222222222
 40
0.2222222222222222
 40
0.2222222222222222
 40
0.2444444444444445
 40
0.2444444444444445
 40
0.2444444444444445
 40
0.2666666666666667
 40
0.2666666666666667
 40
0.2666666666666667
 40
0.2888888888888889
 40
0.2888888888888889
 40
0.2888888888888889
 40
0.3111111111111111
 40
0.3111111111111111
 40
0.3111111111111111
 40
0.3333333333333334
 40
0.3333333333333334
 40
0.3333333333333334
 40
0.3555555555555556
 40
0.3555555555555556
 40
0.3555555555555556
 40
0.3777777777777778
 40
0.3777777777777778
 40
0.3777777777777778
 40
0.4
 40
0.4
 40
0.4
 40
0.4222222222222222
 40
0.4222222222222222
 40
0.4222222222222222
 40
0.4444444444444445
 40
0.4444444444444445
 40
0.4444444444444445
 40
0.4666666666666667
 40
0.4666666666666667
 40
0.4666666666666667
 40
0.4888888888888889
 40
0.4888888888888889
 40
0.4888888888888889
 40
0.5111111111111112
 40
0.5111111111111112
 40
0.5111111111111112
 40
0.5333333333333333
 40
0.5333333333333333
 40
0.5333333333333333
 40
0.5555555555555556
 40
0.5555555555555556
 40
0.5555555555555556
 40
0.5777777777777778
 40
0.5777777777777778
 40
0.5777777777777778
 40
0.6
 40
0.6
 40
0.6
 40
0.6222222222222222
 40
0.6222222222222222
 40
0.6222222222222222
 40
0.6444444444444445
 40
0.6444444444444445
 40
0.6444444444444445
 40
0.6666666666666667
 40
0.6666666666666667
 40
0.6666666666666667
 40
0.6888888888888889
 40
0.6888888888888889
 40
0.6888888888888889
 40
0.7111111111111111
 40
0.7111111111111111
 40
0.7111111111111111
 40
0.7333333333333334
 40
0.7333333333333334
 40
0.7333333333333334
 40
0.7555555555555555
 40
0.7555555555555555
 40
0.7555555555555555
 40
0.7777777777777778
 40
0.7777777777777778
 40
0.7777777777777778
 40
0.8
 40
0.8
 40
0.8
 40
0.8222222222222223
 40
0.8222222222222223
 40
0.8222222222222223
 40
0.8444444444444444
 40
0.8444444444444444
 40
0.8444444444444444
 40
0.8666666666666667
 40
0.8666666666666667
 40
0.8666666666666667
 40
0.888888888888889
 40
0.888888888888889
 40
0.888888888888889
 40
0.9111111111111111
 40
0.9111111111111111
 40
0.9111111111111111
 40
0.9333333333333333
 40
0.9333333333333333
 40
0.9333333333333333
 40
0.9555555555555556
 40
0.9555555555555556
 40
0.9555555555555556
 40
0.9777777777777779
 40
0.9777777777777779
 40
0.9777777777777779
 40
1.0
 40
1.0
 40
1.0
 40
1.0
 10
-229.5242
 20
153.0776
 30
0.0
 10
-229.5242
 20
153.0776
 30
0.0
 10
-241.0891
 20
172.5852
 30
0.0
 10
-241.0891
 20
172.5852
 30
0.0
 10
-241.8651
 20
173.8941
 30
0.0
 10
-241.8792
 20
175.5191
 30
0.0
 10
-241.126
 20
176.8412
 30
0.0
 10
-240.3727
 20
178.1634
 30
0.0
 10
-238.9679
 20
178.9799
 30
0.0
 10
-237.4462
 20
178.9799
 30
0.0
 10
-237.4462
 20
178.9799
 30
0.0
 10
-202.4462
 20
178.9799
 30
0.0
 10
-202.4462
 20
178.9799
 30
0.0
 10
-200.9245
 20
178.9799
 30
0.0
 10
-199.5197
 20
178.1634
 30
0.0
 10
-198.7664
 20
176.8412
 30
0.0
 10
-198.0132
 20
175.5191
 30
0.0
 10
-198.0273
 20
173.8941
 30
0.0
 10
-198.8033
 20
172.5852
 30
0.0
 10
-198.8033
 20
172.5852
 30
0.0
 10
-210.3682
 20
153.0777
 30
0.0
 10
-210.3682
 20
153.0777
 30
0.0
 10
-211.4309
 20
151.2851
 30
0.0
 10
-211.4502
 20
149.0596
 30
0.0
 10
-210.4186
 20
147.2489
 30
0.0
 10
-209.387
 20
145.438
 30
0.0
 10
-207.4631
 20
144.3199
 30
0.0
 10
-205.379
 20
144.3199
 30
0.0
 10
-205.379
 20
144.3199
 30
0.0
 10
-181.9462
 20
144.3199
 30
0.0
 10
-181.9462
 20
144.3199
 30
0.0
 10
-181.3628
 20
144.3199
 30
0.0
 10
-180.8031
 20
144.0881
 30
0.0
 10
-180.3906
 20
143.6755
 30
0.0
 10
-179.978
 20
143.263
 30
0.0
 10
-179.7462
 20
142.7033
 30
0.0
 10
-179.7462
 20
142.1199
 30
0.0
 10
-179.7462
 20
142.1199
 30
0.0
 10
-179.7462
 20
68.2799
 30
0.0
 10
-179.7462
 20
68.2799
 30
0.0
 10
-179.7462
 20
67.065
 30
0.0
 10
-180.7313
 20
66.0799
 30
0.0
 10
-181.9462
 20
66.0799
 30
0.0
 10
-181.9462
 20
66.0799
 30
0.0
 10
-195.9462
 20
66.0799
 30
0.0
 10
-195.9462
 20
66.0799
 30
0.0
 10
-196.954
 20
66.0799
 30
0.0
 10
-197.9206
 20
65.6795
 30
0.0
 10
-198.6333
 20
64.9669
 30
0.0
 10
-199.3459
 20
64.2543
 30
0.0
 10
-199.7462
 20
63.2876
 30
0.0
 10
-199.7462
 20
62.2799
 30
0.0
 10
-199.7462
 20
62.2799
 30
0.0
 10
-199.7462
 20
36.2799
 30
0.0
 10
-199.7462
 20
36.2799
 30
0.0
 10
-199.7462
 20
35.2721
 30
0.0
 10
-199.3459
 20
34.3055
 30
0.0
 10
-198.6333
 20
33.5929
 30
0.0
 10
-197.9206
 20
32.8803
 30
0.0
 10
-196.954
 20
32.4799
 30
0.0
 10
-195.9462
 20
32.4799
 30
0.0
 10
-195.9462
 20
32.4799
 30
0.0
 10
-181.9462
 20
32.4799
 30
0.0
 10
-181.9462
 20
32.4799
 30
0.0
 10
-181.3628
 20
32.4799
 30
0.0
 10
-180.8031
 20
32.2481
 30
0.0
 10
-180.3906
 20
31.8355
 30
0.0
 10
-179.978
 20
31.423
 30
0.0
 10
-179.7462
 20
30.8633
 30
0.0
 10
-179.7462
 20
30.2799
 30
0.0
 10
-179.7462
 20
30.2799
 30
0.0
 10
-179.7462
 20
23.2799
 30
0.0
 10
-179.7462
 20
23.2799
 30
0.0
 10
-179.7462
 20
22.065
 30
0.0
 10
-180.7313
 20
21.0799
 30
0.0
 10
-181.9462
 20
21.0799
 30
0.0
 10
-181.9462
 20
21.0799
 30
0.0
 10
-257.9462
 20
21.0799
 30
0.0
 10
-257.9462
 20
21.0799
 30
0.0
 10
-258.5297
 20
21.0799
 30
0.0
 10
-259.0892
 20
21.3117
 30
0.0
 10
-259.5018
 20
21.7243
 30
0.0
 10
-259.9144
 20
22.1369
 30
0.0
 10
-260.1462
 20
22.6964
 30
0.0
 10
-260.1462
 20
23.2799
 30
0.0
 10
-260.1462
 20
23.2799
 30
0.0
 10
-260.1462
 20
30.2799
 30
0.0
 10
-260.1462
 20
30.2799
 30
0.0
 10
-260.1462
 20
30.8633
 30
0.0
 10
-259.9144
 20
31.4229
 30
0.0
 10
-259.5018
 20
31.8355
 30
0.0
 10
-259.0893
 20
32.2481
 30
0.0
 10
-258.5297
 20
32.4799
 30
0.0
 10
-257.9462
 20
32.4799
 30
0.0
 10
-257.9462
 20
32.4799
 30
0.0
 10
-243.9462
 20
32.4799
 30
0.0
 10
-243.9462
 20
32.4799
 30
0.0
 10
-241.8474
 20
32.4799
 30
0.0
 10
-240.1462
 20
34.1811
 30
0.0
 10
-240.1462
 20
36.2799
 30
0.0
 10
-240.1462
 20
36.2799
 30
0.0
 10
-240.1462
 20
62.2799
 30
0.0
 10
-240.1462
 20
62.2799
 30
0.0
 10
-240.1462
 20
63.2876
 30
0.0
 10
-240.5467
 20
64.2543
 30
0.0
 10
-241.2592
 20
64.9669
 30
0.0
 10
-241.9718
 20
65.6794
 30
0.0
 10
-242.9385
 20
66.0799
 30
0.0
 10
-243.9462
 20
66.0799
 30
0.0
 10
-243.9462
 20
66.0799
 30
0.0
 10
-257.9462
 20
66.0799
 30
0.0
 10
-257.9462
 20
66.0799
 30
0.0
 10
-258.5297
 20
66.0799
 30
0.0
 10
-259.0892
 20
66.3117
 30
0.0
 10
-259.5018
 20
66.7243
 30
0.0
 10
-259.9144
 20
67.1369
 30
0.0
 10
-260.1462
 20
67.6964
 30
0.0
 10
-260.1462
 20
68.2799
 30
0.0
 10
-260.1462
 20
68.2799
 30
0.0
 10
-260.1462
 20
142.1199
 30
0.0
 10
-260.1462
 20
142.1199
 30
0.0
 10
-260.1462
 20
142.7033
 30
0.0
 10
-259.9144
 20
143.2629
 30
0.0
 10
-259.5018
 20
143.6755
 30
0.0
 10
-259.0893
 20
144.0881
 30
0.0
 10
-258.5297
 20
144.3199
 30
0.0
 10
-257.9462
 20
144.3199
 30
0.0
 10
-257.9462
 20
144.3199
 30
0.0
 10
-234.5134
 20
144.3199
 30
0.0
 10
-234.5134
 20
144.3199
 30
0.0
 10
-232.4293
 20
144.3199
 30
0.0
 10
-230.5055
 20
145.4381
 30
0.0
 10
-229.4739
 20
147.2489
 30
0.0
 10
-228.4424
 20
149.0596
 30
0.0
 10
-228.4615
 20
151.2851
 30
0.0
 10
-229.5242
 20
153.0776
 30
0.0
  0
ENDSEC
  0
SECTION
  2
OBJECTS
  0
DICTIONARY
  5
C
330
0
100
AcDbDictionary
  3
ACAD_GROUP
350
D
  3
ACAD_LAYOUT
350
1A
  3
ACAD_MATERIAL
350
43
  3
ACAD_MLEADERSTYLE
350
5B
  3
ACAD_MLINESTYLE
350
17
  3
ACAD_PLOTSETTINGS
350
19
  3
ACAD_SCALELIST
350
47
  3
ACAD_VISUALSTYLE
350
2A
  3
ACDBVARIABLEDICTIONARY
350
94
  3
DWGPROPS
350
9B
1001
ACAD
1000
TREAT_AS_HARD
1070
     0
  0
DICTIONARY
  5
D
102
{ACAD_REACTORS
330
C
102
}
330
C
100
AcDbDictionary
1001
ACAD
1000
TREAT_AS_HARD
1070
     0
  0
DICTIONARY
  5
1A
102
{ACAD_REACTORS
330
C
102
}
330
C
100
AcDbDictionary
1001
ACAD
1000
TREAT_AS_HARD
1070
     0
  0
DICTIONARY
  5
43
102
{ACAD_REACTORS
330
C
102
}
330
C
100
AcDbDictionary
  3
BYBLOCK
350
45
  3
BYLAYER
350
44
  3
GLOBAL
350
46
1001
ACAD
1000
TREAT_AS_HARD
1070
     0
  0
DICTIONARY
  5
5B
102
{ACAD_REACTORS
330
C
102
}
330
C
100
AcDbDictionary
  3
STANDARD
350
5C
1001
ACAD
1000
TREAT_AS_HARD
1070
     0
  0
DICTIONARY
  5
17
102
{ACAD_REACTORS
330
C
102
}
330
C
100
AcDbDictionary
  3
STANDARD
350
18
1001
ACAD
1000
TREAT_AS_HARD
1070
     0
  0
DICTIONARY
  5
19
102
{ACAD_REACTORS
330
C
102
}
330
C
100
AcDbDictionary
1001
ACAD
1000
TREAT_AS_HARD
1070
     0
  0
DICTIONARY
  5
47
102
{ACAD_REACTORS
330
C
102
}
330
C
100
AcDbDictionary
  3
A0
350
48
  3
A1
350
49
  3
A2
350
4A
  3
A3
350
4B
  3
A4
350
4C
  3
A5
350
4D
  3
A6
350
4E
  3
A7
350
4F
  3
A8
350
50
  3
A9
350
51
  3
B1
350
52
  3
B2
350
53
  3
B3
350
54
  3
B4
350
55
  3
B5
350
56
  3
B6
350
57
  3
B7
350
58
1001
ACAD
1000
TREAT_AS_HARD
1070
     0
  0
DICTIONARY
  5
2A
102
{ACAD_REACTORS
330
C
102
}
330
C
100
AcDbDictionary
  3
2DWIREFRAME
350
2F
  3
BASIC
350
32
  3
BRIGHTEN
350
36
  3
COLORCHANGE
350
3A
  3
CONCEPTUAL
350
34
  3
DIM
350
35
  3
EDGECOLOROFF
350
3D
  3
FACEPATTERN
350
39
  3
FLAT
350
2B
  3
FLATWITHEDGES
350
2C
  3
GOURAUD
350
2D
  3
GOURAUDWITHEDGES
350
2E
  3
HIDDEN
350
31
  3
JITTEROFF
350
3B
  3
LINEPATTERN
350
38
  3
OVERHANGOFF
350
3C
  3
REALISTIC
350
33
  3
SHADED
350
42
  3
SHADED_WITH_EDGES
350
41
  3
SHADES_OF_GRAY
350
3E
  3
SKETCHY
350
3F
  3
THICKEN
350
37
  3
WIREFRAME
350
30
  3
X-RAY
350
40
1001
ACAD
1000
TREAT_AS_HARD
1070
     0
  0
DICTIONARY
  5
94
102
{ACAD_REACTORS
330
C
102
}
330
C
100
AcDbDictionary
  3
CANNOSCALE
350
9C
  3
CMLEADERSTYLE
350
96
  3
CTABLESTYLE
350
95
  3
DIMASSOC
350
99
  3
HIDETEXT
350
9A
  3
MSLTSCALE
350
9D
1001
ACAD
1000
TREAT_AS_HARD
1070
     0
  0
XRECORD
  5
9B
102
{ACAD_REACTORS
330
C
102
}
330
C
100
AcDbXrecord
  1
DWGPROPS COOKIE
  2

  3

  4

  6

  7

  8
jt523
  9

300
=
301
=
302
=
303
=
304
=
305
=
306
=
307
=
308
=
309
=
 40
0.0
 41
2460886.093392003
 42
2460886.093392234
  1

 90
        0
  0
MATERIAL
  5
45
102
{ACAD_REACTORS
330
43
102
}
102
{ACAD_XDICTIONARY
360
A0
102
}
330
43
100
AcDbMaterial
  1
BYBLOCK
  0
MATERIAL
  5
44
102
{ACAD_REACTORS
330
43
102
}
102
{ACAD_XDICTIONARY
360
9E
102
}
330
43
100
AcDbMaterial
  1
BYLAYER
  0
MATERIAL
  5
46
102
{ACAD_REACTORS
330
43
102
}
102
{ACAD_XDICTIONARY
360
A2
102
}
330
43
100
AcDbMaterial
  1
GLOBAL
  0
ACAD_PROXY_OBJECT
  5
5C
102
{ACAD_REACTORS
330
5B
102
}
330
5B
100
AcDbZombieObject
 90
      499
 91
      505
 93
      610
310
40901902A4063FBFFFFFE056BD1B81E855B9FC0AD7A3703D0AD73F4214DD185B99185C9900AD7A3703D0AC73F90141901A02B5E8DC0F42B1CFC02B5E8DC0F42B1CFE5764000000000000300FC0
340
14
340
0
340
11
340
0
 94
        0
1001
ACAD_MLEADERVER
1070
     2
  0
MLINESTYLE
  5
18
102
{ACAD_REACTORS
330
17
102
}
330
17
100
AcDbMlineStyle
  2
Standard
 70
     0
  3

 62
   256
 51
90.0
 52
90.0
 71
     2
 49
0.5
 62
   256
  6
BYLAYER
 49
-0.5
 62
   256
  6
BYLAYER
  0
ACAD_PROXY_OBJECT
  5
48
102
{ACAD_REACTORS
330
47
102
}
330
47
100
AcDbZombieObject
 90
      499
 91
      503
 93
       41
310
903313A31580
  0
ACAD_PROXY_OBJECT
  5
49
102
{ACAD_REACTORS
330
47
102
}
330
47
100
AcDbZombieObject
 90
      499
 91
      503
 93
      257
310
90E312F31323822203D2031272D3022000000000000200FC000000000000284000
  0
ACAD_PROXY_OBJECT
  5
4A
102
{ACAD_REACTORS
330
47
102
}
330
47
100
AcDbZombieObject
 90
      499
 91
      503
 93
      249
310
90D312F363422203D2031272D3022000000000000240FC000000000000284000
  0
ACAD_PROXY_OBJECT
  5
4B
102
{ACAD_REACTORS
330
47
102
}
330
47
100
AcDbZombieObject
 90
      499
 91
      503
 93
      249
310
90D312F333222203D2031272D3022000000000000280FC000000000000284000
  0
ACAD_PROXY_OBJECT
  5
4C
102
{ACAD_REACTORS
330
47
102
}
330
47
100
AcDbZombieObject
 90
      499
 91
      503
 93
      249
310
90D312F313622203D2031272D30220000000000002C0FC000000000000284000
  0
ACAD_PROXY_OBJECT
  5
4D
102
{ACAD_REACTORS
330
47
102
}
330
47
100
AcDbZombieObject
 90
      499
 91
      503
 93
      249
310
90D332F333222203D2031272D30220000000000002E0FC000000000000284000
  0
ACAD_PROXY_OBJECT
  5
4E
102
{ACAD_REACTORS
330
47
102
}
330
47
100
AcDbZombieObject
 90
      499
 91
      503
 93
      241
310
90C312F3822203D2031272D3022000000000000300FC000000000000284000
  0
ACAD_PROXY_OBJECT
  5
4F
102
{ACAD_REACTORS
330
47
102
}
330
47
100
AcDbZombieObject
 90
      499
 91
      503
 93
      249
310
90D332F313622203D2031272D3022000000000000320FC000000000000284000
  0
ACAD_PROXY_OBJECT
  5
50
102
{ACAD_REACTORS
330
47
102
}
330
47
100
AcDbZombieObject
 90
      499
 91
      503
 93
      241
310
90C312F3422203D2031272D3022000000000000340FC000000000000284000
  0
ACAD_PROXY_OBJECT
  5
51
102
{ACAD_REACTORS
330
47
102
}
330
47
100
AcDbZombieObject
 90
      499
 91
      503
 93
      241
310
90C332F3822203D2031272D3022000000000000360FC000000000000284000
  0
ACAD_PROXY_OBJECT
  5
52
102
{ACAD_REACTORS
330
47
102
}
330
47
100
AcDbZombieObject
 90
      499
 91
      503
 93
      241
310
90C312F3222203D2031272D3022000000000000380FC000000000000284000
  0
ACAD_PROXY_OBJECT
  5
53
102
{ACAD_REACTORS
330
47
102
}
330
47
100
AcDbZombieObject
 90
      499
 91
      503
 93
      241
310
90C332F3422203D2031272D30220000000000003A0FC000000000000284000
  0
ACAD_PROXY_OBJECT
  5
54
102
{ACAD_REACTORS
330
47
102
}
330
47
100
AcDbZombieObject
 90
      499
 91
      503
 93
      161
310
90A3122203D2031272D30224000000000000284000
  0
ACAD_PROXY_OBJECT
  5
55
102
{ACAD_REACTORS
330
47
102
}
330
47
100
AcDbZombieObject
 90
      499
 91
      503
 93
      257
310
90E312D312F3222203D2031272D30220000000000003E0FC000000000000284000
  0
ACAD_PROXY_OBJECT
  5
56
102
{ACAD_REACTORS
330
47
102
}
330
47
100
AcDbZombieObject
 90
      499
 91
      503
 93
      225
310
90A3322203D2031272D302200000000000002100000000000000284000
  0
ACAD_PROXY_OBJECT
  5
57
102
{ACAD_REACTORS
330
47
102
}
330
47
100
AcDbZombieObject
 90
      499
 91
      503
 93
      225
310
90A3622203D2031272D302200000000000006100000000000000284000
  0
ACAD_PROXY_OBJECT
  5
58
102
{ACAD_REACTORS
330
47
102
}
330
47
100
AcDbZombieObject
 90
      499
 91
      503
 93
      249
310
90D31272D3022203D2031272D30220000000000000A100000000000000284000
  0
ACAD_PROXY_OBJECT
  5
2F
102
{ACAD_REACTORS
330
2A
102
}
330
2A
100
AcDbZombieObject
 90
      499
 91
      501
 93
      436
310
42CC9915DA5C99599C985B595049028333333333333E33F0000000000000F90107901411070040501600405405064090741402480A0340
1001
ACAD
1000
AcDbSavedByObjectVersion
1070
     0
  0
ACAD_PROXY_OBJECT
  5
32
102
{ACAD_REACTORS
330
2A
102
}
330
2A
100
AcDbZombieObject
 90
      499
 91
      501
 93
      388
310
4150985CDA58D07406404333333333333E33F0000000000000F90107A41107004050150841D405064090741402480A0350
1001
ACAD
1000
AcDbSavedByObjectVersion
1070
     0
  0
ACAD_PROXY_OBJECT
  5
36
102
{ACAD_REACTORS
330
2A
102
}
330
2A
100
AcDbZombieObject
 90
      499
 91
      501
 93
      428
310
42109C9A59DA1D195B90C409028333333333333E33F0000000000000F9010790141107004050150841D405064090741402480A029950
1001
ACAD
1000
AcDbSavedByObjectVersion
1070
     0
  0
ACAD_PROXY_OBJECT
  5
3A
102
{ACAD_REACTORS
330
2A
102
}
330
2A
100
AcDbZombieObject
 90
      499
 91
      501
 93
      452
310
42D0DBDB1BDC90DA185B99D95104090240C333333333333E33F0000000000000F90108901411070040501508421405064090741402480A0350
1001
ACAD
1000
AcDbSavedByObjectVersion
1070
     0
  0
ACAD_PROXY_OBJECT
  5
34
102
{ACAD_REACTORS
330
2A
102
}
330
2A
100
AcDbZombieObject
 90
      499
 91
      501
 93
      500
310
4290DBDB98D95C1D1D585B10940D028333333333333E33F0000000000000F90107902409070040501000000000018199010841D405064090740C02480A0340
1001
ACAD
1000
AcDbSavedByObjectVersion
1070
     0
  0
ACAD_PROXY_OBJECT
  5
35
102
{ACAD_REACTORS
330
2A
102
}
330
2A
100
AcDbZombieObject
 90
      499
 91
      501
 93
      412
310
40D11A5B50B409028333333333333E33F0000000000000F9010790141107004050150841D405064090741402480A02677FFFFFD0
1001
ACAD
1000
AcDbSavedByObjectVersion
1070
     0
  0
ACAD_PROXY_OBJECT
  5
3D
102
{ACAD_REACTORS
330
2A
102
}
330
2A
100
AcDbZombieObject
 90
      499
 91
      501
 93
      452
310
43115919D950DBDB1BDC93D999916409028333333333333E33F0000000000000F9010790141107004050150841D405064090741402480A0350
1001
ACAD
1000
AcDbSavedByObjectVersion
1070
     0
  0
ACAD_PROXY_OBJECT
  5
39
102
{ACAD_REACTORS
330
2A
102
}
330
2A
100
AcDbZombieObject
 90
      499
 91
      501
 93
      444
310
42D19858D95C185D1D195C9B90F409028333333333333E33F0000000000000F9010790141107004050150841D405064090741402480A0350
1001
ACAD
1000
AcDbSavedByObjectVersion
1070
     0
  0
ACAD_PROXY_OBJECT
  5
2B
102
{ACAD_REACTORS
330
2A
102
}
330
2A
100
AcDbZombieObject
 90
      499
 91
      501
 93
      380
310
41119B185D240901404333333333333E33F0000000000000F9010740A907004050150841D405064090741402480A1B50
1001
ACAD
1000
AcDbSavedByObjectVersion
1070
     0
  0
ACAD_PROXY_OBJECT
  5
2C
102
{ACAD_REACTORS
330
2A
102
}
330
2A
100
AcDbZombieObject
 90
      499
 91
      501
 93
      468
310
43519B185D15DA5D1A115919D95CD0140901404333333333333E33F0000000000000F90107409019070040501600405405064090741402480A1B50
1001
ACAD
1000
AcDbSavedByObjectVersion
1070
     0
  0
ACAD_PROXY_OBJECT
  5
2D
102
{ACAD_REACTORS
330
2A
102
}
330
2A
100
AcDbZombieObject
 90
      499
 91
      501
 93
      404
310
41D1DBDD5C985D5910240902404333333333333E33F0000000000000F9010740A9070040501641D405064090741402480A1B50
1001
ACAD
1000
AcDbSavedByObjectVersion
1070
     0
  0
ACAD_PROXY_OBJECT
  5
2E
102
{ACAD_REACTORS
330
2A
102
}
330
2A
100
AcDbZombieObject
 90
      499
 91
      501
 93
      492
310
4411DBDD5C985D5915DA5D1A115919D95CD0340902404333333333333E33F0000000000000F90107409019070040501600405405064090741402480A1B50
1001
ACAD
1000
AcDbSavedByObjectVersion
1070
     0
  0
ACAD_PROXY_OBJECT
  5
31
102
{ACAD_REACTORS
330
2A
102
}
330
2A
100
AcDbZombieObject
 90
      499
 91
      501
 93
      476
310
41921A5919195B90640502408333333333333E33F0000000000000F901079024090700405020000000000001110200405405064090740C02480A0340
1001
ACAD
1000
AcDbSavedByObjectVersion
1070
     0
  0
ACAD_PROXY_OBJECT
  5
3B
102
{ACAD_REACTORS
330
2A
102
}
330
2A
100
AcDbZombieObject
 90
      499
 91
      501
 93
      428
310
42529A5D1D195C93D999914409028333333333333E33F0000000000000F9010790141107004050150A41D405064090741402480A0350
1001
ACAD
1000
AcDbSavedByObjectVersion
1070
     0
  0
ACAD_PROXY_OBJECT
  5
38
102
{ACAD_REACTORS
330
2A
102
}
330
2A
100
AcDbZombieObject
 90
      499
 91
      501
 93
      444
310
42D31A5B995C185D1D195C9B90E409028333333333333E33F0000000000000F9010790141107004050750841D405064090741402483A0350
1001
ACAD
1000
AcDbSavedByObjectVersion
1070
     0
  0
ACAD_PROXY_OBJECT
  5
3C
102
{ACAD_REACTORS
330
2A
102
}
330
2A
100
AcDbZombieObject
 90
      499
 91
      501
 93
      444
310
42D3DD995C9A185B99D3D999915409028333333333333E33F0000000000000F9010790141107004050150941D405064090741402480A0350
1001
ACAD
1000
AcDbSavedByObjectVersion
1070
     0
  0
ACAD_PROXY_OBJECT
  5
33
102
{ACAD_REACTORS
330
2A
102
}
330
2A
100
AcDbZombieObject
 90
      499
 91
      501
 93
      428
310
425499585B1A5CDD1A58D08409038333333333333E33F0000000000000F9010740A907004050150800405405064090740C02480A1B40
1001
ACAD
1000
AcDbSavedByObjectVersion
1070
     0
  0
ACAD_PROXY_OBJECT
  5
42
102
{ACAD_REACTORS
330
2A
102
}
330
2A
100
AcDbZombieObject
 90
      499
 91
      501
 93
      420
310
4194DA1859195911B40902404333333333333E33F0000000000000F9010740A41107004050150800405405064090840C02480A0B40
1001
ACAD
1000
AcDbSavedByObjectVersion
1070
     0
  0
ACAD_PROXY_OBJECT
  5
41
102
{ACAD_REACTORS
330
2A
102
}
330
2A
100
AcDbZombieObject
 90
      499
 91
      501
 93
      516
310
4454DA18591959081DDA5D1A08195919D95CD1A40902404333333333333E33F0000000000000F901074090142907004050250800405405064090740C02480A0B40
1001
ACAD
1000
AcDbSavedByObjectVersion
1070
     0
  0
ACAD_PROXY_OBJECT
  5
3E
102
{ACAD_REACTORS
330
2A
102
}
330
2A
100
AcDbZombieObject
 90
      499
 91
      501
 93
      532
310
4394DA1859195CC81BD98811DC985E5174090240C333333333333E33F0000000000000F901079024090741D01000000000000111010841D405064090740C02480A0340
1001
ACAD
1000
AcDbSavedByObjectVersion
1070
     0
  0
ACAD_PROXY_OBJECT
  5
3F
102
{ACAD_REACTORS
330
2A
102
}
330
2A
100
AcDbZombieObject
 90
      499
 91
      501
 93
      476
310
41D4DAD95D18DA1E51840502408333333333333E33F0000000000000F901079024090741D01000000000000111010B41D405064090741802480A0340
1001
ACAD
1000
AcDbSavedByObjectVersion
1070
     0
  0
ACAD_PROXY_OBJECT
  5
37
102
{ACAD_REACTORS
330
2A
102
}
330
2A
100
AcDbZombieObject
 90
      499
 91
      501
 93
      412
310
41D51A1A58DAD95B90D409028333333333333E33F0000000000000F9010790141107004050150C41D405064090741402480A0350
1001
ACAD
1000
AcDbSavedByObjectVersion
1070
     0
  0
ACAD_PROXY_OBJECT
  5
30
102
{ACAD_REACTORS
330
2A
102
}
330
2A
100
AcDbZombieObject
 90
      499
 91
      501
 93
      420
310
4255DA5C99599C985B595059028333333333333E33F0000000000000F90107901411070040501600405405064090740C02480A0340
1001
ACAD
1000
AcDbSavedByObjectVersion
1070
     0
  0
ACAD_PROXY_OBJECT
  5
40
102
{ACAD_REACTORS
330
2A
102
}
330
2A
100
AcDbZombieObject
 90
      499
 91
      501
 93
      404
310
41560B54985E51940902404000000000000E03F0000000000000F9010740501907004050150841D405064090740C02480A1B40
1001
ACAD
1000
AcDbSavedByObjectVersion
1070
     0
  0
DICTIONARYVAR
  5
9C
102
{ACAD_REACTORS
330
94
102
}
330
94
100
DictionaryVariables
280
     0
  1
1:1
  0
DICTIONARYVAR
  5
96
102
{ACAD_REACTORS
330
94
102
}
330
94
100
DictionaryVariables
280
     0
  1
Standard
  0
DICTIONARYVAR
  5
95
102
{ACAD_REACTORS
330
94
102
}
330
94
100
DictionaryVariables
280
     0
  1
Standard
  0
DICTIONARYVAR
  5
99
102
{ACAD_REACTORS
330
94
102
}
330
94
100
DictionaryVariables
280
     0
  1
2
  0
DICTIONARYVAR
  5
9A
102
{ACAD_REACTORS
330
94
102
}
330
94
100
DictionaryVariables
280
     0
  1
1
  0
DICTIONARYVAR
  5
9D
102
{ACAD_REACTORS
330
94
102
}
330
94
100
DictionaryVariables
280
     0
  1
1
  0
DICTIONARY
  5
A0
330
45
100
AcDbDictionary
  3
ACAD_XREC_ROUNDTRIP
360
A1
1001
ACAD
1000
TREAT_AS_HARD
1070
     1
  0
DICTIONARY
  5
9E
330
44
100
AcDbDictionary
  3
ACAD_XREC_ROUNDTRIP
360
9F
1001
ACAD
1000
TREAT_AS_HARD
1070
     1
  0
DICTIONARY
  5
A2
330
46
100
AcDbDictionary
  3
ACAD_XREC_ROUNDTRIP
360
A3
1001
ACAD
1000
TREAT_AS_HARD
1070
     1
  0
XRECORD
  5
A1
102
{ACAD_REACTORS
330
A0
102
}
330
A0
100
AcDbXrecord
102
MATERIAL
148
0.0
149
0.0
149
0.0
 93
        0
 94
      127
282
     0
 72
     1
 77
     1
171
     1
175
     1
179
     1
273
     0
  0
XRECORD
  5
9F
102
{ACAD_REACTORS
330
9E
102
}
330
9E
100
AcDbXrecord
102
MATERIAL
148
0.0
149
0.0
149
0.0
 93
        0
 94
      127
282
     0
 72
     1
 77
     1
171
     1
175
     1
179
     1
273
     0
  0
XRECORD
  5
A3
102
{ACAD_REACTORS
330
A2
102
}
330
A2
100
AcDbXrecord
102
MATERIAL
148
0.0
149
0.0
149
0.0
 93
        0
 94
      127
282
     0
 72
     1
 77
     1
171
     1
175
     1
179
     1
273
     0
  0
ENDSEC
  0
EOF
