  0
SECTION
  2
HEADER
  9
$ACADVER
  1
AC1012
  9
$DWGCODEPAGE
  3
ansi_1252
  9
$INSBASE
 10
0.0
 20
0.0
 30
0.0
  9
$EXTMIN
 10
0.0
 20
0.0
 30
0.0
  9
$EXTMAX
 10
1189.0
 20
841.0
 30
0.0
  9
$LIMMIN
 10
0.0
 20
0.0
  9
$LIMMAX
 10
1189.0
 20
841.0
  9
$ORTHOMODE
 70
     0
  9
$REGENMODE
 70
     1
  9
$FILLMODE
 70
     1
  9
$QTEXTMODE
 70
     0
  9
$MIRRTEXT
 70
     1
  9
$DRAGMODE
 70
     2
  9
$LTSCALE
 40
1.0
  9
$OSMODE
 70
    37
  9
$ATTMODE
 70
     1
  9
$TEXTSIZE
 40
3.5
  9
$TRACEWID
 40
1.0
  9
$TEXTSTYLE
  7
STANDARD
  9
$CLAYER
  8
0
  9
$CELTYPE
  6
BYLAYER
  9
$CECOLOR
 62
   256
  9
$CELTSCALE
 40
1.0
  9
$DELOBJ
 70
     1
  9
$DISPSILH
 70
     0
  9
$DIMSCALE
 40
1.0
  9
$DIMASZ
 40
3.556
  9
$DIMEXO
 40
1.0
  9
$DIMDLI
 40
3.75
  9
$DIMRND
 40
0.0
  9
$DIMDLE
 40
0.0
  9
$DIMEXE
 40
1.0
  9
$DIMTP
 40
0.0
  9
$DIMTM
 40
0.0
  9
$DIMTXT
 40
3.5
  9
$DIMCEN
 40
2.5
  9
$DIMTSZ
 40
0.0
  9
$DIMTOL
 70
     0
  9
$DIMLIM
 70
     0
  9
$DIMTIH
 70
     1
  9
$DIMTOH
 70
     1
  9
$DIMSE1
 70
     0
  9
$DIMSE2
 70
     0
  9
$DIMTAD
 70
     1
  9
$DIMZIN
 70
     1
  9
$DIMBLK
  1

  9
$DIMASO
 70
     1
  9
$DIMSHO
 70
     1
  9
$DIMPOST
  1

  9
$DIMAPOST
  1

  9
$DIMALT
 70
     0
  9
$DIMALTD
 70
     3
  9
$DIMALTF
 40
0.0393700787
  9
$DIMLFAC
 40
0.5
  9
$DIMTOFL
 70
     1
  9
$DIMTVP
 40
0.0
  9
$DIMTIX
 70
     0
  9
$DIMSOXD
 70
     0
  9
$DIMSAH
 70
     0
  9
$DIMBLK1
  1

  9
$DIMBLK2
  1

  9
$DIMSTYLE
  2
ISO-25
  9
$DIMCLRD
 70
     0
  9
$DIMCLRE
 70
     0
  9
$DIMCLRT
 70
     0
  9
$DIMTFAC
 40
1.0
  9
$DIMGAP
 40
1.524
  9
$DIMJUST
 70
     0
  9
$DIMSD1
 70
     0
  9
$DIMSD2
 70
     0
  9
$DIMTOLJ
 70
     0
  9
$DIMTZIN
 70
     1
  9
$DIMALTZ
 70
     0
  9
$DIMALTTZ
 70
     0
  9
$DIMFIT
 70
     3
  9
$DIMUPT
 70
     0
  9
$DIMUNIT
 70
     2
  9
$DIMDEC
 70
     2
  9
$DIMTDEC
 70
     2
  9
$DIMALTU
 70
     2
  9
$DIMALTTD
 70
     3
  9
$DIMTXSTY
  7
STANDARD
  9
$DIMAUNIT
 70
     0
  9
$LUNITS
 70
     2
  9
$LUPREC
 70
     2
  9
$SKETCHINC
 40
1.0
  9
$FILLETRAD
 40
0.0
  9
$AUNITS
 70
     0
  9
$AUPREC
 70
     2
  9
$MENU
  1
.
  9
$ELEVATION
 40
0.0
  9
$PELEVATION
 40
0.0
  9
$THICKNESS
 40
0.0
  9
$LIMCHECK
 70
     0
  9
$CHAMFERA
 40
0.0
  9
$CHAMFERB
 40
0.0
  9
$CHAMFERC
 40
0.0
  9
$CHAMFERD
 40
0.0
  9
$SKPOLY
 70
     0
  9
$TDCREATE
 40
2460885.653839294
  9
$TDUPDATE
 40
2460885.653839815
  9
$TDINDWG
 40
0.0000000116
  9
$TDUSRTIMER
 40
0.0000000116
  9
$USRTIMER
 70
     1
  9
$ANGBASE
 50
0.0
  9
$ANGDIR
 70
     0
  9
$PDMODE
 70
     0
  9
$PDSIZE
 40
-1.0
  9
$PLINEWID
 40
0.0
  9
$COORDS
 70
     1
  9
$SPLFRAME
 70
     0
  9
$SPLINETYPE
 70
     6
  9
$SPLINESEGS
 70
     8
  9
$ATTDIA
 70
     0
  9
$ATTREQ
 70
     1
  9
$HANDLING
 70
     1
  9
$HANDSEED
  5
2D4
  9
$SURFTAB1
 70
     6
  9
$SURFTAB2
 70
     6
  9
$SURFTYPE
 70
     6
  9
$SURFU
 70
     6
  9
$SURFV
 70
     6
  9
$UCSNAME
  2

  9
$UCSORG
 10
0.0
 20
0.0
 30
0.0
  9
$UCSXDIR
 10
1.0
 20
0.0
 30
0.0
  9
$UCSYDIR
 10
0.0
 20
1.0
 30
0.0
  9
$PUCSNAME
  2

  9
$PUCSORG
 10
0.0
 20
0.0
 30
0.0
  9
$PUCSXDIR
 10
1.0
 20
0.0
 30
0.0
  9
$PUCSYDIR
 10
0.0
 20
1.0
 30
0.0
  9
$USERI1
 70
     0
  9
$USERI2
 70
     0
  9
$USERI3
 70
     0
  9
$USERI4
 70
     0
  9
$USERI5
 70
     0
  9
$USERR1
 40
0.0
  9
$USERR2
 40
0.0
  9
$USERR3
 40
0.0
  9
$USERR4
 40
0.0
  9
$USERR5
 40
0.0
  9
$WORLDVIEW
 70
     1
  9
$SHADEDGE
 70
     3
  9
$SHADEDIF
 70
    70
  9
$TILEMODE
 70
     1
  9
$MAXACTVP
 70
    64
  9
$PINSBASE
 10
0.0
 20
0.0
 30
0.0
  9
$PLIMCHECK
 70
     0
  9
$PEXTMIN
 10
1.0000000000E+20
 20
1.0000000000E+20
 30
1.0000000000E+20
  9
$PEXTMAX
 10
-1.0000000000E+20
 20
-1.0000000000E+20
 30
-1.0000000000E+20
  9
$PLIMMIN
 10
0.0
 20
0.0
  9
$PLIMMAX
 10
420.0
 20
297.0
  9
$UNITMODE
 70
     0
  9
$VISRETAIN
 70
     1
  9
$PLINEGEN
 70
     0
  9
$PSLTSCALE
 70
     1
  9
$TREEDEPTH
 70
  3020
  9
$PICKSTYLE
 70
     1
  9
$CMLSTYLE
  2
STANDARD
  9
$CMLJUST
 70
     0
  9
$CMLSCALE
 40
20.0
  9
$SAVEIMAGES
 70
     1
  0
ENDSEC
  0
SECTION
  2
CLASSES
  0
CLASS
  1
ACDBDICTIONARYWDFLT
  2
AcDbDictionaryWithDefault
  3
ObjectDBX Classes
 90
    32768
280
     0
281
     0
  0
CLASS
  1
VISUALSTYLE
  2
AcDbVisualStyle
  3
ObjectDBX Classes
 90
     4095
280
     0
281
     0
  0
CLASS
  1
MATERIAL
  2
AcDbMaterial
  3
ObjectDBX Classes
 90
     1153
280
     0
281
     0
  0
CLASS
  1
SCALE
  2
AcDbScale
  3
ObjectDBX Classes
 90
     1153
280
     0
281
     0
  0
CLASS
  1
TABLESTYLE
  2
AcDbTableStyle
  3
ObjectDBX Classes
 90
     4095
280
     0
281
     0
  0
CLASS
  1
MLEADERSTYLE
  2
AcDbMLeaderStyle
  3
ACDB_MLEADERSTYLE_CLASS
 90
     4095
280
     0
281
     0
  0
CLASS
  1
SUN
  2
AcDbSun
  3
SCENEOE
 90
     1153
280
     0
281
     0
  0
CLASS
  1
XRECORD
  2
AcDbXrecord
  3
ObjectDBX Classes
 90
    32768
280
     0
281
     0
  0
ENDSEC
  0
SECTION
  2
TABLES
  0
TABLE
  2
VPORT
  5
8
330
0
100
AcDbSymbolTable
 70
     1
  0
VPORT
  5
29
330
8
100
AcDbSymbolTableRecord
100
AcDbViewportTableRecord
  2
*ACTIVE
 70
     0
 10
0.0
 20
0.0
 11
1.0
 21
1.0
 12
594.5
 22
420.5
 13
0.0
 23
0.0
 14
10.0
 24
10.0
 15
10.0
 25
10.0
 16
0.0
 26
0.0
 36
1.0
 17
0.0
 27
0.0
 37
0.0
 40
841.0
 41
1.4137931034
 42
50.0
 43
0.0
 44
0.0
 50
0.0
 51
0.0
 71
     0
 72
  2000
 73
     1
 74
     3
 75
     0
 76
     0
 77
     0
 78
     0
  0
ENDTAB
  0
TABLE
  2
LTYPE
  5
5
330
0
100
AcDbSymbolTable
 70
     6
  0
LTYPE
  5
14
330
5
100
AcDbSymbolTableRecord
100
AcDbLinetypeTableRecord
  2
BYBLOCK
 70
     0
  3

 72
    65
 73
     0
 40
0.0
  0
LTYPE
  5
15
330
5
100
AcDbSymbolTableRecord
100
AcDbLinetypeTableRecord
  2
BYLAYER
 70
     0
  3

 72
    65
 73
     0
 40
0.0
  0
LTYPE
  5
16
330
5
100
AcDbSymbolTableRecord
100
AcDbLinetypeTableRecord
  2
CONTINUOUS
 70
     0
  3
Solid line
 72
    65
 73
     0
 40
0.0
  0
LTYPE
  5
5E
330
5
100
AcDbSymbolTableRecord
100
AcDbLinetypeTableRecord
  2
HIDDEN
 70
     0
  3
Hidden __ __ __ __ __ __ __ __ __ __ __ __ __ __
 72
    65
 73
     2
 40
1.905
 49
1.27
 74
     0
 49
-0.635
 74
     0
  0
LTYPE
  5
5F
330
5
100
AcDbSymbolTableRecord
100
AcDbLinetypeTableRecord
  2
PHANTOM
 70
     0
  3
Phantom ______  __  __  ______  __  __  ______
 72
    65
 73
     6
 40
12.7
 49
6.35
 74
     0
 49
-1.27
 74
     0
 49
1.27
 74
     0
 49
-1.27
 74
     0
 49
1.27
 74
     0
 49
-1.27
 74
     0
  0
LTYPE
  5
60
330
5
100
AcDbSymbolTableRecord
100
AcDbLinetypeTableRecord
  2
CENTER
 70
     0
  3
Center ____ _ ____ _ ____ _ ____ _ ____ _ ____
 72
    65
 73
     4
 40
10.16
 49
6.35
 74
     0
 49
-1.27
 74
     0
 49
1.27
 74
     0
 49
-1.27
 74
     0
  0
LTYPE
  5
61
330
5
100
AcDbSymbolTableRecord
100
AcDbLinetypeTableRecord
  2
CENTERX2
 70
     0
  3
Center (2x) ________  __  ________  __  _____
 72
    65
 73
     4
 40
20.32
 49
12.7
 74
     0
 49
-2.54
 74
     0
 49
2.54
 74
     0
 49
-2.54
 74
     0
  0
LTYPE
  5
62
330
5
100
AcDbSymbolTableRecord
100
AcDbLinetypeTableRecord
  2
DOT2
 70
     0
  3
Dot (.5x) ........................................
 72
    65
 73
     2
 40
0.635
 49
0.0
 74
     0
 49
-0.635
 74
     0
  0
ENDTAB
  0
TABLE
  2
LAYER
  5
2
330
0
100
AcDbSymbolTable
 70
     2
  0
LAYER
  5
10
330
2
100
AcDbSymbolTableRecord
100
AcDbLayerTableRecord
  2
0
 70
     0
 62
     7
  6
CONTINUOUS
  0
LAYER
  5
63
330
2
100
AcDbSymbolTableRecord
100
AcDbLayerTableRecord
  2
FORMAT
 70
     0
 62
     7
  6
CONTINUOUS
  0
ENDTAB
  0
TABLE
  2
STYLE
  5
3
330
0
100
AcDbSymbolTable
 70
     2
  0
STYLE
  5
11
330
3
100
AcDbSymbolTableRecord
100
AcDbTextStyleTableRecord
  2
STANDARD
 70
     0
 40
0.0
 41
1.0
 50
0.0
 71
     0
 42
3.5
  3
txt
  4

  0
STYLE
  5
2D0
330
3
100
AcDbSymbolTableRecord
100
AcDbTextStyleTableRecord
  2
SLDTEXTSTYLE0
 70
     0
 40
0.0
 41
0.7
 50
0.0
 71
     0
 42
3.5
  3
TXT
  4

  0
ENDTAB
  0
TABLE
  2
VIEW
  5
6
330
0
100
AcDbSymbolTable
 70
     0
  0
ENDTAB
  0
TABLE
  2
UCS
  5
7
330
0
100
AcDbSymbolTable
 70
     0
  0
ENDTAB
  0
TABLE
  2
APPID
  5
9
330
0
100
AcDbSymbolTable
 70
     1
  0
APPID
  5
12
330
9
100
AcDbSymbolTableRecord
100
AcDbRegAppTableRecord
  2
ACAD
 70
     0
  0
ENDTAB
  0
TABLE
  2
DIMSTYLE
  5
A
330
0
100
AcDbSymbolTable
 70
     1
  0
DIMSTYLE
105
27
330
A
100
AcDbSymbolTableRecord
100
AcDbDimStyleTableRecord
  2
ISO-25
 70
     0
  3

  4

  5

  6

  7

 40
1.0
 41
2.5
 42
0.625
 43
3.75
 44
1.25
 45
0.0
 46
0.0
 47
0.0
 48
0.0
140
2.5
141
2.5
142
0.0
143
0.0393700787
144
1.0
145
0.0
146
1.0
147
0.625
 71
     0
 72
     0
 73
     0
 74
     0
 75
     0
 76
     0
 77
     1
 78
     8
170
     0
171
     3
172
     1
173
     0
174
     0
175
     0
176
     0
177
     0
178
     0
270
     2
271
     2
272
     2
273
     2
274
     3
340
11
275
     0
280
     0
281
     0
282
     0
283
     0
284
     8
285
     0
286
     0
287
     3
288
     0
  0
ENDTAB
  0
TABLE
  2
BLOCK_RECORD
  5
1
330
0
100
AcDbSymbolTable
 70
    25
  0
BLOCK_RECORD
  5
1F
330
1
100
AcDbSymbolTableRecord
100
AcDbBlockTableRecord
  2
*MODEL_SPACE
  0
BLOCK_RECORD
  5
1B
330
1
100
AcDbSymbolTableRecord
100
AcDbBlockTableRecord
  2
*PAPER_SPACE
  0
BLOCK_RECORD
  5
23
330
1
100
AcDbSymbolTableRecord
100
AcDbBlockTableRecord
  2
*PAPER_SPACE0
  0
BLOCK_RECORD
  5
B2
330
1
100
AcDbSymbolTableRecord
100
AcDbBlockTableRecord
  2
SW_CENTERMARKSYMBOL_0
  0
BLOCK_RECORD
  5
BE
330
1
100
AcDbSymbolTableRecord
100
AcDbBlockTableRecord
  2
SW_CENTERMARKSYMBOL_1
  0
BLOCK_RECORD
  5
CA
330
1
100
AcDbSymbolTableRecord
100
AcDbBlockTableRecord
  2
SW_CENTERMARKSYMBOL_2
  0
BLOCK_RECORD
  5
D6
330
1
100
AcDbSymbolTableRecord
100
AcDbBlockTableRecord
  2
SW_CENTERMARKSYMBOL_3
  0
BLOCK_RECORD
  5
E2
330
1
100
AcDbSymbolTableRecord
100
AcDbBlockTableRecord
  2
SW_CENTERMARKSYMBOL_4
  0
BLOCK_RECORD
  5
EE
330
1
100
AcDbSymbolTableRecord
100
AcDbBlockTableRecord
  2
SW_CENTERMARKSYMBOL_5
  0
BLOCK_RECORD
  5
FA
330
1
100
AcDbSymbolTableRecord
100
AcDbBlockTableRecord
  2
SW_CENTERMARKSYMBOL_6
  0
BLOCK_RECORD
  5
106
330
1
100
AcDbSymbolTableRecord
100
AcDbBlockTableRecord
  2
SW_CENTERMARKSYMBOL_7
  0
BLOCK_RECORD
  5
112
330
1
100
AcDbSymbolTableRecord
100
AcDbBlockTableRecord
  2
SW_CENTERMARKSYMBOL_8
  0
BLOCK_RECORD
  5
11E
330
1
100
AcDbSymbolTableRecord
100
AcDbBlockTableRecord
  2
SW_CENTERMARKSYMBOL_9
  0
BLOCK_RECORD
  5
1C0
330
1
100
AcDbSymbolTableRecord
100
AcDbBlockTableRecord
  2
SW_CENTERMARKSYMBOL_10
  0
BLOCK_RECORD
  5
1CC
330
1
100
AcDbSymbolTableRecord
100
AcDbBlockTableRecord
  2
SW_CENTERMARKSYMBOL_11
  0
BLOCK_RECORD
  5
1D8
330
1
100
AcDbSymbolTableRecord
100
AcDbBlockTableRecord
  2
SW_CENTERMARKSYMBOL_12
  0
BLOCK_RECORD
  5
1E4
330
1
100
AcDbSymbolTableRecord
100
AcDbBlockTableRecord
  2
SW_CENTERMARKSYMBOL_13
  0
BLOCK_RECORD
  5
22B
330
1
100
AcDbSymbolTableRecord
100
AcDbBlockTableRecord
  2
SW_CENTERMARKSYMBOL_14
  0
BLOCK_RECORD
  5
237
330
1
100
AcDbSymbolTableRecord
100
AcDbBlockTableRecord
  2
SW_CENTERMARKSYMBOL_15
  0
BLOCK_RECORD
  5
243
330
1
100
AcDbSymbolTableRecord
100
AcDbBlockTableRecord
  2
SW_CENTERMARKSYMBOL_16
  0
BLOCK_RECORD
  5
26D
330
1
100
AcDbSymbolTableRecord
100
AcDbBlockTableRecord
  2
SW_CENTERMARKSYMBOL_17
  0
BLOCK_RECORD
  5
279
330
1
100
AcDbSymbolTableRecord
100
AcDbBlockTableRecord
  2
SW_CENTERMARKSYMBOL_18
  0
BLOCK_RECORD
  5
285
330
1
100
AcDbSymbolTableRecord
100
AcDbBlockTableRecord
  2
SW_CENTERMARKSYMBOL_19
  0
BLOCK_RECORD
  5
291
330
1
100
AcDbSymbolTableRecord
100
AcDbBlockTableRecord
  2
SW_CENTERMARKSYMBOL_20
  0
BLOCK_RECORD
  5
2AA
330
1
100
AcDbSymbolTableRecord
100
AcDbBlockTableRecord
  2
SW_CENTERMARKSYMBOL_21
  0
BLOCK_RECORD
  5
2B7
330
1
100
AcDbSymbolTableRecord
100
AcDbBlockTableRecord
  2
SW_CENTERMARKSYMBOL_22
  0
BLOCK_RECORD
  5
2C4
330
1
100
AcDbSymbolTableRecord
100
AcDbBlockTableRecord
  2
SW_CENTERMARKSYMBOL_23
  0
ENDTAB
  0
ENDSEC
  0
SECTION
  2
BLOCKS
  0
BLOCK
  5
20
330
1F
100
AcDbEntity
  8
0
100
AcDbBlockBegin
  2
*MODEL_SPACE
 70
     0
 10
0.0
 20
0.0
 30
0.0
  3
*MODEL_SPACE
  1

  0
ENDBLK
  5
21
330
1F
100
AcDbEntity
  8
0
100
AcDbBlockEnd
  0
BLOCK
  5
1C
330
1B
100
AcDbEntity
 67
     1
  8
0
100
AcDbBlockBegin
  2
*PAPER_SPACE
 70
     0
 10
0.0
 20
0.0
 30
0.0
  3
*PAPER_SPACE
  1

  0
ENDBLK
  5
1D
330
1B
100
AcDbEntity
 67
     1
  8
0
100
AcDbBlockEnd
  0
BLOCK
  5
24
330
23
100
AcDbEntity
  8
0
100
AcDbBlockBegin
  2
*PAPER_SPACE0
 70
     0
 10
0.0
 20
0.0
 30
0.0
  3
*PAPER_SPACE0
  1

  0
ENDBLK
  5
25
330
23
100
AcDbEntity
  8
0
100
AcDbBlockEnd
  0
BLOCK
  5
B3
330
B2
100
AcDbEntity
  8
0
100
AcDbBlockBegin
  2
SW_CENTERMARKSYMBOL_0
 70
     0
 10
0.0
 20
0.0
 30
0.0
  3
SW_CENTERMARKSYMBOL_0
  1

  0
LINE
  5
B5
330
B2
100
AcDbEntity
  8
0
  6
CONTINUOUS
 62
     0
100
AcDbLine
 10
0.0
 20
0.0
 30
0.0
 11
0.0
 21
5.0
 31
0.0
  0
LINE
  5
B6
330
B2
100
AcDbEntity
  8
0
  6
CONTINUOUS
 62
     0
100
AcDbLine
 10
0.0
 20
0.0
 30
0.0
 11
-5.0
 21
0.0
 31
0.0
  0
LINE
  5
B7
330
B2
100
AcDbEntity
  8
0
  6
CONTINUOUS
 62
     0
100
AcDbLine
 10
0.0
 20
0.0
 30
0.0
 11
0.0
 21
-5.0
 31
0.0
  0
LINE
  5
B8
330
B2
100
AcDbEntity
  8
0
  6
CONTINUOUS
 62
     0
100
AcDbLine
 10
0.0
 20
0.0
 30
0.0
 11
5.0
 21
0.0
 31
0.0
  0
LINE
  5
B9
330
B2
100
AcDbEntity
  8
0
  6
CONTINUOUS
 62
     0
100
AcDbLine
 10
0.0
 20
5.0
 30
0.0
 11
0.0
 21
9.7999999994
 31
0.0
  0
LINE
  5
BA
330
B2
100
AcDbEntity
  8
0
  6
CONTINUOUS
 62
     0
100
AcDbLine
 10
-5.0
 20
0.0
 30
0.0
 11
-9.7999999994
 21
0.0
 31
0.0
  0
LINE
  5
BB
330
B2
100
AcDbEntity
  8
0
  6
CONTINUOUS
 62
     0
100
AcDbLine
 10
0.0
 20
-5.0
 30
0.0
 11
0.0
 21
-9.7999999994
 31
0.0
  0
LINE
  5
BC
330
B2
100
AcDbEntity
  8
0
  6
CONTINUOUS
 62
     0
100
AcDbLine
 10
5.0
 20
0.0
 30
0.0
 11
9.7999999994
 21
0.0
 31
0.0
  0
ENDBLK
  5
B4
330
B2
100
AcDbEntity
  8
0
100
AcDbBlockEnd
  0
BLOCK
  5
BF
330
BE
100
AcDbEntity
  8
0
100
AcDbBlockBegin
  2
SW_CENTERMARKSYMBOL_1
 70
     0
 10
0.0
 20
0.0
 30
0.0
  3
SW_CENTERMARKSYMBOL_1
  1

  0
LINE
  5
C1
330
BE
100
AcDbEntity
  8
0
  6
CONTINUOUS
 62
     0
100
AcDbLine
 10
0.0
 20
0.0
 30
0.0
 11
0.0
 21
5.0
 31
0.0
  0
LINE
  5
C2
330
BE
100
AcDbEntity
  8
0
  6
CONTINUOUS
 62
     0
100
AcDbLine
 10
0.0
 20
0.0
 30
0.0
 11
-5.0
 21
0.0
 31
0.0
  0
LINE
  5
C3
330
BE
100
AcDbEntity
  8
0
  6
CONTINUOUS
 62
     0
100
AcDbLine
 10
0.0
 20
0.0
 30
0.0
 11
0.0
 21
-5.0
 31
0.0
  0
LINE
  5
C4
330
BE
100
AcDbEntity
  8
0
  6
CONTINUOUS
 62
     0
100
AcDbLine
 10
0.0
 20
0.0
 30
0.0
 11
5.0
 21
0.0
 31
0.0
  0
LINE
  5
C5
330
BE
100
AcDbEntity
  8
0
  6
CONTINUOUS
 62
     0
100
AcDbLine
 10
0.0
 20
5.0
 30
0.0
 11
0.0
 21
9.7999999994
 31
0.0
  0
LINE
  5
C6
330
BE
100
AcDbEntity
  8
0
  6
CONTINUOUS
 62
     0
100
AcDbLine
 10
-5.0
 20
0.0
 30
0.0
 11
-9.7999999994
 21
0.0
 31
0.0
  0
LINE
  5
C7
330
BE
100
AcDbEntity
  8
0
  6
CONTINUOUS
 62
     0
100
AcDbLine
 10
0.0
 20
-5.0
 30
0.0
 11
0.0
 21
-9.7999999994
 31
0.0
  0
LINE
  5
C8
330
BE
100
AcDbEntity
  8
0
  6
CONTINUOUS
 62
     0
100
AcDbLine
 10
5.0
 20
0.0
 30
0.0
 11
9.7999999994
 21
0.0
 31
0.0
  0
ENDBLK
  5
C0
330
BE
100
AcDbEntity
  8
0
100
AcDbBlockEnd
  0
BLOCK
  5
CB
330
CA
100
AcDbEntity
  8
0
100
AcDbBlockBegin
  2
SW_CENTERMARKSYMBOL_2
 70
     0
 10
0.0
 20
0.0
 30
0.0
  3
SW_CENTERMARKSYMBOL_2
  1

  0
LINE
  5
CD
330
CA
100
AcDbEntity
  8
0
  6
CONTINUOUS
 62
     0
100
AcDbLine
 10
0.0
 20
0.0
 30
0.0
 11
0.0
 21
5.0
 31
0.0
  0
LINE
  5
CE
330
CA
100
AcDbEntity
  8
0
  6
CONTINUOUS
 62
     0
100
AcDbLine
 10
0.0
 20
0.0
 30
0.0
 11
-5.0
 21
0.0
 31
0.0
  0
LINE
  5
CF
330
CA
100
AcDbEntity
  8
0
  6
CONTINUOUS
 62
     0
100
AcDbLine
 10
0.0
 20
0.0
 30
0.0
 11
0.0
 21
-5.0
 31
0.0
  0
LINE
  5
D0
330
CA
100
AcDbEntity
  8
0
  6
CONTINUOUS
 62
     0
100
AcDbLine
 10
0.0
 20
0.0
 30
0.0
 11
5.0
 21
0.0
 31
0.0
  0
LINE
  5
D1
330
CA
100
AcDbEntity
  8
0
  6
CONTINUOUS
 62
     0
100
AcDbLine
 10
0.0
 20
5.0
 30
0.0
 11
0.0
 21
9.8
 31
0.0
  0
LINE
  5
D2
330
CA
100
AcDbEntity
  8
0
  6
CONTINUOUS
 62
     0
100
AcDbLine
 10
-5.0
 20
0.0
 30
0.0
 11
-9.8
 21
0.0
 31
0.0
  0
LINE
  5
D3
330
CA
100
AcDbEntity
  8
0
  6
CONTINUOUS
 62
     0
100
AcDbLine
 10
0.0
 20
-5.0
 30
0.0
 11
0.0
 21
-9.8
 31
0.0
  0
LINE
  5
D4
330
CA
100
AcDbEntity
  8
0
  6
CONTINUOUS
 62
     0
100
AcDbLine
 10
5.0
 20
0.0
 30
0.0
 11
9.8
 21
0.0
 31
0.0
  0
ENDBLK
  5
CC
330
CA
100
AcDbEntity
  8
0
100
AcDbBlockEnd
  0
BLOCK
  5
D7
330
D6
100
AcDbEntity
  8
0
100
AcDbBlockBegin
  2
SW_CENTERMARKSYMBOL_3
 70
     0
 10
0.0
 20
0.0
 30
0.0
  3
SW_CENTERMARKSYMBOL_3
  1

  0
LINE
  5
D9
330
D6
100
AcDbEntity
  8
0
  6
CONTINUOUS
 62
     0
100
AcDbLine
 10
0.0
 20
0.0
 30
0.0
 11
0.0
 21
5.0
 31
0.0
  0
LINE
  5
DA
330
D6
100
AcDbEntity
  8
0
  6
CONTINUOUS
 62
     0
100
AcDbLine
 10
0.0
 20
0.0
 30
0.0
 11
-5.0
 21
0.0
 31
0.0
  0
LINE
  5
DB
330
D6
100
AcDbEntity
  8
0
  6
CONTINUOUS
 62
     0
100
AcDbLine
 10
0.0
 20
0.0
 30
0.0
 11
0.0
 21
-5.0
 31
0.0
  0
LINE
  5
DC
330
D6
100
AcDbEntity
  8
0
  6
CONTINUOUS
 62
     0
100
AcDbLine
 10
0.0
 20
0.0
 30
0.0
 11
5.0
 21
0.0
 31
0.0
  0
LINE
  5
DD
330
D6
100
AcDbEntity
  8
0
  6
CONTINUOUS
 62
     0
100
AcDbLine
 10
0.0
 20
5.0
 30
0.0
 11
0.0
 21
9.8
 31
0.0
  0
LINE
  5
DE
330
D6
100
AcDbEntity
  8
0
  6
CONTINUOUS
 62
     0
100
AcDbLine
 10
-5.0
 20
0.0
 30
0.0
 11
-9.8
 21
0.0
 31
0.0
  0
LINE
  5
DF
330
D6
100
AcDbEntity
  8
0
  6
CONTINUOUS
 62
     0
100
AcDbLine
 10
0.0
 20
-5.0
 30
0.0
 11
0.0
 21
-9.8
 31
0.0
  0
LINE
  5
E0
330
D6
100
AcDbEntity
  8
0
  6
CONTINUOUS
 62
     0
100
AcDbLine
 10
5.0
 20
0.0
 30
0.0
 11
9.8
 21
0.0
 31
0.0
  0
ENDBLK
  5
D8
330
D6
100
AcDbEntity
  8
0
100
AcDbBlockEnd
  0
BLOCK
  5
E3
330
E2
100
AcDbEntity
  8
0
100
AcDbBlockBegin
  2
SW_CENTERMARKSYMBOL_4
 70
     0
 10
0.0
 20
0.0
 30
0.0
  3
SW_CENTERMARKSYMBOL_4
  1

  0
LINE
  5
E5
330
E2
100
AcDbEntity
  8
0
  6
CONTINUOUS
 62
     0
100
AcDbLine
 10
0.0
 20
0.0
 30
0.0
 11
0.0
 21
5.0
 31
0.0
  0
LINE
  5
E6
330
E2
100
AcDbEntity
  8
0
  6
CONTINUOUS
 62
     0
100
AcDbLine
 10
0.0
 20
0.0
 30
0.0
 11
-5.0
 21
0.0
 31
0.0
  0
LINE
  5
E7
330
E2
100
AcDbEntity
  8
0
  6
CONTINUOUS
 62
     0
100
AcDbLine
 10
0.0
 20
0.0
 30
0.0
 11
0.0
 21
-5.0
 31
0.0
  0
LINE
  5
E8
330
E2
100
AcDbEntity
  8
0
  6
CONTINUOUS
 62
     0
100
AcDbLine
 10
0.0
 20
0.0
 30
0.0
 11
5.0
 21
0.0
 31
0.0
  0
LINE
  5
E9
330
E2
100
AcDbEntity
  8
0
  6
CONTINUOUS
 62
     0
100
AcDbLine
 10
0.0
 20
5.0
 30
0.0
 11
0.0
 21
9.8
 31
0.0
  0
LINE
  5
EA
330
E2
100
AcDbEntity
  8
0
  6
CONTINUOUS
 62
     0
100
AcDbLine
 10
-5.0
 20
0.0
 30
0.0
 11
-9.8
 21
0.0
 31
0.0
  0
LINE
  5
EB
330
E2
100
AcDbEntity
  8
0
  6
CONTINUOUS
 62
     0
100
AcDbLine
 10
0.0
 20
-5.0
 30
0.0
 11
0.0
 21
-9.8
 31
0.0
  0
LINE
  5
EC
330
E2
100
AcDbEntity
  8
0
  6
CONTINUOUS
 62
     0
100
AcDbLine
 10
5.0
 20
0.0
 30
0.0
 11
9.8
 21
0.0
 31
0.0
  0
ENDBLK
  5
E4
330
E2
100
AcDbEntity
  8
0
100
AcDbBlockEnd
  0
BLOCK
  5
EF
330
EE
100
AcDbEntity
  8
0
100
AcDbBlockBegin
  2
SW_CENTERMARKSYMBOL_5
 70
     0
 10
0.0
 20
0.0
 30
0.0
  3
SW_CENTERMARKSYMBOL_5
  1

  0
LINE
  5
F1
330
EE
100
AcDbEntity
  8
0
  6
CONTINUOUS
 62
     0
100
AcDbLine
 10
0.0
 20
0.0
 30
0.0
 11
0.0
 21
5.0
 31
0.0
  0
LINE
  5
F2
330
EE
100
AcDbEntity
  8
0
  6
CONTINUOUS
 62
     0
100
AcDbLine
 10
0.0
 20
0.0
 30
0.0
 11
-5.0
 21
0.0
 31
0.0
  0
LINE
  5
F3
330
EE
100
AcDbEntity
  8
0
  6
CONTINUOUS
 62
     0
100
AcDbLine
 10
0.0
 20
0.0
 30
0.0
 11
0.0
 21
-5.0
 31
0.0
  0
LINE
  5
F4
330
EE
100
AcDbEntity
  8
0
  6
CONTINUOUS
 62
     0
100
AcDbLine
 10
0.0
 20
0.0
 30
0.0
 11
5.0
 21
0.0
 31
0.0
  0
LINE
  5
F5
330
EE
100
AcDbEntity
  8
0
  6
CONTINUOUS
 62
     0
100
AcDbLine
 10
0.0
 20
5.0
 30
0.0
 11
0.0
 21
9.8
 31
0.0
  0
LINE
  5
F6
330
EE
100
AcDbEntity
  8
0
  6
CONTINUOUS
 62
     0
100
AcDbLine
 10
-5.0
 20
0.0
 30
0.0
 11
-9.8
 21
0.0
 31
0.0
  0
LINE
  5
F7
330
EE
100
AcDbEntity
  8
0
  6
CONTINUOUS
 62
     0
100
AcDbLine
 10
0.0
 20
-5.0
 30
0.0
 11
0.0
 21
-9.8
 31
0.0
  0
LINE
  5
F8
330
EE
100
AcDbEntity
  8
0
  6
CONTINUOUS
 62
     0
100
AcDbLine
 10
5.0
 20
0.0
 30
0.0
 11
9.8
 21
0.0
 31
0.0
  0
ENDBLK
  5
F0
330
EE
100
AcDbEntity
  8
0
100
AcDbBlockEnd
  0
BLOCK
  5
FB
330
FA
100
AcDbEntity
  8
0
100
AcDbBlockBegin
  2
SW_CENTERMARKSYMBOL_6
 70
     0
 10
0.0
 20
0.0
 30
0.0
  3
SW_CENTERMARKSYMBOL_6
  1

  0
LINE
  5
FD
330
FA
100
AcDbEntity
  8
0
  6
CONTINUOUS
 62
     0
100
AcDbLine
 10
0.0
 20
0.0
 30
0.0
 11
0.0
 21
5.0
 31
0.0
  0
LINE
  5
FE
330
FA
100
AcDbEntity
  8
0
  6
CONTINUOUS
 62
     0
100
AcDbLine
 10
0.0
 20
0.0
 30
0.0
 11
-5.0
 21
0.0
 31
0.0
  0
LINE
  5
FF
330
FA
100
AcDbEntity
  8
0
  6
CONTINUOUS
 62
     0
100
AcDbLine
 10
0.0
 20
0.0
 30
0.0
 11
0.0
 21
-5.0
 31
0.0
  0
LINE
  5
100
330
FA
100
AcDbEntity
  8
0
  6
CONTINUOUS
 62
     0
100
AcDbLine
 10
0.0
 20
0.0
 30
0.0
 11
5.0
 21
0.0
 31
0.0
  0
LINE
  5
101
330
FA
100
AcDbEntity
  8
0
  6
CONTINUOUS
 62
     0
100
AcDbLine
 10
0.0
 20
5.0
 30
0.0
 11
0.0
 21
9.8
 31
0.0
  0
LINE
  5
102
330
FA
100
AcDbEntity
  8
0
  6
CONTINUOUS
 62
     0
100
AcDbLine
 10
-5.0
 20
0.0
 30
0.0
 11
-9.8
 21
0.0
 31
0.0
  0
LINE
  5
103
330
FA
100
AcDbEntity
  8
0
  6
CONTINUOUS
 62
     0
100
AcDbLine
 10
0.0
 20
-5.0
 30
0.0
 11
0.0
 21
-9.8
 31
0.0
  0
LINE
  5
104
330
FA
100
AcDbEntity
  8
0
  6
CONTINUOUS
 62
     0
100
AcDbLine
 10
5.0
 20
0.0
 30
0.0
 11
9.8
 21
0.0
 31
0.0
  0
ENDBLK
  5
FC
330
FA
100
AcDbEntity
  8
0
100
AcDbBlockEnd
  0
BLOCK
  5
107
330
106
100
AcDbEntity
  8
0
100
AcDbBlockBegin
  2
SW_CENTERMARKSYMBOL_7
 70
     0
 10
0.0
 20
0.0
 30
0.0
  3
SW_CENTERMARKSYMBOL_7
  1

  0
LINE
  5
109
330
106
100
AcDbEntity
  8
0
  6
CONTINUOUS
 62
     0
100
AcDbLine
 10
0.0
 20
0.0
 30
0.0
 11
0.0
 21
5.0
 31
0.0
  0
LINE
  5
10A
330
106
100
AcDbEntity
  8
0
  6
CONTINUOUS
 62
     0
100
AcDbLine
 10
0.0
 20
0.0
 30
0.0
 11
-5.0
 21
0.0
 31
0.0
  0
LINE
  5
10B
330
106
100
AcDbEntity
  8
0
  6
CONTINUOUS
 62
     0
100
AcDbLine
 10
0.0
 20
0.0
 30
0.0
 11
0.0
 21
-5.0
 31
0.0
  0
LINE
  5
10C
330
106
100
AcDbEntity
  8
0
  6
CONTINUOUS
 62
     0
100
AcDbLine
 10
0.0
 20
0.0
 30
0.0
 11
5.0
 21
0.0
 31
0.0
  0
LINE
  5
10D
330
106
100
AcDbEntity
  8
0
  6
CONTINUOUS
 62
     0
100
AcDbLine
 10
0.0
 20
5.0
 30
0.0
 11
0.0
 21
9.8
 31
0.0
  0
LINE
  5
10E
330
106
100
AcDbEntity
  8
0
  6
CONTINUOUS
 62
     0
100
AcDbLine
 10
-5.0
 20
0.0
 30
0.0
 11
-9.8
 21
0.0
 31
0.0
  0
LINE
  5
10F
330
106
100
AcDbEntity
  8
0
  6
CONTINUOUS
 62
     0
100
AcDbLine
 10
0.0
 20
-5.0
 30
0.0
 11
0.0
 21
-9.8
 31
0.0
  0
LINE
  5
110
330
106
100
AcDbEntity
  8
0
  6
CONTINUOUS
 62
     0
100
AcDbLine
 10
5.0
 20
0.0
 30
0.0
 11
9.8
 21
0.0
 31
0.0
  0
ENDBLK
  5
108
330
106
100
AcDbEntity
  8
0
100
AcDbBlockEnd
  0
BLOCK
  5
113
330
112
100
AcDbEntity
  8
0
100
AcDbBlockBegin
  2
SW_CENTERMARKSYMBOL_8
 70
     0
 10
0.0
 20
0.0
 30
0.0
  3
SW_CENTERMARKSYMBOL_8
  1

  0
LINE
  5
115
330
112
100
AcDbEntity
  8
0
  6
CONTINUOUS
 62
     0
100
AcDbLine
 10
0.0
 20
0.0
 30
0.0
 11
0.0
 21
5.0
 31
0.0
  0
LINE
  5
116
330
112
100
AcDbEntity
  8
0
  6
CONTINUOUS
 62
     0
100
AcDbLine
 10
0.0
 20
0.0
 30
0.0
 11
-5.0
 21
0.0
 31
0.0
  0
LINE
  5
117
330
112
100
AcDbEntity
  8
0
  6
CONTINUOUS
 62
     0
100
AcDbLine
 10
0.0
 20
0.0
 30
0.0
 11
0.0
 21
-5.0
 31
0.0
  0
LINE
  5
118
330
112
100
AcDbEntity
  8
0
  6
CONTINUOUS
 62
     0
100
AcDbLine
 10
0.0
 20
0.0
 30
0.0
 11
5.0
 21
0.0
 31
0.0
  0
LINE
  5
119
330
112
100
AcDbEntity
  8
0
  6
CONTINUOUS
 62
     0
100
AcDbLine
 10
0.0
 20
5.0
 30
0.0
 11
0.0
 21
9.8
 31
0.0
  0
LINE
  5
11A
330
112
100
AcDbEntity
  8
0
  6
CONTINUOUS
 62
     0
100
AcDbLine
 10
-5.0
 20
0.0
 30
0.0
 11
-9.8
 21
0.0
 31
0.0
  0
LINE
  5
11B
330
112
100
AcDbEntity
  8
0
  6
CONTINUOUS
 62
     0
100
AcDbLine
 10
0.0
 20
-5.0
 30
0.0
 11
0.0
 21
-9.8
 31
0.0
  0
LINE
  5
11C
330
112
100
AcDbEntity
  8
0
  6
CONTINUOUS
 62
     0
100
AcDbLine
 10
5.0
 20
0.0
 30
0.0
 11
9.8
 21
0.0
 31
0.0
  0
ENDBLK
  5
114
330
112
100
AcDbEntity
  8
0
100
AcDbBlockEnd
  0
BLOCK
  5
11F
330
11E
100
AcDbEntity
  8
0
100
AcDbBlockBegin
  2
SW_CENTERMARKSYMBOL_9
 70
     0
 10
0.0
 20
0.0
 30
0.0
  3
SW_CENTERMARKSYMBOL_9
  1

  0
LINE
  5
121
330
11E
100
AcDbEntity
  8
0
  6
CONTINUOUS
 62
     0
100
AcDbLine
 10
0.0
 20
0.0
 30
0.0
 11
0.0
 21
5.0
 31
0.0
  0
LINE
  5
122
330
11E
100
AcDbEntity
  8
0
  6
CONTINUOUS
 62
     0
100
AcDbLine
 10
0.0
 20
0.0
 30
0.0
 11
-5.0
 21
0.0
 31
0.0
  0
LINE
  5
123
330
11E
100
AcDbEntity
  8
0
  6
CONTINUOUS
 62
     0
100
AcDbLine
 10
0.0
 20
0.0
 30
0.0
 11
0.0
 21
-5.0
 31
0.0
  0
LINE
  5
124
330
11E
100
AcDbEntity
  8
0
  6
CONTINUOUS
 62
     0
100
AcDbLine
 10
0.0
 20
0.0
 30
0.0
 11
5.0
 21
0.0
 31
0.0
  0
LINE
  5
125
330
11E
100
AcDbEntity
  8
0
  6
CONTINUOUS
 62
     0
100
AcDbLine
 10
0.0
 20
5.0
 30
0.0
 11
0.0
 21
9.7999999994
 31
0.0
  0
LINE
  5
126
330
11E
100
AcDbEntity
  8
0
  6
CONTINUOUS
 62
     0
100
AcDbLine
 10
-5.0
 20
0.0
 30
0.0
 11
-9.7999999994
 21
0.0
 31
0.0
  0
LINE
  5
127
330
11E
100
AcDbEntity
  8
0
  6
CONTINUOUS
 62
     0
100
AcDbLine
 10
0.0
 20
-5.0
 30
0.0
 11
0.0
 21
-9.7999999994
 31
0.0
  0
LINE
  5
128
330
11E
100
AcDbEntity
  8
0
  6
CONTINUOUS
 62
     0
100
AcDbLine
 10
5.0
 20
0.0
 30
0.0
 11
9.7999999994
 21
0.0
 31
0.0
  0
ENDBLK
  5
120
330
11E
100
AcDbEntity
  8
0
100
AcDbBlockEnd
  0
BLOCK
  5
1C1
330
1C0
100
AcDbEntity
  8
0
100
AcDbBlockBegin
  2
SW_CENTERMARKSYMBOL_10
 70
     0
 10
0.0
 20
0.0
 30
0.0
  3
SW_CENTERMARKSYMBOL_10
  1

  0
LINE
  5
1C3
330
1C0
100
AcDbEntity
  8
0
  6
CONTINUOUS
 62
     0
100
AcDbLine
 10
0.0
 20
0.0
 30
0.0
 11
0.0
 21
5.0
 31
0.0
  0
LINE
  5
1C4
330
1C0
100
AcDbEntity
  8
0
  6
CONTINUOUS
 62
     0
100
AcDbLine
 10
0.0
 20
0.0
 30
0.0
 11
-5.0
 21
0.0
 31
0.0
  0
LINE
  5
1C5
330
1C0
100
AcDbEntity
  8
0
  6
CONTINUOUS
 62
     0
100
AcDbLine
 10
0.0
 20
0.0
 30
0.0
 11
0.0
 21
-5.0
 31
0.0
  0
LINE
  5
1C6
330
1C0
100
AcDbEntity
  8
0
  6
CONTINUOUS
 62
     0
100
AcDbLine
 10
0.0
 20
0.0
 30
0.0
 11
5.0
 21
0.0
 31
0.0
  0
LINE
  5
1C7
330
1C0
100
AcDbEntity
  8
0
  6
CONTINUOUS
 62
     0
100
AcDbLine
 10
0.0
 20
5.0
 30
0.0
 11
0.0
 21
9.4
 31
0.0
  0
LINE
  5
1C8
330
1C0
100
AcDbEntity
  8
0
  6
CONTINUOUS
 62
     0
100
AcDbLine
 10
-5.0
 20
0.0
 30
0.0
 11
-9.4
 21
0.0
 31
0.0
  0
LINE
  5
1C9
330
1C0
100
AcDbEntity
  8
0
  6
CONTINUOUS
 62
     0
100
AcDbLine
 10
0.0
 20
-5.0
 30
0.0
 11
0.0
 21
-9.4
 31
0.0
  0
LINE
  5
1CA
330
1C0
100
AcDbEntity
  8
0
  6
CONTINUOUS
 62
     0
100
AcDbLine
 10
5.0
 20
0.0
 30
0.0
 11
9.4
 21
0.0
 31
0.0
  0
ENDBLK
  5
1C2
330
1C0
100
AcDbEntity
  8
0
100
AcDbBlockEnd
  0
BLOCK
  5
1CD
330
1CC
100
AcDbEntity
  8
0
100
AcDbBlockBegin
  2
SW_CENTERMARKSYMBOL_11
 70
     0
 10
0.0
 20
0.0
 30
0.0
  3
SW_CENTERMARKSYMBOL_11
  1

  0
LINE
  5
1CF
330
1CC
100
AcDbEntity
  8
0
  6
CONTINUOUS
 62
     0
100
AcDbLine
 10
0.0
 20
0.0
 30
0.0
 11
0.0
 21
5.0
 31
0.0
  0
LINE
  5
1D0
330
1CC
100
AcDbEntity
  8
0
  6
CONTINUOUS
 62
     0
100
AcDbLine
 10
0.0
 20
0.0
 30
0.0
 11
-5.0
 21
0.0
 31
0.0
  0
LINE
  5
1D1
330
1CC
100
AcDbEntity
  8
0
  6
CONTINUOUS
 62
     0
100
AcDbLine
 10
0.0
 20
0.0
 30
0.0
 11
0.0
 21
-5.0
 31
0.0
  0
LINE
  5
1D2
330
1CC
100
AcDbEntity
  8
0
  6
CONTINUOUS
 62
     0
100
AcDbLine
 10
0.0
 20
0.0
 30
0.0
 11
5.0
 21
0.0
 31
0.0
  0
LINE
  5
1D3
330
1CC
100
AcDbEntity
  8
0
  6
CONTINUOUS
 62
     0
100
AcDbLine
 10
0.0
 20
5.0
 30
0.0
 11
0.0
 21
9.4
 31
0.0
  0
LINE
  5
1D4
330
1CC
100
AcDbEntity
  8
0
  6
CONTINUOUS
 62
     0
100
AcDbLine
 10
-5.0
 20
0.0
 30
0.0
 11
-9.4
 21
0.0
 31
0.0
  0
LINE
  5
1D5
330
1CC
100
AcDbEntity
  8
0
  6
CONTINUOUS
 62
     0
100
AcDbLine
 10
0.0
 20
-5.0
 30
0.0
 11
0.0
 21
-9.4
 31
0.0
  0
LINE
  5
1D6
330
1CC
100
AcDbEntity
  8
0
  6
CONTINUOUS
 62
     0
100
AcDbLine
 10
5.0
 20
0.0
 30
0.0
 11
9.4
 21
0.0
 31
0.0
  0
ENDBLK
  5
1CE
330
1CC
100
AcDbEntity
  8
0
100
AcDbBlockEnd
  0
BLOCK
  5
1D9
330
1D8
100
AcDbEntity
  8
0
100
AcDbBlockBegin
  2
SW_CENTERMARKSYMBOL_12
 70
     0
 10
0.0
 20
0.0
 30
0.0
  3
SW_CENTERMARKSYMBOL_12
  1

  0
LINE
  5
1DB
330
1D8
100
AcDbEntity
  8
0
  6
CONTINUOUS
 62
     0
100
AcDbLine
 10
0.0
 20
0.0
 30
0.0
 11
0.0
 21
5.0
 31
0.0
  0
LINE
  5
1DC
330
1D8
100
AcDbEntity
  8
0
  6
CONTINUOUS
 62
     0
100
AcDbLine
 10
0.0
 20
0.0
 30
0.0
 11
-5.0
 21
0.0
 31
0.0
  0
LINE
  5
1DD
330
1D8
100
AcDbEntity
  8
0
  6
CONTINUOUS
 62
     0
100
AcDbLine
 10
0.0
 20
0.0
 30
0.0
 11
0.0
 21
-5.0
 31
0.0
  0
LINE
  5
1DE
330
1D8
100
AcDbEntity
  8
0
  6
CONTINUOUS
 62
     0
100
AcDbLine
 10
0.0
 20
0.0
 30
0.0
 11
5.0
 21
0.0
 31
0.0
  0
LINE
  5
1DF
330
1D8
100
AcDbEntity
  8
0
  6
CONTINUOUS
 62
     0
100
AcDbLine
 10
0.0
 20
5.0
 30
0.0
 11
0.0
 21
9.04
 31
0.0
  0
LINE
  5
1E0
330
1D8
100
AcDbEntity
  8
0
  6
CONTINUOUS
 62
     0
100
AcDbLine
 10
-5.0
 20
0.0
 30
0.0
 11
-9.04
 21
0.0
 31
0.0
  0
LINE
  5
1E1
330
1D8
100
AcDbEntity
  8
0
  6
CONTINUOUS
 62
     0
100
AcDbLine
 10
0.0
 20
-5.0
 30
0.0
 11
0.0
 21
-9.04
 31
0.0
  0
LINE
  5
1E2
330
1D8
100
AcDbEntity
  8
0
  6
CONTINUOUS
 62
     0
100
AcDbLine
 10
5.0
 20
0.0
 30
0.0
 11
9.04
 21
0.0
 31
0.0
  0
ENDBLK
  5
1DA
330
1D8
100
AcDbEntity
  8
0
100
AcDbBlockEnd
  0
BLOCK
  5
1E5
330
1E4
100
AcDbEntity
  8
0
100
AcDbBlockBegin
  2
SW_CENTERMARKSYMBOL_13
 70
     0
 10
0.0
 20
0.0
 30
0.0
  3
SW_CENTERMARKSYMBOL_13
  1

  0
LINE
  5
1E7
330
1E4
100
AcDbEntity
  8
0
  6
CONTINUOUS
 62
     0
100
AcDbLine
 10
0.0
 20
0.0
 30
0.0
 11
0.0
 21
5.0
 31
0.0
  0
LINE
  5
1E8
330
1E4
100
AcDbEntity
  8
0
  6
CONTINUOUS
 62
     0
100
AcDbLine
 10
0.0
 20
0.0
 30
0.0
 11
-5.0
 21
0.0
 31
0.0
  0
LINE
  5
1E9
330
1E4
100
AcDbEntity
  8
0
  6
CONTINUOUS
 62
     0
100
AcDbLine
 10
0.0
 20
0.0
 30
0.0
 11
0.0
 21
-5.0
 31
0.0
  0
LINE
  5
1EA
330
1E4
100
AcDbEntity
  8
0
  6
CONTINUOUS
 62
     0
100
AcDbLine
 10
0.0
 20
0.0
 30
0.0
 11
5.0
 21
0.0
 31
0.0
  0
LINE
  5
1EB
330
1E4
100
AcDbEntity
  8
0
  6
CONTINUOUS
 62
     0
100
AcDbLine
 10
0.0
 20
5.0
 30
0.0
 11
0.0
 21
9.4
 31
0.0
  0
LINE
  5
1EC
330
1E4
100
AcDbEntity
  8
0
  6
CONTINUOUS
 62
     0
100
AcDbLine
 10
-5.0
 20
0.0
 30
0.0
 11
-9.4
 21
0.0
 31
0.0
  0
LINE
  5
1ED
330
1E4
100
AcDbEntity
  8
0
  6
CONTINUOUS
 62
     0
100
AcDbLine
 10
0.0
 20
-5.0
 30
0.0
 11
0.0
 21
-9.4
 31
0.0
  0
LINE
  5
1EE
330
1E4
100
AcDbEntity
  8
0
  6
CONTINUOUS
 62
     0
100
AcDbLine
 10
5.0
 20
0.0
 30
0.0
 11
9.4
 21
0.0
 31
0.0
  0
ENDBLK
  5
1E6
330
1E4
100
AcDbEntity
  8
0
100
AcDbBlockEnd
  0
BLOCK
  5
22C
330
22B
100
AcDbEntity
  8
0
100
AcDbBlockBegin
  2
SW_CENTERMARKSYMBOL_14
 70
     0
 10
0.0
 20
0.0
 30
0.0
  3
SW_CENTERMARKSYMBOL_14
  1

  0
LINE
  5
22E
330
22B
100
AcDbEntity
  8
0
  6
CONTINUOUS
 62
     0
100
AcDbLine
 10
0.0
 20
0.0
 30
0.0
 11
0.0
 21
5.0
 31
0.0
  0
LINE
  5
22F
330
22B
100
AcDbEntity
  8
0
  6
CONTINUOUS
 62
     0
100
AcDbLine
 10
0.0
 20
0.0
 30
0.0
 11
-5.0
 21
0.0
 31
0.0
  0
LINE
  5
230
330
22B
100
AcDbEntity
  8
0
  6
CONTINUOUS
 62
     0
100
AcDbLine
 10
0.0
 20
0.0
 30
0.0
 11
0.0
 21
-5.0
 31
0.0
  0
LINE
  5
231
330
22B
100
AcDbEntity
  8
0
  6
CONTINUOUS
 62
     0
100
AcDbLine
 10
0.0
 20
0.0
 30
0.0
 11
5.0
 21
0.0
 31
0.0
  0
LINE
  5
232
330
22B
100
AcDbEntity
  8
0
  6
CONTINUOUS
 62
     0
100
AcDbLine
 10
0.0
 20
5.0
 30
0.0
 11
0.0
 21
9.8
 31
0.0
  0
LINE
  5
233
330
22B
100
AcDbEntity
  8
0
  6
CONTINUOUS
 62
     0
100
AcDbLine
 10
-5.0
 20
0.0
 30
0.0
 11
-9.8
 21
0.0
 31
0.0
  0
LINE
  5
234
330
22B
100
AcDbEntity
  8
0
  6
CONTINUOUS
 62
     0
100
AcDbLine
 10
0.0
 20
-5.0
 30
0.0
 11
0.0
 21
-9.8
 31
0.0
  0
LINE
  5
235
330
22B
100
AcDbEntity
  8
0
  6
CONTINUOUS
 62
     0
100
AcDbLine
 10
5.0
 20
0.0
 30
0.0
 11
9.8
 21
0.0
 31
0.0
  0
ENDBLK
  5
22D
330
22B
100
AcDbEntity
  8
0
100
AcDbBlockEnd
  0
BLOCK
  5
238
330
237
100
AcDbEntity
  8
0
100
AcDbBlockBegin
  2
SW_CENTERMARKSYMBOL_15
 70
     0
 10
0.0
 20
0.0
 30
0.0
  3
SW_CENTERMARKSYMBOL_15
  1

  0
LINE
  5
23A
330
237
100
AcDbEntity
  8
0
  6
CONTINUOUS
 62
     0
100
AcDbLine
 10
0.0
 20
0.0
 30
0.0
 11
0.0
 21
5.0
 31
0.0
  0
LINE
  5
23B
330
237
100
AcDbEntity
  8
0
  6
CONTINUOUS
 62
     0
100
AcDbLine
 10
0.0
 20
0.0
 30
0.0
 11
-5.0
 21
0.0
 31
0.0
  0
LINE
  5
23C
330
237
100
AcDbEntity
  8
0
  6
CONTINUOUS
 62
     0
100
AcDbLine
 10
0.0
 20
0.0
 30
0.0
 11
0.0
 21
-5.0
 31
0.0
  0
LINE
  5
23D
330
237
100
AcDbEntity
  8
0
  6
CONTINUOUS
 62
     0
100
AcDbLine
 10
0.0
 20
0.0
 30
0.0
 11
5.0
 21
0.0
 31
0.0
  0
LINE
  5
23E
330
237
100
AcDbEntity
  8
0
  6
CONTINUOUS
 62
     0
100
AcDbLine
 10
0.0
 20
5.0
 30
0.0
 11
0.0
 21
9.8
 31
0.0
  0
LINE
  5
23F
330
237
100
AcDbEntity
  8
0
  6
CONTINUOUS
 62
     0
100
AcDbLine
 10
-5.0
 20
0.0
 30
0.0
 11
-9.8
 21
0.0
 31
0.0
  0
LINE
  5
240
330
237
100
AcDbEntity
  8
0
  6
CONTINUOUS
 62
     0
100
AcDbLine
 10
0.0
 20
-5.0
 30
0.0
 11
0.0
 21
-9.8
 31
0.0
  0
LINE
  5
241
330
237
100
AcDbEntity
  8
0
  6
CONTINUOUS
 62
     0
100
AcDbLine
 10
5.0
 20
0.0
 30
0.0
 11
9.8
 21
0.0
 31
0.0
  0
ENDBLK
  5
239
330
237
100
AcDbEntity
  8
0
100
AcDbBlockEnd
  0
BLOCK
  5
244
330
243
100
AcDbEntity
  8
0
100
AcDbBlockBegin
  2
SW_CENTERMARKSYMBOL_16
 70
     0
 10
0.0
 20
0.0
 30
0.0
  3
SW_CENTERMARKSYMBOL_16
  1

  0
LINE
  5
246
330
243
100
AcDbEntity
  8
0
  6
CONTINUOUS
 62
     0
100
AcDbLine
 10
0.0
 20
0.0
 30
0.0
 11
0.0
 21
5.0
 31
0.0
  0
LINE
  5
247
330
243
100
AcDbEntity
  8
0
  6
CONTINUOUS
 62
     0
100
AcDbLine
 10
0.0
 20
0.0
 30
0.0
 11
-5.0
 21
0.0
 31
0.0
  0
LINE
  5
248
330
243
100
AcDbEntity
  8
0
  6
CONTINUOUS
 62
     0
100
AcDbLine
 10
0.0
 20
0.0
 30
0.0
 11
0.0
 21
-5.0
 31
0.0
  0
LINE
  5
249
330
243
100
AcDbEntity
  8
0
  6
CONTINUOUS
 62
     0
100
AcDbLine
 10
0.0
 20
0.0
 30
0.0
 11
5.0
 21
0.0
 31
0.0
  0
LINE
  5
24A
330
243
100
AcDbEntity
  8
0
  6
CONTINUOUS
 62
     0
100
AcDbLine
 10
0.0
 20
5.0
 30
0.0
 11
0.0
 21
9.8
 31
0.0
  0
LINE
  5
24B
330
243
100
AcDbEntity
  8
0
  6
CONTINUOUS
 62
     0
100
AcDbLine
 10
-5.0
 20
0.0
 30
0.0
 11
-9.8
 21
0.0
 31
0.0
  0
LINE
  5
24C
330
243
100
AcDbEntity
  8
0
  6
CONTINUOUS
 62
     0
100
AcDbLine
 10
0.0
 20
-5.0
 30
0.0
 11
0.0
 21
-9.8
 31
0.0
  0
LINE
  5
24D
330
243
100
AcDbEntity
  8
0
  6
CONTINUOUS
 62
     0
100
AcDbLine
 10
5.0
 20
0.0
 30
0.0
 11
9.8
 21
0.0
 31
0.0
  0
ENDBLK
  5
245
330
243
100
AcDbEntity
  8
0
100
AcDbBlockEnd
  0
BLOCK
  5
26E
330
26D
100
AcDbEntity
  8
0
100
AcDbBlockBegin
  2
SW_CENTERMARKSYMBOL_17
 70
     0
 10
0.0
 20
0.0
 30
0.0
  3
SW_CENTERMARKSYMBOL_17
  1

  0
LINE
  5
270
330
26D
100
AcDbEntity
  8
0
  6
CONTINUOUS
 62
     0
100
AcDbLine
 10
0.0
 20
0.0
 30
0.0
 11
0.0
 21
5.0
 31
0.0
  0
LINE
  5
271
330
26D
100
AcDbEntity
  8
0
  6
CONTINUOUS
 62
     0
100
AcDbLine
 10
0.0
 20
0.0
 30
0.0
 11
-5.0
 21
0.0
 31
0.0
  0
LINE
  5
272
330
26D
100
AcDbEntity
  8
0
  6
CONTINUOUS
 62
     0
100
AcDbLine
 10
0.0
 20
0.0
 30
0.0
 11
0.0
 21
-5.0
 31
0.0
  0
LINE
  5
273
330
26D
100
AcDbEntity
  8
0
  6
CONTINUOUS
 62
     0
100
AcDbLine
 10
0.0
 20
0.0
 30
0.0
 11
5.0
 21
0.0
 31
0.0
  0
LINE
  5
274
330
26D
100
AcDbEntity
  8
0
  6
CONTINUOUS
 62
     0
100
AcDbLine
 10
0.0
 20
5.0
 30
0.0
 11
0.0
 21
6.25
 31
0.0
  0
LINE
  5
275
330
26D
100
AcDbEntity
  8
0
  6
CONTINUOUS
 62
     0
100
AcDbLine
 10
-5.0
 20
0.0
 30
0.0
 11
-6.25
 21
0.0
 31
0.0
  0
LINE
  5
276
330
26D
100
AcDbEntity
  8
0
  6
CONTINUOUS
 62
     0
100
AcDbLine
 10
0.0
 20
-5.0
 30
0.0
 11
0.0
 21
-6.25
 31
0.0
  0
LINE
  5
277
330
26D
100
AcDbEntity
  8
0
  6
CONTINUOUS
 62
     0
100
AcDbLine
 10
5.0
 20
0.0
 30
0.0
 11
6.25
 21
0.0
 31
0.0
  0
ENDBLK
  5
26F
330
26D
100
AcDbEntity
  8
0
100
AcDbBlockEnd
  0
BLOCK
  5
27A
330
279
100
AcDbEntity
  8
0
100
AcDbBlockBegin
  2
SW_CENTERMARKSYMBOL_18
 70
     0
 10
0.0
 20
0.0
 30
0.0
  3
SW_CENTERMARKSYMBOL_18
  1

  0
LINE
  5
27C
330
279
100
AcDbEntity
  8
0
  6
CONTINUOUS
 62
     0
100
AcDbLine
 10
0.0
 20
0.0
 30
0.0
 11
0.0
 21
5.0
 31
0.0
  0
LINE
  5
27D
330
279
100
AcDbEntity
  8
0
  6
CONTINUOUS
 62
     0
100
AcDbLine
 10
0.0
 20
0.0
 30
0.0
 11
-5.0
 21
0.0
 31
0.0
  0
LINE
  5
27E
330
279
100
AcDbEntity
  8
0
  6
CONTINUOUS
 62
     0
100
AcDbLine
 10
0.0
 20
0.0
 30
0.0
 11
0.0
 21
-5.0
 31
0.0
  0
LINE
  5
27F
330
279
100
AcDbEntity
  8
0
  6
CONTINUOUS
 62
     0
100
AcDbLine
 10
0.0
 20
0.0
 30
0.0
 11
5.0
 21
0.0
 31
0.0
  0
LINE
  5
280
330
279
100
AcDbEntity
  8
0
  6
CONTINUOUS
 62
     0
100
AcDbLine
 10
0.0
 20
5.0
 30
0.0
 11
0.0
 21
6.25
 31
0.0
  0
LINE
  5
281
330
279
100
AcDbEntity
  8
0
  6
CONTINUOUS
 62
     0
100
AcDbLine
 10
-5.0
 20
0.0
 30
0.0
 11
-6.25
 21
0.0
 31
0.0
  0
LINE
  5
282
330
279
100
AcDbEntity
  8
0
  6
CONTINUOUS
 62
     0
100
AcDbLine
 10
0.0
 20
-5.0
 30
0.0
 11
0.0
 21
-6.25
 31
0.0
  0
LINE
  5
283
330
279
100
AcDbEntity
  8
0
  6
CONTINUOUS
 62
     0
100
AcDbLine
 10
5.0
 20
0.0
 30
0.0
 11
6.25
 21
0.0
 31
0.0
  0
ENDBLK
  5
27B
330
279
100
AcDbEntity
  8
0
100
AcDbBlockEnd
  0
BLOCK
  5
286
330
285
100
AcDbEntity
  8
0
100
AcDbBlockBegin
  2
SW_CENTERMARKSYMBOL_19
 70
     0
 10
0.0
 20
0.0
 30
0.0
  3
SW_CENTERMARKSYMBOL_19
  1

  0
LINE
  5
288
330
285
100
AcDbEntity
  8
0
  6
CONTINUOUS
 62
     0
100
AcDbLine
 10
0.0
 20
0.0
 30
0.0
 11
0.0
 21
5.0
 31
0.0
  0
LINE
  5
289
330
285
100
AcDbEntity
  8
0
  6
CONTINUOUS
 62
     0
100
AcDbLine
 10
0.0
 20
0.0
 30
0.0
 11
-5.0
 21
0.0
 31
0.0
  0
LINE
  5
28A
330
285
100
AcDbEntity
  8
0
  6
CONTINUOUS
 62
     0
100
AcDbLine
 10
0.0
 20
0.0
 30
0.0
 11
0.0
 21
-5.0
 31
0.0
  0
LINE
  5
28B
330
285
100
AcDbEntity
  8
0
  6
CONTINUOUS
 62
     0
100
AcDbLine
 10
0.0
 20
0.0
 30
0.0
 11
5.0
 21
0.0
 31
0.0
  0
LINE
  5
28C
330
285
100
AcDbEntity
  8
0
  6
CONTINUOUS
 62
     0
100
AcDbLine
 10
0.0
 20
5.0
 30
0.0
 11
0.0
 21
6.25
 31
0.0
  0
LINE
  5
28D
330
285
100
AcDbEntity
  8
0
  6
CONTINUOUS
 62
     0
100
AcDbLine
 10
-5.0
 20
0.0
 30
0.0
 11
-6.25
 21
0.0
 31
0.0
  0
LINE
  5
28E
330
285
100
AcDbEntity
  8
0
  6
CONTINUOUS
 62
     0
100
AcDbLine
 10
0.0
 20
-5.0
 30
0.0
 11
0.0
 21
-6.25
 31
0.0
  0
LINE
  5
28F
330
285
100
AcDbEntity
  8
0
  6
CONTINUOUS
 62
     0
100
AcDbLine
 10
5.0
 20
0.0
 30
0.0
 11
6.25
 21
0.0
 31
0.0
  0
ENDBLK
  5
287
330
285
100
AcDbEntity
  8
0
100
AcDbBlockEnd
  0
BLOCK
  5
292
330
291
100
AcDbEntity
  8
0
100
AcDbBlockBegin
  2
SW_CENTERMARKSYMBOL_20
 70
     0
 10
0.0
 20
0.0
 30
0.0
  3
SW_CENTERMARKSYMBOL_20
  1

  0
LINE
  5
294
330
291
100
AcDbEntity
  8
0
  6
CONTINUOUS
 62
     0
100
AcDbLine
 10
0.0
 20
0.0
 30
0.0
 11
0.0
 21
5.0
 31
0.0
  0
LINE
  5
295
330
291
100
AcDbEntity
  8
0
  6
CONTINUOUS
 62
     0
100
AcDbLine
 10
0.0
 20
0.0
 30
0.0
 11
-5.0
 21
0.0
 31
0.0
  0
LINE
  5
296
330
291
100
AcDbEntity
  8
0
  6
CONTINUOUS
 62
     0
100
AcDbLine
 10
0.0
 20
0.0
 30
0.0
 11
0.0
 21
-5.0
 31
0.0
  0
LINE
  5
297
330
291
100
AcDbEntity
  8
0
  6
CONTINUOUS
 62
     0
100
AcDbLine
 10
0.0
 20
0.0
 30
0.0
 11
5.0
 21
0.0
 31
0.0
  0
LINE
  5
298
330
291
100
AcDbEntity
  8
0
  6
CONTINUOUS
 62
     0
100
AcDbLine
 10
0.0
 20
5.0
 30
0.0
 11
0.0
 21
6.25
 31
0.0
  0
LINE
  5
299
330
291
100
AcDbEntity
  8
0
  6
CONTINUOUS
 62
     0
100
AcDbLine
 10
-5.0
 20
0.0
 30
0.0
 11
-6.25
 21
0.0
 31
0.0
  0
LINE
  5
29A
330
291
100
AcDbEntity
  8
0
  6
CONTINUOUS
 62
     0
100
AcDbLine
 10
0.0
 20
-5.0
 30
0.0
 11
0.0
 21
-6.25
 31
0.0
  0
LINE
  5
29B
330
291
100
AcDbEntity
  8
0
  6
CONTINUOUS
 62
     0
100
AcDbLine
 10
5.0
 20
0.0
 30
0.0
 11
6.25
 21
0.0
 31
0.0
  0
ENDBLK
  5
293
330
291
100
AcDbEntity
  8
0
100
AcDbBlockEnd
  0
BLOCK
  5
2AB
330
2AA
100
AcDbEntity
  8
0
100
AcDbBlockBegin
  2
SW_CENTERMARKSYMBOL_21
 70
     0
 10
0.0
 20
0.0
 30
0.0
  3
SW_CENTERMARKSYMBOL_21
  1

  0
LINE
  5
2AD
330
2AA
100
AcDbEntity
  8
0
  6
CONTINUOUS
 62
     0
100
AcDbLine
 10
0.0
 20
0.0
 30
0.0
 11
0.0
 21
5.0
 31
0.0
  0
LINE
  5
2AE
330
2AA
100
AcDbEntity
  8
0
  6
CONTINUOUS
 62
     0
100
AcDbLine
 10
0.0
 20
0.0
 30
0.0
 11
-5.0
 21
0.0
 31
0.0
  0
LINE
  5
2AF
330
2AA
100
AcDbEntity
  8
0
  6
CONTINUOUS
 62
     0
100
AcDbLine
 10
0.0
 20
0.0
 30
0.0
 11
0.0
 21
-5.0
 31
0.0
  0
LINE
  5
2B0
330
2AA
100
AcDbEntity
  8
0
  6
CONTINUOUS
 62
     0
100
AcDbLine
 10
0.0
 20
0.0
 30
0.0
 11
5.0
 21
0.0
 31
0.0
  0
LINE
  5
2B1
330
2AA
100
AcDbEntity
  8
0
  6
CONTINUOUS
 62
     0
100
AcDbLine
 10
0.0
 20
5.0
 30
0.0
 11
0.0
 21
9.8
 31
0.0
  0
LINE
  5
2B2
330
2AA
100
AcDbEntity
  8
0
  6
CONTINUOUS
 62
     0
100
AcDbLine
 10
-5.0
 20
0.0
 30
0.0
 11
-9.8
 21
0.0
 31
0.0
  0
LINE
  5
2B3
330
2AA
100
AcDbEntity
  8
0
  6
CONTINUOUS
 62
     0
100
AcDbLine
 10
0.0
 20
-5.0
 30
0.0
 11
0.0
 21
-9.8
 31
0.0
  0
LINE
  5
2B4
330
2AA
100
AcDbEntity
  8
0
  6
CONTINUOUS
 62
     0
100
AcDbLine
 10
5.0
 20
0.0
 30
0.0
 11
9.8
 21
0.0
 31
0.0
  0
ENDBLK
  5
2AC
330
2AA
100
AcDbEntity
  8
0
100
AcDbBlockEnd
  0
BLOCK
  5
2B8
330
2B7
100
AcDbEntity
  8
0
100
AcDbBlockBegin
  2
SW_CENTERMARKSYMBOL_22
 70
     0
 10
0.0
 20
0.0
 30
0.0
  3
SW_CENTERMARKSYMBOL_22
  1

  0
LINE
  5
2BA
330
2B7
100
AcDbEntity
  8
0
  6
CONTINUOUS
 62
     0
100
AcDbLine
 10
0.0
 20
0.0
 30
0.0
 11
0.0
 21
5.0
 31
0.0
  0
LINE
  5
2BB
330
2B7
100
AcDbEntity
  8
0
  6
CONTINUOUS
 62
     0
100
AcDbLine
 10
0.0
 20
0.0
 30
0.0
 11
-5.0
 21
0.0
 31
0.0
  0
LINE
  5
2BC
330
2B7
100
AcDbEntity
  8
0
  6
CONTINUOUS
 62
     0
100
AcDbLine
 10
0.0
 20
0.0
 30
0.0
 11
0.0
 21
-5.0
 31
0.0
  0
LINE
  5
2BD
330
2B7
100
AcDbEntity
  8
0
  6
CONTINUOUS
 62
     0
100
AcDbLine
 10
0.0
 20
0.0
 30
0.0
 11
5.0
 21
0.0
 31
0.0
  0
LINE
  5
2BE
330
2B7
100
AcDbEntity
  8
0
  6
CONTINUOUS
 62
     0
100
AcDbLine
 10
0.0
 20
5.0
 30
0.0
 11
0.0
 21
9.8
 31
0.0
  0
LINE
  5
2BF
330
2B7
100
AcDbEntity
  8
0
  6
CONTINUOUS
 62
     0
100
AcDbLine
 10
-5.0
 20
0.0
 30
0.0
 11
-9.8
 21
0.0
 31
0.0
  0
LINE
  5
2C0
330
2B7
100
AcDbEntity
  8
0
  6
CONTINUOUS
 62
     0
100
AcDbLine
 10
0.0
 20
-5.0
 30
0.0
 11
0.0
 21
-9.8
 31
0.0
  0
LINE
  5
2C1
330
2B7
100
AcDbEntity
  8
0
  6
CONTINUOUS
 62
     0
100
AcDbLine
 10
5.0
 20
0.0
 30
0.0
 11
9.8
 21
0.0
 31
0.0
  0
ENDBLK
  5
2B9
330
2B7
100
AcDbEntity
  8
0
100
AcDbBlockEnd
  0
BLOCK
  5
2C5
330
2C4
100
AcDbEntity
  8
0
100
AcDbBlockBegin
  2
SW_CENTERMARKSYMBOL_23
 70
     0
 10
0.0
 20
0.0
 30
0.0
  3
SW_CENTERMARKSYMBOL_23
  1

  0
LINE
  5
2C7
330
2C4
100
AcDbEntity
  8
0
  6
CONTINUOUS
 62
     0
100
AcDbLine
 10
0.0
 20
0.0
 30
0.0
 11
0.0
 21
5.0
 31
0.0
  0
LINE
  5
2C8
330
2C4
100
AcDbEntity
  8
0
  6
CONTINUOUS
 62
     0
100
AcDbLine
 10
0.0
 20
0.0
 30
0.0
 11
-5.0
 21
0.0
 31
0.0
  0
LINE
  5
2C9
330
2C4
100
AcDbEntity
  8
0
  6
CONTINUOUS
 62
     0
100
AcDbLine
 10
0.0
 20
0.0
 30
0.0
 11
0.0
 21
-5.0
 31
0.0
  0
LINE
  5
2CA
330
2C4
100
AcDbEntity
  8
0
  6
CONTINUOUS
 62
     0
100
AcDbLine
 10
0.0
 20
0.0
 30
0.0
 11
5.0
 21
0.0
 31
0.0
  0
LINE
  5
2CB
330
2C4
100
AcDbEntity
  8
0
  6
CONTINUOUS
 62
     0
100
AcDbLine
 10
0.0
 20
5.0
 30
0.0
 11
0.0
 21
9.8
 31
0.0
  0
LINE
  5
2CC
330
2C4
100
AcDbEntity
  8
0
  6
CONTINUOUS
 62
     0
100
AcDbLine
 10
-5.0
 20
0.0
 30
0.0
 11
-9.8
 21
0.0
 31
0.0
  0
LINE
  5
2CD
330
2C4
100
AcDbEntity
  8
0
  6
CONTINUOUS
 62
     0
100
AcDbLine
 10
0.0
 20
-5.0
 30
0.0
 11
0.0
 21
-9.8
 31
0.0
  0
LINE
  5
2CE
330
2C4
100
AcDbEntity
  8
0
  6
CONTINUOUS
 62
     0
100
AcDbLine
 10
5.0
 20
0.0
 30
0.0
 11
9.8
 21
0.0
 31
0.0
  0
ENDBLK
  5
2C6
330
2C4
100
AcDbEntity
  8
0
100
AcDbBlockEnd
  0
ENDSEC
  0
SECTION
  2
ENTITIES
  0
ARC
  5
64
330
1F
100
AcDbEntity
  8
0
  6
CONTINUOUS
 62
     7
100
AcDbCircle
 10
55.9560870037
 20
481.8225097827
 30
0.0
 40
4.0
100
AcDbArc
 50
90.0
 51
180.0
  0
ARC
  5
65
330
1F
100
AcDbEntity
  8
0
  6
CONTINUOUS
 62
     7
100
AcDbCircle
 10
83.9560870037
 20
493.8225097827
 30
0.0
 40
8.000000000000057
100
AcDbArc
 50
270.0
 51
0.0
  0
ARC
  5
66
330
1F
100
AcDbEntity
  8
0
  6
CONTINUOUS
 62
     7
100
AcDbCircle
 10
83.9560870037
 20
545.8225097827
 30
0.0
 40
8.0
100
AcDbArc
 50
0.0
 51
90.0
  0
ARC
  5
67
330
1F
100
AcDbEntity
  8
0
  6
CONTINUOUS
 62
     7
100
AcDbCircle
 10
55.9560870037
 20
557.8225097827
 30
0.0
 40
4.000000000000007
100
AcDbArc
 50
180.0
 51
270.0
  0
ARC
  5
68
330
1F
100
AcDbEntity
  8
0
  6
CONTINUOUS
 62
     7
100
AcDbCircle
 10
55.9560870037
 20
705.5025531039
 30
0.0
 40
4.0
100
AcDbArc
 50
90.0
 51
180.0
  0
ARC
  5
69
330
1F
100
AcDbEntity
  8
0
  6
CONTINUOUS
 62
     7
100
AcDbCircle
 10
102.8216906603
 20
721.5025531039
 30
0.0
 40
12.0
100
AcDbArc
 50
270.0
 51
30.6612580024
  0
ARC
  5
6A
330
1F
100
AcDbEntity
  8
0
  6
CONTINUOUS
 62
     7
100
AcDbCircle
 10
161.0904833472
 20
721.5025531039
 30
0.0
 40
12.00000000000006
100
AcDbArc
 50
149.3387419977
 51
270.0
  0
ARC
  5
6B
330
1F
100
AcDbEntity
  8
0
  6
CONTINUOUS
 62
     7
100
AcDbCircle
 10
207.9560870037
 20
705.502553104
 30
0.0
 40
4.0
100
AcDbArc
 50
0.0
 51
90.0
  0
ARC
  5
6C
330
1F
100
AcDbEntity
  8
0
  6
CONTINUOUS
 62
     7
100
AcDbCircle
 10
207.9560870037
 20
557.8225097827
 30
0.0
 40
4.0
100
AcDbArc
 50
270.0
 51
0.0
  0
ARC
  5
6D
330
1F
100
AcDbEntity
  8
0
  6
CONTINUOUS
 62
     7
100
AcDbCircle
 10
179.9560870037
 20
545.8225097827
 30
0.0
 40
8.0
100
AcDbArc
 50
90.0
 51
180.0
  0
ARC
  5
6E
330
1F
100
AcDbEntity
  8
0
  6
CONTINUOUS
 62
     7
100
AcDbCircle
 10
179.9560870037
 20
493.8225097827
 30
0.0
 40
8.000000000000057
100
AcDbArc
 50
180.0
 51
270.0
  0
ARC
  5
6F
330
1F
100
AcDbEntity
  8
0
  6
CONTINUOUS
 62
     7
100
AcDbCircle
 10
207.9560870037
 20
481.8225097827
 30
0.0
 40
4.0
100
AcDbArc
 50
0.0
 51
90.0
  0
ARC
  5
70
330
1F
100
AcDbEntity
  8
0
  6
CONTINUOUS
 62
     7
100
AcDbCircle
 10
207.9560870037
 20
467.8225097827
 30
0.0
 40
4.0
100
AcDbArc
 50
270.0
 51
0.0
  0
ARC
  5
71
330
1F
100
AcDbEntity
  8
0
  6
CONTINUOUS
 62
     7
100
AcDbCircle
 10
55.9560870037
 20
467.8225097827
 30
0.0
 40
4.0
100
AcDbArc
 50
180.0
 51
270.0
  0
LINE
  5
72
330
1F
100
AcDbEntity
  8
0
  6
CONTINUOUS
 62
     7
100
AcDbLine
 10
85.9560870037
 20
468.8225097827
 30
0.0
 11
91.9560870037
 21
468.8225097827
 31
0.0
  0
LINE
  5
73
330
1F
100
AcDbEntity
  8
0
  6
CONTINUOUS
 62
     7
100
AcDbLine
 10
91.9560870037
 20
468.8225097827
 30
0.0
 11
91.9560870037
 21
480.8225097827
 31
0.0
  0
LINE
  5
74
330
1F
100
AcDbEntity
  8
0
  6
CONTINUOUS
 62
     7
100
AcDbLine
 10
91.9560870037
 20
480.8225097827
 30
0.0
 11
85.9560870037
 21
480.8225097827
 31
0.0
  0
LINE
  5
75
330
1F
100
AcDbEntity
  8
0
  6
CONTINUOUS
 62
     7
100
AcDbLine
 10
85.9560870037
 20
480.8225097827
 30
0.0
 11
85.9560870037
 21
468.8225097827
 31
0.0
  0
LINE
  5
76
330
1F
100
AcDbEntity
  8
0
  6
CONTINUOUS
 62
     7
100
AcDbLine
 10
125.9560870037
 20
638.8225097827
 30
0.0
 11
137.9560870037
 21
638.8225097827
 31
0.0
  0
LINE
  5
77
330
1F
100
AcDbEntity
  8
0
  6
CONTINUOUS
 62
     7
100
AcDbLine
 10
137.9560870037
 20
638.8225097827
 30
0.0
 11
137.9560870037
 21
644.8225097827
 31
0.0
  0
LINE
  5
78
330
1F
100
AcDbEntity
  8
0
  6
CONTINUOUS
 62
     7
100
AcDbLine
 10
137.9560870037
 20
644.8225097827
 30
0.0
 11
125.9560870037
 21
644.8225097827
 31
0.0
  0
LINE
  5
79
330
1F
100
AcDbEntity
  8
0
  6
CONTINUOUS
 62
     7
100
AcDbLine
 10
125.9560870037
 20
644.8225097827
 30
0.0
 11
125.9560870037
 21
638.8225097827
 31
0.0
  0
LINE
  5
7A
330
1F
100
AcDbEntity
  8
0
  6
CONTINUOUS
 62
     7
100
AcDbLine
 10
150.1560870037
 20
666.8225097827
 30
0.0
 11
150.1560870037
 21
678.8225097827
 31
0.0
  0
LINE
  5
7B
330
1F
100
AcDbEntity
  8
0
  6
CONTINUOUS
 62
     7
100
AcDbLine
 10
150.1560870037
 20
678.8225097827
 30
0.0
 11
144.1560870037
 21
678.8225097827
 31
0.0
  0
LINE
  5
7C
330
1F
100
AcDbEntity
  8
0
  6
CONTINUOUS
 62
     7
100
AcDbLine
 10
144.1560870037
 20
678.8225097827
 30
0.0
 11
144.1560870037
 21
666.8225097827
 31
0.0
  0
LINE
  5
7D
330
1F
100
AcDbEntity
  8
0
  6
CONTINUOUS
 62
     7
100
AcDbLine
 10
144.1560870037
 20
666.8225097827
 30
0.0
 11
150.1560870037
 21
666.8225097827
 31
0.0
  0
LINE
  5
7E
330
1F
100
AcDbEntity
  8
0
  6
CONTINUOUS
 62
     7
100
AcDbLine
 10
113.7560870037
 20
666.8225097827
 30
0.0
 11
119.7560870037
 21
666.8225097827
 31
0.0
  0
LINE
  5
7F
330
1F
100
AcDbEntity
  8
0
  6
CONTINUOUS
 62
     7
100
AcDbLine
 10
119.7560870037
 20
666.8225097827
 30
0.0
 11
119.7560870037
 21
678.8225097827
 31
0.0
  0
LINE
  5
80
330
1F
100
AcDbEntity
  8
0
  6
CONTINUOUS
 62
     7
100
AcDbLine
 10
119.7560870037
 20
678.8225097827
 30
0.0
 11
113.7560870037
 21
678.8225097827
 31
0.0
  0
LINE
  5
81
330
1F
100
AcDbEntity
  8
0
  6
CONTINUOUS
 62
     7
100
AcDbLine
 10
113.7560870037
 20
678.8225097827
 30
0.0
 11
113.7560870037
 21
666.8225097827
 31
0.0
  0
LINE
  5
82
330
1F
100
AcDbEntity
  8
0
  6
CONTINUOUS
 62
     7
100
AcDbLine
 10
85.9560870037
 20
558.8225097827
 30
0.0
 11
91.9560870037
 21
558.8225097827
 31
0.0
  0
LINE
  5
83
330
1F
100
AcDbEntity
  8
0
  6
CONTINUOUS
 62
     7
100
AcDbLine
 10
91.9560870037
 20
558.8225097827
 30
0.0
 11
91.9560870037
 21
570.8225097827
 31
0.0
  0
LINE
  5
84
330
1F
100
AcDbEntity
  8
0
  6
CONTINUOUS
 62
     7
100
AcDbLine
 10
91.9560870037
 20
570.8225097827
 30
0.0
 11
85.9560870037
 21
570.8225097827
 31
0.0
  0
LINE
  5
85
330
1F
100
AcDbEntity
  8
0
  6
CONTINUOUS
 62
     7
100
AcDbLine
 10
85.9560870037
 20
570.8225097827
 30
0.0
 11
85.9560870037
 21
558.8225097827
 31
0.0
  0
LINE
  5
86
330
1F
100
AcDbEntity
  8
0
  6
CONTINUOUS
 62
     7
100
AcDbLine
 10
177.9560870037
 20
570.8225097827
 30
0.0
 11
171.9560870037
 21
570.8225097827
 31
0.0
  0
LINE
  5
87
330
1F
100
AcDbEntity
  8
0
  6
CONTINUOUS
 62
     7
100
AcDbLine
 10
171.9560870037
 20
570.8225097827
 30
0.0
 11
171.9560870037
 21
558.8225097827
 31
0.0
  0
LINE
  5
88
330
1F
100
AcDbEntity
  8
0
  6
CONTINUOUS
 62
     7
100
AcDbLine
 10
171.9560870037
 20
558.8225097827
 30
0.0
 11
177.9560870037
 21
558.8225097827
 31
0.0
  0
LINE
  5
89
330
1F
100
AcDbEntity
  8
0
  6
CONTINUOUS
 62
     7
100
AcDbLine
 10
177.9560870037
 20
558.8225097827
 30
0.0
 11
177.9560870037
 21
570.8225097827
 31
0.0
  0
LINE
  5
8A
330
1F
100
AcDbEntity
  8
0
  6
CONTINUOUS
 62
     7
100
AcDbLine
 10
171.9560870037
 20
480.8225097827
 30
0.0
 11
171.9560870037
 21
468.8225097827
 31
0.0
  0
LINE
  5
8B
330
1F
100
AcDbEntity
  8
0
  6
CONTINUOUS
 62
     7
100
AcDbLine
 10
171.9560870037
 20
468.8225097827
 30
0.0
 11
177.9560870037
 21
468.8225097827
 31
0.0
  0
LINE
  5
8C
330
1F
100
AcDbEntity
  8
0
  6
CONTINUOUS
 62
     7
100
AcDbLine
 10
177.9560870037
 20
468.8225097827
 30
0.0
 11
177.9560870037
 21
480.8225097827
 31
0.0
  0
LINE
  5
8D
330
1F
100
AcDbEntity
  8
0
  6
CONTINUOUS
 62
     7
100
AcDbLine
 10
177.9560870037
 20
480.8225097827
 30
0.0
 11
171.9560870037
 21
480.8225097827
 31
0.0
  0
CIRCLE
  5
8E
330
1F
100
AcDbEntity
  8
0
  6
CONTINUOUS
 62
     7
100
AcDbCircle
 10
96.9560870037
 20
770.7525097827
 30
0.0
 40
4.799999999409692
  0
LINE
  5
8F
330
1F
100
AcDbEntity
  8
0
  6
CONTINUOUS
 62
     7
100
AcDbLine
 10
207.9560870037
 20
709.502553104
 30
0.0
 11
161.0904833472
 21
709.5025531039
 31
0.0
  0
ARC
  5
90
330
1F
100
AcDbEntity
  8
0
  6
CONTINUOUS
 62
     7
100
AcDbCircle
 10
113.9560870037
 20
485.8225097827
 30
0.0
 40
6.000000000000057
100
AcDbArc
 50
180.0
 51
270.0
  0
CIRCLE
  5
91
330
1F
100
AcDbEntity
  8
0
  6
CONTINUOUS
 62
     7
100
AcDbCircle
 10
163.9560870037
 20
511.8225097827
 30
0.0
 40
4.799999999400825
  0
CIRCLE
  5
92
330
1F
100
AcDbEntity
  8
0
  6
CONTINUOUS
 62
     7
100
AcDbCircle
 10
163.9560870037
 20
535.8225097827
 30
0.0
 40
4.800000000016212
  0
CIRCLE
  5
93
330
1F
100
AcDbEntity
  8
0
  6
CONTINUOUS
 62
     7
100
AcDbCircle
 10
163.9560870037
 20
471.8225097827
 30
0.0
 40
4.800000000000011
  0
CIRCLE
  5
94
330
1F
100
AcDbEntity
  8
0
  6
CONTINUOUS
 62
     7
100
AcDbCircle
 10
99.9560870037
 20
471.8225097827
 30
0.0
 40
4.800000000000011
  0
CIRCLE
  5
95
330
1F
100
AcDbEntity
  8
0
  6
CONTINUOUS
 62
     7
100
AcDbCircle
 10
99.9560870037
 20
567.8225097827
 30
0.0
 40
4.799999999999841
  0
CIRCLE
  5
96
330
1F
100
AcDbEntity
  8
0
  6
CONTINUOUS
 62
     7
100
AcDbCircle
 10
163.9560870037
 20
567.8225097827
 30
0.0
 40
4.800000000000068
  0
CIRCLE
  5
97
330
1F
100
AcDbEntity
  8
0
  6
CONTINUOUS
 62
     7
100
AcDbCircle
 10
99.9560870037
 20
503.8225097827
 30
0.0
 40
4.80000000002849
  0
CIRCLE
  5
98
330
1F
100
AcDbEntity
  8
0
  6
CONTINUOUS
 62
     7
100
AcDbCircle
 10
99.9560870037
 20
535.8225097827
 30
0.0
 40
4.80000000002849
  0
CIRCLE
  5
99
330
1F
100
AcDbEntity
  8
0
  6
CONTINUOUS
 62
     7
100
AcDbCircle
 10
166.9560870037
 20
770.7525097827
 30
0.0
 40
4.799999999409692
  0
LINE
  5
9A
330
1F
100
AcDbEntity
  8
0
  6
CONTINUOUS
 62
     7
100
AcDbLine
 10
211.9560870037
 20
557.8225097827
 30
0.0
 11
211.9560870037
 21
705.502553104
 31
0.0
  0
LINE
  5
9B
330
1F
100
AcDbEntity
  8
0
  6
CONTINUOUS
 62
     7
100
AcDbLine
 10
207.9560870037
 20
553.8225097827
 30
0.0
 11
179.9560870037
 21
553.8225097827
 31
0.0
  0
LINE
  5
9C
330
1F
100
AcDbEntity
  8
0
  6
CONTINUOUS
 62
     7
100
AcDbLine
 10
171.9560870037
 20
545.8225097827
 30
0.0
 11
171.9560870037
 21
493.8225097827
 31
0.0
  0
LINE
  5
9D
330
1F
100
AcDbEntity
  8
0
  6
CONTINUOUS
 62
     7
100
AcDbLine
 10
207.9560870037
 20
485.8225097827
 30
0.0
 11
179.9560870037
 21
485.8225097827
 31
0.0
  0
LINE
  5
9E
330
1F
100
AcDbEntity
  8
0
  6
CONTINUOUS
 62
     7
100
AcDbLine
 10
211.9560870037
 20
467.8225097827
 30
0.0
 11
211.9560870037
 21
481.8225097827
 31
0.0
  0
LINE
  5
9F
330
1F
100
AcDbEntity
  8
0
  6
CONTINUOUS
 62
     7
100
AcDbLine
 10
55.9560870037
 20
463.8225097827
 30
0.0
 11
207.9560870037
 21
463.8225097827
 31
0.0
  0
LINE
  5
A0
330
1F
100
AcDbEntity
  8
0
  6
CONTINUOUS
 62
     7
100
AcDbLine
 10
51.9560870037
 20
467.8225097827
 30
0.0
 11
51.9560870037
 21
481.8225097827
 31
0.0
  0
LINE
  5
A1
330
1F
100
AcDbEntity
  8
0
  6
CONTINUOUS
 62
     7
100
AcDbLine
 10
55.9560870037
 20
485.8225097827
 30
0.0
 11
83.9560870037
 21
485.8225097827
 31
0.0
  0
LINE
  5
A2
330
1F
100
AcDbEntity
  8
0
  6
CONTINUOUS
 62
     7
100
AcDbLine
 10
91.9560870037
 20
545.8225097827
 30
0.0
 11
91.9560870037
 21
493.8225097827
 31
0.0
  0
LINE
  5
A3
330
1F
100
AcDbEntity
  8
0
  6
CONTINUOUS
 62
     7
100
AcDbLine
 10
55.9560870037
 20
553.8225097827
 30
0.0
 11
83.9560870037
 21
553.8225097827
 31
0.0
  0
LINE
  5
A4
330
1F
100
AcDbEntity
  8
0
  6
CONTINUOUS
 62
     7
100
AcDbLine
 10
51.9560870037
 20
557.8225097827
 30
0.0
 11
51.9560870037
 21
705.5025531039
 31
0.0
  0
LINE
  5
A5
330
1F
100
AcDbEntity
  8
0
  6
CONTINUOUS
 62
     7
100
AcDbLine
 10
102.8216906603
 20
709.5025531039
 30
0.0
 11
55.9560870037
 21
709.5025531039
 31
0.0
  0
LINE
  5
A6
330
1F
100
AcDbEntity
  8
0
  6
CONTINUOUS
 62
     7
100
AcDbLine
 10
113.1440581591
 20
727.6220897872
 30
0.0
 11
90.0142948607
 21
766.6371213631
 31
0.0
  0
ARC
  5
A7
330
1F
100
AcDbEntity
  8
0
  6
CONTINUOUS
 62
     7
100
AcDbCircle
 10
96.9560870037
 20
770.7525097827
 30
0.0
 40
8.070000000006148
100
AcDbArc
 50
90.0
 51
210.6612580025
  0
LINE
  5
A8
330
1F
100
AcDbEntity
  8
0
  6
CONTINUOUS
 62
     7
100
AcDbLine
 10
96.9560870037
 20
778.8225097827
 30
0.0
 11
166.9560870037
 21
778.8225097827
 31
0.0
  0
ARC
  5
A9
330
1F
100
AcDbEntity
  8
0
  6
CONTINUOUS
 62
     7
100
AcDbCircle
 10
166.9560870037
 20
770.7525097827
 30
0.0
 40
8.07000000000005
100
AcDbArc
 50
329.3387419977
 51
90.0
  0
LINE
  5
AA
330
1F
100
AcDbEntity
  8
0
  6
CONTINUOUS
 62
     7
100
AcDbLine
 10
150.7681158483
 20
727.6220897872
 30
0.0
 11
173.8978791467
 21
766.6371213632
 31
0.0
  0
LINE
  5
AB
330
1F
100
AcDbEntity
  8
0
  6
CONTINUOUS
 62
     7
100
AcDbLine
 10
113.9560870037
 20
479.8225097827
 30
0.0
 11
149.9560870037
 21
479.8225097827
 31
0.0
  0
ARC
  5
AC
330
1F
100
AcDbEntity
  8
0
  6
CONTINUOUS
 62
     7
100
AcDbCircle
 10
149.9560870037
 20
485.8225097827
 30
0.0
 40
6.000000000000057
100
AcDbArc
 50
270.0
 51
0.0
  0
LINE
  5
AD
330
1F
100
AcDbEntity
  8
0
  6
CONTINUOUS
 62
     7
100
AcDbLine
 10
155.9560870037
 20
553.8225097827
 30
0.0
 11
155.9560870037
 21
485.8225097827
 31
0.0
  0
ARC
  5
AE
330
1F
100
AcDbEntity
  8
0
  6
CONTINUOUS
 62
     7
100
AcDbCircle
 10
149.9560870037
 20
553.8225097827
 30
0.0
 40
6.000000000001251
100
AcDbArc
 50
0.0
 51
90.0
  0
LINE
  5
AF
330
1F
100
AcDbEntity
  8
0
  6
CONTINUOUS
 62
     7
100
AcDbLine
 10
113.9560870037
 20
559.8225097827
 30
0.0
 11
149.9560870037
 21
559.8225097827
 31
0.0
  0
ARC
  5
B0
330
1F
100
AcDbEntity
  8
0
  6
CONTINUOUS
 62
     7
100
AcDbCircle
 10
113.9560870037
 20
553.8225097827
 30
0.0
 40
6.000000000000341
100
AcDbArc
 50
90.0
 51
180.0
  0
LINE
  5
B1
330
1F
100
AcDbEntity
  8
0
  6
CONTINUOUS
 62
     7
100
AcDbLine
 10
107.9560870037
 20
553.8225097827
 30
0.0
 11
107.9560870037
 21
485.8225097827
 31
0.0
  0
INSERT
  5
BD
330
1F
100
AcDbEntity
  8
0
  6
CONTINUOUS
 62
     7
100
AcDbBlockReference
  2
SW_CENTERMARKSYMBOL_0
 10
166.9560870037
 20
770.7525097827
 30
0.0
  0
INSERT
  5
C9
330
1F
100
AcDbEntity
  8
0
  6
CONTINUOUS
 62
     7
100
AcDbBlockReference
  2
SW_CENTERMARKSYMBOL_1
 10
96.9560870037
 20
770.7525097827
 30
0.0
  0
INSERT
  5
D5
330
1F
100
AcDbEntity
  8
0
  6
CONTINUOUS
 62
     7
100
AcDbBlockReference
  2
SW_CENTERMARKSYMBOL_2
 10
99.9560870037
 20
535.8225097827
 30
0.0
  0
INSERT
  5
E1
330
1F
100
AcDbEntity
  8
0
  6
CONTINUOUS
 62
     7
100
AcDbBlockReference
  2
SW_CENTERMARKSYMBOL_3
 10
99.9560870037
 20
503.8225097827
 30
0.0
  0
INSERT
  5
ED
330
1F
100
AcDbEntity
  8
0
  6
CONTINUOUS
 62
     7
100
AcDbBlockReference
  2
SW_CENTERMARKSYMBOL_4
 10
163.9560870037
 20
567.8225097827
 30
0.0
  0
INSERT
  5
F9
330
1F
100
AcDbEntity
  8
0
  6
CONTINUOUS
 62
     7
100
AcDbBlockReference
  2
SW_CENTERMARKSYMBOL_5
 10
99.9560870037
 20
567.8225097827
 30
0.0
  0
INSERT
  5
105
330
1F
100
AcDbEntity
  8
0
  6
CONTINUOUS
 62
     7
100
AcDbBlockReference
  2
SW_CENTERMARKSYMBOL_6
 10
99.9560870037
 20
471.8225097827
 30
0.0
  0
INSERT
  5
111
330
1F
100
AcDbEntity
  8
0
  6
CONTINUOUS
 62
     7
100
AcDbBlockReference
  2
SW_CENTERMARKSYMBOL_7
 10
163.9560870037
 20
471.8225097827
 30
0.0
  0
INSERT
  5
11D
330
1F
100
AcDbEntity
  8
0
  6
CONTINUOUS
 62
     7
100
AcDbBlockReference
  2
SW_CENTERMARKSYMBOL_8
 10
163.9560870037
 20
535.8225097827
 30
0.0
  0
INSERT
  5
129
330
1F
100
AcDbEntity
  8
0
  6
CONTINUOUS
 62
     7
100
AcDbBlockReference
  2
SW_CENTERMARKSYMBOL_9
 10
163.9560870037
 20
511.8225097827
 30
0.0
  0
LINE
  5
12A
330
1F
100
AcDbEntity
  8
0
  6
CONTINUOUS
 62
     7
100
AcDbLine
 10
255.8486605659
 20
766.7894810794
 30
0.0
 11
247.8486605659
 21
766.7894810794
 31
0.0
  0
LINE
  5
12B
330
1F
100
AcDbEntity
  8
0
  6
CONTINUOUS
 62
     7
100
AcDbLine
 10
255.8486605659
 20
766.7894810794
 30
0.0
 11
255.8486605659
 21
772.7894810794
 31
0.0
  0
LINE
  5
12C
330
1F
100
AcDbEntity
  8
0
  6
CONTINUOUS
 62
     7
100
AcDbLine
 10
255.8486605659
 20
772.7894810794
 30
0.0
 11
267.8486605659
 21
772.7894810794
 31
0.0
  0
LINE
  5
12D
330
1F
100
AcDbEntity
  8
0
  6
CONTINUOUS
 62
     7
100
AcDbLine
 10
267.8486605659
 20
766.7894810794
 30
0.0
 11
267.8486605659
 21
772.7894810794
 31
0.0
  0
LINE
  5
12E
330
1F
100
AcDbEntity
  8
0
  6
CONTINUOUS
 62
     7
100
AcDbLine
 10
307.8486605659
 20
766.7894810794
 30
0.0
 11
267.8486605659
 21
766.7894810794
 31
0.0
  0
LINE
  5
12F
330
1F
100
AcDbEntity
  8
0
  6
CONTINUOUS
 62
     7
100
AcDbLine
 10
307.8486605659
 20
766.7894810794
 30
0.0
 11
307.8486605659
 21
772.7894810794
 31
0.0
  0
LINE
  5
130
330
1F
100
AcDbEntity
  8
0
  6
CONTINUOUS
 62
     7
100
AcDbLine
 10
319.8486605659
 20
772.7894810794
 30
0.0
 11
307.8486605659
 21
772.7894810794
 31
0.0
  0
LINE
  5
131
330
1F
100
AcDbEntity
  8
0
  6
CONTINUOUS
 62
     7
100
AcDbLine
 10
319.8486605659
 20
766.7894810794
 30
0.0
 11
319.8486605659
 21
772.7894810794
 31
0.0
  0
LINE
  5
132
330
1F
100
AcDbEntity
  8
0
  6
CONTINUOUS
 62
     7
100
AcDbLine
 10
327.8486605659
 20
766.7894810794
 30
0.0
 11
319.8486605659
 21
766.7894810794
 31
0.0
  0
LINE
  5
133
330
1F
100
AcDbEntity
  8
0
  6
CONTINUOUS
 62
     7
100
AcDbLine
 10
327.8486605659
 20
740.1894810794
 30
0.0
 11
327.8486605659
 21
766.7894810794
 31
0.0
  0
LINE
  5
134
330
1F
100
AcDbEntity
  8
0
  6
CONTINUOUS
 62
     7
100
AcDbLine
 10
327.8486605659
 20
740.1894810794
 30
0.0
 11
247.8486605659
 21
740.1894810794
 31
0.0
  0
LINE
  5
135
330
1F
100
AcDbEntity
  8
0
  6
CONTINUOUS
 62
     7
100
AcDbLine
 10
247.8486605659
 20
740.1894810794
 30
0.0
 11
247.8486605659
 21
766.7894810794
 31
0.0
  0
LINE
  5
136
330
1F
100
AcDbEntity
  8
0
  6
CONTINUOUS
 62
     7
100
AcDbLine
 10
245.8041348868
 20
694.9270537396
 30
0.0
 11
241.8041348868
 21
694.9270537396
 31
0.0
  0
LINE
  5
137
330
1F
100
AcDbEntity
  8
0
  6
CONTINUOUS
 62
     7
100
AcDbLine
 10
245.8041348868
 20
694.9270537396
 30
0.0
 11
245.8041348868
 21
700.9270537396
 31
0.0
  0
LINE
  5
138
330
1F
100
AcDbEntity
  8
0
  6
CONTINUOUS
 62
     7
100
AcDbLine
 10
245.8041348868
 20
700.9270537396
 30
0.0
 11
257.8041348868
 21
700.9270537396
 31
0.0
  0
LINE
  5
139
330
1F
100
AcDbEntity
  8
0
  6
CONTINUOUS
 62
     7
100
AcDbLine
 10
257.8041348868
 20
694.9270537396
 30
0.0
 11
257.8041348868
 21
700.9270537396
 31
0.0
  0
LINE
  5
13A
330
1F
100
AcDbEntity
  8
0
  6
CONTINUOUS
 62
     7
100
AcDbLine
 10
261.8041348868
 20
694.9270537396
 30
0.0
 11
257.8041348868
 21
694.9270537396
 31
0.0
  0
LINE
  5
13B
330
1F
100
AcDbEntity
  8
0
  6
CONTINUOUS
 62
     7
100
AcDbLine
 10
261.8041348868
 20
636.0270537396
 30
0.0
 11
261.8041348868
 21
694.9270537396
 31
0.0
  0
LINE
  5
13C
330
1F
100
AcDbEntity
  8
0
  6
CONTINUOUS
 62
     7
100
AcDbLine
 10
261.8041348868
 20
636.0270537396
 30
0.0
 11
257.8041348868
 21
636.0270537396
 31
0.0
  0
LINE
  5
13D
330
1F
100
AcDbEntity
  8
0
  6
CONTINUOUS
 62
     7
100
AcDbLine
 10
257.8041348868
 20
636.0270537396
 30
0.0
 11
257.8041348868
 21
630.0270537396
 31
0.0
  0
LINE
  5
13E
330
1F
100
AcDbEntity
  8
0
  6
CONTINUOUS
 62
     7
100
AcDbLine
 10
245.8041348868
 20
630.0270537396
 30
0.0
 11
257.8041348868
 21
630.0270537396
 31
0.0
  0
LINE
  5
13F
330
1F
100
AcDbEntity
  8
0
  6
CONTINUOUS
 62
     7
100
AcDbLine
 10
245.8041348868
 20
636.0270537396
 30
0.0
 11
245.8041348868
 21
630.0270537396
 31
0.0
  0
LINE
  5
140
330
1F
100
AcDbEntity
  8
0
  6
CONTINUOUS
 62
     7
100
AcDbLine
 10
245.8041348868
 20
636.0270537396
 30
0.0
 11
241.8041348868
 21
636.0270537396
 31
0.0
  0
LINE
  5
141
330
1F
100
AcDbEntity
  8
0
  6
CONTINUOUS
 62
     7
100
AcDbLine
 10
241.8041348868
 20
636.0270537396
 30
0.0
 11
241.8041348868
 21
694.9270537396
 31
0.0
  0
LINE
  5
142
330
1F
100
AcDbEntity
  8
0
  6
CONTINUOUS
 62
     7
100
AcDbLine
 10
316.0909599611
 20
702.1359588754
 30
0.0
 11
312.0909599611
 21
702.1359588754
 31
0.0
  0
LINE
  5
143
330
1F
100
AcDbEntity
  8
0
  6
CONTINUOUS
 62
     7
100
AcDbLine
 10
316.0909599611
 20
702.1359588754
 30
0.0
 11
316.0909599611
 21
708.1359588754
 31
0.0
  0
LINE
  5
144
330
1F
100
AcDbEntity
  8
0
  6
CONTINUOUS
 62
     7
100
AcDbLine
 10
316.0909599611
 20
708.1359588754
 30
0.0
 11
328.0909599611
 21
708.1359588754
 31
0.0
  0
LINE
  5
145
330
1F
100
AcDbEntity
  8
0
  6
CONTINUOUS
 62
     7
100
AcDbLine
 10
328.0909599611
 20
702.1359588754
 30
0.0
 11
328.0909599611
 21
708.1359588754
 31
0.0
  0
LINE
  5
146
330
1F
100
AcDbEntity
  8
0
  6
CONTINUOUS
 62
     7
100
AcDbLine
 10
332.0909599611
 20
702.1359588754
 30
0.0
 11
328.0909599611
 21
702.1359588754
 31
0.0
  0
LINE
  5
147
330
1F
100
AcDbEntity
  8
0
  6
CONTINUOUS
 62
     7
100
AcDbLine
 10
332.0909599611
 20
643.2359588754
 30
0.0
 11
332.0909599611
 21
702.1359588754
 31
0.0
  0
LINE
  5
148
330
1F
100
AcDbEntity
  8
0
  6
CONTINUOUS
 62
     7
100
AcDbLine
 10
332.0909599611
 20
643.2359588754
 30
0.0
 11
328.0909599611
 21
643.2359588754
 31
0.0
  0
LINE
  5
149
330
1F
100
AcDbEntity
  8
0
  6
CONTINUOUS
 62
     7
100
AcDbLine
 10
328.0909599611
 20
643.2359588754
 30
0.0
 11
328.0909599611
 21
637.2359588754
 31
0.0
  0
LINE
  5
14A
330
1F
100
AcDbEntity
  8
0
  6
CONTINUOUS
 62
     7
100
AcDbLine
 10
316.0909599611
 20
637.2359588754
 30
0.0
 11
328.0909599611
 21
637.2359588754
 31
0.0
  0
LINE
  5
14B
330
1F
100
AcDbEntity
  8
0
  6
CONTINUOUS
 62
     7
100
AcDbLine
 10
316.0909599611
 20
643.2359588754
 30
0.0
 11
316.0909599611
 21
637.2359588754
 31
0.0
  0
LINE
  5
14C
330
1F
100
AcDbEntity
  8
0
  6
CONTINUOUS
 62
     7
100
AcDbLine
 10
316.0909599611
 20
643.2359588754
 30
0.0
 11
312.0909599611
 21
643.2359588754
 31
0.0
  0
LINE
  5
14D
330
1F
100
AcDbEntity
  8
0
  6
CONTINUOUS
 62
     7
100
AcDbLine
 10
312.0909599611
 20
643.2359588754
 30
0.0
 11
312.0909599611
 21
702.1359588754
 31
0.0
  0
LINE
  5
14E
330
1F
100
AcDbEntity
  8
0
  6
CONTINUOUS
 62
     7
100
AcDbLine
 10
161.8683315655
 20
189.9650084296
 30
0.0
 11
173.8683315655
 21
189.9650084296
 31
0.0
  0
LINE
  5
14F
330
1F
100
AcDbEntity
  8
0
  6
CONTINUOUS
 62
     7
100
AcDbLine
 10
173.8683315655
 20
189.9650084296
 30
0.0
 11
173.8683315655
 21
195.9650084296
 31
0.0
  0
LINE
  5
150
330
1F
100
AcDbEntity
  8
0
  6
CONTINUOUS
 62
     7
100
AcDbLine
 10
161.8683315655
 20
195.9650084296
 30
0.0
 11
173.8683315655
 21
195.9650084296
 31
0.0
  0
LINE
  5
151
330
1F
100
AcDbEntity
  8
0
  6
CONTINUOUS
 62
     7
100
AcDbLine
 10
161.8683315655
 20
189.9650084296
 30
0.0
 11
161.8683315655
 21
195.9650084296
 31
0.0
  0
LINE
  5
152
330
1F
100
AcDbEntity
  8
0
  6
CONTINUOUS
 62
     7
100
AcDbLine
 10
85.2483315655
 20
95.0250084296
 30
0.0
 11
67.4683315655
 21
95.0250084296
 31
0.0
  0
LINE
  5
153
330
1F
100
AcDbEntity
  8
0
  6
CONTINUOUS
 62
     7
100
AcDbLine
 10
67.4683315655
 20
95.0250084296
 30
0.0
 11
67.4683315655
 21
92.9850084296
 31
0.0
  0
LINE
  5
154
330
1F
100
AcDbEntity
  8
0
  6
CONTINUOUS
 62
     7
100
AcDbLine
 10
85.2483315655
 20
92.9850084296
 30
0.0
 11
67.4683315655
 21
92.9850084296
 31
0.0
  0
LINE
  5
155
330
1F
100
AcDbEntity
  8
0
  6
CONTINUOUS
 62
     7
100
AcDbLine
 10
85.2483315655
 20
95.0250084296
 30
0.0
 11
85.2483315655
 21
92.9850084296
 31
0.0
  0
LINE
  5
156
330
1F
100
AcDbEntity
  8
0
  6
CONTINUOUS
 62
     7
100
AcDbLine
 10
181.8683315655
 20
195.9650084296
 30
0.0
 11
181.8683315655
 21
183.9650084296
 31
0.0
  0
LINE
  5
157
330
1F
100
AcDbEntity
  8
0
  6
CONTINUOUS
 62
     7
100
AcDbLine
 10
181.8683315655
 20
183.9650084296
 30
0.0
 11
187.8683315655
 21
183.9650084296
 31
0.0
  0
LINE
  5
158
330
1F
100
AcDbEntity
  8
0
  6
CONTINUOUS
 62
     7
100
AcDbLine
 10
187.8683315655
 20
195.9650084296
 30
0.0
 11
187.8683315655
 21
183.9650084296
 31
0.0
  0
LINE
  5
159
330
1F
100
AcDbEntity
  8
0
  6
CONTINUOUS
 62
     7
100
AcDbLine
 10
181.8683315655
 20
195.9650084296
 30
0.0
 11
187.8683315655
 21
195.9650084296
 31
0.0
  0
LINE
  5
15A
330
1F
100
AcDbEntity
  8
0
  6
CONTINUOUS
 62
     7
100
AcDbLine
 10
130.6683315655
 20
301.0750084296
 30
0.0
 11
153.0683315655
 21
301.0750084296
 31
0.0
  0
ARC
  5
15B
330
1F
100
AcDbEntity
  8
0
  6
CONTINUOUS
 62
     7
100
AcDbCircle
 10
153.0683315655
 20
302.0750084296
 30
0.0
 40
1.0
100
AcDbArc
 50
270.0
 51
0.0
  0
LINE
  5
15C
330
1F
100
AcDbEntity
  8
0
  6
CONTINUOUS
 62
     7
100
AcDbLine
 10
154.0683315655
 20
291.9650084296
 30
0.0
 11
154.0683315655
 21
302.0750084296
 31
0.0
  0
LINE
  5
15D
330
1F
100
AcDbEntity
  8
0
  6
CONTINUOUS
 62
     7
100
AcDbLine
 10
154.0683315655
 20
291.9650084296
 30
0.0
 11
160.0683315655
 21
291.9650084296
 31
0.0
  0
LINE
  5
15E
330
1F
100
AcDbEntity
  8
0
  6
CONTINUOUS
 62
     7
100
AcDbLine
 10
160.0683315655
 20
303.9650084296
 30
0.0
 11
160.0683315655
 21
291.9650084296
 31
0.0
  0
LINE
  5
15F
330
1F
100
AcDbEntity
  8
0
  6
CONTINUOUS
 62
     7
100
AcDbLine
 10
154.0683315655
 20
303.9650084296
 30
0.0
 11
160.0683315655
 21
303.9650084296
 31
0.0
  0
ARC
  5
160
330
1F
100
AcDbEntity
  8
0
  6
CONTINUOUS
 62
     7
100
AcDbCircle
 10
153.0683315655
 20
345.4750084296
 30
0.0
 40
1.0
100
AcDbArc
 50
0.0
 51
90.0
  0
LINE
  5
161
330
1F
100
AcDbEntity
  8
0
  6
CONTINUOUS
 62
     7
100
AcDbLine
 10
130.6683315655
 20
346.4750084296
 30
0.0
 11
153.0683315655
 21
346.4750084296
 31
0.0
  0
ARC
  5
162
330
1F
100
AcDbEntity
  8
0
  6
CONTINUOUS
 62
     7
100
AcDbCircle
 10
130.6683315655
 20
345.4750084296
 30
0.0
 40
1.000000000000028
100
AcDbArc
 50
90.0
 51
180.0
  0
LINE
  5
163
330
1F
100
AcDbEntity
  8
0
  6
CONTINUOUS
 62
     7
100
AcDbLine
 10
129.6683315655
 20
303.9650084296
 30
0.0
 11
129.6683315655
 21
345.4750084296
 31
0.0
  0
LINE
  5
164
330
1F
100
AcDbEntity
  8
0
  6
CONTINUOUS
 62
     7
100
AcDbLine
 10
129.6683315655
 20
303.9650084296
 30
0.0
 11
123.6683315655
 21
303.9650084296
 31
0.0
  0
LINE
  5
165
330
1F
100
AcDbEntity
  8
0
  6
CONTINUOUS
 62
     7
100
AcDbLine
 10
123.6683315655
 20
303.9650084296
 30
0.0
 11
123.6683315655
 21
291.9650084296
 31
0.0
  0
LINE
  5
166
330
1F
100
AcDbEntity
  8
0
  6
CONTINUOUS
 62
     7
100
AcDbLine
 10
129.6683315655
 20
291.9650084296
 30
0.0
 11
123.6683315655
 21
291.9650084296
 31
0.0
  0
LINE
  5
167
330
1F
100
AcDbEntity
  8
0
  6
CONTINUOUS
 62
     7
100
AcDbLine
 10
129.6683315655
 20
302.0750084296
 30
0.0
 11
129.6683315655
 21
291.9650084296
 31
0.0
  0
ARC
  5
168
330
1F
100
AcDbEntity
  8
0
  6
CONTINUOUS
 62
     7
100
AcDbCircle
 10
130.6683315655
 20
302.0750084296
 30
0.0
 40
1.000000000000028
100
AcDbArc
 50
180.0
 51
270.0
  0
LINE
  5
169
330
1F
100
AcDbEntity
  8
0
  6
CONTINUOUS
 62
     7
100
AcDbLine
 10
121.8683315655
 20
99.9650084296
 30
0.0
 11
109.8683315655
 21
99.9650084296
 31
0.0
  0
LINE
  5
16A
330
1F
100
AcDbEntity
  8
0
  6
CONTINUOUS
 62
     7
100
AcDbLine
 10
109.8683315655
 20
99.9650084296
 30
0.0
 11
109.8683315655
 21
93.9650084296
 31
0.0
  0
LINE
  5
16B
330
1F
100
AcDbEntity
  8
0
  6
CONTINUOUS
 62
     7
100
AcDbLine
 10
121.8683315655
 20
93.9650084296
 30
0.0
 11
109.8683315655
 21
93.9650084296
 31
0.0
  0
LINE
  5
16C
330
1F
100
AcDbEntity
  8
0
  6
CONTINUOUS
 62
     7
100
AcDbLine
 10
121.8683315655
 20
99.9650084296
 30
0.0
 11
121.8683315655
 21
93.9650084296
 31
0.0
  0
LINE
  5
16D
330
1F
100
AcDbEntity
  8
0
  6
CONTINUOUS
 62
     7
100
AcDbLine
 10
148.5015811462
 20
287.9650084296
 30
0.0
 11
135.2350819848
 21
287.9650084296
 31
0.0
  0
ARC
  5
16E
330
1F
100
AcDbEntity
  8
0
  6
CONTINUOUS
 62
     7
100
AcDbCircle
 10
141.8683315655
 20
277.9650084296
 30
0.0
 40
12.00000000000002
100
AcDbArc
 50
123.5573097619
 51
236.4426902381
  0
LINE
  5
16F
330
1F
100
AcDbEntity
  8
0
  6
CONTINUOUS
 62
     7
100
AcDbLine
 10
148.5015811462
 20
267.9650084296
 30
0.0
 11
135.2350819848
 21
267.9650084296
 31
0.0
  0
ARC
  5
170
330
1F
100
AcDbEntity
  8
0
  6
CONTINUOUS
 62
     7
100
AcDbCircle
 10
141.8683315655
 20
277.9650084296
 30
0.0
 40
12.00000000000005
100
AcDbArc
 50
303.5573097619
 51
56.4426902381
  0
LINE
  5
171
330
1F
100
AcDbEntity
  8
0
  6
CONTINUOUS
 62
     7
100
AcDbLine
 10
177.0883315655
 20
328.3202952191
 30
0.0
 11
177.0883315655
 21
274.3202952191
 31
0.0
  0
LINE
  5
172
330
1F
100
AcDbEntity
  8
0
  6
CONTINUOUS
 62
     7
100
AcDbLine
 10
177.0883315655
 20
274.3202952191
 30
0.0
 11
180.2283315655
 21
274.3202952191
 31
0.0
  0
LINE
  5
173
330
1F
100
AcDbEntity
  8
0
  6
CONTINUOUS
 62
     7
100
AcDbLine
 10
180.2283315655
 20
328.3202952191
 30
0.0
 11
180.2283315655
 21
274.3202952191
 31
0.0
  0
LINE
  5
174
330
1F
100
AcDbEntity
  8
0
  6
CONTINUOUS
 62
     7
100
AcDbLine
 10
177.0883315655
 20
328.3202952191
 30
0.0
 11
180.2283315655
 21
328.3202952191
 31
0.0
  0
LINE
  5
175
330
1F
100
AcDbEntity
  8
0
  6
CONTINUOUS
 62
     7
100
AcDbLine
 10
142.8683315655
 20
291.5250084296
 30
0.0
 11
142.8683315655
 21
293.792957622
 31
0.0
  0
ARC
  5
176
330
1F
100
AcDbEntity
  8
0
  6
CONTINUOUS
 62
     7
100
AcDbCircle
 10
141.8683315655
 20
295.5250084296
 30
0.0
 40
1.999999999999981
100
AcDbArc
 50
300.0
 51
240.0
  0
LINE
  5
177
330
1F
100
AcDbEntity
  8
0
  6
CONTINUOUS
 62
     7
100
AcDbLine
 10
140.8683315655
 20
291.5250084296
 30
0.0
 11
140.8683315655
 21
293.792957622
 31
0.0
  0
LINE
  5
178
330
1F
100
AcDbEntity
  8
0
  6
CONTINUOUS
 62
     7
100
AcDbLine
 10
140.8683315655
 20
291.5250084296
 30
0.0
 11
142.8683315655
 21
291.5250084296
 31
0.0
  0
ARC
  5
179
330
1F
100
AcDbEntity
  8
0
  6
CONTINUOUS
 62
     7
100
AcDbCircle
 10
141.8683315655
 20
352.0250084296
 30
0.0
 40
2.000000000000031
100
AcDbArc
 50
120.0
 51
60.0
  0
LINE
  5
17A
330
1F
100
AcDbEntity
  8
0
  6
CONTINUOUS
 62
     7
100
AcDbLine
 10
142.8683315655
 20
356.0250084296
 30
0.0
 11
142.8683315655
 21
353.7570592372
 31
0.0
  0
LINE
  5
17B
330
1F
100
AcDbEntity
  8
0
  6
CONTINUOUS
 62
     7
100
AcDbLine
 10
140.8683315655
 20
356.0250084296
 30
0.0
 11
142.8683315655
 21
356.0250084296
 31
0.0
  0
LINE
  5
17C
330
1F
100
AcDbEntity
  8
0
  6
CONTINUOUS
 62
     7
100
AcDbLine
 10
140.8683315655
 20
356.0250084296
 30
0.0
 11
140.8683315655
 21
353.7570592372
 31
0.0
  0
CIRCLE
  5
17D
330
1F
100
AcDbEntity
  8
0
  6
CONTINUOUS
 62
     7
100
AcDbCircle
 10
118.0083315655
 20
229.1250084296
 30
0.0
 40
4.399999999999977
  0
CIRCLE
  5
17E
330
1F
100
AcDbEntity
  8
0
  6
CONTINUOUS
 62
     7
100
AcDbCircle
 10
165.7283315655
 20
229.1250084296
 30
0.0
 40
4.400000000000006
  0
CIRCLE
  5
17F
330
1F
100
AcDbEntity
  8
0
  6
CONTINUOUS
 62
     7
100
AcDbCircle
 10
165.7283315655
 20
149.0450084296
 30
0.0
 40
4.039999999999992
  0
CIRCLE
  5
180
330
1F
100
AcDbEntity
  8
0
  6
CONTINUOUS
 62
     7
100
AcDbCircle
 10
118.0083315655
 20
149.0450084296
 30
0.0
 40
4.400000000000034
  0
LINE
  5
181
330
1F
100
AcDbEntity
  8
0
  6
CONTINUOUS
 62
     7
100
AcDbLine
 10
101.8683315655
 20
105.9650084296
 30
0.0
 11
95.8683315655
 21
105.9650084296
 31
0.0
  0
LINE
  5
182
330
1F
100
AcDbEntity
  8
0
  6
CONTINUOUS
 62
     7
100
AcDbLine
 10
95.8683315655
 20
93.9650084296
 30
0.0
 11
95.8683315655
 21
105.9650084296
 31
0.0
  0
LINE
  5
183
330
1F
100
AcDbEntity
  8
0
  6
CONTINUOUS
 62
     7
100
AcDbLine
 10
101.8683315655
 20
93.9650084296
 30
0.0
 11
95.8683315655
 21
93.9650084296
 31
0.0
  0
LINE
  5
184
330
1F
100
AcDbEntity
  8
0
  6
CONTINUOUS
 62
     7
100
AcDbLine
 10
101.8683315655
 20
93.9650084296
 30
0.0
 11
101.8683315655
 21
105.9650084296
 31
0.0
  0
LINE
  5
185
330
1F
100
AcDbEntity
  8
0
  6
CONTINUOUS
 62
     7
100
AcDbLine
 10
158.9483315655
 20
395.8850084296
 30
0.0
 11
170.9483315655
 21
395.8850084296
 31
0.0
  0
LINE
  5
186
330
1F
100
AcDbEntity
  8
0
  6
CONTINUOUS
 62
     7
100
AcDbLine
 10
158.9483315655
 20
389.8850084296
 30
0.0
 11
158.9483315655
 21
395.8850084296
 31
0.0
  0
LINE
  5
187
330
1F
100
AcDbEntity
  8
0
  6
CONTINUOUS
 62
     7
100
AcDbLine
 10
158.9483315655
 20
389.8850084296
 30
0.0
 11
170.9483315655
 21
389.8850084296
 31
0.0
  0
LINE
  5
188
330
1F
100
AcDbEntity
  8
0
  6
CONTINUOUS
 62
     7
100
AcDbLine
 10
170.9483315655
 20
389.8850084296
 30
0.0
 11
170.9483315655
 21
395.8850084296
 31
0.0
  0
ARC
  5
189
330
1F
100
AcDbEntity
  8
0
  6
CONTINUOUS
 62
     7
100
AcDbCircle
 10
69.8683315655
 20
96.9650084296
 30
0.0
 40
8.000000000000007
100
AcDbArc
 50
180.0
 51
270.0
  0
LINE
  5
18A
330
1F
100
AcDbEntity
  8
0
  6
CONTINUOUS
 62
     7
100
AcDbLine
 10
61.8683315655
 20
96.9650084296
 30
0.0
 11
61.8683315655
 21
335.5837103465
 31
0.0
  0
ARC
  5
18B
330
1F
100
AcDbEntity
  8
0
  6
CONTINUOUS
 62
     7
100
AcDbCircle
 10
69.8683315655
 20
335.5837103465
 30
0.0
 40
8.000000000000007
100
AcDbArc
 50
145.7976874691
 51
180.0
  0
LINE
  5
18C
330
1F
100
AcDbEntity
  8
0
  6
CONTINUOUS
 62
     7
100
AcDbLine
 10
63.2518684679
 20
340.0806444219
 30
0.0
 11
110.4074437267
 21
409.461942505
 31
0.0
  0
ARC
  5
18D
330
1F
100
AcDbEntity
  8
0
  6
CONTINUOUS
 62
     7
100
AcDbCircle
 10
117.0239068243
 20
404.9650084296
 30
0.0
 40
8.0
100
AcDbArc
 50
90.0
 51
145.7976874691
  0
LINE
  5
18E
330
1F
100
AcDbEntity
  8
0
  6
CONTINUOUS
 62
     7
100
AcDbLine
 10
117.0239068243
 20
412.9650084296
 30
0.0
 11
166.7127563067
 21
412.9650084296
 31
0.0
  0
ARC
  5
18F
330
1F
100
AcDbEntity
  8
0
  6
CONTINUOUS
 62
     7
100
AcDbCircle
 10
166.7127563067
 20
404.9650084296
 30
0.0
 40
8.0
100
AcDbArc
 50
34.2023125309
 51
90.0
  0
LINE
  5
190
330
1F
100
AcDbEntity
  8
0
  6
CONTINUOUS
 62
     7
100
AcDbLine
 10
173.3292194042
 20
409.461942505
 30
0.0
 11
220.484794663
 21
340.0806444219
 31
0.0
  0
ARC
  5
191
330
1F
100
AcDbEntity
  8
0
  6
CONTINUOUS
 62
     7
100
AcDbCircle
 10
213.8683315655
 20
335.5837103465
 30
0.0
 40
8.000000000000002
100
AcDbArc
 50
0.0
 51
34.2023125309
  0
LINE
  5
192
330
1F
100
AcDbEntity
  8
0
  6
CONTINUOUS
 62
     7
100
AcDbLine
 10
221.8683315655
 20
96.9650084296
 30
0.0
 11
221.8683315655
 21
335.5837103465
 31
0.0
  0
ARC
  5
193
330
1F
100
AcDbEntity
  8
0
  6
CONTINUOUS
 62
     7
100
AcDbCircle
 10
213.8683315655
 20
96.9650084296
 30
0.0
 40
8.0
100
AcDbArc
 50
270.0
 51
0.0
  0
LINE
  5
194
330
1F
100
AcDbEntity
  8
0
  6
CONTINUOUS
 62
     7
100
AcDbLine
 10
69.8683315655
 20
88.9650084296
 30
0.0
 11
213.8683315655
 21
88.9650084296
 31
0.0
  0
LINE
  5
195
330
1F
100
AcDbEntity
  8
0
  6
CONTINUOUS
 62
     7
100
AcDbLine
 10
173.8683315655
 20
99.9650084296
 30
0.0
 11
173.8683315655
 21
93.9650084296
 31
0.0
  0
LINE
  5
196
330
1F
100
AcDbEntity
  8
0
  6
CONTINUOUS
 62
     7
100
AcDbLine
 10
161.8683315655
 20
99.9650084296
 30
0.0
 11
173.8683315655
 21
99.9650084296
 31
0.0
  0
LINE
  5
197
330
1F
100
AcDbEntity
  8
0
  6
CONTINUOUS
 62
     7
100
AcDbLine
 10
161.8683315655
 20
99.9650084296
 30
0.0
 11
161.8683315655
 21
93.9650084296
 31
0.0
  0
LINE
  5
198
330
1F
100
AcDbEntity
  8
0
  6
CONTINUOUS
 62
     7
100
AcDbLine
 10
161.8683315655
 20
93.9650084296
 30
0.0
 11
173.8683315655
 21
93.9650084296
 31
0.0
  0
LINE
  5
199
330
1F
100
AcDbEntity
  8
0
  6
CONTINUOUS
 62
     7
100
AcDbLine
 10
109.8683315655
 20
189.9650084296
 30
0.0
 11
109.8683315655
 21
195.9650084296
 31
0.0
  0
LINE
  5
19A
330
1F
100
AcDbEntity
  8
0
  6
CONTINUOUS
 62
     7
100
AcDbLine
 10
121.8683315655
 20
189.9650084296
 30
0.0
 11
109.8683315655
 21
189.9650084296
 31
0.0
  0
LINE
  5
19B
330
1F
100
AcDbEntity
  8
0
  6
CONTINUOUS
 62
     7
100
AcDbLine
 10
121.8683315655
 20
189.9650084296
 30
0.0
 11
121.8683315655
 21
195.9650084296
 31
0.0
  0
LINE
  5
19C
330
1F
100
AcDbEntity
  8
0
  6
CONTINUOUS
 62
     7
100
AcDbLine
 10
121.8683315655
 20
195.9650084296
 30
0.0
 11
109.8683315655
 21
195.9650084296
 31
0.0
  0
LINE
  5
19D
330
1F
100
AcDbEntity
  8
0
  6
CONTINUOUS
 62
     7
100
AcDbLine
 10
101.8683315655
 20
183.9650084296
 30
0.0
 11
95.8683315655
 21
183.9650084296
 31
0.0
  0
LINE
  5
19E
330
1F
100
AcDbEntity
  8
0
  6
CONTINUOUS
 62
     7
100
AcDbLine
 10
101.8683315655
 20
195.9650084296
 30
0.0
 11
101.8683315655
 21
183.9650084296
 31
0.0
  0
LINE
  5
19F
330
1F
100
AcDbEntity
  8
0
  6
CONTINUOUS
 62
     7
100
AcDbLine
 10
101.8683315655
 20
195.9650084296
 30
0.0
 11
95.8683315655
 21
195.9650084296
 31
0.0
  0
LINE
  5
1A0
330
1F
100
AcDbEntity
  8
0
  6
CONTINUOUS
 62
     7
100
AcDbLine
 10
95.8683315655
 20
195.9650084296
 30
0.0
 11
95.8683315655
 21
183.9650084296
 31
0.0
  0
LINE
  5
1A1
330
1F
100
AcDbEntity
  8
0
  6
CONTINUOUS
 62
     7
100
AcDbLine
 10
181.8683315655
 20
105.9650084296
 30
0.0
 11
187.8683315655
 21
105.9650084296
 31
0.0
  0
LINE
  5
1A2
330
1F
100
AcDbEntity
  8
0
  6
CONTINUOUS
 62
     7
100
AcDbLine
 10
181.8683315655
 20
93.9650084296
 30
0.0
 11
181.8683315655
 21
105.9650084296
 31
0.0
  0
LINE
  5
1A3
330
1F
100
AcDbEntity
  8
0
  6
CONTINUOUS
 62
     7
100
AcDbLine
 10
181.8683315655
 20
93.9650084296
 30
0.0
 11
187.8683315655
 21
93.9650084296
 31
0.0
  0
LINE
  5
1A4
330
1F
100
AcDbEntity
  8
0
  6
CONTINUOUS
 62
     7
100
AcDbLine
 10
187.8683315655
 20
93.9650084296
 30
0.0
 11
187.8683315655
 21
105.9650084296
 31
0.0
  0
LINE
  5
1A5
330
1F
100
AcDbEntity
  8
0
  6
CONTINUOUS
 62
     7
100
AcDbLine
 10
124.7883315655
 20
395.8850084296
 30
0.0
 11
112.7883315655
 21
395.8850084296
 31
0.0
  0
LINE
  5
1A6
330
1F
100
AcDbEntity
  8
0
  6
CONTINUOUS
 62
     7
100
AcDbLine
 10
112.7883315655
 20
389.8850084296
 30
0.0
 11
112.7883315655
 21
395.8850084296
 31
0.0
  0
LINE
  5
1A7
330
1F
100
AcDbEntity
  8
0
  6
CONTINUOUS
 62
     7
100
AcDbLine
 10
124.7883315655
 20
389.8850084296
 30
0.0
 11
112.7883315655
 21
389.8850084296
 31
0.0
  0
LINE
  5
1A8
330
1F
100
AcDbEntity
  8
0
  6
CONTINUOUS
 62
     7
100
AcDbLine
 10
124.7883315655
 20
389.8850084296
 30
0.0
 11
124.7883315655
 21
395.8850084296
 31
0.0
  0
LINE
  5
1A9
330
1F
100
AcDbEntity
  8
0
  6
CONTINUOUS
 62
     7
100
AcDbLine
 10
220.0083315655
 20
272.4050084296
 30
0.0
 11
204.8388577871
 21
272.4050084296
 31
0.0
  0
LINE
  5
1AA
330
1F
100
AcDbEntity
  8
0
  6
CONTINUOUS
 62
     7
100
AcDbLine
 10
204.8388577871
 20
272.4050084296
 30
0.0
 11
204.8388577871
 21
329.1250084296
 31
0.0
  0
LINE
  5
1AB
330
1F
100
AcDbEntity
  8
0
  6
CONTINUOUS
 62
     7
100
AcDbLine
 10
204.8388577871
 20
329.1250084296
 30
0.0
 11
195.5283315655
 21
329.1250084296
 31
0.0
  0
LINE
  5
1AC
330
1F
100
AcDbEntity
  8
0
  6
CONTINUOUS
 62
     7
100
AcDbLine
 10
195.5283315655
 20
178.9650084296
 30
0.0
 11
195.5283315655
 21
329.1250084296
 31
0.0
  0
LINE
  5
1AD
330
1F
100
AcDbEntity
  8
0
  6
CONTINUOUS
 62
     7
100
AcDbLine
 10
220.0083315655
 20
178.9650084296
 30
0.0
 11
195.5283315655
 21
178.9650084296
 31
0.0
  0
LINE
  5
1AE
330
1F
100
AcDbEntity
  8
0
  6
CONTINUOUS
 62
     7
100
AcDbLine
 10
220.0083315655
 20
178.9650084296
 30
0.0
 11
220.0083315655
 21
272.4050084296
 31
0.0
  0
LINE
  5
1AF
330
1F
100
AcDbEntity
  8
0
  6
CONTINUOUS
 62
     7
100
AcDbLine
 10
216.2683315655
 20
95.0250084296
 30
0.0
 11
216.2683315655
 21
92.9850084296
 31
0.0
  0
LINE
  5
1B0
330
1F
100
AcDbEntity
  8
0
  6
CONTINUOUS
 62
     7
100
AcDbLine
 10
198.4883315655
 20
95.0250084296
 30
0.0
 11
216.2683315655
 21
95.0250084296
 31
0.0
  0
LINE
  5
1B1
330
1F
100
AcDbEntity
  8
0
  6
CONTINUOUS
 62
     7
100
AcDbLine
 10
198.4883315655
 20
95.0250084296
 30
0.0
 11
198.4883315655
 21
92.9850084296
 31
0.0
  0
LINE
  5
1B2
330
1F
100
AcDbEntity
  8
0
  6
CONTINUOUS
 62
     7
100
AcDbLine
 10
198.4883315655
 20
92.9850084296
 30
0.0
 11
216.2683315655
 21
92.9850084296
 31
0.0
  0
LINE
  5
1B3
330
1F
100
AcDbEntity
  8
0
  6
CONTINUOUS
 62
     7
100
AcDbLine
 10
66.9283315655
 20
332.0450084296
 30
0.0
 11
64.8883315655
 21
332.0450084296
 31
0.0
  0
LINE
  5
1B4
330
1F
100
AcDbEntity
  8
0
  6
CONTINUOUS
 62
     7
100
AcDbLine
 10
64.8883315655
 20
314.2650084296
 30
0.0
 11
64.8883315655
 21
332.0450084296
 31
0.0
  0
LINE
  5
1B5
330
1F
100
AcDbEntity
  8
0
  6
CONTINUOUS
 62
     7
100
AcDbLine
 10
66.9283315655
 20
314.2650084296
 30
0.0
 11
64.8883315655
 21
314.2650084296
 31
0.0
  0
LINE
  5
1B6
330
1F
100
AcDbEntity
  8
0
  6
CONTINUOUS
 62
     7
100
AcDbLine
 10
66.9283315655
 20
314.2650084296
 30
0.0
 11
66.9283315655
 21
332.0450084296
 31
0.0
  0
LINE
  5
1B7
330
1F
100
AcDbEntity
  8
0
  6
CONTINUOUS
 62
     7
100
AcDbLine
 10
150.7583315655
 20
409.9450084296
 30
0.0
 11
132.9783315655
 21
409.9450084296
 31
0.0
  0
LINE
  5
1B8
330
1F
100
AcDbEntity
  8
0
  6
CONTINUOUS
 62
     7
100
AcDbLine
 10
132.9783315655
 20
407.9050084296
 30
0.0
 11
132.9783315655
 21
409.9450084296
 31
0.0
  0
LINE
  5
1B9
330
1F
100
AcDbEntity
  8
0
  6
CONTINUOUS
 62
     7
100
AcDbLine
 10
150.7583315655
 20
407.9050084296
 30
0.0
 11
132.9783315655
 21
407.9050084296
 31
0.0
  0
LINE
  5
1BA
330
1F
100
AcDbEntity
  8
0
  6
CONTINUOUS
 62
     7
100
AcDbLine
 10
150.7583315655
 20
407.9050084296
 30
0.0
 11
150.7583315655
 21
409.9450084296
 31
0.0
  0
LINE
  5
1BB
330
1F
100
AcDbEntity
  8
0
  6
CONTINUOUS
 62
     7
100
AcDbLine
 10
216.8083315655
 20
332.0450084296
 30
0.0
 11
218.8483315655
 21
332.0450084296
 31
0.0
  0
LINE
  5
1BC
330
1F
100
AcDbEntity
  8
0
  6
CONTINUOUS
 62
     7
100
AcDbLine
 10
216.8083315655
 20
314.2650084296
 30
0.0
 11
216.8083315655
 21
332.0450084296
 31
0.0
  0
LINE
  5
1BD
330
1F
100
AcDbEntity
  8
0
  6
CONTINUOUS
 62
     7
100
AcDbLine
 10
216.8083315655
 20
314.2650084296
 30
0.0
 11
218.8483315655
 21
314.2650084296
 31
0.0
  0
LINE
  5
1BE
330
1F
100
AcDbEntity
  8
0
  6
CONTINUOUS
 62
     7
100
AcDbLine
 10
218.8483315655
 20
314.2650084296
 30
0.0
 11
218.8483315655
 21
332.0450084296
 31
0.0
  0
LINE
  5
1BF
330
1F
100
AcDbEntity
  8
0
  6
CONTINUOUS
 62
     7
100
AcDbLine
 10
154.0683315655
 20
303.9650084296
 30
0.0
 11
154.0683315655
 21
345.4750084296
 31
0.0
  0
INSERT
  5
1CB
330
1F
100
AcDbEntity
  8
0
  6
CONTINUOUS
 62
     7
100
AcDbBlockReference
  2
SW_CENTERMARKSYMBOL_10
 10
118.0083315655
 20
229.1250084296
 30
0.0
  0
INSERT
  5
1D7
330
1F
100
AcDbEntity
  8
0
  6
CONTINUOUS
 62
     7
100
AcDbBlockReference
  2
SW_CENTERMARKSYMBOL_11
 10
165.7283315655
 20
229.1250084296
 30
0.0
  0
INSERT
  5
1E3
330
1F
100
AcDbEntity
  8
0
  6
CONTINUOUS
 62
     7
100
AcDbBlockReference
  2
SW_CENTERMARKSYMBOL_12
 10
165.7283315655
 20
149.0450084296
 30
0.0
  0
INSERT
  5
1EF
330
1F
100
AcDbEntity
  8
0
  6
CONTINUOUS
 62
     7
100
AcDbBlockReference
  2
SW_CENTERMARKSYMBOL_13
 10
118.0083315655
 20
149.0450084296
 30
0.0
  0
LINE
  5
1F0
330
1F
100
AcDbEntity
  8
0
  6
CONTINUOUS
 62
     7
100
AcDbLine
 10
240.0019086029
 20
591.7824549493
 30
0.0
 11
240.0019086029
 21
608.2024549493
 31
0.0
  0
LINE
  5
1F1
330
1F
100
AcDbEntity
  8
0
  6
CONTINUOUS
 62
     7
100
AcDbLine
 10
240.0019086029
 20
608.2024549493
 30
0.0
 11
260.0019086029
 21
608.2024549493
 31
0.0
  0
LINE
  5
1F2
330
1F
100
AcDbEntity
  8
0
  6
CONTINUOUS
 62
     7
100
AcDbLine
 10
260.0019086029
 20
591.7824549493
 30
0.0
 11
260.0019086029
 21
608.2024549493
 31
0.0
  0
LINE
  5
1F3
330
1F
100
AcDbEntity
  8
0
  6
CONTINUOUS
 62
     7
100
AcDbLine
 10
256.0019086029
 20
591.7824549493
 30
0.0
 11
260.0019086029
 21
591.7824549493
 31
0.0
  0
LINE
  5
1F4
330
1F
100
AcDbEntity
  8
0
  6
CONTINUOUS
 62
     7
100
AcDbLine
 10
256.0019086029
 20
591.7824549493
 30
0.0
 11
256.0019086029
 21
585.7824549493
 31
0.0
  0
LINE
  5
1F5
330
1F
100
AcDbEntity
  8
0
  6
CONTINUOUS
 62
     7
100
AcDbLine
 10
244.0019086029
 20
585.7824549493
 30
0.0
 11
256.0019086029
 21
585.7824549493
 31
0.0
  0
LINE
  5
1F6
330
1F
100
AcDbEntity
  8
0
  6
CONTINUOUS
 62
     7
100
AcDbLine
 10
244.0019086029
 20
591.7824549493
 30
0.0
 11
244.0019086029
 21
585.7824549493
 31
0.0
  0
LINE
  5
1F7
330
1F
100
AcDbEntity
  8
0
  6
CONTINUOUS
 62
     7
100
AcDbLine
 10
240.0019086029
 20
591.7824549493
 30
0.0
 11
244.0019086029
 21
591.7824549493
 31
0.0
  0
LINE
  5
1F8
330
1F
100
AcDbEntity
  8
0
  6
CONTINUOUS
 62
     7
100
AcDbLine
 10
241.7609051277
 20
499.9589693009
 30
0.0
 11
241.7609051277
 21
558.8589693009
 31
0.0
  0
LINE
  5
1F9
330
1F
100
AcDbEntity
  8
0
  6
CONTINUOUS
 62
     7
100
AcDbLine
 10
241.7609051277
 20
558.8589693009
 30
0.0
 11
246.7609051277
 21
558.8589693009
 31
0.0
  0
LINE
  5
1FA
330
1F
100
AcDbEntity
  8
0
  6
CONTINUOUS
 62
     7
100
AcDbLine
 10
246.7609051277
 20
558.8589693009
 30
0.0
 11
246.7609051277
 21
564.8589693009
 31
0.0
  0
LINE
  5
1FB
330
1F
100
AcDbEntity
  8
0
  6
CONTINUOUS
 62
     7
100
AcDbLine
 10
246.7609051277
 20
564.8589693009
 30
0.0
 11
258.7609051277
 21
564.8589693009
 31
0.0
  0
LINE
  5
1FC
330
1F
100
AcDbEntity
  8
0
  6
CONTINUOUS
 62
     7
100
AcDbLine
 10
258.7609051277
 20
558.8589693009
 30
0.0
 11
258.7609051277
 21
564.8589693009
 31
0.0
  0
LINE
  5
1FD
330
1F
100
AcDbEntity
  8
0
  6
CONTINUOUS
 62
     7
100
AcDbLine
 10
258.7609051277
 20
558.8589693009
 30
0.0
 11
336.7609051277
 21
558.8589693009
 31
0.0
  0
LINE
  5
1FE
330
1F
100
AcDbEntity
  8
0
  6
CONTINUOUS
 62
     7
100
AcDbLine
 10
336.7609051277
 20
558.8589693009
 30
0.0
 11
336.7609051277
 21
564.8589693009
 31
0.0
  0
LINE
  5
1FF
330
1F
100
AcDbEntity
  8
0
  6
CONTINUOUS
 62
     7
100
AcDbLine
 10
348.7609051277
 20
564.8589693009
 30
0.0
 11
336.7609051277
 21
564.8589693009
 31
0.0
  0
LINE
  5
200
330
1F
100
AcDbEntity
  8
0
  6
CONTINUOUS
 62
     7
100
AcDbLine
 10
348.7609051277
 20
558.8589693009
 30
0.0
 11
348.7609051277
 21
564.8589693009
 31
0.0
  0
LINE
  5
201
330
1F
100
AcDbEntity
  8
0
  6
CONTINUOUS
 62
     7
100
AcDbLine
 10
348.7609051277
 20
558.8589693009
 30
0.0
 11
353.7609051277
 21
558.8589693009
 31
0.0
  0
LINE
  5
202
330
1F
100
AcDbEntity
  8
0
  6
CONTINUOUS
 62
     7
100
AcDbLine
 10
353.7609051277
 20
499.9589693009
 30
0.0
 11
353.7609051277
 21
558.8589693009
 31
0.0
  0
LINE
  5
203
330
1F
100
AcDbEntity
  8
0
  6
CONTINUOUS
 62
     7
100
AcDbLine
 10
348.7609051277
 20
499.9589693009
 30
0.0
 11
353.7609051277
 21
499.9589693009
 31
0.0
  0
LINE
  5
204
330
1F
100
AcDbEntity
  8
0
  6
CONTINUOUS
 62
     7
100
AcDbLine
 10
348.7609051277
 20
499.9589693009
 30
0.0
 11
348.7609051277
 21
493.9589693009
 31
0.0
  0
LINE
  5
205
330
1F
100
AcDbEntity
  8
0
  6
CONTINUOUS
 62
     7
100
AcDbLine
 10
348.7609051277
 20
493.9589693009
 30
0.0
 11
336.7609051277
 21
493.9589693009
 31
0.0
  0
LINE
  5
206
330
1F
100
AcDbEntity
  8
0
  6
CONTINUOUS
 62
     7
100
AcDbLine
 10
336.7609051277
 20
499.9589693009
 30
0.0
 11
336.7609051277
 21
493.9589693009
 31
0.0
  0
LINE
  5
207
330
1F
100
AcDbEntity
  8
0
  6
CONTINUOUS
 62
     7
100
AcDbLine
 10
332.7609051277
 20
499.9589693009
 30
0.0
 11
336.7609051277
 21
499.9589693009
 31
0.0
  0
ARC
  5
208
330
1F
100
AcDbEntity
  8
0
  6
CONTINUOUS
 62
     7
100
AcDbCircle
 10
297.7609051277
 20
508.8589693009
 30
0.0
 40
36.11384775955064
100
AcDbArc
 50
345.7328815714
 51
194.2671184286
  0
LINE
  5
209
330
1F
100
AcDbEntity
  8
0
  6
CONTINUOUS
 62
     7
100
AcDbLine
 10
258.7609051277
 20
499.9589693009
 30
0.0
 11
262.7609051277
 21
499.9589693009
 31
0.0
  0
LINE
  5
20A
330
1F
100
AcDbEntity
  8
0
  6
CONTINUOUS
 62
     7
100
AcDbLine
 10
258.7609051277
 20
499.9589693009
 30
0.0
 11
258.7609051277
 21
493.9589693009
 31
0.0
  0
LINE
  5
20B
330
1F
100
AcDbEntity
  8
0
  6
CONTINUOUS
 62
     7
100
AcDbLine
 10
246.7609051277
 20
493.9589693009
 30
0.0
 11
258.7609051277
 21
493.9589693009
 31
0.0
  0
LINE
  5
20C
330
1F
100
AcDbEntity
  8
0
  6
CONTINUOUS
 62
     7
100
AcDbLine
 10
246.7609051277
 20
499.9589693009
 30
0.0
 11
246.7609051277
 21
493.9589693009
 31
0.0
  0
LINE
  5
20D
330
1F
100
AcDbEntity
  8
0
  6
CONTINUOUS
 62
     7
100
AcDbLine
 10
241.7609051277
 20
499.9589693009
 30
0.0
 11
246.7609051277
 21
499.9589693009
 31
0.0
  0
LINE
  5
20E
330
1F
100
AcDbEntity
  8
0
  6
CONTINUOUS
 62
     7
100
AcDbLine
 10
246.2664708376
 20
407.1443156771
 30
0.0
 11
246.2664708376
 21
466.0443156771
 31
0.0
  0
LINE
  5
20F
330
1F
100
AcDbEntity
  8
0
  6
CONTINUOUS
 62
     7
100
AcDbLine
 10
246.2664708376
 20
466.0443156771
 30
0.0
 11
251.2664708376
 21
466.0443156771
 31
0.0
  0
LINE
  5
210
330
1F
100
AcDbEntity
  8
0
  6
CONTINUOUS
 62
     7
100
AcDbLine
 10
251.2664708376
 20
466.0443156771
 30
0.0
 11
251.2664708376
 21
472.0443156771
 31
0.0
  0
LINE
  5
211
330
1F
100
AcDbEntity
  8
0
  6
CONTINUOUS
 62
     7
100
AcDbLine
 10
251.2664708376
 20
472.0443156771
 30
0.0
 11
263.2664708376
 21
472.0443156771
 31
0.0
  0
LINE
  5
212
330
1F
100
AcDbEntity
  8
0
  6
CONTINUOUS
 62
     7
100
AcDbLine
 10
263.2664708376
 20
466.0443156771
 30
0.0
 11
263.2664708376
 21
472.0443156771
 31
0.0
  0
LINE
  5
213
330
1F
100
AcDbEntity
  8
0
  6
CONTINUOUS
 62
     7
100
AcDbLine
 10
263.2664708376
 20
466.0443156771
 30
0.0
 11
341.2664708376
 21
466.0443156771
 31
0.0
  0
LINE
  5
214
330
1F
100
AcDbEntity
  8
0
  6
CONTINUOUS
 62
     7
100
AcDbLine
 10
341.2664708376
 20
466.0443156771
 30
0.0
 11
341.2664708376
 21
472.0443156771
 31
0.0
  0
LINE
  5
215
330
1F
100
AcDbEntity
  8
0
  6
CONTINUOUS
 62
     7
100
AcDbLine
 10
353.2664708376
 20
472.0443156771
 30
0.0
 11
341.2664708376
 21
472.0443156771
 31
0.0
  0
LINE
  5
216
330
1F
100
AcDbEntity
  8
0
  6
CONTINUOUS
 62
     7
100
AcDbLine
 10
353.2664708376
 20
466.0443156771
 30
0.0
 11
353.2664708376
 21
472.0443156771
 31
0.0
  0
LINE
  5
217
330
1F
100
AcDbEntity
  8
0
  6
CONTINUOUS
 62
     7
100
AcDbLine
 10
353.2664708376
 20
466.0443156771
 30
0.0
 11
358.2664708376
 21
466.0443156771
 31
0.0
  0
LINE
  5
218
330
1F
100
AcDbEntity
  8
0
  6
CONTINUOUS
 62
     7
100
AcDbLine
 10
358.2664708376
 20
407.1443156771
 30
0.0
 11
358.2664708376
 21
466.0443156771
 31
0.0
  0
LINE
  5
219
330
1F
100
AcDbEntity
  8
0
  6
CONTINUOUS
 62
     7
100
AcDbLine
 10
353.2664708376
 20
407.1443156771
 30
0.0
 11
358.2664708376
 21
407.1443156771
 31
0.0
  0
LINE
  5
21A
330
1F
100
AcDbEntity
  8
0
  6
CONTINUOUS
 62
     7
100
AcDbLine
 10
353.2664708376
 20
407.1443156771
 30
0.0
 11
353.2664708376
 21
401.1443156771
 31
0.0
  0
LINE
  5
21B
330
1F
100
AcDbEntity
  8
0
  6
CONTINUOUS
 62
     7
100
AcDbLine
 10
353.2664708376
 20
401.1443156771
 30
0.0
 11
341.2664708376
 21
401.1443156771
 31
0.0
  0
LINE
  5
21C
330
1F
100
AcDbEntity
  8
0
  6
CONTINUOUS
 62
     7
100
AcDbLine
 10
341.2664708376
 20
407.1443156771
 30
0.0
 11
341.2664708376
 21
401.1443156771
 31
0.0
  0
LINE
  5
21D
330
1F
100
AcDbEntity
  8
0
  6
CONTINUOUS
 62
     7
100
AcDbLine
 10
337.2664708376
 20
407.1443156771
 30
0.0
 11
341.2664708376
 21
407.1443156771
 31
0.0
  0
ARC
  5
21E
330
1F
100
AcDbEntity
  8
0
  6
CONTINUOUS
 62
     7
100
AcDbCircle
 10
302.2664708376
 20
416.0443156771
 30
0.0
 40
36.11384775955061
100
AcDbArc
 50
345.7328815714
 51
194.2671184286
  0
LINE
  5
21F
330
1F
100
AcDbEntity
  8
0
  6
CONTINUOUS
 62
     7
100
AcDbLine
 10
263.2664708376
 20
407.1443156771
 30
0.0
 11
267.2664708376
 21
407.1443156771
 31
0.0
  0
LINE
  5
220
330
1F
100
AcDbEntity
  8
0
  6
CONTINUOUS
 62
     7
100
AcDbLine
 10
263.2664708376
 20
407.1443156771
 30
0.0
 11
263.2664708376
 21
401.1443156771
 31
0.0
  0
LINE
  5
221
330
1F
100
AcDbEntity
  8
0
  6
CONTINUOUS
 62
     7
100
AcDbLine
 10
251.2664708376
 20
401.1443156771
 30
0.0
 11
263.2664708376
 21
401.1443156771
 31
0.0
  0
LINE
  5
222
330
1F
100
AcDbEntity
  8
0
  6
CONTINUOUS
 62
     7
100
AcDbLine
 10
251.2664708376
 20
407.1443156771
 30
0.0
 11
251.2664708376
 21
401.1443156771
 31
0.0
  0
LINE
  5
223
330
1F
100
AcDbEntity
  8
0
  6
CONTINUOUS
 62
     7
100
AcDbLine
 10
246.2664708376
 20
407.1443156771
 30
0.0
 11
251.2664708376
 21
407.1443156771
 31
0.0
  0
ARC
  5
224
330
1F
100
AcDbEntity
  8
0
  6
CONTINUOUS
 62
     7
100
AcDbCircle
 10
264.811042905
 20
371.2959682494
 30
0.0
 40
8.07000000000005
100
AcDbArc
 50
90.0
 51
270.0
  0
CIRCLE
  5
225
330
1F
100
AcDbEntity
  8
0
  6
CONTINUOUS
 62
     7
100
AcDbCircle
 10
299.811042905
 20
371.2959682494
 30
0.0
 40
4.800000000000011
  0
CIRCLE
  5
226
330
1F
100
AcDbEntity
  8
0
  6
CONTINUOUS
 62
     7
100
AcDbCircle
 10
334.811042905
 20
371.2959682494
 30
0.0
 40
4.800000000000011
  0
CIRCLE
  5
227
330
1F
100
AcDbEntity
  8
0
  6
CONTINUOUS
 62
     7
100
AcDbCircle
 10
264.811042905
 20
371.2959682494
 30
0.0
 40
4.799999999999955
  0
LINE
  5
228
330
1F
100
AcDbEntity
  8
0
  6
CONTINUOUS
 62
     7
100
AcDbLine
 10
264.811042905
 20
379.3659682494
 30
0.0
 11
334.811042905
 21
379.3659682494
 31
0.0
  0
ARC
  5
229
330
1F
100
AcDbEntity
  8
0
  6
CONTINUOUS
 62
     7
100
AcDbCircle
 10
334.811042905
 20
371.2959682494
 30
0.0
 40
8.07000000000005
100
AcDbArc
 50
270.0
 51
90.0
  0
LINE
  5
22A
330
1F
100
AcDbEntity
  8
0
  6
CONTINUOUS
 62
     7
100
AcDbLine
 10
264.811042905
 20
363.2259682494
 30
0.0
 11
334.811042905
 21
363.2259682494
 31
0.0
  0
INSERT
  5
236
330
1F
100
AcDbEntity
  8
0
  6
CONTINUOUS
 62
     7
100
AcDbBlockReference
  2
SW_CENTERMARKSYMBOL_14
 10
334.811042905
 20
371.2959682494
 30
0.0
  0
INSERT
  5
242
330
1F
100
AcDbEntity
  8
0
  6
CONTINUOUS
 62
     7
100
AcDbBlockReference
  2
SW_CENTERMARKSYMBOL_15
 10
264.811042905
 20
371.2959682494
 30
0.0
  0
INSERT
  5
24E
330
1F
100
AcDbEntity
  8
0
  6
CONTINUOUS
 62
     7
100
AcDbBlockReference
  2
SW_CENTERMARKSYMBOL_16
 10
299.811042905
 20
371.2959682494
 30
0.0
  0
LINE
  5
24F
330
1F
100
AcDbEntity
  8
0
  6
CONTINUOUS
 62
     7
100
AcDbLine
 10
279.8997785704
 20
303.0763477915
 30
0.0
 11
259.3497785704
 21
303.0763477915
 31
0.0
  0
LINE
  5
250
330
1F
100
AcDbEntity
  8
0
  6
CONTINUOUS
 62
     7
100
AcDbLine
 10
259.3497785704
 20
303.0763477915
 30
0.0
 11
259.3497785704
 21
343.9763477915
 31
0.0
  0
LINE
  5
251
330
1F
100
AcDbEntity
  8
0
  6
CONTINUOUS
 62
     7
100
AcDbLine
 10
271.2797785704
 20
343.9763477915
 30
0.0
 11
259.3497785704
 21
343.9763477915
 31
0.0
  0
LINE
  5
252
330
1F
100
AcDbEntity
  8
0
  6
CONTINUOUS
 62
     7
100
AcDbLine
 10
271.2797785704
 20
343.9763477915
 30
0.0
 11
271.2797785704
 21
349.9763477915
 31
0.0
  0
LINE
  5
253
330
1F
100
AcDbEntity
  8
0
  6
CONTINUOUS
 62
     7
100
AcDbLine
 10
271.2797785704
 20
349.9763477915
 30
0.0
 11
283.2797785704
 21
349.9763477915
 31
0.0
  0
LINE
  5
254
330
1F
100
AcDbEntity
  8
0
  6
CONTINUOUS
 62
     7
100
AcDbLine
 10
283.2797785704
 20
343.9763477915
 30
0.0
 11
283.2797785704
 21
349.9763477915
 31
0.0
  0
LINE
  5
255
330
1F
100
AcDbEntity
  8
0
  6
CONTINUOUS
 62
     7
100
AcDbLine
 10
317.4197785704
 20
343.9763477915
 30
0.0
 11
283.2797785704
 21
343.9763477915
 31
0.0
  0
LINE
  5
256
330
1F
100
AcDbEntity
  8
0
  6
CONTINUOUS
 62
     7
100
AcDbLine
 10
317.4197785704
 20
343.9763477915
 30
0.0
 11
317.4197785704
 21
349.9763477915
 31
0.0
  0
LINE
  5
257
330
1F
100
AcDbEntity
  8
0
  6
CONTINUOUS
 62
     7
100
AcDbLine
 10
329.4197785704
 20
349.9763477915
 30
0.0
 11
317.4197785704
 21
349.9763477915
 31
0.0
  0
LINE
  5
258
330
1F
100
AcDbEntity
  8
0
  6
CONTINUOUS
 62
     7
100
AcDbLine
 10
329.4197785704
 20
343.9763477915
 30
0.0
 11
329.4197785704
 21
349.9763477915
 31
0.0
  0
LINE
  5
259
330
1F
100
AcDbEntity
  8
0
  6
CONTINUOUS
 62
     7
100
AcDbLine
 10
341.3497785704
 20
343.9763477915
 30
0.0
 11
329.4197785704
 21
343.9763477915
 31
0.0
  0
LINE
  5
25A
330
1F
100
AcDbEntity
  8
0
  6
CONTINUOUS
 62
     7
100
AcDbLine
 10
341.3497785704
 20
303.0763477915
 30
0.0
 11
341.3497785704
 21
343.9763477915
 31
0.0
  0
LINE
  5
25B
330
1F
100
AcDbEntity
  8
0
  6
CONTINUOUS
 62
     7
100
AcDbLine
 10
341.3497785704
 20
303.0763477915
 30
0.0
 11
320.7997785704
 21
303.0763477915
 31
0.0
  0
ARC
  5
25C
330
1F
100
AcDbEntity
  8
0
  6
CONTINUOUS
 62
     7
100
AcDbCircle
 10
300.3497785704
 20
303.0763477915
 30
0.0
 40
20.44999999999999
100
AcDbArc
 50
0.0
 51
180.0
  0
LINE
  5
25D
330
1F
100
AcDbEntity
  8
0
  6
CONTINUOUS
 62
     7
100
AcDbLine
 10
277.4783515206
 20
216.5520020182
 30
0.0
 11
277.4717874388
 21
208.4029444381
 31
0.0
  0
LINE
  5
25E
330
1F
100
AcDbEntity
  8
0
  6
CONTINUOUS
 62
     7
100
AcDbLine
 10
278.9841579722
 20
252.0020020182
 30
0.0
 11
279.7925556664
 21
262.4438055682
 31
0.0
  0
CIRCLE
  5
25F
330
1F
100
AcDbEntity
  8
0
  6
CONTINUOUS
 62
     7
100
AcDbCircle
 10
272.6783515206
 20
231.6020020182
 30
0.0
 40
1.25
  0
CIRCLE
  5
260
330
1F
100
AcDbEntity
  8
0
  6
CONTINUOUS
 62
     7
100
AcDbCircle
 10
272.6783515206
 20
246.9020020182
 30
0.0
 40
1.249999999999972
  0
CIRCLE
  5
261
330
1F
100
AcDbEntity
  8
0
  6
CONTINUOUS
 62
     7
100
AcDbCircle
 10
272.6783515206
 20
241.8020020182
 30
0.0
 40
1.25
  0
CIRCLE
  5
262
330
1F
100
AcDbEntity
  8
0
  6
CONTINUOUS
 62
     7
100
AcDbCircle
 10
272.6783515206
 20
236.7020020182
 30
0.0
 40
1.25
  0
ARC
  5
263
330
1F
100
AcDbEntity
  8
0
  6
CONTINUOUS
 62
     7
100
AcDbCircle
 10
272.6783515206
 20
263.5520020182
 30
0.0
 40
12.0
100
AcDbArc
 50
0.0
 51
180.0
  0
ARC
  5
264
330
1F
100
AcDbEntity
  8
0
  6
CONTINUOUS
 62
     7
100
AcDbCircle
 10
272.6783515206
 20
263.5520020182
 30
0.0
 40
7.200000000000019
100
AcDbArc
 50
351.146056705
 51
188.853943295
  0
LINE
  5
265
330
1F
100
AcDbEntity
  8
0
  6
CONTINUOUS
 62
     7
100
AcDbLine
 10
266.3725450689
 20
252.0020020182
 30
0.0
 11
265.5641473748
 21
262.4438055682
 31
0.0
  0
LINE
  5
266
330
1F
100
AcDbEntity
  8
0
  6
CONTINUOUS
 62
     7
100
AcDbLine
 10
266.3725450689
 20
252.0020020182
 30
0.0
 11
278.9841579722
 21
252.0020020182
 31
0.0
  0
LINE
  5
267
330
1F
100
AcDbEntity
  8
0
  6
CONTINUOUS
 62
     7
100
AcDbLine
 10
284.6783515206
 20
263.5520020182
 30
0.0
 11
280.6783515206
 21
208.1520020182
 31
0.0
  0
ARC
  5
268
330
1F
100
AcDbEntity
  8
0
  6
CONTINUOUS
 62
     7
100
AcDbCircle
 10
272.6783515206
 20
208.1520020182
 30
0.0
 40
8.0
100
AcDbArc
 50
180.0
 51
0.0
  0
LINE
  5
269
330
1F
100
AcDbEntity
  8
0
  6
CONTINUOUS
 62
     7
100
AcDbLine
 10
260.6783515206
 20
263.5520020182
 30
0.0
 11
264.6783515206
 21
208.1520020182
 31
0.0
  0
ARC
  5
26A
330
1F
100
AcDbEntity
  8
0
  6
CONTINUOUS
 62
     7
100
AcDbCircle
 10
272.6783515206
 20
216.5520020182
 30
0.0
 40
4.800000000000011
100
AcDbArc
 50
0.0
 51
180.0
  0
LINE
  5
26B
330
1F
100
AcDbEntity
  8
0
  6
CONTINUOUS
 62
     7
100
AcDbLine
 10
267.8783515206
 20
216.5520020182
 30
0.0
 11
267.8783515206
 21
208.1520020182
 31
0.0
  0
ARC
  5
26C
330
1F
100
AcDbEntity
  8
0
  6
CONTINUOUS
 62
     7
100
AcDbCircle
 10
272.6783515206
 20
208.1520020182
 30
0.0
 40
4.800000000000031
100
AcDbArc
 50
180.0
 51
2.9967706616
  0
INSERT
  5
278
330
1F
100
AcDbEntity
  8
0
  6
CONTINUOUS
 62
     7
100
AcDbBlockReference
  2
SW_CENTERMARKSYMBOL_17
 10
272.6783515206
 20
236.7020020182
 30
0.0
  0
INSERT
  5
284
330
1F
100
AcDbEntity
  8
0
  6
CONTINUOUS
 62
     7
100
AcDbBlockReference
  2
SW_CENTERMARKSYMBOL_18
 10
272.6783515206
 20
241.8020020182
 30
0.0
  0
INSERT
  5
290
330
1F
100
AcDbEntity
  8
0
  6
CONTINUOUS
 62
     7
100
AcDbBlockReference
  2
SW_CENTERMARKSYMBOL_19
 10
272.6783515206
 20
246.9020020182
 30
0.0
  0
INSERT
  5
29C
330
1F
100
AcDbEntity
  8
0
  6
CONTINUOUS
 62
     7
100
AcDbBlockReference
  2
SW_CENTERMARKSYMBOL_20
 10
272.6783515206
 20
231.6020020182
 30
0.0
  0
LINE
  5
29D
330
1F
100
AcDbEntity
  8
0
  6
CONTINUOUS
 62
     7
100
AcDbLine
 10
383.0068357479
 20
776.485968262
 30
0.0
 11
375.0068357479
 21
776.485968262
 31
0.0
  0
LINE
  5
29E
330
1F
100
AcDbEntity
  8
0
  6
CONTINUOUS
 62
     7
100
AcDbLine
 10
383.0068357479
 20
776.485968262
 30
0.0
 11
383.0068357479
 21
782.485968262
 31
0.0
  0
LINE
  5
29F
330
1F
100
AcDbEntity
  8
0
  6
CONTINUOUS
 62
     7
100
AcDbLine
 10
383.0068357479
 20
782.485968262
 30
0.0
 11
395.0068357479
 21
782.485968262
 31
0.0
  0
LINE
  5
2A0
330
1F
100
AcDbEntity
  8
0
  6
CONTINUOUS
 62
     7
100
AcDbLine
 10
395.0068357479
 20
776.485968262
 30
0.0
 11
395.0068357479
 21
782.485968262
 31
0.0
  0
LINE
  5
2A1
330
1F
100
AcDbEntity
  8
0
  6
CONTINUOUS
 62
     7
100
AcDbLine
 10
435.0068357479
 20
776.485968262
 30
0.0
 11
395.0068357479
 21
776.485968262
 31
0.0
  0
LINE
  5
2A2
330
1F
100
AcDbEntity
  8
0
  6
CONTINUOUS
 62
     7
100
AcDbLine
 10
435.0068357479
 20
776.485968262
 30
0.0
 11
435.0068357479
 21
782.485968262
 31
0.0
  0
LINE
  5
2A3
330
1F
100
AcDbEntity
  8
0
  6
CONTINUOUS
 62
     7
100
AcDbLine
 10
447.0068357479
 20
782.485968262
 30
0.0
 11
435.0068357479
 21
782.485968262
 31
0.0
  0
LINE
  5
2A4
330
1F
100
AcDbEntity
  8
0
  6
CONTINUOUS
 62
     7
100
AcDbLine
 10
447.0068357479
 20
776.485968262
 30
0.0
 11
447.0068357479
 21
782.485968262
 31
0.0
  0
LINE
  5
2A5
330
1F
100
AcDbEntity
  8
0
  6
CONTINUOUS
 62
     7
100
AcDbLine
 10
455.0068357479
 20
776.485968262
 30
0.0
 11
447.0068357479
 21
776.485968262
 31
0.0
  0
LINE
  5
2A6
330
1F
100
AcDbEntity
  8
0
  6
CONTINUOUS
 62
     7
100
AcDbLine
 10
455.0068357479
 20
749.885968262
 30
0.0
 11
455.0068357479
 21
776.485968262
 31
0.0
  0
LINE
  5
2A7
330
1F
100
AcDbEntity
  8
0
  6
CONTINUOUS
 62
     7
100
AcDbLine
 10
455.0068357479
 20
749.885968262
 30
0.0
 11
375.0068357479
 21
749.885968262
 31
0.0
  0
LINE
  5
2A8
330
1F
100
AcDbEntity
  8
0
  6
CONTINUOUS
 62
     7
100
AcDbLine
 10
375.0068357479
 20
749.885968262
 30
0.0
 11
375.0068357479
 21
776.485968262
 31
0.0
  0
CIRCLE
  5
2A9
330
1F
100
AcDbEntity
  8
0
  6
CONTINUOUS
 62
     7
100
AcDbCircle
 10
305.7824198777
 20
267.3191753742
 30
0.0
 40
4.800000000000011
  0
INSERT
  5
2B5
330
1F
100
AcDbEntity
  8
0
  6
CONTINUOUS
 62
     7
100
AcDbBlockReference
  2
SW_CENTERMARKSYMBOL_21
 10
305.7824198777
 20
267.3191753742
 30
0.0
  0
CIRCLE
  5
2B6
330
1F
100
AcDbEntity
  8
0
  6
CONTINUOUS
 62
     7
100
AcDbCircle
 10
309.7132160363
 20
216.4064072542
 30
0.0
 40
4.800000000000011
  0
INSERT
  5
2C2
330
1F
100
AcDbEntity
  8
0
  6
CONTINUOUS
 62
     7
100
AcDbBlockReference
  2
SW_CENTERMARKSYMBOL_22
 10
309.7132160363
 20
216.4064072542
 30
0.0
  0
CIRCLE
  5
2C3
330
1F
100
AcDbEntity
  8
0
  6
CONTINUOUS
 62
     7
100
AcDbCircle
 10
335.133196648
 20
217.1224630461
 30
0.0
 40
4.800000000000011
  0
INSERT
  5
2CF
330
1F
100
AcDbEntity
  8
0
  6
CONTINUOUS
 62
     7
100
AcDbBlockReference
  2
SW_CENTERMARKSYMBOL_23
 10
335.133196648
 20
217.1224630461
 30
0.0
  0
MTEXT
  5
2D1
330
1F
100
AcDbEntity
  8
0
  6
CONTINUOUS
 62
     7
100
AcDbMText
 10
0.0
 20
40.5789832663
 30
0.0
 40
14.5493
 41
0.0
 71
     1
 72
     1
  1
SOLIDWORKS Educational Product.
  7
SLDTEXTSTYLE0
  0
MTEXT
  5
2D2
330
1F
100
AcDbEntity
  8
0
  6
CONTINUOUS
 62
     7
100
AcDbMText
 10
0.0
 20
18.7550332663
 30
0.0
 40
14.5493
 41
0.0
 71
     1
 72
     1
  1
For Instructional Use Only.
  7
SLDTEXTSTYLE0
  0
ENDSEC
  0
SECTION
  2
OBJECTS
  0
DICTIONARY
  5
C
330
0
100
AcDbDictionary
  3
ACAD_GROUP
350
D
  3
ACAD_MLINESTYLE
350
17
  3
ACAD_SCALELIST
350
47
  3
DWGPROPS
350
2D3
1001
ACAD
1000
TREAT_AS_HARD
1070
     0
  0
DICTIONARY
  5
D
102
{ACAD_REACTORS
330
C
102
}
330
C
100
AcDbDictionary
1001
ACAD
1000
TREAT_AS_HARD
1070
     0
  0
DICTIONARY
  5
17
102
{ACAD_REACTORS
330
C
102
}
330
C
100
AcDbDictionary
  3
STANDARD
350
18
1001
ACAD
1000
TREAT_AS_HARD
1070
     0
  0
DICTIONARY
  5
47
102
{ACAD_REACTORS
330
C
102
}
330
C
100
AcDbDictionary
1001
ACAD
1000
TREAT_AS_HARD
1070
     0
  0
XRECORD
  5
2D3
102
{ACAD_REACTORS
330
C
102
}
330
C
100
AcDbXrecord
  1
DWGPROPS COOKIE
  2

  3

  4

  6

  7

  8
Joel Tolley
  9

300
=
301
=
302
=
303
=
304
=
305
=
306
=
307
=
308
=
309
=
 40
0.0
 41
2460885.153839294
 42
2460885.153839815
  1

 90
        0
  0
MLINESTYLE
  5
18
102
{ACAD_REACTORS
330
17
102
}
330
17
100
AcDbMlineStyle
  2
Standard
 70
     0
  3

 62
   256
 51
90.0
 52
90.0
 71
     2
 49
0.5
 62
   256
  6
BYLAYER
 49
-0.5
 62
   256
  6
BYLAYER
  0
ENDSEC
  0
EOF
