  0
SECTION
  2
HEADER
  9
$ACADVER
  1
AC1012
  9
$DWGCODEPAGE
  3
ansi_1252
  9
$INSBASE
 10
0.0
 20
0.0
 30
0.0
  9
$EXTMIN
 10
-9.0842833178
 20
14.009753408
 30
0.0
  9
$EXTMAX
 10
70.9157166822
 20
171.509753408
 30
0.0
  9
$LIMMIN
 10
0.0
 20
0.0
  9
$LIMMAX
 10
420.0
 20
297.0
  9
$ORTHOMODE
 70
     0
  9
$REGENMODE
 70
     1
  9
$FILLMODE
 70
     1
  9
$QTEXTMODE
 70
     0
  9
$MIRRTEXT
 70
     1
  9
$DRAGMODE
 70
     2
  9
$LTSCALE
 40
1.0
  9
$OSMODE
 70
    37
  9
$ATTMODE
 70
     1
  9
$TEXTSIZE
 40
3.5
  9
$TRACEWID
 40
1.0
  9
$TEXTSTYLE
  7
STANDARD
  9
$CLAYER
  8
0
  9
$CELTYPE
  6
BYLAYER
  9
$CECOLOR
 62
   256
  9
$CELTSCALE
 40
1.0
  9
$DELOBJ
 70
     1
  9
$DISPSILH
 70
     0
  9
$DIMSCALE
 40
1.0
  9
$DIMASZ
 40
3.302
  9
$DIMEXO
 40
0.0
  9
$DIMDLI
 40
3.75
  9
$DIMRND
 40
0.0
  9
$DIMDLE
 40
0.0
  9
$DIMEXE
 40
3.175
  9
$DIMTP
 40
0.0
  9
$DIMTM
 40
0.0
  9
$DIMTXT
 40
3.5
  9
$DIMCEN
 40
2.5
  9
$DIMTSZ
 40
0.0
  9
$DIMTOL
 70
     0
  9
$DIMLIM
 70
     0
  9
$DIMTIH
 70
     1
  9
$DIMTOH
 70
     1
  9
$DIMSE1
 70
     0
  9
$DIMSE2
 70
     0
  9
$DIMTAD
 70
     1
  9
$DIMZIN
 70
     1
  9
$DIMBLK
  1

  9
$DIMASO
 70
     1
  9
$DIMSHO
 70
     1
  9
$DIMPOST
  1

  9
$DIMAPOST
  1

  9
$DIMALT
 70
     0
  9
$DIMALTD
 70
     3
  9
$DIMALTF
 40
0.0393700787
  9
$DIMLFAC
 40
1.0
  9
$DIMTOFL
 70
     1
  9
$DIMTVP
 40
0.0
  9
$DIMTIX
 70
     0
  9
$DIMSOXD
 70
     0
  9
$DIMSAH
 70
     0
  9
$DIMBLK1
  1

  9
$DIMBLK2
  1

  9
$DIMSTYLE
  2
ISO-25
  9
$DIMCLRD
 70
     0
  9
$DIMCLRE
 70
     0
  9
$DIMCLRT
 70
     0
  9
$DIMTFAC
 40
1.0
  9
$DIMGAP
 40
1.524
  9
$DIMJUST
 70
     0
  9
$DIMSD1
 70
     0
  9
$DIMSD2
 70
     0
  9
$DIMTOLJ
 70
     0
  9
$DIMTZIN
 70
     1
  9
$DIMALTZ
 70
     0
  9
$DIMALTTZ
 70
     0
  9
$DIMFIT
 70
     3
  9
$DIMUPT
 70
     0
  9
$DIMUNIT
 70
     2
  9
$DIMDEC
 70
     2
  9
$DIMTDEC
 70
     2
  9
$DIMALTU
 70
     2
  9
$DIMALTTD
 70
     3
  9
$DIMTXSTY
  7
STANDARD
  9
$DIMAUNIT
 70
     0
  9
$LUNITS
 70
     2
  9
$LUPREC
 70
     2
  9
$SKETCHINC
 40
1.0
  9
$FILLETRAD
 40
0.0
  9
$AUNITS
 70
     0
  9
$AUPREC
 70
     2
  9
$MENU
  1
.
  9
$ELEVATION
 40
0.0
  9
$PELEVATION
 40
0.0
  9
$THICKNESS
 40
0.0
  9
$LIMCHECK
 70
     0
  9
$CHAMFERA
 40
0.0
  9
$CHAMFERB
 40
0.0
  9
$CHAMFERC
 40
0.0
  9
$CHAMFERD
 40
0.0
  9
$SKPOLY
 70
     0
  9
$TDCREATE
 40
2460891.508929815
  9
$TDUPDATE
 40
2460891.509013959
  9
$TDINDWG
 40
0.0000000116
  9
$TDUSRTIMER
 40
0.0000000116
  9
$USRTIMER
 70
     1
  9
$ANGBASE
 50
0.0
  9
$ANGDIR
 70
     0
  9
$PDMODE
 70
     0
  9
$PDSIZE
 40
-1.0
  9
$PLINEWID
 40
0.0
  9
$COORDS
 70
     1
  9
$SPLFRAME
 70
     0
  9
$SPLINETYPE
 70
     6
  9
$SPLINESEGS
 70
     8
  9
$ATTDIA
 70
     0
  9
$ATTREQ
 70
     1
  9
$HANDLING
 70
     1
  9
$HANDSEED
  5
20D
  9
$SURFTAB1
 70
     6
  9
$SURFTAB2
 70
     6
  9
$SURFTYPE
 70
     6
  9
$SURFU
 70
     6
  9
$SURFV
 70
     6
  9
$UCSNAME
  2

  9
$UCSORG
 10
0.0
 20
0.0
 30
0.0
  9
$UCSXDIR
 10
1.0
 20
0.0
 30
0.0
  9
$UCSYDIR
 10
0.0
 20
1.0
 30
0.0
  9
$PUCSNAME
  2

  9
$PUCSORG
 10
0.0
 20
0.0
 30
0.0
  9
$PUCSXDIR
 10
1.0
 20
0.0
 30
0.0
  9
$PUCSYDIR
 10
0.0
 20
1.0
 30
0.0
  9
$USERI1
 70
     0
  9
$USERI2
 70
     0
  9
$USERI3
 70
     0
  9
$USERI4
 70
     0
  9
$USERI5
 70
     0
  9
$USERR1
 40
0.0
  9
$USERR2
 40
0.0
  9
$USERR3
 40
0.0
  9
$USERR4
 40
0.0
  9
$USERR5
 40
0.0
  9
$WORLDVIEW
 70
     1
  9
$SHADEDGE
 70
     3
  9
$SHADEDIF
 70
    70
  9
$TILEMODE
 70
     1
  9
$MAXACTVP
 70
    64
  9
$PINSBASE
 10
0.0
 20
0.0
 30
0.0
  9
$PLIMCHECK
 70
     0
  9
$PEXTMIN
 10
1.0000000000E+20
 20
1.0000000000E+20
 30
1.0000000000E+20
  9
$PEXTMAX
 10
-1.0000000000E+20
 20
-1.0000000000E+20
 30
-1.0000000000E+20
  9
$PLIMMIN
 10
0.0
 20
0.0
  9
$PLIMMAX
 10
420.0
 20
297.0
  9
$UNITMODE
 70
     0
  9
$VISRETAIN
 70
     1
  9
$PLINEGEN
 70
     0
  9
$PSLTSCALE
 70
     1
  9
$TREEDEPTH
 70
  3020
  9
$PICKSTYLE
 70
     1
  9
$CMLSTYLE
  2
STANDARD
  9
$CMLJUST
 70
     0
  9
$CMLSCALE
 40
20.0
  9
$SAVEIMAGES
 70
     1
  0
ENDSEC
  0
SECTION
  2
CLASSES
  0
CLASS
  1
ACDBDICTIONARYWDFLT
  2
AcDbDictionaryWithDefault
  3
ObjectDBX Classes
 90
    32768
280
     0
281
     0
  0
CLASS
  1
VISUALSTYLE
  2
AcDbVisualStyle
  3
ObjectDBX Classes
 90
     4095
280
     0
281
     0
  0
CLASS
  1
MATERIAL
  2
AcDbMaterial
  3
ObjectDBX Classes
 90
     1153
280
     0
281
     0
  0
CLASS
  1
SCALE
  2
AcDbScale
  3
ObjectDBX Classes
 90
     1153
280
     0
281
     0
  0
CLASS
  1
TABLESTYLE
  2
AcDbTableStyle
  3
ObjectDBX Classes
 90
     4095
280
     0
281
     0
  0
CLASS
  1
MLEADERSTYLE
  2
AcDbMLeaderStyle
  3
ACDB_MLEADERSTYLE_CLASS
 90
     4095
280
     0
281
     0
  0
CLASS
  1
SUN
  2
AcDbSun
  3
SCENEOE
 90
     1153
280
     0
281
     0
  0
CLASS
  1
XRECORD
  2
AcDbXrecord
  3
ObjectDBX Classes
 90
    32768
280
     0
281
     0
  0
ENDSEC
  0
SECTION
  2
TABLES
  0
TABLE
  2
VPORT
  5
8
330
0
100
AcDbSymbolTable
 70
     1
  0
VPORT
  5
29
330
8
100
AcDbSymbolTableRecord
100
AcDbViewportTableRecord
  2
*ACTIVE
 70
     0
 10
0.0
 20
0.0
 11
1.0
 21
1.0
 12
30.9157166822
 22
92.759753408
 13
0.0
 23
0.0
 14
10.0
 24
10.0
 15
10.0
 25
10.0
 16
0.0
 26
0.0
 36
1.0
 17
0.0
 27
0.0
 37
0.0
 40
160.65
 41
0.5079365079
 42
50.0
 43
0.0
 44
0.0
 50
0.0
 51
0.0
 71
     0
 72
   100
 73
     1
 74
     3
 75
     0
 76
     0
 77
     0
 78
     0
  0
ENDTAB
  0
TABLE
  2
LTYPE
  5
5
330
0
100
AcDbSymbolTable
 70
     6
  0
LTYPE
  5
14
330
5
100
AcDbSymbolTableRecord
100
AcDbLinetypeTableRecord
  2
BYBLOCK
 70
     0
  3

 72
    65
 73
     0
 40
0.0
  0
LTYPE
  5
15
330
5
100
AcDbSymbolTableRecord
100
AcDbLinetypeTableRecord
  2
BYLAYER
 70
     0
  3

 72
    65
 73
     0
 40
0.0
  0
LTYPE
  5
16
330
5
100
AcDbSymbolTableRecord
100
AcDbLinetypeTableRecord
  2
CONTINUOUS
 70
     0
  3
Solid line
 72
    65
 73
     0
 40
0.0
  0
LTYPE
  5
5E
330
5
100
AcDbSymbolTableRecord
100
AcDbLinetypeTableRecord
  2
HIDDEN
 70
     0
  3
Hidden __ __ __ __ __ __ __ __ __ __ __ __ __ __
 72
    65
 73
     2
 40
1.905
 49
1.27
 74
     0
 49
-0.635
 74
     0
  0
LTYPE
  5
5F
330
5
100
AcDbSymbolTableRecord
100
AcDbLinetypeTableRecord
  2
PHANTOM
 70
     0
  3
Phantom ______  __  __  ______  __  __  ______
 72
    65
 73
     6
 40
12.7
 49
6.35
 74
     0
 49
-1.27
 74
     0
 49
1.27
 74
     0
 49
-1.27
 74
     0
 49
1.27
 74
     0
 49
-1.27
 74
     0
  0
LTYPE
  5
60
330
5
100
AcDbSymbolTableRecord
100
AcDbLinetypeTableRecord
  2
CENTER
 70
     0
  3
Center ____ _ ____ _ ____ _ ____ _ ____ _ ____
 72
    65
 73
     4
 40
10.16
 49
6.35
 74
     0
 49
-1.27
 74
     0
 49
1.27
 74
     0
 49
-1.27
 74
     0
  0
LTYPE
  5
61
330
5
100
AcDbSymbolTableRecord
100
AcDbLinetypeTableRecord
  2
CENTERX2
 70
     0
  3
Center (2x) ________  __  ________  __  _____
 72
    65
 73
     4
 40
20.32
 49
12.7
 74
     0
 49
-2.54
 74
     0
 49
2.54
 74
     0
 49
-2.54
 74
     0
  0
LTYPE
  5
62
330
5
100
AcDbSymbolTableRecord
100
AcDbLinetypeTableRecord
  2
DOT2
 70
     0
  3
Dot (.5x) ........................................
 72
    65
 73
     2
 40
0.635
 49
0.0
 74
     0
 49
-0.635
 74
     0
  0
ENDTAB
  0
TABLE
  2
LAYER
  5
2
330
0
100
AcDbSymbolTable
 70
     1
  0
LAYER
  5
10
330
2
100
AcDbSymbolTableRecord
100
AcDbLayerTableRecord
  2
0
 70
     0
 62
     7
  6
CONTINUOUS
  0
ENDTAB
  0
TABLE
  2
STYLE
  5
3
330
0
100
AcDbSymbolTable
 70
     2
  0
STYLE
  5
11
330
3
100
AcDbSymbolTableRecord
100
AcDbTextStyleTableRecord
  2
STANDARD
 70
     0
 40
0.0
 41
1.0
 50
0.0
 71
     0
 42
3.5
  3
txt
  4

  0
STYLE
  5
209
330
3
100
AcDbSymbolTableRecord
100
AcDbTextStyleTableRecord
  2
SLDTEXTSTYLE0
 70
     0
 40
0.0
 41
0.7
 50
0.0
 71
     0
 42
3.5
  3
TXT
  4

  0
ENDTAB
  0
TABLE
  2
VIEW
  5
6
330
0
100
AcDbSymbolTable
 70
     0
  0
ENDTAB
  0
TABLE
  2
UCS
  5
7
330
0
100
AcDbSymbolTable
 70
     0
  0
ENDTAB
  0
TABLE
  2
APPID
  5
9
330
0
100
AcDbSymbolTable
 70
     1
  0
APPID
  5
12
330
9
100
AcDbSymbolTableRecord
100
AcDbRegAppTableRecord
  2
ACAD
 70
     0
  0
ENDTAB
  0
TABLE
  2
DIMSTYLE
  5
A
330
0
100
AcDbSymbolTable
 70
     1
  0
DIMSTYLE
105
27
330
A
100
AcDbSymbolTableRecord
100
AcDbDimStyleTableRecord
  2
ISO-25
 70
     0
  3

  4

  5

  6

  7

 40
1.0
 41
2.5
 42
0.625
 43
3.75
 44
1.25
 45
0.0
 46
0.0
 47
0.0
 48
0.0
140
2.5
141
2.5
142
0.0
143
0.0393700787
144
1.0
145
0.0
146
1.0
147
0.625
 71
     0
 72
     0
 73
     0
 74
     0
 75
     0
 76
     0
 77
     1
 78
     8
170
     0
171
     3
172
     1
173
     0
174
     0
175
     0
176
     0
177
     0
178
     0
270
     2
271
     2
272
     2
273
     2
274
     3
340
11
275
     0
280
     0
281
     0
282
     0
283
     0
284
     8
285
     0
286
     0
287
     3
288
     0
  0
ENDTAB
  0
TABLE
  2
BLOCK_RECORD
  5
1
330
0
100
AcDbSymbolTable
 70
     1
  0
BLOCK_RECORD
  5
1F
330
1
100
AcDbSymbolTableRecord
100
AcDbBlockTableRecord
  2
*MODEL_SPACE
  0
BLOCK_RECORD
  5
1B
330
1
100
AcDbSymbolTableRecord
100
AcDbBlockTableRecord
  2
*PAPER_SPACE
  0
BLOCK_RECORD
  5
23
330
1
100
AcDbSymbolTableRecord
100
AcDbBlockTableRecord
  2
*PAPER_SPACE0
  0
ENDTAB
  0
ENDSEC
  0
SECTION
  2
BLOCKS
  0
BLOCK
  5
20
330
1F
100
AcDbEntity
  8
0
100
AcDbBlockBegin
  2
*MODEL_SPACE
 70
     0
 10
0.0
 20
0.0
 30
0.0
  3
*MODEL_SPACE
  1

  0
ENDBLK
  5
21
330
1F
100
AcDbEntity
  8
0
100
AcDbBlockEnd
  0
BLOCK
  5
1C
330
1B
100
AcDbEntity
 67
     1
  8
0
100
AcDbBlockBegin
  2
*PAPER_SPACE
 70
     0
 10
0.0
 20
0.0
 30
0.0
  3
*PAPER_SPACE
  1

  0
ENDBLK
  5
1D
330
1B
100
AcDbEntity
 67
     1
  8
0
100
AcDbBlockEnd
  0
BLOCK
  5
24
330
23
100
AcDbEntity
  8
0
100
AcDbBlockBegin
  2
*PAPER_SPACE0
 70
     0
 10
0.0
 20
0.0
 30
0.0
  3
*PAPER_SPACE0
  1

  0
ENDBLK
  5
25
330
23
100
AcDbEntity
  8
0
100
AcDbBlockEnd
  0
ENDSEC
  0
SECTION
  2
ENTITIES
  0
LINE
  5
63
330
1F
100
AcDbEntity
  8
0
  6
CONTINUOUS
 62
     7
100
AcDbLine
 10
-5.7692833177
 20
70.7647317473
 30
0.0
 11
-5.7692833177
 21
71.4047317474
 31
0.0
  0
LINE
  5
64
330
1F
100
AcDbEntity
  8
0
  6
CONTINUOUS
 62
     7
100
AcDbLine
 10
-6.4092833177
 20
70.7647317473
 30
0.0
 11
-5.7692833177
 21
70.7647317473
 31
0.0
  0
LINE
  5
65
330
1F
100
AcDbEntity
  8
0
  6
CONTINUOUS
 62
     7
100
AcDbLine
 10
-6.4092833177
 20
71.4047317474
 30
0.0
 11
-6.4092833177
 21
70.7647317473
 31
0.0
  0
LINE
  5
66
330
1F
100
AcDbEntity
  8
0
  6
CONTINUOUS
 62
     7
100
AcDbLine
 10
-5.7692833177
 20
71.4047317474
 30
0.0
 11
-6.4092833177
 21
71.4047317474
 31
0.0
  0
LINE
  5
67
330
1F
100
AcDbEntity
  8
0
  6
CONTINUOUS
 62
     7
100
AcDbLine
 10
-5.7692833177
 20
68.2247317473
 30
0.0
 11
-5.7692833177
 21
68.8647317473
 31
0.0
  0
LINE
  5
68
330
1F
100
AcDbEntity
  8
0
  6
CONTINUOUS
 62
     7
100
AcDbLine
 10
-6.4092833177
 20
68.2247317473
 30
0.0
 11
-5.7692833177
 21
68.2247317473
 31
0.0
  0
LINE
  5
69
330
1F
100
AcDbEntity
  8
0
  6
CONTINUOUS
 62
     7
100
AcDbLine
 10
-6.4092833177
 20
68.8647317473
 30
0.0
 11
-6.4092833177
 21
68.2247317473
 31
0.0
  0
LINE
  5
6A
330
1F
100
AcDbEntity
  8
0
  6
CONTINUOUS
 62
     7
100
AcDbLine
 10
-5.7692833177
 20
68.8647317473
 30
0.0
 11
-6.4092833177
 21
68.8647317473
 31
0.0
  0
LINE
  5
6B
330
1F
100
AcDbEntity
  8
0
  6
CONTINUOUS
 62
     7
100
AcDbLine
 10
-2.2392833176
 20
54.0947317473
 30
0.0
 11
-2.2392833176
 21
54.7347317473
 31
0.0
  0
LINE
  5
6C
330
1F
100
AcDbEntity
  8
0
  6
CONTINUOUS
 62
     7
100
AcDbLine
 10
-2.8792833176
 20
54.0947317473
 30
0.0
 11
-2.2392833176
 21
54.0947317473
 31
0.0
  0
LINE
  5
6D
330
1F
100
AcDbEntity
  8
0
  6
CONTINUOUS
 62
     7
100
AcDbLine
 10
-2.8792833176
 20
54.7347317473
 30
0.0
 11
-2.8792833176
 21
54.0947317473
 31
0.0
  0
LINE
  5
6E
330
1F
100
AcDbEntity
  8
0
  6
CONTINUOUS
 62
     7
100
AcDbLine
 10
-2.2392833176
 20
54.7347317473
 30
0.0
 11
-2.8792833176
 21
54.7347317473
 31
0.0
  0
LINE
  5
6F
330
1F
100
AcDbEntity
  8
0
  6
CONTINUOUS
 62
     7
100
AcDbLine
 10
-5.7692833177
 20
60.6047317473
 30
0.0
 11
-5.7692833177
 21
61.2447317473
 31
0.0
  0
LINE
  5
70
330
1F
100
AcDbEntity
  8
0
  6
CONTINUOUS
 62
     7
100
AcDbLine
 10
-6.4092833177
 20
60.6047317473
 30
0.0
 11
-5.7692833177
 21
60.6047317473
 31
0.0
  0
LINE
  5
71
330
1F
100
AcDbEntity
  8
0
  6
CONTINUOUS
 62
     7
100
AcDbLine
 10
-6.4092833177
 20
61.2447317473
 30
0.0
 11
-6.4092833177
 21
60.6047317473
 31
0.0
  0
LINE
  5
72
330
1F
100
AcDbEntity
  8
0
  6
CONTINUOUS
 62
     7
100
AcDbLine
 10
-5.7692833177
 20
61.2447317473
 30
0.0
 11
-6.4092833177
 21
61.2447317473
 31
0.0
  0
LINE
  5
73
330
1F
100
AcDbEntity
  8
0
  6
CONTINUOUS
 62
     7
100
AcDbLine
 10
-6.4092833177
 20
88.5447317473
 30
0.0
 11
-5.7692833177
 21
88.5447317473
 31
0.0
  0
LINE
  5
74
330
1F
100
AcDbEntity
  8
0
  6
CONTINUOUS
 62
     7
100
AcDbLine
 10
-6.4092833177
 20
89.1847317474
 30
0.0
 11
-6.4092833177
 21
88.5447317473
 31
0.0
  0
LINE
  5
75
330
1F
100
AcDbEntity
  8
0
  6
CONTINUOUS
 62
     7
100
AcDbLine
 10
-5.7692833177
 20
89.1847317474
 30
0.0
 11
-6.4092833177
 21
89.1847317474
 31
0.0
  0
LINE
  5
76
330
1F
100
AcDbEntity
  8
0
  6
CONTINUOUS
 62
     7
100
AcDbLine
 10
-5.7692833177
 20
88.5447317473
 30
0.0
 11
-5.7692833177
 21
89.1847317474
 31
0.0
  0
LINE
  5
77
330
1F
100
AcDbEntity
  8
0
  6
CONTINUOUS
 62
     7
100
AcDbLine
 10
-6.4092833177
 20
80.9247317473
 30
0.0
 11
-5.7692833177
 21
80.9247317473
 31
0.0
  0
LINE
  5
78
330
1F
100
AcDbEntity
  8
0
  6
CONTINUOUS
 62
     7
100
AcDbLine
 10
-6.4092833177
 20
81.5647317474
 30
0.0
 11
-6.4092833177
 21
80.9247317473
 31
0.0
  0
LINE
  5
79
330
1F
100
AcDbEntity
  8
0
  6
CONTINUOUS
 62
     7
100
AcDbLine
 10
-5.7692833177
 20
81.5647317474
 30
0.0
 11
-6.4092833177
 21
81.5647317474
 31
0.0
  0
LINE
  5
7A
330
1F
100
AcDbEntity
  8
0
  6
CONTINUOUS
 62
     7
100
AcDbLine
 10
-5.7692833177
 20
80.9247317473
 30
0.0
 11
-5.7692833177
 21
81.5647317474
 31
0.0
  0
LINE
  5
7B
330
1F
100
AcDbEntity
  8
0
  6
CONTINUOUS
 62
     7
100
AcDbLine
 10
-6.4092833177
 20
83.4647317473
 30
0.0
 11
-5.7692833177
 21
83.4647317473
 31
0.0
  0
LINE
  5
7C
330
1F
100
AcDbEntity
  8
0
  6
CONTINUOUS
 62
     7
100
AcDbLine
 10
-6.4092833177
 20
84.1047317474
 30
0.0
 11
-6.4092833177
 21
83.4647317473
 31
0.0
  0
LINE
  5
7D
330
1F
100
AcDbEntity
  8
0
  6
CONTINUOUS
 62
     7
100
AcDbLine
 10
-5.7692833177
 20
84.1047317474
 30
0.0
 11
-6.4092833177
 21
84.1047317474
 31
0.0
  0
LINE
  5
7E
330
1F
100
AcDbEntity
  8
0
  6
CONTINUOUS
 62
     7
100
AcDbLine
 10
-5.7692833177
 20
83.4647317473
 30
0.0
 11
-5.7692833177
 21
84.1047317474
 31
0.0
  0
LINE
  5
7F
330
1F
100
AcDbEntity
  8
0
  6
CONTINUOUS
 62
     7
100
AcDbLine
 10
-2.2392833176
 20
56.6347317473
 30
0.0
 11
-2.2392833176
 21
57.2747317473
 31
0.0
  0
LINE
  5
80
330
1F
100
AcDbEntity
  8
0
  6
CONTINUOUS
 62
     7
100
AcDbLine
 10
-2.8792833176
 20
56.6347317473
 30
0.0
 11
-2.2392833176
 21
56.6347317473
 31
0.0
  0
LINE
  5
81
330
1F
100
AcDbEntity
  8
0
  6
CONTINUOUS
 62
     7
100
AcDbLine
 10
-2.8792833176
 20
57.2747317473
 30
0.0
 11
-2.8792833176
 21
56.6347317473
 31
0.0
  0
LINE
  5
82
330
1F
100
AcDbEntity
  8
0
  6
CONTINUOUS
 62
     7
100
AcDbLine
 10
-2.2392833176
 20
57.2747317473
 30
0.0
 11
-2.8792833176
 21
57.2747317473
 31
0.0
  0
LINE
  5
83
330
1F
100
AcDbEntity
  8
0
  6
CONTINUOUS
 62
     7
100
AcDbLine
 10
18.9907166824
 20
80.9247317474
 30
0.0
 11
19.6307166824
 21
80.9247317474
 31
0.0
  0
LINE
  5
84
330
1F
100
AcDbEntity
  8
0
  6
CONTINUOUS
 62
     7
100
AcDbLine
 10
18.9907166824
 20
81.5647317474
 30
0.0
 11
18.9907166824
 21
80.9247317474
 31
0.0
  0
LINE
  5
85
330
1F
100
AcDbEntity
  8
0
  6
CONTINUOUS
 62
     7
100
AcDbLine
 10
19.6307166824
 20
81.5647317474
 30
0.0
 11
18.9907166824
 21
81.5647317474
 31
0.0
  0
LINE
  5
86
330
1F
100
AcDbEntity
  8
0
  6
CONTINUOUS
 62
     7
100
AcDbLine
 10
19.6307166824
 20
80.9247317474
 30
0.0
 11
19.6307166824
 21
81.5647317474
 31
0.0
  0
LINE
  5
87
330
1F
100
AcDbEntity
  8
0
  6
CONTINUOUS
 62
     7
100
AcDbLine
 10
18.9907166824
 20
78.3847317474
 30
0.0
 11
19.6307166824
 21
78.3847317474
 31
0.0
  0
LINE
  5
88
330
1F
100
AcDbEntity
  8
0
  6
CONTINUOUS
 62
     7
100
AcDbLine
 10
18.9907166824
 20
79.0247317474
 30
0.0
 11
18.9907166824
 21
78.3847317474
 31
0.0
  0
LINE
  5
89
330
1F
100
AcDbEntity
  8
0
  6
CONTINUOUS
 62
     7
100
AcDbLine
 10
19.6307166824
 20
79.0247317474
 30
0.0
 11
18.9907166824
 21
79.0247317474
 31
0.0
  0
LINE
  5
8A
330
1F
100
AcDbEntity
  8
0
  6
CONTINUOUS
 62
     7
100
AcDbLine
 10
19.6307166824
 20
78.3847317474
 30
0.0
 11
19.6307166824
 21
79.0247317474
 31
0.0
  0
LINE
  5
8B
330
1F
100
AcDbEntity
  8
0
  6
CONTINUOUS
 62
     7
100
AcDbLine
 10
18.9907166824
 20
65.6847317474
 30
0.0
 11
19.6307166824
 21
65.6847317474
 31
0.0
  0
LINE
  5
8C
330
1F
100
AcDbEntity
  8
0
  6
CONTINUOUS
 62
     7
100
AcDbLine
 10
18.9907166824
 20
66.3247317474
 30
0.0
 11
18.9907166824
 21
65.6847317474
 31
0.0
  0
LINE
  5
8D
330
1F
100
AcDbEntity
  8
0
  6
CONTINUOUS
 62
     7
100
AcDbLine
 10
19.6307166824
 20
66.3247317474
 30
0.0
 11
18.9907166824
 21
66.3247317474
 31
0.0
  0
LINE
  5
8E
330
1F
100
AcDbEntity
  8
0
  6
CONTINUOUS
 62
     7
100
AcDbLine
 10
19.6307166824
 20
65.6847317474
 30
0.0
 11
19.6307166824
 21
66.3247317474
 31
0.0
  0
LINE
  5
8F
330
1F
100
AcDbEntity
  8
0
  6
CONTINUOUS
 62
     7
100
AcDbLine
 10
18.9907166824
 20
63.1447317474
 30
0.0
 11
19.6307166824
 21
63.1447317474
 31
0.0
  0
LINE
  5
90
330
1F
100
AcDbEntity
  8
0
  6
CONTINUOUS
 62
     7
100
AcDbLine
 10
18.9907166824
 20
63.7847317474
 30
0.0
 11
18.9907166824
 21
63.1447317474
 31
0.0
  0
LINE
  5
91
330
1F
100
AcDbEntity
  8
0
  6
CONTINUOUS
 62
     7
100
AcDbLine
 10
19.6307166824
 20
63.7847317474
 30
0.0
 11
18.9907166824
 21
63.7847317474
 31
0.0
  0
LINE
  5
92
330
1F
100
AcDbEntity
  8
0
  6
CONTINUOUS
 62
     7
100
AcDbLine
 10
19.6307166824
 20
63.1447317474
 30
0.0
 11
19.6307166824
 21
63.7847317474
 31
0.0
  0
LINE
  5
93
330
1F
100
AcDbEntity
  8
0
  6
CONTINUOUS
 62
     7
100
AcDbLine
 10
18.9907166824
 20
70.7647317474
 30
0.0
 11
19.6307166824
 21
70.7647317474
 31
0.0
  0
LINE
  5
94
330
1F
100
AcDbEntity
  8
0
  6
CONTINUOUS
 62
     7
100
AcDbLine
 10
18.9907166824
 20
71.4047317474
 30
0.0
 11
18.9907166824
 21
70.7647317474
 31
0.0
  0
LINE
  5
95
330
1F
100
AcDbEntity
  8
0
  6
CONTINUOUS
 62
     7
100
AcDbLine
 10
19.6307166824
 20
71.4047317474
 30
0.0
 11
18.9907166824
 21
71.4047317474
 31
0.0
  0
LINE
  5
96
330
1F
100
AcDbEntity
  8
0
  6
CONTINUOUS
 62
     7
100
AcDbLine
 10
19.6307166824
 20
70.7647317474
 30
0.0
 11
19.6307166824
 21
71.4047317474
 31
0.0
  0
LINE
  5
97
330
1F
100
AcDbEntity
  8
0
  6
CONTINUOUS
 62
     7
100
AcDbLine
 10
18.9907166824
 20
68.2247317474
 30
0.0
 11
19.6307166824
 21
68.2247317474
 31
0.0
  0
LINE
  5
98
330
1F
100
AcDbEntity
  8
0
  6
CONTINUOUS
 62
     7
100
AcDbLine
 10
18.9907166824
 20
68.8647317474
 30
0.0
 11
18.9907166824
 21
68.2247317474
 31
0.0
  0
LINE
  5
99
330
1F
100
AcDbEntity
  8
0
  6
CONTINUOUS
 62
     7
100
AcDbLine
 10
19.6307166824
 20
68.8647317474
 30
0.0
 11
18.9907166824
 21
68.8647317474
 31
0.0
  0
LINE
  5
9A
330
1F
100
AcDbEntity
  8
0
  6
CONTINUOUS
 62
     7
100
AcDbLine
 10
19.6307166824
 20
68.2247317474
 30
0.0
 11
19.6307166824
 21
68.8647317474
 31
0.0
  0
LINE
  5
9B
330
1F
100
AcDbEntity
  8
0
  6
CONTINUOUS
 62
     7
100
AcDbLine
 10
-5.7692833177
 20
65.6847317473
 30
0.0
 11
-5.7692833177
 21
66.3247317473
 31
0.0
  0
LINE
  5
9C
330
1F
100
AcDbEntity
  8
0
  6
CONTINUOUS
 62
     7
100
AcDbLine
 10
-6.4092833177
 20
65.6847317473
 30
0.0
 11
-5.7692833177
 21
65.6847317473
 31
0.0
  0
LINE
  5
9D
330
1F
100
AcDbEntity
  8
0
  6
CONTINUOUS
 62
     7
100
AcDbLine
 10
-6.4092833177
 20
66.3247317473
 30
0.0
 11
-6.4092833177
 21
65.6847317473
 31
0.0
  0
LINE
  5
9E
330
1F
100
AcDbEntity
  8
0
  6
CONTINUOUS
 62
     7
100
AcDbLine
 10
-5.7692833177
 20
66.3247317473
 30
0.0
 11
-6.4092833177
 21
66.3247317473
 31
0.0
  0
LINE
  5
9F
330
1F
100
AcDbEntity
  8
0
  6
CONTINUOUS
 62
     7
100
AcDbLine
 10
-5.7692833177
 20
63.1447317473
 30
0.0
 11
-5.7692833177
 21
63.7847317473
 31
0.0
  0
LINE
  5
A0
330
1F
100
AcDbEntity
  8
0
  6
CONTINUOUS
 62
     7
100
AcDbLine
 10
-6.4092833177
 20
63.1447317473
 30
0.0
 11
-5.7692833177
 21
63.1447317473
 31
0.0
  0
LINE
  5
A1
330
1F
100
AcDbEntity
  8
0
  6
CONTINUOUS
 62
     7
100
AcDbLine
 10
-6.4092833177
 20
63.7847317473
 30
0.0
 11
-6.4092833177
 21
63.1447317473
 31
0.0
  0
LINE
  5
A2
330
1F
100
AcDbEntity
  8
0
  6
CONTINUOUS
 62
     7
100
AcDbLine
 10
-5.7692833177
 20
63.7847317473
 30
0.0
 11
-6.4092833177
 21
63.7847317473
 31
0.0
  0
LINE
  5
A3
330
1F
100
AcDbEntity
  8
0
  6
CONTINUOUS
 62
     7
100
AcDbLine
 10
49.7107166823
 20
95.2747317474
 30
0.0
 11
49.0707166823
 21
95.2747317474
 31
0.0
  0
LINE
  5
A4
330
1F
100
AcDbEntity
  8
0
  6
CONTINUOUS
 62
     7
100
AcDbLine
 10
49.7107166823
 20
94.6347317474
 30
0.0
 11
49.7107166823
 21
95.2747317474
 31
0.0
  0
LINE
  5
A5
330
1F
100
AcDbEntity
  8
0
  6
CONTINUOUS
 62
     7
100
AcDbLine
 10
49.0707166823
 20
94.6347317474
 30
0.0
 11
49.7107166823
 21
94.6347317474
 31
0.0
  0
LINE
  5
A6
330
1F
100
AcDbEntity
  8
0
  6
CONTINUOUS
 62
     7
100
AcDbLine
 10
49.0707166823
 20
95.2747317474
 30
0.0
 11
49.0707166823
 21
94.6347317474
 31
0.0
  0
LINE
  5
A7
330
1F
100
AcDbEntity
  8
0
  6
CONTINUOUS
 62
     7
100
AcDbLine
 10
42.0907166823
 20
105.4347317474
 30
0.0
 11
41.4507166823
 21
105.4347317474
 31
0.0
  0
LINE
  5
A8
330
1F
100
AcDbEntity
  8
0
  6
CONTINUOUS
 62
     7
100
AcDbLine
 10
42.0907166823
 20
104.7947317474
 30
0.0
 11
42.0907166823
 21
105.4347317474
 31
0.0
  0
LINE
  5
A9
330
1F
100
AcDbEntity
  8
0
  6
CONTINUOUS
 62
     7
100
AcDbLine
 10
41.4507166823
 20
104.7947317474
 30
0.0
 11
42.0907166823
 21
104.7947317474
 31
0.0
  0
LINE
  5
AA
330
1F
100
AcDbEntity
  8
0
  6
CONTINUOUS
 62
     7
100
AcDbLine
 10
41.4507166823
 20
105.4347317474
 30
0.0
 11
41.4507166823
 21
104.7947317474
 31
0.0
  0
LINE
  5
AB
330
1F
100
AcDbEntity
  8
0
  6
CONTINUOUS
 62
     7
100
AcDbLine
 10
56.7107166822
 20
109.6797534081
 30
0.0
 11
56.7107166822
 21
110.3197534081
 31
0.0
  0
LINE
  5
AC
330
1F
100
AcDbEntity
  8
0
  6
CONTINUOUS
 62
     7
100
AcDbLine
 10
56.0707166822
 20
109.6797534081
 30
0.0
 11
56.7107166822
 21
109.6797534081
 31
0.0
  0
LINE
  5
AD
330
1F
100
AcDbEntity
  8
0
  6
CONTINUOUS
 62
     7
100
AcDbLine
 10
56.0707166822
 20
110.3197534081
 30
0.0
 11
56.0707166822
 21
109.6797534081
 31
0.0
  0
LINE
  5
AE
330
1F
100
AcDbEntity
  8
0
  6
CONTINUOUS
 62
     7
100
AcDbLine
 10
56.7107166822
 20
110.3197534081
 30
0.0
 11
56.0707166822
 21
110.3197534081
 31
0.0
  0
LINE
  5
AF
330
1F
100
AcDbEntity
  8
0
  6
CONTINUOUS
 62
     7
100
AcDbLine
 10
49.7107166823
 20
102.8947317474
 30
0.0
 11
49.0707166823
 21
102.8947317474
 31
0.0
  0
LINE
  5
B0
330
1F
100
AcDbEntity
  8
0
  6
CONTINUOUS
 62
     7
100
AcDbLine
 10
49.7107166823
 20
102.2547317474
 30
0.0
 11
49.7107166823
 21
102.8947317474
 31
0.0
  0
LINE
  5
B1
330
1F
100
AcDbEntity
  8
0
  6
CONTINUOUS
 62
     7
100
AcDbLine
 10
49.0707166823
 20
102.2547317474
 30
0.0
 11
49.7107166823
 21
102.2547317474
 31
0.0
  0
LINE
  5
B2
330
1F
100
AcDbEntity
  8
0
  6
CONTINUOUS
 62
     7
100
AcDbLine
 10
49.0707166823
 20
102.8947317474
 30
0.0
 11
49.0707166823
 21
102.2547317474
 31
0.0
  0
LINE
  5
B3
330
1F
100
AcDbEntity
  8
0
  6
CONTINUOUS
 62
     7
100
AcDbLine
 10
49.7107166823
 20
92.7347317474
 30
0.0
 11
49.0707166823
 21
92.7347317474
 31
0.0
  0
LINE
  5
B4
330
1F
100
AcDbEntity
  8
0
  6
CONTINUOUS
 62
     7
100
AcDbLine
 10
49.7107166823
 20
92.0947317474
 30
0.0
 11
49.7107166823
 21
92.7347317474
 31
0.0
  0
LINE
  5
B5
330
1F
100
AcDbEntity
  8
0
  6
CONTINUOUS
 62
     7
100
AcDbLine
 10
49.0707166823
 20
92.0947317474
 30
0.0
 11
49.7107166823
 21
92.0947317474
 31
0.0
  0
LINE
  5
B6
330
1F
100
AcDbEntity
  8
0
  6
CONTINUOUS
 62
     7
100
AcDbLine
 10
49.0707166823
 20
92.7347317474
 30
0.0
 11
49.0707166823
 21
92.0947317474
 31
0.0
  0
LINE
  5
B7
330
1F
100
AcDbEntity
  8
0
  6
CONTINUOUS
 62
     7
100
AcDbLine
 10
54.4357166822
 20
63.5421100133
 30
0.0
 11
54.4357166822
 21
64.1821100133
 31
0.0
  0
LINE
  5
B8
330
1F
100
AcDbEntity
  8
0
  6
CONTINUOUS
 62
     7
100
AcDbLine
 10
53.7957166822
 20
63.5421100133
 30
0.0
 11
54.4357166822
 21
63.5421100133
 31
0.0
  0
LINE
  5
B9
330
1F
100
AcDbEntity
  8
0
  6
CONTINUOUS
 62
     7
100
AcDbLine
 10
53.7957166822
 20
64.1821100133
 30
0.0
 11
53.7957166822
 21
63.5421100133
 31
0.0
  0
LINE
  5
BA
330
1F
100
AcDbEntity
  8
0
  6
CONTINUOUS
 62
     7
100
AcDbLine
 10
54.4357166822
 20
64.1821100133
 30
0.0
 11
53.7957166822
 21
64.1821100133
 31
0.0
  0
LINE
  5
BB
330
1F
100
AcDbEntity
  8
0
  6
CONTINUOUS
 62
     7
100
AcDbLine
 10
56.0707166822
 20
119.8397534081
 30
0.0
 11
56.7107166822
 21
119.8397534081
 31
0.0
  0
LINE
  5
BC
330
1F
100
AcDbEntity
  8
0
  6
CONTINUOUS
 62
     7
100
AcDbLine
 10
56.0707166822
 20
120.4797534081
 30
0.0
 11
56.0707166822
 21
119.8397534081
 31
0.0
  0
LINE
  5
BD
330
1F
100
AcDbEntity
  8
0
  6
CONTINUOUS
 62
     7
100
AcDbLine
 10
56.7107166822
 20
120.4797534081
 30
0.0
 11
56.0707166822
 21
120.4797534081
 31
0.0
  0
LINE
  5
BE
330
1F
100
AcDbEntity
  8
0
  6
CONTINUOUS
 62
     7
100
AcDbLine
 10
56.7107166822
 20
119.8397534081
 30
0.0
 11
56.7107166822
 21
120.4797534081
 31
0.0
  0
LINE
  5
BF
330
1F
100
AcDbEntity
  8
0
  6
CONTINUOUS
 62
     7
100
AcDbLine
 10
56.0707166822
 20
90.8997534081
 30
0.0
 11
56.7107166822
 21
90.8997534081
 31
0.0
  0
LINE
  5
C0
330
1F
100
AcDbEntity
  8
0
  6
CONTINUOUS
 62
     7
100
AcDbLine
 10
56.0707166822
 20
91.5397534081
 30
0.0
 11
56.0707166822
 21
90.8997534081
 31
0.0
  0
LINE
  5
C1
330
1F
100
AcDbEntity
  8
0
  6
CONTINUOUS
 62
     7
100
AcDbLine
 10
56.7107166822
 20
91.5397534081
 30
0.0
 11
56.0707166822
 21
91.5397534081
 31
0.0
  0
LINE
  5
C2
330
1F
100
AcDbEntity
  8
0
  6
CONTINUOUS
 62
     7
100
AcDbLine
 10
56.7107166822
 20
90.8997534081
 30
0.0
 11
56.7107166822
 21
91.5397534081
 31
0.0
  0
LINE
  5
C3
330
1F
100
AcDbEntity
  8
0
  6
CONTINUOUS
 62
     7
100
AcDbLine
 10
-6.4092833177
 20
86.0047317473
 30
0.0
 11
-5.7692833177
 21
86.0047317473
 31
0.0
  0
LINE
  5
C4
330
1F
100
AcDbEntity
  8
0
  6
CONTINUOUS
 62
     7
100
AcDbLine
 10
-6.4092833177
 20
86.6447317474
 30
0.0
 11
-6.4092833177
 21
86.0047317473
 31
0.0
  0
LINE
  5
C5
330
1F
100
AcDbEntity
  8
0
  6
CONTINUOUS
 62
     7
100
AcDbLine
 10
-5.7692833177
 20
86.6447317474
 30
0.0
 11
-6.4092833177
 21
86.6447317474
 31
0.0
  0
LINE
  5
C6
330
1F
100
AcDbEntity
  8
0
  6
CONTINUOUS
 62
     7
100
AcDbLine
 10
-5.7692833177
 20
86.0047317473
 30
0.0
 11
-5.7692833177
 21
86.6447317474
 31
0.0
  0
LINE
  5
C7
330
1F
100
AcDbEntity
  8
0
  6
CONTINUOUS
 62
     7
100
AcDbLine
 10
-5.7692833177
 20
75.8447317473
 30
0.0
 11
-5.7692833177
 21
76.4847317474
 31
0.0
  0
LINE
  5
C8
330
1F
100
AcDbEntity
  8
0
  6
CONTINUOUS
 62
     7
100
AcDbLine
 10
-6.4092833177
 20
75.8447317473
 30
0.0
 11
-5.7692833177
 21
75.8447317473
 31
0.0
  0
LINE
  5
C9
330
1F
100
AcDbEntity
  8
0
  6
CONTINUOUS
 62
     7
100
AcDbLine
 10
-6.4092833177
 20
76.4847317474
 30
0.0
 11
-6.4092833177
 21
75.8447317473
 31
0.0
  0
LINE
  5
CA
330
1F
100
AcDbEntity
  8
0
  6
CONTINUOUS
 62
     7
100
AcDbLine
 10
-5.7692833177
 20
76.4847317474
 30
0.0
 11
-6.4092833177
 21
76.4847317474
 31
0.0
  0
LINE
  5
CB
330
1F
100
AcDbEntity
  8
0
  6
CONTINUOUS
 62
     7
100
AcDbLine
 10
-5.7692833177
 20
73.3047317473
 30
0.0
 11
-5.7692833177
 21
73.9447317474
 31
0.0
  0
LINE
  5
CC
330
1F
100
AcDbEntity
  8
0
  6
CONTINUOUS
 62
     7
100
AcDbLine
 10
-6.4092833177
 20
73.3047317473
 30
0.0
 11
-5.7692833177
 21
73.3047317473
 31
0.0
  0
LINE
  5
CD
330
1F
100
AcDbEntity
  8
0
  6
CONTINUOUS
 62
     7
100
AcDbLine
 10
-6.4092833177
 20
73.9447317474
 30
0.0
 11
-6.4092833177
 21
73.3047317473
 31
0.0
  0
LINE
  5
CE
330
1F
100
AcDbEntity
  8
0
  6
CONTINUOUS
 62
     7
100
AcDbLine
 10
-5.7692833177
 20
73.9447317474
 30
0.0
 11
-6.4092833177
 21
73.9447317474
 31
0.0
  0
LINE
  5
CF
330
1F
100
AcDbEntity
  8
0
  6
CONTINUOUS
 62
     7
100
AcDbLine
 10
19.6307166824
 20
60.6047317474
 30
0.0
 11
19.6307166824
 21
61.2447317474
 31
0.0
  0
LINE
  5
D0
330
1F
100
AcDbEntity
  8
0
  6
CONTINUOUS
 62
     7
100
AcDbLine
 10
18.9907166824
 20
60.6047317474
 30
0.0
 11
19.6307166824
 21
60.6047317474
 31
0.0
  0
LINE
  5
D1
330
1F
100
AcDbEntity
  8
0
  6
CONTINUOUS
 62
     7
100
AcDbLine
 10
18.9907166824
 20
61.2447317474
 30
0.0
 11
18.9907166824
 21
60.6047317474
 31
0.0
  0
LINE
  5
D2
330
1F
100
AcDbEntity
  8
0
  6
CONTINUOUS
 62
     7
100
AcDbLine
 10
19.6307166824
 20
61.2447317474
 30
0.0
 11
18.9907166824
 21
61.2447317474
 31
0.0
  0
LINE
  5
D3
330
1F
100
AcDbEntity
  8
0
  6
CONTINUOUS
 62
     7
100
AcDbLine
 10
49.7107166823
 20
105.4347317474
 30
0.0
 11
49.0707166823
 21
105.4347317474
 31
0.0
  0
LINE
  5
D4
330
1F
100
AcDbEntity
  8
0
  6
CONTINUOUS
 62
     7
100
AcDbLine
 10
49.7107166823
 20
104.7947317474
 30
0.0
 11
49.7107166823
 21
105.4347317474
 31
0.0
  0
LINE
  5
D5
330
1F
100
AcDbEntity
  8
0
  6
CONTINUOUS
 62
     7
100
AcDbLine
 10
49.0707166823
 20
104.7947317474
 30
0.0
 11
49.7107166823
 21
104.7947317474
 31
0.0
  0
LINE
  5
D6
330
1F
100
AcDbEntity
  8
0
  6
CONTINUOUS
 62
     7
100
AcDbLine
 10
49.0707166823
 20
105.4347317474
 30
0.0
 11
49.0707166823
 21
104.7947317474
 31
0.0
  0
LINE
  5
D7
330
1F
100
AcDbEntity
  8
0
  6
CONTINUOUS
 62
     7
100
AcDbLine
 10
49.7107166823
 20
97.8147317474
 30
0.0
 11
49.0707166823
 21
97.8147317474
 31
0.0
  0
LINE
  5
D8
330
1F
100
AcDbEntity
  8
0
  6
CONTINUOUS
 62
     7
100
AcDbLine
 10
49.7107166823
 20
97.1747317474
 30
0.0
 11
49.7107166823
 21
97.8147317474
 31
0.0
  0
LINE
  5
D9
330
1F
100
AcDbEntity
  8
0
  6
CONTINUOUS
 62
     7
100
AcDbLine
 10
49.0707166823
 20
97.1747317474
 30
0.0
 11
49.7107166823
 21
97.1747317474
 31
0.0
  0
LINE
  5
DA
330
1F
100
AcDbEntity
  8
0
  6
CONTINUOUS
 62
     7
100
AcDbLine
 10
49.0707166823
 20
97.8147317474
 30
0.0
 11
49.0707166823
 21
97.1747317474
 31
0.0
  0
LINE
  5
DB
330
1F
100
AcDbEntity
  8
0
  6
CONTINUOUS
 62
     7
100
AcDbLine
 10
49.7107166823
 20
100.3547317474
 30
0.0
 11
49.0707166823
 21
100.3547317474
 31
0.0
  0
LINE
  5
DC
330
1F
100
AcDbEntity
  8
0
  6
CONTINUOUS
 62
     7
100
AcDbLine
 10
49.7107166823
 20
99.7147317474
 30
0.0
 11
49.7107166823
 21
100.3547317474
 31
0.0
  0
LINE
  5
DD
330
1F
100
AcDbEntity
  8
0
  6
CONTINUOUS
 62
     7
100
AcDbLine
 10
49.0707166823
 20
99.7147317474
 30
0.0
 11
49.7107166823
 21
99.7147317474
 31
0.0
  0
LINE
  5
DE
330
1F
100
AcDbEntity
  8
0
  6
CONTINUOUS
 62
     7
100
AcDbLine
 10
49.0707166823
 20
100.3547317474
 30
0.0
 11
49.0707166823
 21
99.7147317474
 31
0.0
  0
LINE
  5
DF
330
1F
100
AcDbEntity
  8
0
  6
CONTINUOUS
 62
     7
100
AcDbLine
 10
-5.7692833177
 20
78.3847317473
 30
0.0
 11
-5.7692833177
 21
79.0247317474
 31
0.0
  0
LINE
  5
E0
330
1F
100
AcDbEntity
  8
0
  6
CONTINUOUS
 62
     7
100
AcDbLine
 10
-6.4092833177
 20
78.3847317473
 30
0.0
 11
-5.7692833177
 21
78.3847317473
 31
0.0
  0
LINE
  5
E1
330
1F
100
AcDbEntity
  8
0
  6
CONTINUOUS
 62
     7
100
AcDbLine
 10
-6.4092833177
 20
79.0247317474
 30
0.0
 11
-6.4092833177
 21
78.3847317473
 31
0.0
  0
LINE
  5
E2
330
1F
100
AcDbEntity
  8
0
  6
CONTINUOUS
 62
     7
100
AcDbLine
 10
-5.7692833177
 20
79.0247317474
 30
0.0
 11
-6.4092833177
 21
79.0247317474
 31
0.0
  0
LINE
  5
E3
330
1F
100
AcDbEntity
  8
0
  6
CONTINUOUS
 62
     7
100
AcDbLine
 10
46.9657166823
 20
82.5997317474
 30
0.0
 11
46.9657166823
 21
83.2397317474
 31
0.0
  0
LINE
  5
E4
330
1F
100
AcDbEntity
  8
0
  6
CONTINUOUS
 62
     7
100
AcDbLine
 10
46.3257166823
 20
82.5997317474
 30
0.0
 11
46.9657166823
 21
82.5997317474
 31
0.0
  0
LINE
  5
E5
330
1F
100
AcDbEntity
  8
0
  6
CONTINUOUS
 62
     7
100
AcDbLine
 10
46.3257166823
 20
83.2397317474
 30
0.0
 11
46.3257166823
 21
82.5997317474
 31
0.0
  0
LINE
  5
E6
330
1F
100
AcDbEntity
  8
0
  6
CONTINUOUS
 62
     7
100
AcDbLine
 10
46.9657166823
 20
83.2397317474
 30
0.0
 11
46.3257166823
 21
83.2397317474
 31
0.0
  0
LINE
  5
E7
330
1F
100
AcDbEntity
  8
0
  6
CONTINUOUS
 62
     7
100
AcDbLine
 10
44.4257166823
 20
82.5997317474
 30
0.0
 11
44.4257166823
 21
83.2397317474
 31
0.0
  0
LINE
  5
E8
330
1F
100
AcDbEntity
  8
0
  6
CONTINUOUS
 62
     7
100
AcDbLine
 10
43.7857166823
 20
82.5997317474
 30
0.0
 11
44.4257166823
 21
82.5997317474
 31
0.0
  0
LINE
  5
E9
330
1F
100
AcDbEntity
  8
0
  6
CONTINUOUS
 62
     7
100
AcDbLine
 10
43.7857166823
 20
83.2397317474
 30
0.0
 11
43.7857166823
 21
82.5997317474
 31
0.0
  0
LINE
  5
EA
330
1F
100
AcDbEntity
  8
0
  6
CONTINUOUS
 62
     7
100
AcDbLine
 10
44.4257166823
 20
83.2397317474
 30
0.0
 11
43.7857166823
 21
83.2397317474
 31
0.0
  0
LINE
  5
EB
330
1F
100
AcDbEntity
  8
0
  6
CONTINUOUS
 62
     7
100
AcDbLine
 10
56.0707166822
 20
95.9797534081
 30
0.0
 11
56.7107166822
 21
95.9797534081
 31
0.0
  0
LINE
  5
EC
330
1F
100
AcDbEntity
  8
0
  6
CONTINUOUS
 62
     7
100
AcDbLine
 10
56.0707166822
 20
96.6197534081
 30
0.0
 11
56.0707166822
 21
95.9797534081
 31
0.0
  0
LINE
  5
ED
330
1F
100
AcDbEntity
  8
0
  6
CONTINUOUS
 62
     7
100
AcDbLine
 10
56.7107166822
 20
96.6197534081
 30
0.0
 11
56.0707166822
 21
96.6197534081
 31
0.0
  0
LINE
  5
EE
330
1F
100
AcDbEntity
  8
0
  6
CONTINUOUS
 62
     7
100
AcDbLine
 10
56.7107166822
 20
95.9797534081
 30
0.0
 11
56.7107166822
 21
96.6197534081
 31
0.0
  0
LINE
  5
EF
330
1F
100
AcDbEntity
  8
0
  6
CONTINUOUS
 62
     7
100
AcDbLine
 10
56.0707166822
 20
93.4397534081
 30
0.0
 11
56.7107166822
 21
93.4397534081
 31
0.0
  0
LINE
  5
F0
330
1F
100
AcDbEntity
  8
0
  6
CONTINUOUS
 62
     7
100
AcDbLine
 10
56.0707166822
 20
94.0797534081
 30
0.0
 11
56.0707166822
 21
93.4397534081
 31
0.0
  0
LINE
  5
F1
330
1F
100
AcDbEntity
  8
0
  6
CONTINUOUS
 62
     7
100
AcDbLine
 10
56.7107166822
 20
94.0797534081
 30
0.0
 11
56.0707166822
 21
94.0797534081
 31
0.0
  0
LINE
  5
F2
330
1F
100
AcDbEntity
  8
0
  6
CONTINUOUS
 62
     7
100
AcDbLine
 10
56.7107166822
 20
93.4397534081
 30
0.0
 11
56.7107166822
 21
94.0797534081
 31
0.0
  0
LINE
  5
F3
330
1F
100
AcDbEntity
  8
0
  6
CONTINUOUS
 62
     7
100
AcDbLine
 10
64.7107166824
 20
51.5547317475
 30
0.0
 11
64.7107166824
 21
52.1947317475
 31
0.0
  0
LINE
  5
F4
330
1F
100
AcDbEntity
  8
0
  6
CONTINUOUS
 62
     7
100
AcDbLine
 10
64.0707166824
 20
51.5547317475
 30
0.0
 11
64.7107166824
 21
51.5547317475
 31
0.0
  0
LINE
  5
F5
330
1F
100
AcDbEntity
  8
0
  6
CONTINUOUS
 62
     7
100
AcDbLine
 10
64.0707166824
 20
52.1947317475
 30
0.0
 11
64.0707166824
 21
51.5547317475
 31
0.0
  0
LINE
  5
F6
330
1F
100
AcDbEntity
  8
0
  6
CONTINUOUS
 62
     7
100
AcDbLine
 10
64.7107166824
 20
52.1947317475
 30
0.0
 11
64.0707166824
 21
52.1947317475
 31
0.0
  0
LINE
  5
F7
330
1F
100
AcDbEntity
  8
0
  6
CONTINUOUS
 62
     7
100
AcDbLine
 10
54.4357166822
 20
66.0821100133
 30
0.0
 11
54.4357166822
 21
66.7221100133
 31
0.0
  0
LINE
  5
F8
330
1F
100
AcDbEntity
  8
0
  6
CONTINUOUS
 62
     7
100
AcDbLine
 10
53.7957166822
 20
66.0821100133
 30
0.0
 11
54.4357166822
 21
66.0821100133
 31
0.0
  0
LINE
  5
F9
330
1F
100
AcDbEntity
  8
0
  6
CONTINUOUS
 62
     7
100
AcDbLine
 10
53.7957166822
 20
66.7221100133
 30
0.0
 11
53.7957166822
 21
66.0821100133
 31
0.0
  0
LINE
  5
FA
330
1F
100
AcDbEntity
  8
0
  6
CONTINUOUS
 62
     7
100
AcDbLine
 10
54.4357166822
 20
66.7221100133
 30
0.0
 11
53.7957166822
 21
66.7221100133
 31
0.0
  0
LINE
  5
FB
330
1F
100
AcDbEntity
  8
0
  6
CONTINUOUS
 62
     7
100
AcDbLine
 10
61.4507166822
 20
164.164753408
 30
0.0
 11
61.4507166822
 21
164.804753408
 31
0.0
  0
LINE
  5
FC
330
1F
100
AcDbEntity
  8
0
  6
CONTINUOUS
 62
     7
100
AcDbLine
 10
60.8107166822
 20
164.164753408
 30
0.0
 11
61.4507166822
 21
164.164753408
 31
0.0
  0
LINE
  5
FD
330
1F
100
AcDbEntity
  8
0
  6
CONTINUOUS
 62
     7
100
AcDbLine
 10
60.8107166822
 20
164.804753408
 30
0.0
 11
60.8107166822
 21
164.164753408
 31
0.0
  0
LINE
  5
FE
330
1F
100
AcDbEntity
  8
0
  6
CONTINUOUS
 62
     7
100
AcDbLine
 10
61.4507166822
 20
164.804753408
 30
0.0
 11
60.8107166822
 21
164.804753408
 31
0.0
  0
LINE
  5
FF
330
1F
100
AcDbEntity
  8
0
  6
CONTINUOUS
 62
     7
100
AcDbLine
 10
41.8857166823
 20
74.5997317474
 30
0.0
 11
41.8857166823
 21
75.2397317474
 31
0.0
  0
LINE
  5
100
330
1F
100
AcDbEntity
  8
0
  6
CONTINUOUS
 62
     7
100
AcDbLine
 10
41.2457166823
 20
74.5997317474
 30
0.0
 11
41.8857166823
 21
74.5997317474
 31
0.0
  0
LINE
  5
101
330
1F
100
AcDbEntity
  8
0
  6
CONTINUOUS
 62
     7
100
AcDbLine
 10
41.2457166823
 20
75.2397317474
 30
0.0
 11
41.2457166823
 21
74.5997317474
 31
0.0
  0
LINE
  5
102
330
1F
100
AcDbEntity
  8
0
  6
CONTINUOUS
 62
     7
100
AcDbLine
 10
41.8857166823
 20
75.2397317474
 30
0.0
 11
41.2457166823
 21
75.2397317474
 31
0.0
  0
LINE
  5
103
330
1F
100
AcDbEntity
  8
0
  6
CONTINUOUS
 62
     7
100
AcDbLine
 10
31.2357166822
 20
15.714753408
 30
0.0
 11
31.2357166822
 21
16.354753408
 31
0.0
  0
LINE
  5
104
330
1F
100
AcDbEntity
  8
0
  6
CONTINUOUS
 62
     7
100
AcDbLine
 10
30.5957166822
 20
15.714753408
 30
0.0
 11
31.2357166822
 21
15.714753408
 31
0.0
  0
LINE
  5
105
330
1F
100
AcDbEntity
  8
0
  6
CONTINUOUS
 62
     7
100
AcDbLine
 10
30.5957166822
 20
16.354753408
 30
0.0
 11
30.5957166822
 21
15.714753408
 31
0.0
  0
LINE
  5
106
330
1F
100
AcDbEntity
  8
0
  6
CONTINUOUS
 62
     7
100
AcDbLine
 10
31.2357166822
 20
16.354753408
 30
0.0
 11
30.5957166822
 21
16.354753408
 31
0.0
  0
LINE
  5
107
330
1F
100
AcDbEntity
  8
0
  6
CONTINUOUS
 62
     7
100
AcDbLine
 10
28.6957166822
 20
15.714753408
 30
0.0
 11
28.6957166822
 21
16.354753408
 31
0.0
  0
LINE
  5
108
330
1F
100
AcDbEntity
  8
0
  6
CONTINUOUS
 62
     7
100
AcDbLine
 10
28.0557166822
 20
15.714753408
 30
0.0
 11
28.6957166822
 21
15.714753408
 31
0.0
  0
LINE
  5
109
330
1F
100
AcDbEntity
  8
0
  6
CONTINUOUS
 62
     7
100
AcDbLine
 10
28.0557166822
 20
16.354753408
 30
0.0
 11
28.0557166822
 21
15.714753408
 31
0.0
  0
LINE
  5
10A
330
1F
100
AcDbEntity
  8
0
  6
CONTINUOUS
 62
     7
100
AcDbLine
 10
28.6957166822
 20
16.354753408
 30
0.0
 11
28.0557166822
 21
16.354753408
 31
0.0
  0
LINE
  5
10B
330
1F
100
AcDbEntity
  8
0
  6
CONTINUOUS
 62
     7
100
AcDbLine
 10
-1.5192833178
 20
164.164753408
 30
0.0
 11
-1.5192833178
 21
164.804753408
 31
0.0
  0
LINE
  5
10C
330
1F
100
AcDbEntity
  8
0
  6
CONTINUOUS
 62
     7
100
AcDbLine
 10
-2.1592833178
 20
164.164753408
 30
0.0
 11
-1.5192833178
 21
164.164753408
 31
0.0
  0
LINE
  5
10D
330
1F
100
AcDbEntity
  8
0
  6
CONTINUOUS
 62
     7
100
AcDbLine
 10
-2.1592833178
 20
164.804753408
 30
0.0
 11
-2.1592833178
 21
164.164753408
 31
0.0
  0
LINE
  5
10E
330
1F
100
AcDbEntity
  8
0
  6
CONTINUOUS
 62
     7
100
AcDbLine
 10
-1.5192833178
 20
164.804753408
 30
0.0
 11
-2.1592833178
 21
164.804753408
 31
0.0
  0
LINE
  5
10F
330
1F
100
AcDbEntity
  8
0
  6
CONTINUOUS
 62
     7
100
AcDbLine
 10
-4.0592833178
 20
164.164753408
 30
0.0
 11
-4.0592833178
 21
164.804753408
 31
0.0
  0
LINE
  5
110
330
1F
100
AcDbEntity
  8
0
  6
CONTINUOUS
 62
     7
100
AcDbLine
 10
-4.6992833178
 20
164.164753408
 30
0.0
 11
-4.0592833178
 21
164.164753408
 31
0.0
  0
LINE
  5
111
330
1F
100
AcDbEntity
  8
0
  6
CONTINUOUS
 62
     7
100
AcDbLine
 10
-4.6992833178
 20
164.804753408
 30
0.0
 11
-4.6992833178
 21
164.164753408
 31
0.0
  0
LINE
  5
112
330
1F
100
AcDbEntity
  8
0
  6
CONTINUOUS
 62
     7
100
AcDbLine
 10
-4.0592833178
 20
164.804753408
 30
0.0
 11
-4.6992833178
 21
164.804753408
 31
0.0
  0
LINE
  5
113
330
1F
100
AcDbEntity
  8
0
  6
CONTINUOUS
 62
     7
100
AcDbLine
 10
33.7757166822
 20
15.714753408
 30
0.0
 11
33.7757166822
 21
16.354753408
 31
0.0
  0
LINE
  5
114
330
1F
100
AcDbEntity
  8
0
  6
CONTINUOUS
 62
     7
100
AcDbLine
 10
33.1357166822
 20
15.714753408
 30
0.0
 11
33.7757166822
 21
15.714753408
 31
0.0
  0
LINE
  5
115
330
1F
100
AcDbEntity
  8
0
  6
CONTINUOUS
 62
     7
100
AcDbLine
 10
33.1357166822
 20
16.354753408
 30
0.0
 11
33.1357166822
 21
15.714753408
 31
0.0
  0
LINE
  5
116
330
1F
100
AcDbEntity
  8
0
  6
CONTINUOUS
 62
     7
100
AcDbLine
 10
33.7757166822
 20
16.354753408
 30
0.0
 11
33.1357166822
 21
16.354753408
 31
0.0
  0
LINE
  5
117
330
1F
100
AcDbEntity
  8
0
  6
CONTINUOUS
 62
     7
100
AcDbLine
 10
1.0207166822
 20
164.164753408
 30
0.0
 11
1.0207166822
 21
164.804753408
 31
0.0
  0
LINE
  5
118
330
1F
100
AcDbEntity
  8
0
  6
CONTINUOUS
 62
     7
100
AcDbLine
 10
0.3807166822
 20
164.164753408
 30
0.0
 11
1.0207166822
 21
164.164753408
 31
0.0
  0
LINE
  5
119
330
1F
100
AcDbEntity
  8
0
  6
CONTINUOUS
 62
     7
100
AcDbLine
 10
0.3807166822
 20
164.804753408
 30
0.0
 11
0.3807166822
 21
164.164753408
 31
0.0
  0
LINE
  5
11A
330
1F
100
AcDbEntity
  8
0
  6
CONTINUOUS
 62
     7
100
AcDbLine
 10
1.0207166822
 20
164.804753408
 30
0.0
 11
0.3807166822
 21
164.804753408
 31
0.0
  0
LINE
  5
11B
330
1F
100
AcDbEntity
  8
0
  6
CONTINUOUS
 62
     7
100
AcDbLine
 10
64.7107166824
 20
56.6347317475
 30
0.0
 11
64.7107166824
 21
57.2747317475
 31
0.0
  0
LINE
  5
11C
330
1F
100
AcDbEntity
  8
0
  6
CONTINUOUS
 62
     7
100
AcDbLine
 10
64.0707166824
 20
56.6347317475
 30
0.0
 11
64.7107166824
 21
56.6347317475
 31
0.0
  0
LINE
  5
11D
330
1F
100
AcDbEntity
  8
0
  6
CONTINUOUS
 62
     7
100
AcDbLine
 10
64.0707166824
 20
57.2747317475
 30
0.0
 11
64.0707166824
 21
56.6347317475
 31
0.0
  0
LINE
  5
11E
330
1F
100
AcDbEntity
  8
0
  6
CONTINUOUS
 62
     7
100
AcDbLine
 10
64.7107166824
 20
57.2747317475
 30
0.0
 11
64.0707166824
 21
57.2747317475
 31
0.0
  0
LINE
  5
11F
330
1F
100
AcDbEntity
  8
0
  6
CONTINUOUS
 62
     7
100
AcDbLine
 10
64.7107166824
 20
54.0947317475
 30
0.0
 11
64.7107166824
 21
54.7347317475
 31
0.0
  0
LINE
  5
120
330
1F
100
AcDbEntity
  8
0
  6
CONTINUOUS
 62
     7
100
AcDbLine
 10
64.0707166824
 20
54.0947317475
 30
0.0
 11
64.7107166824
 21
54.0947317475
 31
0.0
  0
LINE
  5
121
330
1F
100
AcDbEntity
  8
0
  6
CONTINUOUS
 62
     7
100
AcDbLine
 10
64.0707166824
 20
54.7347317475
 30
0.0
 11
64.0707166824
 21
54.0947317475
 31
0.0
  0
LINE
  5
122
330
1F
100
AcDbEntity
  8
0
  6
CONTINUOUS
 62
     7
100
AcDbLine
 10
64.7107166824
 20
54.7347317475
 30
0.0
 11
64.0707166824
 21
54.7347317475
 31
0.0
  0
LINE
  5
123
330
1F
100
AcDbEntity
  8
0
  6
CONTINUOUS
 62
     7
100
AcDbLine
 10
-6.4092833177
 20
91.0847317473
 30
0.0
 11
-5.7692833177
 21
91.0847317473
 31
0.0
  0
LINE
  5
124
330
1F
100
AcDbEntity
  8
0
  6
CONTINUOUS
 62
     7
100
AcDbLine
 10
-6.4092833177
 20
91.7247317474
 30
0.0
 11
-6.4092833177
 21
91.0847317473
 31
0.0
  0
LINE
  5
125
330
1F
100
AcDbEntity
  8
0
  6
CONTINUOUS
 62
     7
100
AcDbLine
 10
-5.7692833177
 20
91.7247317474
 30
0.0
 11
-6.4092833177
 21
91.7247317474
 31
0.0
  0
LINE
  5
126
330
1F
100
AcDbEntity
  8
0
  6
CONTINUOUS
 62
     7
100
AcDbLine
 10
-5.7692833177
 20
91.0847317473
 30
0.0
 11
-5.7692833177
 21
91.7247317474
 31
0.0
  0
LINE
  5
127
330
1F
100
AcDbEntity
  8
0
  6
CONTINUOUS
 62
     7
100
AcDbLine
 10
-6.4092833177
 20
93.6247317473
 30
0.0
 11
-5.7692833177
 21
93.6247317473
 31
0.0
  0
LINE
  5
128
330
1F
100
AcDbEntity
  8
0
  6
CONTINUOUS
 62
     7
100
AcDbLine
 10
-6.4092833177
 20
94.2647317474
 30
0.0
 11
-6.4092833177
 21
93.6247317473
 31
0.0
  0
LINE
  5
129
330
1F
100
AcDbEntity
  8
0
  6
CONTINUOUS
 62
     7
100
AcDbLine
 10
-5.7692833177
 20
94.2647317474
 30
0.0
 11
-6.4092833177
 21
94.2647317474
 31
0.0
  0
LINE
  5
12A
330
1F
100
AcDbEntity
  8
0
  6
CONTINUOUS
 62
     7
100
AcDbLine
 10
-5.7692833177
 20
93.6247317473
 30
0.0
 11
-5.7692833177
 21
94.2647317474
 31
0.0
  0
LINE
  5
12B
330
1F
100
AcDbEntity
  8
0
  6
CONTINUOUS
 62
     7
100
AcDbLine
 10
-6.4092833177
 20
106.3247317473
 30
0.0
 11
-5.7692833177
 21
106.3247317473
 31
0.0
  0
LINE
  5
12C
330
1F
100
AcDbEntity
  8
0
  6
CONTINUOUS
 62
     7
100
AcDbLine
 10
-6.4092833177
 20
106.9647317474
 30
0.0
 11
-6.4092833177
 21
106.3247317473
 31
0.0
  0
LINE
  5
12D
330
1F
100
AcDbEntity
  8
0
  6
CONTINUOUS
 62
     7
100
AcDbLine
 10
-5.7692833177
 20
106.9647317474
 30
0.0
 11
-6.4092833177
 21
106.9647317474
 31
0.0
  0
LINE
  5
12E
330
1F
100
AcDbEntity
  8
0
  6
CONTINUOUS
 62
     7
100
AcDbLine
 10
-5.7692833177
 20
106.3247317473
 30
0.0
 11
-5.7692833177
 21
106.9647317474
 31
0.0
  0
LINE
  5
12F
330
1F
100
AcDbEntity
  8
0
  6
CONTINUOUS
 62
     7
100
AcDbLine
 10
41.4507166823
 20
90.1947317474
 30
0.0
 11
41.4507166823
 21
89.5547317474
 31
0.0
  0
LINE
  5
130
330
1F
100
AcDbEntity
  8
0
  6
CONTINUOUS
 62
     7
100
AcDbLine
 10
42.0907166823
 20
90.1947317474
 30
0.0
 11
41.4507166823
 21
90.1947317474
 31
0.0
  0
LINE
  5
131
330
1F
100
AcDbEntity
  8
0
  6
CONTINUOUS
 62
     7
100
AcDbLine
 10
42.0907166823
 20
89.5547317474
 30
0.0
 11
42.0907166823
 21
90.1947317474
 31
0.0
  0
LINE
  5
132
330
1F
100
AcDbEntity
  8
0
  6
CONTINUOUS
 62
     7
100
AcDbLine
 10
41.4507166823
 20
89.5547317474
 30
0.0
 11
42.0907166823
 21
89.5547317474
 31
0.0
  0
LINE
  5
133
330
1F
100
AcDbEntity
  8
0
  6
CONTINUOUS
 62
     7
100
AcDbLine
 10
-6.4092833177
 20
98.7047317473
 30
0.0
 11
-5.7692833177
 21
98.7047317473
 31
0.0
  0
LINE
  5
134
330
1F
100
AcDbEntity
  8
0
  6
CONTINUOUS
 62
     7
100
AcDbLine
 10
-6.4092833177
 20
99.3447317474
 30
0.0
 11
-6.4092833177
 21
98.7047317473
 31
0.0
  0
LINE
  5
135
330
1F
100
AcDbEntity
  8
0
  6
CONTINUOUS
 62
     7
100
AcDbLine
 10
-5.7692833177
 20
99.3447317474
 30
0.0
 11
-6.4092833177
 21
99.3447317474
 31
0.0
  0
LINE
  5
136
330
1F
100
AcDbEntity
  8
0
  6
CONTINUOUS
 62
     7
100
AcDbLine
 10
-5.7692833177
 20
98.7047317473
 30
0.0
 11
-5.7692833177
 21
99.3447317474
 31
0.0
  0
LINE
  5
137
330
1F
100
AcDbEntity
  8
0
  6
CONTINUOUS
 62
     7
100
AcDbLine
 10
-6.4092833177
 20
96.1647317473
 30
0.0
 11
-5.7692833177
 21
96.1647317473
 31
0.0
  0
LINE
  5
138
330
1F
100
AcDbEntity
  8
0
  6
CONTINUOUS
 62
     7
100
AcDbLine
 10
-6.4092833177
 20
96.8047317474
 30
0.0
 11
-6.4092833177
 21
96.1647317473
 31
0.0
  0
LINE
  5
139
330
1F
100
AcDbEntity
  8
0
  6
CONTINUOUS
 62
     7
100
AcDbLine
 10
-5.7692833177
 20
96.8047317474
 30
0.0
 11
-6.4092833177
 21
96.8047317474
 31
0.0
  0
LINE
  5
13A
330
1F
100
AcDbEntity
  8
0
  6
CONTINUOUS
 62
     7
100
AcDbLine
 10
-5.7692833177
 20
96.1647317473
 30
0.0
 11
-5.7692833177
 21
96.8047317474
 31
0.0
  0
LINE
  5
13B
330
1F
100
AcDbEntity
  8
0
  6
CONTINUOUS
 62
     7
100
AcDbLine
 10
18.9907166824
 20
75.8447317474
 30
0.0
 11
19.6307166824
 21
75.8447317474
 31
0.0
  0
LINE
  5
13C
330
1F
100
AcDbEntity
  8
0
  6
CONTINUOUS
 62
     7
100
AcDbLine
 10
18.9907166824
 20
76.4847317474
 30
0.0
 11
18.9907166824
 21
75.8447317474
 31
0.0
  0
LINE
  5
13D
330
1F
100
AcDbEntity
  8
0
  6
CONTINUOUS
 62
     7
100
AcDbLine
 10
19.6307166824
 20
76.4847317474
 30
0.0
 11
18.9907166824
 21
76.4847317474
 31
0.0
  0
LINE
  5
13E
330
1F
100
AcDbEntity
  8
0
  6
CONTINUOUS
 62
     7
100
AcDbLine
 10
19.6307166824
 20
75.8447317474
 30
0.0
 11
19.6307166824
 21
76.4847317474
 31
0.0
  0
LINE
  5
13F
330
1F
100
AcDbEntity
  8
0
  6
CONTINUOUS
 62
     7
100
AcDbLine
 10
18.9907166824
 20
73.3047317474
 30
0.0
 11
19.6307166824
 21
73.3047317474
 31
0.0
  0
LINE
  5
140
330
1F
100
AcDbEntity
  8
0
  6
CONTINUOUS
 62
     7
100
AcDbLine
 10
18.9907166824
 20
73.9447317474
 30
0.0
 11
18.9907166824
 21
73.3047317474
 31
0.0
  0
LINE
  5
141
330
1F
100
AcDbEntity
  8
0
  6
CONTINUOUS
 62
     7
100
AcDbLine
 10
19.6307166824
 20
73.9447317474
 30
0.0
 11
18.9907166824
 21
73.9447317474
 31
0.0
  0
LINE
  5
142
330
1F
100
AcDbEntity
  8
0
  6
CONTINUOUS
 62
     7
100
AcDbLine
 10
19.6307166824
 20
73.3047317474
 30
0.0
 11
19.6307166824
 21
73.9447317474
 31
0.0
  0
LINE
  5
143
330
1F
100
AcDbEntity
  8
0
  6
CONTINUOUS
 62
     7
100
AcDbLine
 10
66.5307166822
 20
164.164753408
 30
0.0
 11
66.5307166822
 21
164.804753408
 31
0.0
  0
LINE
  5
144
330
1F
100
AcDbEntity
  8
0
  6
CONTINUOUS
 62
     7
100
AcDbLine
 10
65.8907166822
 20
164.164753408
 30
0.0
 11
66.5307166822
 21
164.164753408
 31
0.0
  0
LINE
  5
145
330
1F
100
AcDbEntity
  8
0
  6
CONTINUOUS
 62
     7
100
AcDbLine
 10
65.8907166822
 20
164.804753408
 30
0.0
 11
65.8907166822
 21
164.164753408
 31
0.0
  0
LINE
  5
146
330
1F
100
AcDbEntity
  8
0
  6
CONTINUOUS
 62
     7
100
AcDbLine
 10
66.5307166822
 20
164.804753408
 30
0.0
 11
65.8907166822
 21
164.804753408
 31
0.0
  0
LINE
  5
147
330
1F
100
AcDbEntity
  8
0
  6
CONTINUOUS
 62
     7
100
AcDbLine
 10
63.9907166822
 20
164.164753408
 30
0.0
 11
63.9907166822
 21
164.804753408
 31
0.0
  0
LINE
  5
148
330
1F
100
AcDbEntity
  8
0
  6
CONTINUOUS
 62
     7
100
AcDbLine
 10
63.3507166822
 20
164.164753408
 30
0.0
 11
63.9907166822
 21
164.164753408
 31
0.0
  0
LINE
  5
149
330
1F
100
AcDbEntity
  8
0
  6
CONTINUOUS
 62
     7
100
AcDbLine
 10
63.3507166822
 20
164.804753408
 30
0.0
 11
63.3507166822
 21
164.164753408
 31
0.0
  0
LINE
  5
14A
330
1F
100
AcDbEntity
  8
0
  6
CONTINUOUS
 62
     7
100
AcDbLine
 10
63.9907166822
 20
164.804753408
 30
0.0
 11
63.3507166822
 21
164.804753408
 31
0.0
  0
LINE
  5
14B
330
1F
100
AcDbEntity
  8
0
  6
CONTINUOUS
 62
     7
100
AcDbLine
 10
46.9657166823
 20
78.5997317474
 30
0.0
 11
46.9657166823
 21
79.2397317474
 31
0.0
  0
LINE
  5
14C
330
1F
100
AcDbEntity
  8
0
  6
CONTINUOUS
 62
     7
100
AcDbLine
 10
46.3257166823
 20
78.5997317474
 30
0.0
 11
46.9657166823
 21
78.5997317474
 31
0.0
  0
LINE
  5
14D
330
1F
100
AcDbEntity
  8
0
  6
CONTINUOUS
 62
     7
100
AcDbLine
 10
46.3257166823
 20
79.2397317474
 30
0.0
 11
46.3257166823
 21
78.5997317474
 31
0.0
  0
LINE
  5
14E
330
1F
100
AcDbEntity
  8
0
  6
CONTINUOUS
 62
     7
100
AcDbLine
 10
46.9657166823
 20
79.2397317474
 30
0.0
 11
46.3257166823
 21
79.2397317474
 31
0.0
  0
LINE
  5
14F
330
1F
100
AcDbEntity
  8
0
  6
CONTINUOUS
 62
     7
100
AcDbLine
 10
44.4257166823
 20
78.5997317474
 30
0.0
 11
44.4257166823
 21
79.2397317474
 31
0.0
  0
LINE
  5
150
330
1F
100
AcDbEntity
  8
0
  6
CONTINUOUS
 62
     7
100
AcDbLine
 10
43.7857166823
 20
78.5997317474
 30
0.0
 11
44.4257166823
 21
78.5997317474
 31
0.0
  0
LINE
  5
151
330
1F
100
AcDbEntity
  8
0
  6
CONTINUOUS
 62
     7
100
AcDbLine
 10
43.7857166823
 20
79.2397317474
 30
0.0
 11
43.7857166823
 21
78.5997317474
 31
0.0
  0
LINE
  5
152
330
1F
100
AcDbEntity
  8
0
  6
CONTINUOUS
 62
     7
100
AcDbLine
 10
44.4257166823
 20
79.2397317474
 30
0.0
 11
43.7857166823
 21
79.2397317474
 31
0.0
  0
LINE
  5
153
330
1F
100
AcDbEntity
  8
0
  6
CONTINUOUS
 62
     7
100
AcDbLine
 10
46.9657166823
 20
74.5997317474
 30
0.0
 11
46.9657166823
 21
75.2397317474
 31
0.0
  0
LINE
  5
154
330
1F
100
AcDbEntity
  8
0
  6
CONTINUOUS
 62
     7
100
AcDbLine
 10
46.3257166823
 20
74.5997317474
 30
0.0
 11
46.9657166823
 21
74.5997317474
 31
0.0
  0
LINE
  5
155
330
1F
100
AcDbEntity
  8
0
  6
CONTINUOUS
 62
     7
100
AcDbLine
 10
46.3257166823
 20
75.2397317474
 30
0.0
 11
46.3257166823
 21
74.5997317474
 31
0.0
  0
LINE
  5
156
330
1F
100
AcDbEntity
  8
0
  6
CONTINUOUS
 62
     7
100
AcDbLine
 10
46.9657166823
 20
75.2397317474
 30
0.0
 11
46.3257166823
 21
75.2397317474
 31
0.0
  0
LINE
  5
157
330
1F
100
AcDbEntity
  8
0
  6
CONTINUOUS
 62
     7
100
AcDbLine
 10
44.4257166823
 20
74.5997317474
 30
0.0
 11
44.4257166823
 21
75.2397317474
 31
0.0
  0
LINE
  5
158
330
1F
100
AcDbEntity
  8
0
  6
CONTINUOUS
 62
     7
100
AcDbLine
 10
43.7857166823
 20
74.5997317474
 30
0.0
 11
44.4257166823
 21
74.5997317474
 31
0.0
  0
LINE
  5
159
330
1F
100
AcDbEntity
  8
0
  6
CONTINUOUS
 62
     7
100
AcDbLine
 10
43.7857166823
 20
75.2397317474
 30
0.0
 11
43.7857166823
 21
74.5997317474
 31
0.0
  0
LINE
  5
15A
330
1F
100
AcDbEntity
  8
0
  6
CONTINUOUS
 62
     7
100
AcDbLine
 10
44.4257166823
 20
75.2397317474
 30
0.0
 11
43.7857166823
 21
75.2397317474
 31
0.0
  0
LINE
  5
15B
330
1F
100
AcDbEntity
  8
0
  6
CONTINUOUS
 62
     7
100
AcDbLine
 10
-6.4092833177
 20
103.7847317473
 30
0.0
 11
-5.7692833177
 21
103.7847317473
 31
0.0
  0
LINE
  5
15C
330
1F
100
AcDbEntity
  8
0
  6
CONTINUOUS
 62
     7
100
AcDbLine
 10
-6.4092833177
 20
104.4247317474
 30
0.0
 11
-6.4092833177
 21
103.7847317473
 31
0.0
  0
LINE
  5
15D
330
1F
100
AcDbEntity
  8
0
  6
CONTINUOUS
 62
     7
100
AcDbLine
 10
-5.7692833177
 20
104.4247317474
 30
0.0
 11
-6.4092833177
 21
104.4247317474
 31
0.0
  0
LINE
  5
15E
330
1F
100
AcDbEntity
  8
0
  6
CONTINUOUS
 62
     7
100
AcDbLine
 10
-5.7692833177
 20
103.7847317473
 30
0.0
 11
-5.7692833177
 21
104.4247317474
 31
0.0
  0
LINE
  5
15F
330
1F
100
AcDbEntity
  8
0
  6
CONTINUOUS
 62
     7
100
AcDbLine
 10
-6.4092833177
 20
101.2447317473
 30
0.0
 11
-5.7692833177
 21
101.2447317473
 31
0.0
  0
LINE
  5
160
330
1F
100
AcDbEntity
  8
0
  6
CONTINUOUS
 62
     7
100
AcDbLine
 10
-6.4092833177
 20
101.8847317474
 30
0.0
 11
-6.4092833177
 21
101.2447317473
 31
0.0
  0
LINE
  5
161
330
1F
100
AcDbEntity
  8
0
  6
CONTINUOUS
 62
     7
100
AcDbLine
 10
-5.7692833177
 20
101.8847317474
 30
0.0
 11
-6.4092833177
 21
101.8847317474
 31
0.0
  0
LINE
  5
162
330
1F
100
AcDbEntity
  8
0
  6
CONTINUOUS
 62
     7
100
AcDbLine
 10
-5.7692833177
 20
101.2447317473
 30
0.0
 11
-5.7692833177
 21
101.8847317474
 31
0.0
  0
LINE
  5
163
330
1F
100
AcDbEntity
  8
0
  6
CONTINUOUS
 62
     7
100
AcDbLine
 10
49.0707166823
 20
90.1947317474
 30
0.0
 11
49.0707166823
 21
89.5547317474
 31
0.0
  0
LINE
  5
164
330
1F
100
AcDbEntity
  8
0
  6
CONTINUOUS
 62
     7
100
AcDbLine
 10
49.7107166823
 20
90.1947317474
 30
0.0
 11
49.0707166823
 21
90.1947317474
 31
0.0
  0
LINE
  5
165
330
1F
100
AcDbEntity
  8
0
  6
CONTINUOUS
 62
     7
100
AcDbLine
 10
49.7107166823
 20
89.5547317474
 30
0.0
 11
49.7107166823
 21
90.1947317474
 31
0.0
  0
LINE
  5
166
330
1F
100
AcDbEntity
  8
0
  6
CONTINUOUS
 62
     7
100
AcDbLine
 10
49.0707166823
 20
89.5547317474
 30
0.0
 11
49.7107166823
 21
89.5547317474
 31
0.0
  0
LINE
  5
167
330
1F
100
AcDbEntity
  8
0
  6
CONTINUOUS
 62
     7
100
AcDbLine
 10
42.0907166823
 20
100.3547317474
 30
0.0
 11
41.4507166823
 21
100.3547317474
 31
0.0
  0
LINE
  5
168
330
1F
100
AcDbEntity
  8
0
  6
CONTINUOUS
 62
     7
100
AcDbLine
 10
42.0907166823
 20
99.7147317474
 30
0.0
 11
42.0907166823
 21
100.3547317474
 31
0.0
  0
LINE
  5
169
330
1F
100
AcDbEntity
  8
0
  6
CONTINUOUS
 62
     7
100
AcDbLine
 10
41.4507166823
 20
99.7147317474
 30
0.0
 11
42.0907166823
 21
99.7147317474
 31
0.0
  0
LINE
  5
16A
330
1F
100
AcDbEntity
  8
0
  6
CONTINUOUS
 62
     7
100
AcDbLine
 10
41.4507166823
 20
100.3547317474
 30
0.0
 11
41.4507166823
 21
99.7147317474
 31
0.0
  0
LINE
  5
16B
330
1F
100
AcDbEntity
  8
0
  6
CONTINUOUS
 62
     7
100
AcDbLine
 10
18.9907166824
 20
106.3247317474
 30
0.0
 11
19.6307166824
 21
106.3247317474
 31
0.0
  0
LINE
  5
16C
330
1F
100
AcDbEntity
  8
0
  6
CONTINUOUS
 62
     7
100
AcDbLine
 10
18.9907166824
 20
106.9647317474
 30
0.0
 11
18.9907166824
 21
106.3247317474
 31
0.0
  0
LINE
  5
16D
330
1F
100
AcDbEntity
  8
0
  6
CONTINUOUS
 62
     7
100
AcDbLine
 10
19.6307166824
 20
106.9647317474
 30
0.0
 11
18.9907166824
 21
106.9647317474
 31
0.0
  0
LINE
  5
16E
330
1F
100
AcDbEntity
  8
0
  6
CONTINUOUS
 62
     7
100
AcDbLine
 10
19.6307166824
 20
106.3247317474
 30
0.0
 11
19.6307166824
 21
106.9647317474
 31
0.0
  0
LINE
  5
16F
330
1F
100
AcDbEntity
  8
0
  6
CONTINUOUS
 62
     7
100
AcDbLine
 10
18.9907166824
 20
103.7847317474
 30
0.0
 11
19.6307166824
 21
103.7847317474
 31
0.0
  0
LINE
  5
170
330
1F
100
AcDbEntity
  8
0
  6
CONTINUOUS
 62
     7
100
AcDbLine
 10
18.9907166824
 20
104.4247317474
 30
0.0
 11
18.9907166824
 21
103.7847317474
 31
0.0
  0
LINE
  5
171
330
1F
100
AcDbEntity
  8
0
  6
CONTINUOUS
 62
     7
100
AcDbLine
 10
19.6307166824
 20
104.4247317474
 30
0.0
 11
18.9907166824
 21
104.4247317474
 31
0.0
  0
LINE
  5
172
330
1F
100
AcDbEntity
  8
0
  6
CONTINUOUS
 62
     7
100
AcDbLine
 10
19.6307166824
 20
103.7847317474
 30
0.0
 11
19.6307166824
 21
104.4247317474
 31
0.0
  0
LINE
  5
173
330
1F
100
AcDbEntity
  8
0
  6
CONTINUOUS
 62
     7
100
AcDbLine
 10
42.0907166823
 20
92.7347317474
 30
0.0
 11
41.4507166823
 21
92.7347317474
 31
0.0
  0
LINE
  5
174
330
1F
100
AcDbEntity
  8
0
  6
CONTINUOUS
 62
     7
100
AcDbLine
 10
42.0907166823
 20
92.0947317474
 30
0.0
 11
42.0907166823
 21
92.7347317474
 31
0.0
  0
LINE
  5
175
330
1F
100
AcDbEntity
  8
0
  6
CONTINUOUS
 62
     7
100
AcDbLine
 10
41.4507166823
 20
92.0947317474
 30
0.0
 11
42.0907166823
 21
92.0947317474
 31
0.0
  0
LINE
  5
176
330
1F
100
AcDbEntity
  8
0
  6
CONTINUOUS
 62
     7
100
AcDbLine
 10
41.4507166823
 20
92.7347317474
 30
0.0
 11
41.4507166823
 21
92.0947317474
 31
0.0
  0
LINE
  5
177
330
1F
100
AcDbEntity
  8
0
  6
CONTINUOUS
 62
     7
100
AcDbLine
 10
56.0707166822
 20
114.7597534081
 30
0.0
 11
56.7107166822
 21
114.7597534081
 31
0.0
  0
LINE
  5
178
330
1F
100
AcDbEntity
  8
0
  6
CONTINUOUS
 62
     7
100
AcDbLine
 10
56.0707166822
 20
115.3997534081
 30
0.0
 11
56.0707166822
 21
114.7597534081
 31
0.0
  0
LINE
  5
179
330
1F
100
AcDbEntity
  8
0
  6
CONTINUOUS
 62
     7
100
AcDbLine
 10
56.7107166822
 20
115.3997534081
 30
0.0
 11
56.0707166822
 21
115.3997534081
 31
0.0
  0
LINE
  5
17A
330
1F
100
AcDbEntity
  8
0
  6
CONTINUOUS
 62
     7
100
AcDbLine
 10
56.7107166822
 20
114.7597534081
 30
0.0
 11
56.7107166822
 21
115.3997534081
 31
0.0
  0
LINE
  5
17B
330
1F
100
AcDbEntity
  8
0
  6
CONTINUOUS
 62
     7
100
AcDbLine
 10
18.9907166824
 20
96.1647317474
 30
0.0
 11
19.6307166824
 21
96.1647317474
 31
0.0
  0
LINE
  5
17C
330
1F
100
AcDbEntity
  8
0
  6
CONTINUOUS
 62
     7
100
AcDbLine
 10
18.9907166824
 20
96.8047317474
 30
0.0
 11
18.9907166824
 21
96.1647317474
 31
0.0
  0
LINE
  5
17D
330
1F
100
AcDbEntity
  8
0
  6
CONTINUOUS
 62
     7
100
AcDbLine
 10
19.6307166824
 20
96.8047317474
 30
0.0
 11
18.9907166824
 21
96.8047317474
 31
0.0
  0
LINE
  5
17E
330
1F
100
AcDbEntity
  8
0
  6
CONTINUOUS
 62
     7
100
AcDbLine
 10
19.6307166824
 20
96.1647317474
 30
0.0
 11
19.6307166824
 21
96.8047317474
 31
0.0
  0
LINE
  5
17F
330
1F
100
AcDbEntity
  8
0
  6
CONTINUOUS
 62
     7
100
AcDbLine
 10
18.9907166824
 20
93.6247317474
 30
0.0
 11
19.6307166824
 21
93.6247317474
 31
0.0
  0
LINE
  5
180
330
1F
100
AcDbEntity
  8
0
  6
CONTINUOUS
 62
     7
100
AcDbLine
 10
18.9907166824
 20
94.2647317474
 30
0.0
 11
18.9907166824
 21
93.6247317474
 31
0.0
  0
LINE
  5
181
330
1F
100
AcDbEntity
  8
0
  6
CONTINUOUS
 62
     7
100
AcDbLine
 10
19.6307166824
 20
94.2647317474
 30
0.0
 11
18.9907166824
 21
94.2647317474
 31
0.0
  0
LINE
  5
182
330
1F
100
AcDbEntity
  8
0
  6
CONTINUOUS
 62
     7
100
AcDbLine
 10
19.6307166824
 20
93.6247317474
 30
0.0
 11
19.6307166824
 21
94.2647317474
 31
0.0
  0
LINE
  5
183
330
1F
100
AcDbEntity
  8
0
  6
CONTINUOUS
 62
     7
100
AcDbLine
 10
18.9907166824
 20
101.2447317474
 30
0.0
 11
19.6307166824
 21
101.2447317474
 31
0.0
  0
LINE
  5
184
330
1F
100
AcDbEntity
  8
0
  6
CONTINUOUS
 62
     7
100
AcDbLine
 10
18.9907166824
 20
101.8847317474
 30
0.0
 11
18.9907166824
 21
101.2447317474
 31
0.0
  0
LINE
  5
185
330
1F
100
AcDbEntity
  8
0
  6
CONTINUOUS
 62
     7
100
AcDbLine
 10
19.6307166824
 20
101.8847317474
 30
0.0
 11
18.9907166824
 21
101.8847317474
 31
0.0
  0
LINE
  5
186
330
1F
100
AcDbEntity
  8
0
  6
CONTINUOUS
 62
     7
100
AcDbLine
 10
19.6307166824
 20
101.2447317474
 30
0.0
 11
19.6307166824
 21
101.8847317474
 31
0.0
  0
LINE
  5
187
330
1F
100
AcDbEntity
  8
0
  6
CONTINUOUS
 62
     7
100
AcDbLine
 10
56.0707166822
 20
88.3597534081
 30
0.0
 11
56.7107166822
 21
88.3597534081
 31
0.0
  0
LINE
  5
188
330
1F
100
AcDbEntity
  8
0
  6
CONTINUOUS
 62
     7
100
AcDbLine
 10
56.0707166822
 20
88.9997534081
 30
0.0
 11
56.0707166822
 21
88.3597534081
 31
0.0
  0
LINE
  5
189
330
1F
100
AcDbEntity
  8
0
  6
CONTINUOUS
 62
     7
100
AcDbLine
 10
56.7107166822
 20
88.9997534081
 30
0.0
 11
56.0707166822
 21
88.9997534081
 31
0.0
  0
LINE
  5
18A
330
1F
100
AcDbEntity
  8
0
  6
CONTINUOUS
 62
     7
100
AcDbLine
 10
56.7107166822
 20
88.3597534081
 30
0.0
 11
56.7107166822
 21
88.9997534081
 31
0.0
  0
LINE
  5
18B
330
1F
100
AcDbEntity
  8
0
  6
CONTINUOUS
 62
     7
100
AcDbLine
 10
56.0707166822
 20
112.2197534081
 30
0.0
 11
56.7107166822
 21
112.2197534081
 31
0.0
  0
LINE
  5
18C
330
1F
100
AcDbEntity
  8
0
  6
CONTINUOUS
 62
     7
100
AcDbLine
 10
56.0707166822
 20
112.8597534081
 30
0.0
 11
56.0707166822
 21
112.2197534081
 31
0.0
  0
LINE
  5
18D
330
1F
100
AcDbEntity
  8
0
  6
CONTINUOUS
 62
     7
100
AcDbLine
 10
56.7107166822
 20
112.8597534081
 30
0.0
 11
56.0707166822
 21
112.8597534081
 31
0.0
  0
LINE
  5
18E
330
1F
100
AcDbEntity
  8
0
  6
CONTINUOUS
 62
     7
100
AcDbLine
 10
56.7107166822
 20
112.2197534081
 30
0.0
 11
56.7107166822
 21
112.8597534081
 31
0.0
  0
LINE
  5
18F
330
1F
100
AcDbEntity
  8
0
  6
CONTINUOUS
 62
     7
100
AcDbLine
 10
56.7107166822
 20
85.8197534081
 30
0.0
 11
56.7107166822
 21
86.4597534081
 31
0.0
  0
LINE
  5
190
330
1F
100
AcDbEntity
  8
0
  6
CONTINUOUS
 62
     7
100
AcDbLine
 10
56.0707166822
 20
85.8197534081
 30
0.0
 11
56.7107166822
 21
85.8197534081
 31
0.0
  0
LINE
  5
191
330
1F
100
AcDbEntity
  8
0
  6
CONTINUOUS
 62
     7
100
AcDbLine
 10
56.0707166822
 20
86.4597534081
 30
0.0
 11
56.0707166822
 21
85.8197534081
 31
0.0
  0
LINE
  5
192
330
1F
100
AcDbEntity
  8
0
  6
CONTINUOUS
 62
     7
100
AcDbLine
 10
56.7107166822
 20
86.4597534081
 30
0.0
 11
56.0707166822
 21
86.4597534081
 31
0.0
  0
LINE
  5
193
330
1F
100
AcDbEntity
  8
0
  6
CONTINUOUS
 62
     7
100
AcDbLine
 10
56.0707166822
 20
117.2997534081
 30
0.0
 11
56.7107166822
 21
117.2997534081
 31
0.0
  0
LINE
  5
194
330
1F
100
AcDbEntity
  8
0
  6
CONTINUOUS
 62
     7
100
AcDbLine
 10
56.0707166822
 20
117.9397534081
 30
0.0
 11
56.0707166822
 21
117.2997534081
 31
0.0
  0
LINE
  5
195
330
1F
100
AcDbEntity
  8
0
  6
CONTINUOUS
 62
     7
100
AcDbLine
 10
56.7107166822
 20
117.9397534081
 30
0.0
 11
56.0707166822
 21
117.9397534081
 31
0.0
  0
LINE
  5
196
330
1F
100
AcDbEntity
  8
0
  6
CONTINUOUS
 62
     7
100
AcDbLine
 10
56.7107166822
 20
117.2997534081
 30
0.0
 11
56.7107166822
 21
117.9397534081
 31
0.0
  0
LINE
  5
197
330
1F
100
AcDbEntity
  8
0
  6
CONTINUOUS
 62
     7
100
AcDbLine
 10
18.9907166824
 20
88.5447317474
 30
0.0
 11
19.6307166824
 21
88.5447317474
 31
0.0
  0
LINE
  5
198
330
1F
100
AcDbEntity
  8
0
  6
CONTINUOUS
 62
     7
100
AcDbLine
 10
18.9907166824
 20
89.1847317474
 30
0.0
 11
18.9907166824
 21
88.5447317474
 31
0.0
  0
LINE
  5
199
330
1F
100
AcDbEntity
  8
0
  6
CONTINUOUS
 62
     7
100
AcDbLine
 10
19.6307166824
 20
89.1847317474
 30
0.0
 11
18.9907166824
 21
89.1847317474
 31
0.0
  0
LINE
  5
19A
330
1F
100
AcDbEntity
  8
0
  6
CONTINUOUS
 62
     7
100
AcDbLine
 10
19.6307166824
 20
88.5447317474
 30
0.0
 11
19.6307166824
 21
89.1847317474
 31
0.0
  0
LINE
  5
19B
330
1F
100
AcDbEntity
  8
0
  6
CONTINUOUS
 62
     7
100
AcDbLine
 10
42.0907166823
 20
97.8147317474
 30
0.0
 11
41.4507166823
 21
97.8147317474
 31
0.0
  0
LINE
  5
19C
330
1F
100
AcDbEntity
  8
0
  6
CONTINUOUS
 62
     7
100
AcDbLine
 10
42.0907166823
 20
97.1747317474
 30
0.0
 11
42.0907166823
 21
97.8147317474
 31
0.0
  0
LINE
  5
19D
330
1F
100
AcDbEntity
  8
0
  6
CONTINUOUS
 62
     7
100
AcDbLine
 10
41.4507166823
 20
97.1747317474
 30
0.0
 11
42.0907166823
 21
97.1747317474
 31
0.0
  0
LINE
  5
19E
330
1F
100
AcDbEntity
  8
0
  6
CONTINUOUS
 62
     7
100
AcDbLine
 10
41.4507166823
 20
97.8147317474
 30
0.0
 11
41.4507166823
 21
97.1747317474
 31
0.0
  0
LINE
  5
19F
330
1F
100
AcDbEntity
  8
0
  6
CONTINUOUS
 62
     7
100
AcDbLine
 10
42.0907166823
 20
95.2747317474
 30
0.0
 11
41.4507166823
 21
95.2747317474
 31
0.0
  0
LINE
  5
1A0
330
1F
100
AcDbEntity
  8
0
  6
CONTINUOUS
 62
     7
100
AcDbLine
 10
42.0907166823
 20
94.6347317474
 30
0.0
 11
42.0907166823
 21
95.2747317474
 31
0.0
  0
LINE
  5
1A1
330
1F
100
AcDbEntity
  8
0
  6
CONTINUOUS
 62
     7
100
AcDbLine
 10
41.4507166823
 20
94.6347317474
 30
0.0
 11
42.0907166823
 21
94.6347317474
 31
0.0
  0
LINE
  5
1A2
330
1F
100
AcDbEntity
  8
0
  6
CONTINUOUS
 62
     7
100
AcDbLine
 10
41.4507166823
 20
95.2747317474
 30
0.0
 11
41.4507166823
 21
94.6347317474
 31
0.0
  0
LINE
  5
1A3
330
1F
100
AcDbEntity
  8
0
  6
CONTINUOUS
 62
     7
100
AcDbLine
 10
42.0907166823
 20
102.8947317474
 30
0.0
 11
41.4507166823
 21
102.8947317474
 31
0.0
  0
LINE
  5
1A4
330
1F
100
AcDbEntity
  8
0
  6
CONTINUOUS
 62
     7
100
AcDbLine
 10
42.0907166823
 20
102.2547317474
 30
0.0
 11
42.0907166823
 21
102.8947317474
 31
0.0
  0
LINE
  5
1A5
330
1F
100
AcDbEntity
  8
0
  6
CONTINUOUS
 62
     7
100
AcDbLine
 10
41.4507166823
 20
102.2547317474
 30
0.0
 11
42.0907166823
 21
102.2547317474
 31
0.0
  0
LINE
  5
1A6
330
1F
100
AcDbEntity
  8
0
  6
CONTINUOUS
 62
     7
100
AcDbLine
 10
41.4507166823
 20
102.8947317474
 30
0.0
 11
41.4507166823
 21
102.2547317474
 31
0.0
  0
LINE
  5
1A7
330
1F
100
AcDbEntity
  8
0
  6
CONTINUOUS
 62
     7
100
AcDbLine
 10
18.9907166824
 20
98.7047317474
 30
0.0
 11
19.6307166824
 21
98.7047317474
 31
0.0
  0
LINE
  5
1A8
330
1F
100
AcDbEntity
  8
0
  6
CONTINUOUS
 62
     7
100
AcDbLine
 10
18.9907166824
 20
99.3447317474
 30
0.0
 11
18.9907166824
 21
98.7047317474
 31
0.0
  0
LINE
  5
1A9
330
1F
100
AcDbEntity
  8
0
  6
CONTINUOUS
 62
     7
100
AcDbLine
 10
19.6307166824
 20
99.3447317474
 30
0.0
 11
18.9907166824
 21
99.3447317474
 31
0.0
  0
LINE
  5
1AA
330
1F
100
AcDbEntity
  8
0
  6
CONTINUOUS
 62
     7
100
AcDbLine
 10
19.6307166824
 20
98.7047317474
 30
0.0
 11
19.6307166824
 21
99.3447317474
 31
0.0
  0
LINE
  5
1AB
330
1F
100
AcDbEntity
  8
0
  6
CONTINUOUS
 62
     7
100
AcDbLine
 10
18.9907166824
 20
86.0047317474
 30
0.0
 11
19.6307166824
 21
86.0047317474
 31
0.0
  0
LINE
  5
1AC
330
1F
100
AcDbEntity
  8
0
  6
CONTINUOUS
 62
     7
100
AcDbLine
 10
18.9907166824
 20
86.6447317474
 30
0.0
 11
18.9907166824
 21
86.0047317474
 31
0.0
  0
LINE
  5
1AD
330
1F
100
AcDbEntity
  8
0
  6
CONTINUOUS
 62
     7
100
AcDbLine
 10
19.6307166824
 20
86.6447317474
 30
0.0
 11
18.9907166824
 21
86.6447317474
 31
0.0
  0
LINE
  5
1AE
330
1F
100
AcDbEntity
  8
0
  6
CONTINUOUS
 62
     7
100
AcDbLine
 10
19.6307166824
 20
86.0047317474
 30
0.0
 11
19.6307166824
 21
86.6447317474
 31
0.0
  0
LINE
  5
1AF
330
1F
100
AcDbEntity
  8
0
  6
CONTINUOUS
 62
     7
100
AcDbLine
 10
18.9907166824
 20
83.4647317474
 30
0.0
 11
19.6307166824
 21
83.4647317474
 31
0.0
  0
LINE
  5
1B0
330
1F
100
AcDbEntity
  8
0
  6
CONTINUOUS
 62
     7
100
AcDbLine
 10
18.9907166824
 20
84.1047317474
 30
0.0
 11
18.9907166824
 21
83.4647317474
 31
0.0
  0
LINE
  5
1B1
330
1F
100
AcDbEntity
  8
0
  6
CONTINUOUS
 62
     7
100
AcDbLine
 10
19.6307166824
 20
84.1047317474
 30
0.0
 11
18.9907166824
 21
84.1047317474
 31
0.0
  0
LINE
  5
1B2
330
1F
100
AcDbEntity
  8
0
  6
CONTINUOUS
 62
     7
100
AcDbLine
 10
19.6307166824
 20
83.4647317474
 30
0.0
 11
19.6307166824
 21
84.1047317474
 31
0.0
  0
LINE
  5
1B3
330
1F
100
AcDbEntity
  8
0
  6
CONTINUOUS
 62
     7
100
AcDbLine
 10
18.9907166824
 20
91.0847317474
 30
0.0
 11
19.6307166824
 21
91.0847317474
 31
0.0
  0
LINE
  5
1B4
330
1F
100
AcDbEntity
  8
0
  6
CONTINUOUS
 62
     7
100
AcDbLine
 10
18.9907166824
 20
91.7247317474
 30
0.0
 11
18.9907166824
 21
91.0847317474
 31
0.0
  0
LINE
  5
1B5
330
1F
100
AcDbEntity
  8
0
  6
CONTINUOUS
 62
     7
100
AcDbLine
 10
19.6307166824
 20
91.7247317474
 30
0.0
 11
18.9907166824
 21
91.7247317474
 31
0.0
  0
LINE
  5
1B6
330
1F
100
AcDbEntity
  8
0
  6
CONTINUOUS
 62
     7
100
AcDbLine
 10
19.6307166824
 20
91.0847317474
 30
0.0
 11
19.6307166824
 21
91.7247317474
 31
0.0
  0
LINE
  5
1B7
330
1F
100
AcDbEntity
  8
0
  6
CONTINUOUS
 62
     7
100
AcDbLine
 10
-2.2392833176
 20
51.5547317473
 30
0.0
 11
-2.2392833176
 21
52.1947317473
 31
0.0
  0
LINE
  5
1B8
330
1F
100
AcDbEntity
  8
0
  6
CONTINUOUS
 62
     7
100
AcDbLine
 10
-2.8792833176
 20
51.5547317473
 30
0.0
 11
-2.2392833176
 21
51.5547317473
 31
0.0
  0
LINE
  5
1B9
330
1F
100
AcDbEntity
  8
0
  6
CONTINUOUS
 62
     7
100
AcDbLine
 10
-2.8792833176
 20
52.1947317473
 30
0.0
 11
-2.8792833176
 21
51.5547317473
 31
0.0
  0
LINE
  5
1BA
330
1F
100
AcDbEntity
  8
0
  6
CONTINUOUS
 62
     7
100
AcDbLine
 10
-2.2392833176
 20
52.1947317473
 30
0.0
 11
-2.8792833176
 21
52.1947317473
 31
0.0
  0
LINE
  5
1BB
330
1F
100
AcDbEntity
  8
0
  6
CONTINUOUS
 62
     7
100
AcDbLine
 10
53.9157166822
 20
169.009753408
 30
0.0
 11
53.9157166822
 21
163.009753408
 31
0.0
  0
LINE
  5
1BC
330
1F
100
AcDbEntity
  8
0
  6
CONTINUOUS
 62
     7
100
AcDbLine
 10
53.9157166822
 20
163.009753408
 30
0.0
 11
50.9157166822
 21
163.009753408
 31
0.0
  0
LINE
  5
1BD
330
1F
100
AcDbEntity
  8
0
  6
CONTINUOUS
 62
     7
100
AcDbLine
 10
50.9157166822
 20
163.009753408
 30
0.0
 11
50.9157166822
 21
169.009753408
 31
0.0
  0
LINE
  5
1BE
330
1F
100
AcDbEntity
  8
0
  6
CONTINUOUS
 62
     7
100
AcDbLine
 10
50.9157166822
 20
169.009753408
 30
0.0
 11
53.9157166822
 21
169.009753408
 31
0.0
  0
LINE
  5
1BF
330
1F
100
AcDbEntity
  8
0
  6
CONTINUOUS
 62
     7
100
AcDbLine
 10
50.9157166822
 20
124.009753408
 30
0.0
 11
53.9157166822
 21
124.009753408
 31
0.0
  0
LINE
  5
1C0
330
1F
100
AcDbEntity
  8
0
  6
CONTINUOUS
 62
     7
100
AcDbLine
 10
53.9157166822
 20
124.009753408
 30
0.0
 11
53.9157166822
 21
118.009753408
 31
0.0
  0
LINE
  5
1C1
330
1F
100
AcDbEntity
  8
0
  6
CONTINUOUS
 62
     7
100
AcDbLine
 10
53.9157166822
 20
118.009753408
 30
0.0
 11
50.9157166822
 21
118.009753408
 31
0.0
  0
LINE
  5
1C2
330
1F
100
AcDbEntity
  8
0
  6
CONTINUOUS
 62
     7
100
AcDbLine
 10
50.9157166822
 20
118.009753408
 30
0.0
 11
50.9157166822
 21
124.009753408
 31
0.0
  0
LINE
  5
1C3
330
1F
100
AcDbEntity
  8
0
  6
CONTINUOUS
 62
     7
100
AcDbLine
 10
10.9157166822
 20
118.009753408
 30
0.0
 11
7.9157166822
 21
118.009753408
 31
0.0
  0
LINE
  5
1C4
330
1F
100
AcDbEntity
  8
0
  6
CONTINUOUS
 62
     7
100
AcDbLine
 10
7.9157166822
 20
118.009753408
 30
0.0
 11
7.9157166822
 21
124.009753408
 31
0.0
  0
LINE
  5
1C5
330
1F
100
AcDbEntity
  8
0
  6
CONTINUOUS
 62
     7
100
AcDbLine
 10
7.9157166822
 20
124.009753408
 30
0.0
 11
10.9157166822
 21
124.009753408
 31
0.0
  0
LINE
  5
1C6
330
1F
100
AcDbEntity
  8
0
  6
CONTINUOUS
 62
     7
100
AcDbLine
 10
10.9157166822
 20
124.009753408
 30
0.0
 11
10.9157166822
 21
118.009753408
 31
0.0
  0
LINE
  5
1C7
330
1F
100
AcDbEntity
  8
0
  6
CONTINUOUS
 62
     7
100
AcDbLine
 10
24.8157166822
 20
64.009753408
 30
0.0
 11
21.8157166822
 21
64.009753408
 31
0.0
  0
LINE
  5
1C8
330
1F
100
AcDbEntity
  8
0
  6
CONTINUOUS
 62
     7
100
AcDbLine
 10
21.8157166822
 20
64.009753408
 30
0.0
 11
21.8157166822
 21
70.009753408
 31
0.0
  0
LINE
  5
1C9
330
1F
100
AcDbEntity
  8
0
  6
CONTINUOUS
 62
     7
100
AcDbLine
 10
21.8157166822
 20
70.009753408
 30
0.0
 11
24.8157166822
 21
70.009753408
 31
0.0
  0
LINE
  5
1CA
330
1F
100
AcDbEntity
  8
0
  6
CONTINUOUS
 62
     7
100
AcDbLine
 10
24.8157166822
 20
70.009753408
 30
0.0
 11
24.8157166822
 21
64.009753408
 31
0.0
  0
LINE
  5
1CB
330
1F
100
AcDbEntity
  8
0
  6
CONTINUOUS
 62
     7
100
AcDbLine
 10
37.0157166822
 20
64.009753408
 30
0.0
 11
37.0157166822
 21
70.009753408
 31
0.0
  0
LINE
  5
1CC
330
1F
100
AcDbEntity
  8
0
  6
CONTINUOUS
 62
     7
100
AcDbLine
 10
37.0157166822
 20
70.009753408
 30
0.0
 11
40.0157166822
 21
70.009753408
 31
0.0
  0
LINE
  5
1CD
330
1F
100
AcDbEntity
  8
0
  6
CONTINUOUS
 62
     7
100
AcDbLine
 10
40.0157166822
 20
70.009753408
 30
0.0
 11
40.0157166822
 21
64.009753408
 31
0.0
  0
LINE
  5
1CE
330
1F
100
AcDbEntity
  8
0
  6
CONTINUOUS
 62
     7
100
AcDbLine
 10
40.0157166822
 20
64.009753408
 30
0.0
 11
37.0157166822
 21
64.009753408
 31
0.0
  0
LINE
  5
1CF
330
1F
100
AcDbEntity
  8
0
  6
CONTINUOUS
 62
     7
100
AcDbLine
 10
33.9157166822
 20
81.009753408
 30
0.0
 11
27.9157166822
 21
81.009753408
 31
0.0
  0
LINE
  5
1D0
330
1F
100
AcDbEntity
  8
0
  6
CONTINUOUS
 62
     7
100
AcDbLine
 10
27.9157166822
 20
81.009753408
 30
0.0
 11
27.9157166822
 21
84.009753408
 31
0.0
  0
LINE
  5
1D1
330
1F
100
AcDbEntity
  8
0
  6
CONTINUOUS
 62
     7
100
AcDbLine
 10
27.9157166822
 20
84.009753408
 30
0.0
 11
33.9157166822
 21
84.009753408
 31
0.0
  0
LINE
  5
1D2
330
1F
100
AcDbEntity
  8
0
  6
CONTINUOUS
 62
     7
100
AcDbLine
 10
33.9157166822
 20
84.009753408
 30
0.0
 11
33.9157166822
 21
81.009753408
 31
0.0
  0
LINE
  5
1D3
330
1F
100
AcDbEntity
  8
0
  6
CONTINUOUS
 62
     7
100
AcDbLine
 10
10.9157166822
 20
163.009753408
 30
0.0
 11
7.9157166822
 21
163.009753408
 31
0.0
  0
LINE
  5
1D4
330
1F
100
AcDbEntity
  8
0
  6
CONTINUOUS
 62
     7
100
AcDbLine
 10
7.9157166822
 20
163.009753408
 30
0.0
 11
7.9157166822
 21
169.009753408
 31
0.0
  0
LINE
  5
1D5
330
1F
100
AcDbEntity
  8
0
  6
CONTINUOUS
 62
     7
100
AcDbLine
 10
7.9157166822
 20
169.009753408
 30
0.0
 11
10.9157166822
 21
169.009753408
 31
0.0
  0
LINE
  5
1D6
330
1F
100
AcDbEntity
  8
0
  6
CONTINUOUS
 62
     7
100
AcDbLine
 10
10.9157166822
 20
169.009753408
 30
0.0
 11
10.9157166822
 21
163.009753408
 31
0.0
  0
LINE
  5
1D7
330
1F
100
AcDbEntity
  8
0
  6
CONTINUOUS
 62
     7
100
AcDbLine
 10
-7.0842833178
 20
171.509753408
 30
0.0
 11
68.9157166822
 21
171.509753408
 31
0.0
  0
ARC
  5
1D8
330
1F
100
AcDbEntity
  8
0
  6
CONTINUOUS
 62
     7
100
AcDbCircle
 10
-7.0842833178
 20
169.509753408
 30
0.0
 40
2.0
100
AcDbArc
 50
90.0
 51
180.0
  0
LINE
  5
1D9
330
1F
100
AcDbEntity
  8
0
  6
CONTINUOUS
 62
     7
100
AcDbLine
 10
-9.0842833178
 20
169.509753408
 30
0.0
 11
-9.0842833178
 21
162.509753408
 31
0.0
  0
ARC
  5
1DA
330
1F
100
AcDbEntity
  8
0
  6
CONTINUOUS
 62
     7
100
AcDbCircle
 10
-7.0842833178
 20
162.509753408
 30
0.0
 40
2.0
100
AcDbArc
 50
180.0
 51
270.0
  0
LINE
  5
1DB
330
1F
100
AcDbEntity
  8
0
  6
CONTINUOUS
 62
     7
100
AcDbLine
 10
-7.0842833178
 20
160.509753408
 30
0.0
 11
6.9157166822
 21
160.509753408
 31
0.0
  0
ARC
  5
1DC
330
1F
100
AcDbEntity
  8
0
  6
CONTINUOUS
 62
     7
100
AcDbCircle
 10
6.9157166822
 20
156.509753408
 30
0.0
 40
4.000000000000001
100
AcDbArc
 50
0.0
 51
90.0
  0
LINE
  5
1DD
330
1F
100
AcDbEntity
  8
0
  6
CONTINUOUS
 62
     7
100
AcDbLine
 10
10.9157166822
 20
130.509753408
 30
0.0
 11
10.9157166822
 21
156.509753408
 31
0.0
  0
ARC
  5
1DE
330
1F
100
AcDbEntity
  8
0
  6
CONTINUOUS
 62
     7
100
AcDbCircle
 10
6.9157166822
 20
130.509753408
 30
0.0
 40
4.000000000000001
100
AcDbArc
 50
270.0
 51
0.0
  0
LINE
  5
1DF
330
1F
100
AcDbEntity
  8
0
  6
CONTINUOUS
 62
     7
100
AcDbLine
 10
-7.0842833178
 20
126.509753408
 30
0.0
 11
6.9157166822
 21
126.509753408
 31
0.0
  0
ARC
  5
1E0
330
1F
100
AcDbEntity
  8
0
  6
CONTINUOUS
 62
     7
100
AcDbCircle
 10
-7.0842833178
 20
124.509753408
 30
0.0
 40
2.000000000000014
100
AcDbArc
 50
90.0
 51
180.0
  0
LINE
  5
1E1
330
1F
100
AcDbEntity
  8
0
  6
CONTINUOUS
 62
     7
100
AcDbLine
 10
-9.0842833178
 20
124.509753408
 30
0.0
 11
-9.0842833178
 21
50.6697317474
 31
0.0
  0
ARC
  5
1E2
330
1F
100
AcDbEntity
  8
0
  6
CONTINUOUS
 62
     7
100
AcDbCircle
 10
-7.0842833178
 20
50.6697317474
 30
0.0
 40
2.0
100
AcDbArc
 50
180.0
 51
270.0
  0
LINE
  5
1E3
330
1F
100
AcDbEntity
  8
0
  6
CONTINUOUS
 62
     7
100
AcDbLine
 10
16.3485185105
 20
48.6697317474
 30
0.0
 11
-7.0842833178
 21
48.6697317474
 31
0.0
  0
ARC
  5
1E4
330
1F
100
AcDbEntity
  8
0
  6
CONTINUOUS
 62
     7
100
AcDbCircle
 10
16.3485185105
 20
42.6697317474
 30
0.0
 40
6.000000000000003
100
AcDbArc
 50
329.3387419976
 51
90.0
  0
LINE
  5
1E5
330
1F
100
AcDbEntity
  8
0
  6
CONTINUOUS
 62
     7
100
AcDbLine
 10
21.50970226
 20
39.6099634058
 30
0.0
 11
9.9448206107
 21
20.1024476178
 31
0.0
  0
ARC
  5
1E6
330
1F
100
AcDbEntity
  8
0
  6
CONTINUOUS
 62
     7
100
AcDbCircle
 10
13.4157166822
 20
18.044753408
 30
0.0
 40
4.035000000003087
100
AcDbArc
 50
149.3387419975
 51
270.0
  0
LINE
  5
1E7
330
1F
100
AcDbEntity
  8
0
  6
CONTINUOUS
 62
     7
100
AcDbLine
 10
13.4157166822
 20
14.009753408
 30
0.0
 11
48.4157166822
 21
14.009753408
 31
0.0
  0
ARC
  5
1E8
330
1F
100
AcDbEntity
  8
0
  6
CONTINUOUS
 62
     7
100
AcDbCircle
 10
48.4157166822
 20
18.044753408
 30
0.0
 40
4.034999999999991
100
AcDbArc
 50
270.0
 51
30.6612580023
  0
LINE
  5
1E9
330
1F
100
AcDbEntity
  8
0
  6
CONTINUOUS
 62
     7
100
AcDbLine
 10
40.3217311045
 20
39.6099634058
 30
0.0
 11
51.8866127537
 21
20.1024476178
 31
0.0
  0
ARC
  5
1EA
330
1F
100
AcDbEntity
  8
0
  6
CONTINUOUS
 62
     7
100
AcDbCircle
 10
45.482914854
 20
42.6697317474
 30
0.0
 40
6.0
100
AcDbArc
 50
90.0
 51
210.6612580023
  0
LINE
  5
1EB
330
1F
100
AcDbEntity
  8
0
  6
CONTINUOUS
 62
     7
100
AcDbLine
 10
68.9157166822
 20
48.6697317474
 30
0.0
 11
45.482914854
 21
48.6697317474
 31
0.0
  0
ARC
  5
1EC
330
1F
100
AcDbEntity
  8
0
  6
CONTINUOUS
 62
     7
100
AcDbCircle
 10
68.9157166822
 20
50.6697317474
 30
0.0
 40
2.0
100
AcDbArc
 50
270.0
 51
0.0
  0
LINE
  5
1ED
330
1F
100
AcDbEntity
  8
0
  6
CONTINUOUS
 62
     7
100
AcDbLine
 10
70.9157166822
 20
124.509753408
 30
0.0
 11
70.9157166822
 21
50.6697317474
 31
0.0
  0
ARC
  5
1EE
330
1F
100
AcDbEntity
  8
0
  6
CONTINUOUS
 62
     7
100
AcDbCircle
 10
68.9157166822
 20
124.509753408
 30
0.0
 40
2.0
100
AcDbArc
 50
0.0
 51
90.0
  0
LINE
  5
1EF
330
1F
100
AcDbEntity
  8
0
  6
CONTINUOUS
 62
     7
100
AcDbLine
 10
68.9157166822
 20
126.509753408
 30
0.0
 11
54.9157166822
 21
126.509753408
 31
0.0
  0
ARC
  5
1F0
330
1F
100
AcDbEntity
  8
0
  6
CONTINUOUS
 62
     7
100
AcDbCircle
 10
54.9157166822
 20
130.509753408
 30
0.0
 40
4.0
100
AcDbArc
 50
180.0
 51
270.0
  0
LINE
  5
1F1
330
1F
100
AcDbEntity
  8
0
  6
CONTINUOUS
 62
     7
100
AcDbLine
 10
50.9157166822
 20
130.509753408
 30
0.0
 11
50.9157166822
 21
156.509753408
 31
0.0
  0
ARC
  5
1F2
330
1F
100
AcDbEntity
  8
0
  6
CONTINUOUS
 62
     7
100
AcDbCircle
 10
54.9157166822
 20
156.509753408
 30
0.0
 40
4.0
100
AcDbArc
 50
90.0
 51
180.0
  0
LINE
  5
1F3
330
1F
100
AcDbEntity
  8
0
  6
CONTINUOUS
 62
     7
100
AcDbLine
 10
68.9157166822
 20
160.509753408
 30
0.0
 11
54.9157166822
 21
160.509753408
 31
0.0
  0
ARC
  5
1F4
330
1F
100
AcDbEntity
  8
0
  6
CONTINUOUS
 62
     7
100
AcDbCircle
 10
68.9157166822
 20
162.509753408
 30
0.0
 40
2.0
100
AcDbArc
 50
270.0
 51
0.0
  0
LINE
  5
1F5
330
1F
100
AcDbEntity
  8
0
  6
CONTINUOUS
 62
     7
100
AcDbLine
 10
70.9157166822
 20
169.509753408
 30
0.0
 11
70.9157166822
 21
162.509753408
 31
0.0
  0
ARC
  5
1F6
330
1F
100
AcDbEntity
  8
0
  6
CONTINUOUS
 62
     7
100
AcDbCircle
 10
68.9157166822
 20
169.509753408
 30
0.0
 40
2.0
100
AcDbArc
 50
0.0
 51
90.0
  0
LINE
  5
1F7
330
1F
100
AcDbEntity
  8
0
  6
CONTINUOUS
 62
     7
100
AcDbLine
 10
18.9157166822
 20
126.509753408
 30
0.0
 11
18.9157166822
 21
160.509753408
 31
0.0
  0
ARC
  5
1F8
330
1F
100
AcDbEntity
  8
0
  6
CONTINUOUS
 62
     7
100
AcDbCircle
 10
21.9157166822
 20
160.509753408
 30
0.0
 40
3.000000000000028
100
AcDbArc
 50
90.0
 51
180.0
  0
LINE
  5
1F9
330
1F
100
AcDbEntity
  8
0
  6
CONTINUOUS
 62
     7
100
AcDbLine
 10
21.9157166822
 20
163.509753408
 30
0.0
 11
39.9157166822
 21
163.509753408
 31
0.0
  0
ARC
  5
1FA
330
1F
100
AcDbEntity
  8
0
  6
CONTINUOUS
 62
     7
100
AcDbCircle
 10
39.9157166822
 20
160.509753408
 30
0.0
 40
3.000000000000028
100
AcDbArc
 50
0.0
 51
90.0
  0
LINE
  5
1FB
330
1F
100
AcDbEntity
  8
0
  6
CONTINUOUS
 62
     7
100
AcDbLine
 10
42.9157166822
 20
126.509753408
 30
0.0
 11
42.9157166822
 21
160.509753408
 31
0.0
  0
ARC
  5
1FC
330
1F
100
AcDbEntity
  8
0
  6
CONTINUOUS
 62
     7
100
AcDbCircle
 10
39.9157166822
 20
126.509753408
 30
0.0
 40
3.000000000000639
100
AcDbArc
 50
270.0
 51
0.0
  0
LINE
  5
1FD
330
1F
100
AcDbEntity
  8
0
  6
CONTINUOUS
 62
     7
100
AcDbLine
 10
21.9157166822
 20
123.509753408
 30
0.0
 11
39.9157166822
 21
123.509753408
 31
0.0
  0
ARC
  5
1FE
330
1F
100
AcDbEntity
  8
0
  6
CONTINUOUS
 62
     7
100
AcDbCircle
 10
21.9157166822
 20
126.509753408
 30
0.0
 40
3.000000000000185
100
AcDbArc
 50
180.0
 51
270.0
  0
CIRCLE
  5
1FF
330
1F
100
AcDbEntity
  8
0
  6
CONTINUOUS
 62
     7
100
AcDbCircle
 10
46.9157166822
 20
147.509753408
 30
0.0
 40
2.399999999700441
  0
CIRCLE
  5
200
330
1F
100
AcDbEntity
  8
0
  6
CONTINUOUS
 62
     7
100
AcDbCircle
 10
46.9157166822
 20
135.509753408
 30
0.0
 40
2.400000000008134
  0
CIRCLE
  5
201
330
1F
100
AcDbEntity
  8
0
  6
CONTINUOUS
 62
     7
100
AcDbCircle
 10
46.9157166822
 20
167.509753408
 30
0.0
 40
2.400000000000006
  0
CIRCLE
  5
202
330
1F
100
AcDbEntity
  8
0
  6
CONTINUOUS
 62
     7
100
AcDbCircle
 10
14.9157166822
 20
167.509753408
 30
0.0
 40
2.400000000000006
  0
CIRCLE
  5
203
330
1F
100
AcDbEntity
  8
0
  6
CONTINUOUS
 62
     7
100
AcDbCircle
 10
14.9157166822
 20
119.509753408
 30
0.0
 40
2.400000000000006
  0
CIRCLE
  5
204
330
1F
100
AcDbEntity
  8
0
  6
CONTINUOUS
 62
     7
100
AcDbCircle
 10
46.9157166822
 20
119.509753408
 30
0.0
 40
2.399999999999991
  0
CIRCLE
  5
205
330
1F
100
AcDbEntity
  8
0
  6
CONTINUOUS
 62
     7
100
AcDbCircle
 10
14.9157166822
 20
151.509753408
 30
0.0
 40
2.400000000014273
  0
CIRCLE
  5
206
330
1F
100
AcDbEntity
  8
0
  6
CONTINUOUS
 62
     7
100
AcDbCircle
 10
14.9157166822
 20
135.509753408
 30
0.0
 40
2.400000000014273
  0
CIRCLE
  5
207
330
1F
100
AcDbEntity
  8
0
  6
CONTINUOUS
 62
     7
100
AcDbCircle
 10
48.4157166822
 20
18.044753408
 30
0.0
 40
2.399999999704871
  0
CIRCLE
  5
208
330
1F
100
AcDbEntity
  8
0
  6
CONTINUOUS
 62
     7
100
AcDbCircle
 10
13.4157166822
 20
18.044753408
 30
0.0
 40
2.399999999704878
  0
MTEXT
  5
20A
330
1F
100
AcDbEntity
  8
0
  6
CONTINUOUS
 62
     7
100
AcDbMText
 10
-9.0842833178
 20
12.9901870163
 30
0.0
 40
4.83362
 41
0.0
 71
     1
 72
     1
  1
SOLIDWORKS Educational Product.
  7
SLDTEXTSTYLE0
  0
MTEXT
  5
20B
330
1F
100
AcDbEntity
  8
0
  6
CONTINUOUS
 62
     7
100
AcDbMText
 10
-9.0842833178
 20
5.7397570163
 30
0.0
 40
4.83362
 41
0.0
 71
     1
 72
     1
  1
For Instructional Use Only.
  7
SLDTEXTSTYLE0
  0
ENDSEC
  0
SECTION
  2
OBJECTS
  0
DICTIONARY
  5
C
330
0
100
AcDbDictionary
  3
ACAD_GROUP
350
D
  3
ACAD_MLINESTYLE
350
17
  3
ACAD_SCALELIST
350
47
  3
DWGPROPS
350
20C
1001
ACAD
1000
TREAT_AS_HARD
1070
     0
  0
DICTIONARY
  5
D
102
{ACAD_REACTORS
330
C
102
}
330
C
100
AcDbDictionary
1001
ACAD
1000
TREAT_AS_HARD
1070
     0
  0
DICTIONARY
  5
17
102
{ACAD_REACTORS
330
C
102
}
330
C
100
AcDbDictionary
  3
STANDARD
350
18
1001
ACAD
1000
TREAT_AS_HARD
1070
     0
  0
DICTIONARY
  5
47
102
{ACAD_REACTORS
330
C
102
}
330
C
100
AcDbDictionary
1001
ACAD
1000
TREAT_AS_HARD
1070
     0
  0
XRECORD
  5
20C
102
{ACAD_REACTORS
330
C
102
}
330
C
100
AcDbXrecord
  1
DWGPROPS COOKIE
  2

  3

  4

  6

  7

  8
Joel Tolley
  9

300
=
301
=
302
=
303
=
304
=
305
=
306
=
307
=
308
=
309
=
 40
0.0
 41
2460891.008929815
 42
2460891.009013959
  1

 90
        0
  0
MLINESTYLE
  5
18
102
{ACAD_REACTORS
330
17
102
}
330
17
100
AcDbMlineStyle
  2
Standard
 70
     0
  3

 62
   256
 51
90.0
 52
90.0
 71
     2
 49
0.5
 62
   256
  6
BYLAYER
 49
-0.5
 62
   256
  6
BYLAYER
  0
ENDSEC
  0
EOF
